%TF.GenerationSoftware,KiCad,Pcbnew,(6.0.7)*%
%TF.CreationDate,2022-09-10T19:48:32+02:00*%
%TF.ProjectId,eurorack-pmod-pcb,6575726f-7261-4636-9b2d-706d6f642d70,rev?*%
%TF.SameCoordinates,Original*%
%TF.FileFunction,Copper,L3,Inr*%
%TF.FilePolarity,Positive*%
%FSLAX46Y46*%
G04 Gerber Fmt 4.6, Leading zero omitted, Abs format (unit mm)*
G04 Created by KiCad (PCBNEW (6.0.7)) date 2022-09-10 19:48:32*
%MOMM*%
%LPD*%
G01*
G04 APERTURE LIST*
G04 Aperture macros list*
%AMRoundRect*
0 Rectangle with rounded corners*
0 $1 Rounding radius*
0 $2 $3 $4 $5 $6 $7 $8 $9 X,Y pos of 4 corners*
0 Add a 4 corners polygon primitive as box body*
4,1,4,$2,$3,$4,$5,$6,$7,$8,$9,$2,$3,0*
0 Add four circle primitives for the rounded corners*
1,1,$1+$1,$2,$3*
1,1,$1+$1,$4,$5*
1,1,$1+$1,$6,$7*
1,1,$1+$1,$8,$9*
0 Add four rect primitives between the rounded corners*
20,1,$1+$1,$2,$3,$4,$5,0*
20,1,$1+$1,$4,$5,$6,$7,0*
20,1,$1+$1,$6,$7,$8,$9,0*
20,1,$1+$1,$8,$9,$2,$3,0*%
G04 Aperture macros list end*
%TA.AperFunction,ComponentPad*%
%ADD10C,0.500000*%
%TD*%
%TA.AperFunction,ComponentPad*%
%ADD11RoundRect,0.725000X-0.725000X1.575000X-0.725000X-1.575000X0.725000X-1.575000X0.725000X1.575000X0*%
%TD*%
%TA.AperFunction,ComponentPad*%
%ADD12O,4.600000X2.500000*%
%TD*%
%TA.AperFunction,ComponentPad*%
%ADD13C,0.800000*%
%TD*%
%TA.AperFunction,ComponentPad*%
%ADD14C,6.400000*%
%TD*%
%TA.AperFunction,ComponentPad*%
%ADD15R,1.700000X1.700000*%
%TD*%
%TA.AperFunction,ComponentPad*%
%ADD16O,1.700000X1.700000*%
%TD*%
%TA.AperFunction,ViaPad*%
%ADD17C,0.800000*%
%TD*%
%TA.AperFunction,Conductor*%
%ADD18C,0.250000*%
%TD*%
%TA.AperFunction,Conductor*%
%ADD19C,0.508000*%
%TD*%
%TA.AperFunction,Conductor*%
%ADD20C,0.254000*%
%TD*%
G04 APERTURE END LIST*
D10*
%TO.N,GND*%
%TO.C,U3*%
X3925000Y-53840000D03*
X4925000Y-54840000D03*
X5925000Y-53840000D03*
X5925000Y-52840000D03*
X4925000Y-52840000D03*
X3925000Y-54840000D03*
X4925000Y-53840000D03*
X5925000Y-54840000D03*
X3925000Y-52840000D03*
%TD*%
D11*
%TO.N,GND*%
%TO.C,J6*%
X-17970000Y-46964776D03*
%TO.N,Net-(J6-PadT)*%
X-4770000Y-46964776D03*
D12*
%TO.N,GND*%
X-6970000Y-52164776D03*
%TD*%
D13*
%TO.N,N/C*%
%TO.C,REF\u002A\u002A*%
X17445056Y-5761056D03*
X14050944Y-5761056D03*
X18148000Y-4064000D03*
D14*
X15748000Y-4064000D03*
D13*
X17445056Y-2366944D03*
X13348000Y-4064000D03*
X14050944Y-2366944D03*
X15748000Y-1664000D03*
X15748000Y-6464000D03*
%TD*%
D15*
%TO.N,Net-(D2-Pad1)*%
%TO.C,J1*%
X17145000Y-104135000D03*
D16*
X14605000Y-104135000D03*
%TO.N,GND*%
X17145000Y-101595000D03*
X14605000Y-101595000D03*
X17145000Y-99055000D03*
X14605000Y-99055000D03*
X17145000Y-96515000D03*
X14605000Y-96515000D03*
%TO.N,Net-(D1-Pad2)*%
X17145000Y-93975000D03*
X14605000Y-93975000D03*
%TD*%
D11*
%TO.N,GND*%
%TO.C,J3*%
X-17970000Y-5735611D03*
%TO.N,Net-(J3-PadT)*%
X-4770000Y-5735611D03*
D12*
%TO.N,GND*%
X-6970000Y-10935611D03*
%TD*%
D11*
%TO.N,GND*%
%TO.C,J7*%
X-17970000Y-60707831D03*
%TO.N,Net-(J7-PadT)*%
X-4770000Y-60707831D03*
D12*
%TO.N,unconnected-(J7-PadTN)*%
X-6970000Y-65907831D03*
%TD*%
D11*
%TO.N,GND*%
%TO.C,J4*%
X-17970000Y-19478666D03*
%TO.N,Net-(J4-PadT)*%
X-4770000Y-19478666D03*
D12*
%TO.N,GND*%
X-6970000Y-24678666D03*
%TD*%
D11*
%TO.N,GND*%
%TO.C,J10*%
X-17970000Y-101937000D03*
%TO.N,Net-(J10-PadT)*%
X-4770000Y-101937000D03*
D12*
%TO.N,unconnected-(J10-PadTN)*%
X-6970000Y-107137000D03*
%TD*%
D11*
%TO.N,GND*%
%TO.C,J5*%
X-17970000Y-33221721D03*
%TO.N,Net-(J5-PadT)*%
X-4770000Y-33221721D03*
D12*
%TO.N,GND*%
X-6970000Y-38421721D03*
%TD*%
D13*
%TO.N,N/C*%
%TO.C,REF\u002A\u002A*%
X4673600Y-108521200D03*
X6370656Y-107818256D03*
X2976544Y-107818256D03*
D14*
X4673600Y-106121200D03*
D13*
X4673600Y-103721200D03*
X2273600Y-106121200D03*
X2976544Y-104424144D03*
X6370656Y-104424144D03*
X7073600Y-106121200D03*
%TD*%
D11*
%TO.N,GND*%
%TO.C,J9*%
X-17970000Y-88193941D03*
%TO.N,Net-(J9-PadT)*%
X-4770000Y-88193941D03*
D12*
%TO.N,unconnected-(J9-PadTN)*%
X-6970000Y-93393941D03*
%TD*%
D15*
%TO.N,/SDIN1*%
%TO.C,J2*%
X17145000Y-69850000D03*
D16*
%TO.N,/SCL*%
X14605000Y-69850000D03*
%TO.N,/SDOUT1*%
X17145000Y-67310000D03*
%TO.N,/SDA*%
X14605000Y-67310000D03*
%TO.N,/LRCK*%
X17145000Y-64770000D03*
%TO.N,/PDN*%
X14605000Y-64770000D03*
%TO.N,/BICK*%
X17145000Y-62230000D03*
%TO.N,/MCLK*%
X14605000Y-62230000D03*
%TO.N,GND*%
X17145000Y-59690000D03*
X14605000Y-59690000D03*
%TO.N,Net-(J2-Pad11)*%
X17145000Y-57150000D03*
X14605000Y-57150000D03*
%TD*%
D11*
%TO.N,GND*%
%TO.C,J8*%
X-17970000Y-74450886D03*
%TO.N,Net-(J8-PadT)*%
X-4770000Y-74450886D03*
D12*
%TO.N,unconnected-(J8-PadTN)*%
X-6970000Y-79650886D03*
%TD*%
D17*
%TO.N,GND*%
X-14224000Y-11176000D03*
X5080000Y-88392000D03*
X18288000Y-88900000D03*
X12192000Y-76708000D03*
X-14224000Y-52324000D03*
X18796000Y-40132000D03*
X12700000Y-39624000D03*
X330200Y-100914200D03*
X-10668000Y-67564000D03*
X9652000Y-24892000D03*
X6604000Y-90424000D03*
X-14224000Y-24892000D03*
X5080000Y-24892000D03*
X-14224000Y-38608000D03*
X-10668000Y-81280000D03*
X15748000Y-46228000D03*
X3556000Y-90424000D03*
X4064000Y-61468000D03*
X14732000Y-84328000D03*
X14224000Y-49784000D03*
X431800Y-97866200D03*
X-733318Y-70289739D03*
X9830704Y-68328994D03*
X17780000Y-84328000D03*
X-10668000Y-94996000D03*
X8035679Y-61794813D03*
X3556000Y-40640000D03*
X8636000Y-40132000D03*
X4139200Y-48416091D03*
X-10160000Y-108712000D03*
X11684000Y-15240000D03*
X6604000Y-48133000D03*
%TO.N,+3.3VA*%
X14732000Y-76708000D03*
X10922000Y-47371000D03*
%TO.N,VDD*%
X4572000Y-58128500D03*
X10160000Y-62992000D03*
X14732000Y-73660000D03*
%TO.N,Net-(C33-Pad1)*%
X-1016000Y-95250000D03*
X6241340Y-87021939D03*
%TO.N,+12V*%
X11044701Y-71759299D03*
X4879818Y-71785734D03*
X13208937Y-35561373D03*
X6678500Y-6604000D03*
X3048000Y-68580000D03*
X4863002Y-97014500D03*
X9431135Y-83003391D03*
X5080000Y-44196000D03*
X6096000Y-33020000D03*
%TO.N,-12V*%
X11684000Y-10668000D03*
X9652000Y-88554500D03*
X5733318Y-74324310D03*
X6096000Y-29972000D03*
X13716000Y-89408000D03*
X5080000Y-100276593D03*
X7112000Y-42164000D03*
X6678500Y-11684000D03*
%TO.N,Net-(C33-Pad2)*%
X-3175000Y-93726000D03*
X7370299Y-88269299D03*
%TO.N,Net-(D3-Pad1)*%
X-762000Y-11049000D03*
X-11049000Y-12700000D03*
%TO.N,Net-(D7-Pad2)*%
X889000Y-82550000D03*
X-14478000Y-65659000D03*
%TO.N,/SDIN1*%
X11176000Y-57404000D03*
X13335000Y-58420000D03*
X2921000Y-57277000D03*
%TO.N,/SCL*%
X1270000Y-53594000D03*
X7091117Y-61468000D03*
X12128500Y-67691000D03*
%TO.N,/SDOUT1*%
X13208000Y-73660000D03*
X6326572Y-60805765D03*
%TO.N,/SDA*%
X6514500Y-59713204D03*
X1265701Y-54614299D03*
%TO.N,/LRCK*%
X10155046Y-59927835D03*
%TO.N,/PDN*%
X4699000Y-49276000D03*
X8890000Y-49911000D03*
X1262712Y-52594524D03*
%TO.N,Net-(C34-Pad1)*%
X4826000Y-65786000D03*
X5916340Y-67956372D03*
X7859111Y-74526391D03*
%TO.N,Net-(D5-Pad1)*%
X-1905000Y-15494000D03*
X-13081000Y-36322000D03*
%TO.N,Net-(C34-Pad2)*%
X1392701Y-83443299D03*
X8927500Y-75872067D03*
X1288115Y-63559201D03*
%TO.N,Net-(D9-Pad2)*%
X-1397000Y-86233000D03*
X2794000Y-86106000D03*
%TO.N,/-VCOM*%
X3556000Y-5080000D03*
X3544858Y-20816544D03*
X-2032000Y-62992000D03*
X1524000Y-37592000D03*
X1218000Y-80854846D03*
X2032000Y-45212000D03*
%TO.N,/dual_mono_inputs1/IN1_3V*%
X15240000Y-49149000D03*
X16637000Y-32258000D03*
%TO.N,Net-(C35-Pad2)*%
X12700000Y-87249000D03*
X-2997200Y-106324400D03*
%TO.N,Net-(D6-Pad1)*%
X-4064000Y-16383000D03*
X-13081000Y-50165000D03*
%TO.N,/dual_mono_inputs1/IN2_3V*%
X17653000Y-34163000D03*
X16002000Y-48260000D03*
%TO.N,/dual_mono_inputs2/IN1_3V*%
X15621000Y-28448000D03*
X16891000Y-47498000D03*
%TO.N,Net-(RN3-Pad5)*%
X5715000Y-35941000D03*
X5961496Y-38347854D03*
%TO.N,/dual_mono_inputs2/IN2_3V*%
X17653000Y-46609000D03*
X18542000Y-38354000D03*
%TO.N,/dual_mono_outputs1/OUT1*%
X4903900Y-63754247D03*
X1616345Y-48670657D03*
%TO.N,Net-(C20-Pad1)*%
X889000Y-7112000D03*
X762000Y-36068000D03*
%TO.N,/dual_mono_outputs1/OUT2*%
X5969000Y-63754000D03*
X1778000Y-49657000D03*
%TO.N,Net-(C20-Pad2)*%
X12954000Y-8509000D03*
X7493000Y-5461000D03*
X3543000Y-34023000D03*
X3803200Y-36614250D03*
%TO.N,Net-(D10-Pad2)*%
X-17399000Y-108686600D03*
X3683000Y-88138000D03*
%TO.N,/dual_mono_outputs2/OUT1*%
X545500Y-78381715D03*
X2032000Y-50673000D03*
X3410712Y-81284200D03*
%TO.N,/dual_mono_outputs2/OUT2*%
X1152613Y-51601104D03*
X4876922Y-82338324D03*
X1942500Y-81915000D03*
%TO.N,Net-(C21-Pad2)*%
X11303000Y-7112000D03*
X-15875000Y-14478000D03*
%TO.N,Net-(C22-Pad1)*%
X3556000Y-32639000D03*
X6841503Y-36068000D03*
X6985000Y-40259000D03*
%TO.N,Net-(C22-Pad2)*%
X10922000Y-34798000D03*
X3683000Y-3810000D03*
%TO.N,Net-(C23-Pad1)*%
X5207000Y-10287000D03*
X5207000Y-6604000D03*
%TO.N,Net-(C23-Pad2)*%
X-15748000Y-28321000D03*
X2159000Y-8001000D03*
%TO.N,Net-(C24-Pad1)*%
X-889000Y-26543000D03*
X8052000Y-26086000D03*
%TO.N,Net-(C25-Pad1)*%
X-2540000Y-38354000D03*
X3810000Y-13843000D03*
%TO.N,Net-(C25-Pad2)*%
X-15748000Y-41910000D03*
X4572000Y-14807000D03*
%TO.N,Net-(D8-Pad2)*%
X2413000Y-85090000D03*
X-13716000Y-79883000D03*
%TO.N,Net-(C26-Pad1)*%
X2864000Y-26867000D03*
X2286000Y-32512000D03*
%TO.N,Net-(C26-Pad2)*%
X4191000Y-26797000D03*
X3836543Y-30240351D03*
%TO.N,Net-(C27-Pad1)*%
X3810000Y-16256000D03*
X-3048000Y-52324000D03*
%TO.N,Net-(C27-Pad2)*%
X5686614Y-14847178D03*
X8509000Y-14986000D03*
X-15875000Y-55753000D03*
%TO.N,Net-(C28-Pad1)*%
X2413000Y-67305500D03*
X6940938Y-68980970D03*
%TO.N,Net-(C29-Pad1)*%
X7747000Y-85090000D03*
X-2794000Y-68961000D03*
%TO.N,Net-(C29-Pad2)*%
X11620718Y-82302654D03*
X13462000Y-91313000D03*
X-4699000Y-69088000D03*
X9779000Y-91313000D03*
%TO.N,Net-(C30-Pad2)*%
X2413000Y-63627000D03*
X95999Y-70867094D03*
X2794000Y-71247000D03*
%TO.N,Net-(RN9-Pad5)*%
X4826000Y-30099000D03*
X4910676Y-21640922D03*
%TO.N,Net-(C31-Pad1)*%
X3688988Y-83417508D03*
X-1397000Y-82296000D03*
%TO.N,Net-(C31-Pad2)*%
X-3302000Y-82423000D03*
X6731000Y-81788000D03*
%TO.N,Net-(C32-Pad1)*%
X3810000Y-73533000D03*
X4445000Y-67310000D03*
%TO.N,Net-(RN10-Pad7)*%
X10414000Y-83185000D03*
X6477000Y-71374000D03*
X9017000Y-78798500D03*
X6858000Y-74168000D03*
%TO.N,Net-(RN10-Pad5)*%
X11684000Y-77978000D03*
X7620000Y-83693000D03*
X9906000Y-67310000D03*
X6731000Y-67183000D03*
%TD*%
D18*
%TO.N,Net-(D10-Pad2)*%
X-17399000Y-108686600D02*
X-17119600Y-108686600D01*
X-17119600Y-108686600D02*
X-6604000Y-98171000D01*
X-6604000Y-98171000D02*
X-1397000Y-98171000D01*
X-1397000Y-98171000D02*
X4953000Y-91821000D01*
X4953000Y-91821000D02*
X4953000Y-89408000D01*
X4953000Y-89408000D02*
X3683000Y-88138000D01*
%TO.N,Net-(C33-Pad1)*%
X2413000Y-91821000D02*
X2413000Y-87884000D01*
X3302000Y-86995000D02*
X6214401Y-86995000D01*
X-1016000Y-95250000D02*
X2413000Y-91821000D01*
X2413000Y-87884000D02*
X3302000Y-86995000D01*
X6214401Y-86995000D02*
X6241340Y-87021939D01*
D19*
%TO.N,-12V*%
X8925500Y-66956468D02*
X8977204Y-66904764D01*
X5733318Y-84544194D02*
X5733318Y-75038682D01*
X4917500Y-36245469D02*
X4656700Y-35984669D01*
X8977204Y-61360156D02*
X7944501Y-60327453D01*
X8596318Y-75017068D02*
X8626549Y-75017068D01*
X8925500Y-67663532D02*
X8925500Y-66956468D01*
X7944501Y-42996501D02*
X7620000Y-42672000D01*
X8594819Y-75018567D02*
X8596318Y-75017068D01*
X11684000Y-97028000D02*
X8636000Y-100076000D01*
X8659262Y-75006757D02*
X8977204Y-74688815D01*
X11684000Y-89408000D02*
X13716000Y-89408000D01*
X8977204Y-66904764D02*
X8977204Y-61360156D01*
X6604000Y-12192000D02*
X6604000Y-11758500D01*
X6604000Y-12192000D02*
X6604000Y-11176000D01*
X10160000Y-89408000D02*
X10160000Y-88970876D01*
X8636860Y-75006757D02*
X8659262Y-75006757D01*
X11684000Y-89408000D02*
X11684000Y-97028000D01*
X5144032Y-30988000D02*
X6096000Y-30036032D01*
X8175755Y-75416780D02*
X8573968Y-75018567D01*
X5733318Y-75038682D02*
X6111416Y-75416780D01*
X8977204Y-74688815D02*
X8977204Y-67715236D01*
X4656700Y-31475332D02*
X5144032Y-30988000D01*
X10160000Y-88970876D02*
X5733318Y-84544194D01*
X9652000Y-88900000D02*
X9652000Y-88554500D01*
X5280593Y-100076000D02*
X5080000Y-100276593D01*
X5144032Y-30988000D02*
X6604000Y-29528032D01*
X5733318Y-75038682D02*
X5733318Y-74324310D01*
X8636000Y-100076000D02*
X5280593Y-100076000D01*
X6604000Y-11758500D02*
X6678500Y-11684000D01*
X8573968Y-75018567D02*
X8594819Y-75018567D01*
X6096000Y-30036032D02*
X6096000Y-29972000D01*
X11684000Y-89408000D02*
X10160000Y-89408000D01*
X8977204Y-67715236D02*
X8925500Y-67663532D01*
X8626549Y-75017068D02*
X8636860Y-75006757D01*
X7620000Y-42672000D02*
X7112000Y-42164000D01*
X6604000Y-11176000D02*
X7112000Y-10668000D01*
X4917500Y-39969500D02*
X4917500Y-36245469D01*
X6604000Y-29528032D02*
X6604000Y-12192000D01*
X7620000Y-42672000D02*
X4917500Y-39969500D01*
X10160000Y-89408000D02*
X9652000Y-88900000D01*
X7944501Y-60327453D02*
X7944501Y-42996501D01*
X6111416Y-75416780D02*
X8175755Y-75416780D01*
X7112000Y-10668000D02*
X11684000Y-10668000D01*
X4656700Y-35984669D02*
X4656700Y-31475332D01*
D18*
%TO.N,Net-(D7-Pad2)*%
X-6985000Y-77470000D02*
X-14478000Y-69977000D01*
X-14478000Y-69977000D02*
X-14478000Y-69596000D01*
X-4445000Y-77470000D02*
X-6985000Y-77470000D01*
X-14478000Y-69596000D02*
X-14478000Y-65659000D01*
X-3683000Y-78232000D02*
X-4445000Y-77470000D01*
X635000Y-82550000D02*
X-3683000Y-78232000D01*
X889000Y-82550000D02*
X635000Y-82550000D01*
%TO.N,/SDIN1*%
X12319000Y-57404000D02*
X11176000Y-57404000D01*
X13335000Y-58420000D02*
X12319000Y-57404000D01*
%TO.N,/SCL*%
X1270000Y-53594000D02*
X3556000Y-55880000D01*
X7239000Y-56896000D02*
X7239000Y-61341000D01*
X6223000Y-55880000D02*
X7239000Y-56896000D01*
X7218117Y-61341000D02*
X7091117Y-61468000D01*
X3556000Y-55880000D02*
X6223000Y-55880000D01*
X7239000Y-61341000D02*
X7218117Y-61341000D01*
%TO.N,/SDOUT1*%
X13208000Y-73660000D02*
X13208000Y-73533000D01*
X15875000Y-68580000D02*
X17145000Y-67310000D01*
X13208000Y-73533000D02*
X15875000Y-70866000D01*
X15875000Y-70866000D02*
X15875000Y-68580000D01*
%TO.N,/SDA*%
X3039402Y-56388000D02*
X5968310Y-56388000D01*
X5968310Y-56388000D02*
X6514500Y-56934190D01*
X1265701Y-54614299D02*
X3039402Y-56388000D01*
X6514500Y-56934190D02*
X6514500Y-59713204D01*
%TO.N,/LRCK*%
X17145000Y-64770000D02*
X15970000Y-63595000D01*
X10155046Y-60193046D02*
X10155046Y-59927835D01*
X13557000Y-63595000D02*
X10155046Y-60193046D01*
X15970000Y-63595000D02*
X13557000Y-63595000D01*
D20*
%TO.N,/PDN*%
X8636000Y-50038000D02*
X8763000Y-49911000D01*
X4699000Y-49276000D02*
X4699000Y-49657000D01*
X14605000Y-64770000D02*
X13208000Y-64770000D01*
X8636000Y-60198000D02*
X8636000Y-50038000D01*
X13208000Y-64770000D02*
X12446000Y-64008000D01*
X4699000Y-49657000D02*
X1761476Y-52594524D01*
X1761476Y-52594524D02*
X1262712Y-52594524D01*
X8763000Y-49911000D02*
X8890000Y-49911000D01*
X12446000Y-64008000D02*
X8636000Y-60198000D01*
D18*
%TO.N,Net-(C34-Pad1)*%
X7629093Y-68653125D02*
X7874000Y-68898032D01*
X7010947Y-67956372D02*
X7629093Y-68574518D01*
X7874000Y-74511502D02*
X7859111Y-74526391D01*
X7629093Y-68574518D02*
X7629093Y-68653125D01*
X5916340Y-67956372D02*
X7010947Y-67956372D01*
X7874000Y-68898032D02*
X7874000Y-74511502D01*
%TO.N,Net-(D5-Pad1)*%
X-11303000Y-20574000D02*
X-7874000Y-17145000D01*
X-13081000Y-30480000D02*
X-11303000Y-28702000D01*
X-6223000Y-15494000D02*
X-1905000Y-15494000D01*
X-7874000Y-17145000D02*
X-6223000Y-15494000D01*
X-11303000Y-28702000D02*
X-11303000Y-20574000D01*
X-13081000Y-36322000D02*
X-13081000Y-30480000D01*
%TO.N,/dual_mono_inputs1/IN1_3V*%
X14351000Y-38862000D02*
X16637000Y-36576000D01*
X15240000Y-49149000D02*
X14351000Y-48260000D01*
X14351000Y-48260000D02*
X14351000Y-38862000D01*
X16637000Y-36576000D02*
X16637000Y-32258000D01*
%TO.N,Net-(D6-Pad1)*%
X-10795000Y-44958000D02*
X-10160000Y-44323000D01*
X-13081000Y-47244000D02*
X-10795000Y-44958000D01*
X-13081000Y-50165000D02*
X-13081000Y-47244000D01*
X-6096000Y-16383000D02*
X-4064000Y-16383000D01*
X-10160000Y-23495000D02*
X-10160000Y-20447000D01*
X-10160000Y-44323000D02*
X-10160000Y-23495000D01*
X-10160000Y-20447000D02*
X-6096000Y-16383000D01*
%TO.N,/dual_mono_inputs1/IN2_3V*%
X16002000Y-48260000D02*
X14986000Y-47244000D01*
X14986000Y-47244000D02*
X14986000Y-42164000D01*
X14986000Y-39497000D02*
X17653000Y-36830000D01*
X14986000Y-42164000D02*
X14986000Y-39497000D01*
X17653000Y-36830000D02*
X17653000Y-34163000D01*
%TO.N,/dual_mono_inputs2/IN1_3V*%
X18542000Y-37084000D02*
X18542000Y-31369000D01*
X18542000Y-31369000D02*
X15621000Y-28448000D01*
X16891000Y-47498000D02*
X16891000Y-45339000D01*
X16002000Y-44450000D02*
X16002000Y-39624000D01*
X16002000Y-39624000D02*
X18542000Y-37084000D01*
X16891000Y-45339000D02*
X16002000Y-44450000D01*
%TO.N,/dual_mono_inputs2/IN2_3V*%
X17653000Y-46609000D02*
X17653000Y-44323000D01*
X17145000Y-43815000D02*
X17145000Y-39751000D01*
X17145000Y-39751000D02*
X18542000Y-38354000D01*
X17653000Y-44323000D02*
X17145000Y-43815000D01*
%TO.N,/dual_mono_outputs1/OUT1*%
X-21388Y-58828959D02*
X-21388Y-51114817D01*
X-21388Y-51114817D02*
X185499Y-50907930D01*
X185499Y-50907930D02*
X185499Y-49724811D01*
X185499Y-49724811D02*
X1239653Y-48670657D01*
X4903900Y-63754247D02*
X-21388Y-58828959D01*
X1239653Y-48670657D02*
X1616345Y-48670657D01*
%TO.N,/dual_mono_outputs1/OUT2*%
X889000Y-49657000D02*
X1778000Y-49657000D01*
X5969000Y-61595000D02*
X428113Y-56054113D01*
X635000Y-51094119D02*
X635000Y-49911000D01*
X635000Y-49911000D02*
X889000Y-49657000D01*
X5969000Y-63754000D02*
X5969000Y-61595000D01*
X428113Y-56054113D02*
X428113Y-51301006D01*
X428113Y-51301006D02*
X635000Y-51094119D01*
%TO.N,Net-(C20-Pad2)*%
X12954000Y-8509000D02*
X10541000Y-8509000D01*
X10541000Y-8509000D02*
X7493000Y-5461000D01*
%TO.N,Net-(C21-Pad2)*%
X-8382000Y-2159000D02*
X-7112000Y-889000D01*
X-7112000Y-889000D02*
X9779000Y-889000D01*
X-15875000Y-9652000D02*
X-8382000Y-2159000D01*
X11176000Y-6985000D02*
X11303000Y-7112000D01*
X11176000Y-2286000D02*
X11176000Y-4318000D01*
X11176000Y-4318000D02*
X11176000Y-6985000D01*
X-15875000Y-14478000D02*
X-15875000Y-9652000D01*
X9779000Y-889000D02*
X11176000Y-2286000D01*
%TO.N,Net-(C22-Pad2)*%
X2540000Y-1778000D02*
X2540000Y-2667000D01*
X10922000Y-34798000D02*
X13208000Y-32512000D01*
X2540000Y-2667000D02*
X3683000Y-3810000D01*
X13208000Y-18161000D02*
X13208000Y-17907000D01*
X13843000Y-7366000D02*
X12573000Y-7366000D01*
X15875000Y-9398000D02*
X15367000Y-8890000D01*
X9017000Y-2286000D02*
X8509000Y-1778000D01*
X15875000Y-15240000D02*
X15875000Y-9398000D01*
X12573000Y-7366000D02*
X12065000Y-7874000D01*
X9017000Y-5334000D02*
X9017000Y-2286000D01*
X13208000Y-17907000D02*
X15875000Y-15240000D01*
X15367000Y-8890000D02*
X13843000Y-7366000D01*
X9017000Y-6223000D02*
X9017000Y-5334000D01*
X10668000Y-7874000D02*
X9017000Y-6223000D01*
X8509000Y-1778000D02*
X2540000Y-1778000D01*
X12065000Y-7874000D02*
X10668000Y-7874000D01*
X13208000Y-32512000D02*
X13208000Y-18161000D01*
%TO.N,Net-(C23-Pad2)*%
X-10414000Y-8636000D02*
X-1524000Y-8636000D01*
X1397000Y-8763000D02*
X2159000Y-8001000D01*
X-15748000Y-17780000D02*
X-13335000Y-15367000D01*
X-1524000Y-8636000D02*
X-1397000Y-8763000D01*
X-13335000Y-15367000D02*
X-13335000Y-14224000D01*
X-15748000Y-28321000D02*
X-15748000Y-17780000D01*
X-1397000Y-8763000D02*
X1397000Y-8763000D01*
X-13335000Y-11557000D02*
X-10414000Y-8636000D01*
X-13335000Y-14224000D02*
X-13335000Y-11557000D01*
%TO.N,Net-(C25-Pad1)*%
X-2032000Y-37846000D02*
X-2032000Y-35687000D01*
X-635000Y-15748000D02*
X1270000Y-13843000D01*
X-2540000Y-38354000D02*
X-2032000Y-37846000D01*
X-2032000Y-35687000D02*
X-2032000Y-17145000D01*
X-2032000Y-17145000D02*
X-635000Y-15748000D01*
X1270000Y-13843000D02*
X3810000Y-13843000D01*
%TO.N,Net-(C25-Pad2)*%
X4699000Y-13462000D02*
X4699000Y-14680000D01*
X-15748000Y-30607000D02*
X-13081000Y-27940000D01*
X3937000Y-12700000D02*
X4699000Y-13462000D01*
X-13081000Y-27940000D02*
X-13081000Y-20066000D01*
X-12823003Y-20066000D02*
X-5457003Y-12700000D01*
X-5457003Y-12700000D02*
X3937000Y-12700000D01*
X4699000Y-14680000D02*
X4572000Y-14807000D01*
X-13081000Y-20066000D02*
X-12823003Y-20066000D01*
X-15748000Y-41910000D02*
X-15748000Y-30607000D01*
%TO.N,Net-(D8-Pad2)*%
X-1651000Y-84455000D02*
X-1143000Y-84963000D01*
X-1016000Y-85090000D02*
X2413000Y-85090000D01*
X-13716000Y-82042000D02*
X-12319000Y-83439000D01*
X-1143000Y-84963000D02*
X-1016000Y-85090000D01*
X-12319000Y-83439000D02*
X-11303000Y-84455000D01*
X-13716000Y-79883000D02*
X-13716000Y-82042000D01*
X-11303000Y-84455000D02*
X-2667000Y-84455000D01*
X-2667000Y-84455000D02*
X-1651000Y-84455000D01*
%TO.N,Net-(C27-Pad1)*%
X-1905000Y-43434000D02*
X381000Y-41148000D01*
X-3048000Y-52324000D02*
X-1905000Y-51181000D01*
X1651000Y-32893000D02*
X762000Y-32004000D01*
X1651000Y-33782000D02*
X1651000Y-32893000D01*
X762000Y-32004000D02*
X762000Y-24765000D01*
X3683000Y-21844000D02*
X4572000Y-20955000D01*
X4572000Y-20955000D02*
X4572000Y-19812000D01*
X1651000Y-36449000D02*
X1651000Y-33782000D01*
X4572000Y-19812000D02*
X4572000Y-17018000D01*
X-1905000Y-43688000D02*
X-1905000Y-43434000D01*
X1524000Y-36449000D02*
X1651000Y-36449000D01*
X-1905000Y-51181000D02*
X-1905000Y-43688000D01*
X381000Y-41148000D02*
X635000Y-40894000D01*
X4572000Y-17018000D02*
X3810000Y-16256000D01*
X635000Y-40894000D02*
X635000Y-37338000D01*
X762000Y-24765000D02*
X3683000Y-21844000D01*
X635000Y-37338000D02*
X1524000Y-36449000D01*
%TO.N,Net-(C27-Pad2)*%
X-127000Y-17526000D02*
X1867500Y-15531500D01*
X1867500Y-15531500D02*
X4237098Y-15531500D01*
X-11557000Y-55753000D02*
X-10668000Y-54864000D01*
X-127000Y-39370000D02*
X-127000Y-17526000D01*
X-3048000Y-42291000D02*
X-127000Y-39370000D01*
X-10668000Y-47879000D02*
X-5080000Y-42291000D01*
X5334000Y-15875000D02*
X5686614Y-15522386D01*
X4237098Y-15531500D02*
X4580598Y-15875000D01*
X-10668000Y-54864000D02*
X-10668000Y-47879000D01*
X4580598Y-15875000D02*
X5334000Y-15875000D01*
X-15875000Y-55753000D02*
X-11557000Y-55753000D01*
X5686614Y-15522386D02*
X5686614Y-14847178D01*
X-5080000Y-42291000D02*
X-3048000Y-42291000D01*
%TO.N,Net-(C29-Pad2)*%
X9525000Y-82042000D02*
X9271000Y-82042000D01*
X2667000Y-76454000D02*
X-4699000Y-69088000D01*
X11360064Y-82042000D02*
X9525000Y-82042000D01*
X7112000Y-87503000D02*
X7112000Y-86868000D01*
X9779000Y-91313000D02*
X7620000Y-89154000D01*
X4953000Y-84709000D02*
X4953000Y-83439000D01*
X4953000Y-83439000D02*
X4064000Y-82550000D01*
X7620000Y-89154000D02*
X6350000Y-89154000D01*
X14732000Y-90043000D02*
X13462000Y-91313000D01*
X8509000Y-82804000D02*
X8509000Y-83947000D01*
X6350000Y-88265000D02*
X7112000Y-87503000D01*
X12827000Y-85598000D02*
X14732000Y-87503000D01*
X8509000Y-83947000D02*
X9144000Y-84582000D01*
X2667000Y-81407000D02*
X2667000Y-76454000D01*
X2794000Y-82550000D02*
X2667000Y-82423000D01*
X4064000Y-82550000D02*
X2794000Y-82550000D01*
X5334000Y-85090000D02*
X4953000Y-84709000D01*
X9271000Y-82042000D02*
X8509000Y-82804000D01*
X9144000Y-84582000D02*
X10160000Y-85598000D01*
X2667000Y-82423000D02*
X2667000Y-81407000D01*
X14732000Y-87503000D02*
X14732000Y-90043000D01*
X6350000Y-89154000D02*
X6350000Y-88265000D01*
X11620718Y-82302654D02*
X11360064Y-82042000D01*
X10160000Y-85598000D02*
X12827000Y-85598000D01*
X7112000Y-86868000D02*
X5334000Y-85090000D01*
%TO.N,Net-(C30-Pad2)*%
X1651000Y-65913000D02*
X1651000Y-64389000D01*
X2794000Y-71247000D02*
X1651000Y-70104000D01*
X1651000Y-64389000D02*
X2413000Y-63627000D01*
X1651000Y-70104000D02*
X1651000Y-65913000D01*
%TO.N,Net-(RN9-Pad5)*%
X4318000Y-25781000D02*
X4318000Y-23876000D01*
X4953000Y-26416000D02*
X4318000Y-25781000D01*
X4826000Y-30099000D02*
X4953000Y-29972000D01*
X4318000Y-23876000D02*
X4910676Y-23283324D01*
X4953000Y-29972000D02*
X4953000Y-26416000D01*
X4910676Y-23283324D02*
X4910676Y-21640922D01*
%TO.N,Net-(C31-Pad1)*%
X3688988Y-83687012D02*
X3688988Y-83417508D01*
X508000Y-84201000D02*
X3175000Y-84201000D01*
X3175000Y-84201000D02*
X3688988Y-83687012D01*
X-1397000Y-82296000D02*
X508000Y-84201000D01*
%TO.N,Net-(C32-Pad1)*%
X4445000Y-67310000D02*
X4445000Y-70485000D01*
X3810000Y-71120000D02*
X3810000Y-73533000D01*
X3937000Y-70993000D02*
X3810000Y-71120000D01*
X4445000Y-70485000D02*
X3937000Y-70993000D01*
%TO.N,Net-(RN10-Pad7)*%
X12954000Y-80137000D02*
X13208000Y-80391000D01*
X11615500Y-78798500D02*
X12954000Y-80137000D01*
X6477000Y-71374000D02*
X6477000Y-73787000D01*
X13208000Y-82550000D02*
X12573000Y-83185000D01*
X12573000Y-83185000D02*
X10414000Y-83185000D01*
X13208000Y-80391000D02*
X13208000Y-82550000D01*
X6477000Y-73787000D02*
X6858000Y-74168000D01*
X9017000Y-78798500D02*
X11615500Y-78798500D01*
%TO.N,Net-(RN10-Pad5)*%
X11684000Y-77978000D02*
X11176000Y-77470000D01*
X11176000Y-73025000D02*
X11811000Y-72390000D01*
X10033000Y-67183000D02*
X9906000Y-67310000D01*
X12192000Y-68707000D02*
X11938000Y-68453000D01*
X11176000Y-77470000D02*
X11176000Y-76581000D01*
X11176000Y-76581000D02*
X11176000Y-73025000D01*
X11303000Y-68453000D02*
X10033000Y-67183000D01*
X11938000Y-68453000D02*
X11303000Y-68453000D01*
X11811000Y-72390000D02*
X12192000Y-72009000D01*
X12192000Y-72009000D02*
X12192000Y-68707000D01*
%TD*%
M02*
