%TF.GenerationSoftware,KiCad,Pcbnew,(6.0.5)*%
%TF.CreationDate,2022-06-26T10:57:07+02:00*%
%TF.ProjectId,eurorack-pmod-panel,6575726f-7261-4636-9b2d-706d6f642d70,rev?*%
%TF.SameCoordinates,Original*%
%TF.FileFunction,Soldermask,Top*%
%TF.FilePolarity,Negative*%
%FSLAX46Y46*%
G04 Gerber Fmt 4.6, Leading zero omitted, Abs format (unit mm)*
G04 Created by KiCad (PCBNEW (6.0.5)) date 2022-06-26 10:57:07*
%MOMM*%
%LPD*%
G01*
G04 APERTURE LIST*
%ADD10C,0.500000*%
%ADD11C,0.150000*%
%ADD12C,0.300000*%
%ADD13C,0.375000*%
%ADD14C,1.000000*%
%ADD15C,0.250000*%
%ADD16C,6.400000*%
%ADD17C,3.200000*%
G04 APERTURE END LIST*
D10*
X7361309Y-81883523D02*
X8885119Y-81883523D01*
X9623214Y-82074000D01*
X10337500Y-82454952D01*
X10623214Y-83216857D01*
X10456547Y-84550190D01*
X9980357Y-85312095D01*
X9170833Y-85693047D01*
X8385119Y-85883523D01*
X6861309Y-85883523D01*
X6123214Y-85693047D01*
X5408928Y-85312095D01*
X5123214Y-84550190D01*
X5289880Y-83216857D01*
X5766071Y-82454952D01*
X6575595Y-82074000D01*
X7361309Y-81883523D01*
X14218452Y-81883523D02*
X13813690Y-85121619D01*
X14147023Y-85502571D01*
X14504166Y-85693047D01*
X15242261Y-85883523D01*
X16766071Y-85883523D01*
X17551785Y-85693047D01*
X17956547Y-85502571D01*
X18385119Y-85121619D01*
X18789880Y-81883523D01*
X21456547Y-81883523D02*
X26027976Y-81883523D01*
X23242261Y-85883523D02*
X23742261Y-81883523D01*
D11*
X26289000Y-1397000D02*
X26416000Y-1397000D01*
X26416000Y-1397000D02*
X26416000Y-1270000D01*
X26416000Y-1270000D02*
X26289000Y-1270000D01*
X26289000Y-1270000D02*
X26289000Y-1397000D01*
D12*
X10795000Y-1270000D02*
X28321000Y-1270000D01*
X28321000Y-1270000D02*
X28321000Y-5080000D01*
X28321000Y-5080000D02*
X10795000Y-5080000D01*
X10795000Y-5080000D02*
X10795000Y-1270000D01*
D13*
X12010940Y-4079761D02*
X12260940Y-2079761D01*
X12832369Y-2079761D01*
X12963321Y-2175000D01*
X13022845Y-2270238D01*
X13070464Y-2460714D01*
X13034750Y-2746428D01*
X12939511Y-2936904D01*
X12856178Y-3032142D01*
X12701416Y-3127380D01*
X12129988Y-3127380D01*
X13510940Y-4079761D02*
X13760940Y-2079761D01*
X14082369Y-3508333D01*
X14760940Y-2079761D01*
X14510940Y-4079761D01*
X15760940Y-2079761D02*
X16046654Y-2079761D01*
X16177607Y-2175000D01*
X16296654Y-2365476D01*
X16320464Y-2746428D01*
X16237130Y-3413095D01*
X16118083Y-3794047D01*
X15951416Y-3984523D01*
X15796654Y-4079761D01*
X15510940Y-4079761D01*
X15379988Y-3984523D01*
X15260940Y-3794047D01*
X15237130Y-3413095D01*
X15320464Y-2746428D01*
X15439511Y-2365476D01*
X15606178Y-2175000D01*
X15760940Y-2079761D01*
X16796654Y-4079761D02*
X17046654Y-2079761D01*
X17403797Y-2079761D01*
X17606178Y-2175000D01*
X17725226Y-2365476D01*
X17772845Y-2555952D01*
X17796654Y-2936904D01*
X17760940Y-3222619D01*
X17641892Y-3603571D01*
X17546654Y-3794047D01*
X17379988Y-3984523D01*
X17153797Y-4079761D01*
X16796654Y-4079761D01*
D14*
X1333500Y-6223000D02*
X28130500Y-6223000D01*
X28130500Y-6223000D02*
X28130500Y-35560000D01*
X28130500Y-35560000D02*
X1333500Y-35560000D01*
X1333500Y-35560000D02*
X1333500Y-6223000D01*
X1651000Y-88392000D02*
X28448000Y-88392000D01*
X28448000Y-88392000D02*
X28448000Y-117729000D01*
X28448000Y-117729000D02*
X1651000Y-117729000D01*
X1651000Y-117729000D02*
X1651000Y-88392000D01*
D10*
X10289833Y-42703523D02*
X10789833Y-38703523D01*
X14099357Y-42703523D02*
X14599357Y-38703523D01*
X18670785Y-42703523D01*
X19170785Y-38703523D01*
D15*
X14335809Y-125055380D02*
X15002476Y-126055380D01*
X15669142Y-125055380D01*
X16335809Y-126055380D02*
X16335809Y-125055380D01*
X17478666Y-126055380D02*
X16621523Y-125483952D01*
X17478666Y-125055380D02*
X16335809Y-125626809D01*
X18240571Y-125150619D02*
X18335809Y-125103000D01*
X18526285Y-125055380D01*
X19002476Y-125055380D01*
X19192952Y-125103000D01*
X19288190Y-125150619D01*
X19383428Y-125245857D01*
X19383428Y-125341095D01*
X19288190Y-125483952D01*
X18145333Y-126055380D01*
X19383428Y-126055380D01*
X20145333Y-126007761D02*
X20431047Y-126055380D01*
X20907238Y-126055380D01*
X21097714Y-126007761D01*
X21192952Y-125960142D01*
X21288190Y-125864904D01*
X21288190Y-125769666D01*
X21192952Y-125674428D01*
X21097714Y-125626809D01*
X20907238Y-125579190D01*
X20526285Y-125531571D01*
X20335809Y-125483952D01*
X20240571Y-125436333D01*
X20145333Y-125341095D01*
X20145333Y-125245857D01*
X20240571Y-125150619D01*
X20335809Y-125103000D01*
X20526285Y-125055380D01*
X21002476Y-125055380D01*
X21288190Y-125103000D01*
X22145333Y-125531571D02*
X22812000Y-125531571D01*
X23097714Y-126055380D02*
X22145333Y-126055380D01*
X22145333Y-125055380D01*
X23097714Y-125055380D01*
X24621523Y-125531571D02*
X24907238Y-125579190D01*
X25002476Y-125626809D01*
X25097714Y-125722047D01*
X25097714Y-125864904D01*
X25002476Y-125960142D01*
X24907238Y-126007761D01*
X24716761Y-126055380D01*
X23954857Y-126055380D01*
X23954857Y-125055380D01*
X24621523Y-125055380D01*
X24812000Y-125103000D01*
X24907238Y-125150619D01*
X25002476Y-125245857D01*
X25002476Y-125341095D01*
X24907238Y-125436333D01*
X24812000Y-125483952D01*
X24621523Y-125531571D01*
X23954857Y-125531571D01*
D16*
%TO.C,REF\u002A\u002A*%
X22352000Y-30078000D03*
%TD*%
%TO.C,REF\u002A\u002A*%
X7112000Y-98150000D03*
%TD*%
%TO.C,REF\u002A\u002A*%
X7107000Y-30078000D03*
%TD*%
%TO.C,REF\u002A\u002A*%
X7112000Y-16362000D03*
%TD*%
%TO.C,REF\u002A\u002A*%
X22357000Y-98150000D03*
%TD*%
D17*
%TO.C,REF\u002A\u002A*%
X7500000Y-125500000D03*
%TD*%
D16*
%TO.C,REF\u002A\u002A*%
X7107000Y-111866000D03*
%TD*%
%TO.C,REF\u002A\u002A*%
X22352000Y-111866000D03*
%TD*%
%TO.C,REF\u002A\u002A*%
X22357000Y-16362000D03*
%TD*%
D17*
%TO.C,REF\u002A\u002A*%
X7500000Y-3000000D03*
%TD*%
M02*
