%TF.GenerationSoftware,KiCad,Pcbnew,(6.0.7)*%
%TF.CreationDate,2022-09-10T19:48:32+02:00*%
%TF.ProjectId,eurorack-pmod-pcb,6575726f-7261-4636-9b2d-706d6f642d70,rev?*%
%TF.SameCoordinates,Original*%
%TF.FileFunction,Soldermask,Top*%
%TF.FilePolarity,Negative*%
%FSLAX46Y46*%
G04 Gerber Fmt 4.6, Leading zero omitted, Abs format (unit mm)*
G04 Created by KiCad (PCBNEW (6.0.7)) date 2022-09-10 19:48:32*
%MOMM*%
%LPD*%
G01*
G04 APERTURE LIST*
G04 Aperture macros list*
%AMRoundRect*
0 Rectangle with rounded corners*
0 $1 Rounding radius*
0 $2 $3 $4 $5 $6 $7 $8 $9 X,Y pos of 4 corners*
0 Add a 4 corners polygon primitive as box body*
4,1,4,$2,$3,$4,$5,$6,$7,$8,$9,$2,$3,0*
0 Add four circle primitives for the rounded corners*
1,1,$1+$1,$2,$3*
1,1,$1+$1,$4,$5*
1,1,$1+$1,$6,$7*
1,1,$1+$1,$8,$9*
0 Add four rect primitives between the rounded corners*
20,1,$1+$1,$2,$3,$4,$5,0*
20,1,$1+$1,$4,$5,$6,$7,0*
20,1,$1+$1,$6,$7,$8,$9,0*
20,1,$1+$1,$8,$9,$2,$3,0*%
G04 Aperture macros list end*
%ADD10C,0.375000*%
%ADD11RoundRect,0.200000X-0.200000X-0.275000X0.200000X-0.275000X0.200000X0.275000X-0.200000X0.275000X0*%
%ADD12RoundRect,0.225000X0.250000X-0.225000X0.250000X0.225000X-0.250000X0.225000X-0.250000X-0.225000X0*%
%ADD13RoundRect,0.250000X-0.375000X-0.625000X0.375000X-0.625000X0.375000X0.625000X-0.375000X0.625000X0*%
%ADD14RoundRect,0.100000X-0.100000X0.637500X-0.100000X-0.637500X0.100000X-0.637500X0.100000X0.637500X0*%
%ADD15RoundRect,0.200000X0.200000X0.275000X-0.200000X0.275000X-0.200000X-0.275000X0.200000X-0.275000X0*%
%ADD16RoundRect,0.225000X0.225000X0.250000X-0.225000X0.250000X-0.225000X-0.250000X0.225000X-0.250000X0*%
%ADD17RoundRect,0.225000X-0.225000X-0.250000X0.225000X-0.250000X0.225000X0.250000X-0.225000X0.250000X0*%
%ADD18R,1.100000X1.100000*%
%ADD19RoundRect,0.250000X-0.450000X-0.425000X0.450000X-0.425000X0.450000X0.425000X-0.450000X0.425000X0*%
%ADD20R,0.430000X0.760000*%
%ADD21RoundRect,0.062500X0.062500X-0.337500X0.062500X0.337500X-0.062500X0.337500X-0.062500X-0.337500X0*%
%ADD22RoundRect,0.062500X0.337500X-0.062500X0.337500X0.062500X-0.337500X0.062500X-0.337500X-0.062500X0*%
%ADD23R,3.700000X3.700000*%
%ADD24RoundRect,0.218750X0.256250X-0.218750X0.256250X0.218750X-0.256250X0.218750X-0.256250X-0.218750X0*%
%ADD25RoundRect,0.725000X-0.725000X1.575000X-0.725000X-1.575000X0.725000X-1.575000X0.725000X1.575000X0*%
%ADD26O,4.600000X2.500000*%
%ADD27RoundRect,0.250000X0.550000X-1.250000X0.550000X1.250000X-0.550000X1.250000X-0.550000X-1.250000X0*%
%ADD28C,0.800000*%
%ADD29C,6.400000*%
%ADD30R,0.760000X0.430000*%
%ADD31R,1.700000X1.700000*%
%ADD32O,1.700000X1.700000*%
%ADD33RoundRect,0.250000X-0.425000X0.450000X-0.425000X-0.450000X0.425000X-0.450000X0.425000X0.450000X0*%
%ADD34RoundRect,0.250000X0.450000X0.425000X-0.450000X0.425000X-0.450000X-0.425000X0.450000X-0.425000X0*%
%ADD35RoundRect,0.250000X0.425000X-0.450000X0.425000X0.450000X-0.425000X0.450000X-0.425000X-0.450000X0*%
%ADD36RoundRect,0.225000X-0.250000X0.225000X-0.250000X-0.225000X0.250000X-0.225000X0.250000X0.225000X0*%
%ADD37RoundRect,0.218750X-0.218750X-0.256250X0.218750X-0.256250X0.218750X0.256250X-0.218750X0.256250X0*%
%ADD38RoundRect,0.150000X-0.587500X-0.150000X0.587500X-0.150000X0.587500X0.150000X-0.587500X0.150000X0*%
%ADD39RoundRect,0.200000X-0.275000X0.200000X-0.275000X-0.200000X0.275000X-0.200000X0.275000X0.200000X0*%
%ADD40RoundRect,0.100000X0.100000X-0.637500X0.100000X0.637500X-0.100000X0.637500X-0.100000X-0.637500X0*%
%ADD41RoundRect,0.100000X0.637500X0.100000X-0.637500X0.100000X-0.637500X-0.100000X0.637500X-0.100000X0*%
%ADD42RoundRect,0.250000X-0.550000X1.250000X-0.550000X-1.250000X0.550000X-1.250000X0.550000X1.250000X0*%
%ADD43RoundRect,0.250000X-1.250000X-0.550000X1.250000X-0.550000X1.250000X0.550000X-1.250000X0.550000X0*%
G04 APERTURE END LIST*
D10*
X18180857Y-29279333D02*
X18180857Y-28712666D01*
X18966571Y-28469809D02*
X18966571Y-29279333D01*
X17466571Y-29279333D01*
X17466571Y-28469809D01*
X17466571Y-27741238D02*
X18680857Y-27741238D01*
X18823714Y-27660285D01*
X18895142Y-27579333D01*
X18966571Y-27417428D01*
X18966571Y-27093619D01*
X18895142Y-26931714D01*
X18823714Y-26850761D01*
X18680857Y-26769809D01*
X17466571Y-26769809D01*
X18966571Y-24988857D02*
X18252285Y-25555523D01*
X18966571Y-25960285D02*
X17466571Y-25960285D01*
X17466571Y-25312666D01*
X17538000Y-25150761D01*
X17609428Y-25069809D01*
X17752285Y-24988857D01*
X17966571Y-24988857D01*
X18109428Y-25069809D01*
X18180857Y-25150761D01*
X18252285Y-25312666D01*
X18252285Y-25960285D01*
X17466571Y-23936476D02*
X17466571Y-23612666D01*
X17538000Y-23450761D01*
X17680857Y-23288857D01*
X17966571Y-23207904D01*
X18466571Y-23207904D01*
X18752285Y-23288857D01*
X18895142Y-23450761D01*
X18966571Y-23612666D01*
X18966571Y-23936476D01*
X18895142Y-24098380D01*
X18752285Y-24260285D01*
X18466571Y-24341238D01*
X17966571Y-24341238D01*
X17680857Y-24260285D01*
X17538000Y-24098380D01*
X17466571Y-23936476D01*
X18966571Y-21507904D02*
X18252285Y-22074571D01*
X18966571Y-22479333D02*
X17466571Y-22479333D01*
X17466571Y-21831714D01*
X17538000Y-21669809D01*
X17609428Y-21588857D01*
X17752285Y-21507904D01*
X17966571Y-21507904D01*
X18109428Y-21588857D01*
X18180857Y-21669809D01*
X18252285Y-21831714D01*
X18252285Y-22479333D01*
X18538000Y-20860285D02*
X18538000Y-20050761D01*
X18966571Y-21022190D02*
X17466571Y-20455523D01*
X18966571Y-19888857D01*
X18823714Y-18350761D02*
X18895142Y-18431714D01*
X18966571Y-18674571D01*
X18966571Y-18836476D01*
X18895142Y-19079333D01*
X18752285Y-19241238D01*
X18609428Y-19322190D01*
X18323714Y-19403142D01*
X18109428Y-19403142D01*
X17823714Y-19322190D01*
X17680857Y-19241238D01*
X17538000Y-19079333D01*
X17466571Y-18836476D01*
X17466571Y-18674571D01*
X17538000Y-18431714D01*
X17609428Y-18350761D01*
X18966571Y-17622190D02*
X17466571Y-17622190D01*
X18966571Y-16650761D02*
X18109428Y-17379333D01*
X17466571Y-16650761D02*
X18323714Y-17622190D01*
X18966571Y-14626952D02*
X17466571Y-14626952D01*
X17466571Y-13979333D01*
X17538000Y-13817428D01*
X17609428Y-13736476D01*
X17752285Y-13655523D01*
X17966571Y-13655523D01*
X18109428Y-13736476D01*
X18180857Y-13817428D01*
X18252285Y-13979333D01*
X18252285Y-14626952D01*
X18966571Y-12926952D02*
X17466571Y-12926952D01*
X18538000Y-12360285D01*
X17466571Y-11793619D01*
X18966571Y-11793619D01*
X17466571Y-10660285D02*
X17466571Y-10336476D01*
X17538000Y-10174571D01*
X17680857Y-10012666D01*
X17966571Y-9931714D01*
X18466571Y-9931714D01*
X18752285Y-10012666D01*
X18895142Y-10174571D01*
X18966571Y-10336476D01*
X18966571Y-10660285D01*
X18895142Y-10822190D01*
X18752285Y-10984095D01*
X18466571Y-11065047D01*
X17966571Y-11065047D01*
X17680857Y-10984095D01*
X17538000Y-10822190D01*
X17466571Y-10660285D01*
X18966571Y-9203142D02*
X17466571Y-9203142D01*
X17466571Y-8798380D01*
X17538000Y-8555523D01*
X17680857Y-8393619D01*
X17823714Y-8312666D01*
X18109428Y-8231714D01*
X18323714Y-8231714D01*
X18609428Y-8312666D01*
X18752285Y-8393619D01*
X18895142Y-8555523D01*
X18966571Y-8798380D01*
X18966571Y-9203142D01*
D11*
%TO.C,R5*%
X-825000Y-19685000D03*
X825000Y-19685000D03*
%TD*%
D12*
%TO.C,C20*%
X2540000Y-35573000D03*
X2540000Y-34023000D03*
%TD*%
D13*
%TO.C,D8*%
X-16024400Y-81330800D03*
X-18824400Y-81330800D03*
%TD*%
D14*
%TO.C,U7*%
X11475000Y-81592500D03*
X10825000Y-81592500D03*
X10175000Y-81592500D03*
X9525000Y-81592500D03*
X8875000Y-81592500D03*
X8225000Y-81592500D03*
X7575000Y-81592500D03*
X7575000Y-87317500D03*
X8225000Y-87317500D03*
X8875000Y-87317500D03*
X9525000Y-87317500D03*
X10175000Y-87317500D03*
X10825000Y-87317500D03*
X11475000Y-87317500D03*
%TD*%
D15*
%TO.C,R14*%
X825000Y-60960000D03*
X-825000Y-60960000D03*
%TD*%
D11*
%TO.C,R9*%
X12383000Y-28448000D03*
X14033000Y-28448000D03*
%TD*%
D16*
%TO.C,C4*%
X7760000Y-49149000D03*
X6210000Y-49149000D03*
%TD*%
D12*
%TO.C,C15*%
X11049000Y-70879000D03*
X11049000Y-69329000D03*
%TD*%
D11*
%TO.C,R4*%
X-14033000Y-12598400D03*
X-12383000Y-12598400D03*
%TD*%
D15*
%TO.C,R15*%
X-12052800Y-67614800D03*
X-13702800Y-67614800D03*
%TD*%
D13*
%TO.C,D5*%
X-16024400Y-40081200D03*
X-18824400Y-40081200D03*
%TD*%
D17*
%TO.C,C23*%
X-3950000Y-26416000D03*
X-2400000Y-26416000D03*
%TD*%
D18*
%TO.C,D2*%
X9525000Y-104270000D03*
X9525000Y-101470000D03*
%TD*%
D11*
%TO.C,R6*%
X12383000Y-34163000D03*
X14033000Y-34163000D03*
%TD*%
D19*
%TO.C,C11*%
X10160000Y-50800000D03*
X12860000Y-50800000D03*
%TD*%
D13*
%TO.C,D7*%
X-15999000Y-67564000D03*
X-18799000Y-67564000D03*
%TD*%
D16*
%TO.C,C31*%
X-2400000Y-81280000D03*
X-3950000Y-81280000D03*
%TD*%
D17*
%TO.C,C34*%
X7353000Y-77724000D03*
X8903000Y-77724000D03*
%TD*%
D12*
%TO.C,C22*%
X9652000Y-35573000D03*
X9652000Y-34023000D03*
%TD*%
D20*
%TO.C,RN14*%
X2610000Y-80770000D03*
X3410000Y-80770000D03*
X4210000Y-80770000D03*
X5010000Y-80770000D03*
X5010000Y-79250000D03*
X4210000Y-79250000D03*
X3410000Y-79250000D03*
X2610000Y-79250000D03*
%TD*%
D13*
%TO.C,D6*%
X-16024400Y-53822600D03*
X-18824400Y-53822600D03*
%TD*%
D15*
%TO.C,R18*%
X825000Y-88265000D03*
X-825000Y-88265000D03*
%TD*%
D17*
%TO.C,C9*%
X16375000Y-41275000D03*
X17925000Y-41275000D03*
%TD*%
%TO.C,C25*%
X-4204000Y-40132000D03*
X-2654000Y-40132000D03*
%TD*%
D21*
%TO.C,U3*%
X3175000Y-56290000D03*
X3675000Y-56290000D03*
X4175000Y-56290000D03*
X4675000Y-56290000D03*
X5175000Y-56290000D03*
X5675000Y-56290000D03*
X6175000Y-56290000D03*
X6675000Y-56290000D03*
D22*
X7375000Y-55590000D03*
X7375000Y-55090000D03*
X7375000Y-54590000D03*
X7375000Y-54090000D03*
X7375000Y-53590000D03*
X7375000Y-53090000D03*
X7375000Y-52590000D03*
X7375000Y-52090000D03*
D21*
X6675000Y-51390000D03*
X6175000Y-51390000D03*
X5675000Y-51390000D03*
X5175000Y-51390000D03*
X4675000Y-51390000D03*
X4175000Y-51390000D03*
X3675000Y-51390000D03*
X3175000Y-51390000D03*
D22*
X2475000Y-52090000D03*
X2475000Y-52590000D03*
X2475000Y-53090000D03*
X2475000Y-53590000D03*
X2475000Y-54090000D03*
X2475000Y-54590000D03*
X2475000Y-55090000D03*
X2475000Y-55590000D03*
D23*
X4925000Y-53840000D03*
%TD*%
D12*
%TO.C,C17*%
X11176000Y-13932200D03*
X11176000Y-12382200D03*
%TD*%
D24*
%TO.C,L3*%
X18268148Y-76222314D03*
X18268148Y-74647314D03*
%TD*%
D25*
%TO.C,J6*%
X-17970000Y-46964776D03*
X-4770000Y-46964776D03*
D26*
X-6970000Y-52164776D03*
%TD*%
D16*
%TO.C,C33*%
X-2400000Y-95250000D03*
X-3950000Y-95250000D03*
%TD*%
D20*
%TO.C,RN11*%
X1975000Y-66165000D03*
X2775000Y-66165000D03*
X3575000Y-66165000D03*
X4375000Y-66165000D03*
X4375000Y-64645000D03*
X3575000Y-64645000D03*
X2775000Y-64645000D03*
X1975000Y-64645000D03*
%TD*%
D24*
%TO.C,L4*%
X15240000Y-76200000D03*
X15240000Y-74625000D03*
%TD*%
D27*
%TO.C,C1*%
X5080000Y-94783000D03*
X5080000Y-90383000D03*
%TD*%
D20*
%TO.C,RN2*%
X5264000Y-45976000D03*
X4464000Y-45976000D03*
X3664000Y-45976000D03*
X2864000Y-45976000D03*
X2864000Y-47496000D03*
X3664000Y-47496000D03*
X4464000Y-47496000D03*
X5264000Y-47496000D03*
%TD*%
D28*
%TO.C,REF\u002A\u002A*%
X17445056Y-5761056D03*
X14050944Y-5761056D03*
X18148000Y-4064000D03*
D29*
X15748000Y-4064000D03*
D28*
X17445056Y-2366944D03*
X13348000Y-4064000D03*
X14050944Y-2366944D03*
X15748000Y-1664000D03*
X15748000Y-6464000D03*
%TD*%
D30*
%TO.C,RN13*%
X3685000Y-84525000D03*
X3685000Y-85325000D03*
X3685000Y-86125000D03*
X3685000Y-86925000D03*
X5205000Y-86925000D03*
X5205000Y-86125000D03*
X5205000Y-85325000D03*
X5205000Y-84525000D03*
%TD*%
%TO.C,RN12*%
X10670000Y-73095000D03*
X10670000Y-73895000D03*
X10670000Y-74695000D03*
X10670000Y-75495000D03*
X12190000Y-75495000D03*
X12190000Y-74695000D03*
X12190000Y-73895000D03*
X12190000Y-73095000D03*
%TD*%
D31*
%TO.C,J1*%
X17145000Y-104135000D03*
D32*
X14605000Y-104135000D03*
X17145000Y-101595000D03*
X14605000Y-101595000D03*
X17145000Y-99055000D03*
X14605000Y-99055000D03*
X17145000Y-96515000D03*
X14605000Y-96515000D03*
X17145000Y-93975000D03*
X14605000Y-93975000D03*
%TD*%
D20*
%TO.C,RN7*%
X8052000Y-23872000D03*
X8852000Y-23872000D03*
X9652000Y-23872000D03*
X10452000Y-23872000D03*
X10452000Y-22352000D03*
X9652000Y-22352000D03*
X8852000Y-22352000D03*
X8052000Y-22352000D03*
%TD*%
D11*
%TO.C,R11*%
X-825000Y-46990000D03*
X825000Y-46990000D03*
%TD*%
D33*
%TO.C,C12*%
X13970000Y-36750000D03*
X13970000Y-39450000D03*
%TD*%
D11*
%TO.C,R2*%
X-825000Y-5715000D03*
X825000Y-5715000D03*
%TD*%
D15*
%TO.C,R20*%
X266200Y-103124000D03*
X-1383800Y-103124000D03*
%TD*%
%TO.C,R21*%
X-12027400Y-108712000D03*
X-13677400Y-108712000D03*
%TD*%
D20*
%TO.C,RN3*%
X2464000Y-39112000D03*
X3264000Y-39112000D03*
X4064000Y-39112000D03*
X4864000Y-39112000D03*
X4864000Y-37592000D03*
X4064000Y-37592000D03*
X3264000Y-37592000D03*
X2464000Y-37592000D03*
%TD*%
D13*
%TO.C,D3*%
X-15999000Y-12598400D03*
X-18799000Y-12598400D03*
%TD*%
D25*
%TO.C,J3*%
X-17970000Y-5735611D03*
X-4770000Y-5735611D03*
D26*
X-6970000Y-10935611D03*
%TD*%
D34*
%TO.C,C14*%
X1985000Y-68580000D03*
X-715000Y-68580000D03*
%TD*%
D18*
%TO.C,D1*%
X9525000Y-96142000D03*
X9525000Y-93342000D03*
%TD*%
D35*
%TO.C,C16*%
X13208000Y-14558000D03*
X13208000Y-11858000D03*
%TD*%
D19*
%TO.C,C3*%
X10160000Y-48691800D03*
X12860000Y-48691800D03*
%TD*%
D15*
%TO.C,R17*%
X-12090400Y-81330800D03*
X-13740400Y-81330800D03*
%TD*%
D36*
%TO.C,C6*%
X3175000Y-58534000D03*
X3175000Y-60084000D03*
%TD*%
D16*
%TO.C,C35*%
X-2430543Y-108812750D03*
X-3980543Y-108812750D03*
%TD*%
D34*
%TO.C,C18*%
X17225000Y-87630000D03*
X14525000Y-87630000D03*
%TD*%
D12*
%TO.C,C30*%
X1905000Y-72149000D03*
X1905000Y-70599000D03*
%TD*%
D17*
%TO.C,C27*%
X-3950000Y-53975000D03*
X-2400000Y-53975000D03*
%TD*%
D33*
%TO.C,C5*%
X5080000Y-58771800D03*
X5080000Y-61471800D03*
%TD*%
D20*
%TO.C,RN6*%
X6640295Y-39107713D03*
X7440295Y-39107713D03*
X8240295Y-39107713D03*
X9040295Y-39107713D03*
X9040295Y-37587713D03*
X8240295Y-37587713D03*
X7440295Y-37587713D03*
X6640295Y-37587713D03*
%TD*%
D14*
%TO.C,U5*%
X8554000Y-7805500D03*
X7904000Y-7805500D03*
X7254000Y-7805500D03*
X6604000Y-7805500D03*
X5954000Y-7805500D03*
X5304000Y-7805500D03*
X4654000Y-7805500D03*
X4654000Y-13530500D03*
X5304000Y-13530500D03*
X5954000Y-13530500D03*
X6604000Y-13530500D03*
X7254000Y-13530500D03*
X7904000Y-13530500D03*
X8554000Y-13530500D03*
%TD*%
D37*
%TO.C,L2*%
X6832500Y-99645452D03*
X8407500Y-99645452D03*
%TD*%
D38*
%TO.C,U1*%
X16207500Y-42865000D03*
X16207500Y-44765000D03*
X18082500Y-43815000D03*
%TD*%
D12*
%TO.C,C28*%
X9271000Y-70879000D03*
X9271000Y-69329000D03*
%TD*%
D16*
%TO.C,C19*%
X16700800Y-89966800D03*
X15150800Y-89966800D03*
%TD*%
D15*
%TO.C,R16*%
X825000Y-75565000D03*
X-825000Y-75565000D03*
%TD*%
D25*
%TO.C,J7*%
X-17970000Y-60707831D03*
X-4770000Y-60707831D03*
D26*
X-6970000Y-65907831D03*
%TD*%
D39*
%TO.C,R1*%
X11938000Y-44895000D03*
X11938000Y-46545000D03*
%TD*%
D11*
%TO.C,R12*%
X12383000Y-30353000D03*
X14033000Y-30353000D03*
%TD*%
D25*
%TO.C,J4*%
X-17970000Y-19478666D03*
X-4770000Y-19478666D03*
D26*
X-6970000Y-24678666D03*
%TD*%
D25*
%TO.C,J10*%
X-17970000Y-101937000D03*
X-4770000Y-101937000D03*
D26*
X-6970000Y-107137000D03*
%TD*%
D37*
%TO.C,L1*%
X6832500Y-97795000D03*
X8407500Y-97795000D03*
%TD*%
D20*
%TO.C,RN8*%
X6896000Y-17272000D03*
X6096000Y-17272000D03*
X5296000Y-17272000D03*
X4496000Y-17272000D03*
X4496000Y-18792000D03*
X5296000Y-18792000D03*
X6096000Y-18792000D03*
X6896000Y-18792000D03*
%TD*%
D25*
%TO.C,J5*%
X-17970000Y-33221721D03*
X-4770000Y-33221721D03*
D26*
X-6970000Y-38421721D03*
%TD*%
D11*
%TO.C,R13*%
X-13804400Y-54000400D03*
X-12154400Y-54000400D03*
%TD*%
%TO.C,R8*%
X-825000Y-33020000D03*
X825000Y-33020000D03*
%TD*%
D36*
%TO.C,C13*%
X12065000Y-36690000D03*
X12065000Y-38240000D03*
%TD*%
D11*
%TO.C,R3*%
X12383000Y-32258000D03*
X14033000Y-32258000D03*
%TD*%
%TO.C,R10*%
X-13982200Y-40081200D03*
X-12332200Y-40081200D03*
%TD*%
D14*
%TO.C,U6*%
X7665000Y-70162500D03*
X7015000Y-70162500D03*
X6365000Y-70162500D03*
X5715000Y-70162500D03*
X5065000Y-70162500D03*
X4415000Y-70162500D03*
X3765000Y-70162500D03*
X3765000Y-75887500D03*
X4415000Y-75887500D03*
X5065000Y-75887500D03*
X5715000Y-75887500D03*
X6365000Y-75887500D03*
X7015000Y-75887500D03*
X7665000Y-75887500D03*
%TD*%
D13*
%TO.C,D4*%
X-16021400Y-26339800D03*
X-18821400Y-26339800D03*
%TD*%
D40*
%TO.C,U4*%
X4146000Y-34358500D03*
X4796000Y-34358500D03*
X5446000Y-34358500D03*
X6096000Y-34358500D03*
X6746000Y-34358500D03*
X7396000Y-34358500D03*
X8046000Y-34358500D03*
X8046000Y-28633500D03*
X7396000Y-28633500D03*
X6746000Y-28633500D03*
X6096000Y-28633500D03*
X5446000Y-28633500D03*
X4796000Y-28633500D03*
X4146000Y-28633500D03*
%TD*%
D33*
%TO.C,C8*%
X13970000Y-42765000D03*
X13970000Y-45465000D03*
%TD*%
D28*
%TO.C,REF\u002A\u002A*%
X4673600Y-108521200D03*
X6370656Y-107818256D03*
X2976544Y-107818256D03*
D29*
X4673600Y-106121200D03*
D28*
X4673600Y-103721200D03*
X2273600Y-106121200D03*
X2976544Y-104424144D03*
X6370656Y-104424144D03*
X7073600Y-106121200D03*
%TD*%
D41*
%TO.C,U2*%
X8958500Y-44155000D03*
X8958500Y-43505000D03*
X8958500Y-42855000D03*
X8958500Y-42205000D03*
X3233500Y-42205000D03*
X3233500Y-42855000D03*
X3233500Y-43505000D03*
X3233500Y-44155000D03*
%TD*%
D20*
%TO.C,RN9*%
X2864000Y-23872000D03*
X3664000Y-23872000D03*
X4464000Y-23872000D03*
X5264000Y-23872000D03*
X5264000Y-22352000D03*
X4464000Y-22352000D03*
X3664000Y-22352000D03*
X2864000Y-22352000D03*
%TD*%
D36*
%TO.C,C24*%
X9652000Y-27673000D03*
X9652000Y-29223000D03*
%TD*%
D11*
%TO.C,R7*%
X-13982200Y-26314400D03*
X-12332200Y-26314400D03*
%TD*%
D16*
%TO.C,C32*%
X4077000Y-77724000D03*
X2527000Y-77724000D03*
%TD*%
D30*
%TO.C,RN1*%
X11936000Y-66224000D03*
X11936000Y-65424000D03*
X11936000Y-64624000D03*
X11936000Y-63824000D03*
X10416000Y-63824000D03*
X10416000Y-64624000D03*
X10416000Y-65424000D03*
X10416000Y-66224000D03*
%TD*%
D13*
%TO.C,D10*%
X-15999000Y-108686600D03*
X-18799000Y-108686600D03*
%TD*%
D30*
%TO.C,RN5*%
X510000Y-12135000D03*
X510000Y-12935000D03*
X510000Y-13735000D03*
X510000Y-14535000D03*
X2030000Y-14535000D03*
X2030000Y-13735000D03*
X2030000Y-12935000D03*
X2030000Y-12135000D03*
%TD*%
D13*
%TO.C,D9*%
X-16024400Y-95072200D03*
X-18824400Y-95072200D03*
%TD*%
D17*
%TO.C,C21*%
X-3950000Y-12700000D03*
X-2400000Y-12700000D03*
%TD*%
D20*
%TO.C,RN10*%
X8820000Y-64645000D03*
X8020000Y-64645000D03*
X7220000Y-64645000D03*
X6420000Y-64645000D03*
X6420000Y-66165000D03*
X7220000Y-66165000D03*
X8020000Y-66165000D03*
X8820000Y-66165000D03*
%TD*%
D15*
%TO.C,R19*%
X-12179800Y-95097600D03*
X-13829800Y-95097600D03*
%TD*%
D25*
%TO.C,J9*%
X-17970000Y-88193941D03*
X-4770000Y-88193941D03*
D26*
X-6970000Y-93393941D03*
%TD*%
D42*
%TO.C,C7*%
X16256000Y-79588000D03*
X16256000Y-83988000D03*
%TD*%
D36*
%TO.C,C26*%
X2540000Y-27673000D03*
X2540000Y-29223000D03*
%TD*%
D20*
%TO.C,RN4*%
X7296000Y-2796000D03*
X6496000Y-2796000D03*
X5696000Y-2796000D03*
X4896000Y-2796000D03*
X4896000Y-4316000D03*
X5696000Y-4316000D03*
X6496000Y-4316000D03*
X7296000Y-4316000D03*
%TD*%
D33*
%TO.C,C10*%
X8365617Y-58764511D03*
X8365617Y-61464511D03*
%TD*%
D31*
%TO.C,J2*%
X17145000Y-69850000D03*
D32*
X14605000Y-69850000D03*
X17145000Y-67310000D03*
X14605000Y-67310000D03*
X17145000Y-64770000D03*
X14605000Y-64770000D03*
X17145000Y-62230000D03*
X14605000Y-62230000D03*
X17145000Y-59690000D03*
X14605000Y-59690000D03*
X17145000Y-57150000D03*
X14605000Y-57150000D03*
%TD*%
D16*
%TO.C,C29*%
X-2412217Y-67566567D03*
X-3962217Y-67566567D03*
%TD*%
D25*
%TO.C,J8*%
X-17970000Y-74450886D03*
X-4770000Y-74450886D03*
D26*
X-6970000Y-79650886D03*
%TD*%
D43*
%TO.C,C2*%
X-295000Y-99441000D03*
X4105000Y-99441000D03*
%TD*%
M02*
