%TF.GenerationSoftware,KiCad,Pcbnew,(6.0.5)*%
%TF.CreationDate,2022-06-21T23:16:53+02:00*%
%TF.ProjectId,eurorack-pmod-pcb,6575726f-7261-4636-9b2d-706d6f642d70,rev?*%
%TF.SameCoordinates,Original*%
%TF.FileFunction,Paste,Top*%
%TF.FilePolarity,Positive*%
%FSLAX46Y46*%
G04 Gerber Fmt 4.6, Leading zero omitted, Abs format (unit mm)*
G04 Created by KiCad (PCBNEW (6.0.5)) date 2022-06-21 23:16:53*
%MOMM*%
%LPD*%
G01*
G04 APERTURE LIST*
G04 Aperture macros list*
%AMRoundRect*
0 Rectangle with rounded corners*
0 $1 Rounding radius*
0 $2 $3 $4 $5 $6 $7 $8 $9 X,Y pos of 4 corners*
0 Add a 4 corners polygon primitive as box body*
4,1,4,$2,$3,$4,$5,$6,$7,$8,$9,$2,$3,0*
0 Add four circle primitives for the rounded corners*
1,1,$1+$1,$2,$3*
1,1,$1+$1,$4,$5*
1,1,$1+$1,$6,$7*
1,1,$1+$1,$8,$9*
0 Add four rect primitives between the rounded corners*
20,1,$1+$1,$2,$3,$4,$5,0*
20,1,$1+$1,$4,$5,$6,$7,0*
20,1,$1+$1,$6,$7,$8,$9,0*
20,1,$1+$1,$8,$9,$2,$3,0*%
%AMFreePoly0*
4,1,48,0.195015,0.341746,0.197191,0.342329,0.200525,0.340774,0.218481,0.337608,0.232451,0.325886,0.248978,0.318179,0.318179,0.248978,0.321152,0.244733,0.323103,0.243606,0.324361,0.240149,0.334819,0.225214,0.336409,0.207049,0.342646,0.189911,0.342646,-0.259112,0.340733,-0.269963,0.341377,-0.273618,0.339521,-0.276832,0.337608,-0.287682,0.323660,-0.304305,0.312807,-0.323103,
0.305724,-0.325681,0.300879,-0.331455,0.279505,-0.335224,0.259112,-0.342646,-0.259112,-0.342646,-0.269963,-0.340733,-0.273618,-0.341377,-0.276832,-0.339521,-0.287682,-0.337608,-0.304305,-0.323660,-0.323103,-0.312807,-0.325681,-0.305724,-0.331455,-0.300879,-0.335224,-0.279505,-0.342646,-0.259112,-0.342646,0.259112,-0.340733,0.269963,-0.341377,0.273618,-0.339521,0.276832,-0.337608,0.287682,
-0.323660,0.304305,-0.312807,0.323103,-0.305724,0.325681,-0.300879,0.331455,-0.279505,0.335224,-0.259112,0.342646,0.189911,0.342646,0.195015,0.341746,0.195015,0.341746,$1*%
%AMFreePoly1*
4,1,17,-0.208698,0.403113,0.269389,0.403113,0.321190,0.381657,0.342646,0.329856,0.342646,-0.329856,0.321190,-0.381657,0.269389,-0.403113,-0.208700,-0.403114,-0.260502,-0.381655,-0.321190,-0.320968,-0.342647,-0.269167,-0.342646,-0.269165,-0.342647,0.269167,-0.321190,0.320968,-0.260501,0.381657,-0.208700,0.403114,-0.208698,0.403113,-0.208698,0.403113,$1*%
%AMFreePoly2*
4,1,48,0.269963,0.340733,0.273618,0.341377,0.276832,0.339521,0.287682,0.337608,0.304305,0.323660,0.323103,0.312807,0.325681,0.305724,0.331455,0.300879,0.335224,0.279505,0.342646,0.259112,0.342646,-0.259112,0.340733,-0.269963,0.341377,-0.273618,0.339521,-0.276832,0.337608,-0.287682,0.323660,-0.304305,0.312807,-0.323103,0.305724,-0.325681,0.300879,-0.331455,0.279505,-0.335224,
0.259112,-0.342646,-0.189911,-0.342646,-0.195015,-0.341746,-0.197191,-0.342329,-0.200525,-0.340774,-0.218481,-0.337608,-0.232451,-0.325886,-0.248978,-0.318179,-0.318179,-0.248978,-0.321152,-0.244733,-0.323103,-0.243606,-0.324361,-0.240149,-0.334819,-0.225214,-0.336409,-0.207049,-0.342646,-0.189911,-0.342646,0.259112,-0.340733,0.269963,-0.341377,0.273618,-0.339521,0.276832,-0.337608,0.287682,
-0.323660,0.304305,-0.312807,0.323103,-0.305724,0.325681,-0.300879,0.331455,-0.279505,0.335224,-0.259112,0.342646,0.259112,0.342646,0.269963,0.340733,0.269963,0.340733,$1*%
%AMFreePoly3*
4,1,17,0.260501,0.381657,0.321190,0.320968,0.342646,0.269165,0.342647,-0.269167,0.338965,-0.278055,0.321188,-0.320969,0.260501,-0.381657,0.208700,-0.403114,0.208698,-0.403113,-0.269389,-0.403113,-0.321190,-0.381657,-0.342646,-0.329856,-0.342646,0.329856,-0.321190,0.381657,-0.269389,0.403113,0.208700,0.403114,0.260501,0.381657,0.260501,0.381657,$1*%
%AMFreePoly4*
4,1,48,0.269963,0.340733,0.273618,0.341377,0.276832,0.339521,0.287682,0.337608,0.304305,0.323660,0.323103,0.312807,0.325681,0.305724,0.331455,0.300879,0.335224,0.279505,0.342646,0.259112,0.342646,-0.259112,0.340733,-0.269963,0.341377,-0.273618,0.339521,-0.276832,0.337608,-0.287682,0.323660,-0.304305,0.312807,-0.323103,0.305724,-0.325681,0.300879,-0.331455,0.279505,-0.335224,
0.259112,-0.342646,-0.259112,-0.342646,-0.269963,-0.340733,-0.273618,-0.341377,-0.276832,-0.339521,-0.287682,-0.337608,-0.304305,-0.323660,-0.323103,-0.312807,-0.325681,-0.305724,-0.331455,-0.300879,-0.335224,-0.279505,-0.342646,-0.259112,-0.342646,0.189911,-0.341746,0.195015,-0.342329,0.197191,-0.340774,0.200525,-0.337608,0.218481,-0.325886,0.232451,-0.318179,0.248978,-0.248978,0.318179,
-0.244733,0.321152,-0.243606,0.323103,-0.240149,0.324361,-0.225214,0.334819,-0.207049,0.336409,-0.189911,0.342646,0.259112,0.342646,0.269963,0.340733,0.269963,0.340733,$1*%
%AMFreePoly5*
4,1,18,0.381657,0.321190,0.403113,0.269389,0.403114,-0.208700,0.399432,-0.217588,0.381655,-0.260502,0.320968,-0.321190,0.269167,-0.342647,0.269165,-0.342646,-0.269167,-0.342647,-0.320969,-0.321188,-0.381657,-0.260501,-0.403114,-0.208700,-0.403113,-0.208698,-0.403113,0.269389,-0.381657,0.321190,-0.329856,0.342646,0.329856,0.342646,0.381657,0.321190,0.381657,0.321190,$1*%
%AMFreePoly6*
4,1,48,0.269963,0.340733,0.273618,0.341377,0.276832,0.339521,0.287682,0.337608,0.304305,0.323660,0.323103,0.312807,0.325681,0.305724,0.331455,0.300879,0.335224,0.279505,0.342646,0.259112,0.342646,-0.189911,0.341746,-0.195015,0.342329,-0.197191,0.340774,-0.200525,0.337608,-0.218481,0.325886,-0.232451,0.318179,-0.248978,0.248978,-0.318179,0.244733,-0.321152,0.243606,-0.323103,
0.240149,-0.324361,0.225214,-0.334819,0.207049,-0.336409,0.189911,-0.342646,-0.259112,-0.342646,-0.269963,-0.340733,-0.273618,-0.341377,-0.276832,-0.339521,-0.287682,-0.337608,-0.304305,-0.323660,-0.323103,-0.312807,-0.325681,-0.305724,-0.331455,-0.300879,-0.335224,-0.279505,-0.342646,-0.259112,-0.342646,0.259112,-0.340733,0.269963,-0.341377,0.273618,-0.339521,0.276832,-0.337608,0.287682,
-0.323660,0.304305,-0.312807,0.323103,-0.305724,0.325681,-0.300879,0.331455,-0.279505,0.335224,-0.259112,0.342646,0.259112,0.342646,0.269963,0.340733,0.269963,0.340733,$1*%
%AMFreePoly7*
4,1,15,0.320968,0.321190,0.381657,0.260501,0.403113,0.208698,0.403113,-0.269389,0.381657,-0.321190,0.329856,-0.342646,-0.329856,-0.342646,-0.381657,-0.321190,-0.403113,-0.269389,-0.403114,0.208700,-0.381657,0.260501,-0.320968,0.321190,-0.269165,0.342646,0.269167,0.342647,0.320968,0.321190,0.320968,0.321190,$1*%
G04 Aperture macros list end*
%ADD10RoundRect,0.200000X0.275000X-0.200000X0.275000X0.200000X-0.275000X0.200000X-0.275000X-0.200000X0*%
%ADD11RoundRect,0.200000X0.200000X0.275000X-0.200000X0.275000X-0.200000X-0.275000X0.200000X-0.275000X0*%
%ADD12RoundRect,0.200000X-0.275000X0.200000X-0.275000X-0.200000X0.275000X-0.200000X0.275000X0.200000X0*%
%ADD13RoundRect,0.225000X-0.225000X-0.250000X0.225000X-0.250000X0.225000X0.250000X-0.225000X0.250000X0*%
%ADD14RoundRect,0.225000X-0.250000X0.225000X-0.250000X-0.225000X0.250000X-0.225000X0.250000X0.225000X0*%
%ADD15RoundRect,0.150000X0.150000X-0.825000X0.150000X0.825000X-0.150000X0.825000X-0.150000X-0.825000X0*%
%ADD16RoundRect,0.250000X-0.425000X0.450000X-0.425000X-0.450000X0.425000X-0.450000X0.425000X0.450000X0*%
%ADD17RoundRect,0.200000X-0.200000X-0.275000X0.200000X-0.275000X0.200000X0.275000X-0.200000X0.275000X0*%
%ADD18FreePoly0,0.000000*%
%ADD19FreePoly1,0.000000*%
%ADD20RoundRect,0.201557X-0.201556X-0.201556X0.201556X-0.201556X0.201556X0.201556X-0.201556X0.201556X0*%
%ADD21FreePoly2,0.000000*%
%ADD22FreePoly3,0.000000*%
%ADD23FreePoly4,0.000000*%
%ADD24FreePoly5,0.000000*%
%ADD25FreePoly6,0.000000*%
%ADD26FreePoly7,0.000000*%
%ADD27RoundRect,0.062500X-0.337500X-0.062500X0.337500X-0.062500X0.337500X0.062500X-0.337500X0.062500X0*%
%ADD28RoundRect,0.062500X-0.062500X-0.337500X0.062500X-0.337500X0.062500X0.337500X-0.062500X0.337500X0*%
%ADD29RoundRect,0.225000X0.250000X-0.225000X0.250000X0.225000X-0.250000X0.225000X-0.250000X-0.225000X0*%
%ADD30RoundRect,0.250000X0.425000X-0.450000X0.425000X0.450000X-0.425000X0.450000X-0.425000X-0.450000X0*%
%ADD31RoundRect,0.225000X0.225000X0.250000X-0.225000X0.250000X-0.225000X-0.250000X0.225000X-0.250000X0*%
%ADD32RoundRect,0.250000X0.450000X0.425000X-0.450000X0.425000X-0.450000X-0.425000X0.450000X-0.425000X0*%
%ADD33RoundRect,0.150000X-0.825000X-0.150000X0.825000X-0.150000X0.825000X0.150000X-0.825000X0.150000X0*%
G04 APERTURE END LIST*
D10*
%TO.C,R29*%
X2032000Y-32321000D03*
X2032000Y-30671000D03*
%TD*%
D11*
%TO.C,R6*%
X17589000Y-49530000D03*
X15939000Y-49530000D03*
%TD*%
D12*
%TO.C,R17*%
X23368000Y-30671000D03*
X23368000Y-32321000D03*
%TD*%
D10*
%TO.C,R42*%
X26924000Y-77533000D03*
X26924000Y-75883000D03*
%TD*%
%TO.C,R47*%
X27940000Y-69913000D03*
X27940000Y-68263000D03*
%TD*%
D12*
%TO.C,R45*%
X22860000Y-75883000D03*
X22860000Y-77533000D03*
%TD*%
%TO.C,R34*%
X3556000Y-76391000D03*
X3556000Y-78041000D03*
%TD*%
D13*
%TO.C,C4*%
X13449000Y-56134000D03*
X14999000Y-56134000D03*
%TD*%
D12*
%TO.C,R30*%
X9144000Y-34227000D03*
X9144000Y-35877000D03*
%TD*%
D14*
%TO.C,C14*%
X8636000Y-41897000D03*
X8636000Y-43447000D03*
%TD*%
D12*
%TO.C,R39*%
X3365000Y-65215000D03*
X3365000Y-66865000D03*
%TD*%
D15*
%TO.C,U5*%
X3175000Y-39559000D03*
X4445000Y-39559000D03*
X5715000Y-39559000D03*
X6985000Y-39559000D03*
X6985000Y-34609000D03*
X5715000Y-34609000D03*
X4445000Y-34609000D03*
X3175000Y-34609000D03*
%TD*%
D11*
%TO.C,R5*%
X28765000Y-47244000D03*
X27115000Y-47244000D03*
%TD*%
D12*
%TO.C,R1*%
X11176000Y-65723000D03*
X11176000Y-67373000D03*
%TD*%
D16*
%TO.C,C10*%
X12192000Y-59102000D03*
X12192000Y-61802000D03*
%TD*%
D17*
%TO.C,R3*%
X15939000Y-51562000D03*
X17589000Y-51562000D03*
%TD*%
D10*
%TO.C,R11*%
X20320000Y-39941000D03*
X20320000Y-38291000D03*
%TD*%
D12*
%TO.C,R43*%
X20828000Y-75883000D03*
X20828000Y-77533000D03*
%TD*%
D10*
%TO.C,R48*%
X23368000Y-66357000D03*
X23368000Y-64707000D03*
%TD*%
D18*
%TO.C,U3*%
X7719000Y-56289000D03*
D19*
X10569000Y-54364000D03*
D20*
X9644000Y-55364000D03*
D21*
X10569000Y-53439000D03*
D22*
X7719000Y-55364000D03*
D23*
X10569000Y-56289000D03*
D19*
X10569000Y-55364000D03*
D24*
X8644000Y-53439000D03*
D22*
X7719000Y-54364000D03*
D24*
X9644000Y-53439000D03*
D25*
X7719000Y-53439000D03*
D20*
X8644000Y-54364000D03*
D26*
X8644000Y-56289000D03*
D20*
X9644000Y-54364000D03*
X8644000Y-55364000D03*
D26*
X9644000Y-56289000D03*
D27*
X6694000Y-53114000D03*
X6694000Y-53614000D03*
X6694000Y-54114000D03*
X6694000Y-54614000D03*
X6694000Y-55114000D03*
X6694000Y-55614000D03*
X6694000Y-56114000D03*
X6694000Y-56614000D03*
D28*
X7394000Y-57314000D03*
X7894000Y-57314000D03*
X8394000Y-57314000D03*
X8894000Y-57314000D03*
X9394000Y-57314000D03*
X9894000Y-57314000D03*
X10394000Y-57314000D03*
X10894000Y-57314000D03*
D27*
X11594000Y-56614000D03*
X11594000Y-56114000D03*
X11594000Y-55614000D03*
X11594000Y-55114000D03*
X11594000Y-54614000D03*
X11594000Y-54114000D03*
X11594000Y-53614000D03*
X11594000Y-53114000D03*
D28*
X10894000Y-52414000D03*
X10394000Y-52414000D03*
X9894000Y-52414000D03*
X9394000Y-52414000D03*
X8894000Y-52414000D03*
X8394000Y-52414000D03*
X7894000Y-52414000D03*
X7394000Y-52414000D03*
%TD*%
D29*
%TO.C,C16*%
X9144000Y-78499000D03*
X9144000Y-76949000D03*
%TD*%
D12*
%TO.C,R27*%
X4064000Y-30671000D03*
X4064000Y-32321000D03*
%TD*%
%TO.C,R25*%
X6604000Y-41847000D03*
X6604000Y-43497000D03*
%TD*%
%TO.C,R33*%
X1524000Y-76391000D03*
X1524000Y-78041000D03*
%TD*%
D10*
%TO.C,R2*%
X11176000Y-70738000D03*
X11176000Y-69088000D03*
%TD*%
%TO.C,R49*%
X25400000Y-66357000D03*
X25400000Y-64707000D03*
%TD*%
D12*
%TO.C,R26*%
X8128000Y-30671000D03*
X8128000Y-32321000D03*
%TD*%
D10*
%TO.C,R22*%
X2540000Y-43497000D03*
X2540000Y-41847000D03*
%TD*%
D12*
%TO.C,R44*%
X19812000Y-72327000D03*
X19812000Y-73977000D03*
%TD*%
D17*
%TO.C,R7*%
X27115000Y-52324000D03*
X28765000Y-52324000D03*
%TD*%
D30*
%TO.C,C11*%
X19812000Y-66882000D03*
X19812000Y-64182000D03*
%TD*%
D12*
%TO.C,R18*%
X25400000Y-30671000D03*
X25400000Y-32321000D03*
%TD*%
D10*
%TO.C,R23*%
X4572000Y-43497000D03*
X4572000Y-41847000D03*
%TD*%
D15*
%TO.C,U4*%
X22479000Y-39559000D03*
X23749000Y-39559000D03*
X25019000Y-39559000D03*
X26289000Y-39559000D03*
X26289000Y-34609000D03*
X25019000Y-34609000D03*
X23749000Y-34609000D03*
X22479000Y-34609000D03*
%TD*%
D17*
%TO.C,R4*%
X27115000Y-50292000D03*
X28765000Y-50292000D03*
%TD*%
D16*
%TO.C,C13*%
X10668000Y-42338000D03*
X10668000Y-45038000D03*
%TD*%
D12*
%TO.C,R37*%
X7429000Y-65215000D03*
X7429000Y-66865000D03*
%TD*%
D30*
%TO.C,C15*%
X11176000Y-78058000D03*
X11176000Y-75358000D03*
%TD*%
D16*
%TO.C,C3*%
X14478000Y-58086000D03*
X14478000Y-60786000D03*
%TD*%
D31*
%TO.C,C6*%
X5347000Y-54356000D03*
X3797000Y-54356000D03*
%TD*%
D30*
%TO.C,C17*%
X19304000Y-34370000D03*
X19304000Y-31670000D03*
%TD*%
D32*
%TO.C,C5*%
X4906000Y-52324000D03*
X2206000Y-52324000D03*
%TD*%
D10*
%TO.C,R46*%
X27940000Y-73977000D03*
X27940000Y-72327000D03*
%TD*%
%TO.C,R10*%
X8636000Y-49339000D03*
X8636000Y-47689000D03*
%TD*%
D12*
%TO.C,R35*%
X5588000Y-76391000D03*
X5588000Y-78041000D03*
%TD*%
D14*
%TO.C,C18*%
X18288000Y-28181000D03*
X18288000Y-29731000D03*
%TD*%
D10*
%TO.C,R9*%
X10668000Y-49847000D03*
X10668000Y-48197000D03*
%TD*%
D15*
%TO.C,U7*%
X21971000Y-73595000D03*
X23241000Y-73595000D03*
X24511000Y-73595000D03*
X25781000Y-73595000D03*
X25781000Y-68645000D03*
X24511000Y-68645000D03*
X23241000Y-68645000D03*
X21971000Y-68645000D03*
%TD*%
D12*
%TO.C,R21*%
X9144000Y-38291000D03*
X9144000Y-39941000D03*
%TD*%
D29*
%TO.C,C12*%
X21844000Y-66307000D03*
X21844000Y-64757000D03*
%TD*%
D12*
%TO.C,R19*%
X21336000Y-30671000D03*
X21336000Y-32321000D03*
%TD*%
%TO.C,R15*%
X25400000Y-41847000D03*
X25400000Y-43497000D03*
%TD*%
D33*
%TO.C,U2*%
X19877000Y-48133000D03*
X19877000Y-49403000D03*
X19877000Y-50673000D03*
X19877000Y-51943000D03*
X24827000Y-51943000D03*
X24827000Y-50673000D03*
X24827000Y-49403000D03*
X24827000Y-48133000D03*
%TD*%
D12*
%TO.C,R20*%
X28448000Y-34227000D03*
X28448000Y-35877000D03*
%TD*%
D10*
%TO.C,R24*%
X1016000Y-39941000D03*
X1016000Y-38291000D03*
%TD*%
D12*
%TO.C,R28*%
X6096000Y-30671000D03*
X6096000Y-32321000D03*
%TD*%
%TO.C,R31*%
X8128000Y-72644000D03*
X8128000Y-74294000D03*
%TD*%
D10*
%TO.C,R13*%
X28448000Y-39941000D03*
X28448000Y-38291000D03*
%TD*%
D12*
%TO.C,R32*%
X7620000Y-76391000D03*
X7620000Y-78041000D03*
%TD*%
D15*
%TO.C,U6*%
X2159000Y-74103000D03*
X3429000Y-74103000D03*
X4699000Y-74103000D03*
X5969000Y-74103000D03*
X5969000Y-69153000D03*
X4699000Y-69153000D03*
X3429000Y-69153000D03*
X2159000Y-69153000D03*
%TD*%
D10*
%TO.C,R36*%
X8128000Y-70421000D03*
X8128000Y-68771000D03*
%TD*%
D12*
%TO.C,R12*%
X23368000Y-41847000D03*
X23368000Y-43497000D03*
%TD*%
D11*
%TO.C,R8*%
X5397000Y-50292000D03*
X3747000Y-50292000D03*
%TD*%
D10*
%TO.C,R41*%
X24892000Y-77533000D03*
X24892000Y-75883000D03*
%TD*%
D12*
%TO.C,R14*%
X21336000Y-41847000D03*
X21336000Y-43497000D03*
%TD*%
%TO.C,R16*%
X27432000Y-30671000D03*
X27432000Y-32321000D03*
%TD*%
D10*
%TO.C,R40*%
X5397000Y-66865000D03*
X5397000Y-65215000D03*
%TD*%
D16*
%TO.C,C9*%
X2286000Y-55546000D03*
X2286000Y-58246000D03*
%TD*%
D10*
%TO.C,R38*%
X1333000Y-66865000D03*
X1333000Y-65215000D03*
%TD*%
%TO.C,R50*%
X27432000Y-66357000D03*
X27432000Y-64707000D03*
%TD*%
M02*
