M48
; DRILL file {KiCad (6.0.5)} date Tue 21 Jun 2022 23:17:13
; FORMAT={-:-/ absolute / inch / decimal}
; #@! TF.CreationDate,2022-06-21T23:17:13+02:00
; #@! TF.GenerationSoftware,Kicad,Pcbnew,(6.0.5)
; #@! TF.FileFunction,Plated,1,2,PTH
FMAT,2
INCH
; #@! TA.AperFunction,Plated,PTH,ComponentDrill
T1C0.0118
; #@! TA.AperFunction,Plated,PTH,ViaDrill
T2C0.0157
; #@! TA.AperFunction,Plated,PTH,ComponentDrill
T3C0.0197
; #@! TA.AperFunction,Plated,PTH,ComponentDrill
T4C0.0394
%
G90
G05
T1
X0.3206Y-2.1206
X0.3206Y-2.16
X0.3206Y-2.1994
X0.36Y-2.1206
X0.36Y-2.16
X0.36Y-2.1994
X0.3994Y-2.1206
X0.3994Y-2.16
X0.3994Y-2.1994
T2
X0.04Y-1.44
X0.04Y-1.73
X0.04Y-2.38
X0.08Y-1.41
X0.08Y-1.51
X0.08Y-1.79
X0.09Y-2.27
X0.1Y-2.13
X0.1398Y-1.7998
X0.14Y-1.48
X0.1454Y-2.2088
X0.1468Y-2.4085
X0.1835Y-2.2183
X0.19Y-2.54
X0.1926Y-2.435
X0.1931Y-2.1031
X0.22Y-3.11
X0.2209Y-2.2664
X0.2447Y-2.4572
X0.262Y-2.038
X0.27Y-1.48
X0.27Y-1.98
X0.28Y-2.49
X0.3Y-1.76
X0.31Y-1.86
X0.32Y-2.58
X0.3302Y-1.9998
X0.35Y-1.6118
X0.36Y-1.45
X0.36Y-1.96
X0.37Y-2.85
X0.38Y-2.59
X0.3832Y-2.3571
X0.3899Y-1.9999
X0.3968Y-3.1115
X0.42Y-2.47
X0.42Y-2.89
X0.4223Y-1.8128
X0.43Y-1.48
X0.44Y-0.46
X0.44Y-2.7
X0.45Y-2.0
X0.45Y-3.01
X0.47Y-2.66
X0.4774Y-1.7089
X0.487Y-1.9866
X0.49Y-1.89
X0.49Y-2.05
X0.49Y-2.71
X0.51Y-2.54
X0.52Y-2.09
X0.53Y-1.9407
X0.55Y-2.13
X0.57Y-1.04
X0.576Y-2.5785
X0.58Y-2.16
X0.58Y-2.43
X0.61Y-0.67
X0.6105Y-1.9549
X0.62Y-2.21
X0.66Y-0.98
X0.66Y-2.47
X0.67Y-1.58
X0.67Y-2.35
X0.67Y-2.55
X0.6702Y-2.3098
X0.68Y-1.8
X0.6902Y-2.4106
X0.72Y-1.07
X0.7359Y-2.1471
X0.74Y-2.45
X0.7512Y-1.8212
X0.7593Y-1.4304
X0.76Y-1.32
X0.76Y-1.39
X0.78Y-1.77
X0.78Y-2.49
X0.78Y-2.68
X0.8Y-1.68
X0.8158Y-2.1644
X0.82Y-1.6
X0.8414Y-1.3307
X0.85Y-2.11
X0.86Y-2.51
X0.87Y-1.91
X0.87Y-2.8
X0.8878Y-2.4419
X0.89Y-0.82
X0.89Y-2.38
X0.9Y-2.11
X0.901Y-3.0852
X0.9032Y-1.7985
X0.92Y-1.45
X0.9302Y-2.4902
X0.9338Y-2.3786
X0.94Y-2.96
X0.95Y-2.11
X0.98Y-1.86
X0.98Y-3.1
X1.0Y-1.74
X1.01Y-2.84
X1.02Y-0.98
X1.03Y-1.51
X1.0345Y-2.366
X1.0412Y-2.6487
X1.05Y-1.62
X1.06Y-2.11
X1.08Y-2.52
X1.1Y-1.77
X1.11Y-1.63
X1.12Y-1.22
X1.12Y-1.44
X1.12Y-2.26
X1.12Y-2.5
X1.12Y-3.05
X1.1252Y-2.1093
X1.13Y-2.8
X1.1315Y-2.3925
X1.15Y-1.69
X1.15Y-1.93
T4
X0.5302Y-1.1306
X0.5302Y-1.2306
X0.5302Y-1.3306
X0.5302Y-1.4306
X0.5302Y-1.5306
X0.5302Y-1.6306
X0.5302Y-1.7306
X0.5302Y-1.8306
X0.5702Y-2.66
X0.5702Y-2.76
X0.5702Y-2.86
X0.5702Y-2.96
X0.5702Y-3.06
X0.5702Y-3.16
X0.6302Y-1.1306
X0.6302Y-1.2306
X0.6302Y-1.3306
X0.6302Y-1.4306
X0.6302Y-1.5306
X0.6302Y-1.6306
X0.6302Y-1.7306
X0.6302Y-1.8306
X0.6702Y-2.66
X0.6702Y-2.76
X0.6702Y-2.86
X0.6702Y-2.96
X0.6702Y-3.06
X0.6702Y-3.16
X0.7504Y-2.2098
X0.7504Y-2.3098
X0.8504Y-2.2098
X0.8504Y-2.3098
X0.9504Y-2.2098
X0.9504Y-2.3098
X1.0504Y-2.2098
X1.0504Y-2.3098
T3
G00X0.2406Y-0.091
M15
G01X0.3194Y-0.091
M16
G05
G00X0.2406Y-0.4099
M15
G01X0.3194Y-0.4099
M16
G05
G00X0.2406Y-0.631
M15
G01X0.3194Y-0.631
M16
G05
G00X0.2406Y-0.9499
M15
G01X0.3194Y-0.9499
M16
G05
G00X0.2406Y-3.311
M15
G01X0.3194Y-3.311
M16
G05
G00X0.2406Y-3.6299
M15
G01X0.3194Y-3.6299
M16
G05
G00X0.2406Y-3.851
M15
G01X0.3194Y-3.851
M16
G05
G00X0.2406Y-4.1699
M15
G01X0.3194Y-4.1699
M16
G05
G00X0.8406Y-0.091
M15
G01X0.9194Y-0.091
M16
G05
G00X0.8406Y-0.4099
M15
G01X0.9194Y-0.4099
M16
G05
G00X0.8406Y-0.631
M15
G01X0.9194Y-0.631
M16
G05
G00X0.8406Y-0.9499
M15
G01X0.9194Y-0.9499
M16
G05
G00X0.8406Y-3.311
M15
G01X0.9194Y-3.311
M16
G05
G00X0.8406Y-3.6299
M15
G01X0.9194Y-3.6299
M16
G05
G00X0.8406Y-3.851
M15
G01X0.9194Y-3.851
M16
G05
G00X0.8406Y-4.1699
M15
G01X0.9194Y-4.1699
M16
G05
T4
G00X0.095Y-0.3331
M15
G01X0.095Y-0.2741
M16
G05
G00X0.095Y-0.8731
M15
G01X0.095Y-0.8141
M16
G05
G00X0.095Y-3.5531
M15
G01X0.095Y-3.4941
M16
G05
G00X0.095Y-4.0931
M15
G01X0.095Y-4.0341
M16
G05
G00X0.465Y-0.3194
M15
G01X0.465Y-0.2879
M16
G05
G00X0.465Y-0.8594
M15
G01X0.465Y-0.8279
M16
G05
G00X0.465Y-3.5394
M15
G01X0.465Y-3.5079
M16
G05
G00X0.465Y-4.0794
M15
G01X0.465Y-4.0479
M16
G05
G00X0.695Y-0.3331
M15
G01X0.695Y-0.2741
M16
G05
G00X0.695Y-0.8731
M15
G01X0.695Y-0.8141
M16
G05
G00X0.695Y-3.5531
M15
G01X0.695Y-3.4941
M16
G05
G00X0.695Y-4.0931
M15
G01X0.695Y-4.0341
M16
G05
G00X1.065Y-0.3194
M15
G01X1.065Y-0.2879
M16
G05
G00X1.065Y-0.8594
M15
G01X1.065Y-0.8279
M16
G05
G00X1.065Y-3.5394
M15
G01X1.065Y-3.5079
M16
G05
G00X1.065Y-4.0794
M15
G01X1.065Y-4.0479
M16
G05
T0
M30
