%TF.GenerationSoftware,KiCad,Pcbnew,(6.0.5)*%
%TF.CreationDate,2022-06-21T23:16:53+02:00*%
%TF.ProjectId,eurorack-pmod-pcb,6575726f-7261-4636-9b2d-706d6f642d70,rev?*%
%TF.SameCoordinates,Original*%
%TF.FileFunction,Legend,Top*%
%TF.FilePolarity,Positive*%
%FSLAX46Y46*%
G04 Gerber Fmt 4.6, Leading zero omitted, Abs format (unit mm)*
G04 Created by KiCad (PCBNEW (6.0.5)) date 2022-06-21 23:16:53*
%MOMM*%
%LPD*%
G01*
G04 APERTURE LIST*
%ADD10C,0.150000*%
%ADD11C,0.120000*%
%ADD12C,0.200000*%
G04 APERTURE END LIST*
D10*
%TO.C,R29*%
X2484380Y-29090857D02*
X2008190Y-29424190D01*
X2484380Y-29662285D02*
X1484380Y-29662285D01*
X1484380Y-29281333D01*
X1532000Y-29186095D01*
X1579619Y-29138476D01*
X1674857Y-29090857D01*
X1817714Y-29090857D01*
X1912952Y-29138476D01*
X1960571Y-29186095D01*
X2008190Y-29281333D01*
X2008190Y-29662285D01*
X1579619Y-28709904D02*
X1532000Y-28662285D01*
X1484380Y-28567047D01*
X1484380Y-28328952D01*
X1532000Y-28233714D01*
X1579619Y-28186095D01*
X1674857Y-28138476D01*
X1770095Y-28138476D01*
X1912952Y-28186095D01*
X2484380Y-28757523D01*
X2484380Y-28138476D01*
X2484380Y-27662285D02*
X2484380Y-27471809D01*
X2436761Y-27376571D01*
X2389142Y-27328952D01*
X2246285Y-27233714D01*
X2055809Y-27186095D01*
X1674857Y-27186095D01*
X1579619Y-27233714D01*
X1532000Y-27281333D01*
X1484380Y-27376571D01*
X1484380Y-27567047D01*
X1532000Y-27662285D01*
X1579619Y-27709904D01*
X1674857Y-27757523D01*
X1912952Y-27757523D01*
X2008190Y-27709904D01*
X2055809Y-27662285D01*
X2103428Y-27567047D01*
X2103428Y-27376571D01*
X2055809Y-27281333D01*
X2008190Y-27233714D01*
X1912952Y-27186095D01*
%TO.C,R6*%
X14057333Y-49982380D02*
X13724000Y-49506190D01*
X13485904Y-49982380D02*
X13485904Y-48982380D01*
X13866857Y-48982380D01*
X13962095Y-49030000D01*
X14009714Y-49077619D01*
X14057333Y-49172857D01*
X14057333Y-49315714D01*
X14009714Y-49410952D01*
X13962095Y-49458571D01*
X13866857Y-49506190D01*
X13485904Y-49506190D01*
X14914476Y-48982380D02*
X14724000Y-48982380D01*
X14628761Y-49030000D01*
X14581142Y-49077619D01*
X14485904Y-49220476D01*
X14438285Y-49410952D01*
X14438285Y-49791904D01*
X14485904Y-49887142D01*
X14533523Y-49934761D01*
X14628761Y-49982380D01*
X14819238Y-49982380D01*
X14914476Y-49934761D01*
X14962095Y-49887142D01*
X15009714Y-49791904D01*
X15009714Y-49553809D01*
X14962095Y-49458571D01*
X14914476Y-49410952D01*
X14819238Y-49363333D01*
X14628761Y-49363333D01*
X14533523Y-49410952D01*
X14485904Y-49458571D01*
X14438285Y-49553809D01*
%TO.C,R17*%
X23820380Y-29090857D02*
X23344190Y-29424190D01*
X23820380Y-29662285D02*
X22820380Y-29662285D01*
X22820380Y-29281333D01*
X22868000Y-29186095D01*
X22915619Y-29138476D01*
X23010857Y-29090857D01*
X23153714Y-29090857D01*
X23248952Y-29138476D01*
X23296571Y-29186095D01*
X23344190Y-29281333D01*
X23344190Y-29662285D01*
X23820380Y-28138476D02*
X23820380Y-28709904D01*
X23820380Y-28424190D02*
X22820380Y-28424190D01*
X22963238Y-28519428D01*
X23058476Y-28614666D01*
X23106095Y-28709904D01*
X22820380Y-27805142D02*
X22820380Y-27138476D01*
X23820380Y-27567047D01*
%TO.C,R42*%
X27376380Y-80398857D02*
X26900190Y-80732190D01*
X27376380Y-80970285D02*
X26376380Y-80970285D01*
X26376380Y-80589333D01*
X26424000Y-80494095D01*
X26471619Y-80446476D01*
X26566857Y-80398857D01*
X26709714Y-80398857D01*
X26804952Y-80446476D01*
X26852571Y-80494095D01*
X26900190Y-80589333D01*
X26900190Y-80970285D01*
X26709714Y-79541714D02*
X27376380Y-79541714D01*
X26328761Y-79779809D02*
X27043047Y-80017904D01*
X27043047Y-79398857D01*
X26471619Y-79065523D02*
X26424000Y-79017904D01*
X26376380Y-78922666D01*
X26376380Y-78684571D01*
X26424000Y-78589333D01*
X26471619Y-78541714D01*
X26566857Y-78494095D01*
X26662095Y-78494095D01*
X26804952Y-78541714D01*
X27376380Y-79113142D01*
X27376380Y-78494095D01*
%TO.C,R47*%
X29408380Y-66682857D02*
X28932190Y-67016190D01*
X29408380Y-67254285D02*
X28408380Y-67254285D01*
X28408380Y-66873333D01*
X28456000Y-66778095D01*
X28503619Y-66730476D01*
X28598857Y-66682857D01*
X28741714Y-66682857D01*
X28836952Y-66730476D01*
X28884571Y-66778095D01*
X28932190Y-66873333D01*
X28932190Y-67254285D01*
X28741714Y-65825714D02*
X29408380Y-65825714D01*
X28360761Y-66063809D02*
X29075047Y-66301904D01*
X29075047Y-65682857D01*
X28408380Y-65397142D02*
X28408380Y-64730476D01*
X29408380Y-65159047D01*
%TO.C,R45*%
X23312380Y-80398857D02*
X22836190Y-80732190D01*
X23312380Y-80970285D02*
X22312380Y-80970285D01*
X22312380Y-80589333D01*
X22360000Y-80494095D01*
X22407619Y-80446476D01*
X22502857Y-80398857D01*
X22645714Y-80398857D01*
X22740952Y-80446476D01*
X22788571Y-80494095D01*
X22836190Y-80589333D01*
X22836190Y-80970285D01*
X22645714Y-79541714D02*
X23312380Y-79541714D01*
X22264761Y-79779809D02*
X22979047Y-80017904D01*
X22979047Y-79398857D01*
X22312380Y-78541714D02*
X22312380Y-79017904D01*
X22788571Y-79065523D01*
X22740952Y-79017904D01*
X22693333Y-78922666D01*
X22693333Y-78684571D01*
X22740952Y-78589333D01*
X22788571Y-78541714D01*
X22883809Y-78494095D01*
X23121904Y-78494095D01*
X23217142Y-78541714D01*
X23264761Y-78589333D01*
X23312380Y-78684571D01*
X23312380Y-78922666D01*
X23264761Y-79017904D01*
X23217142Y-79065523D01*
%TO.C,J6*%
X4178666Y-13880380D02*
X4178666Y-14594666D01*
X4131047Y-14737523D01*
X4035809Y-14832761D01*
X3892952Y-14880380D01*
X3797714Y-14880380D01*
X5083428Y-13880380D02*
X4892952Y-13880380D01*
X4797714Y-13928000D01*
X4750095Y-13975619D01*
X4654857Y-14118476D01*
X4607238Y-14308952D01*
X4607238Y-14689904D01*
X4654857Y-14785142D01*
X4702476Y-14832761D01*
X4797714Y-14880380D01*
X4988190Y-14880380D01*
X5083428Y-14832761D01*
X5131047Y-14785142D01*
X5178666Y-14689904D01*
X5178666Y-14451809D01*
X5131047Y-14356571D01*
X5083428Y-14308952D01*
X4988190Y-14261333D01*
X4797714Y-14261333D01*
X4702476Y-14308952D01*
X4654857Y-14356571D01*
X4607238Y-14451809D01*
%TO.C,R34*%
X4008380Y-80906857D02*
X3532190Y-81240190D01*
X4008380Y-81478285D02*
X3008380Y-81478285D01*
X3008380Y-81097333D01*
X3056000Y-81002095D01*
X3103619Y-80954476D01*
X3198857Y-80906857D01*
X3341714Y-80906857D01*
X3436952Y-80954476D01*
X3484571Y-81002095D01*
X3532190Y-81097333D01*
X3532190Y-81478285D01*
X3008380Y-80573523D02*
X3008380Y-79954476D01*
X3389333Y-80287809D01*
X3389333Y-80144952D01*
X3436952Y-80049714D01*
X3484571Y-80002095D01*
X3579809Y-79954476D01*
X3817904Y-79954476D01*
X3913142Y-80002095D01*
X3960761Y-80049714D01*
X4008380Y-80144952D01*
X4008380Y-80430666D01*
X3960761Y-80525904D01*
X3913142Y-80573523D01*
X3341714Y-79097333D02*
X4008380Y-79097333D01*
X2960761Y-79335428D02*
X3675047Y-79573523D01*
X3675047Y-78954476D01*
%TO.C,C4*%
X16597333Y-56491142D02*
X16549714Y-56538761D01*
X16406857Y-56586380D01*
X16311619Y-56586380D01*
X16168761Y-56538761D01*
X16073523Y-56443523D01*
X16025904Y-56348285D01*
X15978285Y-56157809D01*
X15978285Y-56014952D01*
X16025904Y-55824476D01*
X16073523Y-55729238D01*
X16168761Y-55634000D01*
X16311619Y-55586380D01*
X16406857Y-55586380D01*
X16549714Y-55634000D01*
X16597333Y-55681619D01*
X17454476Y-55919714D02*
X17454476Y-56586380D01*
X17216380Y-55538761D02*
X16978285Y-56253047D01*
X17597333Y-56253047D01*
%TO.C,R30*%
X10104380Y-32646857D02*
X9628190Y-32980190D01*
X10104380Y-33218285D02*
X9104380Y-33218285D01*
X9104380Y-32837333D01*
X9152000Y-32742095D01*
X9199619Y-32694476D01*
X9294857Y-32646857D01*
X9437714Y-32646857D01*
X9532952Y-32694476D01*
X9580571Y-32742095D01*
X9628190Y-32837333D01*
X9628190Y-33218285D01*
X9104380Y-32313523D02*
X9104380Y-31694476D01*
X9485333Y-32027809D01*
X9485333Y-31884952D01*
X9532952Y-31789714D01*
X9580571Y-31742095D01*
X9675809Y-31694476D01*
X9913904Y-31694476D01*
X10009142Y-31742095D01*
X10056761Y-31789714D01*
X10104380Y-31884952D01*
X10104380Y-32170666D01*
X10056761Y-32265904D01*
X10009142Y-32313523D01*
X9104380Y-31075428D02*
X9104380Y-30980190D01*
X9152000Y-30884952D01*
X9199619Y-30837333D01*
X9294857Y-30789714D01*
X9485333Y-30742095D01*
X9723428Y-30742095D01*
X9913904Y-30789714D01*
X10009142Y-30837333D01*
X10056761Y-30884952D01*
X10104380Y-30980190D01*
X10104380Y-31075428D01*
X10056761Y-31170666D01*
X10009142Y-31218285D01*
X9913904Y-31265904D01*
X9723428Y-31313523D01*
X9485333Y-31313523D01*
X9294857Y-31265904D01*
X9199619Y-31218285D01*
X9152000Y-31170666D01*
X9104380Y-31075428D01*
%TO.C,C14*%
X8993142Y-46362857D02*
X9040761Y-46410476D01*
X9088380Y-46553333D01*
X9088380Y-46648571D01*
X9040761Y-46791428D01*
X8945523Y-46886666D01*
X8850285Y-46934285D01*
X8659809Y-46981904D01*
X8516952Y-46981904D01*
X8326476Y-46934285D01*
X8231238Y-46886666D01*
X8136000Y-46791428D01*
X8088380Y-46648571D01*
X8088380Y-46553333D01*
X8136000Y-46410476D01*
X8183619Y-46362857D01*
X9088380Y-45410476D02*
X9088380Y-45981904D01*
X9088380Y-45696190D02*
X8088380Y-45696190D01*
X8231238Y-45791428D01*
X8326476Y-45886666D01*
X8374095Y-45981904D01*
X8421714Y-44553333D02*
X9088380Y-44553333D01*
X8040761Y-44791428D02*
X8755047Y-45029523D01*
X8755047Y-44410476D01*
%TO.C,R39*%
X3817380Y-63634857D02*
X3341190Y-63968190D01*
X3817380Y-64206285D02*
X2817380Y-64206285D01*
X2817380Y-63825333D01*
X2865000Y-63730095D01*
X2912619Y-63682476D01*
X3007857Y-63634857D01*
X3150714Y-63634857D01*
X3245952Y-63682476D01*
X3293571Y-63730095D01*
X3341190Y-63825333D01*
X3341190Y-64206285D01*
X2817380Y-63301523D02*
X2817380Y-62682476D01*
X3198333Y-63015809D01*
X3198333Y-62872952D01*
X3245952Y-62777714D01*
X3293571Y-62730095D01*
X3388809Y-62682476D01*
X3626904Y-62682476D01*
X3722142Y-62730095D01*
X3769761Y-62777714D01*
X3817380Y-62872952D01*
X3817380Y-63158666D01*
X3769761Y-63253904D01*
X3722142Y-63301523D01*
X3817380Y-62206285D02*
X3817380Y-62015809D01*
X3769761Y-61920571D01*
X3722142Y-61872952D01*
X3579285Y-61777714D01*
X3388809Y-61730095D01*
X3007857Y-61730095D01*
X2912619Y-61777714D01*
X2865000Y-61825333D01*
X2817380Y-61920571D01*
X2817380Y-62111047D01*
X2865000Y-62206285D01*
X2912619Y-62253904D01*
X3007857Y-62301523D01*
X3245952Y-62301523D01*
X3341190Y-62253904D01*
X3388809Y-62206285D01*
X3436428Y-62111047D01*
X3436428Y-61920571D01*
X3388809Y-61825333D01*
X3341190Y-61777714D01*
X3245952Y-61730095D01*
%TO.C,U5*%
X976380Y-35305904D02*
X1785904Y-35305904D01*
X1881142Y-35258285D01*
X1928761Y-35210666D01*
X1976380Y-35115428D01*
X1976380Y-34924952D01*
X1928761Y-34829714D01*
X1881142Y-34782095D01*
X1785904Y-34734476D01*
X976380Y-34734476D01*
X976380Y-33782095D02*
X976380Y-34258285D01*
X1452571Y-34305904D01*
X1404952Y-34258285D01*
X1357333Y-34163047D01*
X1357333Y-33924952D01*
X1404952Y-33829714D01*
X1452571Y-33782095D01*
X1547809Y-33734476D01*
X1785904Y-33734476D01*
X1881142Y-33782095D01*
X1928761Y-33829714D01*
X1976380Y-33924952D01*
X1976380Y-34163047D01*
X1928761Y-34258285D01*
X1881142Y-34305904D01*
%TO.C,R5*%
X27773333Y-46172380D02*
X27440000Y-45696190D01*
X27201904Y-46172380D02*
X27201904Y-45172380D01*
X27582857Y-45172380D01*
X27678095Y-45220000D01*
X27725714Y-45267619D01*
X27773333Y-45362857D01*
X27773333Y-45505714D01*
X27725714Y-45600952D01*
X27678095Y-45648571D01*
X27582857Y-45696190D01*
X27201904Y-45696190D01*
X28678095Y-45172380D02*
X28201904Y-45172380D01*
X28154285Y-45648571D01*
X28201904Y-45600952D01*
X28297142Y-45553333D01*
X28535238Y-45553333D01*
X28630476Y-45600952D01*
X28678095Y-45648571D01*
X28725714Y-45743809D01*
X28725714Y-45981904D01*
X28678095Y-46077142D01*
X28630476Y-46124761D01*
X28535238Y-46172380D01*
X28297142Y-46172380D01*
X28201904Y-46124761D01*
X28154285Y-46077142D01*
%TO.C,R1*%
X11628380Y-64174666D02*
X11152190Y-64508000D01*
X11628380Y-64746095D02*
X10628380Y-64746095D01*
X10628380Y-64365142D01*
X10676000Y-64269904D01*
X10723619Y-64222285D01*
X10818857Y-64174666D01*
X10961714Y-64174666D01*
X11056952Y-64222285D01*
X11104571Y-64269904D01*
X11152190Y-64365142D01*
X11152190Y-64746095D01*
X11628380Y-63222285D02*
X11628380Y-63793714D01*
X11628380Y-63508000D02*
X10628380Y-63508000D01*
X10771238Y-63603238D01*
X10866476Y-63698476D01*
X10914095Y-63793714D01*
%TO.C,C10*%
X10771142Y-60840857D02*
X10818761Y-60888476D01*
X10866380Y-61031333D01*
X10866380Y-61126571D01*
X10818761Y-61269428D01*
X10723523Y-61364666D01*
X10628285Y-61412285D01*
X10437809Y-61459904D01*
X10294952Y-61459904D01*
X10104476Y-61412285D01*
X10009238Y-61364666D01*
X9914000Y-61269428D01*
X9866380Y-61126571D01*
X9866380Y-61031333D01*
X9914000Y-60888476D01*
X9961619Y-60840857D01*
X10866380Y-59888476D02*
X10866380Y-60459904D01*
X10866380Y-60174190D02*
X9866380Y-60174190D01*
X10009238Y-60269428D01*
X10104476Y-60364666D01*
X10152095Y-60459904D01*
X9866380Y-59269428D02*
X9866380Y-59174190D01*
X9914000Y-59078952D01*
X9961619Y-59031333D01*
X10056857Y-58983714D01*
X10247333Y-58936095D01*
X10485428Y-58936095D01*
X10675904Y-58983714D01*
X10771142Y-59031333D01*
X10818761Y-59078952D01*
X10866380Y-59174190D01*
X10866380Y-59269428D01*
X10818761Y-59364666D01*
X10771142Y-59412285D01*
X10675904Y-59459904D01*
X10485428Y-59507523D01*
X10247333Y-59507523D01*
X10056857Y-59459904D01*
X9961619Y-59412285D01*
X9914000Y-59364666D01*
X9866380Y-59269428D01*
%TO.C,R3*%
X14057333Y-52014380D02*
X13724000Y-51538190D01*
X13485904Y-52014380D02*
X13485904Y-51014380D01*
X13866857Y-51014380D01*
X13962095Y-51062000D01*
X14009714Y-51109619D01*
X14057333Y-51204857D01*
X14057333Y-51347714D01*
X14009714Y-51442952D01*
X13962095Y-51490571D01*
X13866857Y-51538190D01*
X13485904Y-51538190D01*
X14390666Y-51014380D02*
X15009714Y-51014380D01*
X14676380Y-51395333D01*
X14819238Y-51395333D01*
X14914476Y-51442952D01*
X14962095Y-51490571D01*
X15009714Y-51585809D01*
X15009714Y-51823904D01*
X14962095Y-51919142D01*
X14914476Y-51966761D01*
X14819238Y-52014380D01*
X14533523Y-52014380D01*
X14438285Y-51966761D01*
X14390666Y-51919142D01*
%TO.C,R11*%
X20264380Y-42806857D02*
X19788190Y-43140190D01*
X20264380Y-43378285D02*
X19264380Y-43378285D01*
X19264380Y-42997333D01*
X19312000Y-42902095D01*
X19359619Y-42854476D01*
X19454857Y-42806857D01*
X19597714Y-42806857D01*
X19692952Y-42854476D01*
X19740571Y-42902095D01*
X19788190Y-42997333D01*
X19788190Y-43378285D01*
X20264380Y-41854476D02*
X20264380Y-42425904D01*
X20264380Y-42140190D02*
X19264380Y-42140190D01*
X19407238Y-42235428D01*
X19502476Y-42330666D01*
X19550095Y-42425904D01*
X20264380Y-40902095D02*
X20264380Y-41473523D01*
X20264380Y-41187809D02*
X19264380Y-41187809D01*
X19407238Y-41283047D01*
X19502476Y-41378285D01*
X19550095Y-41473523D01*
%TO.C,R43*%
X21280380Y-80398857D02*
X20804190Y-80732190D01*
X21280380Y-80970285D02*
X20280380Y-80970285D01*
X20280380Y-80589333D01*
X20328000Y-80494095D01*
X20375619Y-80446476D01*
X20470857Y-80398857D01*
X20613714Y-80398857D01*
X20708952Y-80446476D01*
X20756571Y-80494095D01*
X20804190Y-80589333D01*
X20804190Y-80970285D01*
X20613714Y-79541714D02*
X21280380Y-79541714D01*
X20232761Y-79779809D02*
X20947047Y-80017904D01*
X20947047Y-79398857D01*
X20280380Y-79113142D02*
X20280380Y-78494095D01*
X20661333Y-78827428D01*
X20661333Y-78684571D01*
X20708952Y-78589333D01*
X20756571Y-78541714D01*
X20851809Y-78494095D01*
X21089904Y-78494095D01*
X21185142Y-78541714D01*
X21232761Y-78589333D01*
X21280380Y-78684571D01*
X21280380Y-78970285D01*
X21232761Y-79065523D01*
X21185142Y-79113142D01*
%TO.C,R48*%
X23820380Y-63126857D02*
X23344190Y-63460190D01*
X23820380Y-63698285D02*
X22820380Y-63698285D01*
X22820380Y-63317333D01*
X22868000Y-63222095D01*
X22915619Y-63174476D01*
X23010857Y-63126857D01*
X23153714Y-63126857D01*
X23248952Y-63174476D01*
X23296571Y-63222095D01*
X23344190Y-63317333D01*
X23344190Y-63698285D01*
X23153714Y-62269714D02*
X23820380Y-62269714D01*
X22772761Y-62507809D02*
X23487047Y-62745904D01*
X23487047Y-62126857D01*
X23248952Y-61603047D02*
X23201333Y-61698285D01*
X23153714Y-61745904D01*
X23058476Y-61793523D01*
X23010857Y-61793523D01*
X22915619Y-61745904D01*
X22868000Y-61698285D01*
X22820380Y-61603047D01*
X22820380Y-61412571D01*
X22868000Y-61317333D01*
X22915619Y-61269714D01*
X23010857Y-61222095D01*
X23058476Y-61222095D01*
X23153714Y-61269714D01*
X23201333Y-61317333D01*
X23248952Y-61412571D01*
X23248952Y-61603047D01*
X23296571Y-61698285D01*
X23344190Y-61745904D01*
X23439428Y-61793523D01*
X23629904Y-61793523D01*
X23725142Y-61745904D01*
X23772761Y-61698285D01*
X23820380Y-61603047D01*
X23820380Y-61412571D01*
X23772761Y-61317333D01*
X23725142Y-61269714D01*
X23629904Y-61222095D01*
X23439428Y-61222095D01*
X23344190Y-61269714D01*
X23296571Y-61317333D01*
X23248952Y-61412571D01*
%TO.C,U3*%
X5842095Y-58126380D02*
X5842095Y-58935904D01*
X5889714Y-59031142D01*
X5937333Y-59078761D01*
X6032571Y-59126380D01*
X6223047Y-59126380D01*
X6318285Y-59078761D01*
X6365904Y-59031142D01*
X6413523Y-58935904D01*
X6413523Y-58126380D01*
X6794476Y-58126380D02*
X7413523Y-58126380D01*
X7080190Y-58507333D01*
X7223047Y-58507333D01*
X7318285Y-58554952D01*
X7365904Y-58602571D01*
X7413523Y-58697809D01*
X7413523Y-58935904D01*
X7365904Y-59031142D01*
X7318285Y-59078761D01*
X7223047Y-59126380D01*
X6937333Y-59126380D01*
X6842095Y-59078761D01*
X6794476Y-59031142D01*
%TO.C,C16*%
X9469142Y-81414857D02*
X9516761Y-81462476D01*
X9564380Y-81605333D01*
X9564380Y-81700571D01*
X9516761Y-81843428D01*
X9421523Y-81938666D01*
X9326285Y-81986285D01*
X9135809Y-82033904D01*
X8992952Y-82033904D01*
X8802476Y-81986285D01*
X8707238Y-81938666D01*
X8612000Y-81843428D01*
X8564380Y-81700571D01*
X8564380Y-81605333D01*
X8612000Y-81462476D01*
X8659619Y-81414857D01*
X9564380Y-80462476D02*
X9564380Y-81033904D01*
X9564380Y-80748190D02*
X8564380Y-80748190D01*
X8707238Y-80843428D01*
X8802476Y-80938666D01*
X8850095Y-81033904D01*
X8564380Y-79605333D02*
X8564380Y-79795809D01*
X8612000Y-79891047D01*
X8659619Y-79938666D01*
X8802476Y-80033904D01*
X8992952Y-80081523D01*
X9373904Y-80081523D01*
X9469142Y-80033904D01*
X9516761Y-79986285D01*
X9564380Y-79891047D01*
X9564380Y-79700571D01*
X9516761Y-79605333D01*
X9469142Y-79557714D01*
X9373904Y-79510095D01*
X9135809Y-79510095D01*
X9040571Y-79557714D01*
X8992952Y-79605333D01*
X8945333Y-79700571D01*
X8945333Y-79891047D01*
X8992952Y-79986285D01*
X9040571Y-80033904D01*
X9135809Y-80081523D01*
%TO.C,R27*%
X4516380Y-29090857D02*
X4040190Y-29424190D01*
X4516380Y-29662285D02*
X3516380Y-29662285D01*
X3516380Y-29281333D01*
X3564000Y-29186095D01*
X3611619Y-29138476D01*
X3706857Y-29090857D01*
X3849714Y-29090857D01*
X3944952Y-29138476D01*
X3992571Y-29186095D01*
X4040190Y-29281333D01*
X4040190Y-29662285D01*
X3611619Y-28709904D02*
X3564000Y-28662285D01*
X3516380Y-28567047D01*
X3516380Y-28328952D01*
X3564000Y-28233714D01*
X3611619Y-28186095D01*
X3706857Y-28138476D01*
X3802095Y-28138476D01*
X3944952Y-28186095D01*
X4516380Y-28757523D01*
X4516380Y-28138476D01*
X3516380Y-27805142D02*
X3516380Y-27138476D01*
X4516380Y-27567047D01*
%TO.C,R25*%
X7056380Y-46362857D02*
X6580190Y-46696190D01*
X7056380Y-46934285D02*
X6056380Y-46934285D01*
X6056380Y-46553333D01*
X6104000Y-46458095D01*
X6151619Y-46410476D01*
X6246857Y-46362857D01*
X6389714Y-46362857D01*
X6484952Y-46410476D01*
X6532571Y-46458095D01*
X6580190Y-46553333D01*
X6580190Y-46934285D01*
X6151619Y-45981904D02*
X6104000Y-45934285D01*
X6056380Y-45839047D01*
X6056380Y-45600952D01*
X6104000Y-45505714D01*
X6151619Y-45458095D01*
X6246857Y-45410476D01*
X6342095Y-45410476D01*
X6484952Y-45458095D01*
X7056380Y-46029523D01*
X7056380Y-45410476D01*
X6056380Y-44505714D02*
X6056380Y-44981904D01*
X6532571Y-45029523D01*
X6484952Y-44981904D01*
X6437333Y-44886666D01*
X6437333Y-44648571D01*
X6484952Y-44553333D01*
X6532571Y-44505714D01*
X6627809Y-44458095D01*
X6865904Y-44458095D01*
X6961142Y-44505714D01*
X7008761Y-44553333D01*
X7056380Y-44648571D01*
X7056380Y-44886666D01*
X7008761Y-44981904D01*
X6961142Y-45029523D01*
%TO.C,J4*%
X19418666Y-13880380D02*
X19418666Y-14594666D01*
X19371047Y-14737523D01*
X19275809Y-14832761D01*
X19132952Y-14880380D01*
X19037714Y-14880380D01*
X20323428Y-14213714D02*
X20323428Y-14880380D01*
X20085333Y-13832761D02*
X19847238Y-14547047D01*
X20466285Y-14547047D01*
%TO.C,J11*%
X18942476Y-95668380D02*
X18942476Y-96382666D01*
X18894857Y-96525523D01*
X18799619Y-96620761D01*
X18656761Y-96668380D01*
X18561523Y-96668380D01*
X19942476Y-96668380D02*
X19371047Y-96668380D01*
X19656761Y-96668380D02*
X19656761Y-95668380D01*
X19561523Y-95811238D01*
X19466285Y-95906476D01*
X19371047Y-95954095D01*
X20894857Y-96668380D02*
X20323428Y-96668380D01*
X20609142Y-96668380D02*
X20609142Y-95668380D01*
X20513904Y-95811238D01*
X20418666Y-95906476D01*
X20323428Y-95954095D01*
%TO.C,R33*%
X1976380Y-80906857D02*
X1500190Y-81240190D01*
X1976380Y-81478285D02*
X976380Y-81478285D01*
X976380Y-81097333D01*
X1024000Y-81002095D01*
X1071619Y-80954476D01*
X1166857Y-80906857D01*
X1309714Y-80906857D01*
X1404952Y-80954476D01*
X1452571Y-81002095D01*
X1500190Y-81097333D01*
X1500190Y-81478285D01*
X976380Y-80573523D02*
X976380Y-79954476D01*
X1357333Y-80287809D01*
X1357333Y-80144952D01*
X1404952Y-80049714D01*
X1452571Y-80002095D01*
X1547809Y-79954476D01*
X1785904Y-79954476D01*
X1881142Y-80002095D01*
X1928761Y-80049714D01*
X1976380Y-80144952D01*
X1976380Y-80430666D01*
X1928761Y-80525904D01*
X1881142Y-80573523D01*
X976380Y-79621142D02*
X976380Y-79002095D01*
X1357333Y-79335428D01*
X1357333Y-79192571D01*
X1404952Y-79097333D01*
X1452571Y-79049714D01*
X1547809Y-79002095D01*
X1785904Y-79002095D01*
X1881142Y-79049714D01*
X1928761Y-79097333D01*
X1976380Y-79192571D01*
X1976380Y-79478285D01*
X1928761Y-79573523D01*
X1881142Y-79621142D01*
%TO.C,J9*%
X4178666Y-95668380D02*
X4178666Y-96382666D01*
X4131047Y-96525523D01*
X4035809Y-96620761D01*
X3892952Y-96668380D01*
X3797714Y-96668380D01*
X4702476Y-96668380D02*
X4892952Y-96668380D01*
X4988190Y-96620761D01*
X5035809Y-96573142D01*
X5131047Y-96430285D01*
X5178666Y-96239809D01*
X5178666Y-95858857D01*
X5131047Y-95763619D01*
X5083428Y-95716000D01*
X4988190Y-95668380D01*
X4797714Y-95668380D01*
X4702476Y-95716000D01*
X4654857Y-95763619D01*
X4607238Y-95858857D01*
X4607238Y-96096952D01*
X4654857Y-96192190D01*
X4702476Y-96239809D01*
X4797714Y-96287428D01*
X4988190Y-96287428D01*
X5083428Y-96239809D01*
X5131047Y-96192190D01*
X5178666Y-96096952D01*
%TO.C,R2*%
X11628380Y-72810666D02*
X11152190Y-73144000D01*
X11628380Y-73382095D02*
X10628380Y-73382095D01*
X10628380Y-73001142D01*
X10676000Y-72905904D01*
X10723619Y-72858285D01*
X10818857Y-72810666D01*
X10961714Y-72810666D01*
X11056952Y-72858285D01*
X11104571Y-72905904D01*
X11152190Y-73001142D01*
X11152190Y-73382095D01*
X10723619Y-72429714D02*
X10676000Y-72382095D01*
X10628380Y-72286857D01*
X10628380Y-72048761D01*
X10676000Y-71953523D01*
X10723619Y-71905904D01*
X10818857Y-71858285D01*
X10914095Y-71858285D01*
X11056952Y-71905904D01*
X11628380Y-72477333D01*
X11628380Y-71858285D01*
%TO.C,R49*%
X25852380Y-63126857D02*
X25376190Y-63460190D01*
X25852380Y-63698285D02*
X24852380Y-63698285D01*
X24852380Y-63317333D01*
X24900000Y-63222095D01*
X24947619Y-63174476D01*
X25042857Y-63126857D01*
X25185714Y-63126857D01*
X25280952Y-63174476D01*
X25328571Y-63222095D01*
X25376190Y-63317333D01*
X25376190Y-63698285D01*
X25185714Y-62269714D02*
X25852380Y-62269714D01*
X24804761Y-62507809D02*
X25519047Y-62745904D01*
X25519047Y-62126857D01*
X25852380Y-61698285D02*
X25852380Y-61507809D01*
X25804761Y-61412571D01*
X25757142Y-61364952D01*
X25614285Y-61269714D01*
X25423809Y-61222095D01*
X25042857Y-61222095D01*
X24947619Y-61269714D01*
X24900000Y-61317333D01*
X24852380Y-61412571D01*
X24852380Y-61603047D01*
X24900000Y-61698285D01*
X24947619Y-61745904D01*
X25042857Y-61793523D01*
X25280952Y-61793523D01*
X25376190Y-61745904D01*
X25423809Y-61698285D01*
X25471428Y-61603047D01*
X25471428Y-61412571D01*
X25423809Y-61317333D01*
X25376190Y-61269714D01*
X25280952Y-61222095D01*
%TO.C,R26*%
X8580380Y-29090857D02*
X8104190Y-29424190D01*
X8580380Y-29662285D02*
X7580380Y-29662285D01*
X7580380Y-29281333D01*
X7628000Y-29186095D01*
X7675619Y-29138476D01*
X7770857Y-29090857D01*
X7913714Y-29090857D01*
X8008952Y-29138476D01*
X8056571Y-29186095D01*
X8104190Y-29281333D01*
X8104190Y-29662285D01*
X7675619Y-28709904D02*
X7628000Y-28662285D01*
X7580380Y-28567047D01*
X7580380Y-28328952D01*
X7628000Y-28233714D01*
X7675619Y-28186095D01*
X7770857Y-28138476D01*
X7866095Y-28138476D01*
X8008952Y-28186095D01*
X8580380Y-28757523D01*
X8580380Y-28138476D01*
X7580380Y-27281333D02*
X7580380Y-27471809D01*
X7628000Y-27567047D01*
X7675619Y-27614666D01*
X7818476Y-27709904D01*
X8008952Y-27757523D01*
X8389904Y-27757523D01*
X8485142Y-27709904D01*
X8532761Y-27662285D01*
X8580380Y-27567047D01*
X8580380Y-27376571D01*
X8532761Y-27281333D01*
X8485142Y-27233714D01*
X8389904Y-27186095D01*
X8151809Y-27186095D01*
X8056571Y-27233714D01*
X8008952Y-27281333D01*
X7961333Y-27376571D01*
X7961333Y-27567047D01*
X8008952Y-27662285D01*
X8056571Y-27709904D01*
X8151809Y-27757523D01*
%TO.C,R22*%
X2992380Y-46362857D02*
X2516190Y-46696190D01*
X2992380Y-46934285D02*
X1992380Y-46934285D01*
X1992380Y-46553333D01*
X2040000Y-46458095D01*
X2087619Y-46410476D01*
X2182857Y-46362857D01*
X2325714Y-46362857D01*
X2420952Y-46410476D01*
X2468571Y-46458095D01*
X2516190Y-46553333D01*
X2516190Y-46934285D01*
X2087619Y-45981904D02*
X2040000Y-45934285D01*
X1992380Y-45839047D01*
X1992380Y-45600952D01*
X2040000Y-45505714D01*
X2087619Y-45458095D01*
X2182857Y-45410476D01*
X2278095Y-45410476D01*
X2420952Y-45458095D01*
X2992380Y-46029523D01*
X2992380Y-45410476D01*
X2087619Y-45029523D02*
X2040000Y-44981904D01*
X1992380Y-44886666D01*
X1992380Y-44648571D01*
X2040000Y-44553333D01*
X2087619Y-44505714D01*
X2182857Y-44458095D01*
X2278095Y-44458095D01*
X2420952Y-44505714D01*
X2992380Y-45077142D01*
X2992380Y-44458095D01*
%TO.C,R44*%
X19629380Y-71127857D02*
X19153190Y-71461190D01*
X19629380Y-71699285D02*
X18629380Y-71699285D01*
X18629380Y-71318333D01*
X18677000Y-71223095D01*
X18724619Y-71175476D01*
X18819857Y-71127857D01*
X18962714Y-71127857D01*
X19057952Y-71175476D01*
X19105571Y-71223095D01*
X19153190Y-71318333D01*
X19153190Y-71699285D01*
X18962714Y-70270714D02*
X19629380Y-70270714D01*
X18581761Y-70508809D02*
X19296047Y-70746904D01*
X19296047Y-70127857D01*
X18962714Y-69318333D02*
X19629380Y-69318333D01*
X18581761Y-69556428D02*
X19296047Y-69794523D01*
X19296047Y-69175476D01*
%TO.C,R7*%
X27773333Y-54300380D02*
X27440000Y-53824190D01*
X27201904Y-54300380D02*
X27201904Y-53300380D01*
X27582857Y-53300380D01*
X27678095Y-53348000D01*
X27725714Y-53395619D01*
X27773333Y-53490857D01*
X27773333Y-53633714D01*
X27725714Y-53728952D01*
X27678095Y-53776571D01*
X27582857Y-53824190D01*
X27201904Y-53824190D01*
X28106666Y-53300380D02*
X28773333Y-53300380D01*
X28344761Y-54300380D01*
%TO.C,C11*%
X20169142Y-62110857D02*
X20216761Y-62158476D01*
X20264380Y-62301333D01*
X20264380Y-62396571D01*
X20216761Y-62539428D01*
X20121523Y-62634666D01*
X20026285Y-62682285D01*
X19835809Y-62729904D01*
X19692952Y-62729904D01*
X19502476Y-62682285D01*
X19407238Y-62634666D01*
X19312000Y-62539428D01*
X19264380Y-62396571D01*
X19264380Y-62301333D01*
X19312000Y-62158476D01*
X19359619Y-62110857D01*
X20264380Y-61158476D02*
X20264380Y-61729904D01*
X20264380Y-61444190D02*
X19264380Y-61444190D01*
X19407238Y-61539428D01*
X19502476Y-61634666D01*
X19550095Y-61729904D01*
X20264380Y-60206095D02*
X20264380Y-60777523D01*
X20264380Y-60491809D02*
X19264380Y-60491809D01*
X19407238Y-60587047D01*
X19502476Y-60682285D01*
X19550095Y-60777523D01*
%TO.C,R18*%
X25852380Y-29090857D02*
X25376190Y-29424190D01*
X25852380Y-29662285D02*
X24852380Y-29662285D01*
X24852380Y-29281333D01*
X24900000Y-29186095D01*
X24947619Y-29138476D01*
X25042857Y-29090857D01*
X25185714Y-29090857D01*
X25280952Y-29138476D01*
X25328571Y-29186095D01*
X25376190Y-29281333D01*
X25376190Y-29662285D01*
X25852380Y-28138476D02*
X25852380Y-28709904D01*
X25852380Y-28424190D02*
X24852380Y-28424190D01*
X24995238Y-28519428D01*
X25090476Y-28614666D01*
X25138095Y-28709904D01*
X25280952Y-27567047D02*
X25233333Y-27662285D01*
X25185714Y-27709904D01*
X25090476Y-27757523D01*
X25042857Y-27757523D01*
X24947619Y-27709904D01*
X24900000Y-27662285D01*
X24852380Y-27567047D01*
X24852380Y-27376571D01*
X24900000Y-27281333D01*
X24947619Y-27233714D01*
X25042857Y-27186095D01*
X25090476Y-27186095D01*
X25185714Y-27233714D01*
X25233333Y-27281333D01*
X25280952Y-27376571D01*
X25280952Y-27567047D01*
X25328571Y-27662285D01*
X25376190Y-27709904D01*
X25471428Y-27757523D01*
X25661904Y-27757523D01*
X25757142Y-27709904D01*
X25804761Y-27662285D01*
X25852380Y-27567047D01*
X25852380Y-27376571D01*
X25804761Y-27281333D01*
X25757142Y-27233714D01*
X25661904Y-27186095D01*
X25471428Y-27186095D01*
X25376190Y-27233714D01*
X25328571Y-27281333D01*
X25280952Y-27376571D01*
%TO.C,R23*%
X5024380Y-46362857D02*
X4548190Y-46696190D01*
X5024380Y-46934285D02*
X4024380Y-46934285D01*
X4024380Y-46553333D01*
X4072000Y-46458095D01*
X4119619Y-46410476D01*
X4214857Y-46362857D01*
X4357714Y-46362857D01*
X4452952Y-46410476D01*
X4500571Y-46458095D01*
X4548190Y-46553333D01*
X4548190Y-46934285D01*
X4119619Y-45981904D02*
X4072000Y-45934285D01*
X4024380Y-45839047D01*
X4024380Y-45600952D01*
X4072000Y-45505714D01*
X4119619Y-45458095D01*
X4214857Y-45410476D01*
X4310095Y-45410476D01*
X4452952Y-45458095D01*
X5024380Y-46029523D01*
X5024380Y-45410476D01*
X4024380Y-45077142D02*
X4024380Y-44458095D01*
X4405333Y-44791428D01*
X4405333Y-44648571D01*
X4452952Y-44553333D01*
X4500571Y-44505714D01*
X4595809Y-44458095D01*
X4833904Y-44458095D01*
X4929142Y-44505714D01*
X4976761Y-44553333D01*
X5024380Y-44648571D01*
X5024380Y-44934285D01*
X4976761Y-45029523D01*
X4929142Y-45077142D01*
%TO.C,U4*%
X20436380Y-36829904D02*
X21245904Y-36829904D01*
X21341142Y-36782285D01*
X21388761Y-36734666D01*
X21436380Y-36639428D01*
X21436380Y-36448952D01*
X21388761Y-36353714D01*
X21341142Y-36306095D01*
X21245904Y-36258476D01*
X20436380Y-36258476D01*
X20769714Y-35353714D02*
X21436380Y-35353714D01*
X20388761Y-35591809D02*
X21103047Y-35829904D01*
X21103047Y-35210857D01*
%TO.C,R4*%
X27773333Y-49220380D02*
X27440000Y-48744190D01*
X27201904Y-49220380D02*
X27201904Y-48220380D01*
X27582857Y-48220380D01*
X27678095Y-48268000D01*
X27725714Y-48315619D01*
X27773333Y-48410857D01*
X27773333Y-48553714D01*
X27725714Y-48648952D01*
X27678095Y-48696571D01*
X27582857Y-48744190D01*
X27201904Y-48744190D01*
X28630476Y-48553714D02*
X28630476Y-49220380D01*
X28392380Y-48172761D02*
X28154285Y-48887047D01*
X28773333Y-48887047D01*
%TO.C,C13*%
X10025142Y-47093142D02*
X9977523Y-47140761D01*
X9834666Y-47188380D01*
X9739428Y-47188380D01*
X9596571Y-47140761D01*
X9501333Y-47045523D01*
X9453714Y-46950285D01*
X9406095Y-46759809D01*
X9406095Y-46616952D01*
X9453714Y-46426476D01*
X9501333Y-46331238D01*
X9596571Y-46236000D01*
X9739428Y-46188380D01*
X9834666Y-46188380D01*
X9977523Y-46236000D01*
X10025142Y-46283619D01*
X10977523Y-47188380D02*
X10406095Y-47188380D01*
X10691809Y-47188380D02*
X10691809Y-46188380D01*
X10596571Y-46331238D01*
X10501333Y-46426476D01*
X10406095Y-46474095D01*
X11310857Y-46188380D02*
X11929904Y-46188380D01*
X11596571Y-46569333D01*
X11739428Y-46569333D01*
X11834666Y-46616952D01*
X11882285Y-46664571D01*
X11929904Y-46759809D01*
X11929904Y-46997904D01*
X11882285Y-47093142D01*
X11834666Y-47140761D01*
X11739428Y-47188380D01*
X11453714Y-47188380D01*
X11358476Y-47140761D01*
X11310857Y-47093142D01*
%TO.C,R37*%
X7881380Y-63634857D02*
X7405190Y-63968190D01*
X7881380Y-64206285D02*
X6881380Y-64206285D01*
X6881380Y-63825333D01*
X6929000Y-63730095D01*
X6976619Y-63682476D01*
X7071857Y-63634857D01*
X7214714Y-63634857D01*
X7309952Y-63682476D01*
X7357571Y-63730095D01*
X7405190Y-63825333D01*
X7405190Y-64206285D01*
X6881380Y-63301523D02*
X6881380Y-62682476D01*
X7262333Y-63015809D01*
X7262333Y-62872952D01*
X7309952Y-62777714D01*
X7357571Y-62730095D01*
X7452809Y-62682476D01*
X7690904Y-62682476D01*
X7786142Y-62730095D01*
X7833761Y-62777714D01*
X7881380Y-62872952D01*
X7881380Y-63158666D01*
X7833761Y-63253904D01*
X7786142Y-63301523D01*
X6881380Y-62349142D02*
X6881380Y-61682476D01*
X7881380Y-62111047D01*
%TO.C,C15*%
X11533142Y-81414857D02*
X11580761Y-81462476D01*
X11628380Y-81605333D01*
X11628380Y-81700571D01*
X11580761Y-81843428D01*
X11485523Y-81938666D01*
X11390285Y-81986285D01*
X11199809Y-82033904D01*
X11056952Y-82033904D01*
X10866476Y-81986285D01*
X10771238Y-81938666D01*
X10676000Y-81843428D01*
X10628380Y-81700571D01*
X10628380Y-81605333D01*
X10676000Y-81462476D01*
X10723619Y-81414857D01*
X11628380Y-80462476D02*
X11628380Y-81033904D01*
X11628380Y-80748190D02*
X10628380Y-80748190D01*
X10771238Y-80843428D01*
X10866476Y-80938666D01*
X10914095Y-81033904D01*
X10628380Y-79557714D02*
X10628380Y-80033904D01*
X11104571Y-80081523D01*
X11056952Y-80033904D01*
X11009333Y-79938666D01*
X11009333Y-79700571D01*
X11056952Y-79605333D01*
X11104571Y-79557714D01*
X11199809Y-79510095D01*
X11437904Y-79510095D01*
X11533142Y-79557714D01*
X11580761Y-79605333D01*
X11628380Y-79700571D01*
X11628380Y-79938666D01*
X11580761Y-80033904D01*
X11533142Y-80081523D01*
%TO.C,C3*%
X14835142Y-63158666D02*
X14882761Y-63206285D01*
X14930380Y-63349142D01*
X14930380Y-63444380D01*
X14882761Y-63587238D01*
X14787523Y-63682476D01*
X14692285Y-63730095D01*
X14501809Y-63777714D01*
X14358952Y-63777714D01*
X14168476Y-63730095D01*
X14073238Y-63682476D01*
X13978000Y-63587238D01*
X13930380Y-63444380D01*
X13930380Y-63349142D01*
X13978000Y-63206285D01*
X14025619Y-63158666D01*
X13930380Y-62825333D02*
X13930380Y-62206285D01*
X14311333Y-62539619D01*
X14311333Y-62396761D01*
X14358952Y-62301523D01*
X14406571Y-62253904D01*
X14501809Y-62206285D01*
X14739904Y-62206285D01*
X14835142Y-62253904D01*
X14882761Y-62301523D01*
X14930380Y-62396761D01*
X14930380Y-62682476D01*
X14882761Y-62777714D01*
X14835142Y-62825333D01*
%TO.C,C6*%
X1992333Y-54332142D02*
X1944714Y-54379761D01*
X1801857Y-54427380D01*
X1706619Y-54427380D01*
X1563761Y-54379761D01*
X1468523Y-54284523D01*
X1420904Y-54189285D01*
X1373285Y-53998809D01*
X1373285Y-53855952D01*
X1420904Y-53665476D01*
X1468523Y-53570238D01*
X1563761Y-53475000D01*
X1706619Y-53427380D01*
X1801857Y-53427380D01*
X1944714Y-53475000D01*
X1992333Y-53522619D01*
X2849476Y-53427380D02*
X2659000Y-53427380D01*
X2563761Y-53475000D01*
X2516142Y-53522619D01*
X2420904Y-53665476D01*
X2373285Y-53855952D01*
X2373285Y-54236904D01*
X2420904Y-54332142D01*
X2468523Y-54379761D01*
X2563761Y-54427380D01*
X2754238Y-54427380D01*
X2849476Y-54379761D01*
X2897095Y-54332142D01*
X2944714Y-54236904D01*
X2944714Y-53998809D01*
X2897095Y-53903571D01*
X2849476Y-53855952D01*
X2754238Y-53808333D01*
X2563761Y-53808333D01*
X2468523Y-53855952D01*
X2420904Y-53903571D01*
X2373285Y-53998809D01*
%TO.C,C17*%
X19661142Y-37726857D02*
X19708761Y-37774476D01*
X19756380Y-37917333D01*
X19756380Y-38012571D01*
X19708761Y-38155428D01*
X19613523Y-38250666D01*
X19518285Y-38298285D01*
X19327809Y-38345904D01*
X19184952Y-38345904D01*
X18994476Y-38298285D01*
X18899238Y-38250666D01*
X18804000Y-38155428D01*
X18756380Y-38012571D01*
X18756380Y-37917333D01*
X18804000Y-37774476D01*
X18851619Y-37726857D01*
X19756380Y-36774476D02*
X19756380Y-37345904D01*
X19756380Y-37060190D02*
X18756380Y-37060190D01*
X18899238Y-37155428D01*
X18994476Y-37250666D01*
X19042095Y-37345904D01*
X18756380Y-36441142D02*
X18756380Y-35774476D01*
X19756380Y-36203047D01*
%TO.C,C5*%
X1373142Y-52490666D02*
X1420761Y-52538285D01*
X1468380Y-52681142D01*
X1468380Y-52776380D01*
X1420761Y-52919238D01*
X1325523Y-53014476D01*
X1230285Y-53062095D01*
X1039809Y-53109714D01*
X896952Y-53109714D01*
X706476Y-53062095D01*
X611238Y-53014476D01*
X515999Y-52919238D01*
X468380Y-52776380D01*
X468380Y-52681142D01*
X516000Y-52538285D01*
X563619Y-52490666D01*
X468380Y-51585904D02*
X468380Y-52062095D01*
X944571Y-52109714D01*
X896952Y-52062095D01*
X849333Y-51966857D01*
X849333Y-51728761D01*
X896952Y-51633523D01*
X944571Y-51585904D01*
X1039809Y-51538285D01*
X1277904Y-51538285D01*
X1373142Y-51585904D01*
X1420761Y-51633523D01*
X1468380Y-51728761D01*
X1468380Y-51966857D01*
X1420761Y-52062095D01*
X1373142Y-52109714D01*
%TO.C,R46*%
X29408380Y-76842857D02*
X28932190Y-77176190D01*
X29408380Y-77414285D02*
X28408380Y-77414285D01*
X28408380Y-77033333D01*
X28456000Y-76938095D01*
X28503619Y-76890476D01*
X28598857Y-76842857D01*
X28741714Y-76842857D01*
X28836952Y-76890476D01*
X28884571Y-76938095D01*
X28932190Y-77033333D01*
X28932190Y-77414285D01*
X28741714Y-75985714D02*
X29408380Y-75985714D01*
X28360761Y-76223809D02*
X29075047Y-76461904D01*
X29075047Y-75842857D01*
X28408380Y-75033333D02*
X28408380Y-75223809D01*
X28456000Y-75319047D01*
X28503619Y-75366666D01*
X28646476Y-75461904D01*
X28836952Y-75509523D01*
X29217904Y-75509523D01*
X29313142Y-75461904D01*
X29360761Y-75414285D01*
X29408380Y-75319047D01*
X29408380Y-75128571D01*
X29360761Y-75033333D01*
X29313142Y-74985714D01*
X29217904Y-74938095D01*
X28979809Y-74938095D01*
X28884571Y-74985714D01*
X28836952Y-75033333D01*
X28789333Y-75128571D01*
X28789333Y-75319047D01*
X28836952Y-75414285D01*
X28884571Y-75461904D01*
X28979809Y-75509523D01*
%TO.C,R10*%
X8072380Y-49156857D02*
X7596190Y-49490190D01*
X8072380Y-49728285D02*
X7072380Y-49728285D01*
X7072380Y-49347333D01*
X7120000Y-49252095D01*
X7167619Y-49204476D01*
X7262857Y-49156857D01*
X7405714Y-49156857D01*
X7500952Y-49204476D01*
X7548571Y-49252095D01*
X7596190Y-49347333D01*
X7596190Y-49728285D01*
X8072380Y-48204476D02*
X8072380Y-48775904D01*
X8072380Y-48490190D02*
X7072380Y-48490190D01*
X7215238Y-48585428D01*
X7310476Y-48680666D01*
X7358095Y-48775904D01*
X7072380Y-47585428D02*
X7072380Y-47490190D01*
X7120000Y-47394952D01*
X7167619Y-47347333D01*
X7262857Y-47299714D01*
X7453333Y-47252095D01*
X7691428Y-47252095D01*
X7881904Y-47299714D01*
X7977142Y-47347333D01*
X8024761Y-47394952D01*
X8072380Y-47490190D01*
X8072380Y-47585428D01*
X8024761Y-47680666D01*
X7977142Y-47728285D01*
X7881904Y-47775904D01*
X7691428Y-47823523D01*
X7453333Y-47823523D01*
X7262857Y-47775904D01*
X7167619Y-47728285D01*
X7120000Y-47680666D01*
X7072380Y-47585428D01*
%TO.C,R35*%
X6040380Y-80906857D02*
X5564190Y-81240190D01*
X6040380Y-81478285D02*
X5040380Y-81478285D01*
X5040380Y-81097333D01*
X5088000Y-81002095D01*
X5135619Y-80954476D01*
X5230857Y-80906857D01*
X5373714Y-80906857D01*
X5468952Y-80954476D01*
X5516571Y-81002095D01*
X5564190Y-81097333D01*
X5564190Y-81478285D01*
X5040380Y-80573523D02*
X5040380Y-79954476D01*
X5421333Y-80287809D01*
X5421333Y-80144952D01*
X5468952Y-80049714D01*
X5516571Y-80002095D01*
X5611809Y-79954476D01*
X5849904Y-79954476D01*
X5945142Y-80002095D01*
X5992761Y-80049714D01*
X6040380Y-80144952D01*
X6040380Y-80430666D01*
X5992761Y-80525904D01*
X5945142Y-80573523D01*
X5040380Y-79049714D02*
X5040380Y-79525904D01*
X5516571Y-79573523D01*
X5468952Y-79525904D01*
X5421333Y-79430666D01*
X5421333Y-79192571D01*
X5468952Y-79097333D01*
X5516571Y-79049714D01*
X5611809Y-79002095D01*
X5849904Y-79002095D01*
X5945142Y-79049714D01*
X5992761Y-79097333D01*
X6040380Y-79192571D01*
X6040380Y-79430666D01*
X5992761Y-79525904D01*
X5945142Y-79573523D01*
%TO.C,C18*%
X20169142Y-29598857D02*
X20216761Y-29646476D01*
X20264380Y-29789333D01*
X20264380Y-29884571D01*
X20216761Y-30027428D01*
X20121523Y-30122666D01*
X20026285Y-30170285D01*
X19835809Y-30217904D01*
X19692952Y-30217904D01*
X19502476Y-30170285D01*
X19407238Y-30122666D01*
X19312000Y-30027428D01*
X19264380Y-29884571D01*
X19264380Y-29789333D01*
X19312000Y-29646476D01*
X19359619Y-29598857D01*
X20264380Y-28646476D02*
X20264380Y-29217904D01*
X20264380Y-28932190D02*
X19264380Y-28932190D01*
X19407238Y-29027428D01*
X19502476Y-29122666D01*
X19550095Y-29217904D01*
X19692952Y-28075047D02*
X19645333Y-28170285D01*
X19597714Y-28217904D01*
X19502476Y-28265523D01*
X19454857Y-28265523D01*
X19359619Y-28217904D01*
X19312000Y-28170285D01*
X19264380Y-28075047D01*
X19264380Y-27884571D01*
X19312000Y-27789333D01*
X19359619Y-27741714D01*
X19454857Y-27694095D01*
X19502476Y-27694095D01*
X19597714Y-27741714D01*
X19645333Y-27789333D01*
X19692952Y-27884571D01*
X19692952Y-28075047D01*
X19740571Y-28170285D01*
X19788190Y-28217904D01*
X19883428Y-28265523D01*
X20073904Y-28265523D01*
X20169142Y-28217904D01*
X20216761Y-28170285D01*
X20264380Y-28075047D01*
X20264380Y-27884571D01*
X20216761Y-27789333D01*
X20169142Y-27741714D01*
X20073904Y-27694095D01*
X19883428Y-27694095D01*
X19788190Y-27741714D01*
X19740571Y-27789333D01*
X19692952Y-27884571D01*
%TO.C,R9*%
X12644380Y-49188666D02*
X12168190Y-49522000D01*
X12644380Y-49760095D02*
X11644380Y-49760095D01*
X11644380Y-49379142D01*
X11692000Y-49283904D01*
X11739619Y-49236285D01*
X11834857Y-49188666D01*
X11977714Y-49188666D01*
X12072952Y-49236285D01*
X12120571Y-49283904D01*
X12168190Y-49379142D01*
X12168190Y-49760095D01*
X12644380Y-48712476D02*
X12644380Y-48522000D01*
X12596761Y-48426761D01*
X12549142Y-48379142D01*
X12406285Y-48283904D01*
X12215809Y-48236285D01*
X11834857Y-48236285D01*
X11739619Y-48283904D01*
X11692000Y-48331523D01*
X11644380Y-48426761D01*
X11644380Y-48617238D01*
X11692000Y-48712476D01*
X11739619Y-48760095D01*
X11834857Y-48807714D01*
X12072952Y-48807714D01*
X12168190Y-48760095D01*
X12215809Y-48712476D01*
X12263428Y-48617238D01*
X12263428Y-48426761D01*
X12215809Y-48331523D01*
X12168190Y-48283904D01*
X12072952Y-48236285D01*
%TO.C,U7*%
X20026380Y-71500904D02*
X20835904Y-71500904D01*
X20931142Y-71453285D01*
X20978761Y-71405666D01*
X21026380Y-71310428D01*
X21026380Y-71119952D01*
X20978761Y-71024714D01*
X20931142Y-70977095D01*
X20835904Y-70929476D01*
X20026380Y-70929476D01*
X20026380Y-70548523D02*
X20026380Y-69881857D01*
X21026380Y-70310428D01*
%TO.C,R21*%
X11120380Y-39758857D02*
X10644190Y-40092190D01*
X11120380Y-40330285D02*
X10120380Y-40330285D01*
X10120380Y-39949333D01*
X10168000Y-39854095D01*
X10215619Y-39806476D01*
X10310857Y-39758857D01*
X10453714Y-39758857D01*
X10548952Y-39806476D01*
X10596571Y-39854095D01*
X10644190Y-39949333D01*
X10644190Y-40330285D01*
X10215619Y-39377904D02*
X10168000Y-39330285D01*
X10120380Y-39235047D01*
X10120380Y-38996952D01*
X10168000Y-38901714D01*
X10215619Y-38854095D01*
X10310857Y-38806476D01*
X10406095Y-38806476D01*
X10548952Y-38854095D01*
X11120380Y-39425523D01*
X11120380Y-38806476D01*
X11120380Y-37854095D02*
X11120380Y-38425523D01*
X11120380Y-38139809D02*
X10120380Y-38139809D01*
X10263238Y-38235047D01*
X10358476Y-38330285D01*
X10406095Y-38425523D01*
%TO.C,C12*%
X22201142Y-63126857D02*
X22248761Y-63174476D01*
X22296380Y-63317333D01*
X22296380Y-63412571D01*
X22248761Y-63555428D01*
X22153523Y-63650666D01*
X22058285Y-63698285D01*
X21867809Y-63745904D01*
X21724952Y-63745904D01*
X21534476Y-63698285D01*
X21439238Y-63650666D01*
X21344000Y-63555428D01*
X21296380Y-63412571D01*
X21296380Y-63317333D01*
X21344000Y-63174476D01*
X21391619Y-63126857D01*
X22296380Y-62174476D02*
X22296380Y-62745904D01*
X22296380Y-62460190D02*
X21296380Y-62460190D01*
X21439238Y-62555428D01*
X21534476Y-62650666D01*
X21582095Y-62745904D01*
X21391619Y-61793523D02*
X21344000Y-61745904D01*
X21296380Y-61650666D01*
X21296380Y-61412571D01*
X21344000Y-61317333D01*
X21391619Y-61269714D01*
X21486857Y-61222095D01*
X21582095Y-61222095D01*
X21724952Y-61269714D01*
X22296380Y-61841142D01*
X22296380Y-61222095D01*
%TO.C,R19*%
X21788380Y-29090857D02*
X21312190Y-29424190D01*
X21788380Y-29662285D02*
X20788380Y-29662285D01*
X20788380Y-29281333D01*
X20836000Y-29186095D01*
X20883619Y-29138476D01*
X20978857Y-29090857D01*
X21121714Y-29090857D01*
X21216952Y-29138476D01*
X21264571Y-29186095D01*
X21312190Y-29281333D01*
X21312190Y-29662285D01*
X21788380Y-28138476D02*
X21788380Y-28709904D01*
X21788380Y-28424190D02*
X20788380Y-28424190D01*
X20931238Y-28519428D01*
X21026476Y-28614666D01*
X21074095Y-28709904D01*
X21788380Y-27662285D02*
X21788380Y-27471809D01*
X21740761Y-27376571D01*
X21693142Y-27328952D01*
X21550285Y-27233714D01*
X21359809Y-27186095D01*
X20978857Y-27186095D01*
X20883619Y-27233714D01*
X20836000Y-27281333D01*
X20788380Y-27376571D01*
X20788380Y-27567047D01*
X20836000Y-27662285D01*
X20883619Y-27709904D01*
X20978857Y-27757523D01*
X21216952Y-27757523D01*
X21312190Y-27709904D01*
X21359809Y-27662285D01*
X21407428Y-27567047D01*
X21407428Y-27376571D01*
X21359809Y-27281333D01*
X21312190Y-27233714D01*
X21216952Y-27186095D01*
%TO.C,J10*%
X18942476Y-81952380D02*
X18942476Y-82666666D01*
X18894857Y-82809523D01*
X18799619Y-82904761D01*
X18656761Y-82952380D01*
X18561523Y-82952380D01*
X19942476Y-82952380D02*
X19371047Y-82952380D01*
X19656761Y-82952380D02*
X19656761Y-81952380D01*
X19561523Y-82095238D01*
X19466285Y-82190476D01*
X19371047Y-82238095D01*
X20561523Y-81952380D02*
X20656761Y-81952380D01*
X20752000Y-82000000D01*
X20799619Y-82047619D01*
X20847238Y-82142857D01*
X20894857Y-82333333D01*
X20894857Y-82571428D01*
X20847238Y-82761904D01*
X20799619Y-82857142D01*
X20752000Y-82904761D01*
X20656761Y-82952380D01*
X20561523Y-82952380D01*
X20466285Y-82904761D01*
X20418666Y-82857142D01*
X20371047Y-82761904D01*
X20323428Y-82571428D01*
X20323428Y-82333333D01*
X20371047Y-82142857D01*
X20418666Y-82047619D01*
X20466285Y-82000000D01*
X20561523Y-81952380D01*
%TO.C,R15*%
X25852380Y-46553857D02*
X25376190Y-46887190D01*
X25852380Y-47125285D02*
X24852380Y-47125285D01*
X24852380Y-46744333D01*
X24900000Y-46649095D01*
X24947619Y-46601476D01*
X25042857Y-46553857D01*
X25185714Y-46553857D01*
X25280952Y-46601476D01*
X25328571Y-46649095D01*
X25376190Y-46744333D01*
X25376190Y-47125285D01*
X25852380Y-45601476D02*
X25852380Y-46172904D01*
X25852380Y-45887190D02*
X24852380Y-45887190D01*
X24995238Y-45982428D01*
X25090476Y-46077666D01*
X25138095Y-46172904D01*
X24852380Y-44696714D02*
X24852380Y-45172904D01*
X25328571Y-45220523D01*
X25280952Y-45172904D01*
X25233333Y-45077666D01*
X25233333Y-44839571D01*
X25280952Y-44744333D01*
X25328571Y-44696714D01*
X25423809Y-44649095D01*
X25661904Y-44649095D01*
X25757142Y-44696714D01*
X25804761Y-44744333D01*
X25852380Y-44839571D01*
X25852380Y-45077666D01*
X25804761Y-45172904D01*
X25757142Y-45220523D01*
%TO.C,J8*%
X4178666Y-81952380D02*
X4178666Y-82666666D01*
X4131047Y-82809523D01*
X4035809Y-82904761D01*
X3892952Y-82952380D01*
X3797714Y-82952380D01*
X4797714Y-82380952D02*
X4702476Y-82333333D01*
X4654857Y-82285714D01*
X4607238Y-82190476D01*
X4607238Y-82142857D01*
X4654857Y-82047619D01*
X4702476Y-82000000D01*
X4797714Y-81952380D01*
X4988190Y-81952380D01*
X5083428Y-82000000D01*
X5131047Y-82047619D01*
X5178666Y-82142857D01*
X5178666Y-82190476D01*
X5131047Y-82285714D01*
X5083428Y-82333333D01*
X4988190Y-82380952D01*
X4797714Y-82380952D01*
X4702476Y-82428571D01*
X4654857Y-82476190D01*
X4607238Y-82571428D01*
X4607238Y-82761904D01*
X4654857Y-82857142D01*
X4702476Y-82904761D01*
X4797714Y-82952380D01*
X4988190Y-82952380D01*
X5083428Y-82904761D01*
X5131047Y-82857142D01*
X5178666Y-82761904D01*
X5178666Y-82571428D01*
X5131047Y-82476190D01*
X5083428Y-82428571D01*
X4988190Y-82380952D01*
%TO.C,U2*%
X21844095Y-52792380D02*
X21844095Y-53601904D01*
X21891714Y-53697142D01*
X21939333Y-53744761D01*
X22034571Y-53792380D01*
X22225047Y-53792380D01*
X22320285Y-53744761D01*
X22367904Y-53697142D01*
X22415523Y-53601904D01*
X22415523Y-52792380D01*
X22844095Y-52887619D02*
X22891714Y-52840000D01*
X22986952Y-52792380D01*
X23225047Y-52792380D01*
X23320285Y-52840000D01*
X23367904Y-52887619D01*
X23415523Y-52982857D01*
X23415523Y-53078095D01*
X23367904Y-53220952D01*
X22796476Y-53792380D01*
X23415523Y-53792380D01*
%TO.C,R20*%
X29408380Y-32646857D02*
X28932190Y-32980190D01*
X29408380Y-33218285D02*
X28408380Y-33218285D01*
X28408380Y-32837333D01*
X28456000Y-32742095D01*
X28503619Y-32694476D01*
X28598857Y-32646857D01*
X28741714Y-32646857D01*
X28836952Y-32694476D01*
X28884571Y-32742095D01*
X28932190Y-32837333D01*
X28932190Y-33218285D01*
X28503619Y-32265904D02*
X28456000Y-32218285D01*
X28408380Y-32123047D01*
X28408380Y-31884952D01*
X28456000Y-31789714D01*
X28503619Y-31742095D01*
X28598857Y-31694476D01*
X28694095Y-31694476D01*
X28836952Y-31742095D01*
X29408380Y-32313523D01*
X29408380Y-31694476D01*
X28408380Y-31075428D02*
X28408380Y-30980190D01*
X28456000Y-30884952D01*
X28503619Y-30837333D01*
X28598857Y-30789714D01*
X28789333Y-30742095D01*
X29027428Y-30742095D01*
X29217904Y-30789714D01*
X29313142Y-30837333D01*
X29360761Y-30884952D01*
X29408380Y-30980190D01*
X29408380Y-31075428D01*
X29360761Y-31170666D01*
X29313142Y-31218285D01*
X29217904Y-31265904D01*
X29027428Y-31313523D01*
X28789333Y-31313523D01*
X28598857Y-31265904D01*
X28503619Y-31218285D01*
X28456000Y-31170666D01*
X28408380Y-31075428D01*
%TO.C,R24*%
X1468380Y-42806857D02*
X992190Y-43140190D01*
X1468380Y-43378285D02*
X468380Y-43378285D01*
X468380Y-42997333D01*
X515999Y-42902095D01*
X563619Y-42854476D01*
X658857Y-42806857D01*
X801714Y-42806857D01*
X896952Y-42854476D01*
X944571Y-42902095D01*
X992190Y-42997333D01*
X992190Y-43378285D01*
X563619Y-42425904D02*
X516000Y-42378285D01*
X468380Y-42283047D01*
X468380Y-42044952D01*
X516000Y-41949714D01*
X563619Y-41902095D01*
X658857Y-41854476D01*
X754095Y-41854476D01*
X896952Y-41902095D01*
X1468380Y-42473523D01*
X1468380Y-41854476D01*
X801714Y-40997333D02*
X1468380Y-40997333D01*
X420761Y-41235428D02*
X1135047Y-41473523D01*
X1135047Y-40854476D01*
%TO.C,R28*%
X6548380Y-29090857D02*
X6072190Y-29424190D01*
X6548380Y-29662285D02*
X5548380Y-29662285D01*
X5548380Y-29281333D01*
X5596000Y-29186095D01*
X5643619Y-29138476D01*
X5738857Y-29090857D01*
X5881714Y-29090857D01*
X5976952Y-29138476D01*
X6024571Y-29186095D01*
X6072190Y-29281333D01*
X6072190Y-29662285D01*
X5643619Y-28709904D02*
X5596000Y-28662285D01*
X5548380Y-28567047D01*
X5548380Y-28328952D01*
X5596000Y-28233714D01*
X5643619Y-28186095D01*
X5738857Y-28138476D01*
X5834095Y-28138476D01*
X5976952Y-28186095D01*
X6548380Y-28757523D01*
X6548380Y-28138476D01*
X5976952Y-27567047D02*
X5929333Y-27662285D01*
X5881714Y-27709904D01*
X5786476Y-27757523D01*
X5738857Y-27757523D01*
X5643619Y-27709904D01*
X5596000Y-27662285D01*
X5548380Y-27567047D01*
X5548380Y-27376571D01*
X5596000Y-27281333D01*
X5643619Y-27233714D01*
X5738857Y-27186095D01*
X5786476Y-27186095D01*
X5881714Y-27233714D01*
X5929333Y-27281333D01*
X5976952Y-27376571D01*
X5976952Y-27567047D01*
X6024571Y-27662285D01*
X6072190Y-27709904D01*
X6167428Y-27757523D01*
X6357904Y-27757523D01*
X6453142Y-27709904D01*
X6500761Y-27662285D01*
X6548380Y-27567047D01*
X6548380Y-27376571D01*
X6500761Y-27281333D01*
X6453142Y-27233714D01*
X6357904Y-27186095D01*
X6167428Y-27186095D01*
X6072190Y-27233714D01*
X6024571Y-27281333D01*
X5976952Y-27376571D01*
%TO.C,R31*%
X10104380Y-74111857D02*
X9628190Y-74445190D01*
X10104380Y-74683285D02*
X9104380Y-74683285D01*
X9104380Y-74302333D01*
X9152000Y-74207095D01*
X9199619Y-74159476D01*
X9294857Y-74111857D01*
X9437714Y-74111857D01*
X9532952Y-74159476D01*
X9580571Y-74207095D01*
X9628190Y-74302333D01*
X9628190Y-74683285D01*
X9104380Y-73778523D02*
X9104380Y-73159476D01*
X9485333Y-73492809D01*
X9485333Y-73349952D01*
X9532952Y-73254714D01*
X9580571Y-73207095D01*
X9675809Y-73159476D01*
X9913904Y-73159476D01*
X10009142Y-73207095D01*
X10056761Y-73254714D01*
X10104380Y-73349952D01*
X10104380Y-73635666D01*
X10056761Y-73730904D01*
X10009142Y-73778523D01*
X10104380Y-72207095D02*
X10104380Y-72778523D01*
X10104380Y-72492809D02*
X9104380Y-72492809D01*
X9247238Y-72588047D01*
X9342476Y-72683285D01*
X9390095Y-72778523D01*
%TO.C,R13*%
X29408380Y-42806857D02*
X28932190Y-43140190D01*
X29408380Y-43378285D02*
X28408380Y-43378285D01*
X28408380Y-42997333D01*
X28456000Y-42902095D01*
X28503619Y-42854476D01*
X28598857Y-42806857D01*
X28741714Y-42806857D01*
X28836952Y-42854476D01*
X28884571Y-42902095D01*
X28932190Y-42997333D01*
X28932190Y-43378285D01*
X29408380Y-41854476D02*
X29408380Y-42425904D01*
X29408380Y-42140190D02*
X28408380Y-42140190D01*
X28551238Y-42235428D01*
X28646476Y-42330666D01*
X28694095Y-42425904D01*
X28408380Y-41521142D02*
X28408380Y-40902095D01*
X28789333Y-41235428D01*
X28789333Y-41092571D01*
X28836952Y-40997333D01*
X28884571Y-40949714D01*
X28979809Y-40902095D01*
X29217904Y-40902095D01*
X29313142Y-40949714D01*
X29360761Y-40997333D01*
X29408380Y-41092571D01*
X29408380Y-41378285D01*
X29360761Y-41473523D01*
X29313142Y-41521142D01*
%TO.C,R32*%
X8072380Y-80906857D02*
X7596190Y-81240190D01*
X8072380Y-81478285D02*
X7072380Y-81478285D01*
X7072380Y-81097333D01*
X7120000Y-81002095D01*
X7167619Y-80954476D01*
X7262857Y-80906857D01*
X7405714Y-80906857D01*
X7500952Y-80954476D01*
X7548571Y-81002095D01*
X7596190Y-81097333D01*
X7596190Y-81478285D01*
X7072380Y-80573523D02*
X7072380Y-79954476D01*
X7453333Y-80287809D01*
X7453333Y-80144952D01*
X7500952Y-80049714D01*
X7548571Y-80002095D01*
X7643809Y-79954476D01*
X7881904Y-79954476D01*
X7977142Y-80002095D01*
X8024761Y-80049714D01*
X8072380Y-80144952D01*
X8072380Y-80430666D01*
X8024761Y-80525904D01*
X7977142Y-80573523D01*
X7167619Y-79573523D02*
X7120000Y-79525904D01*
X7072380Y-79430666D01*
X7072380Y-79192571D01*
X7120000Y-79097333D01*
X7167619Y-79049714D01*
X7262857Y-79002095D01*
X7358095Y-79002095D01*
X7500952Y-79049714D01*
X8072380Y-79621142D01*
X8072380Y-79002095D01*
%TO.C,J5*%
X19418666Y-164380D02*
X19418666Y-878666D01*
X19371047Y-1021523D01*
X19275809Y-1116761D01*
X19132952Y-1164380D01*
X19037714Y-1164380D01*
X20371047Y-164380D02*
X19894857Y-164380D01*
X19847238Y-640571D01*
X19894857Y-592952D01*
X19990095Y-545333D01*
X20228190Y-545333D01*
X20323428Y-592952D01*
X20371047Y-640571D01*
X20418666Y-735809D01*
X20418666Y-973904D01*
X20371047Y-1069142D01*
X20323428Y-1116761D01*
X20228190Y-1164380D01*
X19990095Y-1164380D01*
X19894857Y-1116761D01*
X19847238Y-1069142D01*
%TO.C,U6*%
X116380Y-72389904D02*
X925904Y-72389904D01*
X1021142Y-72342285D01*
X1068761Y-72294666D01*
X1116380Y-72199428D01*
X1116380Y-72008952D01*
X1068761Y-71913714D01*
X1021142Y-71866095D01*
X925904Y-71818476D01*
X116380Y-71818476D01*
X116380Y-70913714D02*
X116380Y-71104190D01*
X164000Y-71199428D01*
X211619Y-71247047D01*
X354476Y-71342285D01*
X544952Y-71389904D01*
X925904Y-71389904D01*
X1021142Y-71342285D01*
X1068761Y-71294666D01*
X1116380Y-71199428D01*
X1116380Y-71008952D01*
X1068761Y-70913714D01*
X1021142Y-70866095D01*
X925904Y-70818476D01*
X687809Y-70818476D01*
X592571Y-70866095D01*
X544952Y-70913714D01*
X497333Y-71008952D01*
X497333Y-71199428D01*
X544952Y-71294666D01*
X592571Y-71342285D01*
X687809Y-71389904D01*
%TO.C,J7*%
X4178666Y-164380D02*
X4178666Y-878666D01*
X4131047Y-1021523D01*
X4035809Y-1116761D01*
X3892952Y-1164380D01*
X3797714Y-1164380D01*
X4559619Y-164380D02*
X5226285Y-164380D01*
X4797714Y-1164380D01*
%TO.C,R36*%
X10104380Y-70238857D02*
X9628190Y-70572190D01*
X10104380Y-70810285D02*
X9104380Y-70810285D01*
X9104380Y-70429333D01*
X9152000Y-70334095D01*
X9199619Y-70286476D01*
X9294857Y-70238857D01*
X9437714Y-70238857D01*
X9532952Y-70286476D01*
X9580571Y-70334095D01*
X9628190Y-70429333D01*
X9628190Y-70810285D01*
X9104380Y-69905523D02*
X9104380Y-69286476D01*
X9485333Y-69619809D01*
X9485333Y-69476952D01*
X9532952Y-69381714D01*
X9580571Y-69334095D01*
X9675809Y-69286476D01*
X9913904Y-69286476D01*
X10009142Y-69334095D01*
X10056761Y-69381714D01*
X10104380Y-69476952D01*
X10104380Y-69762666D01*
X10056761Y-69857904D01*
X10009142Y-69905523D01*
X9104380Y-68429333D02*
X9104380Y-68619809D01*
X9152000Y-68715047D01*
X9199619Y-68762666D01*
X9342476Y-68857904D01*
X9532952Y-68905523D01*
X9913904Y-68905523D01*
X10009142Y-68857904D01*
X10056761Y-68810285D01*
X10104380Y-68715047D01*
X10104380Y-68524571D01*
X10056761Y-68429333D01*
X10009142Y-68381714D01*
X9913904Y-68334095D01*
X9675809Y-68334095D01*
X9580571Y-68381714D01*
X9532952Y-68429333D01*
X9485333Y-68524571D01*
X9485333Y-68715047D01*
X9532952Y-68810285D01*
X9580571Y-68857904D01*
X9675809Y-68905523D01*
%TO.C,R12*%
X23820380Y-46362857D02*
X23344190Y-46696190D01*
X23820380Y-46934285D02*
X22820380Y-46934285D01*
X22820380Y-46553333D01*
X22868000Y-46458095D01*
X22915619Y-46410476D01*
X23010857Y-46362857D01*
X23153714Y-46362857D01*
X23248952Y-46410476D01*
X23296571Y-46458095D01*
X23344190Y-46553333D01*
X23344190Y-46934285D01*
X23820380Y-45410476D02*
X23820380Y-45981904D01*
X23820380Y-45696190D02*
X22820380Y-45696190D01*
X22963238Y-45791428D01*
X23058476Y-45886666D01*
X23106095Y-45981904D01*
X22915619Y-45029523D02*
X22868000Y-44981904D01*
X22820380Y-44886666D01*
X22820380Y-44648571D01*
X22868000Y-44553333D01*
X22915619Y-44505714D01*
X23010857Y-44458095D01*
X23106095Y-44458095D01*
X23248952Y-44505714D01*
X23820380Y-45077142D01*
X23820380Y-44458095D01*
%TO.C,R8*%
X1865333Y-50744380D02*
X1532000Y-50268190D01*
X1293904Y-50744380D02*
X1293904Y-49744380D01*
X1674857Y-49744380D01*
X1770095Y-49792000D01*
X1817714Y-49839619D01*
X1865333Y-49934857D01*
X1865333Y-50077714D01*
X1817714Y-50172952D01*
X1770095Y-50220571D01*
X1674857Y-50268190D01*
X1293904Y-50268190D01*
X2436761Y-50172952D02*
X2341523Y-50125333D01*
X2293904Y-50077714D01*
X2246285Y-49982476D01*
X2246285Y-49934857D01*
X2293904Y-49839619D01*
X2341523Y-49792000D01*
X2436761Y-49744380D01*
X2627238Y-49744380D01*
X2722476Y-49792000D01*
X2770095Y-49839619D01*
X2817714Y-49934857D01*
X2817714Y-49982476D01*
X2770095Y-50077714D01*
X2722476Y-50125333D01*
X2627238Y-50172952D01*
X2436761Y-50172952D01*
X2341523Y-50220571D01*
X2293904Y-50268190D01*
X2246285Y-50363428D01*
X2246285Y-50553904D01*
X2293904Y-50649142D01*
X2341523Y-50696761D01*
X2436761Y-50744380D01*
X2627238Y-50744380D01*
X2722476Y-50696761D01*
X2770095Y-50649142D01*
X2817714Y-50553904D01*
X2817714Y-50363428D01*
X2770095Y-50268190D01*
X2722476Y-50220571D01*
X2627238Y-50172952D01*
%TO.C,R41*%
X25344380Y-80398857D02*
X24868190Y-80732190D01*
X25344380Y-80970285D02*
X24344380Y-80970285D01*
X24344380Y-80589333D01*
X24392000Y-80494095D01*
X24439619Y-80446476D01*
X24534857Y-80398857D01*
X24677714Y-80398857D01*
X24772952Y-80446476D01*
X24820571Y-80494095D01*
X24868190Y-80589333D01*
X24868190Y-80970285D01*
X24677714Y-79541714D02*
X25344380Y-79541714D01*
X24296761Y-79779809D02*
X25011047Y-80017904D01*
X25011047Y-79398857D01*
X25344380Y-78494095D02*
X25344380Y-79065523D01*
X25344380Y-78779809D02*
X24344380Y-78779809D01*
X24487238Y-78875047D01*
X24582476Y-78970285D01*
X24630095Y-79065523D01*
%TO.C,R14*%
X21788380Y-46362857D02*
X21312190Y-46696190D01*
X21788380Y-46934285D02*
X20788380Y-46934285D01*
X20788380Y-46553333D01*
X20836000Y-46458095D01*
X20883619Y-46410476D01*
X20978857Y-46362857D01*
X21121714Y-46362857D01*
X21216952Y-46410476D01*
X21264571Y-46458095D01*
X21312190Y-46553333D01*
X21312190Y-46934285D01*
X21788380Y-45410476D02*
X21788380Y-45981904D01*
X21788380Y-45696190D02*
X20788380Y-45696190D01*
X20931238Y-45791428D01*
X21026476Y-45886666D01*
X21074095Y-45981904D01*
X21121714Y-44553333D02*
X21788380Y-44553333D01*
X20740761Y-44791428D02*
X21455047Y-45029523D01*
X21455047Y-44410476D01*
%TO.C,R16*%
X27884380Y-29090857D02*
X27408190Y-29424190D01*
X27884380Y-29662285D02*
X26884380Y-29662285D01*
X26884380Y-29281333D01*
X26932000Y-29186095D01*
X26979619Y-29138476D01*
X27074857Y-29090857D01*
X27217714Y-29090857D01*
X27312952Y-29138476D01*
X27360571Y-29186095D01*
X27408190Y-29281333D01*
X27408190Y-29662285D01*
X27884380Y-28138476D02*
X27884380Y-28709904D01*
X27884380Y-28424190D02*
X26884380Y-28424190D01*
X27027238Y-28519428D01*
X27122476Y-28614666D01*
X27170095Y-28709904D01*
X26884380Y-27281333D02*
X26884380Y-27471809D01*
X26932000Y-27567047D01*
X26979619Y-27614666D01*
X27122476Y-27709904D01*
X27312952Y-27757523D01*
X27693904Y-27757523D01*
X27789142Y-27709904D01*
X27836761Y-27662285D01*
X27884380Y-27567047D01*
X27884380Y-27376571D01*
X27836761Y-27281333D01*
X27789142Y-27233714D01*
X27693904Y-27186095D01*
X27455809Y-27186095D01*
X27360571Y-27233714D01*
X27312952Y-27281333D01*
X27265333Y-27376571D01*
X27265333Y-27567047D01*
X27312952Y-27662285D01*
X27360571Y-27709904D01*
X27455809Y-27757523D01*
%TO.C,R40*%
X5849380Y-63634857D02*
X5373190Y-63968190D01*
X5849380Y-64206285D02*
X4849380Y-64206285D01*
X4849380Y-63825333D01*
X4897000Y-63730095D01*
X4944619Y-63682476D01*
X5039857Y-63634857D01*
X5182714Y-63634857D01*
X5277952Y-63682476D01*
X5325571Y-63730095D01*
X5373190Y-63825333D01*
X5373190Y-64206285D01*
X5182714Y-62777714D02*
X5849380Y-62777714D01*
X4801761Y-63015809D02*
X5516047Y-63253904D01*
X5516047Y-62634857D01*
X4849380Y-62063428D02*
X4849380Y-61968190D01*
X4897000Y-61872952D01*
X4944619Y-61825333D01*
X5039857Y-61777714D01*
X5230333Y-61730095D01*
X5468428Y-61730095D01*
X5658904Y-61777714D01*
X5754142Y-61825333D01*
X5801761Y-61872952D01*
X5849380Y-61968190D01*
X5849380Y-62063428D01*
X5801761Y-62158666D01*
X5754142Y-62206285D01*
X5658904Y-62253904D01*
X5468428Y-62301523D01*
X5230333Y-62301523D01*
X5039857Y-62253904D01*
X4944619Y-62206285D01*
X4897000Y-62158666D01*
X4849380Y-62063428D01*
%TO.C,C9*%
X4421142Y-57062666D02*
X4468761Y-57110285D01*
X4516380Y-57253142D01*
X4516380Y-57348380D01*
X4468761Y-57491238D01*
X4373523Y-57586476D01*
X4278285Y-57634095D01*
X4087809Y-57681714D01*
X3944952Y-57681714D01*
X3754476Y-57634095D01*
X3659238Y-57586476D01*
X3564000Y-57491238D01*
X3516380Y-57348380D01*
X3516380Y-57253142D01*
X3564000Y-57110285D01*
X3611619Y-57062666D01*
X4516380Y-56586476D02*
X4516380Y-56396000D01*
X4468761Y-56300761D01*
X4421142Y-56253142D01*
X4278285Y-56157904D01*
X4087809Y-56110285D01*
X3706857Y-56110285D01*
X3611619Y-56157904D01*
X3564000Y-56205523D01*
X3516380Y-56300761D01*
X3516380Y-56491238D01*
X3564000Y-56586476D01*
X3611619Y-56634095D01*
X3706857Y-56681714D01*
X3944952Y-56681714D01*
X4040190Y-56634095D01*
X4087809Y-56586476D01*
X4135428Y-56491238D01*
X4135428Y-56300761D01*
X4087809Y-56205523D01*
X4040190Y-56157904D01*
X3944952Y-56110285D01*
%TO.C,R38*%
X1785380Y-63634857D02*
X1309190Y-63968190D01*
X1785380Y-64206285D02*
X785380Y-64206285D01*
X785380Y-63825333D01*
X833000Y-63730095D01*
X880619Y-63682476D01*
X975857Y-63634857D01*
X1118714Y-63634857D01*
X1213952Y-63682476D01*
X1261571Y-63730095D01*
X1309190Y-63825333D01*
X1309190Y-64206285D01*
X785380Y-63301523D02*
X785380Y-62682476D01*
X1166333Y-63015809D01*
X1166333Y-62872952D01*
X1213952Y-62777714D01*
X1261571Y-62730095D01*
X1356809Y-62682476D01*
X1594904Y-62682476D01*
X1690142Y-62730095D01*
X1737761Y-62777714D01*
X1785380Y-62872952D01*
X1785380Y-63158666D01*
X1737761Y-63253904D01*
X1690142Y-63301523D01*
X1213952Y-62111047D02*
X1166333Y-62206285D01*
X1118714Y-62253904D01*
X1023476Y-62301523D01*
X975857Y-62301523D01*
X880619Y-62253904D01*
X833000Y-62206285D01*
X785380Y-62111047D01*
X785380Y-61920571D01*
X833000Y-61825333D01*
X880619Y-61777714D01*
X975857Y-61730095D01*
X1023476Y-61730095D01*
X1118714Y-61777714D01*
X1166333Y-61825333D01*
X1213952Y-61920571D01*
X1213952Y-62111047D01*
X1261571Y-62206285D01*
X1309190Y-62253904D01*
X1404428Y-62301523D01*
X1594904Y-62301523D01*
X1690142Y-62253904D01*
X1737761Y-62206285D01*
X1785380Y-62111047D01*
X1785380Y-61920571D01*
X1737761Y-61825333D01*
X1690142Y-61777714D01*
X1594904Y-61730095D01*
X1404428Y-61730095D01*
X1309190Y-61777714D01*
X1261571Y-61825333D01*
X1213952Y-61920571D01*
%TO.C,R50*%
X27884380Y-63126857D02*
X27408190Y-63460190D01*
X27884380Y-63698285D02*
X26884380Y-63698285D01*
X26884380Y-63317333D01*
X26932000Y-63222095D01*
X26979619Y-63174476D01*
X27074857Y-63126857D01*
X27217714Y-63126857D01*
X27312952Y-63174476D01*
X27360571Y-63222095D01*
X27408190Y-63317333D01*
X27408190Y-63698285D01*
X26884380Y-62222095D02*
X26884380Y-62698285D01*
X27360571Y-62745904D01*
X27312952Y-62698285D01*
X27265333Y-62603047D01*
X27265333Y-62364952D01*
X27312952Y-62269714D01*
X27360571Y-62222095D01*
X27455809Y-62174476D01*
X27693904Y-62174476D01*
X27789142Y-62222095D01*
X27836761Y-62269714D01*
X27884380Y-62364952D01*
X27884380Y-62603047D01*
X27836761Y-62698285D01*
X27789142Y-62745904D01*
X26884380Y-61555428D02*
X26884380Y-61460190D01*
X26932000Y-61364952D01*
X26979619Y-61317333D01*
X27074857Y-61269714D01*
X27265333Y-61222095D01*
X27503428Y-61222095D01*
X27693904Y-61269714D01*
X27789142Y-61317333D01*
X27836761Y-61364952D01*
X27884380Y-61460190D01*
X27884380Y-61555428D01*
X27836761Y-61650666D01*
X27789142Y-61698285D01*
X27693904Y-61745904D01*
X27503428Y-61793523D01*
X27265333Y-61793523D01*
X27074857Y-61745904D01*
X26979619Y-61698285D01*
X26932000Y-61650666D01*
X26884380Y-61555428D01*
D11*
%TO.C,R29*%
X1509500Y-31733258D02*
X1509500Y-31258742D01*
X2554500Y-31733258D02*
X2554500Y-31258742D01*
%TO.C,R6*%
X17001258Y-50052500D02*
X16526742Y-50052500D01*
X17001258Y-49007500D02*
X16526742Y-49007500D01*
%TO.C,R17*%
X23890500Y-31258742D02*
X23890500Y-31733258D01*
X22845500Y-31258742D02*
X22845500Y-31733258D01*
%TO.C,R42*%
X27446500Y-76945258D02*
X27446500Y-76470742D01*
X26401500Y-76945258D02*
X26401500Y-76470742D01*
%TO.C,R47*%
X27417500Y-69325258D02*
X27417500Y-68850742D01*
X28462500Y-69325258D02*
X28462500Y-68850742D01*
%TO.C,R45*%
X22337500Y-76470742D02*
X22337500Y-76945258D01*
X23382500Y-76470742D02*
X23382500Y-76945258D01*
D12*
%TO.C,J6*%
X2612000Y-26028000D02*
X11612000Y-26028000D01*
X2612000Y-26028000D02*
X2612000Y-24128000D01*
X11612000Y-15128000D02*
X9112000Y-15128000D01*
X11612000Y-15128000D02*
X11612000Y-19128000D01*
X11612000Y-26028000D02*
X11612000Y-23728000D01*
X2612000Y-15128000D02*
X5112000Y-15128000D01*
X2612000Y-15128000D02*
X2612000Y-18728000D01*
D11*
%TO.C,R34*%
X3033500Y-76978742D02*
X3033500Y-77453258D01*
X4078500Y-76978742D02*
X4078500Y-77453258D01*
%TO.C,C4*%
X14083420Y-56644000D02*
X14364580Y-56644000D01*
X14083420Y-55624000D02*
X14364580Y-55624000D01*
%TO.C,R30*%
X8621500Y-34814742D02*
X8621500Y-35289258D01*
X9666500Y-34814742D02*
X9666500Y-35289258D01*
%TO.C,C14*%
X9146000Y-42531420D02*
X9146000Y-42812580D01*
X8126000Y-42531420D02*
X8126000Y-42812580D01*
%TO.C,R39*%
X2842500Y-65802742D02*
X2842500Y-66277258D01*
X3887500Y-65802742D02*
X3887500Y-66277258D01*
%TO.C,U5*%
X2520000Y-37084000D02*
X2520000Y-35134000D01*
X2520000Y-37084000D02*
X2520000Y-40534000D01*
X7640000Y-37084000D02*
X7640000Y-35134000D01*
X7640000Y-37084000D02*
X7640000Y-39034000D01*
%TO.C,R5*%
X28177258Y-46721500D02*
X27702742Y-46721500D01*
X28177258Y-47766500D02*
X27702742Y-47766500D01*
%TO.C,R1*%
X10653500Y-66310742D02*
X10653500Y-66785258D01*
X11698500Y-66310742D02*
X11698500Y-66785258D01*
%TO.C,C10*%
X11257000Y-58142000D02*
X11257000Y-62052000D01*
X13127000Y-62052000D02*
X13127000Y-58142000D01*
X13127000Y-58142000D02*
X11257000Y-58142000D01*
%TO.C,R3*%
X16526742Y-52084500D02*
X17001258Y-52084500D01*
X16526742Y-51039500D02*
X17001258Y-51039500D01*
%TO.C,R11*%
X20842500Y-39353258D02*
X20842500Y-38878742D01*
X19797500Y-39353258D02*
X19797500Y-38878742D01*
%TO.C,R43*%
X21350500Y-76470742D02*
X21350500Y-76945258D01*
X20305500Y-76470742D02*
X20305500Y-76945258D01*
%TO.C,R48*%
X23890500Y-65769258D02*
X23890500Y-65294742D01*
X22845500Y-65769258D02*
X22845500Y-65294742D01*
%TO.C,U3*%
X11279000Y-57474000D02*
X11754000Y-57474000D01*
X11754000Y-52254000D02*
X11754000Y-52729000D01*
X11754000Y-57474000D02*
X11754000Y-56999000D01*
X7009000Y-52254000D02*
X6534000Y-52254000D01*
X6534000Y-57474000D02*
X6534000Y-56999000D01*
X7009000Y-57474000D02*
X6534000Y-57474000D01*
X11279000Y-52254000D02*
X11754000Y-52254000D01*
%TO.C,C16*%
X9654000Y-77864580D02*
X9654000Y-77583420D01*
X8634000Y-77864580D02*
X8634000Y-77583420D01*
%TO.C,R27*%
X4586500Y-31258742D02*
X4586500Y-31733258D01*
X3541500Y-31258742D02*
X3541500Y-31733258D01*
%TO.C,R25*%
X6081500Y-42434742D02*
X6081500Y-42909258D01*
X7126500Y-42434742D02*
X7126500Y-42909258D01*
D12*
%TO.C,J4*%
X26852000Y-26028000D02*
X26852000Y-23728000D01*
X17852000Y-15128000D02*
X17852000Y-18728000D01*
X26852000Y-15128000D02*
X24352000Y-15128000D01*
X26852000Y-15128000D02*
X26852000Y-19128000D01*
X17852000Y-26028000D02*
X17852000Y-24128000D01*
X17852000Y-15128000D02*
X20352000Y-15128000D01*
X17852000Y-26028000D02*
X26852000Y-26028000D01*
%TO.C,J11*%
X26852000Y-96916000D02*
X26852000Y-100916000D01*
X17852000Y-107816000D02*
X26852000Y-107816000D01*
X17852000Y-96916000D02*
X17852000Y-100516000D01*
X17852000Y-107816000D02*
X17852000Y-105916000D01*
X17852000Y-96916000D02*
X20352000Y-96916000D01*
X26852000Y-107816000D02*
X26852000Y-105516000D01*
X26852000Y-96916000D02*
X24352000Y-96916000D01*
D11*
%TO.C,R33*%
X1001500Y-76978742D02*
X1001500Y-77453258D01*
X2046500Y-76978742D02*
X2046500Y-77453258D01*
D12*
%TO.C,J9*%
X2612000Y-96916000D02*
X2612000Y-100516000D01*
X11612000Y-107816000D02*
X11612000Y-105516000D01*
X11612000Y-96916000D02*
X11612000Y-100916000D01*
X11612000Y-96916000D02*
X9112000Y-96916000D01*
X2612000Y-107816000D02*
X2612000Y-105916000D01*
X2612000Y-96916000D02*
X5112000Y-96916000D01*
X2612000Y-107816000D02*
X11612000Y-107816000D01*
D11*
%TO.C,R2*%
X10653500Y-70150258D02*
X10653500Y-69675742D01*
X11698500Y-70150258D02*
X11698500Y-69675742D01*
%TO.C,R49*%
X24877500Y-65769258D02*
X24877500Y-65294742D01*
X25922500Y-65769258D02*
X25922500Y-65294742D01*
%TO.C,R26*%
X7605500Y-31258742D02*
X7605500Y-31733258D01*
X8650500Y-31258742D02*
X8650500Y-31733258D01*
%TO.C,R22*%
X3062500Y-42909258D02*
X3062500Y-42434742D01*
X2017500Y-42909258D02*
X2017500Y-42434742D01*
%TO.C,R44*%
X19289500Y-72914742D02*
X19289500Y-73389258D01*
X20334500Y-72914742D02*
X20334500Y-73389258D01*
%TO.C,R7*%
X27702742Y-52846500D02*
X28177258Y-52846500D01*
X27702742Y-51801500D02*
X28177258Y-51801500D01*
%TO.C,C11*%
X18877000Y-67842000D02*
X20747000Y-67842000D01*
X18877000Y-63932000D02*
X18877000Y-67842000D01*
X20747000Y-67842000D02*
X20747000Y-63932000D01*
%TO.C,R18*%
X24877500Y-31258742D02*
X24877500Y-31733258D01*
X25922500Y-31258742D02*
X25922500Y-31733258D01*
%TO.C,R23*%
X4049500Y-42909258D02*
X4049500Y-42434742D01*
X5094500Y-42909258D02*
X5094500Y-42434742D01*
%TO.C,U4*%
X26944000Y-37084000D02*
X26944000Y-35134000D01*
X21824000Y-37084000D02*
X21824000Y-35134000D01*
X26944000Y-37084000D02*
X26944000Y-39034000D01*
X21824000Y-37084000D02*
X21824000Y-40534000D01*
%TO.C,R4*%
X27702742Y-50814500D02*
X28177258Y-50814500D01*
X27702742Y-49769500D02*
X28177258Y-49769500D01*
%TO.C,C13*%
X11603000Y-41378000D02*
X9733000Y-41378000D01*
X9733000Y-41378000D02*
X9733000Y-45288000D01*
X11603000Y-45288000D02*
X11603000Y-41378000D01*
%TO.C,R37*%
X6906500Y-65802742D02*
X6906500Y-66277258D01*
X7951500Y-65802742D02*
X7951500Y-66277258D01*
%TO.C,C15*%
X12111000Y-79018000D02*
X12111000Y-75108000D01*
X10241000Y-75108000D02*
X10241000Y-79018000D01*
X10241000Y-79018000D02*
X12111000Y-79018000D01*
%TO.C,C3*%
X15413000Y-61036000D02*
X15413000Y-57126000D01*
X13543000Y-57126000D02*
X13543000Y-61036000D01*
X15413000Y-57126000D02*
X13543000Y-57126000D01*
%TO.C,C6*%
X4712580Y-54866000D02*
X4431420Y-54866000D01*
X4712580Y-53846000D02*
X4431420Y-53846000D01*
%TO.C,C17*%
X20239000Y-35330000D02*
X20239000Y-31420000D01*
X18369000Y-35330000D02*
X20239000Y-35330000D01*
X18369000Y-31420000D02*
X18369000Y-35330000D01*
%TO.C,C5*%
X5866000Y-53259000D02*
X5866000Y-51389000D01*
X5866000Y-51389000D02*
X1956000Y-51389000D01*
X1956000Y-53259000D02*
X5866000Y-53259000D01*
%TO.C,R46*%
X27417500Y-73389258D02*
X27417500Y-72914742D01*
X28462500Y-73389258D02*
X28462500Y-72914742D01*
%TO.C,R10*%
X8113500Y-48751258D02*
X8113500Y-48276742D01*
X9158500Y-48751258D02*
X9158500Y-48276742D01*
%TO.C,R35*%
X6110500Y-76978742D02*
X6110500Y-77453258D01*
X5065500Y-76978742D02*
X5065500Y-77453258D01*
%TO.C,C18*%
X18798000Y-28815420D02*
X18798000Y-29096580D01*
X17778000Y-28815420D02*
X17778000Y-29096580D01*
%TO.C,R9*%
X10145500Y-49259258D02*
X10145500Y-48784742D01*
X11190500Y-49259258D02*
X11190500Y-48784742D01*
%TO.C,U7*%
X26436000Y-71120000D02*
X26436000Y-73070000D01*
X21316000Y-71120000D02*
X21316000Y-74570000D01*
X21316000Y-71120000D02*
X21316000Y-69170000D01*
X26436000Y-71120000D02*
X26436000Y-69170000D01*
%TO.C,R21*%
X9666500Y-38878742D02*
X9666500Y-39353258D01*
X8621500Y-38878742D02*
X8621500Y-39353258D01*
%TO.C,C12*%
X21334000Y-65672580D02*
X21334000Y-65391420D01*
X22354000Y-65672580D02*
X22354000Y-65391420D01*
%TO.C,R19*%
X20813500Y-31258742D02*
X20813500Y-31733258D01*
X21858500Y-31258742D02*
X21858500Y-31733258D01*
D12*
%TO.C,J10*%
X17852000Y-94100000D02*
X17852000Y-92200000D01*
X26852000Y-83200000D02*
X24352000Y-83200000D01*
X17852000Y-83200000D02*
X20352000Y-83200000D01*
X17852000Y-94100000D02*
X26852000Y-94100000D01*
X26852000Y-83200000D02*
X26852000Y-87200000D01*
X17852000Y-83200000D02*
X17852000Y-86800000D01*
X26852000Y-94100000D02*
X26852000Y-91800000D01*
D11*
%TO.C,R15*%
X25922500Y-42434742D02*
X25922500Y-42909258D01*
X24877500Y-42434742D02*
X24877500Y-42909258D01*
D12*
%TO.C,J8*%
X2612000Y-83200000D02*
X2612000Y-86800000D01*
X11612000Y-83200000D02*
X9112000Y-83200000D01*
X11612000Y-83200000D02*
X11612000Y-87200000D01*
X2612000Y-94100000D02*
X2612000Y-92200000D01*
X11612000Y-94100000D02*
X11612000Y-91800000D01*
X2612000Y-94100000D02*
X11612000Y-94100000D01*
X2612000Y-83200000D02*
X5112000Y-83200000D01*
D11*
%TO.C,U2*%
X22352000Y-52598000D02*
X20402000Y-52598000D01*
X22352000Y-47478000D02*
X18902000Y-47478000D01*
X22352000Y-47478000D02*
X24302000Y-47478000D01*
X22352000Y-52598000D02*
X24302000Y-52598000D01*
%TO.C,R20*%
X28970500Y-34814742D02*
X28970500Y-35289258D01*
X27925500Y-34814742D02*
X27925500Y-35289258D01*
%TO.C,R24*%
X1538500Y-39353258D02*
X1538500Y-38878742D01*
X493500Y-39353258D02*
X493500Y-38878742D01*
%TO.C,R28*%
X6618500Y-31258742D02*
X6618500Y-31733258D01*
X5573500Y-31258742D02*
X5573500Y-31733258D01*
%TO.C,R31*%
X8650500Y-73231742D02*
X8650500Y-73706258D01*
X7605500Y-73231742D02*
X7605500Y-73706258D01*
%TO.C,R13*%
X27925500Y-39353258D02*
X27925500Y-38878742D01*
X28970500Y-39353258D02*
X28970500Y-38878742D01*
%TO.C,R32*%
X7097500Y-76978742D02*
X7097500Y-77453258D01*
X8142500Y-76978742D02*
X8142500Y-77453258D01*
D12*
%TO.C,J5*%
X17852000Y-12312000D02*
X17852000Y-10412000D01*
X26852000Y-1412000D02*
X24352000Y-1412000D01*
X17852000Y-1412000D02*
X17852000Y-5012000D01*
X17852000Y-1412000D02*
X20352000Y-1412000D01*
X26852000Y-1412000D02*
X26852000Y-5412000D01*
X26852000Y-12312000D02*
X26852000Y-10012000D01*
X17852000Y-12312000D02*
X26852000Y-12312000D01*
D11*
%TO.C,U6*%
X1504000Y-71628000D02*
X1504000Y-75078000D01*
X6624000Y-71628000D02*
X6624000Y-69678000D01*
X1504000Y-71628000D02*
X1504000Y-69678000D01*
X6624000Y-71628000D02*
X6624000Y-73578000D01*
D12*
%TO.C,J7*%
X2612000Y-12312000D02*
X2612000Y-10412000D01*
X2612000Y-1412000D02*
X2612000Y-5012000D01*
X2612000Y-12312000D02*
X11612000Y-12312000D01*
X2612000Y-1412000D02*
X5112000Y-1412000D01*
X11612000Y-12312000D02*
X11612000Y-10012000D01*
X11612000Y-1412000D02*
X9112000Y-1412000D01*
X11612000Y-1412000D02*
X11612000Y-5412000D01*
D11*
%TO.C,R36*%
X8650500Y-69833258D02*
X8650500Y-69358742D01*
X7605500Y-69833258D02*
X7605500Y-69358742D01*
%TO.C,R12*%
X23890500Y-42434742D02*
X23890500Y-42909258D01*
X22845500Y-42434742D02*
X22845500Y-42909258D01*
%TO.C,R8*%
X4809258Y-49769500D02*
X4334742Y-49769500D01*
X4809258Y-50814500D02*
X4334742Y-50814500D01*
%TO.C,R41*%
X25414500Y-76945258D02*
X25414500Y-76470742D01*
X24369500Y-76945258D02*
X24369500Y-76470742D01*
%TO.C,R14*%
X20813500Y-42434742D02*
X20813500Y-42909258D01*
X21858500Y-42434742D02*
X21858500Y-42909258D01*
%TO.C,R16*%
X27954500Y-31258742D02*
X27954500Y-31733258D01*
X26909500Y-31258742D02*
X26909500Y-31733258D01*
%TO.C,R40*%
X4874500Y-66277258D02*
X4874500Y-65802742D01*
X5919500Y-66277258D02*
X5919500Y-65802742D01*
%TO.C,C9*%
X3221000Y-58496000D02*
X3221000Y-54586000D01*
X3221000Y-54586000D02*
X1351000Y-54586000D01*
X1351000Y-54586000D02*
X1351000Y-58496000D01*
%TO.C,R38*%
X810500Y-66277258D02*
X810500Y-65802742D01*
X1855500Y-66277258D02*
X1855500Y-65802742D01*
%TO.C,R50*%
X27954500Y-65769258D02*
X27954500Y-65294742D01*
X26909500Y-65769258D02*
X26909500Y-65294742D01*
%TD*%
M02*
