%TF.GenerationSoftware,KiCad,Pcbnew,(6.0.5)*%
%TF.CreationDate,2022-06-21T23:16:53+02:00*%
%TF.ProjectId,eurorack-pmod-pcb,6575726f-7261-4636-9b2d-706d6f642d70,rev?*%
%TF.SameCoordinates,Original*%
%TF.FileFunction,Copper,L1,Top*%
%TF.FilePolarity,Positive*%
%FSLAX46Y46*%
G04 Gerber Fmt 4.6, Leading zero omitted, Abs format (unit mm)*
G04 Created by KiCad (PCBNEW (6.0.5)) date 2022-06-21 23:16:53*
%MOMM*%
%LPD*%
G01*
G04 APERTURE LIST*
G04 Aperture macros list*
%AMRoundRect*
0 Rectangle with rounded corners*
0 $1 Rounding radius*
0 $2 $3 $4 $5 $6 $7 $8 $9 X,Y pos of 4 corners*
0 Add a 4 corners polygon primitive as box body*
4,1,4,$2,$3,$4,$5,$6,$7,$8,$9,$2,$3,0*
0 Add four circle primitives for the rounded corners*
1,1,$1+$1,$2,$3*
1,1,$1+$1,$4,$5*
1,1,$1+$1,$6,$7*
1,1,$1+$1,$8,$9*
0 Add four rect primitives between the rounded corners*
20,1,$1+$1,$2,$3,$4,$5,0*
20,1,$1+$1,$4,$5,$6,$7,0*
20,1,$1+$1,$6,$7,$8,$9,0*
20,1,$1+$1,$8,$9,$2,$3,0*%
G04 Aperture macros list end*
%TA.AperFunction,SMDPad,CuDef*%
%ADD10RoundRect,0.200000X0.275000X-0.200000X0.275000X0.200000X-0.275000X0.200000X-0.275000X-0.200000X0*%
%TD*%
%TA.AperFunction,SMDPad,CuDef*%
%ADD11RoundRect,0.200000X0.200000X0.275000X-0.200000X0.275000X-0.200000X-0.275000X0.200000X-0.275000X0*%
%TD*%
%TA.AperFunction,SMDPad,CuDef*%
%ADD12RoundRect,0.200000X-0.275000X0.200000X-0.275000X-0.200000X0.275000X-0.200000X0.275000X0.200000X0*%
%TD*%
%TA.AperFunction,ComponentPad*%
%ADD13O,3.000000X4.500000*%
%TD*%
%TA.AperFunction,ComponentPad*%
%ADD14O,3.000000X3.800000*%
%TD*%
%TA.AperFunction,ComponentPad*%
%ADD15O,4.000000X2.000000*%
%TD*%
%TA.AperFunction,SMDPad,CuDef*%
%ADD16RoundRect,0.225000X-0.225000X-0.250000X0.225000X-0.250000X0.225000X0.250000X-0.225000X0.250000X0*%
%TD*%
%TA.AperFunction,SMDPad,CuDef*%
%ADD17RoundRect,0.225000X-0.250000X0.225000X-0.250000X-0.225000X0.250000X-0.225000X0.250000X0.225000X0*%
%TD*%
%TA.AperFunction,SMDPad,CuDef*%
%ADD18RoundRect,0.150000X0.150000X-0.825000X0.150000X0.825000X-0.150000X0.825000X-0.150000X-0.825000X0*%
%TD*%
%TA.AperFunction,SMDPad,CuDef*%
%ADD19RoundRect,0.250000X-0.425000X0.450000X-0.425000X-0.450000X0.425000X-0.450000X0.425000X0.450000X0*%
%TD*%
%TA.AperFunction,SMDPad,CuDef*%
%ADD20RoundRect,0.200000X-0.200000X-0.275000X0.200000X-0.275000X0.200000X0.275000X-0.200000X0.275000X0*%
%TD*%
%TA.AperFunction,SMDPad,CuDef*%
%ADD21RoundRect,0.062500X-0.337500X-0.062500X0.337500X-0.062500X0.337500X0.062500X-0.337500X0.062500X0*%
%TD*%
%TA.AperFunction,SMDPad,CuDef*%
%ADD22RoundRect,0.062500X-0.062500X-0.337500X0.062500X-0.337500X0.062500X0.337500X-0.062500X0.337500X0*%
%TD*%
%TA.AperFunction,ComponentPad*%
%ADD23C,0.500000*%
%TD*%
%TA.AperFunction,SMDPad,CuDef*%
%ADD24R,3.700000X3.700000*%
%TD*%
%TA.AperFunction,SMDPad,CuDef*%
%ADD25RoundRect,0.225000X0.250000X-0.225000X0.250000X0.225000X-0.250000X0.225000X-0.250000X-0.225000X0*%
%TD*%
%TA.AperFunction,SMDPad,CuDef*%
%ADD26RoundRect,0.250000X0.425000X-0.450000X0.425000X0.450000X-0.425000X0.450000X-0.425000X-0.450000X0*%
%TD*%
%TA.AperFunction,SMDPad,CuDef*%
%ADD27RoundRect,0.225000X0.225000X0.250000X-0.225000X0.250000X-0.225000X-0.250000X0.225000X-0.250000X0*%
%TD*%
%TA.AperFunction,SMDPad,CuDef*%
%ADD28RoundRect,0.250000X0.450000X0.425000X-0.450000X0.425000X-0.450000X-0.425000X0.450000X-0.425000X0*%
%TD*%
%TA.AperFunction,SMDPad,CuDef*%
%ADD29RoundRect,0.150000X-0.825000X-0.150000X0.825000X-0.150000X0.825000X0.150000X-0.825000X0.150000X0*%
%TD*%
%TA.AperFunction,ComponentPad*%
%ADD30R,1.700000X1.700000*%
%TD*%
%TA.AperFunction,ComponentPad*%
%ADD31O,1.700000X1.700000*%
%TD*%
%TA.AperFunction,ViaPad*%
%ADD32C,0.800000*%
%TD*%
%TA.AperFunction,Conductor*%
%ADD33C,0.250000*%
%TD*%
%TA.AperFunction,Conductor*%
%ADD34C,0.254000*%
%TD*%
G04 APERTURE END LIST*
D10*
%TO.P,R29,1*%
%TO.N,Net-(R27-Pad2)*%
X2032000Y-32321000D03*
%TO.P,R29,2*%
%TO.N,/dual_mono_inputs2/IN2_3V*%
X2032000Y-30671000D03*
%TD*%
D11*
%TO.P,R6,1*%
%TO.N,Net-(R3-Pad2)*%
X17589000Y-49530000D03*
%TO.P,R6,2*%
%TO.N,GND*%
X15939000Y-49530000D03*
%TD*%
D12*
%TO.P,R17,1*%
%TO.N,Net-(R16-Pad2)*%
X23368000Y-30671000D03*
%TO.P,R17,2*%
%TO.N,Net-(R17-Pad2)*%
X23368000Y-32321000D03*
%TD*%
D10*
%TO.P,R42,1*%
%TO.N,/dual_mono_outputs2/OUT1*%
X26924000Y-77533000D03*
%TO.P,R42,2*%
%TO.N,Net-(R41-Pad2)*%
X26924000Y-75883000D03*
%TD*%
%TO.P,R47,1*%
%TO.N,/dual_mono_outputs2/OUT2*%
X27940000Y-69913000D03*
%TO.P,R47,2*%
%TO.N,Net-(R46-Pad2)*%
X27940000Y-68263000D03*
%TD*%
D12*
%TO.P,R45,1*%
%TO.N,Net-(R44-Pad1)*%
X22860000Y-75883000D03*
%TO.P,R45,2*%
%TO.N,GND*%
X22860000Y-77533000D03*
%TD*%
D13*
%TO.P,J6,S*%
%TO.N,GND*%
X2412000Y-21428000D03*
D14*
X11812000Y-21428000D03*
D15*
%TO.P,J6,T*%
%TO.N,Net-(J6-PadT)*%
X7112000Y-16028000D03*
%TO.P,J6,TN*%
%TO.N,unconnected-(J6-PadTN)*%
X7112000Y-24128000D03*
%TD*%
D12*
%TO.P,R34,1*%
%TO.N,Net-(R34-Pad1)*%
X3556000Y-76391000D03*
%TO.P,R34,2*%
%TO.N,Net-(R33-Pad1)*%
X3556000Y-78041000D03*
%TD*%
D16*
%TO.P,C4,1*%
%TO.N,+3.3VA*%
X13449000Y-56134000D03*
%TO.P,C4,2*%
%TO.N,GND*%
X14999000Y-56134000D03*
%TD*%
D12*
%TO.P,R30,1*%
%TO.N,Net-(R30-Pad1)*%
X9144000Y-34227000D03*
%TO.P,R30,2*%
%TO.N,GND*%
X9144000Y-35877000D03*
%TD*%
D17*
%TO.P,C14,1*%
%TO.N,+12V*%
X8636000Y-41897000D03*
%TO.P,C14,2*%
%TO.N,GND*%
X8636000Y-43447000D03*
%TD*%
D12*
%TO.P,R39,1*%
%TO.N,Net-(R39-Pad1)*%
X3365000Y-65215000D03*
%TO.P,R39,2*%
%TO.N,Net-(R38-Pad1)*%
X3365000Y-66865000D03*
%TD*%
D18*
%TO.P,U5,1*%
%TO.N,Net-(R22-Pad2)*%
X3175000Y-39559000D03*
%TO.P,U5,2,-*%
%TO.N,Net-(R21-Pad2)*%
X4445000Y-39559000D03*
%TO.P,U5,3,+*%
%TO.N,Net-(R25-Pad1)*%
X5715000Y-39559000D03*
%TO.P,U5,4,V-*%
%TO.N,-12V*%
X6985000Y-39559000D03*
%TO.P,U5,5,+*%
%TO.N,Net-(R30-Pad1)*%
X6985000Y-34609000D03*
%TO.P,U5,6,-*%
%TO.N,Net-(R26-Pad2)*%
X5715000Y-34609000D03*
%TO.P,U5,7*%
%TO.N,Net-(R27-Pad2)*%
X4445000Y-34609000D03*
%TO.P,U5,8,V+*%
%TO.N,+12V*%
X3175000Y-34609000D03*
%TD*%
D11*
%TO.P,R5,1*%
%TO.N,Net-(R5-Pad1)*%
X28765000Y-47244000D03*
%TO.P,R5,2*%
%TO.N,Net-(R4-Pad1)*%
X27115000Y-47244000D03*
%TD*%
D12*
%TO.P,R1,1*%
%TO.N,VDD*%
X11176000Y-65723000D03*
%TO.P,R1,2*%
%TO.N,/SCL*%
X11176000Y-67373000D03*
%TD*%
D19*
%TO.P,C10,1*%
%TO.N,Net-(C10-Pad1)*%
X12192000Y-59102000D03*
%TO.P,C10,2*%
%TO.N,GND*%
X12192000Y-61802000D03*
%TD*%
D20*
%TO.P,R3,1*%
%TO.N,+3.3VA*%
X15939000Y-51562000D03*
%TO.P,R3,2*%
%TO.N,Net-(R3-Pad2)*%
X17589000Y-51562000D03*
%TD*%
D10*
%TO.P,R11,1*%
%TO.N,/-VCOM*%
X20320000Y-39941000D03*
%TO.P,R11,2*%
%TO.N,Net-(R11-Pad2)*%
X20320000Y-38291000D03*
%TD*%
D12*
%TO.P,R43,1*%
%TO.N,Net-(R43-Pad1)*%
X20828000Y-75883000D03*
%TO.P,R43,2*%
%TO.N,Net-(J10-PadT)*%
X20828000Y-77533000D03*
%TD*%
D10*
%TO.P,R48,1*%
%TO.N,Net-(R48-Pad1)*%
X23368000Y-66357000D03*
%TO.P,R48,2*%
%TO.N,Net-(J11-PadT)*%
X23368000Y-64707000D03*
%TD*%
D21*
%TO.P,U3,1,SDIN1*%
%TO.N,/SDIN1*%
X6694000Y-53114000D03*
%TO.P,U3,2,SDIN2*%
%TO.N,/SDIN2*%
X6694000Y-53614000D03*
%TO.P,U3,3,TVDD*%
%TO.N,VDD*%
X6694000Y-54114000D03*
%TO.P,U3,4,VSS2*%
%TO.N,GND*%
X6694000Y-54614000D03*
%TO.P,U3,5,AVDRV*%
%TO.N,Net-(C9-Pad1)*%
X6694000Y-55114000D03*
%TO.P,U3,6,LRCK*%
%TO.N,/LRCK*%
X6694000Y-55614000D03*
%TO.P,U3,7,BICK*%
%TO.N,/BICK*%
X6694000Y-56114000D03*
%TO.P,U3,8,MCLK*%
%TO.N,/MCLK*%
X6694000Y-56614000D03*
D22*
%TO.P,U3,9,IN4N/AIN5R/GND6R*%
%TO.N,unconnected-(U3-Pad9)*%
X7394000Y-57314000D03*
%TO.P,U3,10,IN4P/AIN4R/AIN6R*%
%TO.N,/dual_mono_inputs2/IN2_3V*%
X7894000Y-57314000D03*
%TO.P,U3,11,IN3N/AIN5L/GND6L*%
%TO.N,unconnected-(U3-Pad11)*%
X8394000Y-57314000D03*
%TO.P,U3,12,IN3P/AIN4L/AIN6L*%
%TO.N,/dual_mono_inputs2/IN1_3V*%
X8894000Y-57314000D03*
%TO.P,U3,13,IN2N/AIN2R/GND3R*%
%TO.N,unconnected-(U3-Pad13)*%
X9394000Y-57314000D03*
%TO.P,U3,14,IN2P/AIN1R/AIN3R*%
%TO.N,/dual_mono_inputs1/IN2_3V*%
X9894000Y-57314000D03*
%TO.P,U3,15,IN1N/AIN2L/GND3L*%
%TO.N,unconnected-(U3-Pad15)*%
X10394000Y-57314000D03*
%TO.P,U3,16,IN1P/AIN1L/AIN3L*%
%TO.N,/dual_mono_inputs1/IN1_3V*%
X10894000Y-57314000D03*
D21*
%TO.P,U3,17,VCOM*%
%TO.N,Net-(C10-Pad1)*%
X11594000Y-56614000D03*
%TO.P,U3,18,AVDD*%
%TO.N,+3.3VA*%
X11594000Y-56114000D03*
%TO.P,U3,19,VSS1*%
%TO.N,GND*%
X11594000Y-55614000D03*
%TO.P,U3,20,VREFL*%
X11594000Y-55114000D03*
%TO.P,U3,21,VREFH*%
%TO.N,+3.3VA*%
X11594000Y-54614000D03*
%TO.P,U3,22,AOUT1L*%
%TO.N,/dual_mono_outputs1/OUT1*%
X11594000Y-54114000D03*
%TO.P,U3,23,AOUT1R*%
%TO.N,/dual_mono_outputs1/OUT2*%
X11594000Y-53614000D03*
%TO.P,U3,24,AOUT2L*%
%TO.N,/dual_mono_outputs2/OUT1*%
X11594000Y-53114000D03*
D22*
%TO.P,U3,25,AOUT2R*%
%TO.N,/dual_mono_outputs2/OUT2*%
X10894000Y-52414000D03*
%TO.P,U3,26,PDN*%
%TO.N,/PDN*%
X10394000Y-52414000D03*
%TO.P,U3,27,CAD/~{CS}*%
%TO.N,/CAD{slash}~{CS}*%
X9894000Y-52414000D03*
%TO.P,U3,28,SCL/SCLK*%
%TO.N,/SCL*%
X9394000Y-52414000D03*
%TO.P,U3,29,SI*%
%TO.N,/SI*%
X8894000Y-52414000D03*
%TO.P,U3,30,SDA/SO*%
%TO.N,/SDA*%
X8394000Y-52414000D03*
%TO.P,U3,31,SDOUT1*%
%TO.N,/SDOUT1*%
X7894000Y-52414000D03*
%TO.P,U3,32,SDOUT2*%
%TO.N,/SDOUT2*%
X7394000Y-52414000D03*
D23*
%TO.P,U3,33,PAD*%
%TO.N,GND*%
X9144000Y-53864000D03*
X8144000Y-54864000D03*
X9144000Y-55864000D03*
X10144000Y-55864000D03*
X10144000Y-54864000D03*
X8144000Y-53864000D03*
X9144000Y-54864000D03*
X8144000Y-55864000D03*
X10144000Y-53864000D03*
D24*
X9144000Y-54864000D03*
%TD*%
D25*
%TO.P,C16,1*%
%TO.N,GND*%
X9144000Y-78499000D03*
%TO.P,C16,2*%
%TO.N,-12V*%
X9144000Y-76949000D03*
%TD*%
D12*
%TO.P,R27,1*%
%TO.N,Net-(R26-Pad2)*%
X4064000Y-30671000D03*
%TO.P,R27,2*%
%TO.N,Net-(R27-Pad2)*%
X4064000Y-32321000D03*
%TD*%
%TO.P,R25,1*%
%TO.N,Net-(R25-Pad1)*%
X6604000Y-41847000D03*
%TO.P,R25,2*%
%TO.N,GND*%
X6604000Y-43497000D03*
%TD*%
D14*
%TO.P,J4,S*%
%TO.N,GND*%
X27052000Y-21428000D03*
D13*
X17652000Y-21428000D03*
D15*
%TO.P,J4,T*%
%TO.N,Net-(J4-PadT)*%
X22352000Y-16028000D03*
%TO.P,J4,TN*%
%TO.N,unconnected-(J4-PadTN)*%
X22352000Y-24128000D03*
%TD*%
D14*
%TO.P,J11,S*%
%TO.N,GND*%
X27052000Y-103216000D03*
D13*
X17652000Y-103216000D03*
D15*
%TO.P,J11,T*%
%TO.N,Net-(J11-PadT)*%
X22352000Y-97816000D03*
%TO.P,J11,TN*%
%TO.N,unconnected-(J11-PadTN)*%
X22352000Y-105916000D03*
%TD*%
D12*
%TO.P,R33,1*%
%TO.N,Net-(R33-Pad1)*%
X1524000Y-76391000D03*
%TO.P,R33,2*%
%TO.N,Net-(J8-PadT)*%
X1524000Y-78041000D03*
%TD*%
D13*
%TO.P,J9,S*%
%TO.N,GND*%
X2412000Y-103216000D03*
D14*
X11812000Y-103216000D03*
D15*
%TO.P,J9,T*%
%TO.N,Net-(J9-PadT)*%
X7112000Y-97816000D03*
%TO.P,J9,TN*%
%TO.N,unconnected-(J9-PadTN)*%
X7112000Y-105916000D03*
%TD*%
D10*
%TO.P,R2,1*%
%TO.N,VDD*%
X11176000Y-70738000D03*
%TO.P,R2,2*%
%TO.N,/SDA*%
X11176000Y-69088000D03*
%TD*%
%TO.P,R49,1*%
%TO.N,Net-(R49-Pad1)*%
X25400000Y-66357000D03*
%TO.P,R49,2*%
%TO.N,Net-(R48-Pad1)*%
X25400000Y-64707000D03*
%TD*%
D12*
%TO.P,R26,1*%
%TO.N,/-VCOM*%
X8128000Y-30671000D03*
%TO.P,R26,2*%
%TO.N,Net-(R26-Pad2)*%
X8128000Y-32321000D03*
%TD*%
D10*
%TO.P,R22,1*%
%TO.N,Net-(R21-Pad2)*%
X2540000Y-43497000D03*
%TO.P,R22,2*%
%TO.N,Net-(R22-Pad2)*%
X2540000Y-41847000D03*
%TD*%
D12*
%TO.P,R44,1*%
%TO.N,Net-(R44-Pad1)*%
X19812000Y-72327000D03*
%TO.P,R44,2*%
%TO.N,Net-(R43-Pad1)*%
X19812000Y-73977000D03*
%TD*%
D20*
%TO.P,R7,1*%
%TO.N,Net-(R7-Pad1)*%
X27115000Y-52324000D03*
%TO.P,R7,2*%
%TO.N,GND*%
X28765000Y-52324000D03*
%TD*%
D26*
%TO.P,C11,1*%
%TO.N,+12V*%
X19812000Y-66882000D03*
%TO.P,C11,2*%
%TO.N,GND*%
X19812000Y-64182000D03*
%TD*%
D12*
%TO.P,R18,1*%
%TO.N,Net-(J5-PadT)*%
X25400000Y-30671000D03*
%TO.P,R18,2*%
%TO.N,Net-(R16-Pad2)*%
X25400000Y-32321000D03*
%TD*%
D10*
%TO.P,R23,1*%
%TO.N,Net-(J6-PadT)*%
X4572000Y-43497000D03*
%TO.P,R23,2*%
%TO.N,Net-(R21-Pad2)*%
X4572000Y-41847000D03*
%TD*%
D18*
%TO.P,U4,1*%
%TO.N,Net-(R12-Pad2)*%
X22479000Y-39559000D03*
%TO.P,U4,2,-*%
%TO.N,Net-(R11-Pad2)*%
X23749000Y-39559000D03*
%TO.P,U4,3,+*%
%TO.N,Net-(R15-Pad1)*%
X25019000Y-39559000D03*
%TO.P,U4,4,V-*%
%TO.N,-12V*%
X26289000Y-39559000D03*
%TO.P,U4,5,+*%
%TO.N,Net-(R20-Pad1)*%
X26289000Y-34609000D03*
%TO.P,U4,6,-*%
%TO.N,Net-(R16-Pad2)*%
X25019000Y-34609000D03*
%TO.P,U4,7*%
%TO.N,Net-(R17-Pad2)*%
X23749000Y-34609000D03*
%TO.P,U4,8,V+*%
%TO.N,+12V*%
X22479000Y-34609000D03*
%TD*%
D20*
%TO.P,R4,1*%
%TO.N,Net-(R4-Pad1)*%
X27115000Y-50292000D03*
%TO.P,R4,2*%
%TO.N,/-VCOM*%
X28765000Y-50292000D03*
%TD*%
D19*
%TO.P,C13,1*%
%TO.N,+12V*%
X10668000Y-42338000D03*
%TO.P,C13,2*%
%TO.N,GND*%
X10668000Y-45038000D03*
%TD*%
D12*
%TO.P,R37,1*%
%TO.N,/dual_mono_outputs1/OUT2*%
X7429000Y-65215000D03*
%TO.P,R37,2*%
%TO.N,Net-(R36-Pad2)*%
X7429000Y-66865000D03*
%TD*%
D26*
%TO.P,C15,1*%
%TO.N,GND*%
X11176000Y-78058000D03*
%TO.P,C15,2*%
%TO.N,-12V*%
X11176000Y-75358000D03*
%TD*%
D19*
%TO.P,C3,1*%
%TO.N,+3.3VA*%
X14478000Y-58086000D03*
%TO.P,C3,2*%
%TO.N,GND*%
X14478000Y-60786000D03*
%TD*%
D27*
%TO.P,C6,1*%
%TO.N,VDD*%
X5347000Y-54356000D03*
%TO.P,C6,2*%
%TO.N,GND*%
X3797000Y-54356000D03*
%TD*%
D26*
%TO.P,C17,1*%
%TO.N,GND*%
X19304000Y-34370000D03*
%TO.P,C17,2*%
%TO.N,-12V*%
X19304000Y-31670000D03*
%TD*%
D28*
%TO.P,C5,1*%
%TO.N,VDD*%
X4906000Y-52324000D03*
%TO.P,C5,2*%
%TO.N,GND*%
X2206000Y-52324000D03*
%TD*%
D10*
%TO.P,R46,1*%
%TO.N,/-VCOM*%
X27940000Y-73977000D03*
%TO.P,R46,2*%
%TO.N,Net-(R46-Pad2)*%
X27940000Y-72327000D03*
%TD*%
%TO.P,R10,1*%
%TO.N,/SI*%
X8636000Y-49339000D03*
%TO.P,R10,2*%
%TO.N,GND*%
X8636000Y-47689000D03*
%TD*%
D12*
%TO.P,R35,1*%
%TO.N,Net-(R34-Pad1)*%
X5588000Y-76391000D03*
%TO.P,R35,2*%
%TO.N,GND*%
X5588000Y-78041000D03*
%TD*%
D17*
%TO.P,C18,1*%
%TO.N,GND*%
X18288000Y-28181000D03*
%TO.P,C18,2*%
%TO.N,-12V*%
X18288000Y-29731000D03*
%TD*%
D10*
%TO.P,R9,1*%
%TO.N,/CAD{slash}~{CS}*%
X10668000Y-49847000D03*
%TO.P,R9,2*%
%TO.N,GND*%
X10668000Y-48197000D03*
%TD*%
D18*
%TO.P,U7,1*%
%TO.N,Net-(R43-Pad1)*%
X21971000Y-73595000D03*
%TO.P,U7,2,-*%
%TO.N,Net-(R44-Pad1)*%
X23241000Y-73595000D03*
%TO.P,U7,3,+*%
%TO.N,Net-(R41-Pad2)*%
X24511000Y-73595000D03*
%TO.P,U7,4,V-*%
%TO.N,-12V*%
X25781000Y-73595000D03*
%TO.P,U7,5,+*%
%TO.N,Net-(R46-Pad2)*%
X25781000Y-68645000D03*
%TO.P,U7,6,-*%
%TO.N,Net-(R49-Pad1)*%
X24511000Y-68645000D03*
%TO.P,U7,7*%
%TO.N,Net-(R48-Pad1)*%
X23241000Y-68645000D03*
%TO.P,U7,8,V+*%
%TO.N,+12V*%
X21971000Y-68645000D03*
%TD*%
D12*
%TO.P,R21,1*%
%TO.N,/-VCOM*%
X9144000Y-38291000D03*
%TO.P,R21,2*%
%TO.N,Net-(R21-Pad2)*%
X9144000Y-39941000D03*
%TD*%
D25*
%TO.P,C12,1*%
%TO.N,+12V*%
X21844000Y-66307000D03*
%TO.P,C12,2*%
%TO.N,GND*%
X21844000Y-64757000D03*
%TD*%
D12*
%TO.P,R19,1*%
%TO.N,Net-(R17-Pad2)*%
X21336000Y-30671000D03*
%TO.P,R19,2*%
%TO.N,/dual_mono_inputs1/IN2_3V*%
X21336000Y-32321000D03*
%TD*%
D13*
%TO.P,J10,S*%
%TO.N,GND*%
X17652000Y-89500000D03*
D14*
X27052000Y-89500000D03*
D15*
%TO.P,J10,T*%
%TO.N,Net-(J10-PadT)*%
X22352000Y-84100000D03*
%TO.P,J10,TN*%
%TO.N,unconnected-(J10-PadTN)*%
X22352000Y-92200000D03*
%TD*%
D12*
%TO.P,R15,1*%
%TO.N,Net-(R15-Pad1)*%
X25400000Y-41847000D03*
%TO.P,R15,2*%
%TO.N,GND*%
X25400000Y-43497000D03*
%TD*%
D13*
%TO.P,J8,S*%
%TO.N,GND*%
X2412000Y-89500000D03*
D14*
X11812000Y-89500000D03*
D15*
%TO.P,J8,T*%
%TO.N,Net-(J8-PadT)*%
X7112000Y-84100000D03*
%TO.P,J8,TN*%
%TO.N,unconnected-(J8-PadTN)*%
X7112000Y-92200000D03*
%TD*%
D29*
%TO.P,U2,1*%
%TO.N,Net-(R5-Pad1)*%
X19877000Y-48133000D03*
%TO.P,U2,2,-*%
X19877000Y-49403000D03*
%TO.P,U2,3,+*%
%TO.N,Net-(R3-Pad2)*%
X19877000Y-50673000D03*
%TO.P,U2,4,V-*%
%TO.N,-12V*%
X19877000Y-51943000D03*
%TO.P,U2,5,+*%
%TO.N,Net-(R7-Pad1)*%
X24827000Y-51943000D03*
%TO.P,U2,6,-*%
%TO.N,Net-(R4-Pad1)*%
X24827000Y-50673000D03*
%TO.P,U2,7*%
%TO.N,/-VCOM*%
X24827000Y-49403000D03*
%TO.P,U2,8,V+*%
%TO.N,+12V*%
X24827000Y-48133000D03*
%TD*%
D12*
%TO.P,R20,1*%
%TO.N,Net-(R20-Pad1)*%
X28448000Y-34227000D03*
%TO.P,R20,2*%
%TO.N,GND*%
X28448000Y-35877000D03*
%TD*%
D10*
%TO.P,R24,1*%
%TO.N,Net-(R22-Pad2)*%
X1016000Y-39941000D03*
%TO.P,R24,2*%
%TO.N,/dual_mono_inputs2/IN1_3V*%
X1016000Y-38291000D03*
%TD*%
D12*
%TO.P,R28,1*%
%TO.N,Net-(J7-PadT)*%
X6096000Y-30671000D03*
%TO.P,R28,2*%
%TO.N,Net-(R26-Pad2)*%
X6096000Y-32321000D03*
%TD*%
%TO.P,R31,1*%
%TO.N,/-VCOM*%
X8128000Y-72644000D03*
%TO.P,R31,2*%
%TO.N,Net-(R31-Pad2)*%
X8128000Y-74294000D03*
%TD*%
D10*
%TO.P,R13,1*%
%TO.N,Net-(J4-PadT)*%
X28448000Y-39941000D03*
%TO.P,R13,2*%
%TO.N,Net-(R11-Pad2)*%
X28448000Y-38291000D03*
%TD*%
D12*
%TO.P,R32,1*%
%TO.N,/dual_mono_outputs1/OUT1*%
X7620000Y-76391000D03*
%TO.P,R32,2*%
%TO.N,Net-(R31-Pad2)*%
X7620000Y-78041000D03*
%TD*%
D14*
%TO.P,J5,S*%
%TO.N,GND*%
X27052000Y-7712000D03*
D13*
X17652000Y-7712000D03*
D15*
%TO.P,J5,T*%
%TO.N,Net-(J5-PadT)*%
X22352000Y-2312000D03*
%TO.P,J5,TN*%
%TO.N,unconnected-(J5-PadTN)*%
X22352000Y-10412000D03*
%TD*%
D18*
%TO.P,U6,1*%
%TO.N,Net-(R33-Pad1)*%
X2159000Y-74103000D03*
%TO.P,U6,2,-*%
%TO.N,Net-(R34-Pad1)*%
X3429000Y-74103000D03*
%TO.P,U6,3,+*%
%TO.N,Net-(R31-Pad2)*%
X4699000Y-74103000D03*
%TO.P,U6,4,V-*%
%TO.N,-12V*%
X5969000Y-74103000D03*
%TO.P,U6,5,+*%
%TO.N,Net-(R36-Pad2)*%
X5969000Y-69153000D03*
%TO.P,U6,6,-*%
%TO.N,Net-(R39-Pad1)*%
X4699000Y-69153000D03*
%TO.P,U6,7*%
%TO.N,Net-(R38-Pad1)*%
X3429000Y-69153000D03*
%TO.P,U6,8,V+*%
%TO.N,+12V*%
X2159000Y-69153000D03*
%TD*%
D14*
%TO.P,J7,S*%
%TO.N,GND*%
X11812000Y-7712000D03*
D13*
X2412000Y-7712000D03*
D15*
%TO.P,J7,T*%
%TO.N,Net-(J7-PadT)*%
X7112000Y-2312000D03*
%TO.P,J7,TN*%
%TO.N,unconnected-(J7-PadTN)*%
X7112000Y-10412000D03*
%TD*%
D10*
%TO.P,R36,1*%
%TO.N,/-VCOM*%
X8128000Y-70421000D03*
%TO.P,R36,2*%
%TO.N,Net-(R36-Pad2)*%
X8128000Y-68771000D03*
%TD*%
D12*
%TO.P,R12,1*%
%TO.N,Net-(R11-Pad2)*%
X23368000Y-41847000D03*
%TO.P,R12,2*%
%TO.N,Net-(R12-Pad2)*%
X23368000Y-43497000D03*
%TD*%
D11*
%TO.P,R8,1*%
%TO.N,/SDIN2*%
X5397000Y-50292000D03*
%TO.P,R8,2*%
%TO.N,GND*%
X3747000Y-50292000D03*
%TD*%
D10*
%TO.P,R41,1*%
%TO.N,/-VCOM*%
X24892000Y-77533000D03*
%TO.P,R41,2*%
%TO.N,Net-(R41-Pad2)*%
X24892000Y-75883000D03*
%TD*%
D12*
%TO.P,R14,1*%
%TO.N,Net-(R12-Pad2)*%
X21336000Y-41847000D03*
%TO.P,R14,2*%
%TO.N,/dual_mono_inputs1/IN1_3V*%
X21336000Y-43497000D03*
%TD*%
%TO.P,R16,1*%
%TO.N,/-VCOM*%
X27432000Y-30671000D03*
%TO.P,R16,2*%
%TO.N,Net-(R16-Pad2)*%
X27432000Y-32321000D03*
%TD*%
D10*
%TO.P,R40,1*%
%TO.N,Net-(R39-Pad1)*%
X5397000Y-66865000D03*
%TO.P,R40,2*%
%TO.N,GND*%
X5397000Y-65215000D03*
%TD*%
D19*
%TO.P,C9,1*%
%TO.N,Net-(C9-Pad1)*%
X2286000Y-55546000D03*
%TO.P,C9,2*%
%TO.N,GND*%
X2286000Y-58246000D03*
%TD*%
D10*
%TO.P,R38,1*%
%TO.N,Net-(R38-Pad1)*%
X1333000Y-66865000D03*
%TO.P,R38,2*%
%TO.N,Net-(J9-PadT)*%
X1333000Y-65215000D03*
%TD*%
%TO.P,R50,1*%
%TO.N,Net-(R49-Pad1)*%
X27432000Y-66357000D03*
%TO.P,R50,2*%
%TO.N,GND*%
X27432000Y-64707000D03*
%TD*%
D30*
%TO.P,J3,1,Pin_1*%
%TO.N,-12V*%
X16007000Y-28717000D03*
D31*
%TO.P,J3,2,Pin_2*%
X13467000Y-28717000D03*
%TO.P,J3,3,Pin_3*%
%TO.N,GND*%
X16007000Y-31257000D03*
%TO.P,J3,4,Pin_4*%
X13467000Y-31257000D03*
%TO.P,J3,5,Pin_5*%
X16007000Y-33797000D03*
%TO.P,J3,6,Pin_6*%
X13467000Y-33797000D03*
%TO.P,J3,7,Pin_7*%
X16007000Y-36337000D03*
%TO.P,J3,8,Pin_8*%
X13467000Y-36337000D03*
%TO.P,J3,9,Pin_9*%
%TO.N,+12V*%
X16007000Y-38877000D03*
%TO.P,J3,10,Pin_10*%
X13467000Y-38877000D03*
%TO.P,J3,11,Pin_11*%
%TO.N,+5V*%
X16007000Y-41417000D03*
%TO.P,J3,12,Pin_12*%
X13467000Y-41417000D03*
%TO.P,J3,13,Pin_13*%
%TO.N,unconnected-(J3-Pad13)*%
X16007000Y-43957000D03*
%TO.P,J3,14,Pin_14*%
%TO.N,unconnected-(J3-Pad14)*%
X13467000Y-43957000D03*
%TO.P,J3,15,Pin_15*%
%TO.N,unconnected-(J3-Pad15)*%
X16007000Y-46497000D03*
%TO.P,J3,16,Pin_16*%
%TO.N,unconnected-(J3-Pad16)*%
X13467000Y-46497000D03*
%TD*%
D30*
%TO.P,J1,1,Pin_1*%
%TO.N,/SDIN2*%
X19060000Y-56129000D03*
D31*
%TO.P,J1,2,Pin_2*%
%TO.N,/SI*%
X19060000Y-58669000D03*
%TO.P,J1,3,Pin_3*%
%TO.N,/SDOUT2*%
X21600000Y-56129000D03*
%TO.P,J1,4,Pin_4*%
%TO.N,/CAD{slash}~{CS}*%
X21600000Y-58669000D03*
%TO.P,J1,5,Pin_5*%
%TO.N,+3.3VA*%
X24140000Y-56129000D03*
%TO.P,J1,6,Pin_6*%
%TO.N,VDD*%
X24140000Y-58669000D03*
%TO.P,J1,7,Pin_7*%
%TO.N,GND*%
X26680000Y-56129000D03*
%TO.P,J1,8,Pin_8*%
X26680000Y-58669000D03*
%TD*%
D30*
%TO.P,J2,1,Pin_1*%
%TO.N,/SDIN1*%
X17023000Y-67564000D03*
D31*
%TO.P,J2,2,Pin_2*%
%TO.N,/SCL*%
X14483000Y-67564000D03*
%TO.P,J2,3,Pin_3*%
%TO.N,/SDOUT1*%
X17023000Y-70104000D03*
%TO.P,J2,4,Pin_4*%
%TO.N,/SDA*%
X14483000Y-70104000D03*
%TO.P,J2,5,Pin_5*%
%TO.N,/LRCK*%
X17023000Y-72644000D03*
%TO.P,J2,6,Pin_6*%
%TO.N,/PDN*%
X14483000Y-72644000D03*
%TO.P,J2,7,Pin_7*%
%TO.N,/BICK*%
X17023000Y-75184000D03*
%TO.P,J2,8,Pin_8*%
%TO.N,/MCLK*%
X14483000Y-75184000D03*
%TO.P,J2,9,Pin_9*%
%TO.N,GND*%
X17023000Y-77724000D03*
%TO.P,J2,10,Pin_10*%
X14483000Y-77724000D03*
%TO.P,J2,11,Pin_11*%
%TO.N,VDD*%
X17023000Y-80264000D03*
%TO.P,J2,12,Pin_12*%
X14483000Y-80264000D03*
%TD*%
D32*
%TO.N,+5V*%
X14478000Y-26416000D03*
X11176000Y-11684000D03*
%TO.N,GND*%
X28448000Y-57404000D03*
X17272000Y-45720000D03*
X27940000Y-44958000D03*
X27432000Y-64008000D03*
X12446000Y-48006000D03*
X14732000Y-61722000D03*
X7620000Y-44704000D03*
X7874000Y-47244000D03*
X4826000Y-64516000D03*
X19304000Y-33528000D03*
X19304000Y-35306000D03*
X22885542Y-78364989D03*
X28448000Y-36576000D03*
X21844000Y-63754000D03*
X2540000Y-54102000D03*
X19812000Y-63246000D03*
X28579011Y-53575578D03*
X10725444Y-46044989D03*
X2286000Y-57658000D03*
X17018000Y-59690000D03*
X5588000Y-78994000D03*
X25400000Y-44196000D03*
X9144000Y-36830000D03*
X9733586Y-59871012D03*
X15507065Y-49655105D03*
X10079667Y-79031500D03*
X18288000Y-27178000D03*
X15748000Y-56134000D03*
%TO.N,+3.3VA*%
X13462001Y-49293941D03*
X14732000Y-54864000D03*
X20720303Y-54976962D03*
X17018000Y-40132000D03*
X18692544Y-54536799D03*
X16764000Y-24892000D03*
X12125937Y-43406901D03*
X15494000Y-17018000D03*
%TO.N,VDD*%
X18796000Y-62230000D03*
X17018000Y-64770000D03*
X16764000Y-62738000D03*
X4906000Y-53420000D03*
X12954000Y-64516000D03*
X9652000Y-65786000D03*
%TO.N,+12V*%
X24892000Y-47244000D03*
X22940333Y-45682500D03*
X22098000Y-71120000D03*
X8890000Y-40940500D03*
X19812000Y-68072000D03*
X3556000Y-37592000D03*
X10668000Y-73406000D03*
X26924000Y-53594000D03*
X19284982Y-36332419D03*
X23717989Y-60415949D03*
%TO.N,-12V*%
X6858000Y-37592000D03*
X25654000Y-72136000D03*
X26162000Y-38354000D03*
X10922000Y-37592000D03*
X28194000Y-41402000D03*
X19812000Y-44958000D03*
X11430000Y-76454000D03*
X26447498Y-67276879D03*
X23368000Y-36830000D03*
%TO.N,/SDIN2*%
X22098000Y-48514000D03*
X21590000Y-53594000D03*
X19080665Y-46258665D03*
%TO.N,/SI*%
X9144000Y-49784000D03*
X12370046Y-50460413D03*
%TO.N,/SDIN1*%
X6655020Y-51766077D03*
X12446000Y-68834000D03*
X7112000Y-63246000D03*
%TO.N,/SCL*%
X11938000Y-67564000D03*
X9903185Y-50797185D03*
%TO.N,/SDOUT1*%
X14630557Y-65494500D03*
X6858000Y-50292000D03*
%TO.N,/SDA*%
X8386326Y-50795728D03*
X11176000Y-68580000D03*
%TO.N,/LRCK*%
X3691988Y-56104674D03*
X3729667Y-61176500D03*
%TO.N,/PDN*%
X11430000Y-50800000D03*
%TO.N,/BICK*%
X4892093Y-61850119D03*
X4661989Y-56345720D03*
%TO.N,/MCLK*%
X6214504Y-62413000D03*
X5610364Y-57566691D03*
%TO.N,Net-(J4-PadT)*%
X22606000Y-20828000D03*
X25908000Y-24892000D03*
%TO.N,Net-(J6-PadT)*%
X1016000Y-36576000D03*
X1016000Y-43942000D03*
%TO.N,Net-(J11-PadT)*%
X23876000Y-75184000D03*
X23626299Y-63250299D03*
%TO.N,/-VCOM*%
X28448000Y-30988000D03*
X29210000Y-42926000D03*
X9398000Y-72390000D03*
X28702000Y-71120000D03*
X24892000Y-78740000D03*
X28448000Y-63500000D03*
X20828000Y-40640000D03*
X29210000Y-49022000D03*
X28739500Y-60768637D03*
X26670000Y-41148000D03*
%TO.N,/dual_mono_inputs1/IN1_3V*%
X20320000Y-42672000D03*
X17022299Y-58669701D03*
%TO.N,/dual_mono_inputs1/IN2_3V*%
X21371500Y-33801005D03*
X1016000Y-60452000D03*
%TO.N,/dual_mono_inputs2/IN1_3V*%
X2032000Y-45466000D03*
X2032000Y-38354000D03*
%TO.N,/dual_mono_inputs2/IN2_3V*%
X3551701Y-45715701D03*
X2032000Y-35814000D03*
%TO.N,/dual_mono_outputs1/OUT1*%
X13970000Y-54102000D03*
X22860000Y-53594000D03*
X22549312Y-62024090D03*
X22606000Y-60452000D03*
%TO.N,/dual_mono_outputs1/OUT2*%
X8128000Y-65532000D03*
X10668000Y-62738000D03*
X13208000Y-53086000D03*
X17532313Y-61228911D03*
%TO.N,/dual_mono_outputs2/OUT1*%
X12446000Y-52070000D03*
X24130000Y-53594000D03*
X28448000Y-77470000D03*
X26277425Y-60096173D03*
%TD*%
D33*
%TO.N,+5V*%
X11176000Y-12446000D02*
X11176000Y-11684000D01*
X14478000Y-26416000D02*
X14478000Y-13716000D01*
X16007000Y-41417000D02*
X13467000Y-41417000D01*
X13208000Y-12446000D02*
X11176000Y-12446000D01*
X14478000Y-13716000D02*
X13208000Y-12446000D01*
%TO.N,GND*%
X9585000Y-78058000D02*
X9144000Y-78499000D01*
X26680000Y-56129000D02*
X26680000Y-58669000D01*
X19812000Y-62221400D02*
X19812000Y-63246000D01*
X9394000Y-55114000D02*
X9144000Y-54864000D01*
X14478000Y-60786000D02*
X14478000Y-61468000D01*
X13208000Y-60786000D02*
X12192000Y-61802000D01*
X8636000Y-48006000D02*
X7874000Y-47244000D01*
X3797000Y-54356000D02*
X2794000Y-54356000D01*
X10160000Y-47689000D02*
X10668000Y-48197000D01*
D34*
X15507065Y-49289065D02*
X14224000Y-48006000D01*
D33*
X19304000Y-34370000D02*
X19304000Y-35306000D01*
X6694000Y-54614000D02*
X8894000Y-54614000D01*
X25400000Y-44196000D02*
X27178000Y-44196000D01*
D34*
X28448000Y-57404000D02*
X27955000Y-57404000D01*
X15507065Y-49655105D02*
X15507065Y-49289065D01*
D33*
X8636000Y-47689000D02*
X10160000Y-47689000D01*
X7633000Y-44691000D02*
X7620000Y-44704000D01*
X21844000Y-64757000D02*
X21844000Y-63754000D01*
X15922000Y-60786000D02*
X17018000Y-59690000D01*
X11176000Y-78058000D02*
X10080000Y-78058000D01*
X27432000Y-64707000D02*
X27432000Y-64008000D01*
D34*
X15939000Y-49530000D02*
X15632170Y-49530000D01*
D33*
X11594000Y-55614000D02*
X9894000Y-55614000D01*
X5397000Y-65215000D02*
X5397000Y-65087000D01*
X5588000Y-78041000D02*
X5588000Y-78994000D01*
X14478000Y-61468000D02*
X14732000Y-61722000D01*
X10668000Y-45038000D02*
X10668000Y-45987545D01*
X14478000Y-60786000D02*
X15922000Y-60786000D01*
D34*
X14224000Y-48006000D02*
X12446000Y-48006000D01*
D33*
X22860000Y-78339447D02*
X22885542Y-78364989D01*
X3747000Y-50783000D02*
X2206000Y-52324000D01*
X5397000Y-65087000D02*
X4826000Y-64516000D01*
X8636000Y-43447000D02*
X7633000Y-43447000D01*
D34*
X15632170Y-49530000D02*
X15507065Y-49655105D01*
D33*
X10080000Y-78058000D02*
X9585000Y-78058000D01*
X7633000Y-43447000D02*
X6654000Y-43447000D01*
X9144000Y-35877000D02*
X9144000Y-36830000D01*
X10080000Y-79031167D02*
X10079667Y-79031500D01*
X8894000Y-54614000D02*
X9144000Y-54864000D01*
D34*
X27955000Y-57404000D02*
X26680000Y-56129000D01*
D33*
X25400000Y-43497000D02*
X25400000Y-44196000D01*
X12192000Y-61802000D02*
X10261012Y-59871012D01*
X6654000Y-43447000D02*
X6604000Y-43497000D01*
X9614500Y-55334500D02*
X9144000Y-54864000D01*
X10261012Y-59871012D02*
X9733586Y-59871012D01*
X27178000Y-44196000D02*
X27940000Y-44958000D01*
X13467000Y-36337000D02*
X16007000Y-36337000D01*
X9894000Y-55614000D02*
X9144000Y-54864000D01*
X14478000Y-60786000D02*
X13208000Y-60786000D01*
X2286000Y-58246000D02*
X2286000Y-57658000D01*
D34*
X28765000Y-52324000D02*
X28765000Y-53389589D01*
D33*
X2206000Y-52324000D02*
X2206000Y-53768000D01*
X2206000Y-53768000D02*
X2540000Y-54102000D01*
X7633000Y-43447000D02*
X7633000Y-44691000D01*
X17280600Y-59690000D02*
X19812000Y-62221400D01*
D34*
X28765000Y-53389589D02*
X28579011Y-53575578D01*
D33*
X10668000Y-45987545D02*
X10725444Y-46044989D01*
X19812000Y-64182000D02*
X19812000Y-63246000D01*
D34*
X15507065Y-49655105D02*
X17272000Y-47890170D01*
D33*
X14999000Y-56134000D02*
X15748000Y-56134000D01*
X11594000Y-55114000D02*
X9394000Y-55114000D01*
X22860000Y-77533000D02*
X22860000Y-78339447D01*
X3747000Y-50292000D02*
X3747000Y-50783000D01*
X2794000Y-54356000D02*
X2540000Y-54102000D01*
D34*
X17272000Y-47890170D02*
X17272000Y-45720000D01*
D33*
X28448000Y-35877000D02*
X28448000Y-36576000D01*
X10080000Y-78058000D02*
X10080000Y-79031167D01*
X18288000Y-28181000D02*
X18288000Y-27178000D01*
X17018000Y-59690000D02*
X17280600Y-59690000D01*
D34*
%TO.N,+3.3VA*%
X14478000Y-58086000D02*
X14398000Y-58086000D01*
D33*
X15939000Y-51562000D02*
X15730060Y-51562000D01*
X20697830Y-54954489D02*
X19123346Y-54954489D01*
X13462000Y-56134000D02*
X14732000Y-54864000D01*
X11614000Y-56134000D02*
X11594000Y-56114000D01*
X19123346Y-54954489D02*
X15939000Y-51770143D01*
X13449000Y-54851000D02*
X13449000Y-56134000D01*
D34*
X14398000Y-58086000D02*
X13449000Y-57137000D01*
D33*
X11594000Y-54614000D02*
X12179400Y-54614000D01*
X15730060Y-51562000D02*
X13462001Y-49293941D01*
X13208000Y-54610000D02*
X13449000Y-54851000D01*
X12125937Y-43406901D02*
X12125937Y-41097053D01*
X13449000Y-56134000D02*
X13462000Y-56134000D01*
X16764000Y-24892000D02*
X15494000Y-23622000D01*
X15494000Y-23622000D02*
X15494000Y-17018000D01*
X13449000Y-56134000D02*
X11614000Y-56134000D01*
D34*
X13449000Y-57137000D02*
X13449000Y-56134000D01*
D33*
X12179400Y-54614000D02*
X12183400Y-54610000D01*
X12183400Y-54610000D02*
X13208000Y-54610000D01*
X13090990Y-40132000D02*
X17018000Y-40132000D01*
X12125937Y-41097053D02*
X13090990Y-40132000D01*
X20720303Y-54976962D02*
X20697830Y-54954489D01*
X15939000Y-51770143D02*
X15939000Y-51562000D01*
%TO.N,VDD*%
X4906000Y-52324000D02*
X4906000Y-53915000D01*
X11176000Y-72390000D02*
X12700000Y-73914000D01*
X11176000Y-70738000D02*
X11176000Y-72390000D01*
X12700000Y-78481000D02*
X14483000Y-80264000D01*
X12700000Y-73914000D02*
X12700000Y-78481000D01*
X16764000Y-62738000D02*
X18288000Y-62738000D01*
X11113000Y-65786000D02*
X11176000Y-65723000D01*
X9652000Y-69214000D02*
X9652000Y-65786000D01*
X11176000Y-70738000D02*
X9652000Y-69214000D01*
X12954000Y-64516000D02*
X13208000Y-64770000D01*
X5347000Y-54356000D02*
X5589000Y-54114000D01*
X5589000Y-54114000D02*
X6694000Y-54114000D01*
X9652000Y-65786000D02*
X11113000Y-65786000D01*
X13208000Y-64770000D02*
X17018000Y-64770000D01*
X4906000Y-53915000D02*
X5347000Y-54356000D01*
X18288000Y-62738000D02*
X18796000Y-62230000D01*
D34*
%TO.N,Net-(C9-Pad1)*%
X2674480Y-55157520D02*
X2286000Y-55546000D01*
X6650480Y-55157520D02*
X2674480Y-55157520D01*
X6694000Y-55114000D02*
X6650480Y-55157520D01*
%TO.N,Net-(C10-Pad1)*%
X12192000Y-57212000D02*
X11594000Y-56614000D01*
X12192000Y-59102000D02*
X12192000Y-57212000D01*
D33*
%TO.N,+12V*%
X22304717Y-45682500D02*
X22940333Y-45682500D01*
X8636000Y-41194500D02*
X8890000Y-40940500D01*
X19812000Y-68072000D02*
X19812000Y-66882000D01*
X6621186Y-72353969D02*
X7836697Y-73569480D01*
X26670000Y-60960000D02*
X24262040Y-60960000D01*
X3048000Y-34736000D02*
X3175000Y-34609000D01*
X10668000Y-42338000D02*
X10668000Y-40386000D01*
X10504520Y-73569480D02*
X10668000Y-73406000D01*
X16007000Y-38877000D02*
X17800849Y-38877000D01*
X10668000Y-42338000D02*
X10588000Y-42338000D01*
X17800849Y-38877000D02*
X19304000Y-40380151D01*
X26924000Y-53594000D02*
X27686000Y-54356000D01*
X10147000Y-41897000D02*
X8636000Y-41897000D01*
X29210000Y-58420000D02*
X26670000Y-60960000D01*
X7836697Y-73569480D02*
X10504520Y-73569480D01*
X28194000Y-54356000D02*
X29210000Y-55372000D01*
X10588000Y-42338000D02*
X10147000Y-41897000D01*
X19304000Y-42681783D02*
X22304717Y-45682500D01*
X2159000Y-69153000D02*
X2159000Y-69529072D01*
X4983897Y-72353969D02*
X6621186Y-72353969D01*
X27686000Y-54356000D02*
X28194000Y-54356000D01*
X22098000Y-68772000D02*
X21971000Y-68645000D01*
X20064181Y-36332419D02*
X19284982Y-36332419D01*
X24827000Y-48133000D02*
X24827000Y-47309000D01*
X19304000Y-40380151D02*
X19304000Y-42681783D01*
X12177000Y-38877000D02*
X13467000Y-38877000D01*
X22098000Y-71120000D02*
X22098000Y-68772000D01*
X3048000Y-37084000D02*
X3048000Y-34736000D01*
X24262040Y-60960000D02*
X23717989Y-60415949D01*
X29210000Y-55372000D02*
X29210000Y-58420000D01*
X21971000Y-66434000D02*
X21844000Y-66307000D01*
X21971000Y-68645000D02*
X21971000Y-66434000D01*
X10668000Y-40386000D02*
X12177000Y-38877000D01*
X2159000Y-69529072D02*
X4983897Y-72353969D01*
X21787600Y-34609000D02*
X20064181Y-36332419D01*
X24827000Y-47309000D02*
X24892000Y-47244000D01*
X22479000Y-34609000D02*
X21787600Y-34609000D01*
X13467000Y-38877000D02*
X16007000Y-38877000D01*
X8636000Y-41897000D02*
X8636000Y-41194500D01*
X3556000Y-37592000D02*
X3048000Y-37084000D01*
%TO.N,-12V*%
X19877000Y-51943000D02*
X20253072Y-51943000D01*
X19812000Y-46551928D02*
X19812000Y-44958000D01*
X20888072Y-50038000D02*
X20828000Y-50038000D01*
X25654000Y-72136000D02*
X25654000Y-73468000D01*
X17539000Y-29731000D02*
X16525000Y-28717000D01*
X7464303Y-75018520D02*
X9144000Y-76698217D01*
X18304480Y-32669520D02*
X18304480Y-37492263D01*
X10922000Y-30226000D02*
X12431000Y-28717000D01*
X10735000Y-75358000D02*
X11176000Y-75358000D01*
X13467000Y-28717000D02*
X16007000Y-28717000D01*
X18288000Y-29731000D02*
X17539000Y-29731000D01*
X25654000Y-72136000D02*
X25156480Y-71638480D01*
X25156480Y-67623448D02*
X25503049Y-67276879D01*
X11176000Y-75358000D02*
X11176000Y-76200000D01*
X18288000Y-30654000D02*
X19304000Y-31670000D01*
X26162000Y-39432000D02*
X26289000Y-39559000D01*
X28194000Y-41402000D02*
X28132000Y-41402000D01*
X26162000Y-38354000D02*
X26162000Y-39432000D01*
X20828000Y-50038000D02*
X18865928Y-50038000D01*
X18865928Y-50038000D02*
X18577480Y-49749552D01*
X9144000Y-76949000D02*
X10735000Y-75358000D01*
X6985000Y-37719000D02*
X6858000Y-37592000D01*
X21176520Y-50326448D02*
X20888072Y-50038000D01*
X18304480Y-37492263D02*
X19827737Y-39015520D01*
X21182480Y-39015520D02*
X23368000Y-36830000D01*
X25654000Y-73468000D02*
X25781000Y-73595000D01*
X19304000Y-31670000D02*
X18304480Y-32669520D01*
X6985000Y-39559000D02*
X6985000Y-37719000D01*
X10922000Y-37592000D02*
X10922000Y-30226000D01*
X18577480Y-49749552D02*
X18577480Y-47786448D01*
X28132000Y-41402000D02*
X26289000Y-39559000D01*
X25503049Y-67276879D02*
X26447498Y-67276879D01*
X16525000Y-28717000D02*
X16007000Y-28717000D01*
X9144000Y-76698217D02*
X9144000Y-76949000D01*
X25156480Y-71638480D02*
X25156480Y-67623448D01*
X18577480Y-47786448D02*
X19812000Y-46551928D01*
X21176520Y-51019552D02*
X21176520Y-50326448D01*
X18288000Y-29731000D02*
X18288000Y-30654000D01*
X5969000Y-74103000D02*
X6884520Y-75018520D01*
X11176000Y-76200000D02*
X11430000Y-76454000D01*
X12431000Y-28717000D02*
X13467000Y-28717000D01*
X6884520Y-75018520D02*
X7464303Y-75018520D01*
X20253072Y-51943000D02*
X21176520Y-51019552D01*
X19827737Y-39015520D02*
X21182480Y-39015520D01*
%TO.N,/SDIN2*%
X16971901Y-44995499D02*
X17817499Y-44995499D01*
X5930520Y-53297848D02*
X6246672Y-53614000D01*
X17817499Y-44995499D02*
X19080665Y-46258665D01*
X10922000Y-43434000D02*
X12619511Y-45131511D01*
X7112000Y-45720000D02*
X8128000Y-45720000D01*
X5397000Y-51127507D02*
X5930520Y-51661027D01*
X16835889Y-45131511D02*
X16971901Y-44995499D01*
X12619511Y-45131511D02*
X16835889Y-45131511D01*
X5930520Y-51661027D02*
X5930520Y-53297848D01*
X6246672Y-53614000D02*
X6694000Y-53614000D01*
X5397000Y-50292000D02*
X5397000Y-51127507D01*
X22098000Y-53086000D02*
X21590000Y-53594000D01*
X5397000Y-47435000D02*
X7112000Y-45720000D01*
X8128000Y-45720000D02*
X10414000Y-43434000D01*
X10414000Y-43434000D02*
X10922000Y-43434000D01*
X22098000Y-48514000D02*
X22098000Y-53086000D01*
X5397000Y-50292000D02*
X5397000Y-47435000D01*
D34*
%TO.N,/SI*%
X9144000Y-51065525D02*
X9144000Y-50038000D01*
X8894000Y-51375000D02*
X8894000Y-51315525D01*
D33*
X18681902Y-58669000D02*
X17508591Y-57495689D01*
X12613005Y-50460413D02*
X12370046Y-50460413D01*
X16959511Y-56955207D02*
X16959511Y-54806919D01*
X9144000Y-49784000D02*
X9144000Y-50038000D01*
X16959511Y-54806919D02*
X12613005Y-50460413D01*
X19060000Y-58669000D02*
X18681902Y-58669000D01*
D34*
X8894000Y-51315525D02*
X9144000Y-51065525D01*
D33*
X17508591Y-57495689D02*
X17499993Y-57495689D01*
X17499993Y-57495689D02*
X16959511Y-56955207D01*
X8894000Y-52414000D02*
X8894000Y-51375000D01*
D34*
%TO.N,/SDOUT2*%
X19350928Y-53812501D02*
X19525358Y-53638071D01*
X18574642Y-53638071D02*
X18749072Y-53812501D01*
X13273918Y-48459511D02*
X13672940Y-48459511D01*
X6131499Y-47959072D02*
X7573072Y-46517499D01*
X16665520Y-51858131D02*
X18445460Y-53638071D01*
X15585012Y-50760480D02*
X16357091Y-50760480D01*
X19525358Y-53638071D02*
X20408841Y-53638071D01*
X7394000Y-52414000D02*
X7394000Y-51477628D01*
X21600000Y-54829230D02*
X21600000Y-56129000D01*
X8174928Y-46517499D02*
X8428928Y-46771499D01*
X16665520Y-51068909D02*
X16665520Y-51858131D01*
X8428928Y-46771499D02*
X10785926Y-46771499D01*
X16357091Y-50760480D02*
X16665520Y-51068909D01*
X13000928Y-48732501D02*
X13273918Y-48459511D01*
X13672940Y-48459511D02*
X14188501Y-48975072D01*
X18445460Y-53638071D02*
X18574642Y-53638071D01*
X20408841Y-53638071D02*
X21600000Y-54829230D01*
X7573072Y-46517499D02*
X8174928Y-46517499D01*
X14188501Y-48975072D02*
X14188501Y-49363969D01*
X7394000Y-51477628D02*
X6934873Y-51018501D01*
X12145072Y-48732501D02*
X13000928Y-48732501D01*
X14188501Y-49363969D02*
X15585012Y-50760480D01*
X18749072Y-53812501D02*
X19350928Y-53812501D01*
X11719499Y-48306928D02*
X12145072Y-48732501D01*
X6131499Y-50592928D02*
X6131499Y-47959072D01*
X10785926Y-46771499D02*
X11719499Y-47705072D01*
X6557072Y-51018501D02*
X6131499Y-50592928D01*
X11719499Y-47705072D02*
X11719499Y-48306928D01*
X6934873Y-51018501D02*
X6557072Y-51018501D01*
D33*
%TO.N,/CAD{slash}~{CS}*%
X10668000Y-51056968D02*
X10668000Y-49847000D01*
X17885489Y-55097193D02*
X13774490Y-50986194D01*
X9894000Y-51830968D02*
X10668000Y-51056968D01*
X21600000Y-58669000D02*
X20234511Y-57303511D01*
X12670145Y-49735912D02*
X10779088Y-49735912D01*
X13774490Y-50986194D02*
X13774490Y-50840257D01*
X20234511Y-57303511D02*
X17952117Y-57303511D01*
X9894000Y-52414000D02*
X9894000Y-51830968D01*
X10779088Y-49735912D02*
X10668000Y-49847000D01*
X17952117Y-57303511D02*
X17885489Y-57236883D01*
X13774490Y-50840257D02*
X12670145Y-49735912D01*
X17885489Y-57236883D02*
X17885489Y-55097193D01*
D34*
%TO.N,/SDIN1*%
X9974967Y-64996480D02*
X10057523Y-65079034D01*
X8862480Y-64996480D02*
X9974967Y-64996480D01*
X12664501Y-68615499D02*
X12446000Y-68834000D01*
X6694000Y-51805057D02*
X6655020Y-51766077D01*
X7112000Y-63246000D02*
X8862480Y-64996480D01*
X10057523Y-65079034D02*
X10600355Y-65079034D01*
X11669091Y-64996480D02*
X12664501Y-65991890D01*
X10600355Y-65079034D02*
X10682909Y-64996480D01*
X12664501Y-65991890D02*
X12664501Y-68615499D01*
X6694000Y-53114000D02*
X6694000Y-51805057D01*
X10682909Y-64996480D02*
X11669091Y-64996480D01*
D33*
%TO.N,/SCL*%
X9394000Y-51454057D02*
X9903185Y-50944872D01*
X9394000Y-52414000D02*
X9394000Y-51454057D01*
X9903185Y-50944872D02*
X9903185Y-50797185D01*
D34*
%TO.N,/SDOUT1*%
X7894000Y-51339429D02*
X7835032Y-51280461D01*
X7835032Y-51280461D02*
X7835032Y-51277298D01*
X15691511Y-68772511D02*
X15691511Y-66555454D01*
X6858000Y-50300266D02*
X6858000Y-50292000D01*
X7835032Y-51277298D02*
X6858000Y-50300266D01*
X7894000Y-52414000D02*
X7894000Y-51339429D01*
X15691511Y-66555454D02*
X14630557Y-65494500D01*
X17023000Y-70104000D02*
X15691511Y-68772511D01*
D33*
%TO.N,/SDA*%
X8394000Y-52414000D02*
X8394000Y-50803402D01*
X8394000Y-50803402D02*
X8386326Y-50795728D01*
X11176000Y-68580000D02*
X11176000Y-69088000D01*
D34*
%TO.N,/LRCK*%
X12246721Y-63554489D02*
X10457060Y-63554489D01*
X4182662Y-55614000D02*
X3691988Y-56104674D01*
X7806082Y-60903511D02*
X4002656Y-60903511D01*
X4002656Y-60903511D02*
X3729667Y-61176500D01*
X17639685Y-72644000D02*
X18653022Y-71630663D01*
X18653022Y-71630663D02*
X18653022Y-64736232D01*
X13442778Y-63335988D02*
X12465221Y-63335988D01*
X12465221Y-63335988D02*
X12246721Y-63554489D01*
X18653022Y-64736232D02*
X17381291Y-63464501D01*
X17023000Y-72644000D02*
X17639685Y-72644000D01*
X13571291Y-63464501D02*
X13442778Y-63335988D01*
X6694000Y-55614000D02*
X4182662Y-55614000D01*
X17381291Y-63464501D02*
X13571291Y-63464501D01*
X10457060Y-63554489D02*
X7806082Y-60903511D01*
D33*
%TO.N,/PDN*%
X10394000Y-51966672D02*
X11430000Y-50930672D01*
X11430000Y-50930672D02*
X11430000Y-50800000D01*
X10394000Y-52414000D02*
X10394000Y-51966672D01*
D34*
%TO.N,/BICK*%
X16629161Y-71374000D02*
X18034000Y-71374000D01*
X17193441Y-63918012D02*
X13383441Y-63918012D01*
X4893709Y-56114000D02*
X4661989Y-56345720D01*
X18034000Y-71374000D02*
X18199511Y-71208489D01*
X17023000Y-75184000D02*
X15846489Y-74007489D01*
X12434571Y-64008000D02*
X10269209Y-64008000D01*
X13383441Y-63918012D02*
X13254928Y-63789499D01*
X12653072Y-63789499D02*
X12434571Y-64008000D01*
X6694000Y-56114000D02*
X4893709Y-56114000D01*
X15846489Y-74007489D02*
X15846489Y-72156672D01*
X18199511Y-71208489D02*
X18199511Y-64924083D01*
X10269209Y-64008000D02*
X7947709Y-61686500D01*
X7947709Y-61686500D02*
X5055712Y-61686500D01*
X18199511Y-64924083D02*
X17193441Y-63918012D01*
X5055712Y-61686500D02*
X4892093Y-61850119D01*
X15846489Y-72156672D02*
X16629161Y-71374000D01*
X13254928Y-63789499D02*
X12653072Y-63789499D01*
%TO.N,/MCLK*%
X6214504Y-62413000D02*
X8032849Y-62413000D01*
X13208000Y-73909000D02*
X14483000Y-75184000D01*
X8032849Y-62413000D02*
X10135849Y-64516000D01*
X10135849Y-64516000D02*
X12192000Y-64516000D01*
X6563055Y-56614000D02*
X5610364Y-57566691D01*
X12192000Y-64516000D02*
X12227499Y-64551499D01*
X6694000Y-56614000D02*
X6563055Y-56614000D01*
X12653072Y-65242501D02*
X12918501Y-65242501D01*
X13208000Y-65532000D02*
X13208000Y-73909000D01*
X12918501Y-65242501D02*
X13208000Y-65532000D01*
X12227499Y-64816928D02*
X12653072Y-65242501D01*
X12227499Y-64551499D02*
X12227499Y-64816928D01*
D33*
%TO.N,Net-(J4-PadT)*%
X22352000Y-20574000D02*
X22352000Y-16028000D01*
X29247520Y-29247520D02*
X27940000Y-27940000D01*
X25908000Y-25908000D02*
X25908000Y-25146000D01*
X25908000Y-25146000D02*
X25908000Y-24892000D01*
X29247520Y-39141480D02*
X29247520Y-29247520D01*
X22606000Y-20828000D02*
X22352000Y-20574000D01*
X28448000Y-39941000D02*
X29247520Y-39141480D01*
X27940000Y-27940000D02*
X25908000Y-25908000D01*
%TO.N,Net-(J5-PadT)*%
X25400000Y-30671000D02*
X24892000Y-30163000D01*
X24892000Y-30163000D02*
X24892000Y-4852000D01*
X24892000Y-4852000D02*
X22352000Y-2312000D01*
%TO.N,Net-(J6-PadT)*%
X4787480Y-18352520D02*
X4787480Y-26698737D01*
X4064000Y-44704000D02*
X4572000Y-44196000D01*
X4787480Y-26698737D02*
X782970Y-30703247D01*
X1016000Y-43942000D02*
X1778000Y-44704000D01*
X4572000Y-44196000D02*
X4572000Y-43497000D01*
X782970Y-36342970D02*
X1016000Y-36576000D01*
X782970Y-30703247D02*
X782970Y-36342970D01*
X7112000Y-16028000D02*
X4787480Y-18352520D01*
X1778000Y-44704000D02*
X4064000Y-44704000D01*
%TO.N,Net-(J7-PadT)*%
X6096000Y-30671000D02*
X9436520Y-27330480D01*
X9436520Y-27330480D02*
X9436520Y-4636520D01*
X9436520Y-4636520D02*
X7112000Y-2312000D01*
%TO.N,Net-(J8-PadT)*%
X7112000Y-84100000D02*
X4090000Y-84100000D01*
X1524000Y-81534000D02*
X1524000Y-78041000D01*
X4090000Y-84100000D02*
X1524000Y-81534000D01*
%TO.N,Net-(J9-PadT)*%
X533480Y-66014520D02*
X533480Y-83337480D01*
X1333000Y-65215000D02*
X533480Y-66014520D01*
X4236520Y-87040520D02*
X4236520Y-94940520D01*
X4236520Y-94940520D02*
X7112000Y-97816000D01*
X533480Y-83337480D02*
X4236520Y-87040520D01*
%TO.N,Net-(J10-PadT)*%
X22352000Y-84100000D02*
X22352000Y-81788000D01*
X22352000Y-81788000D02*
X20828000Y-80264000D01*
X20828000Y-80264000D02*
X20828000Y-77533000D01*
%TO.N,Net-(J11-PadT)*%
X23368000Y-64707000D02*
X23368000Y-63508598D01*
X24676520Y-95491480D02*
X22352000Y-97816000D01*
X23876000Y-81788000D02*
X24676520Y-82588520D01*
X24676520Y-82588520D02*
X24676520Y-95491480D01*
X23876000Y-75184000D02*
X23876000Y-81788000D01*
X23368000Y-63508598D02*
X23626299Y-63250299D01*
D34*
%TO.N,Net-(R3-Pad2)*%
X17589000Y-49530000D02*
X17589000Y-49593000D01*
X17589000Y-49593000D02*
X18669000Y-50673000D01*
X19877000Y-50673000D02*
X18669000Y-50673000D01*
X18669000Y-50673000D02*
X18478000Y-50673000D01*
X18478000Y-50673000D02*
X17589000Y-51562000D01*
D33*
%TO.N,Net-(R4-Pad1)*%
X27115000Y-47244000D02*
X27115000Y-47491072D01*
X23114000Y-49276000D02*
X23114000Y-50038000D01*
X23114000Y-50038000D02*
X23749000Y-50673000D01*
D34*
X26797000Y-50673000D02*
X24827000Y-50673000D01*
X27115000Y-50355000D02*
X26797000Y-50673000D01*
X27115000Y-50292000D02*
X27115000Y-50355000D01*
D33*
X25827592Y-48778480D02*
X23611520Y-48778480D01*
X23749000Y-50673000D02*
X24827000Y-50673000D01*
X27115000Y-47491072D02*
X25827592Y-48778480D01*
X23611520Y-48778480D02*
X23114000Y-49276000D01*
%TO.N,/-VCOM*%
X28448000Y-63500000D02*
X28448000Y-61060137D01*
D34*
X24827000Y-49403000D02*
X27876000Y-49403000D01*
D33*
X8827000Y-30671000D02*
X8128000Y-30671000D01*
X25817480Y-76607520D02*
X27416263Y-76607520D01*
X20320000Y-40132000D02*
X20828000Y-40640000D01*
X24892000Y-78740000D02*
X24892000Y-77533000D01*
X17408318Y-37600614D02*
X19748704Y-39941000D01*
X28739520Y-73177480D02*
X28739520Y-71157520D01*
X8128000Y-70421000D02*
X8128000Y-72644000D01*
X11222103Y-38316511D02*
X11938000Y-37600614D01*
X28448000Y-61060137D02*
X28739500Y-60768637D01*
X27940000Y-73977000D02*
X28739520Y-73177480D01*
X28739520Y-71157520D02*
X28702000Y-71120000D01*
X11938000Y-37600614D02*
X17408318Y-37600614D01*
X20320000Y-39941000D02*
X20320000Y-40132000D01*
X26670000Y-41148000D02*
X28448000Y-42926000D01*
X9144000Y-38291000D02*
X9169511Y-38316511D01*
X29210000Y-49847000D02*
X28765000Y-50292000D01*
X29210000Y-49022000D02*
X29210000Y-49847000D01*
X9144000Y-72644000D02*
X9398000Y-72390000D01*
X9144000Y-38291000D02*
X10160000Y-37275000D01*
X10160000Y-37275000D02*
X10160000Y-32004000D01*
X9169511Y-38316511D02*
X11222103Y-38316511D01*
X28448000Y-42926000D02*
X29210000Y-42926000D01*
X10160000Y-32004000D02*
X8827000Y-30671000D01*
X8128000Y-72644000D02*
X9144000Y-72644000D01*
X19748704Y-39941000D02*
X20320000Y-39941000D01*
X27940000Y-76083783D02*
X27940000Y-73977000D01*
X27432000Y-30671000D02*
X28131000Y-30671000D01*
X28131000Y-30671000D02*
X28448000Y-30988000D01*
X24892000Y-77533000D02*
X25817480Y-76607520D01*
D34*
X27876000Y-49403000D02*
X28765000Y-50292000D01*
D33*
X27416263Y-76607520D02*
X27940000Y-76083783D01*
D34*
%TO.N,Net-(R5-Pad1)*%
X28765000Y-47244000D02*
X27963480Y-46442480D01*
X20069532Y-48133000D02*
X19877000Y-48133000D01*
X21760052Y-46442480D02*
X20069532Y-48133000D01*
X19877000Y-49403000D02*
X19877000Y-48133000D01*
X27963480Y-46442480D02*
X21760052Y-46442480D01*
D33*
%TO.N,Net-(R7-Pad1)*%
X27115000Y-52324000D02*
X25208000Y-52324000D01*
X25208000Y-52324000D02*
X24827000Y-51943000D01*
%TO.N,Net-(R11-Pad2)*%
X23876000Y-39686000D02*
X23749000Y-39559000D01*
X23876000Y-40894000D02*
X23876000Y-39686000D01*
X23368000Y-41847000D02*
X23368000Y-41402000D01*
X27495000Y-37338000D02*
X28448000Y-38291000D01*
X23368000Y-41402000D02*
X23876000Y-40894000D01*
X23749000Y-39559000D02*
X23749000Y-39182928D01*
X23749000Y-39182928D02*
X23876000Y-39055928D01*
X24638000Y-37338000D02*
X27495000Y-37338000D01*
X20320000Y-38291000D02*
X22543000Y-36068000D01*
X23876000Y-39055928D02*
X23876000Y-38100000D01*
X24638000Y-36322000D02*
X24638000Y-37338000D01*
X23876000Y-38100000D02*
X24638000Y-37338000D01*
X24384000Y-36068000D02*
X24638000Y-36322000D01*
X22543000Y-36068000D02*
X24384000Y-36068000D01*
%TO.N,Net-(R12-Pad2)*%
X22986000Y-43497000D02*
X21336000Y-41847000D01*
X22479000Y-40704000D02*
X22479000Y-39559000D01*
X21336000Y-41847000D02*
X22479000Y-40704000D01*
X23368000Y-43497000D02*
X22986000Y-43497000D01*
%TO.N,/dual_mono_inputs1/IN1_3V*%
X16581480Y-59110520D02*
X17022299Y-58669701D01*
X14465987Y-59110520D02*
X16581480Y-59110520D01*
X10894000Y-57314000D02*
X10894000Y-59491493D01*
X10894000Y-59491493D02*
X11529027Y-60126520D01*
X13449987Y-60126520D02*
X14465987Y-59110520D01*
X11529027Y-60126520D02*
X13449987Y-60126520D01*
X20511000Y-42672000D02*
X21336000Y-43497000D01*
X20320000Y-42672000D02*
X20511000Y-42672000D01*
%TO.N,Net-(R15-Pad1)*%
X25400000Y-41847000D02*
X25400000Y-41148000D01*
X25019000Y-40767000D02*
X25019000Y-39559000D01*
X25400000Y-41148000D02*
X25019000Y-40767000D01*
%TO.N,Net-(R16-Pad2)*%
X27432000Y-32321000D02*
X25400000Y-32321000D01*
X25019000Y-34609000D02*
X25019000Y-32702000D01*
X25019000Y-32702000D02*
X25400000Y-32321000D01*
X23750000Y-30671000D02*
X25400000Y-32321000D01*
X23368000Y-30671000D02*
X23750000Y-30671000D01*
%TO.N,Net-(R17-Pad2)*%
X23876000Y-32766000D02*
X23876000Y-34482000D01*
X23876000Y-34482000D02*
X23749000Y-34609000D01*
X21336000Y-30671000D02*
X21718000Y-30671000D01*
X21718000Y-30671000D02*
X23368000Y-32321000D01*
X23431000Y-32321000D02*
X23876000Y-32766000D01*
X23368000Y-32321000D02*
X23431000Y-32321000D01*
%TO.N,/dual_mono_inputs1/IN2_3V*%
X21336000Y-33765505D02*
X21371500Y-33801005D01*
X9894000Y-57314000D02*
X9894000Y-57761328D01*
X7203328Y-60452000D02*
X1016000Y-60452000D01*
X21336000Y-32321000D02*
X21336000Y-33765505D01*
X9894000Y-57761328D02*
X7203328Y-60452000D01*
%TO.N,Net-(R20-Pad1)*%
X26289000Y-34609000D02*
X26351000Y-34609000D01*
X26733000Y-34227000D02*
X28448000Y-34227000D01*
X26351000Y-34609000D02*
X26733000Y-34227000D01*
%TO.N,Net-(R21-Pad2)*%
X3556000Y-42926000D02*
X3556000Y-42418000D01*
X4572000Y-41847000D02*
X5296520Y-42571520D01*
X2540000Y-43497000D02*
X2985000Y-43497000D01*
X4572000Y-41847000D02*
X4572000Y-39686000D01*
X7466480Y-42571520D02*
X7466480Y-41301520D01*
X7466480Y-41301520D02*
X8827000Y-39941000D01*
X8827000Y-39941000D02*
X9144000Y-39941000D01*
X4572000Y-39686000D02*
X4445000Y-39559000D01*
X3556000Y-42418000D02*
X4127000Y-41847000D01*
X2985000Y-43497000D02*
X3556000Y-42926000D01*
X5296520Y-42571520D02*
X7466480Y-42571520D01*
X4127000Y-41847000D02*
X4572000Y-41847000D01*
%TO.N,Net-(R22-Pad2)*%
X3175000Y-40767000D02*
X3175000Y-39559000D01*
X2540000Y-41402000D02*
X3175000Y-40767000D01*
X2793000Y-39941000D02*
X3175000Y-39559000D01*
X1016000Y-39941000D02*
X2793000Y-39941000D01*
X2540000Y-41847000D02*
X2540000Y-41402000D01*
%TO.N,/dual_mono_inputs2/IN1_3V*%
X8894000Y-58125624D02*
X8894000Y-57314000D01*
X2032000Y-45466000D02*
X731969Y-46766031D01*
X3094817Y-59727499D02*
X3115807Y-59748489D01*
X1016000Y-38291000D02*
X1969000Y-38291000D01*
X837275Y-59727499D02*
X3094817Y-59727499D01*
X3115807Y-59748489D02*
X7271135Y-59748489D01*
X1969000Y-38291000D02*
X2032000Y-38354000D01*
X731969Y-46766031D02*
X731969Y-59622193D01*
X731969Y-59622193D02*
X837275Y-59727499D01*
X7271135Y-59748489D02*
X8894000Y-58125624D01*
%TO.N,Net-(R25-Pad1)*%
X6604000Y-41847000D02*
X5715000Y-40958000D01*
X5715000Y-40958000D02*
X5715000Y-39559000D01*
%TO.N,Net-(R26-Pad2)*%
X5651000Y-32321000D02*
X6096000Y-32321000D01*
X5715000Y-34609000D02*
X5715000Y-32702000D01*
X5080000Y-30988000D02*
X5080000Y-31750000D01*
X8128000Y-32321000D02*
X6096000Y-32321000D01*
X4127000Y-30734000D02*
X4826000Y-30734000D01*
X4826000Y-30734000D02*
X5080000Y-30988000D01*
X4064000Y-30671000D02*
X4127000Y-30734000D01*
X5715000Y-32702000D02*
X6096000Y-32321000D01*
X5080000Y-31750000D02*
X5651000Y-32321000D01*
%TO.N,Net-(R27-Pad2)*%
X4064000Y-32321000D02*
X4127000Y-32321000D01*
X2032000Y-32321000D02*
X4064000Y-32321000D01*
X4445000Y-32639000D02*
X4445000Y-34609000D01*
X4127000Y-32321000D02*
X4445000Y-32639000D01*
%TO.N,/dual_mono_inputs2/IN2_3V*%
X1778000Y-35560000D02*
X2032000Y-35814000D01*
X1181480Y-48085922D02*
X3551701Y-45715701D01*
X7894000Y-58144592D02*
X6760604Y-59277988D01*
X6760604Y-59277988D02*
X1181480Y-59277988D01*
X2032000Y-31104217D02*
X1232480Y-31903737D01*
X2032000Y-30671000D02*
X2032000Y-31104217D01*
X1232480Y-31903737D02*
X1232480Y-35014480D01*
X1181480Y-59277988D02*
X1181480Y-48085922D01*
X7894000Y-57314000D02*
X7894000Y-58144592D01*
X1232480Y-35014480D02*
X1778000Y-35560000D01*
%TO.N,Net-(R30-Pad1)*%
X9144000Y-34227000D02*
X7367000Y-34227000D01*
X7367000Y-34227000D02*
X6985000Y-34609000D01*
%TO.N,Net-(R31-Pad2)*%
X4699000Y-73274570D02*
X5170091Y-72803479D01*
X11684000Y-79756000D02*
X8128000Y-79756000D01*
X7620000Y-79248000D02*
X7620000Y-78041000D01*
X4699000Y-74103000D02*
X4699000Y-73274570D01*
X5170091Y-72803479D02*
X6434993Y-72803480D01*
X8128000Y-79756000D02*
X7620000Y-79248000D01*
X12192000Y-74686507D02*
X12192000Y-79248000D01*
X11799493Y-74294000D02*
X12192000Y-74686507D01*
X12192000Y-79248000D02*
X11684000Y-79756000D01*
X7925513Y-74294000D02*
X8128000Y-74294000D01*
X6434993Y-72803480D02*
X7925513Y-74294000D01*
X8128000Y-74294000D02*
X11799493Y-74294000D01*
%TO.N,/dual_mono_outputs1/OUT1*%
X22860000Y-60198000D02*
X22606000Y-60452000D01*
X8286511Y-81438511D02*
X14969499Y-81438511D01*
X13916511Y-79061807D02*
X13149511Y-78294807D01*
X13958000Y-54114000D02*
X13970000Y-54102000D01*
X13996501Y-76549489D02*
X17318521Y-76549489D01*
X14941817Y-79061807D02*
X13916511Y-79061807D01*
X17318521Y-76549489D02*
X18796000Y-75072010D01*
X21044480Y-63528920D02*
X22549312Y-62024090D01*
X15657511Y-80750499D02*
X15657511Y-79777501D01*
X6604000Y-77407000D02*
X6604000Y-79756000D01*
X22860000Y-53594000D02*
X22860000Y-60198000D01*
X18796000Y-72126217D02*
X21044480Y-69877737D01*
X13149511Y-77396479D02*
X13996501Y-76549489D01*
X14969499Y-81438511D02*
X15657511Y-80750499D01*
X13149511Y-78294807D02*
X13149511Y-77396479D01*
X6604000Y-79756000D02*
X8286511Y-81438511D01*
X21044480Y-69877737D02*
X21044480Y-63528920D01*
X7620000Y-76391000D02*
X6604000Y-77407000D01*
X18796000Y-75072010D02*
X18796000Y-72126217D01*
X15657511Y-79777501D02*
X14941817Y-79061807D01*
X11594000Y-54114000D02*
X13958000Y-54114000D01*
%TO.N,Net-(R33-Pad1)*%
X1524000Y-74738000D02*
X2159000Y-74103000D01*
X1906000Y-76391000D02*
X3556000Y-78041000D01*
X1524000Y-76391000D02*
X1906000Y-76391000D01*
X1524000Y-76391000D02*
X1524000Y-74738000D01*
%TO.N,Net-(R34-Pad1)*%
X5588000Y-76391000D02*
X3556000Y-76391000D01*
X3556000Y-74230000D02*
X3429000Y-74103000D01*
X3556000Y-76391000D02*
X3556000Y-74230000D01*
%TO.N,Net-(R36-Pad2)*%
X7429000Y-66865000D02*
X7429000Y-68072000D01*
X5969000Y-69153000D02*
X7746000Y-69153000D01*
X7746000Y-69153000D02*
X8128000Y-68771000D01*
X7429000Y-68072000D02*
X8128000Y-68771000D01*
%TO.N,/dual_mono_outputs1/OUT2*%
X8128000Y-65532000D02*
X7746000Y-65532000D01*
X13737323Y-62992000D02*
X14986000Y-62992000D01*
X13629800Y-62884477D02*
X13737323Y-62992000D01*
X11594000Y-53614000D02*
X12680000Y-53614000D01*
X14986000Y-62992000D02*
X16749089Y-61228911D01*
X12680000Y-53614000D02*
X13208000Y-53086000D01*
X16749089Y-61228911D02*
X17532313Y-61228911D01*
X12170676Y-62992000D02*
X12278200Y-62884477D01*
X10668000Y-62738000D02*
X10922000Y-62992000D01*
X10922000Y-62992000D02*
X12170676Y-62992000D01*
X7746000Y-65532000D02*
X7429000Y-65215000D01*
X12278200Y-62884477D02*
X13629800Y-62884477D01*
%TO.N,Net-(R38-Pad1)*%
X3365000Y-69089000D02*
X3429000Y-69153000D01*
X3365000Y-66865000D02*
X1333000Y-66865000D01*
X3365000Y-66865000D02*
X3365000Y-69089000D01*
%TO.N,Net-(R39-Pad1)*%
X4699000Y-67563000D02*
X4699000Y-69153000D01*
X5397000Y-66865000D02*
X4699000Y-67563000D01*
X3747000Y-65215000D02*
X5397000Y-66865000D01*
X3365000Y-65215000D02*
X3747000Y-65215000D01*
%TO.N,Net-(R41-Pad2)*%
X24892000Y-75883000D02*
X26924000Y-75883000D01*
X24892000Y-75184000D02*
X24511000Y-74803000D01*
X24892000Y-75883000D02*
X24892000Y-75184000D01*
X24511000Y-74803000D02*
X24511000Y-73595000D01*
%TO.N,/dual_mono_outputs2/OUT1*%
X28448000Y-77470000D02*
X26987000Y-77470000D01*
X11594000Y-53114000D02*
X11594000Y-52922000D01*
X24130000Y-53594000D02*
X25400000Y-54864000D01*
X11594000Y-52922000D02*
X12446000Y-52070000D01*
X26987000Y-77470000D02*
X26924000Y-77533000D01*
X25400000Y-54864000D02*
X25400000Y-59218748D01*
X25400000Y-59218748D02*
X26277425Y-60096173D01*
%TO.N,Net-(R43-Pad1)*%
X19812000Y-74930000D02*
X19812000Y-73977000D01*
X21971000Y-73595000D02*
X20194000Y-73595000D01*
X20765000Y-75883000D02*
X19812000Y-74930000D01*
X20194000Y-73595000D02*
X19812000Y-73977000D01*
X20828000Y-75883000D02*
X20765000Y-75883000D01*
%TO.N,Net-(R44-Pad1)*%
X22860000Y-75175400D02*
X23368000Y-74667400D01*
X19843520Y-72295480D02*
X22317552Y-72295480D01*
X22317552Y-72295480D02*
X23241000Y-73218928D01*
X23368000Y-74667400D02*
X23368000Y-73722000D01*
X23241000Y-73218928D02*
X23241000Y-73595000D01*
X22860000Y-75883000D02*
X22860000Y-75175400D01*
X19812000Y-72327000D02*
X19843520Y-72295480D01*
X23368000Y-73722000D02*
X23241000Y-73595000D01*
%TO.N,Net-(R46-Pad2)*%
X27940000Y-72327000D02*
X26859000Y-71246000D01*
X26859000Y-68645000D02*
X27558000Y-68645000D01*
X25781000Y-68645000D02*
X26859000Y-68645000D01*
X27558000Y-68645000D02*
X27940000Y-68263000D01*
X26859000Y-71246000D02*
X26859000Y-68645000D01*
%TO.N,/dual_mono_outputs2/OUT2*%
X26856194Y-61409510D02*
X28538205Y-59727499D01*
X19771293Y-61299589D02*
X23579885Y-61299589D01*
X29464000Y-60189400D02*
X29464000Y-68389000D01*
X17322398Y-57945200D02*
X17746800Y-58369602D01*
X23689807Y-61409511D02*
X26856194Y-61409510D01*
X17746800Y-59275096D02*
X19771293Y-61299589D01*
X17313800Y-57945200D02*
X17322398Y-57945200D01*
X29002099Y-59727499D02*
X29464000Y-60189400D01*
X23579885Y-61299589D02*
X23689807Y-61409511D01*
X16510000Y-55109400D02*
X16510000Y-57141400D01*
X28538205Y-59727499D02*
X29002099Y-59727499D01*
X12746099Y-51345499D02*
X16510000Y-55109400D01*
X10894000Y-52414000D02*
X11746000Y-51562000D01*
X11929400Y-51562000D02*
X12145901Y-51345499D01*
X16510000Y-57141400D02*
X17313800Y-57945200D01*
X11746000Y-51562000D02*
X11929400Y-51562000D01*
X12145901Y-51345499D02*
X12746099Y-51345499D01*
X29464000Y-68389000D02*
X27940000Y-69913000D01*
X17746800Y-58369602D02*
X17746800Y-59275096D01*
%TO.N,Net-(R48-Pad1)*%
X25018000Y-64707000D02*
X23368000Y-66357000D01*
X25400000Y-64707000D02*
X25018000Y-64707000D01*
X23241000Y-66484000D02*
X23368000Y-66357000D01*
X23241000Y-68645000D02*
X23241000Y-66484000D01*
%TO.N,Net-(R49-Pad1)*%
X25400000Y-66357000D02*
X27432000Y-66357000D01*
X24511000Y-68645000D02*
X24511000Y-67246000D01*
X24511000Y-67246000D02*
X25400000Y-66357000D01*
%TD*%
M02*
