%TF.GenerationSoftware,KiCad,Pcbnew,(6.0.11)*%
%TF.CreationDate,2023-02-18T19:52:46+01:00*%
%TF.ProjectId,eurorack-pmod-pcb,6575726f-7261-4636-9b2d-706d6f642d70,rev?*%
%TF.SameCoordinates,Original*%
%TF.FileFunction,Soldermask,Top*%
%TF.FilePolarity,Negative*%
%FSLAX46Y46*%
G04 Gerber Fmt 4.6, Leading zero omitted, Abs format (unit mm)*
G04 Created by KiCad (PCBNEW (6.0.11)) date 2023-02-18 19:52:46*
%MOMM*%
%LPD*%
G01*
G04 APERTURE LIST*
G04 Aperture macros list*
%AMRoundRect*
0 Rectangle with rounded corners*
0 $1 Rounding radius*
0 $2 $3 $4 $5 $6 $7 $8 $9 X,Y pos of 4 corners*
0 Add a 4 corners polygon primitive as box body*
4,1,4,$2,$3,$4,$5,$6,$7,$8,$9,$2,$3,0*
0 Add four circle primitives for the rounded corners*
1,1,$1+$1,$2,$3*
1,1,$1+$1,$4,$5*
1,1,$1+$1,$6,$7*
1,1,$1+$1,$8,$9*
0 Add four rect primitives between the rounded corners*
20,1,$1+$1,$2,$3,$4,$5,0*
20,1,$1+$1,$4,$5,$6,$7,0*
20,1,$1+$1,$6,$7,$8,$9,0*
20,1,$1+$1,$8,$9,$2,$3,0*%
%AMRotRect*
0 Rectangle, with rotation*
0 The origin of the aperture is its center*
0 $1 length*
0 $2 width*
0 $3 Rotation angle, in degrees counterclockwise*
0 Add horizontal line*
21,1,$1,$2,0,0,$3*%
G04 Aperture macros list end*
%ADD10C,0.375000*%
%ADD11RoundRect,0.147500X0.147500X0.172500X-0.147500X0.172500X-0.147500X-0.172500X0.147500X-0.172500X0*%
%ADD12RoundRect,0.200000X-0.200000X-0.275000X0.200000X-0.275000X0.200000X0.275000X-0.200000X0.275000X0*%
%ADD13RoundRect,0.150000X-0.150000X0.825000X-0.150000X-0.825000X0.150000X-0.825000X0.150000X0.825000X0*%
%ADD14RoundRect,0.140000X0.170000X-0.140000X0.170000X0.140000X-0.170000X0.140000X-0.170000X-0.140000X0*%
%ADD15R,0.400000X0.500000*%
%ADD16R,0.300000X0.500000*%
%ADD17RoundRect,0.200000X0.275000X-0.200000X0.275000X0.200000X-0.275000X0.200000X-0.275000X-0.200000X0*%
%ADD18RoundRect,0.225000X0.335876X0.017678X0.017678X0.335876X-0.335876X-0.017678X-0.017678X-0.335876X0*%
%ADD19RoundRect,0.225000X0.250000X-0.225000X0.250000X0.225000X-0.250000X0.225000X-0.250000X-0.225000X0*%
%ADD20RoundRect,0.135000X-0.185000X0.135000X-0.185000X-0.135000X0.185000X-0.135000X0.185000X0.135000X0*%
%ADD21C,0.800000*%
%ADD22C,6.400000*%
%ADD23O,1.308000X2.616000*%
%ADD24O,2.016000X1.008000*%
%ADD25O,2.616000X1.308000*%
%ADD26R,1.100000X1.100000*%
%ADD27RoundRect,0.135000X0.185000X-0.135000X0.185000X0.135000X-0.185000X0.135000X-0.185000X-0.135000X0*%
%ADD28RoundRect,0.225000X-0.225000X-0.250000X0.225000X-0.250000X0.225000X0.250000X-0.225000X0.250000X0*%
%ADD29RoundRect,0.250000X-0.017678X-0.618718X0.618718X0.017678X0.017678X0.618718X-0.618718X-0.017678X0*%
%ADD30RoundRect,0.135000X-0.135000X-0.185000X0.135000X-0.185000X0.135000X0.185000X-0.135000X0.185000X0*%
%ADD31RoundRect,0.140000X-0.170000X0.140000X-0.170000X-0.140000X0.170000X-0.140000X0.170000X0.140000X0*%
%ADD32RoundRect,0.200000X-0.275000X0.200000X-0.275000X-0.200000X0.275000X-0.200000X0.275000X0.200000X0*%
%ADD33RoundRect,0.062500X0.282843X-0.194454X-0.194454X0.282843X-0.282843X0.194454X0.194454X-0.282843X0*%
%ADD34RoundRect,0.062500X0.282843X0.194454X0.194454X0.282843X-0.282843X-0.194454X-0.194454X-0.282843X0*%
%ADD35RotRect,3.700000X3.700000X135.000000*%
%ADD36RoundRect,0.218750X0.218750X0.256250X-0.218750X0.256250X-0.218750X-0.256250X0.218750X-0.256250X0*%
%ADD37RoundRect,0.218750X-0.256250X0.218750X-0.256250X-0.218750X0.256250X-0.218750X0.256250X0.218750X0*%
%ADD38RoundRect,0.250000X0.550000X-1.500000X0.550000X1.500000X-0.550000X1.500000X-0.550000X-1.500000X0*%
%ADD39RoundRect,0.150000X-0.587500X-0.150000X0.587500X-0.150000X0.587500X0.150000X-0.587500X0.150000X0*%
%ADD40R,1.700000X1.700000*%
%ADD41O,1.700000X1.700000*%
%ADD42RoundRect,0.200000X0.200000X0.275000X-0.200000X0.275000X-0.200000X-0.275000X0.200000X-0.275000X0*%
%ADD43RoundRect,0.250000X-0.425000X0.450000X-0.425000X-0.450000X0.425000X-0.450000X0.425000X0.450000X0*%
%ADD44RoundRect,0.100000X-0.100000X0.637500X-0.100000X-0.637500X0.100000X-0.637500X0.100000X0.637500X0*%
%ADD45RoundRect,0.250000X0.425000X-0.450000X0.425000X0.450000X-0.425000X0.450000X-0.425000X-0.450000X0*%
%ADD46RoundRect,0.250000X-0.450000X-0.425000X0.450000X-0.425000X0.450000X0.425000X-0.450000X0.425000X0*%
%ADD47RoundRect,0.250000X0.450000X0.425000X-0.450000X0.425000X-0.450000X-0.425000X0.450000X-0.425000X0*%
%ADD48RoundRect,0.250000X0.618718X-0.017678X-0.017678X0.618718X-0.618718X0.017678X0.017678X-0.618718X0*%
%ADD49RoundRect,0.225000X-0.335876X-0.017678X-0.017678X-0.335876X0.335876X0.017678X0.017678X0.335876X0*%
%ADD50RoundRect,0.250000X0.017678X0.618718X-0.618718X-0.017678X-0.017678X-0.618718X0.618718X0.017678X0*%
%ADD51RoundRect,0.218750X-0.218750X-0.256250X0.218750X-0.256250X0.218750X0.256250X-0.218750X0.256250X0*%
%ADD52RoundRect,0.225000X0.225000X0.250000X-0.225000X0.250000X-0.225000X-0.250000X0.225000X-0.250000X0*%
%ADD53RoundRect,0.225000X-0.250000X0.225000X-0.250000X-0.225000X0.250000X-0.225000X0.250000X0.225000X0*%
%ADD54RoundRect,0.150000X-0.150000X0.587500X-0.150000X-0.587500X0.150000X-0.587500X0.150000X0.587500X0*%
%ADD55RoundRect,0.135000X0.135000X0.185000X-0.135000X0.185000X-0.135000X-0.185000X0.135000X-0.185000X0*%
%ADD56RoundRect,0.150000X0.150000X-0.825000X0.150000X0.825000X-0.150000X0.825000X-0.150000X-0.825000X0*%
%ADD57RoundRect,0.100000X0.637500X0.100000X-0.637500X0.100000X-0.637500X-0.100000X0.637500X-0.100000X0*%
%ADD58RoundRect,0.250000X-1.500000X-0.550000X1.500000X-0.550000X1.500000X0.550000X-1.500000X0.550000X0*%
%ADD59RoundRect,0.150000X0.150000X-0.512500X0.150000X0.512500X-0.150000X0.512500X-0.150000X-0.512500X0*%
%ADD60RoundRect,0.250000X-0.618718X0.017678X0.017678X-0.618718X0.618718X-0.017678X-0.017678X0.618718X0*%
G04 APERTURE END LIST*
D10*
X9099357Y-23037809D02*
X9099357Y-22471142D01*
X9885071Y-22228285D02*
X9885071Y-23037809D01*
X8385071Y-23037809D01*
X8385071Y-22228285D01*
X8385071Y-21499714D02*
X9599357Y-21499714D01*
X9742214Y-21418761D01*
X9813642Y-21337809D01*
X9885071Y-21175904D01*
X9885071Y-20852095D01*
X9813642Y-20690190D01*
X9742214Y-20609238D01*
X9599357Y-20528285D01*
X8385071Y-20528285D01*
X9885071Y-18747333D02*
X9170785Y-19314000D01*
X9885071Y-19718761D02*
X8385071Y-19718761D01*
X8385071Y-19071142D01*
X8456500Y-18909238D01*
X8527928Y-18828285D01*
X8670785Y-18747333D01*
X8885071Y-18747333D01*
X9027928Y-18828285D01*
X9099357Y-18909238D01*
X9170785Y-19071142D01*
X9170785Y-19718761D01*
X8385071Y-17694952D02*
X8385071Y-17371142D01*
X8456500Y-17209238D01*
X8599357Y-17047333D01*
X8885071Y-16966380D01*
X9385071Y-16966380D01*
X9670785Y-17047333D01*
X9813642Y-17209238D01*
X9885071Y-17371142D01*
X9885071Y-17694952D01*
X9813642Y-17856857D01*
X9670785Y-18018761D01*
X9385071Y-18099714D01*
X8885071Y-18099714D01*
X8599357Y-18018761D01*
X8456500Y-17856857D01*
X8385071Y-17694952D01*
X9885071Y-15266380D02*
X9170785Y-15833047D01*
X9885071Y-16237809D02*
X8385071Y-16237809D01*
X8385071Y-15590190D01*
X8456500Y-15428285D01*
X8527928Y-15347333D01*
X8670785Y-15266380D01*
X8885071Y-15266380D01*
X9027928Y-15347333D01*
X9099357Y-15428285D01*
X9170785Y-15590190D01*
X9170785Y-16237809D01*
X9456500Y-14618761D02*
X9456500Y-13809238D01*
X9885071Y-14780666D02*
X8385071Y-14214000D01*
X9885071Y-13647333D01*
X9742214Y-12109238D02*
X9813642Y-12190190D01*
X9885071Y-12433047D01*
X9885071Y-12594952D01*
X9813642Y-12837809D01*
X9670785Y-12999714D01*
X9527928Y-13080666D01*
X9242214Y-13161619D01*
X9027928Y-13161619D01*
X8742214Y-13080666D01*
X8599357Y-12999714D01*
X8456500Y-12837809D01*
X8385071Y-12594952D01*
X8385071Y-12433047D01*
X8456500Y-12190190D01*
X8527928Y-12109238D01*
X9885071Y-11380666D02*
X8385071Y-11380666D01*
X9885071Y-10409238D02*
X9027928Y-11137809D01*
X8385071Y-10409238D02*
X9242214Y-11380666D01*
X12300071Y-19921142D02*
X10800071Y-19921142D01*
X10800071Y-19273523D01*
X10871500Y-19111619D01*
X10942928Y-19030666D01*
X11085785Y-18949714D01*
X11300071Y-18949714D01*
X11442928Y-19030666D01*
X11514357Y-19111619D01*
X11585785Y-19273523D01*
X11585785Y-19921142D01*
X12300071Y-18221142D02*
X10800071Y-18221142D01*
X11871500Y-17654476D01*
X10800071Y-17087809D01*
X12300071Y-17087809D01*
X10800071Y-15954476D02*
X10800071Y-15630666D01*
X10871500Y-15468761D01*
X11014357Y-15306857D01*
X11300071Y-15225904D01*
X11800071Y-15225904D01*
X12085785Y-15306857D01*
X12228642Y-15468761D01*
X12300071Y-15630666D01*
X12300071Y-15954476D01*
X12228642Y-16116380D01*
X12085785Y-16278285D01*
X11800071Y-16359238D01*
X11300071Y-16359238D01*
X11014357Y-16278285D01*
X10871500Y-16116380D01*
X10800071Y-15954476D01*
X12300071Y-14497333D02*
X10800071Y-14497333D01*
X10800071Y-14092571D01*
X10871500Y-13849714D01*
X11014357Y-13687809D01*
X11157214Y-13606857D01*
X11442928Y-13525904D01*
X11657214Y-13525904D01*
X11942928Y-13606857D01*
X12085785Y-13687809D01*
X12228642Y-13849714D01*
X12300071Y-14092571D01*
X12300071Y-14497333D01*
D11*
%TO.C,D7*%
X-18514200Y-39827200D03*
X-19484200Y-39827200D03*
%TD*%
D12*
%TO.C,R9*%
X851400Y-19608800D03*
X2501400Y-19608800D03*
%TD*%
D13*
%TO.C,U9*%
X10312400Y-28513000D03*
X9042400Y-28513000D03*
X7772400Y-28513000D03*
X6502400Y-28513000D03*
X6502400Y-33463000D03*
X7772400Y-33463000D03*
X9042400Y-33463000D03*
X10312400Y-33463000D03*
%TD*%
D14*
%TO.C,C18*%
X-4622800Y-18107600D03*
X-4622800Y-17147600D03*
%TD*%
D13*
%TO.C,U2*%
X4165600Y-77865200D03*
X2895600Y-77865200D03*
X1625600Y-77865200D03*
X355600Y-77865200D03*
X-914400Y-77865200D03*
X-2184400Y-77865200D03*
X-3454400Y-77865200D03*
X-3454400Y-82815200D03*
X-2184400Y-82815200D03*
X-914400Y-82815200D03*
X355600Y-82815200D03*
X1625600Y-82815200D03*
X2895600Y-82815200D03*
X4165600Y-82815200D03*
%TD*%
D11*
%TO.C,D18*%
X-18514200Y-109524800D03*
X-19484200Y-109524800D03*
%TD*%
D15*
%TO.C,RN11*%
X-17056800Y-95902400D03*
D16*
X-16556800Y-95902400D03*
X-16056800Y-95902400D03*
D15*
X-15556800Y-95902400D03*
X-15556800Y-94902400D03*
D16*
X-16056800Y-94902400D03*
X-16556800Y-94902400D03*
D15*
X-17056800Y-94902400D03*
%TD*%
D17*
%TO.C,R18*%
X4445000Y-75755000D03*
X4445000Y-74105000D03*
%TD*%
D12*
%TO.C,R13*%
X4966200Y-9626600D03*
X6616200Y-9626600D03*
%TD*%
D18*
%TO.C,C17*%
X-796145Y-50334055D03*
X-1892161Y-49238039D03*
%TD*%
D19*
%TO.C,C4*%
X5435600Y-72403000D03*
X5435600Y-70853000D03*
%TD*%
D11*
%TO.C,D11*%
X-18565000Y-67411600D03*
X-19535000Y-67411600D03*
%TD*%
%TO.C,D5*%
X-18514200Y-26009600D03*
X-19484200Y-26009600D03*
%TD*%
D20*
%TO.C,R2*%
X11734800Y-67562000D03*
X11734800Y-68582000D03*
%TD*%
D21*
%TO.C,REF\u002A\u002A*%
X12873056Y-2112944D03*
X8776000Y-3810000D03*
X9478944Y-2112944D03*
D22*
X11176000Y-3810000D03*
D21*
X12873056Y-5507056D03*
X11176000Y-1410000D03*
X11176000Y-6210000D03*
X13576000Y-3810000D03*
X9478944Y-5507056D03*
%TD*%
D23*
%TO.C,J10*%
X-18382000Y-88772626D03*
D24*
X-10482000Y-83572626D03*
D25*
X-11482000Y-86172626D03*
D24*
X-14182000Y-93372626D03*
D23*
X-7082000Y-92872626D03*
%TD*%
D26*
%TO.C,D2*%
X3352800Y-104270000D03*
X3352800Y-101470000D03*
%TD*%
D27*
%TO.C,R8*%
X-4394200Y-62054200D03*
X-4394200Y-61034200D03*
%TD*%
D28*
%TO.C,C27*%
X6260800Y-37515800D03*
X7810800Y-37515800D03*
%TD*%
D12*
%TO.C,R10*%
X4966200Y-15341600D03*
X6616200Y-15341600D03*
%TD*%
D23*
%TO.C,J5*%
X-18382000Y-19829771D03*
D24*
X-10482000Y-14629771D03*
D25*
X-11482000Y-17229771D03*
D24*
X-14182000Y-24429771D03*
D23*
X-7082000Y-23929771D03*
%TD*%
D29*
%TO.C,C12*%
X292053Y-48810241D03*
X2201241Y-46901053D03*
%TD*%
D30*
%TO.C,R4*%
X10816400Y-74523600D03*
X11836400Y-74523600D03*
%TD*%
D31*
%TO.C,C25*%
X3175000Y-84864000D03*
X3175000Y-85824000D03*
%TD*%
D14*
%TO.C,C19*%
X3073400Y-18031400D03*
X3073400Y-17071400D03*
%TD*%
D15*
%TO.C,RN6*%
X-369000Y-86428200D03*
D16*
X131000Y-86428200D03*
X631000Y-86428200D03*
D15*
X1131000Y-86428200D03*
X1131000Y-85428200D03*
D16*
X631000Y-85428200D03*
X131000Y-85428200D03*
D15*
X-369000Y-85428200D03*
%TD*%
%TO.C,RN7*%
X7501000Y-25527000D03*
D16*
X8001000Y-25527000D03*
X8501000Y-25527000D03*
D15*
X9001000Y-25527000D03*
X9001000Y-24527000D03*
D16*
X8501000Y-24527000D03*
X8001000Y-24527000D03*
D15*
X7501000Y-24527000D03*
%TD*%
D32*
%TO.C,R26*%
X-3683000Y-85154000D03*
X-3683000Y-86804000D03*
%TD*%
D33*
%TO.C,U1*%
X1944727Y-56957223D03*
X2298280Y-56603670D03*
X2651834Y-56250117D03*
X3005387Y-55896563D03*
X3358940Y-55543010D03*
X3712494Y-55189457D03*
X4066047Y-54835903D03*
X4419600Y-54482350D03*
D34*
X4419600Y-53492400D03*
X4066047Y-53138847D03*
X3712494Y-52785293D03*
X3358940Y-52431740D03*
X3005387Y-52078187D03*
X2651834Y-51724633D03*
X2298280Y-51371080D03*
X1944727Y-51017527D03*
D33*
X954777Y-51017527D03*
X601224Y-51371080D03*
X247670Y-51724633D03*
X-105883Y-52078187D03*
X-459436Y-52431740D03*
X-812990Y-52785293D03*
X-1166543Y-53138847D03*
X-1520096Y-53492400D03*
D34*
X-1520096Y-54482350D03*
X-1166543Y-54835903D03*
X-812990Y-55189457D03*
X-459436Y-55543010D03*
X-105883Y-55896563D03*
X247670Y-56250117D03*
X601224Y-56603670D03*
X954777Y-56957223D03*
D35*
X1449752Y-53987375D03*
%TD*%
D19*
%TO.C,C9*%
X5537200Y-7874600D03*
X5537200Y-6324600D03*
%TD*%
D36*
%TO.C,L5*%
X10896700Y-43738800D03*
X9321700Y-43738800D03*
%TD*%
D20*
%TO.C,R24*%
X-1397000Y-74928000D03*
X-1397000Y-75948000D03*
%TD*%
D11*
%TO.C,D15*%
X-18514200Y-94945200D03*
X-19484200Y-94945200D03*
%TD*%
D12*
%TO.C,R33*%
X6210800Y-35864800D03*
X7860800Y-35864800D03*
%TD*%
D15*
%TO.C,RN8*%
X-17107600Y-13200000D03*
D16*
X-16607600Y-13200000D03*
X-16107600Y-13200000D03*
D15*
X-15607600Y-13200000D03*
X-15607600Y-12200000D03*
D16*
X-16107600Y-12200000D03*
X-16607600Y-12200000D03*
D15*
X-17107600Y-12200000D03*
%TD*%
D11*
%TO.C,D9*%
X-18530100Y-53594000D03*
X-19500100Y-53594000D03*
%TD*%
D37*
%TO.C,L6*%
X10566400Y-40589100D03*
X10566400Y-42164100D03*
%TD*%
D21*
%TO.C,REF\u002A\u002A*%
X11303000Y-108699000D03*
X13000056Y-107996056D03*
X9605944Y-104601944D03*
X13000056Y-104601944D03*
D22*
X11303000Y-106299000D03*
D21*
X9605944Y-107996056D03*
X13703000Y-106299000D03*
X11303000Y-103899000D03*
X8903000Y-106299000D03*
%TD*%
D38*
%TO.C,C5*%
X-1651000Y-96018000D03*
X-1651000Y-90418000D03*
%TD*%
D15*
%TO.C,RN10*%
X-17056800Y-68368800D03*
D16*
X-16556800Y-68368800D03*
X-16056800Y-68368800D03*
D15*
X-15556800Y-68368800D03*
X-15556800Y-67368800D03*
D16*
X-16056800Y-67368800D03*
X-16556800Y-67368800D03*
D15*
X-17056800Y-67368800D03*
%TD*%
D39*
%TO.C,U8*%
X6479300Y-39232800D03*
X6479300Y-41132800D03*
X8354300Y-40182800D03*
%TD*%
D40*
%TO.C,J1*%
X12954000Y-97459800D03*
D41*
X10414000Y-97459800D03*
X12954000Y-94919800D03*
X10414000Y-94919800D03*
X12954000Y-92379800D03*
X10414000Y-92379800D03*
X12954000Y-89839800D03*
X10414000Y-89839800D03*
X12954000Y-87299800D03*
X10414000Y-87299800D03*
%TD*%
D15*
%TO.C,RN3*%
X342200Y-7586600D03*
D16*
X842200Y-7586600D03*
X1342200Y-7586600D03*
D15*
X1842200Y-7586600D03*
X1842200Y-6586600D03*
D16*
X1342200Y-6586600D03*
X842200Y-6586600D03*
D15*
X342200Y-6586600D03*
%TD*%
D42*
%TO.C,R15*%
X-2781800Y-4445000D03*
X-4431800Y-4445000D03*
%TD*%
D43*
%TO.C,C1*%
X6553200Y-17573000D03*
X6553200Y-20273000D03*
%TD*%
D42*
%TO.C,R6*%
X-2781800Y-19659600D03*
X-4431800Y-19659600D03*
%TD*%
D32*
%TO.C,R30*%
X4470400Y-85077800D03*
X4470400Y-86727800D03*
%TD*%
D30*
%TO.C,R23*%
X-2415000Y-73914000D03*
X-1395000Y-73914000D03*
%TD*%
D15*
%TO.C,RN1*%
X-2578800Y-18127600D03*
D16*
X-2078800Y-18127600D03*
X-1578800Y-18127600D03*
D15*
X-1078800Y-18127600D03*
X-1078800Y-17127600D03*
D16*
X-1578800Y-17127600D03*
X-2078800Y-17127600D03*
D15*
X-2578800Y-17127600D03*
%TD*%
D20*
%TO.C,R25*%
X-660400Y-71346600D03*
X-660400Y-72366600D03*
%TD*%
D43*
%TO.C,C26*%
X10515600Y-36165800D03*
X10515600Y-38865800D03*
%TD*%
D44*
%TO.C,U4*%
X65200Y-63660100D03*
X-584800Y-63660100D03*
X-1234800Y-63660100D03*
X-1884800Y-63660100D03*
X-2534800Y-63660100D03*
X-3184800Y-63660100D03*
X-3834800Y-63660100D03*
X-4484800Y-63660100D03*
X-4484800Y-69385100D03*
X-3834800Y-69385100D03*
X-3184800Y-69385100D03*
X-2534800Y-69385100D03*
X-1884800Y-69385100D03*
X-1234800Y-69385100D03*
X-584800Y-69385100D03*
X65200Y-69385100D03*
%TD*%
D45*
%TO.C,C3*%
X3454400Y-72114400D03*
X3454400Y-69414400D03*
%TD*%
D26*
%TO.C,D1*%
X3352800Y-96142000D03*
X3352800Y-93342000D03*
%TD*%
D11*
%TO.C,D6*%
X-18514200Y-26924000D03*
X-19484200Y-26924000D03*
%TD*%
D20*
%TO.C,R11*%
X-4724400Y-71346600D03*
X-4724400Y-72366600D03*
%TD*%
D46*
%TO.C,C8*%
X2663200Y-4292600D03*
X5363200Y-4292600D03*
%TD*%
D47*
%TO.C,C28*%
X410200Y-41579800D03*
X-2289800Y-41579800D03*
%TD*%
D48*
%TO.C,C16*%
X-2319959Y-51502641D03*
X-4229147Y-49593453D03*
%TD*%
D49*
%TO.C,C14*%
X3797439Y-57924839D03*
X4893455Y-59020855D03*
%TD*%
D23*
%TO.C,J9*%
X-18382000Y-74984055D03*
D24*
X-10482000Y-69784055D03*
D25*
X-11482000Y-72384055D03*
D24*
X-14182000Y-79584055D03*
D23*
X-7082000Y-79084055D03*
%TD*%
D43*
%TO.C,C10*%
X6146800Y-77542400D03*
X6146800Y-80242400D03*
%TD*%
D27*
%TO.C,R27*%
X-1397000Y-85854000D03*
X-1397000Y-84834000D03*
%TD*%
D14*
%TO.C,C23*%
X-2413000Y-75918000D03*
X-2413000Y-74958000D03*
%TD*%
D50*
%TO.C,C13*%
X2760041Y-59448653D03*
X850853Y-61357841D03*
%TD*%
D15*
%TO.C,RN2*%
X342200Y-18127600D03*
D16*
X842200Y-18127600D03*
X1342200Y-18127600D03*
D15*
X1842200Y-18127600D03*
X1842200Y-17127600D03*
D16*
X1342200Y-17127600D03*
X842200Y-17127600D03*
D15*
X342200Y-17127600D03*
%TD*%
D36*
%TO.C,L4*%
X7772500Y-44856400D03*
X6197500Y-44856400D03*
%TD*%
D51*
%TO.C,L2*%
X660300Y-99645452D03*
X2235300Y-99645452D03*
%TD*%
D14*
%TO.C,C22*%
X3175000Y-75918000D03*
X3175000Y-74958000D03*
%TD*%
D27*
%TO.C,R31*%
X2159000Y-85852000D03*
X2159000Y-84832000D03*
%TD*%
D11*
%TO.C,D12*%
X-18565000Y-68326000D03*
X-19535000Y-68326000D03*
%TD*%
D52*
%TO.C,C11*%
X7379000Y-82092800D03*
X5829000Y-82092800D03*
%TD*%
D20*
%TO.C,R20*%
X2159000Y-74928000D03*
X2159000Y-75948000D03*
%TD*%
D17*
%TO.C,R22*%
X-3683000Y-75755000D03*
X-3683000Y-74105000D03*
%TD*%
D11*
%TO.C,D4*%
X-18530100Y-13157200D03*
X-19500100Y-13157200D03*
%TD*%
D12*
%TO.C,R16*%
X4966200Y-11531600D03*
X6616200Y-11531600D03*
%TD*%
D20*
%TO.C,R29*%
X355600Y-71346600D03*
X355600Y-72366600D03*
%TD*%
D11*
%TO.C,D16*%
X-18514200Y-95859600D03*
X-19484200Y-95859600D03*
%TD*%
D53*
%TO.C,C29*%
X2413000Y-41262000D03*
X2413000Y-42812000D03*
%TD*%
D51*
%TO.C,L1*%
X660300Y-97795000D03*
X2235300Y-97795000D03*
%TD*%
D11*
%TO.C,D17*%
X-18514200Y-108610400D03*
X-19484200Y-108610400D03*
%TD*%
D36*
%TO.C,L3*%
X7772500Y-43357800D03*
X6197500Y-43357800D03*
%TD*%
D20*
%TO.C,R3*%
X1524000Y-68779200D03*
X1524000Y-69799200D03*
%TD*%
D54*
%TO.C,Q1*%
X12227600Y-76176900D03*
X10327600Y-76176900D03*
X11277600Y-78051900D03*
%TD*%
D12*
%TO.C,R12*%
X-1193800Y-4470400D03*
X456200Y-4470400D03*
%TD*%
D53*
%TO.C,C2*%
X4546600Y-17360600D03*
X4546600Y-18910600D03*
%TD*%
D12*
%TO.C,R7*%
X4966200Y-13436600D03*
X6616200Y-13436600D03*
%TD*%
D27*
%TO.C,R5*%
X-3378200Y-62054200D03*
X-3378200Y-61034200D03*
%TD*%
D23*
%TO.C,J11*%
X-18382000Y-102561200D03*
D24*
X-10482000Y-97361200D03*
D25*
X-11482000Y-99961200D03*
D24*
X-14182000Y-107161200D03*
D23*
X-7082000Y-106661200D03*
%TD*%
D15*
%TO.C,RN9*%
X-16955200Y-40733600D03*
D16*
X-16455200Y-40733600D03*
X-15955200Y-40733600D03*
D15*
X-15455200Y-40733600D03*
X-15455200Y-39733600D03*
D16*
X-15955200Y-39733600D03*
X-16455200Y-39733600D03*
D15*
X-16955200Y-39733600D03*
%TD*%
D55*
%TO.C,R19*%
X3177000Y-73914000D03*
X2157000Y-73914000D03*
%TD*%
D27*
%TO.C,R28*%
X-4953000Y-82679000D03*
X-4953000Y-81659000D03*
%TD*%
D11*
%TO.C,D14*%
X-18514200Y-82092800D03*
X-19484200Y-82092800D03*
%TD*%
%TO.C,D8*%
X-18514200Y-40741600D03*
X-19484200Y-40741600D03*
%TD*%
D15*
%TO.C,RN4*%
X-2578800Y-7586600D03*
D16*
X-2078800Y-7586600D03*
X-1578800Y-7586600D03*
D15*
X-1078800Y-7586600D03*
X-1078800Y-6586600D03*
D16*
X-1578800Y-6586600D03*
X-2078800Y-6586600D03*
D15*
X-2578800Y-6586600D03*
%TD*%
D31*
%TO.C,C20*%
X3378200Y-6959600D03*
X3378200Y-7919600D03*
%TD*%
%TO.C,C24*%
X-2413000Y-84864000D03*
X-2413000Y-85824000D03*
%TD*%
D20*
%TO.C,R1*%
X10718800Y-67562000D03*
X10718800Y-68582000D03*
%TD*%
%TO.C,R14*%
X-3708400Y-71346600D03*
X-3708400Y-72366600D03*
%TD*%
%TO.C,R17*%
X-2692400Y-71346600D03*
X-2692400Y-72366600D03*
%TD*%
D56*
%TO.C,U3*%
X-4368800Y-14895600D03*
X-3098800Y-14895600D03*
X-1828800Y-14895600D03*
X-558800Y-14895600D03*
X711200Y-14895600D03*
X1981200Y-14895600D03*
X3251200Y-14895600D03*
X3251200Y-9945600D03*
X1981200Y-9945600D03*
X711200Y-9945600D03*
X-558800Y-9945600D03*
X-1828800Y-9945600D03*
X-3098800Y-9945600D03*
X-4368800Y-9945600D03*
%TD*%
D23*
%TO.C,J7*%
X-18382000Y-47406913D03*
D24*
X-10482000Y-42206913D03*
D25*
X-11482000Y-44806913D03*
D24*
X-14182000Y-52006913D03*
D23*
X-7082000Y-51506913D03*
%TD*%
D15*
%TO.C,RN5*%
X1131000Y-74176000D03*
D16*
X631000Y-74176000D03*
X131000Y-74176000D03*
D15*
X-369000Y-74176000D03*
X-369000Y-75176000D03*
D16*
X131000Y-75176000D03*
X631000Y-75176000D03*
D15*
X1131000Y-75176000D03*
%TD*%
D20*
%TO.C,R21*%
X-1676400Y-71346600D03*
X-1676400Y-72366600D03*
%TD*%
D27*
%TO.C,R32*%
X5791200Y-85852000D03*
X5791200Y-84832000D03*
%TD*%
D57*
%TO.C,U10*%
X2075100Y-39302400D03*
X2075100Y-38652400D03*
X2075100Y-38002400D03*
X2075100Y-37352400D03*
X2075100Y-36702400D03*
X2075100Y-36052400D03*
X2075100Y-35402400D03*
X2075100Y-34752400D03*
X2075100Y-34102400D03*
X2075100Y-33452400D03*
X2075100Y-32802400D03*
X2075100Y-32152400D03*
X2075100Y-31502400D03*
X2075100Y-30852400D03*
X-3649900Y-30852400D03*
X-3649900Y-31502400D03*
X-3649900Y-32152400D03*
X-3649900Y-32802400D03*
X-3649900Y-33452400D03*
X-3649900Y-34102400D03*
X-3649900Y-34752400D03*
X-3649900Y-35402400D03*
X-3649900Y-36052400D03*
X-3649900Y-36702400D03*
X-3649900Y-37352400D03*
X-3649900Y-38002400D03*
X-3649900Y-38652400D03*
X-3649900Y-39302400D03*
%TD*%
D58*
%TO.C,C15*%
X-3003200Y-24968200D03*
X2596800Y-24968200D03*
%TD*%
D31*
%TO.C,C21*%
X-4495800Y-6959600D03*
X-4495800Y-7919600D03*
%TD*%
D11*
%TO.C,D3*%
X-18530100Y-12242800D03*
X-19500100Y-12242800D03*
%TD*%
D23*
%TO.C,J4*%
X-18382000Y-6041200D03*
D24*
X-10482000Y-841200D03*
D25*
X-11482000Y-3441200D03*
D24*
X-14182000Y-10641200D03*
D23*
X-7082000Y-10141200D03*
%TD*%
%TO.C,J6*%
X-18382000Y-33618342D03*
D24*
X-10482000Y-28418342D03*
D25*
X-11482000Y-31018342D03*
D24*
X-14182000Y-38218342D03*
D23*
X-7082000Y-37718342D03*
%TD*%
%TO.C,J8*%
X-18382000Y-61195484D03*
D24*
X-10482000Y-55995484D03*
D25*
X-11482000Y-58595484D03*
D24*
X-14182000Y-65795484D03*
D23*
X-7082000Y-65295484D03*
%TD*%
D11*
%TO.C,D13*%
X-18514200Y-81178400D03*
X-19484200Y-81178400D03*
%TD*%
D59*
%TO.C,U5*%
X10226000Y-72917900D03*
X11176000Y-72917900D03*
X12126000Y-72917900D03*
X12126000Y-70642900D03*
X10226000Y-70642900D03*
%TD*%
D60*
%TO.C,C7*%
X5321253Y-56756253D03*
X7230441Y-58665441D03*
%TD*%
D40*
%TO.C,J2*%
X12954000Y-60960000D03*
D41*
X10414000Y-60960000D03*
X12954000Y-58420000D03*
X10414000Y-58420000D03*
X12954000Y-55880000D03*
X10414000Y-55880000D03*
X12954000Y-53340000D03*
X10414000Y-53340000D03*
X12954000Y-50800000D03*
X10414000Y-50800000D03*
X12954000Y-48260000D03*
X10414000Y-48260000D03*
%TD*%
D11*
%TO.C,D10*%
X-18514200Y-54508400D03*
X-19484200Y-54508400D03*
%TD*%
D38*
%TO.C,C6*%
X-1600200Y-106990800D03*
X-1600200Y-101390800D03*
%TD*%
M02*
