%TF.GenerationSoftware,KiCad,Pcbnew,(6.0.11)*%
%TF.CreationDate,2023-02-21T23:01:43+01:00*%
%TF.ProjectId,eurorack-pmod-pcb,6575726f-7261-4636-9b2d-706d6f642d70,rev?*%
%TF.SameCoordinates,Original*%
%TF.FileFunction,Copper,L3,Inr*%
%TF.FilePolarity,Positive*%
%FSLAX46Y46*%
G04 Gerber Fmt 4.6, Leading zero omitted, Abs format (unit mm)*
G04 Created by KiCad (PCBNEW (6.0.11)) date 2023-02-21 23:01:43*
%MOMM*%
%LPD*%
G01*
G04 APERTURE LIST*
%TA.AperFunction,ComponentPad*%
%ADD10C,0.500000*%
%TD*%
%TA.AperFunction,ComponentPad*%
%ADD11C,0.800000*%
%TD*%
%TA.AperFunction,ComponentPad*%
%ADD12C,6.400000*%
%TD*%
%TA.AperFunction,ComponentPad*%
%ADD13O,1.308000X2.616000*%
%TD*%
%TA.AperFunction,ComponentPad*%
%ADD14O,2.016000X1.008000*%
%TD*%
%TA.AperFunction,ComponentPad*%
%ADD15O,2.616000X1.308000*%
%TD*%
%TA.AperFunction,ComponentPad*%
%ADD16R,1.700000X1.700000*%
%TD*%
%TA.AperFunction,ComponentPad*%
%ADD17O,1.700000X1.700000*%
%TD*%
%TA.AperFunction,ViaPad*%
%ADD18C,0.500000*%
%TD*%
%TA.AperFunction,Conductor*%
%ADD19C,0.254000*%
%TD*%
%TA.AperFunction,Conductor*%
%ADD20C,0.200000*%
%TD*%
%TA.AperFunction,Conductor*%
%ADD21C,0.204000*%
%TD*%
G04 APERTURE END LIST*
D10*
%TO.N,GND*%
%TO.C,U1*%
X742645Y-54694482D03*
X2156859Y-54694482D03*
X2156859Y-53280268D03*
X1449752Y-52573161D03*
X742645Y-53280268D03*
X1449752Y-55401589D03*
X1449752Y-53987375D03*
X2863966Y-53987375D03*
X35538Y-53987375D03*
%TD*%
D11*
%TO.N,N/C*%
%TO.C,REF\u002A\u002A*%
X12873056Y-2112944D03*
X8776000Y-3810000D03*
X9478944Y-2112944D03*
D12*
X11176000Y-3810000D03*
D11*
X12873056Y-5507056D03*
X11176000Y-1410000D03*
X11176000Y-6210000D03*
X13576000Y-3810000D03*
X9478944Y-5507056D03*
%TD*%
D13*
%TO.N,GND*%
%TO.C,J10*%
X-18382000Y-88772626D03*
D14*
X-10482000Y-83572626D03*
D15*
%TO.N,/JACK_DETECT_OUT3*%
X-11482000Y-86172626D03*
D14*
%TO.N,Net-(J10-PadT)*%
X-14182000Y-93372626D03*
D13*
%TO.N,unconnected-(J10-PadTN)*%
X-7082000Y-92872626D03*
%TD*%
%TO.N,GND*%
%TO.C,J5*%
X-18382000Y-19829771D03*
D14*
X-10482000Y-14629771D03*
D15*
%TO.N,/JACK_DETECT_IN2*%
X-11482000Y-17229771D03*
D14*
%TO.N,Net-(J5-PadT)*%
X-14182000Y-24429771D03*
D13*
%TO.N,unconnected-(J5-PadTN)*%
X-7082000Y-23929771D03*
%TD*%
D11*
%TO.N,N/C*%
%TO.C,REF\u002A\u002A*%
X11303000Y-108699000D03*
X13000056Y-107996056D03*
X9605944Y-104601944D03*
X13000056Y-104601944D03*
D12*
X11303000Y-106299000D03*
D11*
X9605944Y-107996056D03*
X13703000Y-106299000D03*
X11303000Y-103899000D03*
X8903000Y-106299000D03*
%TD*%
D16*
%TO.N,Net-(D2-Pad1)*%
%TO.C,J1*%
X12954000Y-97459800D03*
D17*
X10414000Y-97459800D03*
%TO.N,GND*%
X12954000Y-94919800D03*
X10414000Y-94919800D03*
X12954000Y-92379800D03*
X10414000Y-92379800D03*
X12954000Y-89839800D03*
X10414000Y-89839800D03*
%TO.N,Net-(D1-Pad2)*%
X12954000Y-87299800D03*
X10414000Y-87299800D03*
%TD*%
D13*
%TO.N,GND*%
%TO.C,J9*%
X-18382000Y-74984055D03*
D14*
X-10482000Y-69784055D03*
D15*
%TO.N,/JACK_DETECT_OUT2*%
X-11482000Y-72384055D03*
D14*
%TO.N,Net-(J9-PadT)*%
X-14182000Y-79584055D03*
D13*
%TO.N,unconnected-(J9-PadTN)*%
X-7082000Y-79084055D03*
%TD*%
%TO.N,GND*%
%TO.C,J11*%
X-18382000Y-102561200D03*
D14*
X-10482000Y-97361200D03*
D15*
%TO.N,/JACK_DETECT_OUT4*%
X-11482000Y-99961200D03*
D14*
%TO.N,Net-(J11-PadT)*%
X-14182000Y-107161200D03*
D13*
%TO.N,unconnected-(J11-PadTN)*%
X-7082000Y-106661200D03*
%TD*%
%TO.N,GND*%
%TO.C,J7*%
X-18382000Y-47406913D03*
D14*
X-10482000Y-42206913D03*
D15*
%TO.N,/JACK_DETECT_IN4*%
X-11482000Y-44806913D03*
D14*
%TO.N,Net-(J7-PadT)*%
X-14182000Y-52006913D03*
D13*
%TO.N,unconnected-(J7-PadTN)*%
X-7082000Y-51506913D03*
%TD*%
%TO.N,GND*%
%TO.C,J4*%
X-18382000Y-6041200D03*
D14*
X-10482000Y-841200D03*
D15*
%TO.N,/JACK_DETECT_IN1*%
X-11482000Y-3441200D03*
D14*
%TO.N,Net-(J4-PadT)*%
X-14182000Y-10641200D03*
D13*
%TO.N,unconnected-(J4-PadTN)*%
X-7082000Y-10141200D03*
%TD*%
%TO.N,GND*%
%TO.C,J6*%
X-18382000Y-33618342D03*
D14*
X-10482000Y-28418342D03*
D15*
%TO.N,/JACK_DETECT_IN3*%
X-11482000Y-31018342D03*
D14*
%TO.N,Net-(J6-PadT)*%
X-14182000Y-38218342D03*
D13*
%TO.N,unconnected-(J6-PadTN)*%
X-7082000Y-37718342D03*
%TD*%
%TO.N,GND*%
%TO.C,J8*%
X-18382000Y-61195484D03*
D14*
X-10482000Y-55995484D03*
D15*
%TO.N,/JACK_DETECT_OUT1*%
X-11482000Y-58595484D03*
D14*
%TO.N,Net-(J8-PadT)*%
X-14182000Y-65795484D03*
D13*
%TO.N,unconnected-(J8-PadTN)*%
X-7082000Y-65295484D03*
%TD*%
D16*
%TO.N,/SDIN1*%
%TO.C,J2*%
X12954000Y-60960000D03*
D17*
%TO.N,/SCL*%
X10414000Y-60960000D03*
%TO.N,/SDOUT1*%
X12954000Y-58420000D03*
%TO.N,/SDA*%
X10414000Y-58420000D03*
%TO.N,/LRCK*%
X12954000Y-55880000D03*
%TO.N,/PDN*%
X10414000Y-55880000D03*
%TO.N,/BICK*%
X12954000Y-53340000D03*
%TO.N,/MCLK*%
X10414000Y-53340000D03*
%TO.N,GNDD*%
X12954000Y-50800000D03*
X10414000Y-50800000D03*
%TO.N,/C_3V3*%
X12954000Y-48260000D03*
X10414000Y-48260000D03*
%TD*%
D18*
%TO.N,GND*%
X2336800Y-18643600D03*
X8331200Y-82092800D03*
X8534400Y-41300400D03*
X4572000Y-19761200D03*
X6553200Y-76047600D03*
X-932100Y-18802608D03*
X-763232Y-8358162D03*
X2435539Y-74665602D03*
X-154910Y-51371921D03*
X4826000Y-24993600D03*
X8483600Y-42773600D03*
X7951500Y-23749500D03*
X5588000Y-59690000D03*
X-2590800Y-48514000D03*
X1593280Y-62044009D03*
X11582400Y-38862000D03*
X8737600Y-37947600D03*
X-1625600Y-88138000D03*
X2214412Y-8170560D03*
X-1074147Y-74653166D03*
X-1625600Y-109169200D03*
X-1063556Y-42806044D03*
X-5042408Y-83005297D03*
X2968102Y-5718698D03*
X4927600Y-69443600D03*
X6553200Y-21386800D03*
X6654800Y-85750400D03*
X6647100Y-31851929D03*
%TO.N,+3.3VA*%
X-3556000Y-52781200D03*
X11684000Y-40589200D03*
%TO.N,VDD*%
X3911600Y-66954400D03*
X9601200Y-67106800D03*
X-6631160Y-67546300D03*
X3708400Y-60452000D03*
X-13970000Y-16357600D03*
X-15697200Y-14427200D03*
X10363200Y-69240400D03*
X3911600Y-62230000D03*
X-4363398Y-67011059D03*
X11734800Y-42164000D03*
%TO.N,+12V*%
X355600Y-79603600D03*
X6502400Y-72440800D03*
X11938000Y-33680400D03*
X-1778000Y-98501200D03*
X3149600Y-12954000D03*
X8128000Y-17526000D03*
%TO.N,-12V*%
X5537200Y-28498800D03*
X-863600Y-80619600D03*
X-3048000Y-98958400D03*
X6654800Y-5384800D03*
X-558800Y-11531600D03*
%TO.N,Net-(C21-Pad2)*%
X-5334000Y-5892800D03*
X-2133600Y-5842000D03*
%TO.N,Net-(C23-Pad1)*%
X-1270000Y-73609200D03*
X-1473200Y-76555600D03*
%TO.N,Net-(C18-Pad1)*%
X-2590800Y-16002000D03*
X-3688646Y-16895988D03*
%TO.N,/SDIN1*%
X1778000Y-57454800D03*
X9652000Y-64465200D03*
X812800Y-59486800D03*
%TO.N,/SCL*%
X1371600Y-63042800D03*
X-762000Y-60655200D03*
X-1397000Y-56159400D03*
X7274135Y-62648630D03*
X-5283200Y-38557200D03*
%TO.N,/SDOUT1*%
X-1168400Y-58877200D03*
%TO.N,/SDA*%
X-2318956Y-38524244D03*
X-1175508Y-58072404D03*
X3048000Y-65328800D03*
%TO.N,/PDN*%
X13563600Y-73964800D03*
X-2489200Y-55880000D03*
%TO.N,Net-(C25-Pad1)*%
X5689600Y-84277200D03*
X3556000Y-84226400D03*
%TO.N,/-VCOM*%
X-101600Y-16764000D03*
X9042400Y-31902400D03*
X-50800Y-73050400D03*
X1219200Y-64262000D03*
X-3352800Y-6604000D03*
X-3505200Y-54610000D03*
X-3505200Y-57048400D03*
X-863600Y-87172800D03*
X-2576689Y-61301489D03*
X304800Y-5689600D03*
X-3098800Y-17272000D03*
%TO.N,/dual_mono_inputs1/IN1_3V*%
X13193999Y-43857265D03*
X2743200Y-50292000D03*
%TO.N,Net-(RN4-Pad5)*%
X-1475846Y-8460844D03*
X-1066800Y-5892800D03*
%TO.N,/dual_mono_inputs1/IN2_3V*%
X12803761Y-44991100D03*
X3403600Y-51003200D03*
%TO.N,/vref/+3V0_AREF*%
X4165600Y-42824400D03*
X-863600Y-51612800D03*
X2844800Y-48768000D03*
X6299200Y-40030400D03*
%TO.N,/dual_mono_inputs2/IN1_3V*%
X13647500Y-45059600D03*
X4064000Y-51765200D03*
%TO.N,Net-(RN3-Pad5)*%
X-269437Y-7156028D03*
X2387600Y-6858000D03*
%TO.N,/dual_mono_inputs2/IN2_3V*%
X7874000Y-11734800D03*
X14224000Y-45669200D03*
X4673600Y-52527200D03*
X10160000Y-11430000D03*
%TO.N,/dual_mono_outputs1/OUT1*%
X-1361352Y-52210926D03*
X660400Y-73558400D03*
%TO.N,Net-(C20-Pad1)*%
X1524326Y-8284952D03*
X1270000Y-4521200D03*
%TO.N,/dual_mono_outputs1/OUT2*%
X-863600Y-73101200D03*
X-1846497Y-52714850D03*
%TO.N,/dual_mono_outputs2/OUT1*%
X56511Y-87067040D03*
X-2743200Y-53949600D03*
%TO.N,/dual_mono_outputs2/OUT2*%
X-2590800Y-54711600D03*
X1828800Y-87223600D03*
%TO.N,Net-(D3-Pad1)*%
X3505200Y-36728400D03*
X-17983200Y-11938000D03*
%TO.N,Net-(C22-Pad1)*%
X2489200Y-73304400D03*
X1778054Y-76440704D03*
%TO.N,Net-(D4-Pad1)*%
X-18084800Y-14173200D03*
X3454400Y-35458400D03*
%TO.N,Net-(D4-Pad2)*%
X-16691985Y-11111802D03*
X-19202400Y-14071600D03*
%TO.N,Net-(D5-Pad1)*%
X-17627600Y-25908000D03*
X3505200Y-34696400D03*
%TO.N,GNDD*%
X3698929Y-56546040D03*
X-851013Y-56665302D03*
X7924800Y-70713600D03*
X4978400Y-39979600D03*
X10972800Y-70358000D03*
X9499600Y-75590400D03*
X8483600Y-54914800D03*
X558800Y-37033200D03*
X9042400Y-72542400D03*
X-1115401Y-62127521D03*
X5029200Y-43281600D03*
X8018844Y-59428444D03*
X4927600Y-37795200D03*
X2899940Y-57306930D03*
%TO.N,Net-(D5-Pad2)*%
X-16002000Y-11226800D03*
X-17050956Y-14917356D03*
%TO.N,Net-(J4-PadT)*%
X-1778000Y-19659600D03*
%TO.N,Net-(J5-PadT)*%
X1574800Y-20320000D03*
%TO.N,Net-(J6-PadT)*%
X-10972800Y-12242800D03*
%TO.N,Net-(J7-PadT)*%
X-2997200Y-3200400D03*
X-11836400Y-9296400D03*
X-11887200Y-11531600D03*
%TO.N,Net-(J8-PadT)*%
X-4013200Y-79502000D03*
%TO.N,Net-(J9-PadT)*%
X-5366956Y-73794556D03*
%TO.N,Net-(D6-Pad1)*%
X-17627600Y-26974800D03*
X3048000Y-34036000D03*
%TO.N,Net-(D6-Pad2)*%
X-18948400Y-27940000D03*
X-18338800Y-24942800D03*
%TO.N,Net-(D7-Pad1)*%
X3454400Y-33426400D03*
X-18338800Y-38963600D03*
%TO.N,Net-(D8-Pad1)*%
X-18084800Y-42367200D03*
X3149600Y-32766000D03*
%TO.N,Net-(D8-Pad2)*%
X-16143262Y-38376033D03*
X-19405600Y-41656000D03*
%TO.N,Net-(D9-Pad1)*%
X-203200Y-32207200D03*
X1219200Y-32156400D03*
X-17373600Y-53492400D03*
%TO.N,Net-(D9-Pad2)*%
X-15687900Y-41505053D03*
X-15595600Y-38811200D03*
%TO.N,Net-(D10-Pad1)*%
X-3200400Y-45567600D03*
X-4521200Y-44399200D03*
X-17119600Y-54457600D03*
X1016000Y-31343600D03*
X-121341Y-30971349D03*
%TO.N,Net-(D10-Pad2)*%
X-13978881Y-39620301D03*
X-14499890Y-40634418D03*
%TO.N,Net-(D11-Pad1)*%
X-19020003Y-66751200D03*
X-5080000Y-30835600D03*
%TO.N,Net-(D12-Pad1)*%
X-17983200Y-68630800D03*
X-6075670Y-31638221D03*
%TO.N,Net-(D12-Pad2)*%
X-16265300Y-66381441D03*
X-19354800Y-69392800D03*
%TO.N,Net-(D13-Pad1)*%
X-14325600Y-49530000D03*
X-5130800Y-32156400D03*
X-16459200Y-56794400D03*
X-18034000Y-80365600D03*
%TO.N,Net-(D13-Pad2)*%
X-16744691Y-70042924D03*
X-15734016Y-65926423D03*
%TO.N,Net-(D14-Pad1)*%
X-12496800Y-50139600D03*
X-13817600Y-55372000D03*
X-17656935Y-82345390D03*
X-5740400Y-32816800D03*
%TO.N,Net-(J10-PadT)*%
X-3860800Y-87884000D03*
%TO.N,Net-(D14-Pad2)*%
X-14893700Y-77548953D03*
X-13665200Y-67716400D03*
X-16697001Y-78340617D03*
X-14122400Y-70358000D03*
%TO.N,Net-(D15-Pad1)*%
X-17932400Y-94742000D03*
X-9652000Y-49987200D03*
X-5283200Y-33477200D03*
X-9499600Y-52730400D03*
%TO.N,Net-(D16-Pad1)*%
X-17881600Y-96418400D03*
X-11430000Y-54508400D03*
X-11938000Y-52527200D03*
X-6096000Y-34086800D03*
%TO.N,Net-(D16-Pad2)*%
X-17194056Y-93667958D03*
X-18846800Y-96824800D03*
%TO.N,Net-(D17-Pad1)*%
X-8940800Y-46990000D03*
X-17971503Y-108153200D03*
X-8788400Y-52019200D03*
X-5537200Y-35306000D03*
%TO.N,Net-(D17-Pad2)*%
X-16644556Y-93134244D03*
X-14182500Y-95148400D03*
%TO.N,Net-(D18-Pad1)*%
X-7213600Y-42570400D03*
X-7112000Y-47244000D03*
X-5283200Y-36830000D03*
X-4622800Y-40894000D03*
X-6400800Y-49631600D03*
X-17272000Y-108153200D03*
%TO.N,Net-(D18-Pad2)*%
X-13512800Y-97028000D03*
X-15290800Y-94386400D03*
X-16764000Y-109067600D03*
X-19258700Y-109575600D03*
%TO.N,/JACK_DETECT_IN1*%
X4927600Y-35560000D03*
X-6756400Y-12903200D03*
X-9601200Y-3048000D03*
X-7823200Y-14325600D03*
X3454400Y-38862000D03*
X-10668000Y-21844000D03*
X-9855200Y-24587200D03*
X-3149600Y-64973200D03*
X-8686800Y-4064000D03*
%TO.N,/JACK_DETECT_IN2*%
X-5232400Y-42519600D03*
X-4927600Y-62382400D03*
X-7569200Y-39827200D03*
%TO.N,/JACK_DETECT_IN3*%
X-4978400Y-68122800D03*
%TO.N,/JACK_DETECT_IN4*%
X-3809244Y-67437928D03*
X-7366000Y-54152800D03*
%TO.N,/JACK_DETECT_OUT1*%
X-3184800Y-70647200D03*
X-7061200Y-69646800D03*
%TO.N,/JACK_DETECT_OUT2*%
X-6248400Y-69799200D03*
X-3302000Y-67919600D03*
%TO.N,/JACK_DETECT_OUT3*%
X-2763353Y-67418293D03*
X-6400800Y-76403200D03*
X-6248400Y-71323200D03*
%TO.N,/JACK_DETECT_OUT4*%
X-3398742Y-73072653D03*
X-7467600Y-88747600D03*
X-7416800Y-86156800D03*
X1473200Y-70916800D03*
%TO.N,Net-(J11-PadT)*%
X4470400Y-87680800D03*
%TO.N,/~{PDN}*%
X-2336800Y-36068000D03*
X4368800Y-67919600D03*
X1117600Y-67919600D03*
%TO.N,Net-(RN7-Pad6)*%
X8077200Y-22860000D03*
X9398000Y-26365200D03*
%TD*%
D19*
%TO.N,/JACK_DETECT_IN2*%
X-7569200Y-39827200D02*
X-8432800Y-38963600D01*
X-15517000Y-22425800D02*
X-11482000Y-18390800D01*
X-8432800Y-38963600D02*
X-8432800Y-28194000D01*
X-13309600Y-27584400D02*
X-15517000Y-25377000D01*
X-8432800Y-28194000D02*
X-9042400Y-27584400D01*
X-11482000Y-18390800D02*
X-11482000Y-17229771D01*
X-9042400Y-27584400D02*
X-13309600Y-27584400D01*
X-15517000Y-25377000D02*
X-15517000Y-22425800D01*
%TO.N,Net-(C23-Pad1)*%
X-1473200Y-76200000D02*
X-609600Y-75336400D01*
X-609600Y-75336400D02*
X-508000Y-75234800D01*
X-508000Y-75234800D02*
X-508000Y-74117200D01*
X-1016000Y-73609200D02*
X-1270000Y-73609200D01*
X-1473200Y-76555600D02*
X-1473200Y-76200000D01*
X-508000Y-74117200D02*
X-1016000Y-73609200D01*
D20*
%TO.N,/SCL*%
X9093200Y-59283600D02*
X9093200Y-57962800D01*
X6756400Y-55626000D02*
X6756400Y-48920400D01*
X7274135Y-61102665D02*
X9093200Y-59283600D01*
X-5283200Y-41097200D02*
X-5283200Y-38557200D01*
X7274135Y-62648630D02*
X7274135Y-61102665D01*
X2184400Y-44348400D02*
X-2032000Y-44348400D01*
X7467600Y-56337200D02*
X6756400Y-55626000D01*
X-2032000Y-44348400D02*
X-5283200Y-41097200D01*
X6756400Y-48920400D02*
X2184400Y-44348400D01*
X9093200Y-57962800D02*
X7467600Y-56337200D01*
D21*
%TO.N,/SDA*%
X-609600Y-42214800D02*
X-609600Y-38658800D01*
X8834301Y-60110307D02*
X8834301Y-62387299D01*
X7772400Y-55778400D02*
X7772400Y-48615600D01*
X8834301Y-62387299D02*
X5892800Y-65328800D01*
X7772400Y-48615600D02*
X2946400Y-43789600D01*
X10414000Y-58530608D02*
X8834301Y-60110307D01*
X5892800Y-65328800D02*
X3048000Y-65328800D01*
X965200Y-43789600D02*
X-609600Y-42214800D01*
X2946400Y-43789600D02*
X965200Y-43789600D01*
X-744156Y-38524244D02*
X-2318956Y-38524244D01*
X10414000Y-58420000D02*
X7772400Y-55778400D01*
X10414000Y-58420000D02*
X10414000Y-58530608D01*
X-609600Y-38658800D02*
X-744156Y-38524244D01*
D20*
%TO.N,/dual_mono_outputs1/OUT1*%
X1473200Y-59131200D02*
X1473200Y-60858400D01*
X-1361352Y-52210926D02*
X-1361352Y-52232648D01*
X-812800Y-52781200D02*
X-812800Y-54914800D01*
X1168400Y-56896000D02*
X1168400Y-58826400D01*
X1168400Y-58826400D02*
X1473200Y-59131200D01*
X1473200Y-60858400D02*
X2336800Y-61722000D01*
X1371600Y-73558400D02*
X660400Y-73558400D01*
X2336800Y-61722000D02*
X2336800Y-72593200D01*
X-1361352Y-52232648D02*
X-812800Y-52781200D01*
X-812800Y-54914800D02*
X1168400Y-56896000D01*
X2336800Y-72593200D02*
X1371600Y-73558400D01*
%TO.N,/dual_mono_outputs1/OUT2*%
X-1219200Y-55219600D02*
X0Y-56438800D01*
X152400Y-58928000D02*
X101600Y-58928000D01*
X101600Y-58928000D02*
X0Y-59029600D01*
X711200Y-58369200D02*
X152400Y-58928000D01*
X-1219200Y-55067200D02*
X-1219200Y-55219600D01*
X-863600Y-72898000D02*
X-863600Y-73101200D01*
X-1219200Y-53441600D02*
X-1219200Y-55067200D01*
X0Y-61976000D02*
X0Y-72034400D01*
X0Y-56438800D02*
X711200Y-57150000D01*
X-1846497Y-52814303D02*
X-1320800Y-53340000D01*
X711200Y-57150000D02*
X711200Y-58369200D01*
X-101600Y-72136000D02*
X-863600Y-72898000D01*
X0Y-59029600D02*
X0Y-61976000D01*
X-1320800Y-53340000D02*
X-1219200Y-53441600D01*
X0Y-72034400D02*
X-101600Y-72136000D01*
X-1846497Y-52714850D02*
X-1846497Y-52814303D01*
%TO.N,/dual_mono_outputs2/OUT1*%
X-4419600Y-54508400D02*
X-4419600Y-60242620D01*
X-2213853Y-76128111D02*
X-2299201Y-76213459D01*
X-4419600Y-60242620D02*
X-2213853Y-62448367D01*
X-2443745Y-77516539D02*
X-2443745Y-78200821D01*
X-2299201Y-77371995D02*
X-2443745Y-77516539D01*
X-2743200Y-53949600D02*
X-3860800Y-53949600D01*
X-2213853Y-62448367D02*
X-2213853Y-76128111D01*
X-3860800Y-53949600D02*
X-4419600Y-54508400D01*
X-2299201Y-76213459D02*
X-2299201Y-77371995D01*
X-2443745Y-78200821D02*
X-2299201Y-78345365D01*
X-2299201Y-84711328D02*
X56511Y-87067040D01*
X-2299201Y-78345365D02*
X-2299201Y-84711328D01*
%TO.N,/dual_mono_outputs2/OUT2*%
X-1826701Y-57710899D02*
X-1826701Y-76202701D01*
X-1972700Y-83422100D02*
X1828800Y-87223600D01*
X-3098800Y-56438800D02*
X-1826701Y-57710899D01*
X-1826701Y-76202701D02*
X-1972700Y-76348700D01*
X-3098800Y-55219600D02*
X-3098800Y-56438800D01*
X-2590800Y-54711600D02*
X-3098800Y-55219600D01*
X-1972700Y-76348700D02*
X-1972700Y-83422100D01*
%TO.N,Net-(J4-PadT)*%
X-10237600Y-10641200D02*
X-7467600Y-13411200D01*
X-6299200Y-14579600D02*
X-6299200Y-18592800D01*
X-6299200Y-18592800D02*
X-6299200Y-19710400D01*
X-2641600Y-21234400D02*
X-1676400Y-20269200D01*
X-7467600Y-13411200D02*
X-6299200Y-14579600D01*
X-14182000Y-10641200D02*
X-10237600Y-10641200D01*
X-6299200Y-19710400D02*
X-4775200Y-21234400D01*
X-1676400Y-20269200D02*
X-1676400Y-19761200D01*
X-1676400Y-19761200D02*
X-1778000Y-19659600D01*
X-4775200Y-21234400D02*
X-2641600Y-21234400D01*
%TO.N,Net-(J5-PadT)*%
X-14182000Y-24429771D02*
X-11678971Y-24429771D01*
X-9144000Y-21894800D02*
X-9042400Y-21793200D01*
X-9042400Y-21793200D02*
X1422400Y-21793200D01*
X-11678971Y-24429771D02*
X-9144000Y-21894800D01*
X1422400Y-21793200D02*
X1574800Y-21640800D01*
X1574800Y-21640800D02*
X1574800Y-20320000D01*
%TO.N,Net-(J6-PadT)*%
X-16052800Y-17221200D02*
X-11074400Y-12242800D01*
X-16052800Y-36347542D02*
X-16052800Y-17221200D01*
X-14182000Y-38218342D02*
X-16052800Y-36347542D01*
X-11074400Y-12242800D02*
X-10972800Y-12242800D01*
%TO.N,Net-(J7-PadT)*%
X-8686800Y-3200400D02*
X-2997200Y-3200400D01*
X-14182000Y-52006913D02*
X-14686000Y-52006913D01*
X-8686800Y-3200400D02*
X-11836400Y-6350000D01*
X-15452500Y-15096900D02*
X-11887200Y-11531600D01*
X-16713200Y-49979713D02*
X-16713200Y-17018000D01*
X-16713200Y-17018000D02*
X-15452500Y-15757300D01*
X-11836400Y-6350000D02*
X-11836400Y-9296400D01*
X-14686000Y-52006913D02*
X-16713200Y-49979713D01*
X-15452500Y-15757300D02*
X-15452500Y-15096900D01*
%TO.N,Net-(J8-PadT)*%
X-14182000Y-65795484D02*
X-13074000Y-66903484D01*
X-13074000Y-66903484D02*
X-11480916Y-66903484D01*
X-4216400Y-79502000D02*
X-4013200Y-79502000D01*
X-4622800Y-79095600D02*
X-4216400Y-79502000D01*
X-11480916Y-66903484D02*
X-4622800Y-73761600D01*
X-4622800Y-73761600D02*
X-4622800Y-79095600D01*
%TO.N,Net-(J9-PadT)*%
X-14182000Y-79584055D02*
X-11156455Y-79584055D01*
X-11156455Y-79584055D02*
X-5366956Y-73794556D01*
%TO.N,Net-(J10-PadT)*%
X-14182000Y-93372626D02*
X-8693374Y-87884000D01*
X-8693374Y-87884000D02*
X-3860800Y-87884000D01*
%TO.N,Net-(D17-Pad2)*%
X-15697200Y-95148400D02*
X-16644556Y-94201044D01*
X-14182500Y-95148400D02*
X-15697200Y-95148400D01*
X-16644556Y-94201044D02*
X-16644556Y-93134244D01*
%TO.N,/JACK_DETECT_IN1*%
X-5851300Y-62271500D02*
X-3149600Y-64973200D01*
X-9994400Y-3441200D02*
X-9601200Y-3048000D01*
X-11482000Y-3441200D02*
X-9994400Y-3441200D01*
X-7823200Y-18999200D02*
X-10668000Y-21844000D01*
X-5384800Y-37744400D02*
X-5851300Y-38210900D01*
X-8077200Y-26365200D02*
X-5334000Y-26365200D01*
X-7823200Y-14325600D02*
X-7823200Y-18999200D01*
X4927600Y-32613600D02*
X4927600Y-35560000D01*
X-8686800Y-10972800D02*
X-6756400Y-12903200D01*
X-1320800Y-26365200D02*
X2997200Y-30683200D01*
X-5851300Y-38210900D02*
X-5851300Y-62271500D01*
X-5334000Y-26365200D02*
X-1320800Y-26365200D01*
X2336800Y-37744400D02*
X-5384800Y-37744400D01*
X-9855200Y-24587200D02*
X-8077200Y-26365200D01*
X2997200Y-30683200D02*
X4927600Y-32613600D01*
X3454400Y-38862000D02*
X2336800Y-37744400D01*
X-8686800Y-4064000D02*
X-8686800Y-10972800D01*
D19*
%TO.N,/JACK_DETECT_IN2*%
X-5283200Y-62026800D02*
X-5283200Y-44145200D01*
X-5283200Y-42570400D02*
X-5232400Y-42519600D01*
X-5283200Y-44145200D02*
X-5283200Y-42570400D01*
X-4927600Y-62382400D02*
X-5283200Y-62026800D01*
%TO.N,/JACK_DETECT_IN3*%
X-4978400Y-68122800D02*
X-7575636Y-68122800D01*
X-7575636Y-68122800D02*
X-9093200Y-66605236D01*
X-8178800Y-41046400D02*
X-11482000Y-37743200D01*
X-9093200Y-66605236D02*
X-9093200Y-60604400D01*
X-8178800Y-59690000D02*
X-8178800Y-41046400D01*
X-9093200Y-60604400D02*
X-8178800Y-59690000D01*
X-11482000Y-37743200D02*
X-11482000Y-31018342D01*
%TO.N,/JACK_DETECT_IN4*%
X-7366000Y-62788800D02*
X-3730258Y-66424542D01*
X-3730258Y-67358942D02*
X-3809244Y-67437928D01*
X-7366000Y-54152800D02*
X-7366000Y-62788800D01*
X-3730258Y-66424542D02*
X-3730258Y-67358942D01*
D20*
%TO.N,/JACK_DETECT_OUT1*%
X-11482000Y-64819600D02*
X-9956800Y-66344800D01*
X-9956800Y-66344800D02*
X-7061200Y-69240400D01*
X-7061200Y-69240400D02*
X-7061200Y-69646800D01*
X-11482000Y-58595484D02*
X-11482000Y-64819600D01*
%TO.N,/JACK_DETECT_OUT2*%
X-6248400Y-69799200D02*
X-6001299Y-69552099D01*
X-6001299Y-69552099D02*
X-4934499Y-69552099D01*
X-4934499Y-69552099D02*
X-3302000Y-67919600D01*
%TO.N,/JACK_DETECT_OUT3*%
X-5435600Y-77673200D02*
X-5435600Y-77368400D01*
X-11482000Y-86172626D02*
X-10828000Y-86172626D01*
X-4876800Y-69951600D02*
X-4318000Y-69951600D01*
X-2692400Y-67489246D02*
X-2763353Y-67418293D01*
X-5435600Y-80780226D02*
X-5435600Y-77673200D01*
X-4318000Y-69951600D02*
X-2692400Y-68326000D01*
X-5435600Y-77368400D02*
X-6400800Y-76403200D01*
X-2692400Y-68326000D02*
X-2692400Y-67489246D01*
X-10828000Y-86172626D02*
X-5435600Y-80780226D01*
X-6248400Y-71323200D02*
X-4876800Y-69951600D01*
%TO.N,/JACK_DETECT_OUT4*%
X-2770246Y-78336062D02*
X-2770246Y-77381298D01*
X-2692400Y-77303452D02*
X-2692400Y-72948800D01*
X-2692400Y-72948800D02*
X-3274889Y-72948800D01*
X-8636000Y-89865200D02*
X-8026400Y-89255600D01*
X-2770246Y-77381298D02*
X-2692400Y-77303452D01*
X-2692400Y-78413908D02*
X-2770246Y-78336062D01*
X-8636000Y-98704400D02*
X-8636000Y-89865200D01*
X-11482000Y-99961200D02*
X-9892800Y-99961200D01*
X-8026400Y-89255600D02*
X-7518400Y-88747600D01*
X-7416800Y-86156800D02*
X-2692400Y-81432400D01*
X-2692400Y-81432400D02*
X-2692400Y-78413908D01*
X-7518400Y-88747600D02*
X-7467600Y-88747600D01*
X-9892800Y-99961200D02*
X-8636000Y-98704400D01*
X-3274889Y-72948800D02*
X-3398742Y-73072653D01*
%TO.N,Net-(J11-PadT)*%
X3454400Y-87680800D02*
X4470400Y-87680800D01*
X-14182000Y-107161200D02*
X-12622400Y-107161200D01*
X-5080000Y-94030800D02*
X-4114800Y-93065600D01*
X-5080000Y-99618800D02*
X-5080000Y-94030800D01*
X660400Y-93065600D02*
X1930400Y-91795600D01*
X-4114800Y-93065600D02*
X660400Y-93065600D01*
X1930400Y-89204800D02*
X3454400Y-87680800D01*
X1930400Y-91795600D02*
X1930400Y-89204800D01*
X-12622400Y-107161200D02*
X-6146800Y-100685600D01*
X-6146800Y-100685600D02*
X-5080000Y-99618800D01*
%TO.N,/~{PDN}*%
X4622800Y-36068000D02*
X-2336800Y-36068000D01*
X11684000Y-65379600D02*
X11684000Y-43129200D01*
X5638800Y-67919600D02*
X7670800Y-65887600D01*
X8636000Y-40081200D02*
X4622800Y-36068000D01*
X11684000Y-43129200D02*
X8636000Y-40081200D01*
X4368800Y-67919600D02*
X5638800Y-67919600D01*
X7670800Y-65887600D02*
X8178800Y-65379600D01*
X8178800Y-65379600D02*
X11684000Y-65379600D01*
%TD*%
M02*
