%TF.GenerationSoftware,KiCad,Pcbnew,(6.0.11)*%
%TF.CreationDate,2023-02-18T19:52:45+01:00*%
%TF.ProjectId,eurorack-pmod-pcb,6575726f-7261-4636-9b2d-706d6f642d70,rev?*%
%TF.SameCoordinates,Original*%
%TF.FileFunction,Legend,Top*%
%TF.FilePolarity,Positive*%
%FSLAX46Y46*%
G04 Gerber Fmt 4.6, Leading zero omitted, Abs format (unit mm)*
G04 Created by KiCad (PCBNEW (6.0.11)) date 2023-02-18 19:52:45*
%MOMM*%
%LPD*%
G01*
G04 APERTURE LIST*
%ADD10C,0.150000*%
%ADD11C,0.375000*%
%ADD12C,0.250000*%
%ADD13C,0.100000*%
%ADD14C,0.120000*%
%ADD15C,0.127000*%
G04 APERTURE END LIST*
D10*
X9120223Y-49530000D02*
X14200223Y-49530000D01*
X14200223Y-49530000D02*
X14200223Y-52070000D01*
X14200223Y-52070000D02*
X9120223Y-52070000D01*
X9120223Y-52070000D02*
X9120223Y-49530000D01*
G36*
X9120223Y-49530000D02*
G01*
X14200223Y-49530000D01*
X14200223Y-52070000D01*
X9120223Y-52070000D01*
X9120223Y-49530000D01*
G37*
X9079000Y-88574800D02*
X14224000Y-88574800D01*
X14224000Y-88574800D02*
X14224000Y-96189800D01*
X14224000Y-96189800D02*
X9079000Y-96189800D01*
X9079000Y-96189800D02*
X9079000Y-88574800D01*
G36*
X9079000Y-88574800D02*
G01*
X14224000Y-88574800D01*
X14224000Y-96189800D01*
X9079000Y-96189800D01*
X9079000Y-88574800D01*
G37*
D11*
X9353799Y-84498571D02*
X9353799Y-82998571D01*
X9925228Y-82998571D01*
X10068085Y-83070000D01*
X10139514Y-83141428D01*
X10210942Y-83284285D01*
X10210942Y-83498571D01*
X10139514Y-83641428D01*
X10068085Y-83712857D01*
X9925228Y-83784285D01*
X9353799Y-83784285D01*
X10710942Y-82998571D02*
X11068085Y-84498571D01*
X11353799Y-83427142D01*
X11639514Y-84498571D01*
X11996657Y-82998571D01*
X13425228Y-84498571D02*
X12925228Y-83784285D01*
X12568085Y-84498571D02*
X12568085Y-82998571D01*
X13139514Y-82998571D01*
X13282371Y-83070000D01*
X13353799Y-83141428D01*
X13425228Y-83284285D01*
X13425228Y-83498571D01*
X13353799Y-83641428D01*
X13282371Y-83712857D01*
X13139514Y-83784285D01*
X12568085Y-83784285D01*
D12*
X8013175Y-99222929D02*
X8013175Y-98461024D01*
X8394127Y-97461024D02*
X8394127Y-98032453D01*
X8394127Y-97746738D02*
X7394127Y-97746738D01*
X7536985Y-97841976D01*
X7632223Y-97937215D01*
X7679842Y-98032453D01*
X7489366Y-97080072D02*
X7441747Y-97032453D01*
X7394127Y-96937215D01*
X7394127Y-96699119D01*
X7441747Y-96603881D01*
X7489366Y-96556262D01*
X7584604Y-96508643D01*
X7679842Y-96508643D01*
X7822699Y-96556262D01*
X8394127Y-97127691D01*
X8394127Y-96508643D01*
X14041380Y-24081428D02*
X13565190Y-24414761D01*
X14041380Y-24652857D02*
X13041380Y-24652857D01*
X13041380Y-24271904D01*
X13089000Y-24176666D01*
X13136619Y-24129047D01*
X13231857Y-24081428D01*
X13374714Y-24081428D01*
X13469952Y-24129047D01*
X13517571Y-24176666D01*
X13565190Y-24271904D01*
X13565190Y-24652857D01*
X13517571Y-23652857D02*
X13517571Y-23319523D01*
X14041380Y-23176666D02*
X14041380Y-23652857D01*
X13041380Y-23652857D01*
X13041380Y-23176666D01*
X13041380Y-22890952D02*
X14041380Y-22557619D01*
X13041380Y-22224285D01*
X13041380Y-21224285D02*
X13041380Y-20605238D01*
X13422333Y-20938571D01*
X13422333Y-20795714D01*
X13469952Y-20700476D01*
X13517571Y-20652857D01*
X13612809Y-20605238D01*
X13850904Y-20605238D01*
X13946142Y-20652857D01*
X13993761Y-20700476D01*
X14041380Y-20795714D01*
X14041380Y-21081428D01*
X13993761Y-21176666D01*
X13946142Y-21224285D01*
X13946142Y-20176666D02*
X13993761Y-20129047D01*
X14041380Y-20176666D01*
X13993761Y-20224285D01*
X13946142Y-20176666D01*
X14041380Y-20176666D01*
X13041380Y-19510000D02*
X13041380Y-19414761D01*
X13089000Y-19319523D01*
X13136619Y-19271904D01*
X13231857Y-19224285D01*
X13422333Y-19176666D01*
X13660428Y-19176666D01*
X13850904Y-19224285D01*
X13946142Y-19271904D01*
X13993761Y-19319523D01*
X14041380Y-19414761D01*
X14041380Y-19510000D01*
X13993761Y-19605238D01*
X13946142Y-19652857D01*
X13850904Y-19700476D01*
X13660428Y-19748095D01*
X13422333Y-19748095D01*
X13231857Y-19700476D01*
X13136619Y-19652857D01*
X13089000Y-19605238D01*
X13041380Y-19510000D01*
X13136619Y-18033809D02*
X13089000Y-17986190D01*
X13041380Y-17890952D01*
X13041380Y-17652857D01*
X13089000Y-17557619D01*
X13136619Y-17510000D01*
X13231857Y-17462380D01*
X13327095Y-17462380D01*
X13469952Y-17510000D01*
X14041380Y-18081428D01*
X14041380Y-17462380D01*
X13041380Y-16843333D02*
X13041380Y-16748095D01*
X13089000Y-16652857D01*
X13136619Y-16605238D01*
X13231857Y-16557619D01*
X13422333Y-16510000D01*
X13660428Y-16510000D01*
X13850904Y-16557619D01*
X13946142Y-16605238D01*
X13993761Y-16652857D01*
X14041380Y-16748095D01*
X14041380Y-16843333D01*
X13993761Y-16938571D01*
X13946142Y-16986190D01*
X13850904Y-17033809D01*
X13660428Y-17081428D01*
X13422333Y-17081428D01*
X13231857Y-17033809D01*
X13136619Y-16986190D01*
X13089000Y-16938571D01*
X13041380Y-16843333D01*
X13136619Y-16129047D02*
X13089000Y-16081428D01*
X13041380Y-15986190D01*
X13041380Y-15748095D01*
X13089000Y-15652857D01*
X13136619Y-15605238D01*
X13231857Y-15557619D01*
X13327095Y-15557619D01*
X13469952Y-15605238D01*
X14041380Y-16176666D01*
X14041380Y-15557619D01*
X13136619Y-15176666D02*
X13089000Y-15129047D01*
X13041380Y-15033809D01*
X13041380Y-14795714D01*
X13089000Y-14700476D01*
X13136619Y-14652857D01*
X13231857Y-14605238D01*
X13327095Y-14605238D01*
X13469952Y-14652857D01*
X14041380Y-15224285D01*
X14041380Y-14605238D01*
X13660428Y-14176666D02*
X13660428Y-13414761D01*
X13041380Y-13033809D02*
X14041380Y-12367142D01*
X13041380Y-12367142D02*
X14041380Y-13033809D01*
X13041380Y-12081428D02*
X14041380Y-11414761D01*
X13041380Y-11414761D02*
X14041380Y-12081428D01*
X13660428Y-11033809D02*
X13660428Y-10271904D01*
X13041380Y-9890952D02*
X14041380Y-9224285D01*
X13041380Y-9224285D02*
X14041380Y-9890952D01*
X13041380Y-8938571D02*
X14041380Y-8271904D01*
X13041380Y-8271904D02*
X14041380Y-8938571D01*
D11*
X7080787Y-93373484D02*
X7009358Y-93516341D01*
X7009358Y-93730627D01*
X7080787Y-93944912D01*
X7223644Y-94087769D01*
X7366501Y-94159198D01*
X7652215Y-94230627D01*
X7866501Y-94230627D01*
X8152215Y-94159198D01*
X8295072Y-94087769D01*
X8437929Y-93944912D01*
X8509358Y-93730627D01*
X8509358Y-93587769D01*
X8437929Y-93373484D01*
X8366501Y-93302055D01*
X7866501Y-93302055D01*
X7866501Y-93587769D01*
X8509358Y-92659198D02*
X7009358Y-92659198D01*
X8509358Y-91802055D01*
X7009358Y-91802055D01*
X8509358Y-91087769D02*
X7009358Y-91087769D01*
X7009358Y-90730627D01*
X7080787Y-90516341D01*
X7223644Y-90373484D01*
X7366501Y-90302055D01*
X7652215Y-90230627D01*
X7866501Y-90230627D01*
X8152215Y-90302055D01*
X8295072Y-90373484D01*
X8437929Y-90516341D01*
X8509358Y-90730627D01*
X8509358Y-91087769D01*
D12*
X6201293Y-47864282D02*
X6820341Y-47864282D01*
X6487008Y-48245235D01*
X6629865Y-48245235D01*
X6725103Y-48292854D01*
X6772722Y-48340473D01*
X6820341Y-48435711D01*
X6820341Y-48673806D01*
X6772722Y-48769044D01*
X6725103Y-48816663D01*
X6629865Y-48864282D01*
X6344150Y-48864282D01*
X6248912Y-48816663D01*
X6201293Y-48769044D01*
X7106055Y-47864282D02*
X7439389Y-48864282D01*
X7772722Y-47864282D01*
X8010817Y-47864282D02*
X8629865Y-47864282D01*
X8296531Y-48245235D01*
X8439389Y-48245235D01*
X8534627Y-48292854D01*
X8582246Y-48340473D01*
X8629865Y-48435711D01*
X8629865Y-48673806D01*
X8582246Y-48769044D01*
X8534627Y-48816663D01*
X8439389Y-48864282D01*
X8153674Y-48864282D01*
X8058436Y-48816663D01*
X8010817Y-48769044D01*
D11*
X8872885Y-64711971D02*
X8872885Y-63211971D01*
X9444314Y-63211971D01*
X9587171Y-63283400D01*
X9658600Y-63354828D01*
X9730028Y-63497685D01*
X9730028Y-63711971D01*
X9658600Y-63854828D01*
X9587171Y-63926257D01*
X9444314Y-63997685D01*
X8872885Y-63997685D01*
X10372885Y-64711971D02*
X10372885Y-63211971D01*
X10872885Y-64283400D01*
X11372885Y-63211971D01*
X11372885Y-64711971D01*
X12372885Y-63211971D02*
X12658600Y-63211971D01*
X12801457Y-63283400D01*
X12944314Y-63426257D01*
X13015742Y-63711971D01*
X13015742Y-64211971D01*
X12944314Y-64497685D01*
X12801457Y-64640542D01*
X12658600Y-64711971D01*
X12372885Y-64711971D01*
X12230028Y-64640542D01*
X12087171Y-64497685D01*
X12015742Y-64211971D01*
X12015742Y-63711971D01*
X12087171Y-63426257D01*
X12230028Y-63283400D01*
X12372885Y-63211971D01*
X13658600Y-64711971D02*
X13658600Y-63211971D01*
X14015742Y-63211971D01*
X14230028Y-63283400D01*
X14372885Y-63426257D01*
X14444314Y-63569114D01*
X14515742Y-63854828D01*
X14515742Y-64069114D01*
X14444314Y-64354828D01*
X14372885Y-64497685D01*
X14230028Y-64640542D01*
X14015742Y-64711971D01*
X13658600Y-64711971D01*
D12*
X7976189Y-89014593D02*
X7976189Y-88252688D01*
X8357141Y-88633640D02*
X7595237Y-88633640D01*
X8357141Y-87252688D02*
X8357141Y-87824117D01*
X8357141Y-87538402D02*
X7357141Y-87538402D01*
X7499999Y-87633640D01*
X7595237Y-87728879D01*
X7642856Y-87824117D01*
X7452380Y-86871736D02*
X7404761Y-86824117D01*
X7357141Y-86728879D01*
X7357141Y-86490783D01*
X7404761Y-86395545D01*
X7452380Y-86347926D01*
X7547618Y-86300307D01*
X7642856Y-86300307D01*
X7785713Y-86347926D01*
X8357141Y-86919355D01*
X8357141Y-86300307D01*
X6603510Y-50427000D02*
X6508272Y-50379380D01*
X6365414Y-50379380D01*
X6222557Y-50427000D01*
X6127319Y-50522238D01*
X6079700Y-50617476D01*
X6032081Y-50807952D01*
X6032081Y-50950809D01*
X6079700Y-51141285D01*
X6127319Y-51236523D01*
X6222557Y-51331761D01*
X6365414Y-51379380D01*
X6460653Y-51379380D01*
X6603510Y-51331761D01*
X6651129Y-51284142D01*
X6651129Y-50950809D01*
X6460653Y-50950809D01*
X7079700Y-51379380D02*
X7079700Y-50379380D01*
X7651129Y-51379380D01*
X7651129Y-50379380D01*
X8127319Y-51379380D02*
X8127319Y-50379380D01*
X8365415Y-50379380D01*
X8508272Y-50427000D01*
X8603510Y-50522238D01*
X8651129Y-50617476D01*
X8698748Y-50807952D01*
X8698748Y-50950809D01*
X8651129Y-51141285D01*
X8603510Y-51236523D01*
X8508272Y-51331761D01*
X8365415Y-51379380D01*
X8127319Y-51379380D01*
D13*
%TO.C,D7*%
X-17859200Y-39827200D02*
G75*
G03*
X-17859200Y-39827200I-50000J0D01*
G01*
D14*
%TO.C,R9*%
X1439142Y-20131300D02*
X1913658Y-20131300D01*
X1439142Y-19086300D02*
X1913658Y-19086300D01*
%TO.C,U9*%
X5847400Y-30988000D02*
X5847400Y-32938000D01*
X10967400Y-30988000D02*
X10967400Y-32938000D01*
X5847400Y-30988000D02*
X5847400Y-29038000D01*
X10967400Y-30988000D02*
X10967400Y-27538000D01*
%TO.C,C18*%
X-4262800Y-17735436D02*
X-4262800Y-17519764D01*
X-4982800Y-17735436D02*
X-4982800Y-17519764D01*
%TO.C,U2*%
X-4079400Y-80340200D02*
X-4079400Y-78390200D01*
X-4079400Y-80340200D02*
X-4079400Y-82290200D01*
X4790600Y-80340200D02*
X4790600Y-82290200D01*
X4790600Y-80340200D02*
X4790600Y-76890200D01*
D13*
%TO.C,D18*%
X-17859200Y-109524800D02*
G75*
G03*
X-17859200Y-109524800I-50000J0D01*
G01*
D14*
%TO.C,RN11*%
X-15126800Y-95152400D02*
X-15126800Y-95652400D01*
X-17486800Y-95152400D02*
X-17486800Y-95652400D01*
%TO.C,R18*%
X3922500Y-75167258D02*
X3922500Y-74692742D01*
X4967500Y-75167258D02*
X4967500Y-74692742D01*
%TO.C,R13*%
X5553942Y-9104100D02*
X6028458Y-9104100D01*
X5553942Y-10149100D02*
X6028458Y-10149100D01*
%TO.C,C17*%
X-884123Y-49524828D02*
X-1082934Y-49326017D01*
X-1605372Y-50246077D02*
X-1804183Y-50047266D01*
%TO.C,C4*%
X4925600Y-71768580D02*
X4925600Y-71487420D01*
X5945600Y-71768580D02*
X5945600Y-71487420D01*
D13*
%TO.C,D11*%
X-17910000Y-67411600D02*
G75*
G03*
X-17910000Y-67411600I-50000J0D01*
G01*
%TO.C,D5*%
X-17859200Y-26009600D02*
G75*
G03*
X-17859200Y-26009600I-50000J0D01*
G01*
D14*
%TO.C,R2*%
X12114800Y-67918359D02*
X12114800Y-68225641D01*
X11354800Y-67918359D02*
X11354800Y-68225641D01*
D15*
%TO.C,J10*%
X-5882000Y-94272626D02*
X-6108000Y-94272626D01*
X-20082000Y-94272626D02*
X-20082000Y-91772626D01*
X-15810000Y-94272626D02*
X-20082000Y-94272626D01*
X-20082000Y-85772626D02*
X-20082000Y-82772626D01*
X-5882000Y-82772626D02*
X-5882000Y-94272626D01*
X-20082000Y-82772626D02*
X-12110000Y-82772626D01*
X-23582000Y-85772626D02*
X-23582000Y-91772626D01*
X-12554000Y-94272626D02*
X-8056000Y-94272626D01*
X-5882000Y-82772626D02*
X-8854000Y-82772626D01*
X-20082000Y-85772626D02*
X-23582000Y-85772626D01*
X-23582000Y-91772626D02*
X-20082000Y-91772626D01*
X-20082000Y-91772626D02*
X-20082000Y-85772626D01*
D14*
%TO.C,D2*%
X4352800Y-105070000D02*
X4352800Y-101220000D01*
X2352800Y-105070000D02*
X4352800Y-105070000D01*
X2352800Y-105070000D02*
X2352800Y-101220000D01*
%TO.C,R8*%
X-4014200Y-61697841D02*
X-4014200Y-61390559D01*
X-4774200Y-61697841D02*
X-4774200Y-61390559D01*
%TO.C,C27*%
X6895220Y-38025800D02*
X7176380Y-38025800D01*
X6895220Y-37005800D02*
X7176380Y-37005800D01*
%TO.C,R10*%
X5553942Y-15864100D02*
X6028458Y-15864100D01*
X5553942Y-14819100D02*
X6028458Y-14819100D01*
D15*
%TO.C,J5*%
X-20082000Y-16829771D02*
X-20082000Y-13829771D01*
X-15810000Y-25329771D02*
X-20082000Y-25329771D01*
X-20082000Y-22829771D02*
X-20082000Y-16829771D01*
X-20082000Y-13829771D02*
X-12110000Y-13829771D01*
X-12554000Y-25329771D02*
X-8056000Y-25329771D01*
X-23582000Y-22829771D02*
X-20082000Y-22829771D01*
X-20082000Y-25329771D02*
X-20082000Y-22829771D01*
X-5882000Y-13829771D02*
X-8854000Y-13829771D01*
X-5882000Y-25329771D02*
X-6108000Y-25329771D01*
X-20082000Y-16829771D02*
X-23582000Y-16829771D01*
X-23582000Y-16829771D02*
X-23582000Y-22829771D01*
X-5882000Y-13829771D02*
X-5882000Y-25329771D01*
D14*
%TO.C,C12*%
X274375Y-50150209D02*
X3039163Y-47385421D01*
X1716873Y-46063131D02*
X-1047915Y-48827919D01*
X-1047915Y-48827919D02*
X274375Y-50150209D01*
%TO.C,R4*%
X11172759Y-74903600D02*
X11480041Y-74903600D01*
X11172759Y-74143600D02*
X11480041Y-74143600D01*
%TO.C,C25*%
X2815000Y-85236164D02*
X2815000Y-85451836D01*
X3535000Y-85236164D02*
X3535000Y-85451836D01*
%TO.C,C19*%
X3433400Y-17659236D02*
X3433400Y-17443564D01*
X2713400Y-17659236D02*
X2713400Y-17443564D01*
%TO.C,RN6*%
X1561000Y-85678200D02*
X1561000Y-86178200D01*
X-799000Y-85678200D02*
X-799000Y-86178200D01*
%TO.C,RN7*%
X7071000Y-24777000D02*
X7071000Y-25277000D01*
X9431000Y-24777000D02*
X9431000Y-25277000D01*
%TO.C,R26*%
X-3160500Y-85741742D02*
X-3160500Y-86216258D01*
X-4205500Y-85741742D02*
X-4205500Y-86216258D01*
%TO.C,U1*%
X1785628Y-50632153D02*
X1449752Y-50296278D01*
X-2241345Y-53987375D02*
X-1905470Y-53651499D01*
X1449752Y-50296278D02*
X1113876Y-50632153D01*
X1113876Y-57342597D02*
X1449752Y-57678472D01*
X5140849Y-53987375D02*
X4804974Y-54323251D01*
X4804974Y-53651499D02*
X5140849Y-53987375D01*
X-1905470Y-54323251D02*
X-2241345Y-53987375D01*
%TO.C,C9*%
X6047200Y-7240180D02*
X6047200Y-6959020D01*
X5027200Y-7240180D02*
X5027200Y-6959020D01*
%TO.C,L5*%
X10271979Y-43228800D02*
X9946421Y-43228800D01*
X10271979Y-44248800D02*
X9946421Y-44248800D01*
%TO.C,R24*%
X-1017000Y-75284359D02*
X-1017000Y-75591641D01*
X-1777000Y-75284359D02*
X-1777000Y-75591641D01*
D13*
%TO.C,D15*%
X-17859200Y-94945200D02*
G75*
G03*
X-17859200Y-94945200I-50000J0D01*
G01*
D14*
%TO.C,R33*%
X6798542Y-35342300D02*
X7273058Y-35342300D01*
X6798542Y-36387300D02*
X7273058Y-36387300D01*
%TO.C,RN8*%
X-15177600Y-12450000D02*
X-15177600Y-12950000D01*
X-17537600Y-12450000D02*
X-17537600Y-12950000D01*
D13*
%TO.C,D9*%
X-17875100Y-53594000D02*
G75*
G03*
X-17875100Y-53594000I-50000J0D01*
G01*
D14*
%TO.C,L6*%
X10056400Y-41213821D02*
X10056400Y-41539379D01*
X11076400Y-41213821D02*
X11076400Y-41539379D01*
%TO.C,C5*%
X-3892250Y-97261750D02*
X-3104750Y-97261750D01*
X1759000Y-89808000D02*
X-591000Y-89808000D01*
X694563Y-96628000D02*
X-591000Y-96628000D01*
X-3498500Y-97655500D02*
X-3498500Y-96868000D01*
X-5061000Y-95563563D02*
X-5061000Y-89808000D01*
X1759000Y-95563563D02*
X1759000Y-89808000D01*
X694563Y-96628000D02*
X1759000Y-95563563D01*
X-3996563Y-96628000D02*
X-5061000Y-95563563D01*
X-3996563Y-96628000D02*
X-2711000Y-96628000D01*
X-5061000Y-89808000D02*
X-2711000Y-89808000D01*
%TO.C,RN10*%
X-15126800Y-67618800D02*
X-15126800Y-68118800D01*
X-17486800Y-67618800D02*
X-17486800Y-68118800D01*
%TO.C,U8*%
X7416800Y-38622800D02*
X5741800Y-38622800D01*
X7416800Y-41742800D02*
X6766800Y-41742800D01*
X7416800Y-38622800D02*
X8066800Y-38622800D01*
X7416800Y-41742800D02*
X8066800Y-41742800D01*
%TO.C,J1*%
X11684000Y-96189800D02*
X11684000Y-98789800D01*
X14284000Y-98789800D02*
X12954000Y-98789800D01*
X14284000Y-97459800D02*
X14284000Y-98789800D01*
X14284000Y-96189800D02*
X11684000Y-96189800D01*
X9084000Y-98789800D02*
X9084000Y-85969800D01*
X14284000Y-96189800D02*
X14284000Y-85969800D01*
X14284000Y-85969800D02*
X9084000Y-85969800D01*
X11684000Y-98789800D02*
X9084000Y-98789800D01*
%TO.C,RN3*%
X-87800Y-6836600D02*
X-87800Y-7336600D01*
X2272200Y-6836600D02*
X2272200Y-7336600D01*
%TO.C,R15*%
X-3369542Y-4967500D02*
X-3844058Y-4967500D01*
X-3369542Y-3922500D02*
X-3844058Y-3922500D01*
%TO.C,C1*%
X7488200Y-16613000D02*
X5618200Y-16613000D01*
X7488200Y-20523000D02*
X7488200Y-16613000D01*
X5618200Y-16613000D02*
X5618200Y-20523000D01*
%TO.C,R6*%
X-3369542Y-19137100D02*
X-3844058Y-19137100D01*
X-3369542Y-20182100D02*
X-3844058Y-20182100D01*
%TO.C,R30*%
X4992900Y-85665542D02*
X4992900Y-86140058D01*
X3947900Y-85665542D02*
X3947900Y-86140058D01*
%TO.C,R23*%
X-2058641Y-73534000D02*
X-1751359Y-73534000D01*
X-2058641Y-74294000D02*
X-1751359Y-74294000D01*
%TO.C,RN1*%
X-3008800Y-17377600D02*
X-3008800Y-17877600D01*
X-648800Y-17377600D02*
X-648800Y-17877600D01*
%TO.C,R25*%
X-280400Y-71702959D02*
X-280400Y-72010241D01*
X-1040400Y-71702959D02*
X-1040400Y-72010241D01*
%TO.C,C26*%
X11450600Y-35205800D02*
X9580600Y-35205800D01*
X11450600Y-39115800D02*
X11450600Y-35205800D01*
X9580600Y-35205800D02*
X9580600Y-39115800D01*
%TO.C,U4*%
X525200Y-66522600D02*
X525200Y-68722600D01*
X-4944800Y-66522600D02*
X-4944800Y-68722600D01*
X-4944800Y-66522600D02*
X-4944800Y-64322600D01*
X525200Y-66522600D02*
X525200Y-62922600D01*
%TO.C,C3*%
X2519400Y-73074400D02*
X4389400Y-73074400D01*
X4389400Y-73074400D02*
X4389400Y-69164400D01*
X2519400Y-69164400D02*
X2519400Y-73074400D01*
%TO.C,D1*%
X2352800Y-96942000D02*
X2352800Y-93092000D01*
X2352800Y-96942000D02*
X4352800Y-96942000D01*
X4352800Y-96942000D02*
X4352800Y-93092000D01*
D13*
%TO.C,D6*%
X-17859200Y-26924000D02*
G75*
G03*
X-17859200Y-26924000I-50000J0D01*
G01*
D14*
%TO.C,R11*%
X-4344400Y-71702959D02*
X-4344400Y-72010241D01*
X-5104400Y-71702959D02*
X-5104400Y-72010241D01*
%TO.C,C8*%
X1703200Y-5227600D02*
X5613200Y-5227600D01*
X5613200Y-3357600D02*
X1703200Y-3357600D01*
X1703200Y-3357600D02*
X1703200Y-5227600D01*
%TO.C,C28*%
X-2539800Y-42514800D02*
X1370200Y-42514800D01*
X1370200Y-42514800D02*
X1370200Y-40644800D01*
X1370200Y-40644800D02*
X-2539800Y-40644800D01*
%TO.C,C16*%
X-5067069Y-50077821D02*
X-2302281Y-52842609D01*
X-979991Y-51520319D02*
X-3744779Y-48755531D01*
X-2302281Y-52842609D02*
X-979991Y-51520319D01*
%TO.C,C14*%
X4606666Y-58012817D02*
X4805477Y-58211628D01*
X3885417Y-58734066D02*
X4084228Y-58932877D01*
D15*
%TO.C,J9*%
X-15810000Y-80484055D02*
X-20082000Y-80484055D01*
X-5882000Y-80484055D02*
X-6108000Y-80484055D01*
X-20082000Y-68984055D02*
X-12110000Y-68984055D01*
X-20082000Y-80484055D02*
X-20082000Y-77984055D01*
X-23582000Y-71984055D02*
X-23582000Y-77984055D01*
X-5882000Y-68984055D02*
X-5882000Y-80484055D01*
X-5882000Y-68984055D02*
X-8854000Y-68984055D01*
X-20082000Y-71984055D02*
X-23582000Y-71984055D01*
X-23582000Y-77984055D02*
X-20082000Y-77984055D01*
X-20082000Y-77984055D02*
X-20082000Y-71984055D01*
X-20082000Y-71984055D02*
X-20082000Y-68984055D01*
X-12554000Y-80484055D02*
X-8056000Y-80484055D01*
D14*
%TO.C,C10*%
X5211800Y-76582400D02*
X5211800Y-80492400D01*
X7081800Y-76582400D02*
X5211800Y-76582400D01*
X7081800Y-80492400D02*
X7081800Y-76582400D01*
%TO.C,R27*%
X-1777000Y-85497641D02*
X-1777000Y-85190359D01*
X-1017000Y-85497641D02*
X-1017000Y-85190359D01*
%TO.C,C23*%
X-2053000Y-75545836D02*
X-2053000Y-75330164D01*
X-2773000Y-75545836D02*
X-2773000Y-75330164D01*
%TO.C,C13*%
X4100009Y-59430975D02*
X2777719Y-58108685D01*
X2777719Y-58108685D02*
X12931Y-60873473D01*
X1335221Y-62195763D02*
X4100009Y-59430975D01*
%TO.C,RN2*%
X-87800Y-17377600D02*
X-87800Y-17877600D01*
X2272200Y-17377600D02*
X2272200Y-17877600D01*
%TO.C,L4*%
X7147779Y-44346400D02*
X6822221Y-44346400D01*
X7147779Y-45366400D02*
X6822221Y-45366400D01*
%TO.C,L2*%
X1285021Y-100155452D02*
X1610579Y-100155452D01*
X1285021Y-99135452D02*
X1610579Y-99135452D01*
%TO.C,C22*%
X3535000Y-75545836D02*
X3535000Y-75330164D01*
X2815000Y-75545836D02*
X2815000Y-75330164D01*
%TO.C,R31*%
X2539000Y-85495641D02*
X2539000Y-85188359D01*
X1779000Y-85495641D02*
X1779000Y-85188359D01*
D13*
%TO.C,D12*%
X-17910000Y-68326000D02*
G75*
G03*
X-17910000Y-68326000I-50000J0D01*
G01*
D14*
%TO.C,C11*%
X6744580Y-82602800D02*
X6463420Y-82602800D01*
X6744580Y-81582800D02*
X6463420Y-81582800D01*
%TO.C,R20*%
X2539000Y-75284359D02*
X2539000Y-75591641D01*
X1779000Y-75284359D02*
X1779000Y-75591641D01*
%TO.C,R22*%
X-4205500Y-75167258D02*
X-4205500Y-74692742D01*
X-3160500Y-75167258D02*
X-3160500Y-74692742D01*
D13*
%TO.C,D4*%
X-17875100Y-13157200D02*
G75*
G03*
X-17875100Y-13157200I-50000J0D01*
G01*
D14*
%TO.C,R16*%
X5553942Y-11009100D02*
X6028458Y-11009100D01*
X5553942Y-12054100D02*
X6028458Y-12054100D01*
%TO.C,R29*%
X735600Y-71702959D02*
X735600Y-72010241D01*
X-24400Y-71702959D02*
X-24400Y-72010241D01*
D13*
%TO.C,D16*%
X-17859200Y-95859600D02*
G75*
G03*
X-17859200Y-95859600I-50000J0D01*
G01*
D14*
%TO.C,C29*%
X1903000Y-41896420D02*
X1903000Y-42177580D01*
X2923000Y-41896420D02*
X2923000Y-42177580D01*
%TO.C,L1*%
X1285021Y-98305000D02*
X1610579Y-98305000D01*
X1285021Y-97285000D02*
X1610579Y-97285000D01*
D13*
%TO.C,D17*%
X-17859200Y-108610400D02*
G75*
G03*
X-17859200Y-108610400I-50000J0D01*
G01*
D14*
%TO.C,L3*%
X7147779Y-42847800D02*
X6822221Y-42847800D01*
X7147779Y-43867800D02*
X6822221Y-43867800D01*
%TO.C,R3*%
X1904000Y-69135559D02*
X1904000Y-69442841D01*
X1144000Y-69135559D02*
X1144000Y-69442841D01*
%TO.C,Q1*%
X12837600Y-77114400D02*
X12837600Y-75439400D01*
X12837600Y-77114400D02*
X12837600Y-77764400D01*
X9717600Y-77114400D02*
X9717600Y-77764400D01*
X9717600Y-77114400D02*
X9717600Y-76464400D01*
%TO.C,R12*%
X-606058Y-3947900D02*
X-131542Y-3947900D01*
X-606058Y-4992900D02*
X-131542Y-4992900D01*
%TO.C,C2*%
X5056600Y-17995020D02*
X5056600Y-18276180D01*
X4036600Y-17995020D02*
X4036600Y-18276180D01*
%TO.C,R7*%
X5553942Y-12914100D02*
X6028458Y-12914100D01*
X5553942Y-13959100D02*
X6028458Y-13959100D01*
%TO.C,R5*%
X-2998200Y-61697841D02*
X-2998200Y-61390559D01*
X-3758200Y-61697841D02*
X-3758200Y-61390559D01*
D15*
%TO.C,J11*%
X-15810000Y-108061200D02*
X-20082000Y-108061200D01*
X-12554000Y-108061200D02*
X-8056000Y-108061200D01*
X-20082000Y-99561200D02*
X-23582000Y-99561200D01*
X-5882000Y-108061200D02*
X-6108000Y-108061200D01*
X-20082000Y-99561200D02*
X-20082000Y-96561200D01*
X-5882000Y-96561200D02*
X-5882000Y-108061200D01*
X-20082000Y-108061200D02*
X-20082000Y-105561200D01*
X-23582000Y-105561200D02*
X-20082000Y-105561200D01*
X-20082000Y-105561200D02*
X-20082000Y-99561200D01*
X-23582000Y-99561200D02*
X-23582000Y-105561200D01*
X-5882000Y-96561200D02*
X-8854000Y-96561200D01*
X-20082000Y-96561200D02*
X-12110000Y-96561200D01*
D14*
%TO.C,RN9*%
X-15025200Y-39983600D02*
X-15025200Y-40483600D01*
X-17385200Y-39983600D02*
X-17385200Y-40483600D01*
%TO.C,R19*%
X2820641Y-74294000D02*
X2513359Y-74294000D01*
X2820641Y-73534000D02*
X2513359Y-73534000D01*
%TO.C,R28*%
X-4573000Y-82322641D02*
X-4573000Y-82015359D01*
X-5333000Y-82322641D02*
X-5333000Y-82015359D01*
D13*
%TO.C,D14*%
X-17859200Y-82092800D02*
G75*
G03*
X-17859200Y-82092800I-50000J0D01*
G01*
%TO.C,D8*%
X-17859200Y-40741600D02*
G75*
G03*
X-17859200Y-40741600I-50000J0D01*
G01*
D14*
%TO.C,RN4*%
X-3008800Y-6836600D02*
X-3008800Y-7336600D01*
X-648800Y-6836600D02*
X-648800Y-7336600D01*
%TO.C,C20*%
X3018200Y-7331764D02*
X3018200Y-7547436D01*
X3738200Y-7331764D02*
X3738200Y-7547436D01*
%TO.C,C24*%
X-2773000Y-85236164D02*
X-2773000Y-85451836D01*
X-2053000Y-85236164D02*
X-2053000Y-85451836D01*
%TO.C,R1*%
X10338800Y-67918359D02*
X10338800Y-68225641D01*
X11098800Y-67918359D02*
X11098800Y-68225641D01*
%TO.C,R14*%
X-3328400Y-71702959D02*
X-3328400Y-72010241D01*
X-4088400Y-71702959D02*
X-4088400Y-72010241D01*
%TO.C,R17*%
X-3072400Y-71702959D02*
X-3072400Y-72010241D01*
X-2312400Y-71702959D02*
X-2312400Y-72010241D01*
%TO.C,U3*%
X3876200Y-12420600D02*
X3876200Y-14370600D01*
X3876200Y-12420600D02*
X3876200Y-10470600D01*
X-4993800Y-12420600D02*
X-4993800Y-10470600D01*
X-4993800Y-12420600D02*
X-4993800Y-15870600D01*
D15*
%TO.C,J7*%
X-20082000Y-41406913D02*
X-12110000Y-41406913D01*
X-15810000Y-52906913D02*
X-20082000Y-52906913D01*
X-5882000Y-41406913D02*
X-8854000Y-41406913D01*
X-5882000Y-52906913D02*
X-6108000Y-52906913D01*
X-5882000Y-41406913D02*
X-5882000Y-52906913D01*
X-20082000Y-52906913D02*
X-20082000Y-50406913D01*
X-20082000Y-44406913D02*
X-23582000Y-44406913D01*
X-12554000Y-52906913D02*
X-8056000Y-52906913D01*
X-23582000Y-44406913D02*
X-23582000Y-50406913D01*
X-20082000Y-44406913D02*
X-20082000Y-41406913D01*
X-20082000Y-50406913D02*
X-20082000Y-44406913D01*
X-23582000Y-50406913D02*
X-20082000Y-50406913D01*
D14*
%TO.C,RN5*%
X-799000Y-74926000D02*
X-799000Y-74426000D01*
X1561000Y-74926000D02*
X1561000Y-74426000D01*
%TO.C,R21*%
X-1296400Y-71702959D02*
X-1296400Y-72010241D01*
X-2056400Y-71702959D02*
X-2056400Y-72010241D01*
%TO.C,R32*%
X5411200Y-85495641D02*
X5411200Y-85188359D01*
X6171200Y-85495641D02*
X6171200Y-85188359D01*
%TO.C,U10*%
X-787400Y-40037400D02*
X1522600Y-40037400D01*
X-787400Y-40037400D02*
X-3097400Y-40037400D01*
X1522600Y-30117400D02*
X1522600Y-30392400D01*
X-787400Y-30117400D02*
X1522600Y-30117400D01*
X1522600Y-39762400D02*
X2812600Y-39762400D01*
X-3097400Y-30117400D02*
X-3097400Y-30392400D01*
X-787400Y-30117400D02*
X-3097400Y-30117400D01*
X-3097400Y-40037400D02*
X-3097400Y-39762400D01*
X1522600Y-40037400D02*
X1522600Y-39762400D01*
%TO.C,C15*%
X-3613200Y-27313763D02*
X-2548763Y-28378200D01*
X-3613200Y-22622637D02*
X-3613200Y-23908200D01*
X3206800Y-21558200D02*
X3206800Y-23908200D01*
X-4640700Y-23120700D02*
X-3853200Y-23120700D01*
X-2548763Y-28378200D02*
X3206800Y-28378200D01*
X3206800Y-28378200D02*
X3206800Y-26028200D01*
X-2548763Y-21558200D02*
X3206800Y-21558200D01*
X-3613200Y-22622637D02*
X-2548763Y-21558200D01*
X-3613200Y-27313763D02*
X-3613200Y-26028200D01*
X-4246950Y-22726950D02*
X-4246950Y-23514450D01*
%TO.C,C21*%
X-4135800Y-7331764D02*
X-4135800Y-7547436D01*
X-4855800Y-7331764D02*
X-4855800Y-7547436D01*
D13*
%TO.C,D3*%
X-17875100Y-12242800D02*
G75*
G03*
X-17875100Y-12242800I-50000J0D01*
G01*
D15*
%TO.C,J4*%
X-5882000Y-41200D02*
X-8854000Y-41200D01*
X-12554000Y-11541200D02*
X-8056000Y-11541200D01*
X-20082000Y-3041200D02*
X-20082000Y-41200D01*
X-5882000Y-41200D02*
X-5882000Y-11541200D01*
X-5882000Y-11541200D02*
X-6108000Y-11541200D01*
X-20082000Y-9041200D02*
X-20082000Y-3041200D01*
X-23582000Y-9041200D02*
X-20082000Y-9041200D01*
X-20082000Y-3041200D02*
X-23582000Y-3041200D01*
X-23582000Y-3041200D02*
X-23582000Y-9041200D01*
X-20082000Y-11541200D02*
X-20082000Y-9041200D01*
X-15810000Y-11541200D02*
X-20082000Y-11541200D01*
X-20082000Y-41200D02*
X-12110000Y-41200D01*
%TO.C,J6*%
X-20082000Y-30618342D02*
X-20082000Y-27618342D01*
X-12554000Y-39118342D02*
X-8056000Y-39118342D01*
X-5882000Y-39118342D02*
X-6108000Y-39118342D01*
X-20082000Y-30618342D02*
X-23582000Y-30618342D01*
X-23582000Y-30618342D02*
X-23582000Y-36618342D01*
X-5882000Y-27618342D02*
X-5882000Y-39118342D01*
X-5882000Y-27618342D02*
X-8854000Y-27618342D01*
X-20082000Y-39118342D02*
X-20082000Y-36618342D01*
X-23582000Y-36618342D02*
X-20082000Y-36618342D01*
X-20082000Y-27618342D02*
X-12110000Y-27618342D01*
X-15810000Y-39118342D02*
X-20082000Y-39118342D01*
X-20082000Y-36618342D02*
X-20082000Y-30618342D01*
%TO.C,J8*%
X-20082000Y-58195484D02*
X-20082000Y-55195484D01*
X-23582000Y-58195484D02*
X-23582000Y-64195484D01*
X-20082000Y-64195484D02*
X-20082000Y-58195484D01*
X-5882000Y-55195484D02*
X-8854000Y-55195484D01*
X-20082000Y-58195484D02*
X-23582000Y-58195484D01*
X-23582000Y-64195484D02*
X-20082000Y-64195484D01*
X-12554000Y-66695484D02*
X-8056000Y-66695484D01*
X-20082000Y-66695484D02*
X-20082000Y-64195484D01*
X-20082000Y-55195484D02*
X-12110000Y-55195484D01*
X-15810000Y-66695484D02*
X-20082000Y-66695484D01*
X-5882000Y-66695484D02*
X-6108000Y-66695484D01*
X-5882000Y-55195484D02*
X-5882000Y-66695484D01*
D13*
%TO.C,D13*%
X-17859200Y-81178400D02*
G75*
G03*
X-17859200Y-81178400I-50000J0D01*
G01*
D14*
%TO.C,U5*%
X9616000Y-71780400D02*
X9616000Y-73580400D01*
X12736000Y-71780400D02*
X12736000Y-72580400D01*
X12736000Y-71780400D02*
X12736000Y-70980400D01*
X9616000Y-71780400D02*
X9616000Y-70980400D01*
%TO.C,C7*%
X8068363Y-58181073D02*
X5303575Y-55416285D01*
X5303575Y-55416285D02*
X3981285Y-56738575D01*
X3981285Y-56738575D02*
X6746073Y-59503363D01*
%TO.C,J2*%
X11684000Y-59690000D02*
X11684000Y-62290000D01*
X9084000Y-62290000D02*
X9084000Y-46930000D01*
X14284000Y-59690000D02*
X11684000Y-59690000D01*
X14284000Y-46930000D02*
X9084000Y-46930000D01*
X14284000Y-60960000D02*
X14284000Y-62290000D01*
X14284000Y-59690000D02*
X14284000Y-46930000D01*
X14284000Y-62290000D02*
X12954000Y-62290000D01*
X11684000Y-62290000D02*
X9084000Y-62290000D01*
D13*
%TO.C,D10*%
X-17859200Y-54508400D02*
G75*
G03*
X-17859200Y-54508400I-50000J0D01*
G01*
D14*
%TO.C,C6*%
X-5010200Y-100780800D02*
X-2660200Y-100780800D01*
X-3945763Y-107600800D02*
X-5010200Y-106536363D01*
X745363Y-107600800D02*
X1809800Y-106536363D01*
X-3841450Y-108234550D02*
X-3053950Y-108234550D01*
X745363Y-107600800D02*
X-540200Y-107600800D01*
X-5010200Y-106536363D02*
X-5010200Y-100780800D01*
X-3447700Y-108628300D02*
X-3447700Y-107840800D01*
X1809800Y-106536363D02*
X1809800Y-100780800D01*
X1809800Y-100780800D02*
X-540200Y-100780800D01*
X-3945763Y-107600800D02*
X-2660200Y-107600800D01*
%TD*%
M02*
