M48
; DRILL file {KiCad (6.0.11)} date Sat 18 Feb 2023 19:52:48
; FORMAT={-:-/ absolute / inch / decimal}
; #@! TF.CreationDate,2023-02-18T19:52:48+01:00
; #@! TF.GenerationSoftware,Kicad,Pcbnew,(6.0.11)
; #@! TF.FileFunction,Plated,1,4,PTH
FMAT,2
INCH
; #@! TA.AperFunction,Plated,PTH,ViaDrill
T1C0.0118
; #@! TA.AperFunction,Plated,PTH,ComponentDrill
T2C0.0118
; #@! TA.AperFunction,Plated,PTH,ComponentDrill
T3C0.0197
; #@! TA.AperFunction,Plated,PTH,ComponentDrill
T4C0.0315
; #@! TA.AperFunction,Plated,PTH,ComponentDrill
T5C0.0394
; #@! TA.AperFunction,Plated,PTH,ComponentDrill
T6C0.1260
%
G90
G05
T1
X-0.764Y-1.64
X-0.762Y-2.732
X-0.7582Y-4.314
X-0.756Y-0.554
X-0.7488Y-2.628
X-0.746Y-1.1
X-0.742Y-3.812
X-0.722Y-0.982
X-0.722Y-1.534
X-0.712Y-0.558
X-0.712Y-1.668
X-0.71Y-3.164
X-0.708Y-0.47
X-0.708Y-2.702
X-0.7075Y-4.258
X-0.706Y-3.73
X-0.704Y-3.796
X-0.6952Y-3.2419
X-0.694Y-1.02
X-0.694Y-1.062
X-0.684Y-2.106
X-0.68Y-4.258
X-0.6769Y-3.6877
X-0.674Y-2.144
X-0.6713Y-0.5873
X-0.66Y-4.294
X-0.6592Y-2.7576
X-0.6574Y-3.0843
X-0.6572Y-0.4375
X-0.6553Y-3.6667
X-0.648Y-2.236
X-0.6404Y-2.6134
X-0.6356Y-1.5109
X-0.63Y-0.442
X-0.6194Y-2.5955
X-0.618Y-0.568
X-0.6176Y-1.6341
X-0.614Y-1.528
X-0.602Y-3.716
X-0.5864Y-3.0531
X-0.5709Y-1.5998
X-0.564Y-1.95
X-0.5584Y-3.746
X-0.556Y-2.77
X-0.5503Y-1.5599
X-0.55Y-0.644
X-0.544Y-2.18
X-0.538Y-2.666
X-0.532Y-3.82
X-0.492Y-1.974
X-0.47Y-2.068
X-0.468Y-0.454
X-0.466Y-0.366
X-0.45Y-2.146
X-0.432Y-0.482
X-0.42Y-0.86
X-0.388Y-0.968
X-0.38Y-1.968
X-0.378Y-0.12
X-0.374Y-2.076
X-0.352Y-1.85
X-0.346Y-2.048
X-0.342Y-0.16
X-0.308Y-0.564
X-0.298Y-1.568
X-0.294Y-3.494
X-0.292Y-3.392
X-0.29Y-2.132
X-0.284Y-1.676
X-0.28Y-1.86
X-0.278Y-2.742
X-0.266Y-0.508
X-0.2611Y-2.6593
X-0.252Y-1.954
X-0.252Y-3.008
X-0.246Y-2.748
X-0.246Y-2.808
X-0.24Y-1.342
X-0.2392Y-1.2456
X-0.226Y-1.292
X-0.218Y-1.39
X-0.2113Y-2.9053
X-0.21Y-0.232
X-0.208Y-1.318
X-0.208Y-1.45
X-0.208Y-1.518
X-0.206Y-1.674
X-0.202Y-1.266
X-0.2Y-1.214
X-0.1985Y-3.2679
X-0.196Y-2.682
X-0.194Y-2.456
X-0.182Y-1.61
X-0.178Y-1.748
X-0.1718Y-2.6382
X-0.158Y-3.13
X-0.152Y-3.46
X-0.15Y-2.655
X-0.1452Y-0.6652
X-0.14Y-2.078
X-0.138Y-2.15
X-0.138Y-2.246
X-0.1338Y-2.8769
X-0.132Y-0.26
X-0.13Y-2.674
X-0.126Y-1.794
X-0.1254Y-2.7814
X-0.124Y-2.558
X-0.122Y-0.68
X-0.12Y-3.896
X-0.118Y-0.126
X-0.1088Y-2.6543
X-0.108Y-2.124
X-0.102Y-0.63
X-0.102Y-1.91
X-0.102Y-2.154
X-0.1014Y-2.4134
X-0.098Y-2.2
X-0.092Y-1.42
X-0.0913Y-1.5167
X-0.084Y-0.23
X-0.0727Y-2.0754
X-0.07Y-0.774
X-0.07Y-3.878
X-0.064Y-3.47
X-0.064Y-4.298
X-0.0581Y-0.3331
X-0.058Y-3.014
X-0.055Y-2.211
X-0.0536Y-2.0555
X-0.05Y-2.898
X-0.0463Y-2.2863
X-0.046Y-2.318
X-0.0439Y-2.446
X-0.0423Y-2.9391
X-0.042Y-0.232
X-0.0419Y-1.6853
X-0.0367Y-0.7403
X-0.034Y-2.032
X-0.034Y-2.878
X-0.034Y-3.174
X-0.034Y-3.432
X-0.0335Y-2.2309
X-0.03Y-0.3291
X-0.03Y-2.388
X-0.022Y-0.454
X-0.0106Y-0.2817
X-0.008Y-1.268
X-0.0061Y-2.0225
X-0.0048Y-1.2193
X-0.004Y-0.66
X-0.002Y-2.876
X0.0022Y-3.4278
X0.012Y-0.224
X0.014Y-3.134
X0.022Y-1.458
X0.026Y-2.896
X0.032Y-2.342
X0.04Y-1.234
X0.044Y-2.674
X0.048Y-1.266
X0.048Y-2.53
X0.05Y-0.178
X0.054Y-2.482
X0.058Y-2.792
X0.06Y-0.3262
X0.062Y-0.8
X0.0627Y-2.4427
X0.07Y-2.262
X0.07Y-3.0095
X0.072Y-3.434
X0.0872Y-0.3217
X0.092Y-0.734
X0.094Y-0.27
X0.0959Y-2.9396
X0.098Y-2.886
X0.108Y-1.98
X0.112Y-1.92
X0.1142Y-2.2562
X0.1169Y-0.2251
X0.12Y-1.34
X0.12Y-2.572
X0.124Y-0.51
X0.124Y-1.29
X0.134Y-2.008
X0.136Y-1.316
X0.136Y-1.396
X0.136Y-1.53
X0.138Y-1.366
X0.138Y-1.446
X0.14Y-3.316
X0.1456Y-2.2262
X0.146Y-2.38
X0.154Y-2.45
X0.154Y-2.636
X0.16Y-2.038
X0.164Y-1.686
X0.172Y-2.674
X0.176Y-3.452
X0.18Y-0.778
X0.184Y-2.068
X0.19Y-0.984
X0.194Y-1.4
X0.194Y-1.488
X0.194Y-2.734
X0.196Y-1.574
X0.198Y-1.704
X0.218Y-1.122
X0.22Y-2.35
X0.224Y-3.318
X0.248Y-1.576
X0.256Y-2.852
X0.258Y-0.842
X0.258Y-2.994
X0.2617Y-1.254
X0.262Y-0.212
X0.262Y-3.376
X0.2864Y-2.4665
X0.31Y-0.462
X0.312Y-2.784
X0.3131Y-0.935
X0.3157Y-2.3397
X0.318Y-0.9
X0.32Y-0.69
X0.328Y-3.232
X0.334Y-1.684
X0.334Y-2.162
X0.336Y-1.626
X0.344Y-1.494
X0.356Y-1.256
X0.356Y-2.856
X0.37Y-1.038
X0.374Y-2.976
X0.378Y-2.642
X0.38Y-2.538
X0.4Y-0.45
X0.408Y-2.726
X0.432Y-2.77
X0.456Y-1.53
X0.46Y-1.598
X0.462Y-1.66
X0.47Y-1.326
X0.5041Y-1.7713
X0.5194Y-1.7267
X0.534Y-2.912
X0.5373Y-1.774
X0.56Y-1.798
T2
X0.0014Y-2.1255
X0.0292Y-2.0976
X0.0292Y-2.1533
X0.0571Y-2.0698
X0.0571Y-2.1255
X0.0571Y-2.1812
X0.0849Y-2.0976
X0.0849Y-2.1533
X0.1128Y-2.1255
T3
X0.3455Y-0.15
X0.3505Y-4.185
X0.3732Y-0.0832
X0.3732Y-0.2168
X0.3782Y-4.1182
X0.3782Y-4.2518
X0.44Y-0.0555
X0.44Y-0.2445
X0.445Y-4.0905
X0.445Y-4.2795
X0.5068Y-0.0832
X0.5068Y-0.2168
X0.5118Y-4.1182
X0.5118Y-4.2518
X0.5345Y-0.15
X0.5395Y-4.185
T5
X0.41Y-1.9
X0.41Y-2.0
X0.41Y-2.1
X0.41Y-2.2
X0.41Y-2.3
X0.41Y-2.4
X0.41Y-3.437
X0.41Y-3.537
X0.41Y-3.637
X0.41Y-3.737
X0.41Y-3.837
X0.51Y-1.9
X0.51Y-2.0
X0.51Y-2.1
X0.51Y-2.2
X0.51Y-2.3
X0.51Y-2.4
X0.51Y-3.437
X0.51Y-3.537
X0.51Y-3.637
X0.51Y-3.737
X0.51Y-3.837
T6
X0.44Y-0.15
X0.445Y-4.185
T3
G00X-0.578Y-0.4189
M15
G01X-0.5387Y-0.4189
M16
G05
G00X-0.578Y-0.9618
M15
G01X-0.5387Y-0.9618
M16
G05
G00X-0.578Y-1.5047
M15
G01X-0.5387Y-1.5047
M16
G05
G00X-0.578Y-2.0475
M15
G01X-0.5387Y-2.0475
M16
G05
G00X-0.578Y-2.5904
M15
G01X-0.5387Y-2.5904
M16
G05
G00X-0.578Y-3.1332
M15
G01X-0.5387Y-3.1332
M16
G05
G00X-0.578Y-3.6761
M15
G01X-0.5387Y-3.6761
M16
G05
G00X-0.578Y-4.2189
M15
G01X-0.5387Y-4.2189
M16
G05
G00X-0.4324Y-0.0331
M15
G01X-0.393Y-0.0331
M16
G05
G00X-0.4324Y-0.576
M15
G01X-0.393Y-0.576
M16
G05
G00X-0.4324Y-1.1188
M15
G01X-0.393Y-1.1188
M16
G05
G00X-0.4324Y-1.6617
M15
G01X-0.393Y-1.6617
M16
G05
G00X-0.4324Y-2.2045
M15
G01X-0.393Y-2.2045
M16
G05
G00X-0.4324Y-2.7474
M15
G01X-0.393Y-2.7474
M16
G05
G00X-0.4324Y-3.2903
M15
G01X-0.393Y-3.2903
M16
G05
G00X-0.4324Y-3.8331
M15
G01X-0.393Y-3.8331
M16
G05
T4
G00X-0.7237Y-0.2516
M15
G01X-0.7237Y-0.2241
M16
G05
G00X-0.7237Y-0.7945
M15
G01X-0.7237Y-0.7669
M16
G05
G00X-0.7237Y-1.3373
M15
G01X-0.7237Y-1.3098
M16
G05
G00X-0.7237Y-1.8802
M15
G01X-0.7237Y-1.8526
M16
G05
G00X-0.7237Y-2.4231
M15
G01X-0.7237Y-2.3955
M16
G05
G00X-0.7237Y-2.9659
M15
G01X-0.7237Y-2.9383
M16
G05
G00X-0.7237Y-3.5088
M15
G01X-0.7237Y-3.4812
M16
G05
G00X-0.7237Y-4.0516
M15
G01X-0.7237Y-4.0241
M16
G05
G00X-0.4658Y-0.1355
M15
G01X-0.4383Y-0.1355
M16
G05
G00X-0.4658Y-0.6783
M15
G01X-0.4383Y-0.6783
M16
G05
G00X-0.4658Y-1.2212
M15
G01X-0.4383Y-1.2212
M16
G05
G00X-0.4658Y-1.7641
M15
G01X-0.4383Y-1.7641
M16
G05
G00X-0.4658Y-2.3069
M15
G01X-0.4383Y-2.3069
M16
G05
G00X-0.4658Y-2.8498
M15
G01X-0.4383Y-2.8498
M16
G05
G00X-0.4658Y-3.3926
M15
G01X-0.4383Y-3.3926
M16
G05
G00X-0.4658Y-3.9355
M15
G01X-0.4383Y-3.9355
M16
G05
G00X-0.2788Y-0.413
M15
G01X-0.2788Y-0.3855
M16
G05
G00X-0.2788Y-0.9559
M15
G01X-0.2788Y-0.9283
M16
G05
G00X-0.2788Y-1.4988
M15
G01X-0.2788Y-1.4712
M16
G05
G00X-0.2788Y-2.0416
M15
G01X-0.2788Y-2.0141
M16
G05
G00X-0.2788Y-2.5845
M15
G01X-0.2788Y-2.5569
M16
G05
G00X-0.2788Y-3.1273
M15
G01X-0.2788Y-3.0998
M16
G05
G00X-0.2788Y-3.6702
M15
G01X-0.2788Y-3.6426
M16
G05
G00X-0.2788Y-4.213
M15
G01X-0.2788Y-4.1855
M16
G05
T0
M30
