%TF.GenerationSoftware,KiCad,Pcbnew,(6.0.11)*%
%TF.CreationDate,2023-02-18T19:52:45+01:00*%
%TF.ProjectId,eurorack-pmod-pcb,6575726f-7261-4636-9b2d-706d6f642d70,rev?*%
%TF.SameCoordinates,Original*%
%TF.FileFunction,Paste,Top*%
%TF.FilePolarity,Positive*%
%FSLAX46Y46*%
G04 Gerber Fmt 4.6, Leading zero omitted, Abs format (unit mm)*
G04 Created by KiCad (PCBNEW (6.0.11)) date 2023-02-18 19:52:45*
%MOMM*%
%LPD*%
G01*
G04 APERTURE LIST*
G04 Aperture macros list*
%AMRoundRect*
0 Rectangle with rounded corners*
0 $1 Rounding radius*
0 $2 $3 $4 $5 $6 $7 $8 $9 X,Y pos of 4 corners*
0 Add a 4 corners polygon primitive as box body*
4,1,4,$2,$3,$4,$5,$6,$7,$8,$9,$2,$3,0*
0 Add four circle primitives for the rounded corners*
1,1,$1+$1,$2,$3*
1,1,$1+$1,$4,$5*
1,1,$1+$1,$6,$7*
1,1,$1+$1,$8,$9*
0 Add four rect primitives between the rounded corners*
20,1,$1+$1,$2,$3,$4,$5,0*
20,1,$1+$1,$4,$5,$6,$7,0*
20,1,$1+$1,$6,$7,$8,$9,0*
20,1,$1+$1,$8,$9,$2,$3,0*%
%AMFreePoly0*
4,1,48,0.195015,0.341745,0.197191,0.342329,0.200525,0.340774,0.218480,0.337608,0.232451,0.325886,0.248979,0.318179,0.318179,0.248979,0.321152,0.244733,0.323103,0.243606,0.324361,0.240149,0.334819,0.225214,0.336409,0.207049,0.342646,0.189911,0.342646,-0.259112,0.340733,-0.269963,0.341377,-0.273618,0.339521,-0.276832,0.337608,-0.287682,0.323660,-0.304305,0.312807,-0.323103,
0.305724,-0.325681,0.300880,-0.331455,0.279505,-0.335224,0.259112,-0.342646,-0.259112,-0.342646,-0.269963,-0.340733,-0.273618,-0.341377,-0.276832,-0.339521,-0.287682,-0.337608,-0.304305,-0.323660,-0.323103,-0.312807,-0.325681,-0.305724,-0.331455,-0.300880,-0.335224,-0.279505,-0.342646,-0.259112,-0.342646,0.259112,-0.340733,0.269963,-0.341377,0.273618,-0.339521,0.276832,-0.337608,0.287682,
-0.323660,0.304305,-0.312807,0.323103,-0.305724,0.325681,-0.300880,0.331455,-0.279505,0.335224,-0.259112,0.342646,0.189911,0.342646,0.195015,0.341745,0.195015,0.341745,$1*%
%AMFreePoly1*
4,1,16,-0.208698,0.403113,0.269389,0.403113,0.321190,0.381657,0.342646,0.329856,0.342646,-0.329856,0.321190,-0.381657,0.269389,-0.403113,-0.208700,-0.403114,-0.260502,-0.381655,-0.321190,-0.320968,-0.342646,-0.269165,-0.342647,0.269167,-0.321190,0.320968,-0.260501,0.381657,-0.208700,0.403114,-0.208698,0.403113,-0.208698,0.403113,$1*%
%AMFreePoly2*
4,1,48,0.269963,0.340733,0.273618,0.341377,0.276832,0.339521,0.287682,0.337608,0.304305,0.323660,0.323103,0.312807,0.325681,0.305724,0.331455,0.300880,0.335224,0.279505,0.342646,0.259112,0.342646,-0.259112,0.340733,-0.269963,0.341377,-0.273618,0.339521,-0.276832,0.337608,-0.287682,0.323660,-0.304305,0.312807,-0.323103,0.305724,-0.325681,0.300880,-0.331455,0.279505,-0.335224,
0.259112,-0.342646,-0.189911,-0.342646,-0.195015,-0.341745,-0.197191,-0.342329,-0.200525,-0.340774,-0.218480,-0.337608,-0.232451,-0.325886,-0.248979,-0.318179,-0.318179,-0.248979,-0.321152,-0.244733,-0.323103,-0.243606,-0.324361,-0.240149,-0.334819,-0.225214,-0.336409,-0.207049,-0.342646,-0.189911,-0.342646,0.259112,-0.340733,0.269963,-0.341377,0.273618,-0.339521,0.276832,-0.337608,0.287682,
-0.323660,0.304305,-0.312807,0.323103,-0.305724,0.325681,-0.300880,0.331455,-0.279505,0.335224,-0.259112,0.342646,0.259112,0.342646,0.269963,0.340733,0.269963,0.340733,$1*%
%AMFreePoly3*
4,1,15,0.260501,0.381657,0.321190,0.320968,0.342646,0.269165,0.342647,-0.269167,0.321188,-0.320969,0.260501,-0.381657,0.208698,-0.403113,-0.269389,-0.403113,-0.321190,-0.381657,-0.342646,-0.329856,-0.342646,0.329856,-0.321190,0.381657,-0.269389,0.403113,0.208700,0.403114,0.260501,0.381657,0.260501,0.381657,$1*%
%AMFreePoly4*
4,1,48,0.269963,0.340733,0.273618,0.341377,0.276832,0.339521,0.287682,0.337608,0.304305,0.323660,0.323103,0.312807,0.325681,0.305724,0.331455,0.300880,0.335224,0.279505,0.342646,0.259112,0.342646,-0.259112,0.340733,-0.269963,0.341377,-0.273618,0.339521,-0.276832,0.337608,-0.287682,0.323660,-0.304305,0.312807,-0.323103,0.305724,-0.325681,0.300880,-0.331455,0.279505,-0.335224,
0.259112,-0.342646,-0.259112,-0.342646,-0.269963,-0.340733,-0.273618,-0.341377,-0.276832,-0.339521,-0.287682,-0.337608,-0.304305,-0.323660,-0.323103,-0.312807,-0.325681,-0.305724,-0.331455,-0.300880,-0.335224,-0.279505,-0.342646,-0.259112,-0.342646,0.189911,-0.341745,0.195015,-0.342329,0.197191,-0.340774,0.200525,-0.337608,0.218480,-0.325886,0.232451,-0.318179,0.248979,-0.248979,0.318179,
-0.244733,0.321152,-0.243606,0.323103,-0.240149,0.324361,-0.225214,0.334819,-0.207049,0.336409,-0.189911,0.342646,0.259112,0.342646,0.269963,0.340733,0.269963,0.340733,$1*%
%AMFreePoly5*
4,1,15,0.381657,0.321190,0.403113,0.269389,0.403114,-0.208700,0.381655,-0.260502,0.320968,-0.321190,0.269165,-0.342646,-0.269167,-0.342647,-0.320969,-0.321188,-0.381657,-0.260501,-0.403113,-0.208698,-0.403113,0.269389,-0.381657,0.321190,-0.329856,0.342646,0.329856,0.342646,0.381657,0.321190,0.381657,0.321190,$1*%
%AMFreePoly6*
4,1,48,0.269963,0.340733,0.273618,0.341377,0.276832,0.339521,0.287682,0.337608,0.304305,0.323660,0.323103,0.312807,0.325681,0.305724,0.331455,0.300880,0.335224,0.279505,0.342646,0.259112,0.342646,-0.189911,0.341745,-0.195015,0.342329,-0.197191,0.340774,-0.200525,0.337608,-0.218480,0.325886,-0.232451,0.318179,-0.248979,0.248979,-0.318179,0.244733,-0.321152,0.243606,-0.323103,
0.240149,-0.324361,0.225214,-0.334819,0.207049,-0.336409,0.189911,-0.342646,-0.259112,-0.342646,-0.269963,-0.340733,-0.273618,-0.341377,-0.276832,-0.339521,-0.287682,-0.337608,-0.304305,-0.323660,-0.323103,-0.312807,-0.325681,-0.305724,-0.331455,-0.300880,-0.335224,-0.279505,-0.342646,-0.259112,-0.342646,0.259112,-0.340733,0.269963,-0.341377,0.273618,-0.339521,0.276832,-0.337608,0.287682,
-0.323660,0.304305,-0.312807,0.323103,-0.305724,0.325681,-0.300880,0.331455,-0.279505,0.335224,-0.259112,0.342646,0.259112,0.342646,0.269963,0.340733,0.269963,0.340733,$1*%
%AMFreePoly7*
4,1,15,0.320968,0.321190,0.381657,0.260501,0.403113,0.208698,0.403113,-0.269389,0.381657,-0.321190,0.329856,-0.342646,-0.329856,-0.342646,-0.381657,-0.321190,-0.403113,-0.269389,-0.403114,0.208700,-0.381657,0.260501,-0.320968,0.321190,-0.269165,0.342646,0.269167,0.342647,0.320968,0.321190,0.320968,0.321190,$1*%
G04 Aperture macros list end*
%ADD10RoundRect,0.147500X0.147500X0.172500X-0.147500X0.172500X-0.147500X-0.172500X0.147500X-0.172500X0*%
%ADD11RoundRect,0.200000X-0.200000X-0.275000X0.200000X-0.275000X0.200000X0.275000X-0.200000X0.275000X0*%
%ADD12RoundRect,0.150000X-0.150000X0.825000X-0.150000X-0.825000X0.150000X-0.825000X0.150000X0.825000X0*%
%ADD13RoundRect,0.140000X0.170000X-0.140000X0.170000X0.140000X-0.170000X0.140000X-0.170000X-0.140000X0*%
%ADD14R,0.400000X0.500000*%
%ADD15R,0.300000X0.500000*%
%ADD16RoundRect,0.200000X0.275000X-0.200000X0.275000X0.200000X-0.275000X0.200000X-0.275000X-0.200000X0*%
%ADD17RoundRect,0.225000X0.335876X0.017678X0.017678X0.335876X-0.335876X-0.017678X-0.017678X-0.335876X0*%
%ADD18RoundRect,0.225000X0.250000X-0.225000X0.250000X0.225000X-0.250000X0.225000X-0.250000X-0.225000X0*%
%ADD19RoundRect,0.135000X-0.185000X0.135000X-0.185000X-0.135000X0.185000X-0.135000X0.185000X0.135000X0*%
%ADD20R,1.100000X1.100000*%
%ADD21RoundRect,0.135000X0.185000X-0.135000X0.185000X0.135000X-0.185000X0.135000X-0.185000X-0.135000X0*%
%ADD22RoundRect,0.225000X-0.225000X-0.250000X0.225000X-0.250000X0.225000X0.250000X-0.225000X0.250000X0*%
%ADD23RoundRect,0.250000X-0.017678X-0.618718X0.618718X0.017678X0.017678X0.618718X-0.618718X-0.017678X0*%
%ADD24RoundRect,0.135000X-0.135000X-0.185000X0.135000X-0.185000X0.135000X0.185000X-0.135000X0.185000X0*%
%ADD25RoundRect,0.140000X-0.170000X0.140000X-0.170000X-0.140000X0.170000X-0.140000X0.170000X0.140000X0*%
%ADD26RoundRect,0.200000X-0.275000X0.200000X-0.275000X-0.200000X0.275000X-0.200000X0.275000X0.200000X0*%
%ADD27FreePoly0,135.000000*%
%ADD28FreePoly1,135.000000*%
%ADD29RoundRect,0.201557X0.285043X0.000000X0.000000X0.285043X-0.285043X0.000000X0.000000X-0.285043X0*%
%ADD30FreePoly2,135.000000*%
%ADD31FreePoly3,135.000000*%
%ADD32FreePoly4,135.000000*%
%ADD33FreePoly5,135.000000*%
%ADD34FreePoly6,135.000000*%
%ADD35FreePoly7,135.000000*%
%ADD36RoundRect,0.062500X0.282843X-0.194454X-0.194454X0.282843X-0.282843X0.194454X0.194454X-0.282843X0*%
%ADD37RoundRect,0.062500X0.282843X0.194454X0.194454X0.282843X-0.282843X-0.194454X-0.194454X-0.282843X0*%
%ADD38RoundRect,0.218750X0.218750X0.256250X-0.218750X0.256250X-0.218750X-0.256250X0.218750X-0.256250X0*%
%ADD39RoundRect,0.218750X-0.256250X0.218750X-0.256250X-0.218750X0.256250X-0.218750X0.256250X0.218750X0*%
%ADD40RoundRect,0.250000X0.550000X-1.500000X0.550000X1.500000X-0.550000X1.500000X-0.550000X-1.500000X0*%
%ADD41RoundRect,0.150000X-0.587500X-0.150000X0.587500X-0.150000X0.587500X0.150000X-0.587500X0.150000X0*%
%ADD42RoundRect,0.200000X0.200000X0.275000X-0.200000X0.275000X-0.200000X-0.275000X0.200000X-0.275000X0*%
%ADD43RoundRect,0.250000X-0.425000X0.450000X-0.425000X-0.450000X0.425000X-0.450000X0.425000X0.450000X0*%
%ADD44RoundRect,0.100000X-0.100000X0.637500X-0.100000X-0.637500X0.100000X-0.637500X0.100000X0.637500X0*%
%ADD45RoundRect,0.250000X0.425000X-0.450000X0.425000X0.450000X-0.425000X0.450000X-0.425000X-0.450000X0*%
%ADD46RoundRect,0.250000X-0.450000X-0.425000X0.450000X-0.425000X0.450000X0.425000X-0.450000X0.425000X0*%
%ADD47RoundRect,0.250000X0.450000X0.425000X-0.450000X0.425000X-0.450000X-0.425000X0.450000X-0.425000X0*%
%ADD48RoundRect,0.250000X0.618718X-0.017678X-0.017678X0.618718X-0.618718X0.017678X0.017678X-0.618718X0*%
%ADD49RoundRect,0.225000X-0.335876X-0.017678X-0.017678X-0.335876X0.335876X0.017678X0.017678X0.335876X0*%
%ADD50RoundRect,0.250000X0.017678X0.618718X-0.618718X-0.017678X-0.017678X-0.618718X0.618718X0.017678X0*%
%ADD51RoundRect,0.218750X-0.218750X-0.256250X0.218750X-0.256250X0.218750X0.256250X-0.218750X0.256250X0*%
%ADD52RoundRect,0.225000X0.225000X0.250000X-0.225000X0.250000X-0.225000X-0.250000X0.225000X-0.250000X0*%
%ADD53RoundRect,0.225000X-0.250000X0.225000X-0.250000X-0.225000X0.250000X-0.225000X0.250000X0.225000X0*%
%ADD54RoundRect,0.150000X-0.150000X0.587500X-0.150000X-0.587500X0.150000X-0.587500X0.150000X0.587500X0*%
%ADD55RoundRect,0.135000X0.135000X0.185000X-0.135000X0.185000X-0.135000X-0.185000X0.135000X-0.185000X0*%
%ADD56RoundRect,0.150000X0.150000X-0.825000X0.150000X0.825000X-0.150000X0.825000X-0.150000X-0.825000X0*%
%ADD57RoundRect,0.100000X0.637500X0.100000X-0.637500X0.100000X-0.637500X-0.100000X0.637500X-0.100000X0*%
%ADD58RoundRect,0.250000X-1.500000X-0.550000X1.500000X-0.550000X1.500000X0.550000X-1.500000X0.550000X0*%
%ADD59RoundRect,0.150000X0.150000X-0.512500X0.150000X0.512500X-0.150000X0.512500X-0.150000X-0.512500X0*%
%ADD60RoundRect,0.250000X-0.618718X0.017678X0.017678X-0.618718X0.618718X-0.017678X-0.017678X0.618718X0*%
G04 APERTURE END LIST*
D10*
%TO.C,D7*%
X-18514200Y-39827200D03*
X-19484200Y-39827200D03*
%TD*%
D11*
%TO.C,R9*%
X851400Y-19608800D03*
X2501400Y-19608800D03*
%TD*%
D12*
%TO.C,U9*%
X10312400Y-28513000D03*
X9042400Y-28513000D03*
X7772400Y-28513000D03*
X6502400Y-28513000D03*
X6502400Y-33463000D03*
X7772400Y-33463000D03*
X9042400Y-33463000D03*
X10312400Y-33463000D03*
%TD*%
D13*
%TO.C,C18*%
X-4622800Y-18107600D03*
X-4622800Y-17147600D03*
%TD*%
D12*
%TO.C,U2*%
X4165600Y-77865200D03*
X2895600Y-77865200D03*
X1625600Y-77865200D03*
X355600Y-77865200D03*
X-914400Y-77865200D03*
X-2184400Y-77865200D03*
X-3454400Y-77865200D03*
X-3454400Y-82815200D03*
X-2184400Y-82815200D03*
X-914400Y-82815200D03*
X355600Y-82815200D03*
X1625600Y-82815200D03*
X2895600Y-82815200D03*
X4165600Y-82815200D03*
%TD*%
D10*
%TO.C,D18*%
X-18514200Y-109524800D03*
X-19484200Y-109524800D03*
%TD*%
D14*
%TO.C,RN11*%
X-17056800Y-95902400D03*
D15*
X-16556800Y-95902400D03*
X-16056800Y-95902400D03*
D14*
X-15556800Y-95902400D03*
X-15556800Y-94902400D03*
D15*
X-16056800Y-94902400D03*
X-16556800Y-94902400D03*
D14*
X-17056800Y-94902400D03*
%TD*%
D16*
%TO.C,R18*%
X4445000Y-75755000D03*
X4445000Y-74105000D03*
%TD*%
D11*
%TO.C,R13*%
X4966200Y-9626600D03*
X6616200Y-9626600D03*
%TD*%
D17*
%TO.C,C17*%
X-796145Y-50334055D03*
X-1892161Y-49238039D03*
%TD*%
D18*
%TO.C,C4*%
X5435600Y-72403000D03*
X5435600Y-70853000D03*
%TD*%
D10*
%TO.C,D11*%
X-18565000Y-67411600D03*
X-19535000Y-67411600D03*
%TD*%
%TO.C,D5*%
X-18514200Y-26009600D03*
X-19484200Y-26009600D03*
%TD*%
D19*
%TO.C,R2*%
X11734800Y-67562000D03*
X11734800Y-68582000D03*
%TD*%
D20*
%TO.C,D2*%
X3352800Y-104270000D03*
X3352800Y-101470000D03*
%TD*%
D21*
%TO.C,R8*%
X-4394200Y-62054200D03*
X-4394200Y-61034200D03*
%TD*%
D22*
%TO.C,C27*%
X6260800Y-37515800D03*
X7810800Y-37515800D03*
%TD*%
D11*
%TO.C,R10*%
X4966200Y-15341600D03*
X6616200Y-15341600D03*
%TD*%
D23*
%TO.C,C12*%
X292053Y-48810241D03*
X2201241Y-46901053D03*
%TD*%
D24*
%TO.C,R4*%
X10816400Y-74523600D03*
X11836400Y-74523600D03*
%TD*%
D25*
%TO.C,C25*%
X3175000Y-84864000D03*
X3175000Y-85824000D03*
%TD*%
D13*
%TO.C,C19*%
X3073400Y-18031400D03*
X3073400Y-17071400D03*
%TD*%
D14*
%TO.C,RN6*%
X-369000Y-86428200D03*
D15*
X131000Y-86428200D03*
X631000Y-86428200D03*
D14*
X1131000Y-86428200D03*
X1131000Y-85428200D03*
D15*
X631000Y-85428200D03*
X131000Y-85428200D03*
D14*
X-369000Y-85428200D03*
%TD*%
%TO.C,RN7*%
X7501000Y-25527000D03*
D15*
X8001000Y-25527000D03*
X8501000Y-25527000D03*
D14*
X9001000Y-25527000D03*
X9001000Y-24527000D03*
D15*
X8501000Y-24527000D03*
X8001000Y-24527000D03*
D14*
X7501000Y-24527000D03*
%TD*%
D26*
%TO.C,R26*%
X-3683000Y-85154000D03*
X-3683000Y-86804000D03*
%TD*%
D27*
%TO.C,U1*%
X3465006Y-53987375D03*
D28*
X88571Y-53333301D03*
D29*
X1449752Y-53280268D03*
D30*
X-565502Y-53987375D03*
D31*
X2810933Y-54641449D03*
D32*
X1449752Y-51972121D03*
D28*
X795678Y-52626194D03*
D33*
X795678Y-55348556D03*
D31*
X2103826Y-55348556D03*
D33*
X88571Y-54641449D03*
D34*
X1449752Y-56002629D03*
D29*
X1449752Y-54694482D03*
D35*
X2810933Y-53333301D03*
D29*
X742645Y-53987375D03*
X2156859Y-53987375D03*
D35*
X2103826Y-52626194D03*
D36*
X1944727Y-56957223D03*
X2298280Y-56603670D03*
X2651834Y-56250117D03*
X3005387Y-55896563D03*
X3358940Y-55543010D03*
X3712494Y-55189457D03*
X4066047Y-54835903D03*
X4419600Y-54482350D03*
D37*
X4419600Y-53492400D03*
X4066047Y-53138847D03*
X3712494Y-52785293D03*
X3358940Y-52431740D03*
X3005387Y-52078187D03*
X2651834Y-51724633D03*
X2298280Y-51371080D03*
X1944727Y-51017527D03*
D36*
X954777Y-51017527D03*
X601224Y-51371080D03*
X247670Y-51724633D03*
X-105883Y-52078187D03*
X-459436Y-52431740D03*
X-812990Y-52785293D03*
X-1166543Y-53138847D03*
X-1520096Y-53492400D03*
D37*
X-1520096Y-54482350D03*
X-1166543Y-54835903D03*
X-812990Y-55189457D03*
X-459436Y-55543010D03*
X-105883Y-55896563D03*
X247670Y-56250117D03*
X601224Y-56603670D03*
X954777Y-56957223D03*
%TD*%
D18*
%TO.C,C9*%
X5537200Y-7874600D03*
X5537200Y-6324600D03*
%TD*%
D38*
%TO.C,L5*%
X10896700Y-43738800D03*
X9321700Y-43738800D03*
%TD*%
D19*
%TO.C,R24*%
X-1397000Y-74928000D03*
X-1397000Y-75948000D03*
%TD*%
D10*
%TO.C,D15*%
X-18514200Y-94945200D03*
X-19484200Y-94945200D03*
%TD*%
D11*
%TO.C,R33*%
X6210800Y-35864800D03*
X7860800Y-35864800D03*
%TD*%
D14*
%TO.C,RN8*%
X-17107600Y-13200000D03*
D15*
X-16607600Y-13200000D03*
X-16107600Y-13200000D03*
D14*
X-15607600Y-13200000D03*
X-15607600Y-12200000D03*
D15*
X-16107600Y-12200000D03*
X-16607600Y-12200000D03*
D14*
X-17107600Y-12200000D03*
%TD*%
D10*
%TO.C,D9*%
X-18530100Y-53594000D03*
X-19500100Y-53594000D03*
%TD*%
D39*
%TO.C,L6*%
X10566400Y-40589100D03*
X10566400Y-42164100D03*
%TD*%
D40*
%TO.C,C5*%
X-1651000Y-96018000D03*
X-1651000Y-90418000D03*
%TD*%
D14*
%TO.C,RN10*%
X-17056800Y-68368800D03*
D15*
X-16556800Y-68368800D03*
X-16056800Y-68368800D03*
D14*
X-15556800Y-68368800D03*
X-15556800Y-67368800D03*
D15*
X-16056800Y-67368800D03*
X-16556800Y-67368800D03*
D14*
X-17056800Y-67368800D03*
%TD*%
D41*
%TO.C,U8*%
X6479300Y-39232800D03*
X6479300Y-41132800D03*
X8354300Y-40182800D03*
%TD*%
D14*
%TO.C,RN3*%
X342200Y-7586600D03*
D15*
X842200Y-7586600D03*
X1342200Y-7586600D03*
D14*
X1842200Y-7586600D03*
X1842200Y-6586600D03*
D15*
X1342200Y-6586600D03*
X842200Y-6586600D03*
D14*
X342200Y-6586600D03*
%TD*%
D42*
%TO.C,R15*%
X-2781800Y-4445000D03*
X-4431800Y-4445000D03*
%TD*%
D43*
%TO.C,C1*%
X6553200Y-17573000D03*
X6553200Y-20273000D03*
%TD*%
D42*
%TO.C,R6*%
X-2781800Y-19659600D03*
X-4431800Y-19659600D03*
%TD*%
D26*
%TO.C,R30*%
X4470400Y-85077800D03*
X4470400Y-86727800D03*
%TD*%
D24*
%TO.C,R23*%
X-2415000Y-73914000D03*
X-1395000Y-73914000D03*
%TD*%
D14*
%TO.C,RN1*%
X-2578800Y-18127600D03*
D15*
X-2078800Y-18127600D03*
X-1578800Y-18127600D03*
D14*
X-1078800Y-18127600D03*
X-1078800Y-17127600D03*
D15*
X-1578800Y-17127600D03*
X-2078800Y-17127600D03*
D14*
X-2578800Y-17127600D03*
%TD*%
D19*
%TO.C,R25*%
X-660400Y-71346600D03*
X-660400Y-72366600D03*
%TD*%
D43*
%TO.C,C26*%
X10515600Y-36165800D03*
X10515600Y-38865800D03*
%TD*%
D44*
%TO.C,U4*%
X65200Y-63660100D03*
X-584800Y-63660100D03*
X-1234800Y-63660100D03*
X-1884800Y-63660100D03*
X-2534800Y-63660100D03*
X-3184800Y-63660100D03*
X-3834800Y-63660100D03*
X-4484800Y-63660100D03*
X-4484800Y-69385100D03*
X-3834800Y-69385100D03*
X-3184800Y-69385100D03*
X-2534800Y-69385100D03*
X-1884800Y-69385100D03*
X-1234800Y-69385100D03*
X-584800Y-69385100D03*
X65200Y-69385100D03*
%TD*%
D45*
%TO.C,C3*%
X3454400Y-72114400D03*
X3454400Y-69414400D03*
%TD*%
D20*
%TO.C,D1*%
X3352800Y-96142000D03*
X3352800Y-93342000D03*
%TD*%
D10*
%TO.C,D6*%
X-18514200Y-26924000D03*
X-19484200Y-26924000D03*
%TD*%
D19*
%TO.C,R11*%
X-4724400Y-71346600D03*
X-4724400Y-72366600D03*
%TD*%
D46*
%TO.C,C8*%
X2663200Y-4292600D03*
X5363200Y-4292600D03*
%TD*%
D47*
%TO.C,C28*%
X410200Y-41579800D03*
X-2289800Y-41579800D03*
%TD*%
D48*
%TO.C,C16*%
X-2319959Y-51502641D03*
X-4229147Y-49593453D03*
%TD*%
D49*
%TO.C,C14*%
X3797439Y-57924839D03*
X4893455Y-59020855D03*
%TD*%
D43*
%TO.C,C10*%
X6146800Y-77542400D03*
X6146800Y-80242400D03*
%TD*%
D21*
%TO.C,R27*%
X-1397000Y-85854000D03*
X-1397000Y-84834000D03*
%TD*%
D13*
%TO.C,C23*%
X-2413000Y-75918000D03*
X-2413000Y-74958000D03*
%TD*%
D50*
%TO.C,C13*%
X2760041Y-59448653D03*
X850853Y-61357841D03*
%TD*%
D14*
%TO.C,RN2*%
X342200Y-18127600D03*
D15*
X842200Y-18127600D03*
X1342200Y-18127600D03*
D14*
X1842200Y-18127600D03*
X1842200Y-17127600D03*
D15*
X1342200Y-17127600D03*
X842200Y-17127600D03*
D14*
X342200Y-17127600D03*
%TD*%
D38*
%TO.C,L4*%
X7772500Y-44856400D03*
X6197500Y-44856400D03*
%TD*%
D51*
%TO.C,L2*%
X660300Y-99645452D03*
X2235300Y-99645452D03*
%TD*%
D13*
%TO.C,C22*%
X3175000Y-75918000D03*
X3175000Y-74958000D03*
%TD*%
D21*
%TO.C,R31*%
X2159000Y-85852000D03*
X2159000Y-84832000D03*
%TD*%
D10*
%TO.C,D12*%
X-18565000Y-68326000D03*
X-19535000Y-68326000D03*
%TD*%
D52*
%TO.C,C11*%
X7379000Y-82092800D03*
X5829000Y-82092800D03*
%TD*%
D19*
%TO.C,R20*%
X2159000Y-74928000D03*
X2159000Y-75948000D03*
%TD*%
D16*
%TO.C,R22*%
X-3683000Y-75755000D03*
X-3683000Y-74105000D03*
%TD*%
D10*
%TO.C,D4*%
X-18530100Y-13157200D03*
X-19500100Y-13157200D03*
%TD*%
D11*
%TO.C,R16*%
X4966200Y-11531600D03*
X6616200Y-11531600D03*
%TD*%
D19*
%TO.C,R29*%
X355600Y-71346600D03*
X355600Y-72366600D03*
%TD*%
D10*
%TO.C,D16*%
X-18514200Y-95859600D03*
X-19484200Y-95859600D03*
%TD*%
D53*
%TO.C,C29*%
X2413000Y-41262000D03*
X2413000Y-42812000D03*
%TD*%
D51*
%TO.C,L1*%
X660300Y-97795000D03*
X2235300Y-97795000D03*
%TD*%
D10*
%TO.C,D17*%
X-18514200Y-108610400D03*
X-19484200Y-108610400D03*
%TD*%
D38*
%TO.C,L3*%
X7772500Y-43357800D03*
X6197500Y-43357800D03*
%TD*%
D19*
%TO.C,R3*%
X1524000Y-68779200D03*
X1524000Y-69799200D03*
%TD*%
D54*
%TO.C,Q1*%
X12227600Y-76176900D03*
X10327600Y-76176900D03*
X11277600Y-78051900D03*
%TD*%
D11*
%TO.C,R12*%
X-1193800Y-4470400D03*
X456200Y-4470400D03*
%TD*%
D53*
%TO.C,C2*%
X4546600Y-17360600D03*
X4546600Y-18910600D03*
%TD*%
D11*
%TO.C,R7*%
X4966200Y-13436600D03*
X6616200Y-13436600D03*
%TD*%
D21*
%TO.C,R5*%
X-3378200Y-62054200D03*
X-3378200Y-61034200D03*
%TD*%
D14*
%TO.C,RN9*%
X-16955200Y-40733600D03*
D15*
X-16455200Y-40733600D03*
X-15955200Y-40733600D03*
D14*
X-15455200Y-40733600D03*
X-15455200Y-39733600D03*
D15*
X-15955200Y-39733600D03*
X-16455200Y-39733600D03*
D14*
X-16955200Y-39733600D03*
%TD*%
D55*
%TO.C,R19*%
X3177000Y-73914000D03*
X2157000Y-73914000D03*
%TD*%
D21*
%TO.C,R28*%
X-4953000Y-82679000D03*
X-4953000Y-81659000D03*
%TD*%
D10*
%TO.C,D14*%
X-18514200Y-82092800D03*
X-19484200Y-82092800D03*
%TD*%
%TO.C,D8*%
X-18514200Y-40741600D03*
X-19484200Y-40741600D03*
%TD*%
D14*
%TO.C,RN4*%
X-2578800Y-7586600D03*
D15*
X-2078800Y-7586600D03*
X-1578800Y-7586600D03*
D14*
X-1078800Y-7586600D03*
X-1078800Y-6586600D03*
D15*
X-1578800Y-6586600D03*
X-2078800Y-6586600D03*
D14*
X-2578800Y-6586600D03*
%TD*%
D25*
%TO.C,C20*%
X3378200Y-6959600D03*
X3378200Y-7919600D03*
%TD*%
%TO.C,C24*%
X-2413000Y-84864000D03*
X-2413000Y-85824000D03*
%TD*%
D19*
%TO.C,R1*%
X10718800Y-67562000D03*
X10718800Y-68582000D03*
%TD*%
%TO.C,R14*%
X-3708400Y-71346600D03*
X-3708400Y-72366600D03*
%TD*%
%TO.C,R17*%
X-2692400Y-71346600D03*
X-2692400Y-72366600D03*
%TD*%
D56*
%TO.C,U3*%
X-4368800Y-14895600D03*
X-3098800Y-14895600D03*
X-1828800Y-14895600D03*
X-558800Y-14895600D03*
X711200Y-14895600D03*
X1981200Y-14895600D03*
X3251200Y-14895600D03*
X3251200Y-9945600D03*
X1981200Y-9945600D03*
X711200Y-9945600D03*
X-558800Y-9945600D03*
X-1828800Y-9945600D03*
X-3098800Y-9945600D03*
X-4368800Y-9945600D03*
%TD*%
D14*
%TO.C,RN5*%
X1131000Y-74176000D03*
D15*
X631000Y-74176000D03*
X131000Y-74176000D03*
D14*
X-369000Y-74176000D03*
X-369000Y-75176000D03*
D15*
X131000Y-75176000D03*
X631000Y-75176000D03*
D14*
X1131000Y-75176000D03*
%TD*%
D19*
%TO.C,R21*%
X-1676400Y-71346600D03*
X-1676400Y-72366600D03*
%TD*%
D21*
%TO.C,R32*%
X5791200Y-85852000D03*
X5791200Y-84832000D03*
%TD*%
D57*
%TO.C,U10*%
X2075100Y-39302400D03*
X2075100Y-38652400D03*
X2075100Y-38002400D03*
X2075100Y-37352400D03*
X2075100Y-36702400D03*
X2075100Y-36052400D03*
X2075100Y-35402400D03*
X2075100Y-34752400D03*
X2075100Y-34102400D03*
X2075100Y-33452400D03*
X2075100Y-32802400D03*
X2075100Y-32152400D03*
X2075100Y-31502400D03*
X2075100Y-30852400D03*
X-3649900Y-30852400D03*
X-3649900Y-31502400D03*
X-3649900Y-32152400D03*
X-3649900Y-32802400D03*
X-3649900Y-33452400D03*
X-3649900Y-34102400D03*
X-3649900Y-34752400D03*
X-3649900Y-35402400D03*
X-3649900Y-36052400D03*
X-3649900Y-36702400D03*
X-3649900Y-37352400D03*
X-3649900Y-38002400D03*
X-3649900Y-38652400D03*
X-3649900Y-39302400D03*
%TD*%
D58*
%TO.C,C15*%
X-3003200Y-24968200D03*
X2596800Y-24968200D03*
%TD*%
D25*
%TO.C,C21*%
X-4495800Y-6959600D03*
X-4495800Y-7919600D03*
%TD*%
D10*
%TO.C,D3*%
X-18530100Y-12242800D03*
X-19500100Y-12242800D03*
%TD*%
%TO.C,D13*%
X-18514200Y-81178400D03*
X-19484200Y-81178400D03*
%TD*%
D59*
%TO.C,U5*%
X10226000Y-72917900D03*
X11176000Y-72917900D03*
X12126000Y-72917900D03*
X12126000Y-70642900D03*
X10226000Y-70642900D03*
%TD*%
D60*
%TO.C,C7*%
X5321253Y-56756253D03*
X7230441Y-58665441D03*
%TD*%
D10*
%TO.C,D10*%
X-18514200Y-54508400D03*
X-19484200Y-54508400D03*
%TD*%
D40*
%TO.C,C6*%
X-1600200Y-106990800D03*
X-1600200Y-101390800D03*
%TD*%
M02*
