%TF.GenerationSoftware,KiCad,Pcbnew,(6.0.11)*%
%TF.CreationDate,2023-02-18T19:52:46+01:00*%
%TF.ProjectId,eurorack-pmod-pcb,6575726f-7261-4636-9b2d-706d6f642d70,rev?*%
%TF.SameCoordinates,Original*%
%TF.FileFunction,Soldermask,Bot*%
%TF.FilePolarity,Negative*%
%FSLAX46Y46*%
G04 Gerber Fmt 4.6, Leading zero omitted, Abs format (unit mm)*
G04 Created by KiCad (PCBNEW (6.0.11)) date 2023-02-18 19:52:46*
%MOMM*%
%LPD*%
G01*
G04 APERTURE LIST*
%ADD10C,0.375000*%
%ADD11C,0.800000*%
%ADD12C,6.400000*%
%ADD13O,1.308000X2.616000*%
%ADD14O,2.016000X1.008000*%
%ADD15O,2.616000X1.308000*%
%ADD16R,1.700000X1.700000*%
%ADD17O,1.700000X1.700000*%
G04 APERTURE END LIST*
D10*
X13064371Y-15233391D02*
X14064371Y-15584581D01*
X13064371Y-16185772D01*
X14064371Y-16822676D02*
X12564371Y-17010176D01*
X13492942Y-17084581D02*
X14064371Y-17584581D01*
X13064371Y-17709581D02*
X13635800Y-16876248D01*
X12707228Y-18516129D02*
X12635800Y-18620295D01*
X12564371Y-18819700D01*
X12564371Y-19295891D01*
X12635800Y-19477438D01*
X12707228Y-19563748D01*
X12850085Y-19641129D01*
X12992942Y-19623272D01*
X13207228Y-19501248D01*
X14064371Y-18251248D01*
X14064371Y-19489343D01*
X13921514Y-20364343D02*
X13992942Y-20450652D01*
X14064371Y-20346486D01*
X13992942Y-20260176D01*
X13921514Y-20364343D01*
X14064371Y-20346486D01*
X14064371Y-21298867D02*
X12564371Y-21486367D01*
X13135800Y-21414938D02*
X13064371Y-21614343D01*
X13064371Y-21995295D01*
X13135800Y-22176843D01*
X13207228Y-22263152D01*
X13350085Y-22340533D01*
X13778657Y-22286962D01*
X13921514Y-22173867D01*
X13992942Y-22069700D01*
X14064371Y-21870295D01*
X14064371Y-21489343D01*
X13992942Y-21307795D01*
X13992942Y-23879224D02*
X14064371Y-23679819D01*
X14064371Y-23298867D01*
X13992942Y-23117319D01*
X13850085Y-23039938D01*
X13278657Y-23111367D01*
X13135800Y-23224462D01*
X13064371Y-23423867D01*
X13064371Y-23804819D01*
X13135800Y-23986367D01*
X13278657Y-24063748D01*
X13421514Y-24045891D01*
X13564371Y-23075652D01*
X14064371Y-24822676D02*
X13064371Y-24947676D01*
X13350085Y-24911962D02*
X13207228Y-25025057D01*
X13135800Y-25129224D01*
X13064371Y-25328629D01*
X13064371Y-25519105D01*
X14064371Y-26346486D02*
X13992942Y-26164938D01*
X13850085Y-26087557D01*
X12564371Y-26248272D01*
X14064371Y-27108391D02*
X13064371Y-27233391D01*
X12564371Y-27295891D02*
X12635800Y-27191724D01*
X12707228Y-27278033D01*
X12635800Y-27382200D01*
X12564371Y-27295891D01*
X12707228Y-27278033D01*
X13064371Y-28185772D02*
X14064371Y-28060772D01*
X13207228Y-28167914D02*
X13135800Y-28272081D01*
X13064371Y-28471486D01*
X13064371Y-28757200D01*
X13135800Y-28938748D01*
X13278657Y-29016129D01*
X14064371Y-28917914D01*
D11*
%TO.C,REF\u002A\u002A*%
X12873056Y-2112944D03*
X8776000Y-3810000D03*
X9478944Y-2112944D03*
D12*
X11176000Y-3810000D03*
D11*
X12873056Y-5507056D03*
X11176000Y-1410000D03*
X11176000Y-6210000D03*
X13576000Y-3810000D03*
X9478944Y-5507056D03*
%TD*%
D13*
%TO.C,J10*%
X-18382000Y-88772626D03*
D14*
X-10482000Y-83572626D03*
D15*
X-11482000Y-86172626D03*
D14*
X-14182000Y-93372626D03*
D13*
X-7082000Y-92872626D03*
%TD*%
%TO.C,J5*%
X-18382000Y-19829771D03*
D14*
X-10482000Y-14629771D03*
D15*
X-11482000Y-17229771D03*
D14*
X-14182000Y-24429771D03*
D13*
X-7082000Y-23929771D03*
%TD*%
D11*
%TO.C,REF\u002A\u002A*%
X11303000Y-108699000D03*
X13000056Y-107996056D03*
X9605944Y-104601944D03*
X13000056Y-104601944D03*
D12*
X11303000Y-106299000D03*
D11*
X9605944Y-107996056D03*
X13703000Y-106299000D03*
X11303000Y-103899000D03*
X8903000Y-106299000D03*
%TD*%
D16*
%TO.C,J1*%
X12954000Y-97459800D03*
D17*
X10414000Y-97459800D03*
X12954000Y-94919800D03*
X10414000Y-94919800D03*
X12954000Y-92379800D03*
X10414000Y-92379800D03*
X12954000Y-89839800D03*
X10414000Y-89839800D03*
X12954000Y-87299800D03*
X10414000Y-87299800D03*
%TD*%
D13*
%TO.C,J9*%
X-18382000Y-74984055D03*
D14*
X-10482000Y-69784055D03*
D15*
X-11482000Y-72384055D03*
D14*
X-14182000Y-79584055D03*
D13*
X-7082000Y-79084055D03*
%TD*%
%TO.C,J11*%
X-18382000Y-102561200D03*
D14*
X-10482000Y-97361200D03*
D15*
X-11482000Y-99961200D03*
D14*
X-14182000Y-107161200D03*
D13*
X-7082000Y-106661200D03*
%TD*%
%TO.C,J7*%
X-18382000Y-47406913D03*
D14*
X-10482000Y-42206913D03*
D15*
X-11482000Y-44806913D03*
D14*
X-14182000Y-52006913D03*
D13*
X-7082000Y-51506913D03*
%TD*%
%TO.C,J4*%
X-18382000Y-6041200D03*
D14*
X-10482000Y-841200D03*
D15*
X-11482000Y-3441200D03*
D14*
X-14182000Y-10641200D03*
D13*
X-7082000Y-10141200D03*
%TD*%
%TO.C,J6*%
X-18382000Y-33618342D03*
D14*
X-10482000Y-28418342D03*
D15*
X-11482000Y-31018342D03*
D14*
X-14182000Y-38218342D03*
D13*
X-7082000Y-37718342D03*
%TD*%
%TO.C,J8*%
X-18382000Y-61195484D03*
D14*
X-10482000Y-55995484D03*
D15*
X-11482000Y-58595484D03*
D14*
X-14182000Y-65795484D03*
D13*
X-7082000Y-65295484D03*
%TD*%
D16*
%TO.C,J2*%
X12954000Y-60960000D03*
D17*
X10414000Y-60960000D03*
X12954000Y-58420000D03*
X10414000Y-58420000D03*
X12954000Y-55880000D03*
X10414000Y-55880000D03*
X12954000Y-53340000D03*
X10414000Y-53340000D03*
X12954000Y-50800000D03*
X10414000Y-50800000D03*
X12954000Y-48260000D03*
X10414000Y-48260000D03*
%TD*%
M02*
