%TF.GenerationSoftware,KiCad,Pcbnew,(6.0.6)*%
%TF.CreationDate,2022-08-14T16:56:23+02:00*%
%TF.ProjectId,eurorack-pmod-pcb,6575726f-7261-4636-9b2d-706d6f642d70,rev?*%
%TF.SameCoordinates,Original*%
%TF.FileFunction,Legend,Bot*%
%TF.FilePolarity,Positive*%
%FSLAX46Y46*%
G04 Gerber Fmt 4.6, Leading zero omitted, Abs format (unit mm)*
G04 Created by KiCad (PCBNEW (6.0.6)) date 2022-08-14 16:56:23*
%MOMM*%
%LPD*%
G01*
G04 APERTURE LIST*
%ADD10C,0.150000*%
%ADD11C,0.250000*%
%ADD12C,0.375000*%
%ADD13C,0.300000*%
%ADD14C,0.010000*%
G04 APERTURE END LIST*
D10*
X12700000Y-105410000D02*
X8636000Y-105410000D01*
G36*
X-8001000Y-7239000D02*
G01*
X-8636000Y-7874000D01*
X-8636000Y-7493000D01*
X-14605000Y-7493000D01*
X-14605000Y-6985000D01*
X-8636000Y-6985000D01*
X-8636000Y-6604000D01*
X-8001000Y-7239000D01*
G37*
X-8001000Y-7239000D02*
X-8636000Y-7874000D01*
X-8636000Y-7493000D01*
X-14605000Y-7493000D01*
X-14605000Y-6985000D01*
X-8636000Y-6985000D01*
X-8636000Y-6604000D01*
X-8001000Y-7239000D01*
X12700000Y-63500000D02*
X3048000Y-63500000D01*
G36*
X-14351000Y-90043000D02*
G01*
X-8382000Y-90043000D01*
X-8382000Y-90551000D01*
X-14351000Y-90551000D01*
X-14351000Y-90932000D01*
X-14986000Y-90297000D01*
X-14351000Y-89662000D01*
X-14351000Y-90043000D01*
G37*
X-14351000Y-90043000D02*
X-8382000Y-90043000D01*
X-8382000Y-90551000D01*
X-14351000Y-90551000D01*
X-14351000Y-90932000D01*
X-14986000Y-90297000D01*
X-14351000Y-89662000D01*
X-14351000Y-90043000D01*
X8636000Y-105410000D02*
X8636000Y-92710000D01*
X3048000Y-60960000D02*
X12700000Y-60960000D01*
X12700000Y-58420000D02*
X12700000Y-55880000D01*
X7874000Y-60960000D02*
X7874000Y-71120000D01*
G36*
X-14224000Y-103632000D02*
G01*
X-8255000Y-103632000D01*
X-8255000Y-104140000D01*
X-14224000Y-104140000D01*
X-14224000Y-104521000D01*
X-14859000Y-103886000D01*
X-14224000Y-103251000D01*
X-14224000Y-103632000D01*
G37*
X-14224000Y-103632000D02*
X-8255000Y-103632000D01*
X-8255000Y-104140000D01*
X-14224000Y-104140000D01*
X-14224000Y-104521000D01*
X-14859000Y-103886000D01*
X-14224000Y-103251000D01*
X-14224000Y-103632000D01*
X12700000Y-58420000D02*
X3048000Y-58420000D01*
X12700000Y-68580000D02*
X3048000Y-68580000D01*
X12700000Y-103378000D02*
X8636000Y-103378000D01*
X12700000Y-55880000D02*
X3048000Y-55880000D01*
G36*
X-8128000Y-20955000D02*
G01*
X-8763000Y-21590000D01*
X-8763000Y-21209000D01*
X-14732000Y-21209000D01*
X-14732000Y-20701000D01*
X-8763000Y-20701000D01*
X-8763000Y-20320000D01*
X-8128000Y-20955000D01*
G37*
X-8128000Y-20955000D02*
X-8763000Y-21590000D01*
X-8763000Y-21209000D01*
X-14732000Y-21209000D01*
X-14732000Y-20701000D01*
X-8763000Y-20701000D01*
X-8763000Y-20320000D01*
X-8128000Y-20955000D01*
X12700000Y-94742000D02*
X8636000Y-94742000D01*
X12700000Y-66040000D02*
X3048000Y-66040000D01*
X8636000Y-92710000D02*
X12700000Y-92710000D01*
X12700000Y-71120000D02*
X3048000Y-71120000D01*
G36*
X-14351000Y-62230000D02*
G01*
X-8382000Y-62230000D01*
X-8382000Y-62738000D01*
X-14351000Y-62738000D01*
X-14351000Y-63119000D01*
X-14986000Y-62484000D01*
X-14351000Y-61849000D01*
X-14351000Y-62230000D01*
G37*
X-14351000Y-62230000D02*
X-8382000Y-62230000D01*
X-8382000Y-62738000D01*
X-14351000Y-62738000D01*
X-14351000Y-63119000D01*
X-14986000Y-62484000D01*
X-14351000Y-61849000D01*
X-14351000Y-62230000D01*
G36*
X-8128000Y-48895000D02*
G01*
X-8763000Y-49530000D01*
X-8763000Y-49149000D01*
X-14732000Y-49149000D01*
X-14732000Y-48641000D01*
X-8763000Y-48641000D01*
X-8763000Y-48260000D01*
X-8128000Y-48895000D01*
G37*
X-8128000Y-48895000D02*
X-8763000Y-49530000D01*
X-8763000Y-49149000D01*
X-14732000Y-49149000D01*
X-14732000Y-48641000D01*
X-8763000Y-48641000D01*
X-8763000Y-48260000D01*
X-8128000Y-48895000D01*
X3048000Y-55880000D02*
X3048000Y-58420000D01*
X12700000Y-92710000D02*
X12700000Y-105410000D01*
G36*
X-14224000Y-76073000D02*
G01*
X-8255000Y-76073000D01*
X-8255000Y-76581000D01*
X-14224000Y-76581000D01*
X-14224000Y-76962000D01*
X-14859000Y-76327000D01*
X-14224000Y-75692000D01*
X-14224000Y-76073000D01*
G37*
X-14224000Y-76073000D02*
X-8255000Y-76073000D01*
X-8255000Y-76581000D01*
X-14224000Y-76581000D01*
X-14224000Y-76962000D01*
X-14859000Y-76327000D01*
X-14224000Y-75692000D01*
X-14224000Y-76073000D01*
X3048000Y-71120000D02*
X3048000Y-60960000D01*
G36*
X-8255000Y-34671000D02*
G01*
X-8890000Y-35306000D01*
X-8890000Y-34925000D01*
X-14859000Y-34925000D01*
X-14859000Y-34417000D01*
X-8890000Y-34417000D01*
X-8890000Y-34036000D01*
X-8255000Y-34671000D01*
G37*
X-8255000Y-34671000D02*
X-8890000Y-35306000D01*
X-8890000Y-34925000D01*
X-14859000Y-34925000D01*
X-14859000Y-34417000D01*
X-8890000Y-34417000D01*
X-8890000Y-34036000D01*
X-8255000Y-34671000D01*
X12700000Y-60960000D02*
X12700000Y-58420000D01*
X3048000Y-58420000D02*
X3048000Y-60960000D01*
X12700000Y-60960000D02*
X12700000Y-71120000D01*
X-9494654Y-6492761D02*
X-9744654Y-4492761D01*
X-10447035Y-6492761D02*
X-10697035Y-4492761D01*
X-11589892Y-6492761D01*
X-11839892Y-4492761D01*
X-13589892Y-6492761D02*
X-12447035Y-6492761D01*
X-13018464Y-6492761D02*
X-13268464Y-4492761D01*
X-13042273Y-4778476D01*
X-12827988Y-4968952D01*
X-12625607Y-5064190D01*
X-9494654Y-48148761D02*
X-9744654Y-46148761D01*
X-10447035Y-48148761D02*
X-10697035Y-46148761D01*
X-11589892Y-48148761D01*
X-11839892Y-46148761D01*
X-13566083Y-46815428D02*
X-13399416Y-48148761D01*
X-13185130Y-46053523D02*
X-12530369Y-47482095D01*
X-13768464Y-47482095D01*
D11*
X7000714Y-65222380D02*
X7000714Y-64222380D01*
X6619761Y-64222380D01*
X6524523Y-64270000D01*
X6476904Y-64317619D01*
X6429285Y-64412857D01*
X6429285Y-64555714D01*
X6476904Y-64650952D01*
X6524523Y-64698571D01*
X6619761Y-64746190D01*
X7000714Y-64746190D01*
X6000714Y-65222380D02*
X6000714Y-64222380D01*
X5762619Y-64222380D01*
X5619761Y-64270000D01*
X5524523Y-64365238D01*
X5476904Y-64460476D01*
X5429285Y-64650952D01*
X5429285Y-64793809D01*
X5476904Y-64984285D01*
X5524523Y-65079523D01*
X5619761Y-65174761D01*
X5762619Y-65222380D01*
X6000714Y-65222380D01*
X5000714Y-65222380D02*
X5000714Y-64222380D01*
X4429285Y-65222380D01*
X4429285Y-64222380D01*
D10*
X-9494654Y-33924761D02*
X-9744654Y-31924761D01*
X-10447035Y-33924761D02*
X-10697035Y-31924761D01*
X-11589892Y-33924761D01*
X-11839892Y-31924761D01*
X-12601797Y-31924761D02*
X-13839892Y-31924761D01*
X-13077988Y-32686666D01*
X-13363702Y-32686666D01*
X-13542273Y-32781904D01*
X-13625607Y-32877142D01*
X-13697035Y-33067619D01*
X-13637511Y-33543809D01*
X-13518464Y-33734285D01*
X-13411321Y-33829523D01*
X-13208940Y-33924761D01*
X-12637511Y-33924761D01*
X-12458940Y-33829523D01*
X-12375607Y-33734285D01*
X-8792273Y-73072761D02*
X-9173226Y-73072761D01*
X-9351797Y-73168000D01*
X-9518464Y-73358476D01*
X-9566083Y-73739428D01*
X-9482750Y-74406095D01*
X-9339892Y-74787047D01*
X-9125607Y-74977523D01*
X-8923226Y-75072761D01*
X-8542273Y-75072761D01*
X-8363702Y-74977523D01*
X-8197035Y-74787047D01*
X-8149416Y-74406095D01*
X-8232750Y-73739428D01*
X-8375607Y-73358476D01*
X-8589892Y-73168000D01*
X-8792273Y-73072761D01*
X-10506559Y-73072761D02*
X-10304178Y-74691809D01*
X-10375607Y-74882285D01*
X-10458940Y-74977523D01*
X-10637511Y-75072761D01*
X-11018464Y-75072761D01*
X-11220845Y-74977523D01*
X-11327988Y-74882285D01*
X-11447035Y-74691809D01*
X-11649416Y-73072761D01*
X-12316083Y-73072761D02*
X-13458940Y-73072761D01*
X-12637511Y-75072761D02*
X-12887511Y-73072761D01*
X-14006559Y-73263238D02*
X-14113702Y-73168000D01*
X-14316083Y-73072761D01*
X-14792273Y-73072761D01*
X-14970845Y-73168000D01*
X-15054178Y-73263238D01*
X-15125607Y-73453714D01*
X-15101797Y-73644190D01*
X-14970845Y-73929904D01*
X-13685130Y-75072761D01*
X-14923226Y-75072761D01*
D11*
X11453666Y-62158571D02*
X11310809Y-62206190D01*
X11263190Y-62253809D01*
X11215571Y-62349047D01*
X11215571Y-62491904D01*
X11263190Y-62587142D01*
X11310809Y-62634761D01*
X11406047Y-62682380D01*
X11787000Y-62682380D01*
X11787000Y-61682380D01*
X11453666Y-61682380D01*
X11358428Y-61730000D01*
X11310809Y-61777619D01*
X11263190Y-61872857D01*
X11263190Y-61968095D01*
X11310809Y-62063333D01*
X11358428Y-62110952D01*
X11453666Y-62158571D01*
X11787000Y-62158571D01*
X10787000Y-62682380D02*
X10787000Y-61682380D01*
X9739380Y-62587142D02*
X9787000Y-62634761D01*
X9929857Y-62682380D01*
X10025095Y-62682380D01*
X10167952Y-62634761D01*
X10263190Y-62539523D01*
X10310809Y-62444285D01*
X10358428Y-62253809D01*
X10358428Y-62110952D01*
X10310809Y-61920476D01*
X10263190Y-61825238D01*
X10167952Y-61730000D01*
X10025095Y-61682380D01*
X9929857Y-61682380D01*
X9787000Y-61730000D01*
X9739380Y-61777619D01*
X9310809Y-62682380D02*
X9310809Y-61682380D01*
X8739380Y-62682380D02*
X9167952Y-62110952D01*
X8739380Y-61682380D02*
X9310809Y-62253809D01*
X12128333Y-104465428D02*
X11366428Y-104465428D01*
X10366428Y-104846380D02*
X10937857Y-104846380D01*
X10652142Y-104846380D02*
X10652142Y-103846380D01*
X10747380Y-103989238D01*
X10842619Y-104084476D01*
X10937857Y-104132095D01*
X9985476Y-103941619D02*
X9937857Y-103894000D01*
X9842619Y-103846380D01*
X9604523Y-103846380D01*
X9509285Y-103894000D01*
X9461666Y-103941619D01*
X9414047Y-104036857D01*
X9414047Y-104132095D01*
X9461666Y-104274952D01*
X10033095Y-104846380D01*
X9414047Y-104846380D01*
X7183285Y-67841761D02*
X7040428Y-67889380D01*
X6802333Y-67889380D01*
X6707095Y-67841761D01*
X6659476Y-67794142D01*
X6611857Y-67698904D01*
X6611857Y-67603666D01*
X6659476Y-67508428D01*
X6707095Y-67460809D01*
X6802333Y-67413190D01*
X6992809Y-67365571D01*
X7088047Y-67317952D01*
X7135666Y-67270333D01*
X7183285Y-67175095D01*
X7183285Y-67079857D01*
X7135666Y-66984619D01*
X7088047Y-66937000D01*
X6992809Y-66889380D01*
X6754714Y-66889380D01*
X6611857Y-66937000D01*
X6183285Y-67889380D02*
X6183285Y-66889380D01*
X5945190Y-66889380D01*
X5802333Y-66937000D01*
X5707095Y-67032238D01*
X5659476Y-67127476D01*
X5611857Y-67317952D01*
X5611857Y-67460809D01*
X5659476Y-67651285D01*
X5707095Y-67746523D01*
X5802333Y-67841761D01*
X5945190Y-67889380D01*
X6183285Y-67889380D01*
X5230904Y-67603666D02*
X4754714Y-67603666D01*
X5326142Y-67889380D02*
X4992809Y-66889380D01*
X4659476Y-67889380D01*
D10*
X-8792273Y-87296761D02*
X-9173226Y-87296761D01*
X-9351797Y-87392000D01*
X-9518464Y-87582476D01*
X-9566083Y-87963428D01*
X-9482750Y-88630095D01*
X-9339892Y-89011047D01*
X-9125607Y-89201523D01*
X-8923226Y-89296761D01*
X-8542273Y-89296761D01*
X-8363702Y-89201523D01*
X-8197035Y-89011047D01*
X-8149416Y-88630095D01*
X-8232750Y-87963428D01*
X-8375607Y-87582476D01*
X-8589892Y-87392000D01*
X-8792273Y-87296761D01*
X-10506559Y-87296761D02*
X-10304178Y-88915809D01*
X-10375607Y-89106285D01*
X-10458940Y-89201523D01*
X-10637511Y-89296761D01*
X-11018464Y-89296761D01*
X-11220845Y-89201523D01*
X-11327988Y-89106285D01*
X-11447035Y-88915809D01*
X-11649416Y-87296761D01*
X-12316083Y-87296761D02*
X-13458940Y-87296761D01*
X-12637511Y-89296761D02*
X-12887511Y-87296761D01*
X-13935130Y-87296761D02*
X-15173226Y-87296761D01*
X-14411321Y-88058666D01*
X-14697035Y-88058666D01*
X-14875607Y-88153904D01*
X-14958940Y-88249142D01*
X-15030369Y-88439619D01*
X-14970845Y-88915809D01*
X-14851797Y-89106285D01*
X-14744654Y-89201523D01*
X-14542273Y-89296761D01*
X-13970845Y-89296761D01*
X-13792273Y-89201523D01*
X-13708940Y-89106285D01*
X-9494654Y-20208761D02*
X-9744654Y-18208761D01*
X-10447035Y-20208761D02*
X-10697035Y-18208761D01*
X-11589892Y-20208761D01*
X-11839892Y-18208761D01*
X-12673226Y-18399238D02*
X-12780369Y-18304000D01*
X-12982750Y-18208761D01*
X-13458940Y-18208761D01*
X-13637511Y-18304000D01*
X-13720845Y-18399238D01*
X-13792273Y-18589714D01*
X-13768464Y-18780190D01*
X-13637511Y-19065904D01*
X-12351797Y-20208761D01*
X-13589892Y-20208761D01*
D12*
X9791000Y-97917142D02*
X9719571Y-97774285D01*
X9719571Y-97560000D01*
X9791000Y-97345714D01*
X9933857Y-97202857D01*
X10076714Y-97131428D01*
X10362428Y-97060000D01*
X10576714Y-97060000D01*
X10862428Y-97131428D01*
X11005285Y-97202857D01*
X11148142Y-97345714D01*
X11219571Y-97560000D01*
X11219571Y-97702857D01*
X11148142Y-97917142D01*
X11076714Y-97988571D01*
X10576714Y-97988571D01*
X10576714Y-97702857D01*
X11219571Y-98631428D02*
X9719571Y-98631428D01*
X11219571Y-99488571D01*
X9719571Y-99488571D01*
X11219571Y-100202857D02*
X9719571Y-100202857D01*
X9719571Y-100560000D01*
X9791000Y-100774285D01*
X9933857Y-100917142D01*
X10076714Y-100988571D01*
X10362428Y-101060000D01*
X10576714Y-101060000D01*
X10862428Y-100988571D01*
X11005285Y-100917142D01*
X11148142Y-100774285D01*
X11219571Y-100560000D01*
X11219571Y-100202857D01*
D10*
X-8792273Y-101012761D02*
X-9173226Y-101012761D01*
X-9351797Y-101108000D01*
X-9518464Y-101298476D01*
X-9566083Y-101679428D01*
X-9482750Y-102346095D01*
X-9339892Y-102727047D01*
X-9125607Y-102917523D01*
X-8923226Y-103012761D01*
X-8542273Y-103012761D01*
X-8363702Y-102917523D01*
X-8197035Y-102727047D01*
X-8149416Y-102346095D01*
X-8232750Y-101679428D01*
X-8375607Y-101298476D01*
X-8589892Y-101108000D01*
X-8792273Y-101012761D01*
X-10506559Y-101012761D02*
X-10304178Y-102631809D01*
X-10375607Y-102822285D01*
X-10458940Y-102917523D01*
X-10637511Y-103012761D01*
X-11018464Y-103012761D01*
X-11220845Y-102917523D01*
X-11327988Y-102822285D01*
X-11447035Y-102631809D01*
X-11649416Y-101012761D01*
X-12316083Y-101012761D02*
X-13458940Y-101012761D01*
X-12637511Y-103012761D02*
X-12887511Y-101012761D01*
X-14899416Y-101679428D02*
X-14732750Y-103012761D01*
X-14518464Y-100917523D02*
X-13863702Y-102346095D01*
X-15101797Y-102346095D01*
D11*
X11191428Y-56602380D02*
X10262857Y-56602380D01*
X10762857Y-56983333D01*
X10548571Y-56983333D01*
X10405714Y-57030952D01*
X10334285Y-57078571D01*
X10262857Y-57173809D01*
X10262857Y-57411904D01*
X10334285Y-57507142D01*
X10405714Y-57554761D01*
X10548571Y-57602380D01*
X10977142Y-57602380D01*
X11120000Y-57554761D01*
X11191428Y-57507142D01*
X9834285Y-56602380D02*
X9334285Y-57602380D01*
X8834285Y-56602380D01*
X8477142Y-56602380D02*
X7548571Y-56602380D01*
X8048571Y-56983333D01*
X7834285Y-56983333D01*
X7691428Y-57030952D01*
X7620000Y-57078571D01*
X7548571Y-57173809D01*
X7548571Y-57411904D01*
X7620000Y-57507142D01*
X7691428Y-57554761D01*
X7834285Y-57602380D01*
X8262857Y-57602380D01*
X8405714Y-57554761D01*
X8477142Y-57507142D01*
X7262857Y-57697619D02*
X6120000Y-57697619D01*
X5762857Y-57602380D02*
X5762857Y-56602380D01*
X5048571Y-57602380D02*
X5048571Y-56602380D01*
X4191428Y-57602380D01*
X4191428Y-56602380D01*
D12*
X18283714Y-106451000D02*
X16783714Y-106451000D01*
X17069428Y-108374571D02*
X17569428Y-107660285D01*
X17926571Y-108374571D02*
X17926571Y-106874571D01*
X17355142Y-106874571D01*
X17212285Y-106946000D01*
X17140857Y-107017428D01*
X17069428Y-107160285D01*
X17069428Y-107374571D01*
X17140857Y-107517428D01*
X17212285Y-107588857D01*
X17355142Y-107660285D01*
X17926571Y-107660285D01*
X16783714Y-106451000D02*
X15426571Y-106451000D01*
X16426571Y-107588857D02*
X15926571Y-107588857D01*
X15712285Y-108374571D02*
X16426571Y-108374571D01*
X16426571Y-106874571D01*
X15712285Y-106874571D01*
X15426571Y-106451000D02*
X13926571Y-106451000D01*
X15069428Y-108374571D02*
X15069428Y-106874571D01*
X14712285Y-106874571D01*
X14498000Y-106946000D01*
X14355142Y-107088857D01*
X14283714Y-107231714D01*
X14212285Y-107517428D01*
X14212285Y-107731714D01*
X14283714Y-108017428D01*
X14355142Y-108160285D01*
X14498000Y-108303142D01*
X14712285Y-108374571D01*
X15069428Y-108374571D01*
X13926571Y-106451000D02*
X13212285Y-106451000D01*
X13569428Y-108231714D02*
X13498000Y-108303142D01*
X13569428Y-108374571D01*
X13640857Y-108303142D01*
X13569428Y-108231714D01*
X13569428Y-108374571D01*
X13569428Y-107803142D02*
X13640857Y-106946000D01*
X13569428Y-106874571D01*
X13498000Y-106946000D01*
X13569428Y-107803142D01*
X13569428Y-106874571D01*
D11*
X18279714Y-54780571D02*
X18279714Y-53280571D01*
X17708285Y-53280571D01*
X17565428Y-53352000D01*
X17494000Y-53423428D01*
X17422571Y-53566285D01*
X17422571Y-53780571D01*
X17494000Y-53923428D01*
X17565428Y-53994857D01*
X17708285Y-54066285D01*
X18279714Y-54066285D01*
X16779714Y-54780571D02*
X16779714Y-53280571D01*
X16279714Y-54352000D01*
X15779714Y-53280571D01*
X15779714Y-54780571D01*
X14779714Y-53280571D02*
X14494000Y-53280571D01*
X14351142Y-53352000D01*
X14208285Y-53494857D01*
X14136857Y-53780571D01*
X14136857Y-54280571D01*
X14208285Y-54566285D01*
X14351142Y-54709142D01*
X14494000Y-54780571D01*
X14779714Y-54780571D01*
X14922571Y-54709142D01*
X15065428Y-54566285D01*
X15136857Y-54280571D01*
X15136857Y-53780571D01*
X15065428Y-53494857D01*
X14922571Y-53352000D01*
X14779714Y-53280571D01*
X13494000Y-54780571D02*
X13494000Y-53280571D01*
X13136857Y-53280571D01*
X12922571Y-53352000D01*
X12779714Y-53494857D01*
X12708285Y-53637714D01*
X12636857Y-53923428D01*
X12636857Y-54137714D01*
X12708285Y-54423428D01*
X12779714Y-54566285D01*
X12922571Y-54709142D01*
X13136857Y-54780571D01*
X13494000Y-54780571D01*
X11818809Y-70381761D02*
X11675952Y-70429380D01*
X11437857Y-70429380D01*
X11342619Y-70381761D01*
X11295000Y-70334142D01*
X11247380Y-70238904D01*
X11247380Y-70143666D01*
X11295000Y-70048428D01*
X11342619Y-70000809D01*
X11437857Y-69953190D01*
X11628333Y-69905571D01*
X11723571Y-69857952D01*
X11771190Y-69810333D01*
X11818809Y-69715095D01*
X11818809Y-69619857D01*
X11771190Y-69524619D01*
X11723571Y-69477000D01*
X11628333Y-69429380D01*
X11390238Y-69429380D01*
X11247380Y-69477000D01*
X10818809Y-70429380D02*
X10818809Y-69429380D01*
X10580714Y-69429380D01*
X10437857Y-69477000D01*
X10342619Y-69572238D01*
X10295000Y-69667476D01*
X10247380Y-69857952D01*
X10247380Y-70000809D01*
X10295000Y-70191285D01*
X10342619Y-70286523D01*
X10437857Y-70381761D01*
X10580714Y-70429380D01*
X10818809Y-70429380D01*
X9818809Y-70429380D02*
X9818809Y-69429380D01*
X11850523Y-67841761D02*
X11707666Y-67889380D01*
X11469571Y-67889380D01*
X11374333Y-67841761D01*
X11326714Y-67794142D01*
X11279095Y-67698904D01*
X11279095Y-67603666D01*
X11326714Y-67508428D01*
X11374333Y-67460809D01*
X11469571Y-67413190D01*
X11660047Y-67365571D01*
X11755285Y-67317952D01*
X11802904Y-67270333D01*
X11850523Y-67175095D01*
X11850523Y-67079857D01*
X11802904Y-66984619D01*
X11755285Y-66937000D01*
X11660047Y-66889380D01*
X11421952Y-66889380D01*
X11279095Y-66937000D01*
X10850523Y-67889380D02*
X10850523Y-66889380D01*
X10612428Y-66889380D01*
X10469571Y-66937000D01*
X10374333Y-67032238D01*
X10326714Y-67127476D01*
X10279095Y-67317952D01*
X10279095Y-67460809D01*
X10326714Y-67651285D01*
X10374333Y-67746523D01*
X10469571Y-67841761D01*
X10612428Y-67889380D01*
X10850523Y-67889380D01*
X9660047Y-66889380D02*
X9469571Y-66889380D01*
X9374333Y-66937000D01*
X9279095Y-67032238D01*
X9231476Y-67222714D01*
X9231476Y-67556047D01*
X9279095Y-67746523D01*
X9374333Y-67841761D01*
X9469571Y-67889380D01*
X9660047Y-67889380D01*
X9755285Y-67841761D01*
X9850523Y-67746523D01*
X9898142Y-67556047D01*
X9898142Y-67222714D01*
X9850523Y-67032238D01*
X9755285Y-66937000D01*
X9660047Y-66889380D01*
X11350476Y-65222380D02*
X11826666Y-65222380D01*
X11826666Y-64222380D01*
X10445714Y-65222380D02*
X10779047Y-64746190D01*
X11017142Y-65222380D02*
X11017142Y-64222380D01*
X10636190Y-64222380D01*
X10540952Y-64270000D01*
X10493333Y-64317619D01*
X10445714Y-64412857D01*
X10445714Y-64555714D01*
X10493333Y-64650952D01*
X10540952Y-64698571D01*
X10636190Y-64746190D01*
X11017142Y-64746190D01*
X9445714Y-65127142D02*
X9493333Y-65174761D01*
X9636190Y-65222380D01*
X9731428Y-65222380D01*
X9874285Y-65174761D01*
X9969523Y-65079523D01*
X10017142Y-64984285D01*
X10064761Y-64793809D01*
X10064761Y-64650952D01*
X10017142Y-64460476D01*
X9969523Y-64365238D01*
X9874285Y-64270000D01*
X9731428Y-64222380D01*
X9636190Y-64222380D01*
X9493333Y-64270000D01*
X9445714Y-64317619D01*
X9017142Y-65222380D02*
X9017142Y-64222380D01*
X8445714Y-65222380D02*
X8874285Y-64650952D01*
X8445714Y-64222380D02*
X9017142Y-64793809D01*
X18391142Y-75093898D02*
X18438761Y-75040327D01*
X18486380Y-74891517D01*
X18486380Y-74796279D01*
X18438761Y-74659375D01*
X18343523Y-74576041D01*
X18248285Y-74540327D01*
X18057809Y-74516517D01*
X17914952Y-74534375D01*
X17724476Y-74605803D01*
X17629238Y-74665327D01*
X17534000Y-74772470D01*
X17486380Y-74921279D01*
X17486380Y-75016517D01*
X17534000Y-75153422D01*
X17581619Y-75195089D01*
X18391142Y-76093898D02*
X18438761Y-76040327D01*
X18486380Y-75891517D01*
X18486380Y-75796279D01*
X18438761Y-75659375D01*
X18343523Y-75576041D01*
X18248285Y-75540327D01*
X18057809Y-75516517D01*
X17914952Y-75534375D01*
X17724476Y-75605803D01*
X17629238Y-75665327D01*
X17534000Y-75772470D01*
X17486380Y-75921279D01*
X17486380Y-76016517D01*
X17534000Y-76153422D01*
X17581619Y-76195089D01*
X18105428Y-76558184D02*
X18105428Y-77320089D01*
X17962571Y-78147470D02*
X18010190Y-78284375D01*
X18057809Y-78326041D01*
X18153047Y-78361755D01*
X18295904Y-78343898D01*
X18391142Y-78284375D01*
X18438761Y-78230803D01*
X18486380Y-78129613D01*
X18486380Y-77748660D01*
X17486380Y-77873660D01*
X17486380Y-78206994D01*
X17534000Y-78296279D01*
X17581619Y-78337946D01*
X17676857Y-78373660D01*
X17772095Y-78361755D01*
X17867333Y-78302232D01*
X17914952Y-78248660D01*
X17962571Y-78147470D01*
X17962571Y-77814136D01*
X18010190Y-78998660D02*
X18486380Y-78939136D01*
X17486380Y-78730803D02*
X18010190Y-78998660D01*
X17486380Y-79397470D01*
X18105428Y-79653422D02*
X18105428Y-80415327D01*
X18438761Y-80802232D02*
X18486380Y-80939136D01*
X18486380Y-81177232D01*
X18438761Y-81278422D01*
X18391142Y-81331994D01*
X18295904Y-81391517D01*
X18200666Y-81403422D01*
X18105428Y-81367708D01*
X18057809Y-81326041D01*
X18010190Y-81236755D01*
X17962571Y-81052232D01*
X17914952Y-80962946D01*
X17867333Y-80921279D01*
X17772095Y-80885565D01*
X17676857Y-80897470D01*
X17581619Y-80956994D01*
X17534000Y-81010565D01*
X17486380Y-81111755D01*
X17486380Y-81349851D01*
X17534000Y-81486755D01*
X18200666Y-81784375D02*
X18200666Y-82260565D01*
X18486380Y-81653422D02*
X17486380Y-82111755D01*
X18486380Y-82320089D01*
X17819714Y-83927232D02*
X18486380Y-83843898D01*
X17438761Y-83736755D02*
X18153047Y-83409375D01*
X18153047Y-84028422D01*
X18391142Y-84379613D02*
X18438761Y-84421279D01*
X18486380Y-84367708D01*
X18438761Y-84326041D01*
X18391142Y-84379613D01*
X18486380Y-84367708D01*
X17486380Y-85159375D02*
X17486380Y-85254613D01*
X17534000Y-85343898D01*
X17581619Y-85385565D01*
X17676857Y-85421279D01*
X17867333Y-85445089D01*
X18105428Y-85415327D01*
X18295904Y-85343898D01*
X18391142Y-85284375D01*
X18438761Y-85230803D01*
X18486380Y-85129613D01*
X18486380Y-85034375D01*
X18438761Y-84945089D01*
X18391142Y-84903422D01*
X18295904Y-84867708D01*
X18105428Y-84843898D01*
X17867333Y-84873660D01*
X17676857Y-84945089D01*
X17581619Y-85004613D01*
X17534000Y-85058184D01*
X17486380Y-85159375D01*
X6945095Y-62682380D02*
X6945095Y-61682380D01*
X6611761Y-62396666D01*
X6278428Y-61682380D01*
X6278428Y-62682380D01*
X5230809Y-62587142D02*
X5278428Y-62634761D01*
X5421285Y-62682380D01*
X5516523Y-62682380D01*
X5659380Y-62634761D01*
X5754619Y-62539523D01*
X5802238Y-62444285D01*
X5849857Y-62253809D01*
X5849857Y-62110952D01*
X5802238Y-61920476D01*
X5754619Y-61825238D01*
X5659380Y-61730000D01*
X5516523Y-61682380D01*
X5421285Y-61682380D01*
X5278428Y-61730000D01*
X5230809Y-61777619D01*
X4326047Y-62682380D02*
X4802238Y-62682380D01*
X4802238Y-61682380D01*
X3992714Y-62682380D02*
X3992714Y-61682380D01*
X3421285Y-62682380D02*
X3849857Y-62110952D01*
X3421285Y-61682380D02*
X3992714Y-62253809D01*
X8889857Y-59063000D02*
X9032714Y-59015380D01*
X9247000Y-59015380D01*
X9461285Y-59063000D01*
X9604142Y-59158238D01*
X9675571Y-59253476D01*
X9747000Y-59443952D01*
X9747000Y-59586809D01*
X9675571Y-59777285D01*
X9604142Y-59872523D01*
X9461285Y-59967761D01*
X9247000Y-60015380D01*
X9104142Y-60015380D01*
X8889857Y-59967761D01*
X8818428Y-59920142D01*
X8818428Y-59586809D01*
X9104142Y-59586809D01*
X8175571Y-60015380D02*
X8175571Y-59015380D01*
X7318428Y-60015380D01*
X7318428Y-59015380D01*
X6604142Y-60015380D02*
X6604142Y-59015380D01*
X6247000Y-59015380D01*
X6032714Y-59063000D01*
X5889857Y-59158238D01*
X5818428Y-59253476D01*
X5747000Y-59443952D01*
X5747000Y-59586809D01*
X5818428Y-59777285D01*
X5889857Y-59872523D01*
X6032714Y-59967761D01*
X6247000Y-60015380D01*
X6604142Y-60015380D01*
D10*
X-8792273Y-59356761D02*
X-9173226Y-59356761D01*
X-9351797Y-59452000D01*
X-9518464Y-59642476D01*
X-9566083Y-60023428D01*
X-9482750Y-60690095D01*
X-9339892Y-61071047D01*
X-9125607Y-61261523D01*
X-8923226Y-61356761D01*
X-8542273Y-61356761D01*
X-8363702Y-61261523D01*
X-8197035Y-61071047D01*
X-8149416Y-60690095D01*
X-8232750Y-60023428D01*
X-8375607Y-59642476D01*
X-8589892Y-59452000D01*
X-8792273Y-59356761D01*
X-10506559Y-59356761D02*
X-10304178Y-60975809D01*
X-10375607Y-61166285D01*
X-10458940Y-61261523D01*
X-10637511Y-61356761D01*
X-11018464Y-61356761D01*
X-11220845Y-61261523D01*
X-11327988Y-61166285D01*
X-11447035Y-60975809D01*
X-11649416Y-59356761D01*
X-12316083Y-59356761D02*
X-13458940Y-59356761D01*
X-12637511Y-61356761D02*
X-12887511Y-59356761D01*
X-14923226Y-61356761D02*
X-13780369Y-61356761D01*
X-14351797Y-61356761D02*
X-14601797Y-59356761D01*
X-14375607Y-59642476D01*
X-14161321Y-59832952D01*
X-13958940Y-59928190D01*
D13*
X19100294Y-91737571D02*
X18912794Y-90237571D01*
X18341366Y-90237571D01*
X18207437Y-90309000D01*
X18144937Y-90380428D01*
X18091366Y-90523285D01*
X18118151Y-90737571D01*
X18207437Y-90880428D01*
X18287794Y-90951857D01*
X18439580Y-91023285D01*
X19011008Y-91023285D01*
X17127080Y-90237571D02*
X16841366Y-90237571D01*
X16707437Y-90309000D01*
X16582437Y-90451857D01*
X16546723Y-90737571D01*
X16609223Y-91237571D01*
X16716366Y-91523285D01*
X16877080Y-91666142D01*
X17028866Y-91737571D01*
X17314580Y-91737571D01*
X17448508Y-91666142D01*
X17573508Y-91523285D01*
X17609223Y-91237571D01*
X17546723Y-90737571D01*
X17439580Y-90451857D01*
X17278866Y-90309000D01*
X17127080Y-90237571D01*
X15984223Y-90237571D02*
X15814580Y-91737571D01*
X15394937Y-90666142D01*
X15243151Y-91737571D01*
X14698508Y-90237571D01*
X14216366Y-90951857D02*
X13716366Y-90951857D01*
X13600294Y-91737571D02*
X14314580Y-91737571D01*
X14127080Y-90237571D01*
X13412794Y-90237571D01*
X12100294Y-91737571D02*
X12511008Y-91023285D01*
X12957437Y-91737571D02*
X12769937Y-90237571D01*
X12198508Y-90237571D01*
X12064580Y-90309000D01*
X12002080Y-90380428D01*
X11948508Y-90523285D01*
X11975294Y-90737571D01*
X12064580Y-90880428D01*
X12144937Y-90951857D01*
X12296723Y-91023285D01*
X12868151Y-91023285D01*
D11*
X7032476Y-70381761D02*
X6889619Y-70429380D01*
X6651523Y-70429380D01*
X6556285Y-70381761D01*
X6508666Y-70334142D01*
X6461047Y-70238904D01*
X6461047Y-70143666D01*
X6508666Y-70048428D01*
X6556285Y-70000809D01*
X6651523Y-69953190D01*
X6842000Y-69905571D01*
X6937238Y-69857952D01*
X6984857Y-69810333D01*
X7032476Y-69715095D01*
X7032476Y-69619857D01*
X6984857Y-69524619D01*
X6937238Y-69477000D01*
X6842000Y-69429380D01*
X6603904Y-69429380D01*
X6461047Y-69477000D01*
X5461047Y-70334142D02*
X5508666Y-70381761D01*
X5651523Y-70429380D01*
X5746761Y-70429380D01*
X5889619Y-70381761D01*
X5984857Y-70286523D01*
X6032476Y-70191285D01*
X6080095Y-70000809D01*
X6080095Y-69857952D01*
X6032476Y-69667476D01*
X5984857Y-69572238D01*
X5889619Y-69477000D01*
X5746761Y-69429380D01*
X5651523Y-69429380D01*
X5508666Y-69477000D01*
X5461047Y-69524619D01*
X4556285Y-70429380D02*
X5032476Y-70429380D01*
X5032476Y-69429380D01*
X12001333Y-93797428D02*
X11239428Y-93797428D01*
X11620380Y-94178380D02*
X11620380Y-93416476D01*
X10239428Y-94178380D02*
X10810857Y-94178380D01*
X10525142Y-94178380D02*
X10525142Y-93178380D01*
X10620380Y-93321238D01*
X10715619Y-93416476D01*
X10810857Y-93464095D01*
X9858476Y-93273619D02*
X9810857Y-93226000D01*
X9715619Y-93178380D01*
X9477523Y-93178380D01*
X9382285Y-93226000D01*
X9334666Y-93273619D01*
X9287047Y-93368857D01*
X9287047Y-93464095D01*
X9334666Y-93606952D01*
X9906095Y-94178380D01*
X9287047Y-94178380D01*
%TO.C,REF\u002A\u002A*%
G36*
X16309643Y-76978426D02*
G01*
X16341021Y-76981934D01*
X16452705Y-77008073D01*
X16537642Y-77055306D01*
X16602741Y-77127138D01*
X16605428Y-77131198D01*
X16643634Y-77222513D01*
X16647034Y-77317856D01*
X16617939Y-77409726D01*
X16558660Y-77490621D01*
X16471510Y-77553038D01*
X16469409Y-77554086D01*
X16415289Y-77574827D01*
X16353781Y-77590020D01*
X16296039Y-77598079D01*
X16253215Y-77597418D01*
X16236462Y-77586452D01*
X16237480Y-77576710D01*
X16256009Y-77530123D01*
X16290081Y-77477318D01*
X16329522Y-77432397D01*
X16364155Y-77409465D01*
X16411133Y-77385627D01*
X16453862Y-77336770D01*
X16470923Y-77280037D01*
X16465990Y-77259242D01*
X16441157Y-77218196D01*
X16406685Y-77182443D01*
X16375411Y-77167154D01*
X16375295Y-77167158D01*
X16360933Y-77184505D01*
X16335025Y-77230753D01*
X16301210Y-77298933D01*
X16263129Y-77382077D01*
X16262927Y-77382534D01*
X16222709Y-77472862D01*
X16193733Y-77533408D01*
X16171474Y-77570112D01*
X16151407Y-77588914D01*
X16129009Y-77595754D01*
X16099756Y-77596571D01*
X16029654Y-77589378D01*
X15934412Y-77553816D01*
X15859567Y-77494286D01*
X15807745Y-77417254D01*
X15781573Y-77329185D01*
X15783071Y-77263177D01*
X15964856Y-77263177D01*
X15967406Y-77319819D01*
X16002120Y-77372416D01*
X16026107Y-77393090D01*
X16044363Y-77398000D01*
X16061777Y-77378089D01*
X16087872Y-77328479D01*
X16088610Y-77327024D01*
X16116483Y-77268494D01*
X16138719Y-77216132D01*
X16148126Y-77182914D01*
X16135552Y-77169590D01*
X16092468Y-77167154D01*
X16038847Y-77177276D01*
X15990119Y-77212369D01*
X15964856Y-77263177D01*
X15783071Y-77263177D01*
X15783676Y-77236546D01*
X15816681Y-77145802D01*
X15883215Y-77063421D01*
X15949055Y-77017778D01*
X16043036Y-76984992D01*
X16092468Y-76979661D01*
X16161536Y-76972213D01*
X16309643Y-76978426D01*
G37*
D14*
X16309643Y-76978426D02*
X16341021Y-76981934D01*
X16452705Y-77008073D01*
X16537642Y-77055306D01*
X16602741Y-77127138D01*
X16605428Y-77131198D01*
X16643634Y-77222513D01*
X16647034Y-77317856D01*
X16617939Y-77409726D01*
X16558660Y-77490621D01*
X16471510Y-77553038D01*
X16469409Y-77554086D01*
X16415289Y-77574827D01*
X16353781Y-77590020D01*
X16296039Y-77598079D01*
X16253215Y-77597418D01*
X16236462Y-77586452D01*
X16237480Y-77576710D01*
X16256009Y-77530123D01*
X16290081Y-77477318D01*
X16329522Y-77432397D01*
X16364155Y-77409465D01*
X16411133Y-77385627D01*
X16453862Y-77336770D01*
X16470923Y-77280037D01*
X16465990Y-77259242D01*
X16441157Y-77218196D01*
X16406685Y-77182443D01*
X16375411Y-77167154D01*
X16375295Y-77167158D01*
X16360933Y-77184505D01*
X16335025Y-77230753D01*
X16301210Y-77298933D01*
X16263129Y-77382077D01*
X16262927Y-77382534D01*
X16222709Y-77472862D01*
X16193733Y-77533408D01*
X16171474Y-77570112D01*
X16151407Y-77588914D01*
X16129009Y-77595754D01*
X16099756Y-77596571D01*
X16029654Y-77589378D01*
X15934412Y-77553816D01*
X15859567Y-77494286D01*
X15807745Y-77417254D01*
X15781573Y-77329185D01*
X15783071Y-77263177D01*
X15964856Y-77263177D01*
X15967406Y-77319819D01*
X16002120Y-77372416D01*
X16026107Y-77393090D01*
X16044363Y-77398000D01*
X16061777Y-77378089D01*
X16087872Y-77328479D01*
X16088610Y-77327024D01*
X16116483Y-77268494D01*
X16138719Y-77216132D01*
X16148126Y-77182914D01*
X16135552Y-77169590D01*
X16092468Y-77167154D01*
X16038847Y-77177276D01*
X15990119Y-77212369D01*
X15964856Y-77263177D01*
X15783071Y-77263177D01*
X15783676Y-77236546D01*
X15816681Y-77145802D01*
X15883215Y-77063421D01*
X15949055Y-77017778D01*
X16043036Y-76984992D01*
X16092468Y-76979661D01*
X16161536Y-76972213D01*
X16309643Y-76978426D01*
G36*
X16465670Y-82404690D02*
G01*
X16540868Y-82437429D01*
X16602131Y-82499159D01*
X16628210Y-82549142D01*
X16646470Y-82645697D01*
X16644007Y-82699353D01*
X16630687Y-82749024D01*
X16602739Y-82768081D01*
X16556710Y-82760955D01*
X16550624Y-82758882D01*
X16518349Y-82742444D01*
X16506133Y-82715074D01*
X16506950Y-82662932D01*
X16508061Y-82626116D01*
X16498528Y-82583039D01*
X16470026Y-82553525D01*
X16434935Y-82536714D01*
X16398175Y-82534839D01*
X16397961Y-82534926D01*
X16378098Y-82556721D01*
X16349192Y-82603368D01*
X16316886Y-82663722D01*
X16286823Y-82726640D01*
X16264646Y-82780977D01*
X16256000Y-82815590D01*
X16264467Y-82820740D01*
X16304309Y-82827222D01*
X16369371Y-82831661D01*
X16451385Y-82833308D01*
X16508153Y-82833691D01*
X16579648Y-82835495D01*
X16628610Y-82838442D01*
X16646769Y-82842157D01*
X16640667Y-82861576D01*
X16624095Y-82900773D01*
X16601420Y-82950538D01*
X16310509Y-82950538D01*
X16235940Y-82950220D01*
X16122701Y-82947211D01*
X16038692Y-82939546D01*
X15977520Y-82925438D01*
X15932795Y-82903101D01*
X15898124Y-82870747D01*
X15867117Y-82826590D01*
X15841528Y-82770333D01*
X15826154Y-82666460D01*
X15827911Y-82619064D01*
X15838547Y-82577193D01*
X15865062Y-82538209D01*
X15914420Y-82488035D01*
X15949279Y-82455768D01*
X15994534Y-82422156D01*
X16036951Y-82406997D01*
X16090768Y-82403461D01*
X16178850Y-82403461D01*
X16147787Y-82463530D01*
X16109936Y-82511133D01*
X16058950Y-82543739D01*
X16045088Y-82549339D01*
X15991358Y-82592008D01*
X15964417Y-82651293D01*
X15967039Y-82715939D01*
X16002000Y-82774692D01*
X16030394Y-82799550D01*
X16066718Y-82814030D01*
X16099046Y-82798530D01*
X16131565Y-82750333D01*
X16168461Y-82666726D01*
X16173557Y-82654038D01*
X16206907Y-82577922D01*
X16239793Y-82512604D01*
X16265769Y-82471047D01*
X16312167Y-82429424D01*
X16386211Y-82401753D01*
X16465670Y-82404690D01*
G37*
X16465670Y-82404690D02*
X16540868Y-82437429D01*
X16602131Y-82499159D01*
X16628210Y-82549142D01*
X16646470Y-82645697D01*
X16644007Y-82699353D01*
X16630687Y-82749024D01*
X16602739Y-82768081D01*
X16556710Y-82760955D01*
X16550624Y-82758882D01*
X16518349Y-82742444D01*
X16506133Y-82715074D01*
X16506950Y-82662932D01*
X16508061Y-82626116D01*
X16498528Y-82583039D01*
X16470026Y-82553525D01*
X16434935Y-82536714D01*
X16398175Y-82534839D01*
X16397961Y-82534926D01*
X16378098Y-82556721D01*
X16349192Y-82603368D01*
X16316886Y-82663722D01*
X16286823Y-82726640D01*
X16264646Y-82780977D01*
X16256000Y-82815590D01*
X16264467Y-82820740D01*
X16304309Y-82827222D01*
X16369371Y-82831661D01*
X16451385Y-82833308D01*
X16508153Y-82833691D01*
X16579648Y-82835495D01*
X16628610Y-82838442D01*
X16646769Y-82842157D01*
X16640667Y-82861576D01*
X16624095Y-82900773D01*
X16601420Y-82950538D01*
X16310509Y-82950538D01*
X16235940Y-82950220D01*
X16122701Y-82947211D01*
X16038692Y-82939546D01*
X15977520Y-82925438D01*
X15932795Y-82903101D01*
X15898124Y-82870747D01*
X15867117Y-82826590D01*
X15841528Y-82770333D01*
X15826154Y-82666460D01*
X15827911Y-82619064D01*
X15838547Y-82577193D01*
X15865062Y-82538209D01*
X15914420Y-82488035D01*
X15949279Y-82455768D01*
X15994534Y-82422156D01*
X16036951Y-82406997D01*
X16090768Y-82403461D01*
X16178850Y-82403461D01*
X16147787Y-82463530D01*
X16109936Y-82511133D01*
X16058950Y-82543739D01*
X16045088Y-82549339D01*
X15991358Y-82592008D01*
X15964417Y-82651293D01*
X15967039Y-82715939D01*
X16002000Y-82774692D01*
X16030394Y-82799550D01*
X16066718Y-82814030D01*
X16099046Y-82798530D01*
X16131565Y-82750333D01*
X16168461Y-82666726D01*
X16173557Y-82654038D01*
X16206907Y-82577922D01*
X16239793Y-82512604D01*
X16265769Y-82471047D01*
X16312167Y-82429424D01*
X16386211Y-82401753D01*
X16465670Y-82404690D01*
G36*
X16149518Y-79652809D02*
G01*
X16122837Y-79696300D01*
X16067446Y-79730574D01*
X16056024Y-79734093D01*
X15997838Y-79771972D01*
X15966407Y-79829064D01*
X15965058Y-79894617D01*
X15997116Y-79957883D01*
X16005383Y-79967328D01*
X16041311Y-79998913D01*
X16072635Y-80004129D01*
X16103391Y-79980235D01*
X16137617Y-79924490D01*
X16179350Y-79834154D01*
X16181993Y-79828044D01*
X16228755Y-79727759D01*
X16270181Y-79659265D01*
X16311542Y-79617101D01*
X16358111Y-79595807D01*
X16415160Y-79589923D01*
X16478408Y-79597634D01*
X16559364Y-79636570D01*
X16617522Y-79705068D01*
X16634983Y-79754612D01*
X16644537Y-79824531D01*
X16642496Y-79892425D01*
X16628082Y-79940907D01*
X16624493Y-79946057D01*
X16599416Y-79959733D01*
X16555218Y-79950243D01*
X16520527Y-79933754D01*
X16506084Y-79907313D01*
X16506803Y-79857166D01*
X16502660Y-79787547D01*
X16474054Y-79742057D01*
X16421104Y-79726692D01*
X16419582Y-79726706D01*
X16388845Y-79736017D01*
X16360643Y-79767689D01*
X16328136Y-79829269D01*
X16288998Y-79913014D01*
X16267706Y-79968482D01*
X16269079Y-80000503D01*
X16297203Y-80015466D01*
X16356170Y-80019758D01*
X16450068Y-80019769D01*
X16508031Y-80020248D01*
X16579612Y-80022444D01*
X16628606Y-80026014D01*
X16646769Y-80030509D01*
X16646646Y-80031710D01*
X16636802Y-80057681D01*
X16616028Y-80100695D01*
X16585287Y-80160141D01*
X16308298Y-80153077D01*
X16289928Y-80152586D01*
X16160992Y-80146975D01*
X16063814Y-80137062D01*
X15991925Y-80120825D01*
X15938852Y-80096241D01*
X15898127Y-80061285D01*
X15863279Y-80013936D01*
X15862733Y-80013060D01*
X15834303Y-79936501D01*
X15829500Y-79847956D01*
X15847228Y-79762542D01*
X15886389Y-79695378D01*
X15916902Y-79665831D01*
X16008110Y-79609052D01*
X16107548Y-79589923D01*
X16175960Y-79589923D01*
X16149518Y-79652809D01*
G37*
X16149518Y-79652809D02*
X16122837Y-79696300D01*
X16067446Y-79730574D01*
X16056024Y-79734093D01*
X15997838Y-79771972D01*
X15966407Y-79829064D01*
X15965058Y-79894617D01*
X15997116Y-79957883D01*
X16005383Y-79967328D01*
X16041311Y-79998913D01*
X16072635Y-80004129D01*
X16103391Y-79980235D01*
X16137617Y-79924490D01*
X16179350Y-79834154D01*
X16181993Y-79828044D01*
X16228755Y-79727759D01*
X16270181Y-79659265D01*
X16311542Y-79617101D01*
X16358111Y-79595807D01*
X16415160Y-79589923D01*
X16478408Y-79597634D01*
X16559364Y-79636570D01*
X16617522Y-79705068D01*
X16634983Y-79754612D01*
X16644537Y-79824531D01*
X16642496Y-79892425D01*
X16628082Y-79940907D01*
X16624493Y-79946057D01*
X16599416Y-79959733D01*
X16555218Y-79950243D01*
X16520527Y-79933754D01*
X16506084Y-79907313D01*
X16506803Y-79857166D01*
X16502660Y-79787547D01*
X16474054Y-79742057D01*
X16421104Y-79726692D01*
X16419582Y-79726706D01*
X16388845Y-79736017D01*
X16360643Y-79767689D01*
X16328136Y-79829269D01*
X16288998Y-79913014D01*
X16267706Y-79968482D01*
X16269079Y-80000503D01*
X16297203Y-80015466D01*
X16356170Y-80019758D01*
X16450068Y-80019769D01*
X16508031Y-80020248D01*
X16579612Y-80022444D01*
X16628606Y-80026014D01*
X16646769Y-80030509D01*
X16646646Y-80031710D01*
X16636802Y-80057681D01*
X16616028Y-80100695D01*
X16585287Y-80160141D01*
X16308298Y-80153077D01*
X16289928Y-80152586D01*
X16160992Y-80146975D01*
X16063814Y-80137062D01*
X15991925Y-80120825D01*
X15938852Y-80096241D01*
X15898127Y-80061285D01*
X15863279Y-80013936D01*
X15862733Y-80013060D01*
X15834303Y-79936501D01*
X15829500Y-79847956D01*
X15847228Y-79762542D01*
X15886389Y-79695378D01*
X15916902Y-79665831D01*
X16008110Y-79609052D01*
X16107548Y-79589923D01*
X16175960Y-79589923D01*
X16149518Y-79652809D01*
G36*
X16403805Y-83067997D02*
G01*
X16500308Y-83069140D01*
X16577323Y-83071081D01*
X16628319Y-83073635D01*
X16646769Y-83076619D01*
X16640667Y-83096038D01*
X16624095Y-83135234D01*
X16623558Y-83136411D01*
X16612903Y-83156765D01*
X16598282Y-83170454D01*
X16572673Y-83178801D01*
X16529054Y-83183126D01*
X16460403Y-83184752D01*
X16359698Y-83185000D01*
X16295813Y-83185500D01*
X16175751Y-83190836D01*
X16087809Y-83203055D01*
X16027375Y-83223448D01*
X15989836Y-83253305D01*
X15970581Y-83293918D01*
X15969239Y-83299552D01*
X15968191Y-83375622D01*
X16002271Y-83434948D01*
X16070598Y-83475923D01*
X16090351Y-83483230D01*
X16134066Y-83499886D01*
X16154155Y-83508321D01*
X16151387Y-83525644D01*
X16136365Y-83563475D01*
X16111556Y-83598760D01*
X16064670Y-83614846D01*
X16031087Y-83610048D01*
X15962967Y-83580569D01*
X15899134Y-83532902D01*
X15854988Y-83477161D01*
X15844782Y-83453807D01*
X15827718Y-83365381D01*
X15834476Y-83271499D01*
X15864440Y-83190833D01*
X15886954Y-83157286D01*
X15919212Y-83123313D01*
X15960246Y-83099081D01*
X16016108Y-83082999D01*
X16092851Y-83073479D01*
X16196525Y-83068932D01*
X16333184Y-83067769D01*
X16403805Y-83067997D01*
G37*
X16403805Y-83067997D02*
X16500308Y-83069140D01*
X16577323Y-83071081D01*
X16628319Y-83073635D01*
X16646769Y-83076619D01*
X16640667Y-83096038D01*
X16624095Y-83135234D01*
X16623558Y-83136411D01*
X16612903Y-83156765D01*
X16598282Y-83170454D01*
X16572673Y-83178801D01*
X16529054Y-83183126D01*
X16460403Y-83184752D01*
X16359698Y-83185000D01*
X16295813Y-83185500D01*
X16175751Y-83190836D01*
X16087809Y-83203055D01*
X16027375Y-83223448D01*
X15989836Y-83253305D01*
X15970581Y-83293918D01*
X15969239Y-83299552D01*
X15968191Y-83375622D01*
X16002271Y-83434948D01*
X16070598Y-83475923D01*
X16090351Y-83483230D01*
X16134066Y-83499886D01*
X16154155Y-83508321D01*
X16151387Y-83525644D01*
X16136365Y-83563475D01*
X16111556Y-83598760D01*
X16064670Y-83614846D01*
X16031087Y-83610048D01*
X15962967Y-83580569D01*
X15899134Y-83532902D01*
X15854988Y-83477161D01*
X15844782Y-83453807D01*
X15827718Y-83365381D01*
X15834476Y-83271499D01*
X15864440Y-83190833D01*
X15886954Y-83157286D01*
X15919212Y-83123313D01*
X15960246Y-83099081D01*
X16016108Y-83082999D01*
X16092851Y-83073479D01*
X16196525Y-83068932D01*
X16333184Y-83067769D01*
X16403805Y-83067997D01*
G36*
X16238105Y-75486865D02*
G01*
X16332584Y-75487924D01*
X16398414Y-75491564D01*
X16444394Y-75499108D01*
X16479321Y-75511878D01*
X16511995Y-75531197D01*
X16518775Y-75535950D01*
X16572231Y-75586241D01*
X16612547Y-75643543D01*
X16625629Y-75672968D01*
X16647450Y-75778701D01*
X16633336Y-75883266D01*
X16585105Y-75979632D01*
X16504579Y-76060765D01*
X16493791Y-76067615D01*
X16431153Y-76089903D01*
X16343935Y-76104921D01*
X16243210Y-76112208D01*
X16140052Y-76111301D01*
X16045533Y-76101738D01*
X15970727Y-76083057D01*
X15920905Y-76059049D01*
X15843409Y-75991464D01*
X15795256Y-75899886D01*
X15779727Y-75794720D01*
X15962923Y-75794720D01*
X15964432Y-75812984D01*
X15992107Y-75864152D01*
X16054172Y-75897965D01*
X16150037Y-75914204D01*
X16279114Y-75912651D01*
X16287420Y-75912026D01*
X16358643Y-75902923D01*
X16403809Y-75886712D01*
X16434752Y-75859340D01*
X16463737Y-75813447D01*
X16465261Y-75768058D01*
X16431846Y-75721308D01*
X16423053Y-75713176D01*
X16396741Y-75697246D01*
X16358520Y-75687841D01*
X16299349Y-75683368D01*
X16210182Y-75682231D01*
X16126664Y-75684178D01*
X16047095Y-75693895D01*
X15996808Y-75713953D01*
X15970513Y-75746760D01*
X15962923Y-75794720D01*
X15779727Y-75794720D01*
X15778703Y-75787787D01*
X15779599Y-75757849D01*
X15797929Y-75669685D01*
X15844104Y-75597267D01*
X15923648Y-75530808D01*
X15929548Y-75526853D01*
X15961288Y-75508960D01*
X15997163Y-75497322D01*
X16045906Y-75490629D01*
X16116249Y-75487574D01*
X16210182Y-75486894D01*
X16216923Y-75486846D01*
X16238105Y-75486865D01*
G37*
X16238105Y-75486865D02*
X16332584Y-75487924D01*
X16398414Y-75491564D01*
X16444394Y-75499108D01*
X16479321Y-75511878D01*
X16511995Y-75531197D01*
X16518775Y-75535950D01*
X16572231Y-75586241D01*
X16612547Y-75643543D01*
X16625629Y-75672968D01*
X16647450Y-75778701D01*
X16633336Y-75883266D01*
X16585105Y-75979632D01*
X16504579Y-76060765D01*
X16493791Y-76067615D01*
X16431153Y-76089903D01*
X16343935Y-76104921D01*
X16243210Y-76112208D01*
X16140052Y-76111301D01*
X16045533Y-76101738D01*
X15970727Y-76083057D01*
X15920905Y-76059049D01*
X15843409Y-75991464D01*
X15795256Y-75899886D01*
X15779727Y-75794720D01*
X15962923Y-75794720D01*
X15964432Y-75812984D01*
X15992107Y-75864152D01*
X16054172Y-75897965D01*
X16150037Y-75914204D01*
X16279114Y-75912651D01*
X16287420Y-75912026D01*
X16358643Y-75902923D01*
X16403809Y-75886712D01*
X16434752Y-75859340D01*
X16463737Y-75813447D01*
X16465261Y-75768058D01*
X16431846Y-75721308D01*
X16423053Y-75713176D01*
X16396741Y-75697246D01*
X16358520Y-75687841D01*
X16299349Y-75683368D01*
X16210182Y-75682231D01*
X16126664Y-75684178D01*
X16047095Y-75693895D01*
X15996808Y-75713953D01*
X15970513Y-75746760D01*
X15962923Y-75794720D01*
X15779727Y-75794720D01*
X15778703Y-75787787D01*
X15779599Y-75757849D01*
X15797929Y-75669685D01*
X15844104Y-75597267D01*
X15923648Y-75530808D01*
X15929548Y-75526853D01*
X15961288Y-75508960D01*
X15997163Y-75497322D01*
X16045906Y-75490629D01*
X16116249Y-75487574D01*
X16210182Y-75486894D01*
X16216923Y-75486846D01*
X16238105Y-75486865D01*
G36*
X16263094Y-78906340D02*
G01*
X16387805Y-78907042D01*
X16493557Y-78908117D01*
X16575322Y-78909500D01*
X16628069Y-78911126D01*
X16646769Y-78912930D01*
X16646706Y-78913636D01*
X16639912Y-78937613D01*
X16625320Y-78981315D01*
X16603870Y-79042846D01*
X16328617Y-79042846D01*
X16220466Y-79043237D01*
X16142026Y-79045054D01*
X16088647Y-79049233D01*
X16053256Y-79056714D01*
X16028779Y-79068433D01*
X16008144Y-79085329D01*
X15997170Y-79096848D01*
X15966775Y-79159136D01*
X15969466Y-79227789D01*
X16005406Y-79290702D01*
X16014325Y-79299861D01*
X16032844Y-79314529D01*
X16057326Y-79324567D01*
X16094393Y-79330849D01*
X16150667Y-79334252D01*
X16232771Y-79335651D01*
X16347329Y-79335923D01*
X16405430Y-79336053D01*
X16500993Y-79336901D01*
X16577526Y-79338406D01*
X16628345Y-79340415D01*
X16646769Y-79342777D01*
X16646706Y-79343482D01*
X16639912Y-79367459D01*
X16625320Y-79411161D01*
X16603870Y-79472692D01*
X16327358Y-79472662D01*
X16302742Y-79472616D01*
X16174419Y-79470030D01*
X16077384Y-79462087D01*
X16005057Y-79446845D01*
X15950855Y-79422364D01*
X15908198Y-79386702D01*
X15870505Y-79337918D01*
X15846910Y-79290339D01*
X15828672Y-79214268D01*
X15827636Y-79139444D01*
X15845378Y-79081923D01*
X15847829Y-79077598D01*
X15847566Y-79064262D01*
X15827039Y-79055149D01*
X15779980Y-79048572D01*
X15700120Y-79042846D01*
X15536236Y-79033077D01*
X15589806Y-78906077D01*
X16124455Y-78906077D01*
X16263094Y-78906340D01*
G37*
X16263094Y-78906340D02*
X16387805Y-78907042D01*
X16493557Y-78908117D01*
X16575322Y-78909500D01*
X16628069Y-78911126D01*
X16646769Y-78912930D01*
X16646706Y-78913636D01*
X16639912Y-78937613D01*
X16625320Y-78981315D01*
X16603870Y-79042846D01*
X16328617Y-79042846D01*
X16220466Y-79043237D01*
X16142026Y-79045054D01*
X16088647Y-79049233D01*
X16053256Y-79056714D01*
X16028779Y-79068433D01*
X16008144Y-79085329D01*
X15997170Y-79096848D01*
X15966775Y-79159136D01*
X15969466Y-79227789D01*
X16005406Y-79290702D01*
X16014325Y-79299861D01*
X16032844Y-79314529D01*
X16057326Y-79324567D01*
X16094393Y-79330849D01*
X16150667Y-79334252D01*
X16232771Y-79335651D01*
X16347329Y-79335923D01*
X16405430Y-79336053D01*
X16500993Y-79336901D01*
X16577526Y-79338406D01*
X16628345Y-79340415D01*
X16646769Y-79342777D01*
X16646706Y-79343482D01*
X16639912Y-79367459D01*
X16625320Y-79411161D01*
X16603870Y-79472692D01*
X16327358Y-79472662D01*
X16302742Y-79472616D01*
X16174419Y-79470030D01*
X16077384Y-79462087D01*
X16005057Y-79446845D01*
X15950855Y-79422364D01*
X15908198Y-79386702D01*
X15870505Y-79337918D01*
X15846910Y-79290339D01*
X15828672Y-79214268D01*
X15827636Y-79139444D01*
X15845378Y-79081923D01*
X15847829Y-79077598D01*
X15847566Y-79064262D01*
X15827039Y-79055149D01*
X15779980Y-79048572D01*
X15700120Y-79042846D01*
X15536236Y-79033077D01*
X15589806Y-78906077D01*
X16124455Y-78906077D01*
X16263094Y-78906340D01*
G36*
X16588363Y-81664215D02*
G01*
X16602228Y-81678338D01*
X16633046Y-81717464D01*
X16643028Y-81756922D01*
X16638433Y-81815638D01*
X16635462Y-81839544D01*
X16629176Y-81901199D01*
X16626672Y-81944308D01*
X16627055Y-81957095D01*
X16631200Y-82009554D01*
X16638433Y-82072978D01*
X16640918Y-82093270D01*
X16641895Y-82144390D01*
X16626462Y-82181793D01*
X16588363Y-82224401D01*
X16526533Y-82286231D01*
X16176343Y-82286231D01*
X16072857Y-82285749D01*
X15974192Y-82284247D01*
X15896068Y-82281911D01*
X15844662Y-82278929D01*
X15826154Y-82275491D01*
X15826204Y-82274770D01*
X15835413Y-82249797D01*
X15855707Y-82207601D01*
X15885261Y-82150451D01*
X16192746Y-82145072D01*
X16500231Y-82139692D01*
X16500231Y-82022461D01*
X16163192Y-82017115D01*
X16071574Y-82015421D01*
X15973649Y-82012995D01*
X15895906Y-82010366D01*
X15844642Y-82007754D01*
X15826154Y-82005377D01*
X15826219Y-82004694D01*
X15833020Y-81981004D01*
X15847604Y-81937454D01*
X15869054Y-81875923D01*
X16165104Y-81875624D01*
X16216532Y-81875324D01*
X16316466Y-81873246D01*
X16399925Y-81869530D01*
X16459377Y-81864570D01*
X16487287Y-81858760D01*
X16502214Y-81837976D01*
X16506825Y-81795560D01*
X16500231Y-81748923D01*
X16163192Y-81743577D01*
X16077546Y-81741664D01*
X15976172Y-81737697D01*
X15896655Y-81732509D01*
X15844736Y-81726501D01*
X15826154Y-81720073D01*
X15832034Y-81695002D01*
X15848829Y-81652150D01*
X15871503Y-81602385D01*
X16526533Y-81602385D01*
X16588363Y-81664215D01*
G37*
X16588363Y-81664215D02*
X16602228Y-81678338D01*
X16633046Y-81717464D01*
X16643028Y-81756922D01*
X16638433Y-81815638D01*
X16635462Y-81839544D01*
X16629176Y-81901199D01*
X16626672Y-81944308D01*
X16627055Y-81957095D01*
X16631200Y-82009554D01*
X16638433Y-82072978D01*
X16640918Y-82093270D01*
X16641895Y-82144390D01*
X16626462Y-82181793D01*
X16588363Y-82224401D01*
X16526533Y-82286231D01*
X16176343Y-82286231D01*
X16072857Y-82285749D01*
X15974192Y-82284247D01*
X15896068Y-82281911D01*
X15844662Y-82278929D01*
X15826154Y-82275491D01*
X15826204Y-82274770D01*
X15835413Y-82249797D01*
X15855707Y-82207601D01*
X15885261Y-82150451D01*
X16192746Y-82145072D01*
X16500231Y-82139692D01*
X16500231Y-82022461D01*
X16163192Y-82017115D01*
X16071574Y-82015421D01*
X15973649Y-82012995D01*
X15895906Y-82010366D01*
X15844642Y-82007754D01*
X15826154Y-82005377D01*
X15826219Y-82004694D01*
X15833020Y-81981004D01*
X15847604Y-81937454D01*
X15869054Y-81875923D01*
X16165104Y-81875624D01*
X16216532Y-81875324D01*
X16316466Y-81873246D01*
X16399925Y-81869530D01*
X16459377Y-81864570D01*
X16487287Y-81858760D01*
X16502214Y-81837976D01*
X16506825Y-81795560D01*
X16500231Y-81748923D01*
X16163192Y-81743577D01*
X16077546Y-81741664D01*
X15976172Y-81737697D01*
X15896655Y-81732509D01*
X15844736Y-81726501D01*
X15826154Y-81720073D01*
X15832034Y-81695002D01*
X15848829Y-81652150D01*
X15871503Y-81602385D01*
X16526533Y-81602385D01*
X16588363Y-81664215D01*
G36*
X16456269Y-76233237D02*
G01*
X16499802Y-76232700D01*
X16645344Y-76230981D01*
X16756711Y-76230635D01*
X16837804Y-76232723D01*
X16892522Y-76238302D01*
X16924761Y-76248433D01*
X16938422Y-76264174D01*
X16937403Y-76286583D01*
X16925603Y-76316720D01*
X16906920Y-76355645D01*
X16902933Y-76363962D01*
X16883419Y-76398598D01*
X16860202Y-76416686D01*
X16821492Y-76423608D01*
X16755497Y-76424744D01*
X16637000Y-76424795D01*
X16637000Y-76546859D01*
X16633712Y-76621945D01*
X16620377Y-76680985D01*
X16593423Y-76730014D01*
X16590788Y-76733670D01*
X16546286Y-76783419D01*
X16492523Y-76818041D01*
X16422154Y-76839877D01*
X16327830Y-76851263D01*
X16202206Y-76854538D01*
X16110536Y-76853813D01*
X16041098Y-76850510D01*
X15992945Y-76843172D01*
X15956866Y-76830345D01*
X15923648Y-76810577D01*
X15898261Y-76792431D01*
X15829727Y-76726539D01*
X15792505Y-76651886D01*
X15780722Y-76558096D01*
X15781544Y-76550584D01*
X15962923Y-76550584D01*
X15965050Y-76573683D01*
X15986147Y-76613650D01*
X16033161Y-76640074D01*
X16110175Y-76654670D01*
X16221271Y-76659154D01*
X16239131Y-76659120D01*
X16319748Y-76657265D01*
X16372447Y-76651307D01*
X16406668Y-76639494D01*
X16431846Y-76620077D01*
X16433049Y-76618867D01*
X16465628Y-76571142D01*
X16462417Y-76524890D01*
X16422965Y-76472650D01*
X16409482Y-76459872D01*
X16381837Y-76441051D01*
X16345880Y-76430438D01*
X16291364Y-76425748D01*
X16208042Y-76424692D01*
X16157598Y-76425606D01*
X16065857Y-76435523D01*
X16005752Y-76458158D01*
X15972900Y-76495762D01*
X15962923Y-76550584D01*
X15781544Y-76550584D01*
X15792467Y-76450760D01*
X15834595Y-76357969D01*
X15908898Y-76284579D01*
X15916764Y-76279046D01*
X15937668Y-76266143D01*
X15961555Y-76256258D01*
X15993582Y-76248907D01*
X16038905Y-76243606D01*
X16102679Y-76239873D01*
X16190060Y-76237222D01*
X16208042Y-76236904D01*
X16306205Y-76235172D01*
X16456269Y-76233237D01*
G37*
X16456269Y-76233237D02*
X16499802Y-76232700D01*
X16645344Y-76230981D01*
X16756711Y-76230635D01*
X16837804Y-76232723D01*
X16892522Y-76238302D01*
X16924761Y-76248433D01*
X16938422Y-76264174D01*
X16937403Y-76286583D01*
X16925603Y-76316720D01*
X16906920Y-76355645D01*
X16902933Y-76363962D01*
X16883419Y-76398598D01*
X16860202Y-76416686D01*
X16821492Y-76423608D01*
X16755497Y-76424744D01*
X16637000Y-76424795D01*
X16637000Y-76546859D01*
X16633712Y-76621945D01*
X16620377Y-76680985D01*
X16593423Y-76730014D01*
X16590788Y-76733670D01*
X16546286Y-76783419D01*
X16492523Y-76818041D01*
X16422154Y-76839877D01*
X16327830Y-76851263D01*
X16202206Y-76854538D01*
X16110536Y-76853813D01*
X16041098Y-76850510D01*
X15992945Y-76843172D01*
X15956866Y-76830345D01*
X15923648Y-76810577D01*
X15898261Y-76792431D01*
X15829727Y-76726539D01*
X15792505Y-76651886D01*
X15780722Y-76558096D01*
X15781544Y-76550584D01*
X15962923Y-76550584D01*
X15965050Y-76573683D01*
X15986147Y-76613650D01*
X16033161Y-76640074D01*
X16110175Y-76654670D01*
X16221271Y-76659154D01*
X16239131Y-76659120D01*
X16319748Y-76657265D01*
X16372447Y-76651307D01*
X16406668Y-76639494D01*
X16431846Y-76620077D01*
X16433049Y-76618867D01*
X16465628Y-76571142D01*
X16462417Y-76524890D01*
X16422965Y-76472650D01*
X16409482Y-76459872D01*
X16381837Y-76441051D01*
X16345880Y-76430438D01*
X16291364Y-76425748D01*
X16208042Y-76424692D01*
X16157598Y-76425606D01*
X16065857Y-76435523D01*
X16005752Y-76458158D01*
X15972900Y-76495762D01*
X15962923Y-76550584D01*
X15781544Y-76550584D01*
X15792467Y-76450760D01*
X15834595Y-76357969D01*
X15908898Y-76284579D01*
X15916764Y-76279046D01*
X15937668Y-76266143D01*
X15961555Y-76256258D01*
X15993582Y-76248907D01*
X16038905Y-76243606D01*
X16102679Y-76239873D01*
X16190060Y-76237222D01*
X16208042Y-76236904D01*
X16306205Y-76235172D01*
X16456269Y-76233237D01*
G36*
X16573296Y-80257239D02*
G01*
X16628507Y-80262395D01*
X16646769Y-80270842D01*
X16641301Y-80296406D01*
X16624733Y-80339834D01*
X16619888Y-80350060D01*
X16608920Y-80366033D01*
X16590890Y-80377046D01*
X16559396Y-80384250D01*
X16508036Y-80388792D01*
X16430410Y-80391820D01*
X16320115Y-80394484D01*
X16287875Y-80395215D01*
X16186050Y-80398035D01*
X16114788Y-80401696D01*
X16067332Y-80407306D01*
X16036925Y-80415971D01*
X16016810Y-80428798D01*
X16000229Y-80446895D01*
X15971161Y-80500475D01*
X15965564Y-80566388D01*
X15987807Y-80625365D01*
X16033859Y-80667797D01*
X16099692Y-80684077D01*
X16117587Y-80684530D01*
X16149982Y-80693422D01*
X16154925Y-80719675D01*
X16135633Y-80771081D01*
X16129446Y-80782987D01*
X16093058Y-80815165D01*
X16038954Y-80815802D01*
X15964128Y-80785144D01*
X15923350Y-80757022D01*
X15865421Y-80685117D01*
X15832670Y-80596362D01*
X15828212Y-80501458D01*
X15855167Y-80411108D01*
X15858581Y-80404940D01*
X15897692Y-80354553D01*
X15947975Y-80309502D01*
X15959339Y-80301645D01*
X15985860Y-80286624D01*
X16017336Y-80275893D01*
X16060591Y-80268514D01*
X16122449Y-80263548D01*
X16209733Y-80260058D01*
X16329269Y-80257107D01*
X16349478Y-80256689D01*
X16480499Y-80255346D01*
X16573296Y-80257239D01*
G37*
X16573296Y-80257239D02*
X16628507Y-80262395D01*
X16646769Y-80270842D01*
X16641301Y-80296406D01*
X16624733Y-80339834D01*
X16619888Y-80350060D01*
X16608920Y-80366033D01*
X16590890Y-80377046D01*
X16559396Y-80384250D01*
X16508036Y-80388792D01*
X16430410Y-80391820D01*
X16320115Y-80394484D01*
X16287875Y-80395215D01*
X16186050Y-80398035D01*
X16114788Y-80401696D01*
X16067332Y-80407306D01*
X16036925Y-80415971D01*
X16016810Y-80428798D01*
X16000229Y-80446895D01*
X15971161Y-80500475D01*
X15965564Y-80566388D01*
X15987807Y-80625365D01*
X16033859Y-80667797D01*
X16099692Y-80684077D01*
X16117587Y-80684530D01*
X16149982Y-80693422D01*
X16154925Y-80719675D01*
X16135633Y-80771081D01*
X16129446Y-80782987D01*
X16093058Y-80815165D01*
X16038954Y-80815802D01*
X15964128Y-80785144D01*
X15923350Y-80757022D01*
X15865421Y-80685117D01*
X15832670Y-80596362D01*
X15828212Y-80501458D01*
X15855167Y-80411108D01*
X15858581Y-80404940D01*
X15897692Y-80354553D01*
X15947975Y-80309502D01*
X15959339Y-80301645D01*
X15985860Y-80286624D01*
X16017336Y-80275893D01*
X16060591Y-80268514D01*
X16122449Y-80263548D01*
X16209733Y-80260058D01*
X16329269Y-80257107D01*
X16349478Y-80256689D01*
X16480499Y-80255346D01*
X16573296Y-80257239D01*
G36*
X16312652Y-80920161D02*
G01*
X16416507Y-80931190D01*
X16494333Y-80955186D01*
X16553760Y-80994957D01*
X16602418Y-81053312D01*
X16630546Y-81108900D01*
X16646199Y-81202249D01*
X16629084Y-81295470D01*
X16581388Y-81379728D01*
X16505294Y-81446182D01*
X16491262Y-81454207D01*
X16466679Y-81464804D01*
X16435309Y-81472665D01*
X16391769Y-81478193D01*
X16330678Y-81481794D01*
X16246655Y-81483872D01*
X16134320Y-81484833D01*
X15988289Y-81485081D01*
X15534963Y-81485154D01*
X15561564Y-81421654D01*
X15568845Y-81404864D01*
X15585287Y-81378141D01*
X15610187Y-81362844D01*
X15653732Y-81354437D01*
X15726106Y-81348385D01*
X15791089Y-81342856D01*
X15833750Y-81335550D01*
X15849670Y-81325082D01*
X15845400Y-81309308D01*
X15830397Y-81269110D01*
X15826678Y-81197272D01*
X15830089Y-81178301D01*
X15966057Y-81178301D01*
X15970575Y-81246600D01*
X16008144Y-81305902D01*
X16023040Y-81318667D01*
X16051089Y-81334236D01*
X16090258Y-81343238D01*
X16149858Y-81347383D01*
X16239200Y-81348385D01*
X16310316Y-81347923D01*
X16374641Y-81345001D01*
X16416166Y-81337779D01*
X16444067Y-81324439D01*
X16467517Y-81303164D01*
X16472025Y-81298179D01*
X16505295Y-81234137D01*
X16501890Y-81166375D01*
X16462042Y-81103266D01*
X16441398Y-81084474D01*
X16414029Y-81068746D01*
X16376192Y-81059961D01*
X16318355Y-81056141D01*
X16230986Y-81055308D01*
X16164319Y-81055719D01*
X16099245Y-81058566D01*
X16057251Y-81065744D01*
X16029063Y-81079111D01*
X16005406Y-81100528D01*
X15994753Y-81113110D01*
X15966057Y-81178301D01*
X15830089Y-81178301D01*
X15840572Y-81119990D01*
X15870505Y-81053312D01*
X15898211Y-81016629D01*
X15952269Y-80969528D01*
X16021577Y-80939362D01*
X16113765Y-80923322D01*
X16230986Y-80918809D01*
X16236462Y-80918599D01*
X16312652Y-80920161D01*
G37*
X16312652Y-80920161D02*
X16416507Y-80931190D01*
X16494333Y-80955186D01*
X16553760Y-80994957D01*
X16602418Y-81053312D01*
X16630546Y-81108900D01*
X16646199Y-81202249D01*
X16629084Y-81295470D01*
X16581388Y-81379728D01*
X16505294Y-81446182D01*
X16491262Y-81454207D01*
X16466679Y-81464804D01*
X16435309Y-81472665D01*
X16391769Y-81478193D01*
X16330678Y-81481794D01*
X16246655Y-81483872D01*
X16134320Y-81484833D01*
X15988289Y-81485081D01*
X15534963Y-81485154D01*
X15561564Y-81421654D01*
X15568845Y-81404864D01*
X15585287Y-81378141D01*
X15610187Y-81362844D01*
X15653732Y-81354437D01*
X15726106Y-81348385D01*
X15791089Y-81342856D01*
X15833750Y-81335550D01*
X15849670Y-81325082D01*
X15845400Y-81309308D01*
X15830397Y-81269110D01*
X15826678Y-81197272D01*
X15830089Y-81178301D01*
X15966057Y-81178301D01*
X15970575Y-81246600D01*
X16008144Y-81305902D01*
X16023040Y-81318667D01*
X16051089Y-81334236D01*
X16090258Y-81343238D01*
X16149858Y-81347383D01*
X16239200Y-81348385D01*
X16310316Y-81347923D01*
X16374641Y-81345001D01*
X16416166Y-81337779D01*
X16444067Y-81324439D01*
X16467517Y-81303164D01*
X16472025Y-81298179D01*
X16505295Y-81234137D01*
X16501890Y-81166375D01*
X16462042Y-81103266D01*
X16441398Y-81084474D01*
X16414029Y-81068746D01*
X16376192Y-81059961D01*
X16318355Y-81056141D01*
X16230986Y-81055308D01*
X16164319Y-81055719D01*
X16099245Y-81058566D01*
X16057251Y-81065744D01*
X16029063Y-81079111D01*
X16005406Y-81100528D01*
X15994753Y-81113110D01*
X15966057Y-81178301D01*
X15830089Y-81178301D01*
X15840572Y-81119990D01*
X15870505Y-81053312D01*
X15898211Y-81016629D01*
X15952269Y-80969528D01*
X16021577Y-80939362D01*
X16113765Y-80923322D01*
X16230986Y-80918809D01*
X16236462Y-80918599D01*
X16312652Y-80920161D01*
G36*
X16292449Y-83732587D02*
G01*
X16395047Y-83737359D01*
X16470126Y-83749850D01*
X16525748Y-83772879D01*
X16569975Y-83809268D01*
X16610869Y-83861838D01*
X16629466Y-83895286D01*
X16641991Y-83948902D01*
X16641003Y-84024220D01*
X16637035Y-84066328D01*
X16624920Y-84117121D01*
X16598585Y-84157720D01*
X16549514Y-84204951D01*
X16542346Y-84211262D01*
X16487189Y-84253723D01*
X16439150Y-84273982D01*
X16382184Y-84279154D01*
X16298471Y-84279154D01*
X16320552Y-84220654D01*
X16346364Y-84178006D01*
X16406928Y-84140936D01*
X16426320Y-84133197D01*
X16481235Y-84089926D01*
X16508879Y-84031024D01*
X16506393Y-83966889D01*
X16470923Y-83907923D01*
X16448805Y-83887658D01*
X16415436Y-83869280D01*
X16385117Y-83875029D01*
X16353913Y-83908113D01*
X16317887Y-83971739D01*
X16273103Y-84069115D01*
X16185445Y-84269385D01*
X16098607Y-84274699D01*
X16033663Y-84272353D01*
X15951590Y-84242814D01*
X15906361Y-84205528D01*
X15855838Y-84128224D01*
X15830316Y-84036522D01*
X15830490Y-84028360D01*
X15962721Y-84028360D01*
X15993339Y-84098960D01*
X16008648Y-84118526D01*
X16043296Y-84142217D01*
X16077538Y-84132312D01*
X16114096Y-84087244D01*
X16155692Y-84005443D01*
X16161718Y-83991908D01*
X16189753Y-83927182D01*
X16209472Y-83878753D01*
X16216923Y-83856249D01*
X16211438Y-83852839D01*
X16177948Y-83851471D01*
X16124116Y-83856349D01*
X16071473Y-83868636D01*
X16005151Y-83906959D01*
X15967780Y-83962280D01*
X15962721Y-84028360D01*
X15830490Y-84028360D01*
X15832336Y-83941726D01*
X15864440Y-83855141D01*
X15876767Y-83836080D01*
X15914912Y-83792360D01*
X15963167Y-83762460D01*
X16028710Y-83744032D01*
X16118720Y-83734730D01*
X16177948Y-83733501D01*
X16240376Y-83732206D01*
X16292449Y-83732587D01*
G37*
X16292449Y-83732587D02*
X16395047Y-83737359D01*
X16470126Y-83749850D01*
X16525748Y-83772879D01*
X16569975Y-83809268D01*
X16610869Y-83861838D01*
X16629466Y-83895286D01*
X16641991Y-83948902D01*
X16641003Y-84024220D01*
X16637035Y-84066328D01*
X16624920Y-84117121D01*
X16598585Y-84157720D01*
X16549514Y-84204951D01*
X16542346Y-84211262D01*
X16487189Y-84253723D01*
X16439150Y-84273982D01*
X16382184Y-84279154D01*
X16298471Y-84279154D01*
X16320552Y-84220654D01*
X16346364Y-84178006D01*
X16406928Y-84140936D01*
X16426320Y-84133197D01*
X16481235Y-84089926D01*
X16508879Y-84031024D01*
X16506393Y-83966889D01*
X16470923Y-83907923D01*
X16448805Y-83887658D01*
X16415436Y-83869280D01*
X16385117Y-83875029D01*
X16353913Y-83908113D01*
X16317887Y-83971739D01*
X16273103Y-84069115D01*
X16185445Y-84269385D01*
X16098607Y-84274699D01*
X16033663Y-84272353D01*
X15951590Y-84242814D01*
X15906361Y-84205528D01*
X15855838Y-84128224D01*
X15830316Y-84036522D01*
X15830490Y-84028360D01*
X15962721Y-84028360D01*
X15993339Y-84098960D01*
X16008648Y-84118526D01*
X16043296Y-84142217D01*
X16077538Y-84132312D01*
X16114096Y-84087244D01*
X16155692Y-84005443D01*
X16161718Y-83991908D01*
X16189753Y-83927182D01*
X16209472Y-83878753D01*
X16216923Y-83856249D01*
X16211438Y-83852839D01*
X16177948Y-83851471D01*
X16124116Y-83856349D01*
X16071473Y-83868636D01*
X16005151Y-83906959D01*
X15967780Y-83962280D01*
X15962721Y-84028360D01*
X15830490Y-84028360D01*
X15832336Y-83941726D01*
X15864440Y-83855141D01*
X15876767Y-83836080D01*
X15914912Y-83792360D01*
X15963167Y-83762460D01*
X16028710Y-83744032D01*
X16118720Y-83734730D01*
X16177948Y-83733501D01*
X16240376Y-83732206D01*
X16292449Y-83732587D01*
G36*
X16646738Y-77782697D02*
G01*
X16628787Y-77829754D01*
X16611511Y-77864985D01*
X16589242Y-77887983D01*
X16555165Y-77901345D01*
X16502463Y-77907672D01*
X16424323Y-77909563D01*
X16313928Y-77909615D01*
X16225935Y-77909883D01*
X16141502Y-77911479D01*
X16083834Y-77915288D01*
X16045988Y-77922180D01*
X16021024Y-77933025D01*
X16002000Y-77948692D01*
X15975153Y-77987208D01*
X15965034Y-78051909D01*
X15990606Y-78115919D01*
X15993880Y-78120144D01*
X16009007Y-78133311D01*
X16033268Y-78143025D01*
X16072650Y-78150097D01*
X16133141Y-78155344D01*
X16220729Y-78159579D01*
X16341402Y-78163615D01*
X16664515Y-78173385D01*
X16590065Y-78339461D01*
X16295062Y-78339461D01*
X16214919Y-78339117D01*
X16103431Y-78336153D01*
X16020421Y-78328649D01*
X15959199Y-78314810D01*
X15913075Y-78292845D01*
X15875358Y-78260961D01*
X15839358Y-78217367D01*
X15803089Y-78154664D01*
X15779412Y-78055883D01*
X15789684Y-77956628D01*
X15832569Y-77865371D01*
X15906729Y-77790584D01*
X15929944Y-77775083D01*
X15956256Y-77762226D01*
X15989420Y-77753107D01*
X16035881Y-77746898D01*
X16102082Y-77742767D01*
X16194468Y-77739884D01*
X16319485Y-77737421D01*
X16666278Y-77731303D01*
X16646738Y-77782697D01*
G37*
X16646738Y-77782697D02*
X16628787Y-77829754D01*
X16611511Y-77864985D01*
X16589242Y-77887983D01*
X16555165Y-77901345D01*
X16502463Y-77907672D01*
X16424323Y-77909563D01*
X16313928Y-77909615D01*
X16225935Y-77909883D01*
X16141502Y-77911479D01*
X16083834Y-77915288D01*
X16045988Y-77922180D01*
X16021024Y-77933025D01*
X16002000Y-77948692D01*
X15975153Y-77987208D01*
X15965034Y-78051909D01*
X15990606Y-78115919D01*
X15993880Y-78120144D01*
X16009007Y-78133311D01*
X16033268Y-78143025D01*
X16072650Y-78150097D01*
X16133141Y-78155344D01*
X16220729Y-78159579D01*
X16341402Y-78163615D01*
X16664515Y-78173385D01*
X16590065Y-78339461D01*
X16295062Y-78339461D01*
X16214919Y-78339117D01*
X16103431Y-78336153D01*
X16020421Y-78328649D01*
X15959199Y-78314810D01*
X15913075Y-78292845D01*
X15875358Y-78260961D01*
X15839358Y-78217367D01*
X15803089Y-78154664D01*
X15779412Y-78055883D01*
X15789684Y-77956628D01*
X15832569Y-77865371D01*
X15906729Y-77790584D01*
X15929944Y-77775083D01*
X15956256Y-77762226D01*
X15989420Y-77753107D01*
X16035881Y-77746898D01*
X16102082Y-77742767D01*
X16194468Y-77739884D01*
X16319485Y-77737421D01*
X16666278Y-77731303D01*
X16646738Y-77782697D01*
G36*
X13030091Y-76898500D02*
G01*
X13032518Y-76910908D01*
X13045088Y-76976801D01*
X13062170Y-77067916D01*
X13081829Y-77173896D01*
X13102132Y-77284385D01*
X13110299Y-77327895D01*
X13130167Y-77425118D01*
X13148954Y-77506142D01*
X13164859Y-77563523D01*
X13176079Y-77589813D01*
X13194411Y-77601727D01*
X13242916Y-77623417D01*
X13305692Y-77645605D01*
X13329200Y-77653415D01*
X13406366Y-77682165D01*
X13497694Y-77719248D01*
X13588093Y-77758625D01*
X13635310Y-77779685D01*
X13705837Y-77809689D01*
X13758655Y-77830308D01*
X13784912Y-77837974D01*
X13786894Y-77837548D01*
X13814751Y-77823007D01*
X13868510Y-77790217D01*
X13942963Y-77742507D01*
X14032897Y-77683202D01*
X14133104Y-77615631D01*
X14459416Y-77393287D01*
X14752016Y-77685399D01*
X14780171Y-77713651D01*
X14864449Y-77800039D01*
X14937128Y-77877244D01*
X14994112Y-77940742D01*
X15031307Y-77986010D01*
X15044616Y-78008526D01*
X15034490Y-78032977D01*
X15005421Y-78084181D01*
X14960896Y-78156253D01*
X14904411Y-78243540D01*
X14839462Y-78340388D01*
X14775314Y-78435514D01*
X14718827Y-78521331D01*
X14674184Y-78591348D01*
X14644855Y-78640124D01*
X14634308Y-78662217D01*
X14634404Y-78663512D01*
X14644802Y-78692861D01*
X14669012Y-78744907D01*
X14702249Y-78809292D01*
X14702613Y-78809968D01*
X14745441Y-78895479D01*
X14766365Y-78954074D01*
X14766423Y-78990429D01*
X14746654Y-79009225D01*
X14727195Y-79017181D01*
X14675080Y-79038653D01*
X14594964Y-79071727D01*
X14491107Y-79114644D01*
X14367767Y-79165644D01*
X14229201Y-79222967D01*
X14079670Y-79284854D01*
X13943636Y-79340948D01*
X13804050Y-79398023D01*
X13679315Y-79448521D01*
X13573672Y-79490746D01*
X13491365Y-79523005D01*
X13436635Y-79543603D01*
X13413726Y-79550846D01*
X13392718Y-79537014D01*
X13357642Y-79498588D01*
X13316887Y-79444193D01*
X13210267Y-79313605D01*
X13074025Y-79196740D01*
X12924118Y-79111220D01*
X12764971Y-79057569D01*
X12601012Y-79036316D01*
X12436667Y-79047986D01*
X12276361Y-79093106D01*
X12124520Y-79172203D01*
X11985572Y-79285803D01*
X11931460Y-79345035D01*
X11835782Y-79486946D01*
X11773405Y-79638794D01*
X11742844Y-79796139D01*
X11742615Y-79954544D01*
X11771232Y-80109571D01*
X11827210Y-80256780D01*
X11909064Y-80391734D01*
X12015309Y-80509995D01*
X12144459Y-80607123D01*
X12295031Y-80678682D01*
X12465539Y-80720231D01*
X12547722Y-80727857D01*
X12725775Y-80717366D01*
X12894704Y-80670118D01*
X13051522Y-80587511D01*
X13193245Y-80470941D01*
X13316887Y-80321807D01*
X13355982Y-80269439D01*
X13391443Y-80230168D01*
X13413692Y-80215154D01*
X13433088Y-80221141D01*
X13485059Y-80240568D01*
X13565002Y-80271806D01*
X13668673Y-80313161D01*
X13791832Y-80362939D01*
X13930234Y-80419447D01*
X14079637Y-80480991D01*
X14215020Y-80536992D01*
X14354852Y-80594816D01*
X14479872Y-80646500D01*
X14585822Y-80690282D01*
X14668441Y-80724403D01*
X14723472Y-80747102D01*
X14746654Y-80756620D01*
X14746928Y-80756731D01*
X14766503Y-80775772D01*
X14766279Y-80812306D01*
X14745210Y-80871046D01*
X14702249Y-80956708D01*
X14698631Y-80963451D01*
X14666087Y-81027062D01*
X14643050Y-81077293D01*
X14634308Y-81103782D01*
X14644639Y-81125494D01*
X14673788Y-81174016D01*
X14718287Y-81243837D01*
X14774668Y-81329516D01*
X14839462Y-81425612D01*
X14902984Y-81520294D01*
X14959705Y-81607868D01*
X15004547Y-81680358D01*
X15034016Y-81732111D01*
X15044616Y-81757474D01*
X15043270Y-81761794D01*
X15022056Y-81791908D01*
X14978237Y-81843360D01*
X14915909Y-81911625D01*
X14839170Y-81992180D01*
X14752116Y-82080500D01*
X14459617Y-82372512D01*
X13790525Y-81917640D01*
X13640916Y-81986792D01*
X13640473Y-81986997D01*
X13545101Y-82028523D01*
X13438896Y-82070956D01*
X13344769Y-82105142D01*
X13329588Y-82110316D01*
X13259109Y-82136399D01*
X13204342Y-82159919D01*
X13176079Y-82176323D01*
X13172088Y-82183004D01*
X13158697Y-82223108D01*
X13141373Y-82291205D01*
X13121917Y-82379855D01*
X13102132Y-82481615D01*
X13096551Y-82512096D01*
X13076233Y-82622372D01*
X13057095Y-82725269D01*
X13041070Y-82810431D01*
X13030091Y-82867500D01*
X13009845Y-82970077D01*
X12582701Y-82970077D01*
X12530180Y-82970054D01*
X12402047Y-82969621D01*
X12306420Y-82968341D01*
X12238411Y-82965832D01*
X12193133Y-82961714D01*
X12165697Y-82955605D01*
X12151218Y-82947122D01*
X12144807Y-82935885D01*
X12142209Y-82925006D01*
X12133022Y-82880653D01*
X12118991Y-82809894D01*
X12101486Y-82719926D01*
X12081874Y-82617944D01*
X12061525Y-82511143D01*
X12041807Y-82406719D01*
X12024089Y-82311868D01*
X12009738Y-82233786D01*
X12000124Y-82179668D01*
X11996616Y-82156709D01*
X11994497Y-82155158D01*
X11967006Y-82142675D01*
X11914406Y-82121073D01*
X11845192Y-82093877D01*
X11751937Y-82056134D01*
X11644159Y-82009672D01*
X11549172Y-81966122D01*
X11527851Y-81956142D01*
X11461086Y-81928138D01*
X11409590Y-81911359D01*
X11383095Y-81909146D01*
X11381218Y-81910287D01*
X11353565Y-81928416D01*
X11299849Y-81964356D01*
X11225303Y-82014582D01*
X11135162Y-82075570D01*
X11034657Y-82143795D01*
X10920470Y-82220670D01*
X10831770Y-82278337D01*
X10766721Y-82317574D01*
X10721295Y-82340650D01*
X10691463Y-82349834D01*
X10673195Y-82347396D01*
X10671825Y-82346576D01*
X10645205Y-82324523D01*
X10596697Y-82279564D01*
X10531108Y-82216327D01*
X10453247Y-82139441D01*
X10367922Y-82053535D01*
X10281334Y-81964421D01*
X10199947Y-81877128D01*
X10145035Y-81812982D01*
X10115190Y-81770321D01*
X10109004Y-81747479D01*
X10110394Y-81744495D01*
X10129127Y-81713064D01*
X10165733Y-81656003D01*
X10216697Y-81578657D01*
X10278504Y-81486374D01*
X10347639Y-81384498D01*
X10574420Y-81052407D01*
X10506353Y-80902434D01*
X10504381Y-80898077D01*
X10464491Y-80806000D01*
X10424818Y-80708317D01*
X10393674Y-80625461D01*
X10393545Y-80625095D01*
X10369456Y-80559315D01*
X10349110Y-80508677D01*
X10336901Y-80484116D01*
X10336458Y-80483718D01*
X10311456Y-80475381D01*
X10254598Y-80461659D01*
X10172014Y-80443877D01*
X10069831Y-80423359D01*
X9954178Y-80401429D01*
X9950033Y-80400664D01*
X9832019Y-80378771D01*
X9725151Y-80358719D01*
X9636252Y-80341808D01*
X9572145Y-80329333D01*
X9539654Y-80322594D01*
X9537853Y-80322163D01*
X9523944Y-80317727D01*
X9513489Y-80308737D01*
X9505996Y-80290263D01*
X9500972Y-80257372D01*
X9497922Y-80205132D01*
X9496355Y-80128612D01*
X9495776Y-80022878D01*
X9495692Y-79883000D01*
X9495693Y-79865425D01*
X9495807Y-79729629D01*
X9496472Y-79627424D01*
X9498182Y-79553878D01*
X9501429Y-79504058D01*
X9506706Y-79473033D01*
X9514507Y-79455871D01*
X9525325Y-79447639D01*
X9539654Y-79443406D01*
X9540168Y-79443284D01*
X9573851Y-79436328D01*
X9638917Y-79423680D01*
X9728542Y-79406640D01*
X9835904Y-79386504D01*
X9954178Y-79364571D01*
X9963856Y-79362782D01*
X10078650Y-79340917D01*
X10179480Y-79320570D01*
X10260217Y-79303066D01*
X10314734Y-79289729D01*
X10336901Y-79281884D01*
X10336936Y-79281842D01*
X10349200Y-79257116D01*
X10369576Y-79206369D01*
X10393674Y-79140538D01*
X10394983Y-79136831D01*
X10426791Y-79052669D01*
X10466685Y-78954770D01*
X10506353Y-78863565D01*
X10574420Y-78713593D01*
X10347639Y-78381501D01*
X10331688Y-78358111D01*
X10263890Y-78257920D01*
X10204208Y-78168520D01*
X10156156Y-78095255D01*
X10123250Y-78043473D01*
X10109004Y-78018520D01*
X10112270Y-78001423D01*
X10137571Y-77962605D01*
X10187675Y-77902615D01*
X10263989Y-77819790D01*
X10367922Y-77712465D01*
X10377382Y-77702861D01*
X10462145Y-77617698D01*
X10538937Y-77542051D01*
X10602947Y-77480551D01*
X10649361Y-77437827D01*
X10673369Y-77418511D01*
X10673485Y-77418448D01*
X10691763Y-77415994D01*
X10721411Y-77425044D01*
X10766486Y-77447881D01*
X10831044Y-77486787D01*
X10919140Y-77544046D01*
X11034830Y-77621941D01*
X11054357Y-77635215D01*
X11153278Y-77702348D01*
X11240848Y-77761590D01*
X11311831Y-77809412D01*
X11360991Y-77842285D01*
X11383095Y-77856682D01*
X11387777Y-77857768D01*
X11422710Y-77850956D01*
X11479753Y-77830550D01*
X11549172Y-77799877D01*
X11639959Y-77758192D01*
X11747686Y-77711648D01*
X11845192Y-77672123D01*
X11870430Y-77662324D01*
X11934870Y-77636660D01*
X11979763Y-77617807D01*
X11996616Y-77609290D01*
X11997875Y-77599889D01*
X12005159Y-77557637D01*
X12017739Y-77488479D01*
X12034246Y-77399613D01*
X12053312Y-77298232D01*
X12073569Y-77191533D01*
X12093647Y-77086712D01*
X12112179Y-76990964D01*
X12127795Y-76911484D01*
X12139127Y-76855470D01*
X12144807Y-76830115D01*
X12146408Y-76825912D01*
X12155045Y-76815666D01*
X12173433Y-76808043D01*
X12206460Y-76802662D01*
X12259013Y-76799141D01*
X12335979Y-76797099D01*
X12442246Y-76796153D01*
X12582701Y-76795923D01*
X13009845Y-76795923D01*
X13030091Y-76898500D01*
G37*
X13030091Y-76898500D02*
X13032518Y-76910908D01*
X13045088Y-76976801D01*
X13062170Y-77067916D01*
X13081829Y-77173896D01*
X13102132Y-77284385D01*
X13110299Y-77327895D01*
X13130167Y-77425118D01*
X13148954Y-77506142D01*
X13164859Y-77563523D01*
X13176079Y-77589813D01*
X13194411Y-77601727D01*
X13242916Y-77623417D01*
X13305692Y-77645605D01*
X13329200Y-77653415D01*
X13406366Y-77682165D01*
X13497694Y-77719248D01*
X13588093Y-77758625D01*
X13635310Y-77779685D01*
X13705837Y-77809689D01*
X13758655Y-77830308D01*
X13784912Y-77837974D01*
X13786894Y-77837548D01*
X13814751Y-77823007D01*
X13868510Y-77790217D01*
X13942963Y-77742507D01*
X14032897Y-77683202D01*
X14133104Y-77615631D01*
X14459416Y-77393287D01*
X14752016Y-77685399D01*
X14780171Y-77713651D01*
X14864449Y-77800039D01*
X14937128Y-77877244D01*
X14994112Y-77940742D01*
X15031307Y-77986010D01*
X15044616Y-78008526D01*
X15034490Y-78032977D01*
X15005421Y-78084181D01*
X14960896Y-78156253D01*
X14904411Y-78243540D01*
X14839462Y-78340388D01*
X14775314Y-78435514D01*
X14718827Y-78521331D01*
X14674184Y-78591348D01*
X14644855Y-78640124D01*
X14634308Y-78662217D01*
X14634404Y-78663512D01*
X14644802Y-78692861D01*
X14669012Y-78744907D01*
X14702249Y-78809292D01*
X14702613Y-78809968D01*
X14745441Y-78895479D01*
X14766365Y-78954074D01*
X14766423Y-78990429D01*
X14746654Y-79009225D01*
X14727195Y-79017181D01*
X14675080Y-79038653D01*
X14594964Y-79071727D01*
X14491107Y-79114644D01*
X14367767Y-79165644D01*
X14229201Y-79222967D01*
X14079670Y-79284854D01*
X13943636Y-79340948D01*
X13804050Y-79398023D01*
X13679315Y-79448521D01*
X13573672Y-79490746D01*
X13491365Y-79523005D01*
X13436635Y-79543603D01*
X13413726Y-79550846D01*
X13392718Y-79537014D01*
X13357642Y-79498588D01*
X13316887Y-79444193D01*
X13210267Y-79313605D01*
X13074025Y-79196740D01*
X12924118Y-79111220D01*
X12764971Y-79057569D01*
X12601012Y-79036316D01*
X12436667Y-79047986D01*
X12276361Y-79093106D01*
X12124520Y-79172203D01*
X11985572Y-79285803D01*
X11931460Y-79345035D01*
X11835782Y-79486946D01*
X11773405Y-79638794D01*
X11742844Y-79796139D01*
X11742615Y-79954544D01*
X11771232Y-80109571D01*
X11827210Y-80256780D01*
X11909064Y-80391734D01*
X12015309Y-80509995D01*
X12144459Y-80607123D01*
X12295031Y-80678682D01*
X12465539Y-80720231D01*
X12547722Y-80727857D01*
X12725775Y-80717366D01*
X12894704Y-80670118D01*
X13051522Y-80587511D01*
X13193245Y-80470941D01*
X13316887Y-80321807D01*
X13355982Y-80269439D01*
X13391443Y-80230168D01*
X13413692Y-80215154D01*
X13433088Y-80221141D01*
X13485059Y-80240568D01*
X13565002Y-80271806D01*
X13668673Y-80313161D01*
X13791832Y-80362939D01*
X13930234Y-80419447D01*
X14079637Y-80480991D01*
X14215020Y-80536992D01*
X14354852Y-80594816D01*
X14479872Y-80646500D01*
X14585822Y-80690282D01*
X14668441Y-80724403D01*
X14723472Y-80747102D01*
X14746654Y-80756620D01*
X14746928Y-80756731D01*
X14766503Y-80775772D01*
X14766279Y-80812306D01*
X14745210Y-80871046D01*
X14702249Y-80956708D01*
X14698631Y-80963451D01*
X14666087Y-81027062D01*
X14643050Y-81077293D01*
X14634308Y-81103782D01*
X14644639Y-81125494D01*
X14673788Y-81174016D01*
X14718287Y-81243837D01*
X14774668Y-81329516D01*
X14839462Y-81425612D01*
X14902984Y-81520294D01*
X14959705Y-81607868D01*
X15004547Y-81680358D01*
X15034016Y-81732111D01*
X15044616Y-81757474D01*
X15043270Y-81761794D01*
X15022056Y-81791908D01*
X14978237Y-81843360D01*
X14915909Y-81911625D01*
X14839170Y-81992180D01*
X14752116Y-82080500D01*
X14459617Y-82372512D01*
X13790525Y-81917640D01*
X13640916Y-81986792D01*
X13640473Y-81986997D01*
X13545101Y-82028523D01*
X13438896Y-82070956D01*
X13344769Y-82105142D01*
X13329588Y-82110316D01*
X13259109Y-82136399D01*
X13204342Y-82159919D01*
X13176079Y-82176323D01*
X13172088Y-82183004D01*
X13158697Y-82223108D01*
X13141373Y-82291205D01*
X13121917Y-82379855D01*
X13102132Y-82481615D01*
X13096551Y-82512096D01*
X13076233Y-82622372D01*
X13057095Y-82725269D01*
X13041070Y-82810431D01*
X13030091Y-82867500D01*
X13009845Y-82970077D01*
X12582701Y-82970077D01*
X12530180Y-82970054D01*
X12402047Y-82969621D01*
X12306420Y-82968341D01*
X12238411Y-82965832D01*
X12193133Y-82961714D01*
X12165697Y-82955605D01*
X12151218Y-82947122D01*
X12144807Y-82935885D01*
X12142209Y-82925006D01*
X12133022Y-82880653D01*
X12118991Y-82809894D01*
X12101486Y-82719926D01*
X12081874Y-82617944D01*
X12061525Y-82511143D01*
X12041807Y-82406719D01*
X12024089Y-82311868D01*
X12009738Y-82233786D01*
X12000124Y-82179668D01*
X11996616Y-82156709D01*
X11994497Y-82155158D01*
X11967006Y-82142675D01*
X11914406Y-82121073D01*
X11845192Y-82093877D01*
X11751937Y-82056134D01*
X11644159Y-82009672D01*
X11549172Y-81966122D01*
X11527851Y-81956142D01*
X11461086Y-81928138D01*
X11409590Y-81911359D01*
X11383095Y-81909146D01*
X11381218Y-81910287D01*
X11353565Y-81928416D01*
X11299849Y-81964356D01*
X11225303Y-82014582D01*
X11135162Y-82075570D01*
X11034657Y-82143795D01*
X10920470Y-82220670D01*
X10831770Y-82278337D01*
X10766721Y-82317574D01*
X10721295Y-82340650D01*
X10691463Y-82349834D01*
X10673195Y-82347396D01*
X10671825Y-82346576D01*
X10645205Y-82324523D01*
X10596697Y-82279564D01*
X10531108Y-82216327D01*
X10453247Y-82139441D01*
X10367922Y-82053535D01*
X10281334Y-81964421D01*
X10199947Y-81877128D01*
X10145035Y-81812982D01*
X10115190Y-81770321D01*
X10109004Y-81747479D01*
X10110394Y-81744495D01*
X10129127Y-81713064D01*
X10165733Y-81656003D01*
X10216697Y-81578657D01*
X10278504Y-81486374D01*
X10347639Y-81384498D01*
X10574420Y-81052407D01*
X10506353Y-80902434D01*
X10504381Y-80898077D01*
X10464491Y-80806000D01*
X10424818Y-80708317D01*
X10393674Y-80625461D01*
X10393545Y-80625095D01*
X10369456Y-80559315D01*
X10349110Y-80508677D01*
X10336901Y-80484116D01*
X10336458Y-80483718D01*
X10311456Y-80475381D01*
X10254598Y-80461659D01*
X10172014Y-80443877D01*
X10069831Y-80423359D01*
X9954178Y-80401429D01*
X9950033Y-80400664D01*
X9832019Y-80378771D01*
X9725151Y-80358719D01*
X9636252Y-80341808D01*
X9572145Y-80329333D01*
X9539654Y-80322594D01*
X9537853Y-80322163D01*
X9523944Y-80317727D01*
X9513489Y-80308737D01*
X9505996Y-80290263D01*
X9500972Y-80257372D01*
X9497922Y-80205132D01*
X9496355Y-80128612D01*
X9495776Y-80022878D01*
X9495692Y-79883000D01*
X9495693Y-79865425D01*
X9495807Y-79729629D01*
X9496472Y-79627424D01*
X9498182Y-79553878D01*
X9501429Y-79504058D01*
X9506706Y-79473033D01*
X9514507Y-79455871D01*
X9525325Y-79447639D01*
X9539654Y-79443406D01*
X9540168Y-79443284D01*
X9573851Y-79436328D01*
X9638917Y-79423680D01*
X9728542Y-79406640D01*
X9835904Y-79386504D01*
X9954178Y-79364571D01*
X9963856Y-79362782D01*
X10078650Y-79340917D01*
X10179480Y-79320570D01*
X10260217Y-79303066D01*
X10314734Y-79289729D01*
X10336901Y-79281884D01*
X10336936Y-79281842D01*
X10349200Y-79257116D01*
X10369576Y-79206369D01*
X10393674Y-79140538D01*
X10394983Y-79136831D01*
X10426791Y-79052669D01*
X10466685Y-78954770D01*
X10506353Y-78863565D01*
X10574420Y-78713593D01*
X10347639Y-78381501D01*
X10331688Y-78358111D01*
X10263890Y-78257920D01*
X10204208Y-78168520D01*
X10156156Y-78095255D01*
X10123250Y-78043473D01*
X10109004Y-78018520D01*
X10112270Y-78001423D01*
X10137571Y-77962605D01*
X10187675Y-77902615D01*
X10263989Y-77819790D01*
X10367922Y-77712465D01*
X10377382Y-77702861D01*
X10462145Y-77617698D01*
X10538937Y-77542051D01*
X10602947Y-77480551D01*
X10649361Y-77437827D01*
X10673369Y-77418511D01*
X10673485Y-77418448D01*
X10691763Y-77415994D01*
X10721411Y-77425044D01*
X10766486Y-77447881D01*
X10831044Y-77486787D01*
X10919140Y-77544046D01*
X11034830Y-77621941D01*
X11054357Y-77635215D01*
X11153278Y-77702348D01*
X11240848Y-77761590D01*
X11311831Y-77809412D01*
X11360991Y-77842285D01*
X11383095Y-77856682D01*
X11387777Y-77857768D01*
X11422710Y-77850956D01*
X11479753Y-77830550D01*
X11549172Y-77799877D01*
X11639959Y-77758192D01*
X11747686Y-77711648D01*
X11845192Y-77672123D01*
X11870430Y-77662324D01*
X11934870Y-77636660D01*
X11979763Y-77617807D01*
X11996616Y-77609290D01*
X11997875Y-77599889D01*
X12005159Y-77557637D01*
X12017739Y-77488479D01*
X12034246Y-77399613D01*
X12053312Y-77298232D01*
X12073569Y-77191533D01*
X12093647Y-77086712D01*
X12112179Y-76990964D01*
X12127795Y-76911484D01*
X12139127Y-76855470D01*
X12144807Y-76830115D01*
X12146408Y-76825912D01*
X12155045Y-76815666D01*
X12173433Y-76808043D01*
X12206460Y-76802662D01*
X12259013Y-76799141D01*
X12335979Y-76797099D01*
X12442246Y-76796153D01*
X12582701Y-76795923D01*
X13009845Y-76795923D01*
X13030091Y-76898500D01*
%TD*%
M02*
