M48
; DRILL file {KiCad (6.0.6)} date Sun 14 Aug 2022 16:56:34
; FORMAT={-:-/ absolute / inch / decimal}
; #@! TF.CreationDate,2022-08-14T16:56:34+02:00
; #@! TF.GenerationSoftware,Kicad,Pcbnew,(6.0.6)
; #@! TF.FileFunction,Plated,1,4,PTH
FMAT,2
INCH
; #@! TA.AperFunction,Plated,PTH,ComponentDrill
T1C0.0118
; #@! TA.AperFunction,Plated,PTH,ViaDrill
T2C0.0157
; #@! TA.AperFunction,Plated,PTH,ComponentDrill
T3C0.0197
; #@! TA.AperFunction,Plated,PTH,ComponentDrill
T4C0.0354
; #@! TA.AperFunction,Plated,PTH,ComponentDrill
T5C0.0394
; #@! TA.AperFunction,Plated,PTH,ComponentDrill
T6C0.1260
%
G90
G05
T1
X0.1545Y-2.0803
X0.1545Y-2.1197
X0.1545Y-2.1591
X0.1939Y-2.0803
X0.1939Y-2.1197
X0.1939Y-2.1591
X0.2333Y-2.0803
X0.2333Y-2.1197
X0.2333Y-2.1591
T2
X-0.675Y-4.28
X-0.625Y-0.57
X-0.625Y-2.195
X-0.62Y-1.115
X-0.62Y-1.65
X-0.57Y-2.585
X-0.56Y-0.44
X-0.56Y-0.98
X-0.56Y-1.52
X-0.56Y-2.06
X-0.54Y-3.145
X-0.515Y-1.43
X-0.515Y-1.975
X-0.435Y-0.5
X-0.42Y-2.66
X-0.42Y-3.2
X-0.42Y-3.74
X-0.4Y-4.28
X-0.185Y-2.72
X-0.16Y-0.645
X-0.13Y-3.245
X-0.125Y-3.69
X-0.12Y-2.06
X-0.118Y-4.186
X-0.11Y-2.715
X-0.1Y-1.51
X-0.08Y-2.48
X-0.075Y-0.61
X-0.055Y-3.24
X-0.055Y-3.395
X-0.04Y-3.75
X-0.035Y-1.045
X-0.03Y-0.435
X-0.0289Y-2.7673
X0.0038Y-2.79
X0.013Y-3.973
X0.017Y-3.853
X0.0215Y-3.0859
X0.03Y-1.42
X0.035Y-0.28
X0.035Y-3.25
X0.0454Y-2.0315
X0.048Y-3.1833
X0.0497Y-2.0707
X0.0498Y-2.1502
X0.05Y-2.11
X0.0507Y-2.5023
X0.0548Y-3.2852
X0.06Y-1.48
X0.0636Y-1.9162
X0.07Y-1.955
X0.0765Y-3.225
X0.08Y-1.78
X0.08Y-1.995
X0.085Y-0.315
X0.09Y-1.28
X0.095Y-2.505
X0.095Y-2.6498
X0.095Y-3.35
X0.11Y-2.805
X0.11Y-3.39
X0.1128Y-1.0578
X0.115Y-2.255
X0.12Y-2.7
X0.1343Y-3.2002
X0.1395Y-1.3395
X0.1396Y-0.8195
X0.14Y-0.2
X0.14Y-1.285
X0.14Y-1.6
X0.14Y-3.56
X0.145Y-0.15
X0.145Y-3.47
X0.1452Y-3.2842
X0.1497Y-1.4415
X0.15Y-0.545
X0.15Y-0.64
X0.15Y-2.895
X0.151Y-1.1906
X0.16Y-2.42
X0.163Y-1.9061
X0.165Y-1.055
X0.175Y-2.65
X0.18Y-0.583
X0.18Y-2.2885
X0.185Y-1.94
X0.19Y-1.185
X0.19Y-2.59
X0.1915Y-3.8195
X0.192Y-3.2417
X0.1921Y-2.8262
X0.1931Y-2.51
X0.1933Y-0.852
X0.2Y-0.98
X0.2Y-1.74
X0.2Y-3.48
X0.2Y-3.9479
X0.205Y-0.26
X0.205Y-0.405
X0.2239Y-0.5845
X0.225Y-1.415
X0.2257Y-2.9262
X0.2329Y-2.6754
X0.2347Y-1.5098
X0.235Y-2.51
X0.24Y-1.18
X0.24Y-1.3
X0.2457Y-3.4261
X0.2491Y-2.3939
X0.255Y-2.81
X0.2565Y-2.3509
X0.26Y-1.895
X0.26Y-3.56
X0.2629Y-0.26
X0.2629Y-0.46
X0.265Y-2.645
X0.265Y-3.22
X0.2694Y-1.42
X0.27Y-2.92
X0.2733Y-2.7158
X0.275Y-1.585
X0.2792Y-2.42
X0.28Y-1.66
X0.2902Y-3.4752
X0.295Y-0.215
X0.3Y-3.295
X0.305Y-3.35
X0.3094Y-2.9341
X0.3164Y-2.4329
X0.317Y-1.027
X0.335Y-0.59
X0.34Y-1.58
X0.35Y-1.965
X0.3515Y-2.9871
X0.355Y-3.1023
X0.3713Y-3.2679
X0.38Y-0.98
X0.38Y-3.4864
X0.385Y-3.595
X0.387Y-2.6901
X0.39Y-2.65
X0.3998Y-2.3594
X0.4Y-2.48
X0.41Y-3.275
X0.43Y-1.37
X0.43Y-1.865
X0.4348Y-2.8252
X0.44Y-2.26
X0.445Y-0.28
X0.4575Y-3.2403
X0.46Y-0.42
X0.46Y-0.6
X0.46Y-3.07
X0.4775Y-2.665
X0.48Y-3.02
X0.5Y-1.56
X0.5Y-3.435
X0.51Y-0.335
X0.52Y-2.9
X0.52Y-1.4001
X0.525Y-2.3
X0.53Y-3.595
X0.54Y-3.52
X0.56Y-1.96
X0.58Y-2.9
X0.58Y-3.02
X0.58Y-3.32
X0.6Y-1.935
X0.615Y-1.12
X0.62Y-1.82
X0.63Y-1.9
X0.655Y-1.27
X0.665Y-1.87
X0.695Y-1.345
X0.695Y-1.835
X0.7Y-3.32
X0.72Y-3.5
X0.73Y-1.51
X0.74Y-1.58
T3
X0.0895Y-4.178
X0.1172Y-4.1112
X0.1172Y-4.2448
X0.184Y-4.0835
X0.184Y-4.2725
X0.2508Y-4.1112
X0.2508Y-4.2448
X0.2785Y-4.178
X0.5255Y-0.16
X0.5532Y-0.0932
X0.5532Y-0.2268
X0.62Y-0.0655
X0.62Y-0.2545
X0.6868Y-0.0932
X0.6868Y-0.2268
X0.7145Y-0.16
T5
X0.575Y-2.25
X0.575Y-2.35
X0.575Y-2.45
X0.575Y-2.55
X0.575Y-2.65
X0.575Y-2.75
X0.575Y-3.6998
X0.575Y-3.7998
X0.575Y-3.8998
X0.575Y-3.9998
X0.575Y-4.0998
X0.675Y-2.25
X0.675Y-2.35
X0.675Y-2.45
X0.675Y-2.55
X0.675Y-2.65
X0.675Y-2.75
X0.675Y-3.6998
X0.675Y-3.7998
X0.675Y-3.8998
X0.675Y-3.9998
X0.675Y-4.0998
T6
X0.184Y-4.178
X0.62Y-0.16
T4
G00X-0.7075Y-0.1923
M15
G01X-0.7075Y-0.2593
M16
G05
G00X-0.7075Y-0.7334
M15
G01X-0.7075Y-0.8003
M16
G05
G00X-0.7075Y-1.2745
M15
G01X-0.7075Y-1.3414
M16
G05
G00X-0.7075Y-1.8155
M15
G01X-0.7075Y-1.8825
M16
G05
G00X-0.7075Y-2.3566
M15
G01X-0.7075Y-2.4235
M16
G05
G00X-0.7075Y-2.8977
M15
G01X-0.7075Y-2.9646
M16
G05
G00X-0.7075Y-3.4387
M15
G01X-0.7075Y-3.5057
M16
G05
G00X-0.7075Y-3.9798
M15
G01X-0.7075Y-4.0467
M16
G05
G00X-0.3079Y-0.4305
M15
G01X-0.2409Y-0.4305
M16
G05
G00X-0.3079Y-0.9716
M15
G01X-0.2409Y-0.9716
M16
G05
G00X-0.3079Y-1.5127
M15
G01X-0.2409Y-1.5127
M16
G05
G00X-0.3079Y-2.0537
M15
G01X-0.2409Y-2.0537
M16
G05
G00X-0.3079Y-2.5948
M15
G01X-0.2409Y-2.5948
M16
G05
G00X-0.3079Y-3.1359
M15
G01X-0.2409Y-3.1359
M16
G05
G00X-0.3079Y-3.6769
M15
G01X-0.2409Y-3.6769
M16
G05
G00X-0.3079Y-4.218
M15
G01X-0.2409Y-4.218
M16
G05
G00X-0.1878Y-0.1923
M15
G01X-0.1878Y-0.2593
M16
G05
G00X-0.1878Y-0.7334
M15
G01X-0.1878Y-0.8003
M16
G05
G00X-0.1878Y-1.2745
M15
G01X-0.1878Y-1.3414
M16
G05
G00X-0.1878Y-1.8155
M15
G01X-0.1878Y-1.8825
M16
G05
G00X-0.1878Y-2.3566
M15
G01X-0.1878Y-2.4235
M16
G05
G00X-0.1878Y-2.8977
M15
G01X-0.1878Y-2.9646
M16
G05
G00X-0.1878Y-3.4387
M15
G01X-0.1878Y-3.5057
M16
G05
G00X-0.1878Y-3.9798
M15
G01X-0.1878Y-4.0467
M16
G05
T0
M30
