%TF.GenerationSoftware,KiCad,Pcbnew,(6.0.6)*%
%TF.CreationDate,2022-08-14T16:56:23+02:00*%
%TF.ProjectId,eurorack-pmod-pcb,6575726f-7261-4636-9b2d-706d6f642d70,rev?*%
%TF.SameCoordinates,Original*%
%TF.FileFunction,Legend,Top*%
%TF.FilePolarity,Positive*%
%FSLAX46Y46*%
G04 Gerber Fmt 4.6, Leading zero omitted, Abs format (unit mm)*
G04 Created by KiCad (PCBNEW (6.0.6)) date 2022-08-14 16:56:23*
%MOMM*%
%LPD*%
G01*
G04 APERTURE LIST*
%ADD10C,0.150000*%
%ADD11C,0.250000*%
%ADD12C,0.375000*%
%ADD13C,0.120000*%
%ADD14C,0.200000*%
G04 APERTURE END LIST*
D10*
X13311223Y-58419999D02*
X18391223Y-58419999D01*
X18391223Y-58419999D02*
X18391223Y-60959999D01*
X18391223Y-60959999D02*
X13311223Y-60959999D01*
X13311223Y-60959999D02*
X13311223Y-58419999D01*
G36*
X13311223Y-58419999D02*
G01*
X18391223Y-58419999D01*
X18391223Y-60959999D01*
X13311223Y-60959999D01*
X13311223Y-58419999D01*
G37*
X13265000Y-95250000D02*
X18410000Y-95250000D01*
X18410000Y-95250000D02*
X18410000Y-102865000D01*
X18410000Y-102865000D02*
X13265000Y-102865000D01*
X13265000Y-102865000D02*
X13265000Y-95250000D01*
G36*
X13265000Y-95250000D02*
G01*
X18410000Y-95250000D01*
X18410000Y-102865000D01*
X13265000Y-102865000D01*
X13265000Y-95250000D01*
G37*
D11*
X12204175Y-105898129D02*
X12204175Y-105136224D01*
X12585127Y-104136224D02*
X12585127Y-104707653D01*
X12585127Y-104421938D02*
X11585127Y-104421938D01*
X11727985Y-104517176D01*
X11823223Y-104612415D01*
X11870842Y-104707653D01*
X11680366Y-103755272D02*
X11632747Y-103707653D01*
X11585127Y-103612415D01*
X11585127Y-103374319D01*
X11632747Y-103279081D01*
X11680366Y-103231462D01*
X11775604Y-103183843D01*
X11870842Y-103183843D01*
X12013699Y-103231462D01*
X12585127Y-103802891D01*
X12585127Y-103183843D01*
X16708380Y-24716428D02*
X16232190Y-25049761D01*
X16708380Y-25287857D02*
X15708380Y-25287857D01*
X15708380Y-24906904D01*
X15756000Y-24811666D01*
X15803619Y-24764047D01*
X15898857Y-24716428D01*
X16041714Y-24716428D01*
X16136952Y-24764047D01*
X16184571Y-24811666D01*
X16232190Y-24906904D01*
X16232190Y-25287857D01*
X16184571Y-24287857D02*
X16184571Y-23954523D01*
X16708380Y-23811666D02*
X16708380Y-24287857D01*
X15708380Y-24287857D01*
X15708380Y-23811666D01*
X15708380Y-23525952D02*
X16708380Y-23192619D01*
X15708380Y-22859285D01*
X15803619Y-21811666D02*
X15756000Y-21764047D01*
X15708380Y-21668809D01*
X15708380Y-21430714D01*
X15756000Y-21335476D01*
X15803619Y-21287857D01*
X15898857Y-21240238D01*
X15994095Y-21240238D01*
X16136952Y-21287857D01*
X16708380Y-21859285D01*
X16708380Y-21240238D01*
X16613142Y-20811666D02*
X16660761Y-20764047D01*
X16708380Y-20811666D01*
X16660761Y-20859285D01*
X16613142Y-20811666D01*
X16708380Y-20811666D01*
X16708380Y-19811666D02*
X16708380Y-20383095D01*
X16708380Y-20097380D02*
X15708380Y-20097380D01*
X15851238Y-20192619D01*
X15946476Y-20287857D01*
X15994095Y-20383095D01*
X15803619Y-18668809D02*
X15756000Y-18621190D01*
X15708380Y-18525952D01*
X15708380Y-18287857D01*
X15756000Y-18192619D01*
X15803619Y-18145000D01*
X15898857Y-18097380D01*
X15994095Y-18097380D01*
X16136952Y-18145000D01*
X16708380Y-18716428D01*
X16708380Y-18097380D01*
X15708380Y-17478333D02*
X15708380Y-17383095D01*
X15756000Y-17287857D01*
X15803619Y-17240238D01*
X15898857Y-17192619D01*
X16089333Y-17145000D01*
X16327428Y-17145000D01*
X16517904Y-17192619D01*
X16613142Y-17240238D01*
X16660761Y-17287857D01*
X16708380Y-17383095D01*
X16708380Y-17478333D01*
X16660761Y-17573571D01*
X16613142Y-17621190D01*
X16517904Y-17668809D01*
X16327428Y-17716428D01*
X16089333Y-17716428D01*
X15898857Y-17668809D01*
X15803619Y-17621190D01*
X15756000Y-17573571D01*
X15708380Y-17478333D01*
X15803619Y-16764047D02*
X15756000Y-16716428D01*
X15708380Y-16621190D01*
X15708380Y-16383095D01*
X15756000Y-16287857D01*
X15803619Y-16240238D01*
X15898857Y-16192619D01*
X15994095Y-16192619D01*
X16136952Y-16240238D01*
X16708380Y-16811666D01*
X16708380Y-16192619D01*
X15803619Y-15811666D02*
X15756000Y-15764047D01*
X15708380Y-15668809D01*
X15708380Y-15430714D01*
X15756000Y-15335476D01*
X15803619Y-15287857D01*
X15898857Y-15240238D01*
X15994095Y-15240238D01*
X16136952Y-15287857D01*
X16708380Y-15859285D01*
X16708380Y-15240238D01*
X16327428Y-14811666D02*
X16327428Y-14049761D01*
X15708380Y-13383095D02*
X15708380Y-13287857D01*
X15756000Y-13192619D01*
X15803619Y-13145000D01*
X15898857Y-13097380D01*
X16089333Y-13049761D01*
X16327428Y-13049761D01*
X16517904Y-13097380D01*
X16613142Y-13145000D01*
X16660761Y-13192619D01*
X16708380Y-13287857D01*
X16708380Y-13383095D01*
X16660761Y-13478333D01*
X16613142Y-13525952D01*
X16517904Y-13573571D01*
X16327428Y-13621190D01*
X16089333Y-13621190D01*
X15898857Y-13573571D01*
X15803619Y-13525952D01*
X15756000Y-13478333D01*
X15708380Y-13383095D01*
X15708380Y-12716428D02*
X15708380Y-12049761D01*
X16708380Y-12478333D01*
X16327428Y-11668809D02*
X16327428Y-10906904D01*
X15708380Y-10525952D02*
X15708380Y-9906904D01*
X16089333Y-10240238D01*
X16089333Y-10097380D01*
X16136952Y-10002142D01*
X16184571Y-9954523D01*
X16279809Y-9906904D01*
X16517904Y-9906904D01*
X16613142Y-9954523D01*
X16660761Y-10002142D01*
X16708380Y-10097380D01*
X16708380Y-10383095D01*
X16660761Y-10478333D01*
X16613142Y-10525952D01*
X15708380Y-9287857D02*
X15708380Y-9192619D01*
X15756000Y-9097380D01*
X15803619Y-9049761D01*
X15898857Y-9002142D01*
X16089333Y-8954523D01*
X16327428Y-8954523D01*
X16517904Y-9002142D01*
X16613142Y-9049761D01*
X16660761Y-9097380D01*
X16708380Y-9192619D01*
X16708380Y-9287857D01*
X16660761Y-9383095D01*
X16613142Y-9430714D01*
X16517904Y-9478333D01*
X16327428Y-9525952D01*
X16089333Y-9525952D01*
X15898857Y-9478333D01*
X15803619Y-9430714D01*
X15756000Y-9383095D01*
X15708380Y-9287857D01*
D12*
X11271787Y-100048684D02*
X11200358Y-100191541D01*
X11200358Y-100405827D01*
X11271787Y-100620112D01*
X11414644Y-100762969D01*
X11557501Y-100834398D01*
X11843215Y-100905827D01*
X12057501Y-100905827D01*
X12343215Y-100834398D01*
X12486072Y-100762969D01*
X12628929Y-100620112D01*
X12700358Y-100405827D01*
X12700358Y-100262969D01*
X12628929Y-100048684D01*
X12557501Y-99977255D01*
X12057501Y-99977255D01*
X12057501Y-100262969D01*
X12700358Y-99334398D02*
X11200358Y-99334398D01*
X12700358Y-98477255D01*
X11200358Y-98477255D01*
X12700358Y-97762969D02*
X11200358Y-97762969D01*
X11200358Y-97405827D01*
X11271787Y-97191541D01*
X11414644Y-97048684D01*
X11557501Y-96977255D01*
X11843215Y-96905827D01*
X12057501Y-96905827D01*
X12343215Y-96977255D01*
X12486072Y-97048684D01*
X12628929Y-97191541D01*
X12700358Y-97405827D01*
X12700358Y-97762969D01*
D11*
X10392293Y-56674450D02*
X11011341Y-56674450D01*
X10678008Y-57055403D01*
X10820865Y-57055403D01*
X10916103Y-57103022D01*
X10963722Y-57150641D01*
X11011341Y-57245879D01*
X11011341Y-57483974D01*
X10963722Y-57579212D01*
X10916103Y-57626831D01*
X10820865Y-57674450D01*
X10535150Y-57674450D01*
X10439912Y-57626831D01*
X10392293Y-57579212D01*
X11297055Y-56674450D02*
X11630389Y-57674450D01*
X11963722Y-56674450D01*
X12201817Y-56674450D02*
X12820865Y-56674450D01*
X12487531Y-57055403D01*
X12630389Y-57055403D01*
X12725627Y-57103022D01*
X12773246Y-57150641D01*
X12820865Y-57245879D01*
X12820865Y-57483974D01*
X12773246Y-57579212D01*
X12725627Y-57626831D01*
X12630389Y-57674450D01*
X12344674Y-57674450D01*
X12249436Y-57626831D01*
X12201817Y-57579212D01*
D12*
X13334285Y-106451000D02*
X14834285Y-106451000D01*
X14548571Y-108374571D02*
X14048571Y-107660285D01*
X13691428Y-108374571D02*
X13691428Y-106874571D01*
X14262857Y-106874571D01*
X14405714Y-106946000D01*
X14477142Y-107017428D01*
X14548571Y-107160285D01*
X14548571Y-107374571D01*
X14477142Y-107517428D01*
X14405714Y-107588857D01*
X14262857Y-107660285D01*
X13691428Y-107660285D01*
X14834285Y-106451000D02*
X16191428Y-106451000D01*
X15191428Y-107588857D02*
X15691428Y-107588857D01*
X15905714Y-108374571D02*
X15191428Y-108374571D01*
X15191428Y-106874571D01*
X15905714Y-106874571D01*
X16191428Y-106451000D02*
X17691428Y-106451000D01*
X16548571Y-108374571D02*
X16548571Y-106874571D01*
X16905714Y-106874571D01*
X17120000Y-106946000D01*
X17262857Y-107088857D01*
X17334285Y-107231714D01*
X17405714Y-107517428D01*
X17405714Y-107731714D01*
X17334285Y-108017428D01*
X17262857Y-108160285D01*
X17120000Y-108303142D01*
X16905714Y-108374571D01*
X16548571Y-108374571D01*
X17691428Y-106451000D02*
X18405714Y-106451000D01*
X18048571Y-108231714D02*
X18120000Y-108303142D01*
X18048571Y-108374571D01*
X17977142Y-108303142D01*
X18048571Y-108231714D01*
X18048571Y-108374571D01*
X18048571Y-107803142D02*
X17977142Y-106946000D01*
X18048571Y-106874571D01*
X18120000Y-106946000D01*
X18048571Y-107803142D01*
X18048571Y-106874571D01*
X12962285Y-54526571D02*
X12962285Y-53026571D01*
X13533714Y-53026571D01*
X13676571Y-53098000D01*
X13748000Y-53169428D01*
X13819428Y-53312285D01*
X13819428Y-53526571D01*
X13748000Y-53669428D01*
X13676571Y-53740857D01*
X13533714Y-53812285D01*
X12962285Y-53812285D01*
X14462285Y-54526571D02*
X14462285Y-53026571D01*
X14962285Y-54098000D01*
X15462285Y-53026571D01*
X15462285Y-54526571D01*
X16462285Y-53026571D02*
X16748000Y-53026571D01*
X16890857Y-53098000D01*
X17033714Y-53240857D01*
X17105142Y-53526571D01*
X17105142Y-54026571D01*
X17033714Y-54312285D01*
X16890857Y-54455142D01*
X16748000Y-54526571D01*
X16462285Y-54526571D01*
X16319428Y-54455142D01*
X16176571Y-54312285D01*
X16105142Y-54026571D01*
X16105142Y-53526571D01*
X16176571Y-53240857D01*
X16319428Y-53098000D01*
X16462285Y-53026571D01*
X17748000Y-54526571D02*
X17748000Y-53026571D01*
X18105142Y-53026571D01*
X18319428Y-53098000D01*
X18462285Y-53240857D01*
X18533714Y-53383714D01*
X18605142Y-53669428D01*
X18605142Y-53883714D01*
X18533714Y-54169428D01*
X18462285Y-54312285D01*
X18319428Y-54455142D01*
X18105142Y-54526571D01*
X17748000Y-54526571D01*
D11*
X12167189Y-95689793D02*
X12167189Y-94927888D01*
X12548141Y-95308840D02*
X11786237Y-95308840D01*
X12548141Y-93927888D02*
X12548141Y-94499317D01*
X12548141Y-94213602D02*
X11548141Y-94213602D01*
X11690999Y-94308840D01*
X11786237Y-94404079D01*
X11833856Y-94499317D01*
X11643380Y-93546936D02*
X11595761Y-93499317D01*
X11548141Y-93404079D01*
X11548141Y-93165983D01*
X11595761Y-93070745D01*
X11643380Y-93023126D01*
X11738618Y-92975507D01*
X11833856Y-92975507D01*
X11976713Y-93023126D01*
X12548141Y-93594555D01*
X12548141Y-92975507D01*
X10794510Y-59237168D02*
X10699272Y-59189548D01*
X10556415Y-59189548D01*
X10413557Y-59237168D01*
X10318319Y-59332406D01*
X10270700Y-59427644D01*
X10223081Y-59618120D01*
X10223081Y-59760977D01*
X10270700Y-59951453D01*
X10318319Y-60046691D01*
X10413557Y-60141929D01*
X10556415Y-60189548D01*
X10651653Y-60189548D01*
X10794510Y-60141929D01*
X10842129Y-60094310D01*
X10842129Y-59760977D01*
X10651653Y-59760977D01*
X11270700Y-60189548D02*
X11270700Y-59189548D01*
X11842129Y-60189548D01*
X11842129Y-59189548D01*
X12318319Y-60189548D02*
X12318319Y-59189548D01*
X12556415Y-59189548D01*
X12699272Y-59237168D01*
X12794510Y-59332406D01*
X12842129Y-59427644D01*
X12889748Y-59618120D01*
X12889748Y-59760977D01*
X12842129Y-59951453D01*
X12794510Y-60046691D01*
X12699272Y-60141929D01*
X12556415Y-60189548D01*
X12318319Y-60189548D01*
D10*
%TO.C,R5*%
X-166666Y-18707380D02*
X-500000Y-18231190D01*
X-738095Y-18707380D02*
X-738095Y-17707380D01*
X-357142Y-17707380D01*
X-261904Y-17755000D01*
X-214285Y-17802619D01*
X-166666Y-17897857D01*
X-166666Y-18040714D01*
X-214285Y-18135952D01*
X-261904Y-18183571D01*
X-357142Y-18231190D01*
X-738095Y-18231190D01*
X738095Y-17707380D02*
X261904Y-17707380D01*
X214285Y-18183571D01*
X261904Y-18135952D01*
X357142Y-18088333D01*
X595238Y-18088333D01*
X690476Y-18135952D01*
X738095Y-18183571D01*
X785714Y-18278809D01*
X785714Y-18516904D01*
X738095Y-18612142D01*
X690476Y-18659761D01*
X595238Y-18707380D01*
X357142Y-18707380D01*
X261904Y-18659761D01*
X214285Y-18612142D01*
%TO.C,C20*%
X1467142Y-35948857D02*
X1514761Y-35996476D01*
X1562380Y-36139333D01*
X1562380Y-36234571D01*
X1514761Y-36377428D01*
X1419523Y-36472666D01*
X1324285Y-36520285D01*
X1133809Y-36567904D01*
X990952Y-36567904D01*
X800476Y-36520285D01*
X705238Y-36472666D01*
X610000Y-36377428D01*
X562380Y-36234571D01*
X562380Y-36139333D01*
X610000Y-35996476D01*
X657619Y-35948857D01*
X657619Y-35567904D02*
X610000Y-35520285D01*
X562380Y-35425047D01*
X562380Y-35186952D01*
X610000Y-35091714D01*
X657619Y-35044095D01*
X752857Y-34996476D01*
X848095Y-34996476D01*
X990952Y-35044095D01*
X1562380Y-35615523D01*
X1562380Y-34996476D01*
X562380Y-34377428D02*
X562380Y-34282190D01*
X610000Y-34186952D01*
X657619Y-34139333D01*
X752857Y-34091714D01*
X943333Y-34044095D01*
X1181428Y-34044095D01*
X1371904Y-34091714D01*
X1467142Y-34139333D01*
X1514761Y-34186952D01*
X1562380Y-34282190D01*
X1562380Y-34377428D01*
X1514761Y-34472666D01*
X1467142Y-34520285D01*
X1371904Y-34567904D01*
X1181428Y-34615523D01*
X943333Y-34615523D01*
X752857Y-34567904D01*
X657619Y-34520285D01*
X610000Y-34472666D01*
X562380Y-34377428D01*
%TO.C,D8*%
X-17883095Y-79192380D02*
X-17883095Y-78192380D01*
X-17645000Y-78192380D01*
X-17502142Y-78240000D01*
X-17406904Y-78335238D01*
X-17359285Y-78430476D01*
X-17311666Y-78620952D01*
X-17311666Y-78763809D01*
X-17359285Y-78954285D01*
X-17406904Y-79049523D01*
X-17502142Y-79144761D01*
X-17645000Y-79192380D01*
X-17883095Y-79192380D01*
X-16740238Y-78620952D02*
X-16835476Y-78573333D01*
X-16883095Y-78525714D01*
X-16930714Y-78430476D01*
X-16930714Y-78382857D01*
X-16883095Y-78287619D01*
X-16835476Y-78240000D01*
X-16740238Y-78192380D01*
X-16549761Y-78192380D01*
X-16454523Y-78240000D01*
X-16406904Y-78287619D01*
X-16359285Y-78382857D01*
X-16359285Y-78430476D01*
X-16406904Y-78525714D01*
X-16454523Y-78573333D01*
X-16549761Y-78620952D01*
X-16740238Y-78620952D01*
X-16835476Y-78668571D01*
X-16883095Y-78716190D01*
X-16930714Y-78811428D01*
X-16930714Y-79001904D01*
X-16883095Y-79097142D01*
X-16835476Y-79144761D01*
X-16740238Y-79192380D01*
X-16549761Y-79192380D01*
X-16454523Y-79144761D01*
X-16406904Y-79097142D01*
X-16359285Y-79001904D01*
X-16359285Y-78811428D01*
X-16406904Y-78716190D01*
X-16454523Y-78668571D01*
X-16549761Y-78620952D01*
%TO.C,U7*%
X12427380Y-87121904D02*
X13236904Y-87121904D01*
X13332142Y-87074285D01*
X13379761Y-87026666D01*
X13427380Y-86931428D01*
X13427380Y-86740952D01*
X13379761Y-86645714D01*
X13332142Y-86598095D01*
X13236904Y-86550476D01*
X12427380Y-86550476D01*
X12427380Y-86169523D02*
X12427380Y-85502857D01*
X13427380Y-85931428D01*
%TO.C,R14*%
X-642857Y-62842380D02*
X-976190Y-62366190D01*
X-1214285Y-62842380D02*
X-1214285Y-61842380D01*
X-833333Y-61842380D01*
X-738095Y-61890000D01*
X-690476Y-61937619D01*
X-642857Y-62032857D01*
X-642857Y-62175714D01*
X-690476Y-62270952D01*
X-738095Y-62318571D01*
X-833333Y-62366190D01*
X-1214285Y-62366190D01*
X309523Y-62842380D02*
X-261904Y-62842380D01*
X23809Y-62842380D02*
X23809Y-61842380D01*
X-71428Y-61985238D01*
X-166666Y-62080476D01*
X-261904Y-62128095D01*
X1166666Y-62175714D02*
X1166666Y-62842380D01*
X928571Y-61794761D02*
X690476Y-62509047D01*
X1309523Y-62509047D01*
%TO.C,R9*%
X15751248Y-28936195D02*
X15417915Y-28460005D01*
X15179819Y-28936195D02*
X15179819Y-27936195D01*
X15560772Y-27936195D01*
X15656010Y-27983815D01*
X15703629Y-28031434D01*
X15751248Y-28126672D01*
X15751248Y-28269529D01*
X15703629Y-28364767D01*
X15656010Y-28412386D01*
X15560772Y-28460005D01*
X15179819Y-28460005D01*
X16227438Y-28936195D02*
X16417915Y-28936195D01*
X16513153Y-28888576D01*
X16560772Y-28840957D01*
X16656010Y-28698100D01*
X16703629Y-28507624D01*
X16703629Y-28126672D01*
X16656010Y-28031434D01*
X16608391Y-27983815D01*
X16513153Y-27936195D01*
X16322676Y-27936195D01*
X16227438Y-27983815D01*
X16179819Y-28031434D01*
X16132200Y-28126672D01*
X16132200Y-28364767D01*
X16179819Y-28460005D01*
X16227438Y-28507624D01*
X16322676Y-28555243D01*
X16513153Y-28555243D01*
X16608391Y-28507624D01*
X16656010Y-28460005D01*
X16703629Y-28364767D01*
%TO.C,C4*%
X6837668Y-47990629D02*
X6790049Y-48038248D01*
X6647192Y-48085867D01*
X6551954Y-48085867D01*
X6409096Y-48038248D01*
X6313858Y-47943010D01*
X6266239Y-47847772D01*
X6218620Y-47657296D01*
X6218620Y-47514439D01*
X6266239Y-47323963D01*
X6313858Y-47228725D01*
X6409096Y-47133487D01*
X6551954Y-47085867D01*
X6647192Y-47085867D01*
X6790049Y-47133487D01*
X6837668Y-47181106D01*
X7694811Y-47419201D02*
X7694811Y-48085867D01*
X7456715Y-47038248D02*
X7218620Y-47752534D01*
X7837668Y-47752534D01*
%TO.C,C15*%
X12930142Y-70746857D02*
X12977761Y-70794476D01*
X13025380Y-70937333D01*
X13025380Y-71032571D01*
X12977761Y-71175428D01*
X12882523Y-71270666D01*
X12787285Y-71318285D01*
X12596809Y-71365904D01*
X12453952Y-71365904D01*
X12263476Y-71318285D01*
X12168238Y-71270666D01*
X12073000Y-71175428D01*
X12025380Y-71032571D01*
X12025380Y-70937333D01*
X12073000Y-70794476D01*
X12120619Y-70746857D01*
X13025380Y-69794476D02*
X13025380Y-70365904D01*
X13025380Y-70080190D02*
X12025380Y-70080190D01*
X12168238Y-70175428D01*
X12263476Y-70270666D01*
X12311095Y-70365904D01*
X12025380Y-68889714D02*
X12025380Y-69365904D01*
X12501571Y-69413523D01*
X12453952Y-69365904D01*
X12406333Y-69270666D01*
X12406333Y-69032571D01*
X12453952Y-68937333D01*
X12501571Y-68889714D01*
X12596809Y-68842095D01*
X12834904Y-68842095D01*
X12930142Y-68889714D01*
X12977761Y-68937333D01*
X13025380Y-69032571D01*
X13025380Y-69270666D01*
X12977761Y-69365904D01*
X12930142Y-69413523D01*
%TO.C,R4*%
X-13611924Y-15489180D02*
X-13945258Y-15012990D01*
X-14183353Y-15489180D02*
X-14183353Y-14489180D01*
X-13802400Y-14489180D01*
X-13707162Y-14536800D01*
X-13659543Y-14584419D01*
X-13611924Y-14679657D01*
X-13611924Y-14822514D01*
X-13659543Y-14917752D01*
X-13707162Y-14965371D01*
X-13802400Y-15012990D01*
X-14183353Y-15012990D01*
X-12754781Y-14822514D02*
X-12754781Y-15489180D01*
X-12992877Y-14441561D02*
X-13230972Y-15155847D01*
X-12611924Y-15155847D01*
%TO.C,R15*%
X-13520657Y-65857380D02*
X-13853990Y-65381190D01*
X-14092085Y-65857380D02*
X-14092085Y-64857380D01*
X-13711133Y-64857380D01*
X-13615895Y-64905000D01*
X-13568276Y-64952619D01*
X-13520657Y-65047857D01*
X-13520657Y-65190714D01*
X-13568276Y-65285952D01*
X-13615895Y-65333571D01*
X-13711133Y-65381190D01*
X-14092085Y-65381190D01*
X-12568276Y-65857380D02*
X-13139704Y-65857380D01*
X-12853990Y-65857380D02*
X-12853990Y-64857380D01*
X-12949228Y-65000238D01*
X-13044466Y-65095476D01*
X-13139704Y-65143095D01*
X-11663514Y-64857380D02*
X-12139704Y-64857380D01*
X-12187323Y-65333571D01*
X-12139704Y-65285952D01*
X-12044466Y-65238333D01*
X-11806371Y-65238333D01*
X-11711133Y-65285952D01*
X-11663514Y-65333571D01*
X-11615895Y-65428809D01*
X-11615895Y-65666904D01*
X-11663514Y-65762142D01*
X-11711133Y-65809761D01*
X-11806371Y-65857380D01*
X-12044466Y-65857380D01*
X-12139704Y-65809761D01*
X-12187323Y-65762142D01*
%TO.C,D5*%
X-17984695Y-37917380D02*
X-17984695Y-36917380D01*
X-17746600Y-36917380D01*
X-17603742Y-36965000D01*
X-17508504Y-37060238D01*
X-17460885Y-37155476D01*
X-17413266Y-37345952D01*
X-17413266Y-37488809D01*
X-17460885Y-37679285D01*
X-17508504Y-37774523D01*
X-17603742Y-37869761D01*
X-17746600Y-37917380D01*
X-17984695Y-37917380D01*
X-16508504Y-36917380D02*
X-16984695Y-36917380D01*
X-17032314Y-37393571D01*
X-16984695Y-37345952D01*
X-16889457Y-37298333D01*
X-16651361Y-37298333D01*
X-16556123Y-37345952D01*
X-16508504Y-37393571D01*
X-16460885Y-37488809D01*
X-16460885Y-37726904D01*
X-16508504Y-37822142D01*
X-16556123Y-37869761D01*
X-16651361Y-37917380D01*
X-16889457Y-37917380D01*
X-16984695Y-37869761D01*
X-17032314Y-37822142D01*
%TO.C,C23*%
X-513313Y-26841237D02*
X-465694Y-26888856D01*
X-418075Y-27031713D01*
X-418075Y-27126951D01*
X-465694Y-27269808D01*
X-560932Y-27365046D01*
X-656170Y-27412665D01*
X-846646Y-27460284D01*
X-989503Y-27460284D01*
X-1179979Y-27412665D01*
X-1275217Y-27365046D01*
X-1370456Y-27269808D01*
X-1418075Y-27126951D01*
X-1418075Y-27031713D01*
X-1370456Y-26888856D01*
X-1322836Y-26841237D01*
X-1322836Y-26460284D02*
X-1370456Y-26412665D01*
X-1418075Y-26317427D01*
X-1418075Y-26079332D01*
X-1370456Y-25984094D01*
X-1322836Y-25936475D01*
X-1227598Y-25888856D01*
X-1132360Y-25888856D01*
X-989503Y-25936475D01*
X-418075Y-26507903D01*
X-418075Y-25888856D01*
X-1418075Y-25555522D02*
X-1418075Y-24936475D01*
X-1037122Y-25269808D01*
X-1037122Y-25126951D01*
X-989503Y-25031713D01*
X-941884Y-24984094D01*
X-846646Y-24936475D01*
X-608551Y-24936475D01*
X-513313Y-24984094D01*
X-465694Y-25031713D01*
X-418075Y-25126951D01*
X-418075Y-25412665D01*
X-465694Y-25507903D01*
X-513313Y-25555522D01*
%TO.C,D2*%
X9269504Y-100325180D02*
X9269504Y-99325180D01*
X9507600Y-99325180D01*
X9650457Y-99372800D01*
X9745695Y-99468038D01*
X9793314Y-99563276D01*
X9840933Y-99753752D01*
X9840933Y-99896609D01*
X9793314Y-100087085D01*
X9745695Y-100182323D01*
X9650457Y-100277561D01*
X9507600Y-100325180D01*
X9269504Y-100325180D01*
X10221885Y-99420419D02*
X10269504Y-99372800D01*
X10364742Y-99325180D01*
X10602838Y-99325180D01*
X10698076Y-99372800D01*
X10745695Y-99420419D01*
X10793314Y-99515657D01*
X10793314Y-99610895D01*
X10745695Y-99753752D01*
X10174266Y-100325180D01*
X10793314Y-100325180D01*
%TO.C,R6*%
X15771333Y-34615380D02*
X15438000Y-34139190D01*
X15199904Y-34615380D02*
X15199904Y-33615380D01*
X15580857Y-33615380D01*
X15676095Y-33663000D01*
X15723714Y-33710619D01*
X15771333Y-33805857D01*
X15771333Y-33948714D01*
X15723714Y-34043952D01*
X15676095Y-34091571D01*
X15580857Y-34139190D01*
X15199904Y-34139190D01*
X16628476Y-33615380D02*
X16438000Y-33615380D01*
X16342761Y-33663000D01*
X16295142Y-33710619D01*
X16199904Y-33853476D01*
X16152285Y-34043952D01*
X16152285Y-34424904D01*
X16199904Y-34520142D01*
X16247523Y-34567761D01*
X16342761Y-34615380D01*
X16533238Y-34615380D01*
X16628476Y-34567761D01*
X16676095Y-34520142D01*
X16723714Y-34424904D01*
X16723714Y-34186809D01*
X16676095Y-34091571D01*
X16628476Y-34043952D01*
X16533238Y-33996333D01*
X16342761Y-33996333D01*
X16247523Y-34043952D01*
X16199904Y-34091571D01*
X16152285Y-34186809D01*
%TO.C,C11*%
X14829542Y-51157142D02*
X14781923Y-51204761D01*
X14639066Y-51252380D01*
X14543828Y-51252380D01*
X14400971Y-51204761D01*
X14305733Y-51109523D01*
X14258114Y-51014285D01*
X14210495Y-50823809D01*
X14210495Y-50680952D01*
X14258114Y-50490476D01*
X14305733Y-50395238D01*
X14400971Y-50300000D01*
X14543828Y-50252380D01*
X14639066Y-50252380D01*
X14781923Y-50300000D01*
X14829542Y-50347619D01*
X15781923Y-51252380D02*
X15210495Y-51252380D01*
X15496209Y-51252380D02*
X15496209Y-50252380D01*
X15400971Y-50395238D01*
X15305733Y-50490476D01*
X15210495Y-50538095D01*
X16734304Y-51252380D02*
X16162876Y-51252380D01*
X16448590Y-51252380D02*
X16448590Y-50252380D01*
X16353352Y-50395238D01*
X16258114Y-50490476D01*
X16162876Y-50538095D01*
%TO.C,D7*%
X-17959295Y-65857380D02*
X-17959295Y-64857380D01*
X-17721200Y-64857380D01*
X-17578342Y-64905000D01*
X-17483104Y-65000238D01*
X-17435485Y-65095476D01*
X-17387866Y-65285952D01*
X-17387866Y-65428809D01*
X-17435485Y-65619285D01*
X-17483104Y-65714523D01*
X-17578342Y-65809761D01*
X-17721200Y-65857380D01*
X-17959295Y-65857380D01*
X-17054533Y-64857380D02*
X-16387866Y-64857380D01*
X-16816438Y-65857380D01*
%TO.C,C31*%
X-277857Y-81922857D02*
X-230238Y-81970476D01*
X-182619Y-82113333D01*
X-182619Y-82208571D01*
X-230238Y-82351428D01*
X-325476Y-82446666D01*
X-420714Y-82494285D01*
X-611190Y-82541904D01*
X-754047Y-82541904D01*
X-944523Y-82494285D01*
X-1039761Y-82446666D01*
X-1135000Y-82351428D01*
X-1182619Y-82208571D01*
X-1182619Y-82113333D01*
X-1135000Y-81970476D01*
X-1087380Y-81922857D01*
X-1182619Y-81589523D02*
X-1182619Y-80970476D01*
X-801666Y-81303809D01*
X-801666Y-81160952D01*
X-754047Y-81065714D01*
X-706428Y-81018095D01*
X-611190Y-80970476D01*
X-373095Y-80970476D01*
X-277857Y-81018095D01*
X-230238Y-81065714D01*
X-182619Y-81160952D01*
X-182619Y-81446666D01*
X-230238Y-81541904D01*
X-277857Y-81589523D01*
X-182619Y-80018095D02*
X-182619Y-80589523D01*
X-182619Y-80303809D02*
X-1182619Y-80303809D01*
X-1039761Y-80399047D01*
X-944523Y-80494285D01*
X-896904Y-80589523D01*
%TO.C,C34*%
X8501142Y-79605142D02*
X8453523Y-79652761D01*
X8310666Y-79700380D01*
X8215428Y-79700380D01*
X8072571Y-79652761D01*
X7977333Y-79557523D01*
X7929714Y-79462285D01*
X7882095Y-79271809D01*
X7882095Y-79128952D01*
X7929714Y-78938476D01*
X7977333Y-78843238D01*
X8072571Y-78748000D01*
X8215428Y-78700380D01*
X8310666Y-78700380D01*
X8453523Y-78748000D01*
X8501142Y-78795619D01*
X8834476Y-78700380D02*
X9453523Y-78700380D01*
X9120190Y-79081333D01*
X9263047Y-79081333D01*
X9358285Y-79128952D01*
X9405904Y-79176571D01*
X9453523Y-79271809D01*
X9453523Y-79509904D01*
X9405904Y-79605142D01*
X9358285Y-79652761D01*
X9263047Y-79700380D01*
X8977333Y-79700380D01*
X8882095Y-79652761D01*
X8834476Y-79605142D01*
X10310666Y-79033714D02*
X10310666Y-79700380D01*
X10072571Y-78652761D02*
X9834476Y-79367047D01*
X10453523Y-79367047D01*
%TO.C,C22*%
X11660142Y-35440857D02*
X11707761Y-35488476D01*
X11755380Y-35631333D01*
X11755380Y-35726571D01*
X11707761Y-35869428D01*
X11612523Y-35964666D01*
X11517285Y-36012285D01*
X11326809Y-36059904D01*
X11183952Y-36059904D01*
X10993476Y-36012285D01*
X10898238Y-35964666D01*
X10803000Y-35869428D01*
X10755380Y-35726571D01*
X10755380Y-35631333D01*
X10803000Y-35488476D01*
X10850619Y-35440857D01*
X10850619Y-35059904D02*
X10803000Y-35012285D01*
X10755380Y-34917047D01*
X10755380Y-34678952D01*
X10803000Y-34583714D01*
X10850619Y-34536095D01*
X10945857Y-34488476D01*
X11041095Y-34488476D01*
X11183952Y-34536095D01*
X11755380Y-35107523D01*
X11755380Y-34488476D01*
X10850619Y-34107523D02*
X10803000Y-34059904D01*
X10755380Y-33964666D01*
X10755380Y-33726571D01*
X10803000Y-33631333D01*
X10850619Y-33583714D01*
X10945857Y-33536095D01*
X11041095Y-33536095D01*
X11183952Y-33583714D01*
X11755380Y-34155142D01*
X11755380Y-33536095D01*
%TO.C,RN14*%
X6802380Y-80922666D02*
X6326190Y-81256000D01*
X6802380Y-81494095D02*
X5802380Y-81494095D01*
X5802380Y-81113142D01*
X5850000Y-81017904D01*
X5897619Y-80970285D01*
X5992857Y-80922666D01*
X6135714Y-80922666D01*
X6230952Y-80970285D01*
X6278571Y-81017904D01*
X6326190Y-81113142D01*
X6326190Y-81494095D01*
X6802380Y-80494095D02*
X5802380Y-80494095D01*
X6802380Y-79922666D01*
X5802380Y-79922666D01*
X6802380Y-78922666D02*
X6802380Y-79494095D01*
X6802380Y-79208380D02*
X5802380Y-79208380D01*
X5945238Y-79303619D01*
X6040476Y-79398857D01*
X6088095Y-79494095D01*
X6135714Y-78065523D02*
X6802380Y-78065523D01*
X5754761Y-78303619D02*
X6469047Y-78541714D01*
X6469047Y-77922666D01*
%TO.C,D6*%
X-17984695Y-51887380D02*
X-17984695Y-50887380D01*
X-17746600Y-50887380D01*
X-17603742Y-50935000D01*
X-17508504Y-51030238D01*
X-17460885Y-51125476D01*
X-17413266Y-51315952D01*
X-17413266Y-51458809D01*
X-17460885Y-51649285D01*
X-17508504Y-51744523D01*
X-17603742Y-51839761D01*
X-17746600Y-51887380D01*
X-17984695Y-51887380D01*
X-16556123Y-50887380D02*
X-16746600Y-50887380D01*
X-16841838Y-50935000D01*
X-16889457Y-50982619D01*
X-16984695Y-51125476D01*
X-17032314Y-51315952D01*
X-17032314Y-51696904D01*
X-16984695Y-51792142D01*
X-16937076Y-51839761D01*
X-16841838Y-51887380D01*
X-16651361Y-51887380D01*
X-16556123Y-51839761D01*
X-16508504Y-51792142D01*
X-16460885Y-51696904D01*
X-16460885Y-51458809D01*
X-16508504Y-51363571D01*
X-16556123Y-51315952D01*
X-16651361Y-51268333D01*
X-16841838Y-51268333D01*
X-16937076Y-51315952D01*
X-16984695Y-51363571D01*
X-17032314Y-51458809D01*
%TO.C,R18*%
X-642857Y-90147380D02*
X-976190Y-89671190D01*
X-1214285Y-90147380D02*
X-1214285Y-89147380D01*
X-833333Y-89147380D01*
X-738095Y-89195000D01*
X-690476Y-89242619D01*
X-642857Y-89337857D01*
X-642857Y-89480714D01*
X-690476Y-89575952D01*
X-738095Y-89623571D01*
X-833333Y-89671190D01*
X-1214285Y-89671190D01*
X309523Y-90147380D02*
X-261904Y-90147380D01*
X23809Y-90147380D02*
X23809Y-89147380D01*
X-71428Y-89290238D01*
X-166666Y-89385476D01*
X-261904Y-89433095D01*
X880952Y-89575952D02*
X785714Y-89528333D01*
X738095Y-89480714D01*
X690476Y-89385476D01*
X690476Y-89337857D01*
X738095Y-89242619D01*
X785714Y-89195000D01*
X880952Y-89147380D01*
X1071428Y-89147380D01*
X1166666Y-89195000D01*
X1214285Y-89242619D01*
X1261904Y-89337857D01*
X1261904Y-89385476D01*
X1214285Y-89480714D01*
X1166666Y-89528333D01*
X1071428Y-89575952D01*
X880952Y-89575952D01*
X785714Y-89623571D01*
X738095Y-89671190D01*
X690476Y-89766428D01*
X690476Y-89956904D01*
X738095Y-90052142D01*
X785714Y-90099761D01*
X880952Y-90147380D01*
X1071428Y-90147380D01*
X1166666Y-90099761D01*
X1214285Y-90052142D01*
X1261904Y-89956904D01*
X1261904Y-89766428D01*
X1214285Y-89671190D01*
X1166666Y-89623571D01*
X1071428Y-89575952D01*
%TO.C,C9*%
X16983333Y-40202142D02*
X16935714Y-40249761D01*
X16792857Y-40297380D01*
X16697619Y-40297380D01*
X16554761Y-40249761D01*
X16459523Y-40154523D01*
X16411904Y-40059285D01*
X16364285Y-39868809D01*
X16364285Y-39725952D01*
X16411904Y-39535476D01*
X16459523Y-39440238D01*
X16554761Y-39345000D01*
X16697619Y-39297380D01*
X16792857Y-39297380D01*
X16935714Y-39345000D01*
X16983333Y-39392619D01*
X17459523Y-40297380D02*
X17650000Y-40297380D01*
X17745238Y-40249761D01*
X17792857Y-40202142D01*
X17888095Y-40059285D01*
X17935714Y-39868809D01*
X17935714Y-39487857D01*
X17888095Y-39392619D01*
X17840476Y-39345000D01*
X17745238Y-39297380D01*
X17554761Y-39297380D01*
X17459523Y-39345000D01*
X17411904Y-39392619D01*
X17364285Y-39487857D01*
X17364285Y-39725952D01*
X17411904Y-39821190D01*
X17459523Y-39868809D01*
X17554761Y-39916428D01*
X17745238Y-39916428D01*
X17840476Y-39868809D01*
X17888095Y-39821190D01*
X17935714Y-39725952D01*
%TO.C,C25*%
X-658857Y-40774857D02*
X-611238Y-40822476D01*
X-563619Y-40965333D01*
X-563619Y-41060571D01*
X-611238Y-41203428D01*
X-706476Y-41298666D01*
X-801714Y-41346285D01*
X-992190Y-41393904D01*
X-1135047Y-41393904D01*
X-1325523Y-41346285D01*
X-1420761Y-41298666D01*
X-1516000Y-41203428D01*
X-1563619Y-41060571D01*
X-1563619Y-40965333D01*
X-1516000Y-40822476D01*
X-1468380Y-40774857D01*
X-1468380Y-40393904D02*
X-1516000Y-40346285D01*
X-1563619Y-40251047D01*
X-1563619Y-40012952D01*
X-1516000Y-39917714D01*
X-1468380Y-39870095D01*
X-1373142Y-39822476D01*
X-1277904Y-39822476D01*
X-1135047Y-39870095D01*
X-563619Y-40441523D01*
X-563619Y-39822476D01*
X-1563619Y-38917714D02*
X-1563619Y-39393904D01*
X-1087428Y-39441523D01*
X-1135047Y-39393904D01*
X-1182666Y-39298666D01*
X-1182666Y-39060571D01*
X-1135047Y-38965333D01*
X-1087428Y-38917714D01*
X-992190Y-38870095D01*
X-754095Y-38870095D01*
X-658857Y-38917714D01*
X-611238Y-38965333D01*
X-563619Y-39060571D01*
X-563619Y-39298666D01*
X-611238Y-39393904D01*
X-658857Y-39441523D01*
%TO.C,U3*%
X567380Y-53966904D02*
X1376904Y-53966904D01*
X1472142Y-53919285D01*
X1519761Y-53871666D01*
X1567380Y-53776428D01*
X1567380Y-53585952D01*
X1519761Y-53490714D01*
X1472142Y-53443095D01*
X1376904Y-53395476D01*
X567380Y-53395476D01*
X567380Y-53014523D02*
X567380Y-52395476D01*
X948333Y-52728809D01*
X948333Y-52585952D01*
X995952Y-52490714D01*
X1043571Y-52443095D01*
X1138809Y-52395476D01*
X1376904Y-52395476D01*
X1472142Y-52443095D01*
X1519761Y-52490714D01*
X1567380Y-52585952D01*
X1567380Y-52871666D01*
X1519761Y-52966904D01*
X1472142Y-53014523D01*
%TO.C,C17*%
X11501142Y-16848057D02*
X11548761Y-16895676D01*
X11596380Y-17038533D01*
X11596380Y-17133771D01*
X11548761Y-17276628D01*
X11453523Y-17371866D01*
X11358285Y-17419485D01*
X11167809Y-17467104D01*
X11024952Y-17467104D01*
X10834476Y-17419485D01*
X10739238Y-17371866D01*
X10644000Y-17276628D01*
X10596380Y-17133771D01*
X10596380Y-17038533D01*
X10644000Y-16895676D01*
X10691619Y-16848057D01*
X11596380Y-15895676D02*
X11596380Y-16467104D01*
X11596380Y-16181390D02*
X10596380Y-16181390D01*
X10739238Y-16276628D01*
X10834476Y-16371866D01*
X10882095Y-16467104D01*
X10596380Y-15562342D02*
X10596380Y-14895676D01*
X11596380Y-15324247D01*
%TO.C,L3*%
X17290528Y-75601480D02*
X17290528Y-76077671D01*
X16290528Y-76077671D01*
X16290528Y-75363385D02*
X16290528Y-74744337D01*
X16671481Y-75077671D01*
X16671481Y-74934814D01*
X16719100Y-74839575D01*
X16766719Y-74791956D01*
X16861957Y-74744337D01*
X17100052Y-74744337D01*
X17195290Y-74791956D01*
X17242909Y-74839575D01*
X17290528Y-74934814D01*
X17290528Y-75220528D01*
X17242909Y-75315766D01*
X17195290Y-75363385D01*
%TO.C,J6*%
X-1717619Y-43798109D02*
X-1003333Y-43798109D01*
X-860476Y-43845728D01*
X-765238Y-43940966D01*
X-717619Y-44083823D01*
X-717619Y-44179061D01*
X-1717619Y-42893347D02*
X-1717619Y-43083823D01*
X-1670000Y-43179061D01*
X-1622380Y-43226680D01*
X-1479523Y-43321918D01*
X-1289047Y-43369537D01*
X-908095Y-43369537D01*
X-812857Y-43321918D01*
X-765238Y-43274299D01*
X-717619Y-43179061D01*
X-717619Y-42988585D01*
X-765238Y-42893347D01*
X-812857Y-42845728D01*
X-908095Y-42798109D01*
X-1146190Y-42798109D01*
X-1241428Y-42845728D01*
X-1289047Y-42893347D01*
X-1336666Y-42988585D01*
X-1336666Y-43179061D01*
X-1289047Y-43274299D01*
X-1241428Y-43321918D01*
X-1146190Y-43369537D01*
%TO.C,C33*%
X-277857Y-95257857D02*
X-230238Y-95305476D01*
X-182619Y-95448333D01*
X-182619Y-95543571D01*
X-230238Y-95686428D01*
X-325476Y-95781666D01*
X-420714Y-95829285D01*
X-611190Y-95876904D01*
X-754047Y-95876904D01*
X-944523Y-95829285D01*
X-1039761Y-95781666D01*
X-1135000Y-95686428D01*
X-1182619Y-95543571D01*
X-1182619Y-95448333D01*
X-1135000Y-95305476D01*
X-1087380Y-95257857D01*
X-1182619Y-94924523D02*
X-1182619Y-94305476D01*
X-801666Y-94638809D01*
X-801666Y-94495952D01*
X-754047Y-94400714D01*
X-706428Y-94353095D01*
X-611190Y-94305476D01*
X-373095Y-94305476D01*
X-277857Y-94353095D01*
X-230238Y-94400714D01*
X-182619Y-94495952D01*
X-182619Y-94781666D01*
X-230238Y-94876904D01*
X-277857Y-94924523D01*
X-1182619Y-93972142D02*
X-1182619Y-93353095D01*
X-801666Y-93686428D01*
X-801666Y-93543571D01*
X-754047Y-93448333D01*
X-706428Y-93400714D01*
X-611190Y-93353095D01*
X-373095Y-93353095D01*
X-277857Y-93400714D01*
X-230238Y-93448333D01*
X-182619Y-93543571D01*
X-182619Y-93829285D01*
X-230238Y-93924523D01*
X-277857Y-93972142D01*
%TO.C,RN11*%
X1027380Y-66571666D02*
X551190Y-66905000D01*
X1027380Y-67143095D02*
X27380Y-67143095D01*
X27380Y-66762142D01*
X74999Y-66666904D01*
X122619Y-66619285D01*
X217857Y-66571666D01*
X360714Y-66571666D01*
X455952Y-66619285D01*
X503571Y-66666904D01*
X551190Y-66762142D01*
X551190Y-67143095D01*
X1027380Y-66143095D02*
X27380Y-66143095D01*
X1027380Y-65571666D01*
X27380Y-65571666D01*
X1027380Y-64571666D02*
X1027380Y-65143095D01*
X1027380Y-64857380D02*
X27380Y-64857380D01*
X170238Y-64952619D01*
X265476Y-65047857D01*
X313095Y-65143095D01*
X1027380Y-63619285D02*
X1027380Y-64190714D01*
X1027380Y-63905000D02*
X27380Y-63905000D01*
X170238Y-64000238D01*
X265476Y-64095476D01*
X313095Y-64190714D01*
%TO.C,L4*%
X14262380Y-75579166D02*
X14262380Y-76055357D01*
X13262380Y-76055357D01*
X13595714Y-74817261D02*
X14262380Y-74817261D01*
X13214761Y-75055357D02*
X13929047Y-75293452D01*
X13929047Y-74674404D01*
%TO.C,C1*%
X1737142Y-92749666D02*
X1784761Y-92797285D01*
X1832380Y-92940142D01*
X1832380Y-93035380D01*
X1784761Y-93178238D01*
X1689523Y-93273476D01*
X1594285Y-93321095D01*
X1403809Y-93368714D01*
X1260952Y-93368714D01*
X1070476Y-93321095D01*
X975238Y-93273476D01*
X880000Y-93178238D01*
X832380Y-93035380D01*
X832380Y-92940142D01*
X880000Y-92797285D01*
X927619Y-92749666D01*
X1832380Y-91797285D02*
X1832380Y-92368714D01*
X1832380Y-92083000D02*
X832380Y-92083000D01*
X975238Y-92178238D01*
X1070476Y-92273476D01*
X1118095Y-92368714D01*
%TO.C,RN2*%
X3209973Y-49274707D02*
X2876640Y-48798517D01*
X2638545Y-49274707D02*
X2638545Y-48274707D01*
X3019497Y-48274707D01*
X3114735Y-48322327D01*
X3162354Y-48369946D01*
X3209973Y-48465184D01*
X3209973Y-48608041D01*
X3162354Y-48703279D01*
X3114735Y-48750898D01*
X3019497Y-48798517D01*
X2638545Y-48798517D01*
X3638545Y-49274707D02*
X3638545Y-48274707D01*
X4209973Y-49274707D01*
X4209973Y-48274707D01*
X4638545Y-48369946D02*
X4686164Y-48322327D01*
X4781402Y-48274707D01*
X5019497Y-48274707D01*
X5114735Y-48322327D01*
X5162354Y-48369946D01*
X5209973Y-48465184D01*
X5209973Y-48560422D01*
X5162354Y-48703279D01*
X4590926Y-49274707D01*
X5209973Y-49274707D01*
%TO.C,RN13*%
X3278333Y-83577380D02*
X2945000Y-83101190D01*
X2706904Y-83577380D02*
X2706904Y-82577380D01*
X3087857Y-82577380D01*
X3183095Y-82625000D01*
X3230714Y-82672619D01*
X3278333Y-82767857D01*
X3278333Y-82910714D01*
X3230714Y-83005952D01*
X3183095Y-83053571D01*
X3087857Y-83101190D01*
X2706904Y-83101190D01*
X3706904Y-83577380D02*
X3706904Y-82577380D01*
X4278333Y-83577380D01*
X4278333Y-82577380D01*
X5278333Y-83577380D02*
X4706904Y-83577380D01*
X4992619Y-83577380D02*
X4992619Y-82577380D01*
X4897380Y-82720238D01*
X4802142Y-82815476D01*
X4706904Y-82863095D01*
X5611666Y-82577380D02*
X6230714Y-82577380D01*
X5897380Y-82958333D01*
X6040238Y-82958333D01*
X6135476Y-83005952D01*
X6183095Y-83053571D01*
X6230714Y-83148809D01*
X6230714Y-83386904D01*
X6183095Y-83482142D01*
X6135476Y-83529761D01*
X6040238Y-83577380D01*
X5754523Y-83577380D01*
X5659285Y-83529761D01*
X5611666Y-83482142D01*
%TO.C,RN12*%
X10263333Y-77160380D02*
X9930000Y-76684190D01*
X9691904Y-77160380D02*
X9691904Y-76160380D01*
X10072857Y-76160380D01*
X10168095Y-76208000D01*
X10215714Y-76255619D01*
X10263333Y-76350857D01*
X10263333Y-76493714D01*
X10215714Y-76588952D01*
X10168095Y-76636571D01*
X10072857Y-76684190D01*
X9691904Y-76684190D01*
X10691904Y-77160380D02*
X10691904Y-76160380D01*
X11263333Y-77160380D01*
X11263333Y-76160380D01*
X12263333Y-77160380D02*
X11691904Y-77160380D01*
X11977619Y-77160380D02*
X11977619Y-76160380D01*
X11882380Y-76303238D01*
X11787142Y-76398476D01*
X11691904Y-76446095D01*
X12644285Y-76255619D02*
X12691904Y-76208000D01*
X12787142Y-76160380D01*
X13025238Y-76160380D01*
X13120476Y-76208000D01*
X13168095Y-76255619D01*
X13215714Y-76350857D01*
X13215714Y-76446095D01*
X13168095Y-76588952D01*
X12596666Y-77160380D01*
X13215714Y-77160380D01*
%TO.C,J1*%
X15541666Y-90892380D02*
X15541666Y-91606666D01*
X15494047Y-91749523D01*
X15398809Y-91844761D01*
X15255952Y-91892380D01*
X15160714Y-91892380D01*
X16541666Y-91892380D02*
X15970238Y-91892380D01*
X16255952Y-91892380D02*
X16255952Y-90892380D01*
X16160714Y-91035238D01*
X16065476Y-91130476D01*
X15970238Y-91178095D01*
%TO.C,RN7*%
X8453523Y-25852380D02*
X8120190Y-25376190D01*
X7882095Y-25852380D02*
X7882095Y-24852380D01*
X8263047Y-24852380D01*
X8358285Y-24900000D01*
X8405904Y-24947619D01*
X8453523Y-25042857D01*
X8453523Y-25185714D01*
X8405904Y-25280952D01*
X8358285Y-25328571D01*
X8263047Y-25376190D01*
X7882095Y-25376190D01*
X8882095Y-25852380D02*
X8882095Y-24852380D01*
X9453523Y-25852380D01*
X9453523Y-24852380D01*
X9834476Y-24852380D02*
X10501142Y-24852380D01*
X10072571Y-25852380D01*
%TO.C,R11*%
X-642857Y-46012380D02*
X-976190Y-45536190D01*
X-1214285Y-46012380D02*
X-1214285Y-45012380D01*
X-833333Y-45012380D01*
X-738095Y-45060000D01*
X-690476Y-45107619D01*
X-642857Y-45202857D01*
X-642857Y-45345714D01*
X-690476Y-45440952D01*
X-738095Y-45488571D01*
X-833333Y-45536190D01*
X-1214285Y-45536190D01*
X309523Y-46012380D02*
X-261904Y-46012380D01*
X23809Y-46012380D02*
X23809Y-45012380D01*
X-71428Y-45155238D01*
X-166666Y-45250476D01*
X-261904Y-45298095D01*
X1261904Y-46012380D02*
X690476Y-46012380D01*
X976190Y-46012380D02*
X976190Y-45012380D01*
X880952Y-45155238D01*
X785714Y-45250476D01*
X690476Y-45298095D01*
%TO.C,C12*%
X16232142Y-38742857D02*
X16279761Y-38790476D01*
X16327380Y-38933333D01*
X16327380Y-39028571D01*
X16279761Y-39171428D01*
X16184523Y-39266666D01*
X16089285Y-39314285D01*
X15898809Y-39361904D01*
X15755952Y-39361904D01*
X15565476Y-39314285D01*
X15470238Y-39266666D01*
X15375000Y-39171428D01*
X15327380Y-39028571D01*
X15327380Y-38933333D01*
X15375000Y-38790476D01*
X15422619Y-38742857D01*
X16327380Y-37790476D02*
X16327380Y-38361904D01*
X16327380Y-38076190D02*
X15327380Y-38076190D01*
X15470238Y-38171428D01*
X15565476Y-38266666D01*
X15613095Y-38361904D01*
X15422619Y-37409523D02*
X15375000Y-37361904D01*
X15327380Y-37266666D01*
X15327380Y-37028571D01*
X15375000Y-36933333D01*
X15422619Y-36885714D01*
X15517857Y-36838095D01*
X15613095Y-36838095D01*
X15755952Y-36885714D01*
X16327380Y-37457142D01*
X16327380Y-36838095D01*
%TO.C,R2*%
X-166666Y-4737380D02*
X-500000Y-4261190D01*
X-738095Y-4737380D02*
X-738095Y-3737380D01*
X-357142Y-3737380D01*
X-261904Y-3785000D01*
X-214285Y-3832619D01*
X-166666Y-3927857D01*
X-166666Y-4070714D01*
X-214285Y-4165952D01*
X-261904Y-4213571D01*
X-357142Y-4261190D01*
X-738095Y-4261190D01*
X214285Y-3832619D02*
X261904Y-3785000D01*
X357142Y-3737380D01*
X595238Y-3737380D01*
X690476Y-3785000D01*
X738095Y-3832619D01*
X785714Y-3927857D01*
X785714Y-4023095D01*
X738095Y-4165952D01*
X166666Y-4737380D01*
X785714Y-4737380D01*
%TO.C,R20*%
X-896857Y-105006380D02*
X-1230190Y-104530190D01*
X-1468285Y-105006380D02*
X-1468285Y-104006380D01*
X-1087333Y-104006380D01*
X-992095Y-104054000D01*
X-944476Y-104101619D01*
X-896857Y-104196857D01*
X-896857Y-104339714D01*
X-944476Y-104434952D01*
X-992095Y-104482571D01*
X-1087333Y-104530190D01*
X-1468285Y-104530190D01*
X-515904Y-104101619D02*
X-468285Y-104054000D01*
X-373047Y-104006380D01*
X-134952Y-104006380D01*
X-39714Y-104054000D01*
X7904Y-104101619D01*
X55523Y-104196857D01*
X55523Y-104292095D01*
X7904Y-104434952D01*
X-563523Y-105006380D01*
X55523Y-105006380D01*
X674571Y-104006380D02*
X769809Y-104006380D01*
X865047Y-104054000D01*
X912666Y-104101619D01*
X960285Y-104196857D01*
X1007904Y-104387333D01*
X1007904Y-104625428D01*
X960285Y-104815904D01*
X912666Y-104911142D01*
X865047Y-104958761D01*
X769809Y-105006380D01*
X674571Y-105006380D01*
X579333Y-104958761D01*
X531714Y-104911142D01*
X484095Y-104815904D01*
X436476Y-104625428D01*
X436476Y-104387333D01*
X484095Y-104196857D01*
X531714Y-104101619D01*
X579333Y-104054000D01*
X674571Y-104006380D01*
%TO.C,R21*%
X-13257999Y-107132380D02*
X-13591332Y-106656190D01*
X-13829427Y-107132380D02*
X-13829427Y-106132380D01*
X-13448475Y-106132380D01*
X-13353237Y-106180000D01*
X-13305618Y-106227619D01*
X-13257999Y-106322857D01*
X-13257999Y-106465714D01*
X-13305618Y-106560952D01*
X-13353237Y-106608571D01*
X-13448475Y-106656190D01*
X-13829427Y-106656190D01*
X-12877046Y-106227619D02*
X-12829427Y-106180000D01*
X-12734189Y-106132380D01*
X-12496094Y-106132380D01*
X-12400856Y-106180000D01*
X-12353237Y-106227619D01*
X-12305618Y-106322857D01*
X-12305618Y-106418095D01*
X-12353237Y-106560952D01*
X-12924665Y-107132380D01*
X-12305618Y-107132380D01*
X-11353237Y-107132380D02*
X-11924665Y-107132380D01*
X-11638951Y-107132380D02*
X-11638951Y-106132380D01*
X-11734189Y-106275238D01*
X-11829427Y-106370476D01*
X-11924665Y-106418095D01*
%TO.C,RN3*%
X2846523Y-40836380D02*
X2513190Y-40360190D01*
X2275095Y-40836380D02*
X2275095Y-39836380D01*
X2656047Y-39836380D01*
X2751285Y-39884000D01*
X2798904Y-39931619D01*
X2846523Y-40026857D01*
X2846523Y-40169714D01*
X2798904Y-40264952D01*
X2751285Y-40312571D01*
X2656047Y-40360190D01*
X2275095Y-40360190D01*
X3275095Y-40836380D02*
X3275095Y-39836380D01*
X3846523Y-40836380D01*
X3846523Y-39836380D01*
X4227476Y-39836380D02*
X4846523Y-39836380D01*
X4513190Y-40217333D01*
X4656047Y-40217333D01*
X4751285Y-40264952D01*
X4798904Y-40312571D01*
X4846523Y-40407809D01*
X4846523Y-40645904D01*
X4798904Y-40741142D01*
X4751285Y-40788761D01*
X4656047Y-40836380D01*
X4370333Y-40836380D01*
X4275095Y-40788761D01*
X4227476Y-40741142D01*
%TO.C,D3*%
X-17959295Y-10612380D02*
X-17959295Y-9612380D01*
X-17721200Y-9612380D01*
X-17578342Y-9660000D01*
X-17483104Y-9755238D01*
X-17435485Y-9850476D01*
X-17387866Y-10040952D01*
X-17387866Y-10183809D01*
X-17435485Y-10374285D01*
X-17483104Y-10469523D01*
X-17578342Y-10564761D01*
X-17721200Y-10612380D01*
X-17959295Y-10612380D01*
X-17054533Y-9612380D02*
X-16435485Y-9612380D01*
X-16768819Y-9993333D01*
X-16625961Y-9993333D01*
X-16530723Y-10040952D01*
X-16483104Y-10088571D01*
X-16435485Y-10183809D01*
X-16435485Y-10421904D01*
X-16483104Y-10517142D01*
X-16530723Y-10564761D01*
X-16625961Y-10612380D01*
X-16911676Y-10612380D01*
X-17006914Y-10564761D01*
X-17054533Y-10517142D01*
%TO.C,J3*%
X-1717619Y-2568944D02*
X-1003333Y-2568944D01*
X-860476Y-2616563D01*
X-765238Y-2711801D01*
X-717619Y-2854658D01*
X-717619Y-2949896D01*
X-1717619Y-2187991D02*
X-1717619Y-1568944D01*
X-1336666Y-1902277D01*
X-1336666Y-1759420D01*
X-1289047Y-1664182D01*
X-1241428Y-1616563D01*
X-1146190Y-1568944D01*
X-908095Y-1568944D01*
X-812857Y-1616563D01*
X-765238Y-1664182D01*
X-717619Y-1759420D01*
X-717619Y-2045134D01*
X-765238Y-2140372D01*
X-812857Y-2187991D01*
%TO.C,C14*%
X-404857Y-66682857D02*
X-357238Y-66730476D01*
X-309619Y-66873333D01*
X-309619Y-66968571D01*
X-357238Y-67111428D01*
X-452476Y-67206666D01*
X-547714Y-67254285D01*
X-738190Y-67301904D01*
X-881047Y-67301904D01*
X-1071523Y-67254285D01*
X-1166761Y-67206666D01*
X-1262000Y-67111428D01*
X-1309619Y-66968571D01*
X-1309619Y-66873333D01*
X-1262000Y-66730476D01*
X-1214380Y-66682857D01*
X-309619Y-65730476D02*
X-309619Y-66301904D01*
X-309619Y-66016190D02*
X-1309619Y-66016190D01*
X-1166761Y-66111428D01*
X-1071523Y-66206666D01*
X-1023904Y-66301904D01*
X-976285Y-64873333D02*
X-309619Y-64873333D01*
X-1357238Y-65111428D02*
X-642952Y-65349523D01*
X-642952Y-64730476D01*
%TO.C,D1*%
X9269504Y-98288180D02*
X9269504Y-97288180D01*
X9507600Y-97288180D01*
X9650457Y-97335800D01*
X9745695Y-97431038D01*
X9793314Y-97526276D01*
X9840933Y-97716752D01*
X9840933Y-97859609D01*
X9793314Y-98050085D01*
X9745695Y-98145323D01*
X9650457Y-98240561D01*
X9507600Y-98288180D01*
X9269504Y-98288180D01*
X10793314Y-98288180D02*
X10221885Y-98288180D01*
X10507600Y-98288180D02*
X10507600Y-97288180D01*
X10412361Y-97431038D01*
X10317123Y-97526276D01*
X10221885Y-97573895D01*
%TO.C,C16*%
X13565142Y-17914857D02*
X13612761Y-17962476D01*
X13660380Y-18105333D01*
X13660380Y-18200571D01*
X13612761Y-18343428D01*
X13517523Y-18438666D01*
X13422285Y-18486285D01*
X13231809Y-18533904D01*
X13088952Y-18533904D01*
X12898476Y-18486285D01*
X12803238Y-18438666D01*
X12708000Y-18343428D01*
X12660380Y-18200571D01*
X12660380Y-18105333D01*
X12708000Y-17962476D01*
X12755619Y-17914857D01*
X13660380Y-16962476D02*
X13660380Y-17533904D01*
X13660380Y-17248190D02*
X12660380Y-17248190D01*
X12803238Y-17343428D01*
X12898476Y-17438666D01*
X12946095Y-17533904D01*
X12660380Y-16105333D02*
X12660380Y-16295809D01*
X12708000Y-16391047D01*
X12755619Y-16438666D01*
X12898476Y-16533904D01*
X13088952Y-16581523D01*
X13469904Y-16581523D01*
X13565142Y-16533904D01*
X13612761Y-16486285D01*
X13660380Y-16391047D01*
X13660380Y-16200571D01*
X13612761Y-16105333D01*
X13565142Y-16057714D01*
X13469904Y-16010095D01*
X13231809Y-16010095D01*
X13136571Y-16057714D01*
X13088952Y-16105333D01*
X13041333Y-16200571D01*
X13041333Y-16391047D01*
X13088952Y-16486285D01*
X13136571Y-16533904D01*
X13231809Y-16581523D01*
%TO.C,C3*%
X14899333Y-49048942D02*
X14851714Y-49096561D01*
X14708857Y-49144180D01*
X14613619Y-49144180D01*
X14470761Y-49096561D01*
X14375523Y-49001323D01*
X14327904Y-48906085D01*
X14280285Y-48715609D01*
X14280285Y-48572752D01*
X14327904Y-48382276D01*
X14375523Y-48287038D01*
X14470761Y-48191800D01*
X14613619Y-48144180D01*
X14708857Y-48144180D01*
X14851714Y-48191800D01*
X14899333Y-48239419D01*
X15232666Y-48144180D02*
X15851714Y-48144180D01*
X15518380Y-48525133D01*
X15661238Y-48525133D01*
X15756476Y-48572752D01*
X15804095Y-48620371D01*
X15851714Y-48715609D01*
X15851714Y-48953704D01*
X15804095Y-49048942D01*
X15756476Y-49096561D01*
X15661238Y-49144180D01*
X15375523Y-49144180D01*
X15280285Y-49096561D01*
X15232666Y-49048942D01*
%TO.C,R17*%
X-13558257Y-79192380D02*
X-13891590Y-78716190D01*
X-14129685Y-79192380D02*
X-14129685Y-78192380D01*
X-13748733Y-78192380D01*
X-13653495Y-78240000D01*
X-13605876Y-78287619D01*
X-13558257Y-78382857D01*
X-13558257Y-78525714D01*
X-13605876Y-78620952D01*
X-13653495Y-78668571D01*
X-13748733Y-78716190D01*
X-14129685Y-78716190D01*
X-12605876Y-79192380D02*
X-13177304Y-79192380D01*
X-12891590Y-79192380D02*
X-12891590Y-78192380D01*
X-12986828Y-78335238D01*
X-13082066Y-78430476D01*
X-13177304Y-78478095D01*
X-12272542Y-78192380D02*
X-11605876Y-78192380D01*
X-12034447Y-79192380D01*
%TO.C,C6*%
X3532142Y-61888666D02*
X3579761Y-61936285D01*
X3627380Y-62079142D01*
X3627380Y-62174380D01*
X3579761Y-62317238D01*
X3484523Y-62412476D01*
X3389285Y-62460095D01*
X3198809Y-62507714D01*
X3055952Y-62507714D01*
X2865476Y-62460095D01*
X2770238Y-62412476D01*
X2675000Y-62317238D01*
X2627380Y-62174380D01*
X2627380Y-62079142D01*
X2675000Y-61936285D01*
X2722619Y-61888666D01*
X2627380Y-61031523D02*
X2627380Y-61222000D01*
X2675000Y-61317238D01*
X2722619Y-61364857D01*
X2865476Y-61460095D01*
X3055952Y-61507714D01*
X3436904Y-61507714D01*
X3532142Y-61460095D01*
X3579761Y-61412476D01*
X3627380Y-61317238D01*
X3627380Y-61126761D01*
X3579761Y-61031523D01*
X3532142Y-60983904D01*
X3436904Y-60936285D01*
X3198809Y-60936285D01*
X3103571Y-60983904D01*
X3055952Y-61031523D01*
X3008333Y-61126761D01*
X3008333Y-61317238D01*
X3055952Y-61412476D01*
X3103571Y-61460095D01*
X3198809Y-61507714D01*
%TO.C,C35*%
X-795257Y-109170742D02*
X-842876Y-109218361D01*
X-985733Y-109265980D01*
X-1080971Y-109265980D01*
X-1223828Y-109218361D01*
X-1319066Y-109123123D01*
X-1366685Y-109027885D01*
X-1414304Y-108837409D01*
X-1414304Y-108694552D01*
X-1366685Y-108504076D01*
X-1319066Y-108408838D01*
X-1223828Y-108313600D01*
X-1080971Y-108265980D01*
X-985733Y-108265980D01*
X-842876Y-108313600D01*
X-795257Y-108361219D01*
X-461923Y-108265980D02*
X157123Y-108265980D01*
X-176209Y-108646933D01*
X-33352Y-108646933D01*
X61885Y-108694552D01*
X109504Y-108742171D01*
X157123Y-108837409D01*
X157123Y-109075504D01*
X109504Y-109170742D01*
X61885Y-109218361D01*
X-33352Y-109265980D01*
X-319066Y-109265980D01*
X-414304Y-109218361D01*
X-461923Y-109170742D01*
X1061885Y-108265980D02*
X585695Y-108265980D01*
X538076Y-108742171D01*
X585695Y-108694552D01*
X680933Y-108646933D01*
X919028Y-108646933D01*
X1014266Y-108694552D01*
X1061885Y-108742171D01*
X1109504Y-108837409D01*
X1109504Y-109075504D01*
X1061885Y-109170742D01*
X1014266Y-109218361D01*
X919028Y-109265980D01*
X680933Y-109265980D01*
X585695Y-109218361D01*
X538076Y-109170742D01*
%TO.C,C18*%
X19407142Y-88907857D02*
X19454761Y-88955476D01*
X19502380Y-89098333D01*
X19502380Y-89193571D01*
X19454761Y-89336428D01*
X19359523Y-89431666D01*
X19264285Y-89479285D01*
X19073809Y-89526904D01*
X18930952Y-89526904D01*
X18740476Y-89479285D01*
X18645238Y-89431666D01*
X18550000Y-89336428D01*
X18502380Y-89193571D01*
X18502380Y-89098333D01*
X18550000Y-88955476D01*
X18597619Y-88907857D01*
X19502380Y-87955476D02*
X19502380Y-88526904D01*
X19502380Y-88241190D02*
X18502380Y-88241190D01*
X18645238Y-88336428D01*
X18740476Y-88431666D01*
X18788095Y-88526904D01*
X18930952Y-87384047D02*
X18883333Y-87479285D01*
X18835714Y-87526904D01*
X18740476Y-87574523D01*
X18692857Y-87574523D01*
X18597619Y-87526904D01*
X18550000Y-87479285D01*
X18502380Y-87384047D01*
X18502380Y-87193571D01*
X18550000Y-87098333D01*
X18597619Y-87050714D01*
X18692857Y-87003095D01*
X18740476Y-87003095D01*
X18835714Y-87050714D01*
X18883333Y-87098333D01*
X18930952Y-87193571D01*
X18930952Y-87384047D01*
X18978571Y-87479285D01*
X19026190Y-87526904D01*
X19121428Y-87574523D01*
X19311904Y-87574523D01*
X19407142Y-87526904D01*
X19454761Y-87479285D01*
X19502380Y-87384047D01*
X19502380Y-87193571D01*
X19454761Y-87098333D01*
X19407142Y-87050714D01*
X19311904Y-87003095D01*
X19121428Y-87003095D01*
X19026190Y-87050714D01*
X18978571Y-87098333D01*
X18930952Y-87193571D01*
%TO.C,C30*%
X832142Y-72016857D02*
X879761Y-72064476D01*
X927380Y-72207333D01*
X927380Y-72302571D01*
X879761Y-72445428D01*
X784523Y-72540666D01*
X689285Y-72588285D01*
X498809Y-72635904D01*
X355952Y-72635904D01*
X165476Y-72588285D01*
X70238Y-72540666D01*
X-25000Y-72445428D01*
X-72619Y-72302571D01*
X-72619Y-72207333D01*
X-25000Y-72064476D01*
X22619Y-72016857D01*
X-72619Y-71683523D02*
X-72619Y-71064476D01*
X308333Y-71397809D01*
X308333Y-71254952D01*
X355952Y-71159714D01*
X403571Y-71112095D01*
X498809Y-71064476D01*
X736904Y-71064476D01*
X832142Y-71112095D01*
X879761Y-71159714D01*
X927380Y-71254952D01*
X927380Y-71540666D01*
X879761Y-71635904D01*
X832142Y-71683523D01*
X-72619Y-70445428D02*
X-72619Y-70350190D01*
X-24999Y-70254952D01*
X22619Y-70207333D01*
X117857Y-70159714D01*
X308333Y-70112095D01*
X546428Y-70112095D01*
X736904Y-70159714D01*
X832142Y-70207333D01*
X879761Y-70254952D01*
X927380Y-70350190D01*
X927380Y-70445428D01*
X879761Y-70540666D01*
X832142Y-70588285D01*
X736904Y-70635904D01*
X546428Y-70683523D01*
X308333Y-70683523D01*
X117857Y-70635904D01*
X22619Y-70588285D01*
X-24999Y-70540666D01*
X-72619Y-70445428D01*
%TO.C,C27*%
X-277857Y-53982857D02*
X-230238Y-54030476D01*
X-182619Y-54173333D01*
X-182619Y-54268571D01*
X-230238Y-54411428D01*
X-325476Y-54506666D01*
X-420714Y-54554285D01*
X-611190Y-54601904D01*
X-754047Y-54601904D01*
X-944523Y-54554285D01*
X-1039761Y-54506666D01*
X-1135000Y-54411428D01*
X-1182619Y-54268571D01*
X-1182619Y-54173333D01*
X-1135000Y-54030476D01*
X-1087380Y-53982857D01*
X-1087380Y-53601904D02*
X-1135000Y-53554285D01*
X-1182619Y-53459047D01*
X-1182619Y-53220952D01*
X-1135000Y-53125714D01*
X-1087380Y-53078095D01*
X-992142Y-53030476D01*
X-896904Y-53030476D01*
X-754047Y-53078095D01*
X-182619Y-53649523D01*
X-182619Y-53030476D01*
X-1182619Y-52697142D02*
X-1182619Y-52030476D01*
X-182619Y-52459047D01*
%TO.C,C5*%
X4936396Y-63503937D02*
X4888777Y-63551556D01*
X4745920Y-63599175D01*
X4650682Y-63599175D01*
X4507824Y-63551556D01*
X4412586Y-63456318D01*
X4364967Y-63361080D01*
X4317348Y-63170604D01*
X4317348Y-63027747D01*
X4364967Y-62837271D01*
X4412586Y-62742033D01*
X4507824Y-62646795D01*
X4650682Y-62599175D01*
X4745920Y-62599175D01*
X4888777Y-62646795D01*
X4936396Y-62694414D01*
X5841158Y-62599175D02*
X5364967Y-62599175D01*
X5317348Y-63075366D01*
X5364967Y-63027747D01*
X5460205Y-62980128D01*
X5698301Y-62980128D01*
X5793539Y-63027747D01*
X5841158Y-63075366D01*
X5888777Y-63170604D01*
X5888777Y-63408699D01*
X5841158Y-63503937D01*
X5793539Y-63551556D01*
X5698301Y-63599175D01*
X5460205Y-63599175D01*
X5364967Y-63551556D01*
X5317348Y-63503937D01*
%TO.C,RN6*%
X7149818Y-40832093D02*
X6816485Y-40355903D01*
X6578390Y-40832093D02*
X6578390Y-39832093D01*
X6959342Y-39832093D01*
X7054580Y-39879713D01*
X7102199Y-39927332D01*
X7149818Y-40022570D01*
X7149818Y-40165427D01*
X7102199Y-40260665D01*
X7054580Y-40308284D01*
X6959342Y-40355903D01*
X6578390Y-40355903D01*
X7578390Y-40832093D02*
X7578390Y-39832093D01*
X8149818Y-40832093D01*
X8149818Y-39832093D01*
X9054580Y-39832093D02*
X8864104Y-39832093D01*
X8768866Y-39879713D01*
X8721247Y-39927332D01*
X8626009Y-40070189D01*
X8578390Y-40260665D01*
X8578390Y-40641617D01*
X8626009Y-40736855D01*
X8673628Y-40784474D01*
X8768866Y-40832093D01*
X8959342Y-40832093D01*
X9054580Y-40784474D01*
X9102199Y-40736855D01*
X9149818Y-40641617D01*
X9149818Y-40403522D01*
X9102199Y-40308284D01*
X9054580Y-40260665D01*
X8959342Y-40213046D01*
X8768866Y-40213046D01*
X8673628Y-40260665D01*
X8626009Y-40308284D01*
X8578390Y-40403522D01*
%TO.C,U5*%
X9506380Y-11429904D02*
X10315904Y-11429904D01*
X10411142Y-11382285D01*
X10458761Y-11334666D01*
X10506380Y-11239428D01*
X10506380Y-11048952D01*
X10458761Y-10953714D01*
X10411142Y-10906095D01*
X10315904Y-10858476D01*
X9506380Y-10858476D01*
X9506380Y-9906095D02*
X9506380Y-10382285D01*
X9982571Y-10429904D01*
X9934952Y-10382285D01*
X9887333Y-10287047D01*
X9887333Y-10048952D01*
X9934952Y-9953714D01*
X9982571Y-9906095D01*
X10077809Y-9858476D01*
X10315904Y-9858476D01*
X10411142Y-9906095D01*
X10458761Y-9953714D01*
X10506380Y-10048952D01*
X10506380Y-10287047D01*
X10458761Y-10382285D01*
X10411142Y-10429904D01*
%TO.C,L2*%
X8021580Y-101411066D02*
X8021580Y-101887257D01*
X7021580Y-101887257D01*
X7116819Y-101125352D02*
X7069200Y-101077733D01*
X7021580Y-100982495D01*
X7021580Y-100744400D01*
X7069200Y-100649161D01*
X7116819Y-100601542D01*
X7212057Y-100553923D01*
X7307295Y-100553923D01*
X7450152Y-100601542D01*
X8021580Y-101172971D01*
X8021580Y-100553923D01*
%TO.C,U1*%
X15494095Y-45680380D02*
X15494095Y-46489904D01*
X15541714Y-46585142D01*
X15589333Y-46632761D01*
X15684571Y-46680380D01*
X15875047Y-46680380D01*
X15970285Y-46632761D01*
X16017904Y-46585142D01*
X16065523Y-46489904D01*
X16065523Y-45680380D01*
X17065523Y-46680380D02*
X16494095Y-46680380D01*
X16779809Y-46680380D02*
X16779809Y-45680380D01*
X16684571Y-45823238D01*
X16589333Y-45918476D01*
X16494095Y-45966095D01*
%TO.C,C28*%
X9628142Y-73667857D02*
X9675761Y-73715476D01*
X9723380Y-73858333D01*
X9723380Y-73953571D01*
X9675761Y-74096428D01*
X9580523Y-74191666D01*
X9485285Y-74239285D01*
X9294809Y-74286904D01*
X9151952Y-74286904D01*
X8961476Y-74239285D01*
X8866238Y-74191666D01*
X8771000Y-74096428D01*
X8723380Y-73953571D01*
X8723380Y-73858333D01*
X8771000Y-73715476D01*
X8818619Y-73667857D01*
X8818619Y-73286904D02*
X8771000Y-73239285D01*
X8723380Y-73144047D01*
X8723380Y-72905952D01*
X8771000Y-72810714D01*
X8818619Y-72763095D01*
X8913857Y-72715476D01*
X9009095Y-72715476D01*
X9151952Y-72763095D01*
X9723380Y-73334523D01*
X9723380Y-72715476D01*
X9151952Y-72144047D02*
X9104333Y-72239285D01*
X9056714Y-72286904D01*
X8961476Y-72334523D01*
X8913857Y-72334523D01*
X8818619Y-72286904D01*
X8771000Y-72239285D01*
X8723380Y-72144047D01*
X8723380Y-71953571D01*
X8771000Y-71858333D01*
X8818619Y-71810714D01*
X8913857Y-71763095D01*
X8961476Y-71763095D01*
X9056714Y-71810714D01*
X9104333Y-71858333D01*
X9151952Y-71953571D01*
X9151952Y-72144047D01*
X9199571Y-72239285D01*
X9247190Y-72286904D01*
X9342428Y-72334523D01*
X9532904Y-72334523D01*
X9628142Y-72286904D01*
X9675761Y-72239285D01*
X9723380Y-72144047D01*
X9723380Y-71953571D01*
X9675761Y-71858333D01*
X9628142Y-71810714D01*
X9532904Y-71763095D01*
X9342428Y-71763095D01*
X9247190Y-71810714D01*
X9199571Y-71858333D01*
X9151952Y-71953571D01*
%TO.C,C19*%
X12057142Y-90527142D02*
X12009523Y-90574761D01*
X11866666Y-90622380D01*
X11771428Y-90622380D01*
X11628571Y-90574761D01*
X11533333Y-90479523D01*
X11485714Y-90384285D01*
X11438095Y-90193809D01*
X11438095Y-90050952D01*
X11485714Y-89860476D01*
X11533333Y-89765238D01*
X11628571Y-89670000D01*
X11771428Y-89622380D01*
X11866666Y-89622380D01*
X12009523Y-89670000D01*
X12057142Y-89717619D01*
X13009523Y-90622380D02*
X12438095Y-90622380D01*
X12723809Y-90622380D02*
X12723809Y-89622380D01*
X12628571Y-89765238D01*
X12533333Y-89860476D01*
X12438095Y-89908095D01*
X13485714Y-90622380D02*
X13676190Y-90622380D01*
X13771428Y-90574761D01*
X13819047Y-90527142D01*
X13914285Y-90384285D01*
X13961904Y-90193809D01*
X13961904Y-89812857D01*
X13914285Y-89717619D01*
X13866666Y-89670000D01*
X13771428Y-89622380D01*
X13580952Y-89622380D01*
X13485714Y-89670000D01*
X13438095Y-89717619D01*
X13390476Y-89812857D01*
X13390476Y-90050952D01*
X13438095Y-90146190D01*
X13485714Y-90193809D01*
X13580952Y-90241428D01*
X13771428Y-90241428D01*
X13866666Y-90193809D01*
X13914285Y-90146190D01*
X13961904Y-90050952D01*
%TO.C,R16*%
X-642857Y-77447380D02*
X-976190Y-76971190D01*
X-1214285Y-77447380D02*
X-1214285Y-76447380D01*
X-833333Y-76447380D01*
X-738095Y-76495000D01*
X-690476Y-76542619D01*
X-642857Y-76637857D01*
X-642857Y-76780714D01*
X-690476Y-76875952D01*
X-738095Y-76923571D01*
X-833333Y-76971190D01*
X-1214285Y-76971190D01*
X309523Y-77447380D02*
X-261904Y-77447380D01*
X23809Y-77447380D02*
X23809Y-76447380D01*
X-71428Y-76590238D01*
X-166666Y-76685476D01*
X-261904Y-76733095D01*
X1166666Y-76447380D02*
X976190Y-76447380D01*
X880952Y-76495000D01*
X833333Y-76542619D01*
X738095Y-76685476D01*
X690476Y-76875952D01*
X690476Y-77256904D01*
X738095Y-77352142D01*
X785714Y-77399761D01*
X880952Y-77447380D01*
X1071428Y-77447380D01*
X1166666Y-77399761D01*
X1214285Y-77352142D01*
X1261904Y-77256904D01*
X1261904Y-77018809D01*
X1214285Y-76923571D01*
X1166666Y-76875952D01*
X1071428Y-76828333D01*
X880952Y-76828333D01*
X785714Y-76875952D01*
X738095Y-76923571D01*
X690476Y-77018809D01*
%TO.C,J7*%
X-1717619Y-56213333D02*
X-1003333Y-56213333D01*
X-860476Y-56260952D01*
X-765238Y-56356190D01*
X-717619Y-56499047D01*
X-717619Y-56594285D01*
X-1717619Y-55832380D02*
X-1717619Y-55165714D01*
X-717619Y-55594285D01*
%TO.C,R1*%
X13820380Y-45886666D02*
X13344190Y-46220000D01*
X13820380Y-46458095D02*
X12820380Y-46458095D01*
X12820380Y-46077142D01*
X12868000Y-45981904D01*
X12915619Y-45934285D01*
X13010857Y-45886666D01*
X13153714Y-45886666D01*
X13248952Y-45934285D01*
X13296571Y-45981904D01*
X13344190Y-46077142D01*
X13344190Y-46458095D01*
X13820380Y-44934285D02*
X13820380Y-45505714D01*
X13820380Y-45220000D02*
X12820380Y-45220000D01*
X12963238Y-45315238D01*
X13058476Y-45410476D01*
X13106095Y-45505714D01*
%TO.C,R12*%
X15798699Y-30805380D02*
X15465366Y-30329190D01*
X15227271Y-30805380D02*
X15227271Y-29805380D01*
X15608223Y-29805380D01*
X15703461Y-29853000D01*
X15751080Y-29900619D01*
X15798699Y-29995857D01*
X15798699Y-30138714D01*
X15751080Y-30233952D01*
X15703461Y-30281571D01*
X15608223Y-30329190D01*
X15227271Y-30329190D01*
X16751080Y-30805380D02*
X16179652Y-30805380D01*
X16465366Y-30805380D02*
X16465366Y-29805380D01*
X16370128Y-29948238D01*
X16274890Y-30043476D01*
X16179652Y-30091095D01*
X17132033Y-29900619D02*
X17179652Y-29853000D01*
X17274890Y-29805380D01*
X17512985Y-29805380D01*
X17608223Y-29853000D01*
X17655842Y-29900619D01*
X17703461Y-29995857D01*
X17703461Y-30091095D01*
X17655842Y-30233952D01*
X17084414Y-30805380D01*
X17703461Y-30805380D01*
%TO.C,J4*%
X-1717619Y-16311999D02*
X-1003333Y-16311999D01*
X-860476Y-16359618D01*
X-765238Y-16454856D01*
X-717619Y-16597713D01*
X-717619Y-16692951D01*
X-1384285Y-15407237D02*
X-717619Y-15407237D01*
X-1765238Y-15645332D02*
X-1050952Y-15883427D01*
X-1050952Y-15264380D01*
%TO.C,J10*%
X-1512819Y-107489523D02*
X-798533Y-107489523D01*
X-655676Y-107537142D01*
X-560438Y-107632380D01*
X-512819Y-107775238D01*
X-512819Y-107870476D01*
X-512819Y-106489523D02*
X-512819Y-107060952D01*
X-512819Y-106775238D02*
X-1512819Y-106775238D01*
X-1369961Y-106870476D01*
X-1274723Y-106965714D01*
X-1227104Y-107060952D01*
X-1512819Y-105870476D02*
X-1512819Y-105775238D01*
X-1465200Y-105680000D01*
X-1417580Y-105632380D01*
X-1322342Y-105584761D01*
X-1131866Y-105537142D01*
X-893771Y-105537142D01*
X-703295Y-105584761D01*
X-608057Y-105632380D01*
X-560438Y-105680000D01*
X-512819Y-105775238D01*
X-512819Y-105870476D01*
X-560438Y-105965714D01*
X-608057Y-106013333D01*
X-703295Y-106060952D01*
X-893771Y-106108571D01*
X-1131866Y-106108571D01*
X-1322342Y-106060952D01*
X-1417580Y-106013333D01*
X-1465200Y-105965714D01*
X-1512819Y-105870476D01*
%TO.C,L1*%
X8072380Y-96381866D02*
X8072380Y-96858057D01*
X7072380Y-96858057D01*
X8072380Y-95524723D02*
X8072380Y-96096152D01*
X8072380Y-95810438D02*
X7072380Y-95810438D01*
X7215238Y-95905676D01*
X7310476Y-96000914D01*
X7358095Y-96096152D01*
%TO.C,RN8*%
X8748380Y-18722476D02*
X8272190Y-19055809D01*
X8748380Y-19293904D02*
X7748380Y-19293904D01*
X7748380Y-18912952D01*
X7796000Y-18817714D01*
X7843619Y-18770095D01*
X7938857Y-18722476D01*
X8081714Y-18722476D01*
X8176952Y-18770095D01*
X8224571Y-18817714D01*
X8272190Y-18912952D01*
X8272190Y-19293904D01*
X8748380Y-18293904D02*
X7748380Y-18293904D01*
X8748380Y-17722476D01*
X7748380Y-17722476D01*
X8176952Y-17103428D02*
X8129333Y-17198666D01*
X8081714Y-17246285D01*
X7986476Y-17293904D01*
X7938857Y-17293904D01*
X7843619Y-17246285D01*
X7796000Y-17198666D01*
X7748380Y-17103428D01*
X7748380Y-16912952D01*
X7796000Y-16817714D01*
X7843619Y-16770095D01*
X7938857Y-16722476D01*
X7986476Y-16722476D01*
X8081714Y-16770095D01*
X8129333Y-16817714D01*
X8176952Y-16912952D01*
X8176952Y-17103428D01*
X8224571Y-17198666D01*
X8272190Y-17246285D01*
X8367428Y-17293904D01*
X8557904Y-17293904D01*
X8653142Y-17246285D01*
X8700761Y-17198666D01*
X8748380Y-17103428D01*
X8748380Y-16912952D01*
X8700761Y-16817714D01*
X8653142Y-16770095D01*
X8557904Y-16722476D01*
X8367428Y-16722476D01*
X8272190Y-16770095D01*
X8224571Y-16817714D01*
X8176952Y-16912952D01*
%TO.C,J5*%
X-1717619Y-30055054D02*
X-1003333Y-30055054D01*
X-860476Y-30102673D01*
X-765238Y-30197911D01*
X-717619Y-30340768D01*
X-717619Y-30436006D01*
X-1717619Y-29102673D02*
X-1717619Y-29578863D01*
X-1241428Y-29626482D01*
X-1289047Y-29578863D01*
X-1336666Y-29483625D01*
X-1336666Y-29245530D01*
X-1289047Y-29150292D01*
X-1241428Y-29102673D01*
X-1146190Y-29055054D01*
X-908095Y-29055054D01*
X-812857Y-29102673D01*
X-765238Y-29150292D01*
X-717619Y-29245530D01*
X-717619Y-29483625D01*
X-765238Y-29578863D01*
X-812857Y-29626482D01*
%TO.C,R13*%
X-13622257Y-51887380D02*
X-13955590Y-51411190D01*
X-14193685Y-51887380D02*
X-14193685Y-50887380D01*
X-13812733Y-50887380D01*
X-13717495Y-50935000D01*
X-13669876Y-50982619D01*
X-13622257Y-51077857D01*
X-13622257Y-51220714D01*
X-13669876Y-51315952D01*
X-13717495Y-51363571D01*
X-13812733Y-51411190D01*
X-14193685Y-51411190D01*
X-12669876Y-51887380D02*
X-13241304Y-51887380D01*
X-12955590Y-51887380D02*
X-12955590Y-50887380D01*
X-13050828Y-51030238D01*
X-13146066Y-51125476D01*
X-13241304Y-51173095D01*
X-12336542Y-50887380D02*
X-11717495Y-50887380D01*
X-12050828Y-51268333D01*
X-11907971Y-51268333D01*
X-11812733Y-51315952D01*
X-11765114Y-51363571D01*
X-11717495Y-51458809D01*
X-11717495Y-51696904D01*
X-11765114Y-51792142D01*
X-11812733Y-51839761D01*
X-11907971Y-51887380D01*
X-12193685Y-51887380D01*
X-12288923Y-51839761D01*
X-12336542Y-51792142D01*
%TO.C,R8*%
X-166666Y-32042380D02*
X-500000Y-31566190D01*
X-738095Y-32042380D02*
X-738095Y-31042380D01*
X-357142Y-31042380D01*
X-261904Y-31090000D01*
X-214285Y-31137619D01*
X-166666Y-31232857D01*
X-166666Y-31375714D01*
X-214285Y-31470952D01*
X-261904Y-31518571D01*
X-357142Y-31566190D01*
X-738095Y-31566190D01*
X404761Y-31470952D02*
X309523Y-31423333D01*
X261904Y-31375714D01*
X214285Y-31280476D01*
X214285Y-31232857D01*
X261904Y-31137619D01*
X309523Y-31090000D01*
X404761Y-31042380D01*
X595238Y-31042380D01*
X690476Y-31090000D01*
X738095Y-31137619D01*
X785714Y-31232857D01*
X785714Y-31280476D01*
X738095Y-31375714D01*
X690476Y-31423333D01*
X595238Y-31470952D01*
X404761Y-31470952D01*
X309523Y-31518571D01*
X261904Y-31566190D01*
X214285Y-31661428D01*
X214285Y-31851904D01*
X261904Y-31947142D01*
X309523Y-31994761D01*
X404761Y-32042380D01*
X595238Y-32042380D01*
X690476Y-31994761D01*
X738095Y-31947142D01*
X785714Y-31851904D01*
X785714Y-31661428D01*
X738095Y-31566190D01*
X690476Y-31518571D01*
X595238Y-31470952D01*
%TO.C,C13*%
X12422142Y-41155857D02*
X12469761Y-41203476D01*
X12517380Y-41346333D01*
X12517380Y-41441571D01*
X12469761Y-41584428D01*
X12374523Y-41679666D01*
X12279285Y-41727285D01*
X12088809Y-41774904D01*
X11945952Y-41774904D01*
X11755476Y-41727285D01*
X11660238Y-41679666D01*
X11565000Y-41584428D01*
X11517380Y-41441571D01*
X11517380Y-41346333D01*
X11565000Y-41203476D01*
X11612619Y-41155857D01*
X12517380Y-40203476D02*
X12517380Y-40774904D01*
X12517380Y-40489190D02*
X11517380Y-40489190D01*
X11660238Y-40584428D01*
X11755476Y-40679666D01*
X11803095Y-40774904D01*
X11517380Y-39870142D02*
X11517380Y-39251095D01*
X11898333Y-39584428D01*
X11898333Y-39441571D01*
X11945952Y-39346333D01*
X11993571Y-39298714D01*
X12088809Y-39251095D01*
X12326904Y-39251095D01*
X12422142Y-39298714D01*
X12469761Y-39346333D01*
X12517380Y-39441571D01*
X12517380Y-39727285D01*
X12469761Y-39822523D01*
X12422142Y-39870142D01*
%TO.C,R3*%
X15765754Y-32707801D02*
X15432421Y-32231611D01*
X15194325Y-32707801D02*
X15194325Y-31707801D01*
X15575278Y-31707801D01*
X15670516Y-31755421D01*
X15718135Y-31803040D01*
X15765754Y-31898278D01*
X15765754Y-32041135D01*
X15718135Y-32136373D01*
X15670516Y-32183992D01*
X15575278Y-32231611D01*
X15194325Y-32231611D01*
X16099087Y-31707801D02*
X16718135Y-31707801D01*
X16384801Y-32088754D01*
X16527659Y-32088754D01*
X16622897Y-32136373D01*
X16670516Y-32183992D01*
X16718135Y-32279230D01*
X16718135Y-32517325D01*
X16670516Y-32612563D01*
X16622897Y-32660182D01*
X16527659Y-32707801D01*
X16241944Y-32707801D01*
X16146706Y-32660182D01*
X16099087Y-32612563D01*
%TO.C,R10*%
X-13800057Y-37917380D02*
X-14133390Y-37441190D01*
X-14371485Y-37917380D02*
X-14371485Y-36917380D01*
X-13990533Y-36917380D01*
X-13895295Y-36965000D01*
X-13847676Y-37012619D01*
X-13800057Y-37107857D01*
X-13800057Y-37250714D01*
X-13847676Y-37345952D01*
X-13895295Y-37393571D01*
X-13990533Y-37441190D01*
X-14371485Y-37441190D01*
X-12847676Y-37917380D02*
X-13419104Y-37917380D01*
X-13133390Y-37917380D02*
X-13133390Y-36917380D01*
X-13228628Y-37060238D01*
X-13323866Y-37155476D01*
X-13419104Y-37203095D01*
X-12228628Y-36917380D02*
X-12133390Y-36917380D01*
X-12038152Y-36965000D01*
X-11990533Y-37012619D01*
X-11942914Y-37107857D01*
X-11895295Y-37298333D01*
X-11895295Y-37536428D01*
X-11942914Y-37726904D01*
X-11990533Y-37822142D01*
X-12038152Y-37869761D01*
X-12133390Y-37917380D01*
X-12228628Y-37917380D01*
X-12323866Y-37869761D01*
X-12371485Y-37822142D01*
X-12419104Y-37726904D01*
X-12466723Y-37536428D01*
X-12466723Y-37298333D01*
X-12419104Y-37107857D01*
X-12371485Y-37012619D01*
X-12323866Y-36965000D01*
X-12228628Y-36917380D01*
%TO.C,U6*%
X1738380Y-74802904D02*
X2547904Y-74802904D01*
X2643142Y-74755285D01*
X2690761Y-74707666D01*
X2738380Y-74612428D01*
X2738380Y-74421952D01*
X2690761Y-74326714D01*
X2643142Y-74279095D01*
X2547904Y-74231476D01*
X1738380Y-74231476D01*
X1738380Y-73326714D02*
X1738380Y-73517190D01*
X1786000Y-73612428D01*
X1833619Y-73660047D01*
X1976476Y-73755285D01*
X2166952Y-73802904D01*
X2547904Y-73802904D01*
X2643142Y-73755285D01*
X2690761Y-73707666D01*
X2738380Y-73612428D01*
X2738380Y-73421952D01*
X2690761Y-73326714D01*
X2643142Y-73279095D01*
X2547904Y-73231476D01*
X2309809Y-73231476D01*
X2214571Y-73279095D01*
X2166952Y-73326714D01*
X2119333Y-73421952D01*
X2119333Y-73612428D01*
X2166952Y-73707666D01*
X2214571Y-73755285D01*
X2309809Y-73802904D01*
%TO.C,D4*%
X-17883095Y-24582380D02*
X-17883095Y-23582380D01*
X-17645000Y-23582380D01*
X-17502142Y-23630000D01*
X-17406904Y-23725238D01*
X-17359285Y-23820476D01*
X-17311666Y-24010952D01*
X-17311666Y-24153809D01*
X-17359285Y-24344285D01*
X-17406904Y-24439523D01*
X-17502142Y-24534761D01*
X-17645000Y-24582380D01*
X-17883095Y-24582380D01*
X-16454523Y-23915714D02*
X-16454523Y-24582380D01*
X-16692619Y-23534761D02*
X-16930714Y-24249047D01*
X-16311666Y-24249047D01*
%TO.C,U4*%
X9104380Y-32257904D02*
X9913904Y-32257904D01*
X10009142Y-32210285D01*
X10056761Y-32162666D01*
X10104380Y-32067428D01*
X10104380Y-31876952D01*
X10056761Y-31781714D01*
X10009142Y-31734095D01*
X9913904Y-31686476D01*
X9104380Y-31686476D01*
X9437714Y-30781714D02*
X10104380Y-30781714D01*
X9056761Y-31019809D02*
X9771047Y-31257904D01*
X9771047Y-30638857D01*
%TO.C,C8*%
X12422142Y-43926666D02*
X12469761Y-43974285D01*
X12517380Y-44117142D01*
X12517380Y-44212380D01*
X12469761Y-44355238D01*
X12374523Y-44450476D01*
X12279285Y-44498095D01*
X12088809Y-44545714D01*
X11945952Y-44545714D01*
X11755476Y-44498095D01*
X11660238Y-44450476D01*
X11565000Y-44355238D01*
X11517380Y-44212380D01*
X11517380Y-44117142D01*
X11565000Y-43974285D01*
X11612619Y-43926666D01*
X11945952Y-43355238D02*
X11898333Y-43450476D01*
X11850714Y-43498095D01*
X11755476Y-43545714D01*
X11707857Y-43545714D01*
X11612619Y-43498095D01*
X11565000Y-43450476D01*
X11517380Y-43355238D01*
X11517380Y-43164761D01*
X11565000Y-43069523D01*
X11612619Y-43021904D01*
X11707857Y-42974285D01*
X11755476Y-42974285D01*
X11850714Y-43021904D01*
X11898333Y-43069523D01*
X11945952Y-43164761D01*
X11945952Y-43355238D01*
X11993571Y-43450476D01*
X12041190Y-43498095D01*
X12136428Y-43545714D01*
X12326904Y-43545714D01*
X12422142Y-43498095D01*
X12469761Y-43450476D01*
X12517380Y-43355238D01*
X12517380Y-43164761D01*
X12469761Y-43069523D01*
X12422142Y-43021904D01*
X12326904Y-42974285D01*
X12136428Y-42974285D01*
X12041190Y-43021904D01*
X11993571Y-43069523D01*
X11945952Y-43164761D01*
%TO.C,U2*%
X468380Y-43306904D02*
X1277904Y-43306904D01*
X1373142Y-43259285D01*
X1420761Y-43211666D01*
X1468380Y-43116428D01*
X1468380Y-42925952D01*
X1420761Y-42830714D01*
X1373142Y-42783095D01*
X1277904Y-42735476D01*
X468380Y-42735476D01*
X563619Y-42306904D02*
X516000Y-42259285D01*
X468380Y-42164047D01*
X468380Y-41925952D01*
X516000Y-41830714D01*
X563619Y-41783095D01*
X658857Y-41735476D01*
X754095Y-41735476D01*
X896952Y-41783095D01*
X1468380Y-42354523D01*
X1468380Y-41735476D01*
%TO.C,RN9*%
X3246523Y-25977380D02*
X2913190Y-25501190D01*
X2675095Y-25977380D02*
X2675095Y-24977380D01*
X3056047Y-24977380D01*
X3151285Y-25025000D01*
X3198904Y-25072619D01*
X3246523Y-25167857D01*
X3246523Y-25310714D01*
X3198904Y-25405952D01*
X3151285Y-25453571D01*
X3056047Y-25501190D01*
X2675095Y-25501190D01*
X3675095Y-25977380D02*
X3675095Y-24977380D01*
X4246523Y-25977380D01*
X4246523Y-24977380D01*
X4770333Y-25977380D02*
X4960809Y-25977380D01*
X5056047Y-25929761D01*
X5103666Y-25882142D01*
X5198904Y-25739285D01*
X5246523Y-25548809D01*
X5246523Y-25167857D01*
X5198904Y-25072619D01*
X5151285Y-25025000D01*
X5056047Y-24977380D01*
X4865571Y-24977380D01*
X4770333Y-25025000D01*
X4722714Y-25072619D01*
X4675095Y-25167857D01*
X4675095Y-25405952D01*
X4722714Y-25501190D01*
X4770333Y-25548809D01*
X4865571Y-25596428D01*
X5056047Y-25596428D01*
X5151285Y-25548809D01*
X5198904Y-25501190D01*
X5246523Y-25405952D01*
%TO.C,C24*%
X11439142Y-29090857D02*
X11486761Y-29138476D01*
X11534380Y-29281333D01*
X11534380Y-29376571D01*
X11486761Y-29519428D01*
X11391523Y-29614666D01*
X11296285Y-29662285D01*
X11105809Y-29709904D01*
X10962952Y-29709904D01*
X10772476Y-29662285D01*
X10677238Y-29614666D01*
X10582000Y-29519428D01*
X10534380Y-29376571D01*
X10534380Y-29281333D01*
X10582000Y-29138476D01*
X10629619Y-29090857D01*
X10629619Y-28709904D02*
X10582000Y-28662285D01*
X10534380Y-28567047D01*
X10534380Y-28328952D01*
X10582000Y-28233714D01*
X10629619Y-28186095D01*
X10724857Y-28138476D01*
X10820095Y-28138476D01*
X10962952Y-28186095D01*
X11534380Y-28757523D01*
X11534380Y-28138476D01*
X10867714Y-27281333D02*
X11534380Y-27281333D01*
X10486761Y-27519428D02*
X11201047Y-27757523D01*
X11201047Y-27138476D01*
%TO.C,R7*%
X-13323866Y-24582380D02*
X-13657200Y-24106190D01*
X-13895295Y-24582380D02*
X-13895295Y-23582380D01*
X-13514342Y-23582380D01*
X-13419104Y-23630000D01*
X-13371485Y-23677619D01*
X-13323866Y-23772857D01*
X-13323866Y-23915714D01*
X-13371485Y-24010952D01*
X-13419104Y-24058571D01*
X-13514342Y-24106190D01*
X-13895295Y-24106190D01*
X-12990533Y-23582380D02*
X-12323866Y-23582380D01*
X-12752438Y-24582380D01*
%TO.C,C32*%
X1500142Y-79636857D02*
X1547761Y-79684476D01*
X1595380Y-79827333D01*
X1595380Y-79922571D01*
X1547761Y-80065428D01*
X1452523Y-80160666D01*
X1357285Y-80208285D01*
X1166809Y-80255904D01*
X1023952Y-80255904D01*
X833476Y-80208285D01*
X738238Y-80160666D01*
X643000Y-80065428D01*
X595380Y-79922571D01*
X595380Y-79827333D01*
X643000Y-79684476D01*
X690619Y-79636857D01*
X595380Y-79303523D02*
X595380Y-78684476D01*
X976333Y-79017809D01*
X976333Y-78874952D01*
X1023952Y-78779714D01*
X1071571Y-78732095D01*
X1166809Y-78684476D01*
X1404904Y-78684476D01*
X1500142Y-78732095D01*
X1547761Y-78779714D01*
X1595380Y-78874952D01*
X1595380Y-79160666D01*
X1547761Y-79255904D01*
X1500142Y-79303523D01*
X690619Y-78303523D02*
X643000Y-78255904D01*
X595380Y-78160666D01*
X595380Y-77922571D01*
X643000Y-77827333D01*
X690619Y-77779714D01*
X785857Y-77732095D01*
X881095Y-77732095D01*
X1023952Y-77779714D01*
X1595380Y-78351142D01*
X1595380Y-77732095D01*
%TO.C,RN1*%
X10485523Y-68076380D02*
X10152190Y-67600190D01*
X9914095Y-68076380D02*
X9914095Y-67076380D01*
X10295047Y-67076380D01*
X10390285Y-67124000D01*
X10437904Y-67171619D01*
X10485523Y-67266857D01*
X10485523Y-67409714D01*
X10437904Y-67504952D01*
X10390285Y-67552571D01*
X10295047Y-67600190D01*
X9914095Y-67600190D01*
X10914095Y-68076380D02*
X10914095Y-67076380D01*
X11485523Y-68076380D01*
X11485523Y-67076380D01*
X12485523Y-68076380D02*
X11914095Y-68076380D01*
X12199809Y-68076380D02*
X12199809Y-67076380D01*
X12104571Y-67219238D01*
X12009333Y-67314476D01*
X11914095Y-67362095D01*
%TO.C,D10*%
X-18435485Y-107132380D02*
X-18435485Y-106132380D01*
X-18197390Y-106132380D01*
X-18054533Y-106180000D01*
X-17959295Y-106275238D01*
X-17911676Y-106370476D01*
X-17864057Y-106560952D01*
X-17864057Y-106703809D01*
X-17911676Y-106894285D01*
X-17959295Y-106989523D01*
X-18054533Y-107084761D01*
X-18197390Y-107132380D01*
X-18435485Y-107132380D01*
X-16911676Y-107132380D02*
X-17483104Y-107132380D01*
X-17197390Y-107132380D02*
X-17197390Y-106132380D01*
X-17292628Y-106275238D01*
X-17387866Y-106370476D01*
X-17483104Y-106418095D01*
X-16292628Y-106132380D02*
X-16197390Y-106132380D01*
X-16102152Y-106180000D01*
X-16054533Y-106227619D01*
X-16006914Y-106322857D01*
X-15959295Y-106513333D01*
X-15959295Y-106751428D01*
X-16006914Y-106941904D01*
X-16054533Y-107037142D01*
X-16102152Y-107084761D01*
X-16197390Y-107132380D01*
X-16292628Y-107132380D01*
X-16387866Y-107084761D01*
X-16435485Y-107037142D01*
X-16483104Y-106941904D01*
X-16530723Y-106751428D01*
X-16530723Y-106513333D01*
X-16483104Y-106322857D01*
X-16435485Y-106227619D01*
X-16387866Y-106180000D01*
X-16292628Y-106132380D01*
%TO.C,RN5*%
X579523Y-11187380D02*
X246190Y-10711190D01*
X8095Y-11187380D02*
X8095Y-10187380D01*
X389047Y-10187380D01*
X484285Y-10235000D01*
X531904Y-10282619D01*
X579523Y-10377857D01*
X579523Y-10520714D01*
X531904Y-10615952D01*
X484285Y-10663571D01*
X389047Y-10711190D01*
X8095Y-10711190D01*
X1008095Y-11187380D02*
X1008095Y-10187380D01*
X1579523Y-11187380D01*
X1579523Y-10187380D01*
X2531904Y-10187380D02*
X2055714Y-10187380D01*
X2008095Y-10663571D01*
X2055714Y-10615952D01*
X2150952Y-10568333D01*
X2389047Y-10568333D01*
X2484285Y-10615952D01*
X2531904Y-10663571D01*
X2579523Y-10758809D01*
X2579523Y-10996904D01*
X2531904Y-11092142D01*
X2484285Y-11139761D01*
X2389047Y-11187380D01*
X2150952Y-11187380D01*
X2055714Y-11139761D01*
X2008095Y-11092142D01*
%TO.C,D9*%
X-17984695Y-93162380D02*
X-17984695Y-92162380D01*
X-17746600Y-92162380D01*
X-17603742Y-92210000D01*
X-17508504Y-92305238D01*
X-17460885Y-92400476D01*
X-17413266Y-92590952D01*
X-17413266Y-92733809D01*
X-17460885Y-92924285D01*
X-17508504Y-93019523D01*
X-17603742Y-93114761D01*
X-17746600Y-93162380D01*
X-17984695Y-93162380D01*
X-16937076Y-93162380D02*
X-16746600Y-93162380D01*
X-16651361Y-93114761D01*
X-16603742Y-93067142D01*
X-16508504Y-92924285D01*
X-16460885Y-92733809D01*
X-16460885Y-92352857D01*
X-16508504Y-92257619D01*
X-16556123Y-92210000D01*
X-16651361Y-92162380D01*
X-16841838Y-92162380D01*
X-16937076Y-92210000D01*
X-16984695Y-92257619D01*
X-17032314Y-92352857D01*
X-17032314Y-92590952D01*
X-16984695Y-92686190D01*
X-16937076Y-92733809D01*
X-16841838Y-92781428D01*
X-16651361Y-92781428D01*
X-16556123Y-92733809D01*
X-16508504Y-92686190D01*
X-16460885Y-92590952D01*
%TO.C,C21*%
X-534725Y-13275023D02*
X-487106Y-13322642D01*
X-439487Y-13465499D01*
X-439487Y-13560737D01*
X-487106Y-13703594D01*
X-582344Y-13798832D01*
X-677582Y-13846451D01*
X-868058Y-13894070D01*
X-1010915Y-13894070D01*
X-1201391Y-13846451D01*
X-1296629Y-13798832D01*
X-1391868Y-13703594D01*
X-1439487Y-13560737D01*
X-1439487Y-13465499D01*
X-1391868Y-13322642D01*
X-1344248Y-13275023D01*
X-1344248Y-12894070D02*
X-1391868Y-12846451D01*
X-1439487Y-12751213D01*
X-1439487Y-12513118D01*
X-1391868Y-12417880D01*
X-1344248Y-12370261D01*
X-1249010Y-12322642D01*
X-1153772Y-12322642D01*
X-1010915Y-12370261D01*
X-439487Y-12941689D01*
X-439487Y-12322642D01*
X-439487Y-11370261D02*
X-439487Y-11941689D01*
X-439487Y-11655975D02*
X-1439487Y-11655975D01*
X-1296629Y-11751213D01*
X-1201391Y-11846451D01*
X-1153772Y-11941689D01*
%TO.C,RN10*%
X5818333Y-68397380D02*
X5485000Y-67921190D01*
X5246904Y-68397380D02*
X5246904Y-67397380D01*
X5627857Y-67397380D01*
X5723095Y-67445000D01*
X5770714Y-67492619D01*
X5818333Y-67587857D01*
X5818333Y-67730714D01*
X5770714Y-67825952D01*
X5723095Y-67873571D01*
X5627857Y-67921190D01*
X5246904Y-67921190D01*
X6246904Y-68397380D02*
X6246904Y-67397380D01*
X6818333Y-68397380D01*
X6818333Y-67397380D01*
X7818333Y-68397380D02*
X7246904Y-68397380D01*
X7532619Y-68397380D02*
X7532619Y-67397380D01*
X7437380Y-67540238D01*
X7342142Y-67635476D01*
X7246904Y-67683095D01*
X8437380Y-67397380D02*
X8532619Y-67397380D01*
X8627857Y-67445000D01*
X8675476Y-67492619D01*
X8723095Y-67587857D01*
X8770714Y-67778333D01*
X8770714Y-68016428D01*
X8723095Y-68206904D01*
X8675476Y-68302142D01*
X8627857Y-68349761D01*
X8532619Y-68397380D01*
X8437380Y-68397380D01*
X8342142Y-68349761D01*
X8294523Y-68302142D01*
X8246904Y-68206904D01*
X8199285Y-68016428D01*
X8199285Y-67778333D01*
X8246904Y-67587857D01*
X8294523Y-67492619D01*
X8342142Y-67445000D01*
X8437380Y-67397380D01*
%TO.C,R19*%
X-13410399Y-93162380D02*
X-13743732Y-92686190D01*
X-13981827Y-93162380D02*
X-13981827Y-92162380D01*
X-13600875Y-92162380D01*
X-13505637Y-92210000D01*
X-13458018Y-92257619D01*
X-13410399Y-92352857D01*
X-13410399Y-92495714D01*
X-13458018Y-92590952D01*
X-13505637Y-92638571D01*
X-13600875Y-92686190D01*
X-13981827Y-92686190D01*
X-12458018Y-93162380D02*
X-13029446Y-93162380D01*
X-12743732Y-93162380D02*
X-12743732Y-92162380D01*
X-12838970Y-92305238D01*
X-12934208Y-92400476D01*
X-13029446Y-92448095D01*
X-11981827Y-93162380D02*
X-11791351Y-93162380D01*
X-11696113Y-93114761D01*
X-11648494Y-93067142D01*
X-11553256Y-92924285D01*
X-11505637Y-92733809D01*
X-11505637Y-92352857D01*
X-11553256Y-92257619D01*
X-11600875Y-92210000D01*
X-11696113Y-92162380D01*
X-11886589Y-92162380D01*
X-11981827Y-92210000D01*
X-12029446Y-92257619D01*
X-12077065Y-92352857D01*
X-12077065Y-92590952D01*
X-12029446Y-92686190D01*
X-11981827Y-92733809D01*
X-11886589Y-92781428D01*
X-11696113Y-92781428D01*
X-11600875Y-92733809D01*
X-11553256Y-92686190D01*
X-11505637Y-92590952D01*
%TO.C,J9*%
X-1717619Y-85027274D02*
X-1003333Y-85027274D01*
X-860476Y-85074893D01*
X-765238Y-85170131D01*
X-717619Y-85312988D01*
X-717619Y-85408226D01*
X-717619Y-84503464D02*
X-717619Y-84312988D01*
X-765238Y-84217750D01*
X-812857Y-84170131D01*
X-955714Y-84074893D01*
X-1146190Y-84027274D01*
X-1527142Y-84027274D01*
X-1622380Y-84074893D01*
X-1670000Y-84122512D01*
X-1717619Y-84217750D01*
X-1717619Y-84408226D01*
X-1670000Y-84503464D01*
X-1622380Y-84551083D01*
X-1527142Y-84598702D01*
X-1289047Y-84598702D01*
X-1193809Y-84551083D01*
X-1146190Y-84503464D01*
X-1098571Y-84408226D01*
X-1098571Y-84217750D01*
X-1146190Y-84122512D01*
X-1193809Y-84074893D01*
X-1289047Y-84027274D01*
%TO.C,C7*%
X18629333Y-85955142D02*
X18581714Y-86002761D01*
X18438857Y-86050380D01*
X18343619Y-86050380D01*
X18200761Y-86002761D01*
X18105523Y-85907523D01*
X18057904Y-85812285D01*
X18010285Y-85621809D01*
X18010285Y-85478952D01*
X18057904Y-85288476D01*
X18105523Y-85193238D01*
X18200761Y-85098000D01*
X18343619Y-85050380D01*
X18438857Y-85050380D01*
X18581714Y-85098000D01*
X18629333Y-85145619D01*
X18962666Y-85050380D02*
X19629333Y-85050380D01*
X19200761Y-86050380D01*
%TO.C,C26*%
X1627142Y-29090857D02*
X1674761Y-29138476D01*
X1722380Y-29281333D01*
X1722380Y-29376571D01*
X1674761Y-29519428D01*
X1579523Y-29614666D01*
X1484285Y-29662285D01*
X1293809Y-29709904D01*
X1150952Y-29709904D01*
X960476Y-29662285D01*
X865238Y-29614666D01*
X770000Y-29519428D01*
X722380Y-29376571D01*
X722380Y-29281333D01*
X770000Y-29138476D01*
X817619Y-29090857D01*
X817619Y-28709904D02*
X770000Y-28662285D01*
X722380Y-28567047D01*
X722380Y-28328952D01*
X770000Y-28233714D01*
X817619Y-28186095D01*
X912857Y-28138476D01*
X1008095Y-28138476D01*
X1150952Y-28186095D01*
X1722380Y-28757523D01*
X1722380Y-28138476D01*
X722380Y-27281333D02*
X722380Y-27471809D01*
X770000Y-27567047D01*
X817619Y-27614666D01*
X960476Y-27709904D01*
X1150952Y-27757523D01*
X1531904Y-27757523D01*
X1627142Y-27709904D01*
X1674761Y-27662285D01*
X1722380Y-27567047D01*
X1722380Y-27376571D01*
X1674761Y-27281333D01*
X1627142Y-27233714D01*
X1531904Y-27186095D01*
X1293809Y-27186095D01*
X1198571Y-27233714D01*
X1150952Y-27281333D01*
X1103333Y-27376571D01*
X1103333Y-27567047D01*
X1150952Y-27662285D01*
X1198571Y-27709904D01*
X1293809Y-27757523D01*
%TO.C,RN4*%
X9148380Y-4246476D02*
X8672190Y-4579809D01*
X9148380Y-4817904D02*
X8148380Y-4817904D01*
X8148380Y-4436952D01*
X8196000Y-4341714D01*
X8243619Y-4294095D01*
X8338857Y-4246476D01*
X8481714Y-4246476D01*
X8576952Y-4294095D01*
X8624571Y-4341714D01*
X8672190Y-4436952D01*
X8672190Y-4817904D01*
X9148380Y-3817904D02*
X8148380Y-3817904D01*
X9148380Y-3246476D01*
X8148380Y-3246476D01*
X8481714Y-2341714D02*
X9148380Y-2341714D01*
X8100761Y-2579809D02*
X8815047Y-2817904D01*
X8815047Y-2198857D01*
%TO.C,C10*%
X7745919Y-63503937D02*
X7698300Y-63551556D01*
X7555443Y-63599175D01*
X7460205Y-63599175D01*
X7317348Y-63551556D01*
X7222110Y-63456318D01*
X7174491Y-63361080D01*
X7126872Y-63170604D01*
X7126872Y-63027747D01*
X7174491Y-62837271D01*
X7222110Y-62742033D01*
X7317348Y-62646795D01*
X7460205Y-62599175D01*
X7555443Y-62599175D01*
X7698300Y-62646795D01*
X7745919Y-62694414D01*
X8698300Y-63599175D02*
X8126872Y-63599175D01*
X8412586Y-63599175D02*
X8412586Y-62599175D01*
X8317348Y-62742033D01*
X8222110Y-62837271D01*
X8126872Y-62884890D01*
X9317348Y-62599175D02*
X9412586Y-62599175D01*
X9507824Y-62646795D01*
X9555443Y-62694414D01*
X9603062Y-62789652D01*
X9650681Y-62980128D01*
X9650681Y-63218223D01*
X9603062Y-63408699D01*
X9555443Y-63503937D01*
X9507824Y-63551556D01*
X9412586Y-63599175D01*
X9317348Y-63599175D01*
X9222110Y-63551556D01*
X9174491Y-63503937D01*
X9126872Y-63408699D01*
X9079253Y-63218223D01*
X9079253Y-62980128D01*
X9126872Y-62789652D01*
X9174491Y-62694414D01*
X9222110Y-62646795D01*
X9317348Y-62599175D01*
%TO.C,J2*%
X15536666Y-71842380D02*
X15536666Y-72556666D01*
X15489047Y-72699523D01*
X15393809Y-72794761D01*
X15250952Y-72842380D01*
X15155714Y-72842380D01*
X15965238Y-71937619D02*
X16012857Y-71890000D01*
X16108095Y-71842380D01*
X16346190Y-71842380D01*
X16441428Y-71890000D01*
X16489047Y-71937619D01*
X16536666Y-72032857D01*
X16536666Y-72128095D01*
X16489047Y-72270952D01*
X15917619Y-72842380D01*
X16536666Y-72842380D01*
%TO.C,C29*%
X-2817857Y-65285857D02*
X-2770238Y-65333476D01*
X-2722619Y-65476333D01*
X-2722619Y-65571571D01*
X-2770238Y-65714428D01*
X-2865476Y-65809666D01*
X-2960714Y-65857285D01*
X-3151190Y-65904904D01*
X-3294047Y-65904904D01*
X-3484523Y-65857285D01*
X-3579761Y-65809666D01*
X-3675000Y-65714428D01*
X-3722619Y-65571571D01*
X-3722619Y-65476333D01*
X-3675000Y-65333476D01*
X-3627380Y-65285857D01*
X-3627380Y-64904904D02*
X-3675000Y-64857285D01*
X-3722619Y-64762047D01*
X-3722619Y-64523952D01*
X-3675000Y-64428714D01*
X-3627380Y-64381095D01*
X-3532142Y-64333476D01*
X-3436904Y-64333476D01*
X-3294047Y-64381095D01*
X-2722619Y-64952523D01*
X-2722619Y-64333476D01*
X-2722619Y-63857285D02*
X-2722619Y-63666809D01*
X-2770238Y-63571571D01*
X-2817857Y-63523952D01*
X-2960714Y-63428714D01*
X-3151190Y-63381095D01*
X-3532142Y-63381095D01*
X-3627380Y-63428714D01*
X-3675000Y-63476333D01*
X-3722619Y-63571571D01*
X-3722619Y-63762047D01*
X-3675000Y-63857285D01*
X-3627380Y-63904904D01*
X-3532142Y-63952523D01*
X-3294047Y-63952523D01*
X-3198809Y-63904904D01*
X-3151190Y-63857285D01*
X-3103571Y-63762047D01*
X-3103571Y-63571571D01*
X-3151190Y-63476333D01*
X-3198809Y-63428714D01*
X-3294047Y-63381095D01*
%TO.C,J8*%
X-1717619Y-72723333D02*
X-1003333Y-72723333D01*
X-860476Y-72770952D01*
X-765238Y-72866190D01*
X-717619Y-73009047D01*
X-717619Y-73104285D01*
X-1289047Y-72104285D02*
X-1336666Y-72199523D01*
X-1384285Y-72247142D01*
X-1479523Y-72294761D01*
X-1527142Y-72294761D01*
X-1622380Y-72247142D01*
X-1670000Y-72199523D01*
X-1717619Y-72104285D01*
X-1717619Y-71913809D01*
X-1670000Y-71818571D01*
X-1622380Y-71770952D01*
X-1527142Y-71723333D01*
X-1479523Y-71723333D01*
X-1384285Y-71770952D01*
X-1336666Y-71818571D01*
X-1289047Y-71913809D01*
X-1289047Y-72104285D01*
X-1241428Y-72199523D01*
X-1193809Y-72247142D01*
X-1098571Y-72294761D01*
X-908095Y-72294761D01*
X-812857Y-72247142D01*
X-765238Y-72199523D01*
X-717619Y-72104285D01*
X-717619Y-71913809D01*
X-765238Y-71818571D01*
X-812857Y-71770952D01*
X-908095Y-71723333D01*
X-1098571Y-71723333D01*
X-1193809Y-71770952D01*
X-1241428Y-71818571D01*
X-1289047Y-71913809D01*
%TO.C,C2*%
X1103333Y-96098142D02*
X1055714Y-96145761D01*
X912857Y-96193380D01*
X817619Y-96193380D01*
X674761Y-96145761D01*
X579523Y-96050523D01*
X531904Y-95955285D01*
X484285Y-95764809D01*
X484285Y-95621952D01*
X531904Y-95431476D01*
X579523Y-95336238D01*
X674761Y-95241000D01*
X817619Y-95193380D01*
X912857Y-95193380D01*
X1055714Y-95241000D01*
X1103333Y-95288619D01*
X1484285Y-95288619D02*
X1531904Y-95241000D01*
X1627142Y-95193380D01*
X1865238Y-95193380D01*
X1960476Y-95241000D01*
X2008095Y-95288619D01*
X2055714Y-95383857D01*
X2055714Y-95479095D01*
X2008095Y-95621952D01*
X1436666Y-96193380D01*
X2055714Y-96193380D01*
D13*
%TO.C,R5*%
X-237258Y-20207500D02*
X237258Y-20207500D01*
X-237258Y-19162500D02*
X237258Y-19162500D01*
%TO.C,C20*%
X2030000Y-34938580D02*
X2030000Y-34657420D01*
X3050000Y-34938580D02*
X3050000Y-34657420D01*
%TO.C,D8*%
X-15646600Y-80195800D02*
X-19531600Y-80195800D01*
X-19531600Y-80195800D02*
X-19531600Y-82465800D01*
X-19531600Y-82465800D02*
X-15646600Y-82465800D01*
%TO.C,U7*%
X6915000Y-84455000D02*
X6915000Y-82255000D01*
X6915000Y-84455000D02*
X6915000Y-86655000D01*
X12135000Y-84455000D02*
X12135000Y-80855000D01*
X12135000Y-84455000D02*
X12135000Y-86655000D01*
%TO.C,R14*%
X237258Y-61482500D02*
X-237258Y-61482500D01*
X237258Y-60437500D02*
X-237258Y-60437500D01*
%TO.C,R9*%
X12970742Y-27925500D02*
X13445258Y-27925500D01*
X12970742Y-28970500D02*
X13445258Y-28970500D01*
%TO.C,C4*%
X7125580Y-48639000D02*
X6844420Y-48639000D01*
X7125580Y-49659000D02*
X6844420Y-49659000D01*
%TO.C,C15*%
X10539000Y-70244580D02*
X10539000Y-69963420D01*
X11559000Y-70244580D02*
X11559000Y-69963420D01*
%TO.C,R4*%
X-13445258Y-12075900D02*
X-12970742Y-12075900D01*
X-13445258Y-13120900D02*
X-12970742Y-13120900D01*
%TO.C,R15*%
X-12640542Y-67092300D02*
X-13115058Y-67092300D01*
X-12640542Y-68137300D02*
X-13115058Y-68137300D01*
%TO.C,D5*%
X-19531600Y-38946200D02*
X-19531600Y-41216200D01*
X-19531600Y-41216200D02*
X-15646600Y-41216200D01*
X-15646600Y-38946200D02*
X-19531600Y-38946200D01*
%TO.C,C23*%
X-3315580Y-25906000D02*
X-3034420Y-25906000D01*
X-3315580Y-26926000D02*
X-3034420Y-26926000D01*
%TO.C,D2*%
X10525000Y-105070000D02*
X10525000Y-101220000D01*
X8525000Y-105070000D02*
X10525000Y-105070000D01*
X8525000Y-105070000D02*
X8525000Y-101220000D01*
%TO.C,R6*%
X12970742Y-34685500D02*
X13445258Y-34685500D01*
X12970742Y-33640500D02*
X13445258Y-33640500D01*
%TO.C,C11*%
X9200000Y-51735000D02*
X13110000Y-51735000D01*
X13110000Y-49865000D02*
X9200000Y-49865000D01*
X9200000Y-49865000D02*
X9200000Y-51735000D01*
%TO.C,D7*%
X-19506200Y-66429000D02*
X-19506200Y-68699000D01*
X-15621200Y-66429000D02*
X-19506200Y-66429000D01*
X-19506200Y-68699000D02*
X-15621200Y-68699000D01*
%TO.C,C31*%
X-3034420Y-81790000D02*
X-3315580Y-81790000D01*
X-3034420Y-80770000D02*
X-3315580Y-80770000D01*
%TO.C,C34*%
X7987420Y-77214000D02*
X8268580Y-77214000D01*
X7987420Y-78234000D02*
X8268580Y-78234000D01*
%TO.C,C22*%
X10162000Y-34938580D02*
X10162000Y-34657420D01*
X9142000Y-34938580D02*
X9142000Y-34657420D01*
%TO.C,RN14*%
X2110000Y-78910000D02*
X2110000Y-81110000D01*
X5510000Y-78910000D02*
X5510000Y-81110000D01*
%TO.C,D6*%
X-15646600Y-52687600D02*
X-19531600Y-52687600D01*
X-19531600Y-52687600D02*
X-19531600Y-54957600D01*
X-19531600Y-54957600D02*
X-15646600Y-54957600D01*
%TO.C,R18*%
X237258Y-88787500D02*
X-237258Y-88787500D01*
X237258Y-87742500D02*
X-237258Y-87742500D01*
%TO.C,C9*%
X17009420Y-40765000D02*
X17290580Y-40765000D01*
X17009420Y-41785000D02*
X17290580Y-41785000D01*
%TO.C,C25*%
X-3569580Y-39622000D02*
X-3288420Y-39622000D01*
X-3569580Y-40642000D02*
X-3288420Y-40642000D01*
%TO.C,U3*%
X7535000Y-51705000D02*
X7535000Y-51230000D01*
X2315000Y-51230000D02*
X2790000Y-51230000D01*
X7535000Y-51230000D02*
X7060000Y-51230000D01*
X2315000Y-55975000D02*
X2315000Y-56450000D01*
X7535000Y-56450000D02*
X7060000Y-56450000D01*
X7535000Y-55975000D02*
X7535000Y-56450000D01*
X2315000Y-51705000D02*
X2315000Y-51230000D01*
%TO.C,C17*%
X11686000Y-13297780D02*
X11686000Y-13016620D01*
X10666000Y-13297780D02*
X10666000Y-13016620D01*
%TO.C,L3*%
X18778148Y-75597593D02*
X18778148Y-75272035D01*
X17758148Y-75597593D02*
X17758148Y-75272035D01*
D14*
%TO.C,J6*%
X-1970000Y-52464776D02*
X-1970000Y-41464776D01*
X-19470000Y-52464776D02*
X-9470000Y-52464776D01*
X-1970000Y-41464776D02*
X-19470000Y-41464776D01*
X-4470000Y-52464776D02*
X-1970000Y-52464776D01*
D13*
%TO.C,C33*%
X-3034420Y-95760000D02*
X-3315580Y-95760000D01*
X-3034420Y-94740000D02*
X-3315580Y-94740000D01*
%TO.C,RN11*%
X1475000Y-64305000D02*
X1475000Y-66505000D01*
X4875000Y-64305000D02*
X4875000Y-66505000D01*
%TO.C,L4*%
X15750000Y-75575279D02*
X15750000Y-75249721D01*
X14730000Y-75575279D02*
X14730000Y-75249721D01*
%TO.C,C1*%
X2320000Y-94278563D02*
X2320000Y-89823000D01*
X2320000Y-89823000D02*
X4020000Y-89823000D01*
X7840000Y-89823000D02*
X6140000Y-89823000D01*
X3395000Y-96208000D02*
X3395000Y-95583000D01*
X3384437Y-95343000D02*
X2320000Y-94278563D01*
X3082500Y-95895500D02*
X3707500Y-95895500D01*
X6775563Y-95343000D02*
X6140000Y-95343000D01*
X6775563Y-95343000D02*
X7840000Y-94278563D01*
X3384437Y-95343000D02*
X4020000Y-95343000D01*
X7840000Y-94278563D02*
X7840000Y-89823000D01*
%TO.C,RN2*%
X2364000Y-47836000D02*
X2364000Y-45636000D01*
X5764000Y-47836000D02*
X5764000Y-45636000D01*
%TO.C,RN13*%
X5545000Y-87425000D02*
X3345000Y-87425000D01*
X5545000Y-84025000D02*
X3345000Y-84025000D01*
%TO.C,RN12*%
X12530000Y-72595000D02*
X10330000Y-72595000D01*
X12530000Y-75995000D02*
X10330000Y-75995000D01*
%TO.C,J1*%
X15875000Y-102865000D02*
X15875000Y-105465000D01*
X18475000Y-105465000D02*
X17145000Y-105465000D01*
X18475000Y-104135000D02*
X18475000Y-105465000D01*
X18475000Y-102865000D02*
X15875000Y-102865000D01*
X13275000Y-105465000D02*
X13275000Y-92645000D01*
X18475000Y-102865000D02*
X18475000Y-92645000D01*
X18475000Y-92645000D02*
X13275000Y-92645000D01*
X15875000Y-105465000D02*
X13275000Y-105465000D01*
%TO.C,RN7*%
X10952000Y-22012000D02*
X10952000Y-24212000D01*
X7552000Y-22012000D02*
X7552000Y-24212000D01*
%TO.C,R11*%
X-237258Y-46467500D02*
X237258Y-46467500D01*
X-237258Y-47512500D02*
X237258Y-47512500D01*
%TO.C,C12*%
X14905000Y-35790000D02*
X13035000Y-35790000D01*
X14905000Y-39700000D02*
X14905000Y-35790000D01*
X13035000Y-35790000D02*
X13035000Y-39700000D01*
%TO.C,R2*%
X-237258Y-6237500D02*
X237258Y-6237500D01*
X-237258Y-5192500D02*
X237258Y-5192500D01*
%TO.C,R20*%
X-321542Y-103646500D02*
X-796058Y-103646500D01*
X-321542Y-102601500D02*
X-796058Y-102601500D01*
%TO.C,R21*%
X-12615142Y-108189500D02*
X-13089658Y-108189500D01*
X-12615142Y-109234500D02*
X-13089658Y-109234500D01*
%TO.C,RN3*%
X1964000Y-37252000D02*
X1964000Y-39452000D01*
X5364000Y-37252000D02*
X5364000Y-39452000D01*
%TO.C,D3*%
X-19506200Y-11463400D02*
X-19506200Y-13733400D01*
X-19506200Y-13733400D02*
X-15621200Y-13733400D01*
X-15621200Y-11463400D02*
X-19506200Y-11463400D01*
D14*
%TO.C,J3*%
X-19470000Y-11235611D02*
X-9470000Y-11235611D01*
X-1970000Y-235611D02*
X-19470000Y-235611D01*
X-4470000Y-11235611D02*
X-1970000Y-11235611D01*
X-1970000Y-11235611D02*
X-1970000Y-235611D01*
D13*
%TO.C,C14*%
X2945000Y-69515000D02*
X2945000Y-67645000D01*
X2945000Y-67645000D02*
X-965000Y-67645000D01*
X-965000Y-69515000D02*
X2945000Y-69515000D01*
%TO.C,D1*%
X8525000Y-96942000D02*
X8525000Y-93092000D01*
X8525000Y-96942000D02*
X10525000Y-96942000D01*
X10525000Y-96942000D02*
X10525000Y-93092000D01*
%TO.C,C16*%
X14143000Y-15518000D02*
X14143000Y-11608000D01*
X12273000Y-11608000D02*
X12273000Y-15518000D01*
X12273000Y-15518000D02*
X14143000Y-15518000D01*
%TO.C,C3*%
X13110000Y-47756800D02*
X9200000Y-47756800D01*
X9200000Y-49626800D02*
X13110000Y-49626800D01*
X9200000Y-47756800D02*
X9200000Y-49626800D01*
%TO.C,R17*%
X-12678142Y-80808300D02*
X-13152658Y-80808300D01*
X-12678142Y-81853300D02*
X-13152658Y-81853300D01*
%TO.C,C6*%
X3685000Y-59168420D02*
X3685000Y-59449580D01*
X2665000Y-59168420D02*
X2665000Y-59449580D01*
%TO.C,C35*%
X-3064963Y-109322750D02*
X-3346123Y-109322750D01*
X-3064963Y-108302750D02*
X-3346123Y-108302750D01*
%TO.C,C18*%
X18185000Y-86695000D02*
X14275000Y-86695000D01*
X18185000Y-88565000D02*
X18185000Y-86695000D01*
X14275000Y-88565000D02*
X18185000Y-88565000D01*
%TO.C,C30*%
X1395000Y-71514580D02*
X1395000Y-71233420D01*
X2415000Y-71514580D02*
X2415000Y-71233420D01*
%TO.C,C27*%
X-3315580Y-53465000D02*
X-3034420Y-53465000D01*
X-3315580Y-54485000D02*
X-3034420Y-54485000D01*
%TO.C,C5*%
X6015000Y-57811800D02*
X4145000Y-57811800D01*
X4145000Y-57811800D02*
X4145000Y-61721800D01*
X6015000Y-61721800D02*
X6015000Y-57811800D01*
%TO.C,RN6*%
X9540295Y-37247713D02*
X9540295Y-39447713D01*
X6140295Y-37247713D02*
X6140295Y-39447713D01*
%TO.C,U5*%
X9214000Y-10668000D02*
X9214000Y-7068000D01*
X9214000Y-10668000D02*
X9214000Y-12868000D01*
X3994000Y-10668000D02*
X3994000Y-12868000D01*
X3994000Y-10668000D02*
X3994000Y-8468000D01*
%TO.C,L2*%
X7457221Y-100155452D02*
X7782779Y-100155452D01*
X7457221Y-99135452D02*
X7782779Y-99135452D01*
%TO.C,U1*%
X17145000Y-42255000D02*
X17795000Y-42255000D01*
X17145000Y-42255000D02*
X15470000Y-42255000D01*
X17145000Y-45375000D02*
X17795000Y-45375000D01*
X17145000Y-45375000D02*
X16495000Y-45375000D01*
%TO.C,C28*%
X8761000Y-70244580D02*
X8761000Y-69963420D01*
X9781000Y-70244580D02*
X9781000Y-69963420D01*
%TO.C,C19*%
X16066380Y-90476800D02*
X15785220Y-90476800D01*
X16066380Y-89456800D02*
X15785220Y-89456800D01*
%TO.C,R16*%
X237258Y-76087500D02*
X-237258Y-76087500D01*
X237258Y-75042500D02*
X-237258Y-75042500D01*
D14*
%TO.C,J7*%
X-19470000Y-66207831D02*
X-9470000Y-66207831D01*
X-4470000Y-66207831D02*
X-1970000Y-66207831D01*
X-1970000Y-55207831D02*
X-19470000Y-55207831D01*
X-1970000Y-66207831D02*
X-1970000Y-55207831D01*
D13*
%TO.C,R1*%
X11415500Y-45482742D02*
X11415500Y-45957258D01*
X12460500Y-45482742D02*
X12460500Y-45957258D01*
%TO.C,R12*%
X12970742Y-29830500D02*
X13445258Y-29830500D01*
X12970742Y-30875500D02*
X13445258Y-30875500D01*
D14*
%TO.C,J4*%
X-1970000Y-24978666D02*
X-1970000Y-13978666D01*
X-1970000Y-13978666D02*
X-19470000Y-13978666D01*
X-4470000Y-24978666D02*
X-1970000Y-24978666D01*
X-19470000Y-24978666D02*
X-9470000Y-24978666D01*
%TO.C,J10*%
X-19470000Y-107437000D02*
X-9470000Y-107437000D01*
X-4470000Y-107437000D02*
X-1970000Y-107437000D01*
X-1970000Y-107437000D02*
X-1970000Y-96437000D01*
X-1970000Y-96437000D02*
X-19470000Y-96437000D01*
D13*
%TO.C,L1*%
X7457221Y-98305000D02*
X7782779Y-98305000D01*
X7457221Y-97285000D02*
X7782779Y-97285000D01*
%TO.C,RN8*%
X7396000Y-19132000D02*
X7396000Y-16932000D01*
X3996000Y-19132000D02*
X3996000Y-16932000D01*
D14*
%TO.C,J5*%
X-1970000Y-27721721D02*
X-19470000Y-27721721D01*
X-4470000Y-38721721D02*
X-1970000Y-38721721D01*
X-19470000Y-38721721D02*
X-9470000Y-38721721D01*
X-1970000Y-38721721D02*
X-1970000Y-27721721D01*
D13*
%TO.C,R13*%
X-13216658Y-54522900D02*
X-12742142Y-54522900D01*
X-13216658Y-53477900D02*
X-12742142Y-53477900D01*
%TO.C,R8*%
X-237258Y-32497500D02*
X237258Y-32497500D01*
X-237258Y-33542500D02*
X237258Y-33542500D01*
%TO.C,C13*%
X12575000Y-37324420D02*
X12575000Y-37605580D01*
X11555000Y-37324420D02*
X11555000Y-37605580D01*
%TO.C,R3*%
X12970742Y-31735500D02*
X13445258Y-31735500D01*
X12970742Y-32780500D02*
X13445258Y-32780500D01*
%TO.C,R10*%
X-13394458Y-40603700D02*
X-12919942Y-40603700D01*
X-13394458Y-39558700D02*
X-12919942Y-39558700D01*
%TO.C,U6*%
X3105000Y-73025000D02*
X3105000Y-70825000D01*
X8325000Y-73025000D02*
X8325000Y-69425000D01*
X3105000Y-73025000D02*
X3105000Y-75225000D01*
X8325000Y-73025000D02*
X8325000Y-75225000D01*
%TO.C,D4*%
X-15643600Y-25204800D02*
X-19528600Y-25204800D01*
X-19528600Y-25204800D02*
X-19528600Y-27474800D01*
X-19528600Y-27474800D02*
X-15643600Y-27474800D01*
%TO.C,U4*%
X3486000Y-31496000D02*
X3486000Y-35096000D01*
X8706000Y-31496000D02*
X8706000Y-29296000D01*
X3486000Y-31496000D02*
X3486000Y-29296000D01*
X8706000Y-31496000D02*
X8706000Y-33696000D01*
%TO.C,C8*%
X14905000Y-41805000D02*
X13035000Y-41805000D01*
X13035000Y-41805000D02*
X13035000Y-45715000D01*
X14905000Y-45715000D02*
X14905000Y-41805000D01*
%TO.C,U2*%
X6096000Y-44790000D02*
X9696000Y-44790000D01*
X6096000Y-41570000D02*
X3896000Y-41570000D01*
X6096000Y-41570000D02*
X8296000Y-41570000D01*
X6096000Y-44790000D02*
X3896000Y-44790000D01*
%TO.C,RN9*%
X2364000Y-22012000D02*
X2364000Y-24212000D01*
X5764000Y-22012000D02*
X5764000Y-24212000D01*
%TO.C,C24*%
X10162000Y-28307420D02*
X10162000Y-28588580D01*
X9142000Y-28307420D02*
X9142000Y-28588580D01*
%TO.C,R7*%
X-13394458Y-26836900D02*
X-12919942Y-26836900D01*
X-13394458Y-25791900D02*
X-12919942Y-25791900D01*
%TO.C,C32*%
X3442580Y-77214000D02*
X3161420Y-77214000D01*
X3442580Y-78234000D02*
X3161420Y-78234000D01*
%TO.C,RN1*%
X10076000Y-63324000D02*
X12276000Y-63324000D01*
X10076000Y-66724000D02*
X12276000Y-66724000D01*
%TO.C,D10*%
X-19506200Y-109821600D02*
X-15621200Y-109821600D01*
X-19506200Y-107551600D02*
X-19506200Y-109821600D01*
X-15621200Y-107551600D02*
X-19506200Y-107551600D01*
%TO.C,RN5*%
X2370000Y-11635000D02*
X170000Y-11635000D01*
X2370000Y-15035000D02*
X170000Y-15035000D01*
%TO.C,D9*%
X-19531600Y-96207200D02*
X-15646600Y-96207200D01*
X-15646600Y-93937200D02*
X-19531600Y-93937200D01*
X-19531600Y-93937200D02*
X-19531600Y-96207200D01*
%TO.C,C21*%
X-3315580Y-12190000D02*
X-3034420Y-12190000D01*
X-3315580Y-13210000D02*
X-3034420Y-13210000D01*
%TO.C,RN10*%
X9320000Y-66505000D02*
X9320000Y-64305000D01*
X5920000Y-66505000D02*
X5920000Y-64305000D01*
%TO.C,R19*%
X-12767542Y-94575100D02*
X-13242058Y-94575100D01*
X-12767542Y-95620100D02*
X-13242058Y-95620100D01*
D14*
%TO.C,J9*%
X-4470000Y-93693941D02*
X-1970000Y-93693941D01*
X-1970000Y-93693941D02*
X-1970000Y-82693941D01*
X-1970000Y-82693941D02*
X-19470000Y-82693941D01*
X-19470000Y-93693941D02*
X-9470000Y-93693941D01*
D13*
%TO.C,C7*%
X19016000Y-80092437D02*
X19016000Y-84548000D01*
X14560437Y-79028000D02*
X15196000Y-79028000D01*
X17951563Y-79028000D02*
X17316000Y-79028000D01*
X14560437Y-79028000D02*
X13496000Y-80092437D01*
X13496000Y-84548000D02*
X15196000Y-84548000D01*
X17951563Y-79028000D02*
X19016000Y-80092437D01*
X13496000Y-80092437D02*
X13496000Y-84548000D01*
X17941000Y-78163000D02*
X17941000Y-78788000D01*
X18253500Y-78475500D02*
X17628500Y-78475500D01*
X19016000Y-84548000D02*
X17316000Y-84548000D01*
%TO.C,C26*%
X3050000Y-28307420D02*
X3050000Y-28588580D01*
X2030000Y-28307420D02*
X2030000Y-28588580D01*
%TO.C,RN4*%
X4396000Y-4656000D02*
X4396000Y-2456000D01*
X7796000Y-4656000D02*
X7796000Y-2456000D01*
%TO.C,C10*%
X9300617Y-61714511D02*
X9300617Y-57804511D01*
X9300617Y-57804511D02*
X7430617Y-57804511D01*
X7430617Y-57804511D02*
X7430617Y-61714511D01*
%TO.C,J2*%
X15875000Y-68580000D02*
X15875000Y-71180000D01*
X13275000Y-71180000D02*
X13275000Y-55820000D01*
X18475000Y-68580000D02*
X15875000Y-68580000D01*
X18475000Y-55820000D02*
X13275000Y-55820000D01*
X18475000Y-69850000D02*
X18475000Y-71180000D01*
X18475000Y-68580000D02*
X18475000Y-55820000D01*
X18475000Y-71180000D02*
X17145000Y-71180000D01*
X15875000Y-71180000D02*
X13275000Y-71180000D01*
%TO.C,C29*%
X-3046637Y-68076567D02*
X-3327797Y-68076567D01*
X-3046637Y-67056567D02*
X-3327797Y-67056567D01*
D14*
%TO.C,J8*%
X-1970000Y-68950886D02*
X-19470000Y-68950886D01*
X-19470000Y-79950886D02*
X-9470000Y-79950886D01*
X-4470000Y-79950886D02*
X-1970000Y-79950886D01*
X-1970000Y-79950886D02*
X-1970000Y-68950886D01*
D13*
%TO.C,C2*%
X-855000Y-101136563D02*
X-855000Y-100501000D01*
X-855000Y-97745437D02*
X-855000Y-98381000D01*
X-855000Y-97745437D02*
X209437Y-96681000D01*
X209437Y-102201000D02*
X4665000Y-102201000D01*
X209437Y-96681000D02*
X4665000Y-96681000D01*
X4665000Y-96681000D02*
X4665000Y-98381000D01*
X-1720000Y-97756000D02*
X-1095000Y-97756000D01*
X-855000Y-101136563D02*
X209437Y-102201000D01*
X-1407500Y-97443500D02*
X-1407500Y-98068500D01*
X4665000Y-102201000D02*
X4665000Y-100501000D01*
%TD*%
M02*
