%TF.GenerationSoftware,KiCad,Pcbnew,(6.0.6)*%
%TF.CreationDate,2022-08-14T16:56:23+02:00*%
%TF.ProjectId,eurorack-pmod-pcb,6575726f-7261-4636-9b2d-706d6f642d70,rev?*%
%TF.SameCoordinates,Original*%
%TF.FileFunction,Copper,L2,Inr*%
%TF.FilePolarity,Positive*%
%FSLAX46Y46*%
G04 Gerber Fmt 4.6, Leading zero omitted, Abs format (unit mm)*
G04 Created by KiCad (PCBNEW (6.0.6)) date 2022-08-14 16:56:23*
%MOMM*%
%LPD*%
G01*
G04 APERTURE LIST*
G04 Aperture macros list*
%AMRoundRect*
0 Rectangle with rounded corners*
0 $1 Rounding radius*
0 $2 $3 $4 $5 $6 $7 $8 $9 X,Y pos of 4 corners*
0 Add a 4 corners polygon primitive as box body*
4,1,4,$2,$3,$4,$5,$6,$7,$8,$9,$2,$3,0*
0 Add four circle primitives for the rounded corners*
1,1,$1+$1,$2,$3*
1,1,$1+$1,$4,$5*
1,1,$1+$1,$6,$7*
1,1,$1+$1,$8,$9*
0 Add four rect primitives between the rounded corners*
20,1,$1+$1,$2,$3,$4,$5,0*
20,1,$1+$1,$4,$5,$6,$7,0*
20,1,$1+$1,$6,$7,$8,$9,0*
20,1,$1+$1,$8,$9,$2,$3,0*%
G04 Aperture macros list end*
%TA.AperFunction,ComponentPad*%
%ADD10C,0.500000*%
%TD*%
%TA.AperFunction,ComponentPad*%
%ADD11RoundRect,0.725000X-0.725000X1.575000X-0.725000X-1.575000X0.725000X-1.575000X0.725000X1.575000X0*%
%TD*%
%TA.AperFunction,ComponentPad*%
%ADD12O,4.600000X2.500000*%
%TD*%
%TA.AperFunction,ComponentPad*%
%ADD13C,0.800000*%
%TD*%
%TA.AperFunction,ComponentPad*%
%ADD14C,6.400000*%
%TD*%
%TA.AperFunction,ComponentPad*%
%ADD15R,1.700000X1.700000*%
%TD*%
%TA.AperFunction,ComponentPad*%
%ADD16O,1.700000X1.700000*%
%TD*%
%TA.AperFunction,ViaPad*%
%ADD17C,0.800000*%
%TD*%
%TA.AperFunction,Conductor*%
%ADD18C,0.508000*%
%TD*%
%TA.AperFunction,Conductor*%
%ADD19C,0.250000*%
%TD*%
%TA.AperFunction,Conductor*%
%ADD20C,0.254000*%
%TD*%
G04 APERTURE END LIST*
D10*
%TO.N,GND*%
%TO.C,U3*%
X3925000Y-53840000D03*
X4925000Y-54840000D03*
X5925000Y-53840000D03*
X5925000Y-52840000D03*
X4925000Y-52840000D03*
X3925000Y-54840000D03*
X4925000Y-53840000D03*
X5925000Y-54840000D03*
X3925000Y-52840000D03*
%TD*%
D11*
%TO.N,GND*%
%TO.C,J6*%
X-17970000Y-46964776D03*
%TO.N,Net-(J6-PadT)*%
X-4770000Y-46964776D03*
D12*
%TO.N,GND*%
X-6970000Y-52164776D03*
%TD*%
D13*
%TO.N,N/C*%
%TO.C,REF\u002A\u002A*%
X17445056Y-5761056D03*
X14050944Y-5761056D03*
X18148000Y-4064000D03*
D14*
X15748000Y-4064000D03*
D13*
X17445056Y-2366944D03*
X13348000Y-4064000D03*
X14050944Y-2366944D03*
X15748000Y-1664000D03*
X15748000Y-6464000D03*
%TD*%
D15*
%TO.N,Net-(D2-Pad1)*%
%TO.C,J1*%
X17145000Y-104135000D03*
D16*
X14605000Y-104135000D03*
%TO.N,GND*%
X17145000Y-101595000D03*
X14605000Y-101595000D03*
X17145000Y-99055000D03*
X14605000Y-99055000D03*
X17145000Y-96515000D03*
X14605000Y-96515000D03*
%TO.N,Net-(D1-Pad2)*%
X17145000Y-93975000D03*
X14605000Y-93975000D03*
%TD*%
D11*
%TO.N,GND*%
%TO.C,J3*%
X-17970000Y-5735611D03*
%TO.N,Net-(J3-PadT)*%
X-4770000Y-5735611D03*
D12*
%TO.N,GND*%
X-6970000Y-10935611D03*
%TD*%
D11*
%TO.N,GND*%
%TO.C,J7*%
X-17970000Y-60707831D03*
%TO.N,Net-(J7-PadT)*%
X-4770000Y-60707831D03*
D12*
%TO.N,unconnected-(J7-PadTN)*%
X-6970000Y-65907831D03*
%TD*%
D11*
%TO.N,GND*%
%TO.C,J4*%
X-17970000Y-19478666D03*
%TO.N,Net-(J4-PadT)*%
X-4770000Y-19478666D03*
D12*
%TO.N,GND*%
X-6970000Y-24678666D03*
%TD*%
D11*
%TO.N,GND*%
%TO.C,J10*%
X-17970000Y-101937000D03*
%TO.N,Net-(J10-PadT)*%
X-4770000Y-101937000D03*
D12*
%TO.N,unconnected-(J10-PadTN)*%
X-6970000Y-107137000D03*
%TD*%
D11*
%TO.N,GND*%
%TO.C,J5*%
X-17970000Y-33221721D03*
%TO.N,Net-(J5-PadT)*%
X-4770000Y-33221721D03*
D12*
%TO.N,GND*%
X-6970000Y-38421721D03*
%TD*%
D13*
%TO.N,N/C*%
%TO.C,REF\u002A\u002A*%
X4673600Y-108521200D03*
X6370656Y-107818256D03*
X2976544Y-107818256D03*
D14*
X4673600Y-106121200D03*
D13*
X4673600Y-103721200D03*
X2273600Y-106121200D03*
X2976544Y-104424144D03*
X6370656Y-104424144D03*
X7073600Y-106121200D03*
%TD*%
D11*
%TO.N,GND*%
%TO.C,J9*%
X-17970000Y-88193941D03*
%TO.N,Net-(J9-PadT)*%
X-4770000Y-88193941D03*
D12*
%TO.N,unconnected-(J9-PadTN)*%
X-6970000Y-93393941D03*
%TD*%
D15*
%TO.N,/SDIN1*%
%TO.C,J2*%
X17145000Y-69850000D03*
D16*
%TO.N,/SCL*%
X14605000Y-69850000D03*
%TO.N,/SDOUT1*%
X17145000Y-67310000D03*
%TO.N,/SDA*%
X14605000Y-67310000D03*
%TO.N,/LRCK*%
X17145000Y-64770000D03*
%TO.N,/PDN*%
X14605000Y-64770000D03*
%TO.N,/BICK*%
X17145000Y-62230000D03*
%TO.N,/MCLK*%
X14605000Y-62230000D03*
%TO.N,GND*%
X17145000Y-59690000D03*
X14605000Y-59690000D03*
%TO.N,Net-(J2-Pad11)*%
X17145000Y-57150000D03*
X14605000Y-57150000D03*
%TD*%
D11*
%TO.N,GND*%
%TO.C,J8*%
X-17970000Y-74450886D03*
%TO.N,Net-(J8-PadT)*%
X-4770000Y-74450886D03*
D12*
%TO.N,unconnected-(J8-PadTN)*%
X-6970000Y-79650886D03*
%TD*%
D17*
%TO.N,GND*%
X-14224000Y-11176000D03*
X5080000Y-88392000D03*
X18288000Y-88900000D03*
X12192000Y-76708000D03*
X-14224000Y-52324000D03*
X18796000Y-40132000D03*
X12700000Y-39624000D03*
X330200Y-100914200D03*
X-10668000Y-67564000D03*
X9652000Y-24892000D03*
X6604000Y-90424000D03*
X-14224000Y-24892000D03*
X5080000Y-24892000D03*
X-14224000Y-38608000D03*
X-10668000Y-81280000D03*
X15748000Y-46228000D03*
X3556000Y-90424000D03*
X4064000Y-61468000D03*
X14732000Y-84328000D03*
X14224000Y-49784000D03*
X431800Y-97866200D03*
X-733318Y-70289739D03*
X9830704Y-68328994D03*
X17780000Y-84328000D03*
X-10668000Y-94996000D03*
X8035679Y-61794813D03*
X3556000Y-40640000D03*
X8636000Y-40132000D03*
X4139200Y-48416091D03*
X-10160000Y-108712000D03*
X11684000Y-15240000D03*
X6604000Y-48133000D03*
%TO.N,+3.3VA*%
X14732000Y-76708000D03*
X10922000Y-47371000D03*
%TO.N,VDD*%
X4572000Y-58128500D03*
X10160000Y-62992000D03*
X14732000Y-73660000D03*
%TO.N,Net-(C33-Pad1)*%
X-1016000Y-95250000D03*
X6241340Y-87021939D03*
%TO.N,+12V*%
X11044701Y-71759299D03*
X4879818Y-71785734D03*
X13208937Y-35561373D03*
X6678500Y-6604000D03*
X3048000Y-68580000D03*
X4863002Y-97014500D03*
X9431135Y-83003391D03*
X5080000Y-44196000D03*
X6096000Y-33020000D03*
%TO.N,-12V*%
X11684000Y-10668000D03*
X9652000Y-88554500D03*
X5733318Y-74324310D03*
X6096000Y-29972000D03*
X13716000Y-89408000D03*
X5080000Y-100276593D03*
X7112000Y-42164000D03*
X6678500Y-11684000D03*
%TO.N,Net-(C33-Pad2)*%
X-3175000Y-93726000D03*
X7370299Y-88269299D03*
%TO.N,Net-(D3-Pad1)*%
X-762000Y-11049000D03*
X-11049000Y-12700000D03*
%TO.N,Net-(D7-Pad2)*%
X889000Y-82550000D03*
X-14478000Y-65659000D03*
%TO.N,/SDIN1*%
X11176000Y-57404000D03*
X13335000Y-58420000D03*
X2921000Y-57277000D03*
%TO.N,/SCL*%
X1270000Y-53594000D03*
X7091117Y-61468000D03*
X12128500Y-67691000D03*
%TO.N,/SDOUT1*%
X13208000Y-73660000D03*
X6326572Y-60805765D03*
%TO.N,/SDA*%
X6514500Y-59713204D03*
X1265701Y-54614299D03*
%TO.N,/LRCK*%
X10155046Y-59927835D03*
%TO.N,/PDN*%
X4699000Y-49276000D03*
X8890000Y-49911000D03*
X1262712Y-52594524D03*
%TO.N,Net-(C34-Pad1)*%
X4826000Y-65786000D03*
X5916340Y-67956372D03*
X7859111Y-74526391D03*
%TO.N,Net-(D5-Pad1)*%
X-1905000Y-15494000D03*
X-13081000Y-36322000D03*
%TO.N,Net-(C34-Pad2)*%
X1392701Y-83443299D03*
X8927500Y-75872067D03*
X1288115Y-63559201D03*
%TO.N,Net-(D9-Pad2)*%
X-1397000Y-86233000D03*
X2794000Y-86106000D03*
%TO.N,/-VCOM*%
X3556000Y-5080000D03*
X3544858Y-20816544D03*
X-2032000Y-62992000D03*
X1524000Y-37592000D03*
X1218000Y-80854846D03*
X2032000Y-45212000D03*
%TO.N,/dual_mono_inputs1/IN1_3V*%
X15240000Y-49149000D03*
X16637000Y-32258000D03*
%TO.N,Net-(C35-Pad2)*%
X12700000Y-87249000D03*
X-2997200Y-106324400D03*
%TO.N,Net-(D6-Pad1)*%
X-4064000Y-16383000D03*
X-13081000Y-50165000D03*
%TO.N,/dual_mono_inputs1/IN2_3V*%
X17653000Y-34163000D03*
X16002000Y-48260000D03*
%TO.N,/dual_mono_inputs2/IN1_3V*%
X15621000Y-28448000D03*
X16891000Y-47498000D03*
%TO.N,Net-(RN3-Pad5)*%
X5715000Y-35941000D03*
X5961496Y-38347854D03*
%TO.N,/dual_mono_inputs2/IN2_3V*%
X17653000Y-46609000D03*
X18542000Y-38354000D03*
%TO.N,/dual_mono_outputs1/OUT1*%
X4903900Y-63754247D03*
X1616345Y-48670657D03*
%TO.N,Net-(C20-Pad1)*%
X889000Y-7112000D03*
X762000Y-36068000D03*
%TO.N,/dual_mono_outputs1/OUT2*%
X5969000Y-63754000D03*
X1778000Y-49657000D03*
%TO.N,Net-(C20-Pad2)*%
X12954000Y-8509000D03*
X7493000Y-5461000D03*
X3543000Y-34023000D03*
X3803200Y-36614250D03*
%TO.N,Net-(D10-Pad2)*%
X-17145000Y-108712000D03*
X3683000Y-88138000D03*
%TO.N,/dual_mono_outputs2/OUT1*%
X545500Y-78381715D03*
X2032000Y-50673000D03*
X3410712Y-81284200D03*
%TO.N,/dual_mono_outputs2/OUT2*%
X1152613Y-51601104D03*
X4876922Y-82338324D03*
X1942500Y-81915000D03*
%TO.N,Net-(C21-Pad2)*%
X11303000Y-7112000D03*
X-15875000Y-14478000D03*
%TO.N,Net-(C22-Pad1)*%
X3556000Y-32639000D03*
X6841503Y-36068000D03*
X6985000Y-40259000D03*
%TO.N,Net-(C22-Pad2)*%
X10922000Y-34798000D03*
X3683000Y-3810000D03*
%TO.N,Net-(C23-Pad1)*%
X5207000Y-10287000D03*
X5207000Y-6604000D03*
%TO.N,Net-(C23-Pad2)*%
X-15748000Y-28321000D03*
X2159000Y-8001000D03*
%TO.N,Net-(C24-Pad1)*%
X-889000Y-26543000D03*
X8052000Y-26086000D03*
%TO.N,Net-(C25-Pad1)*%
X-2540000Y-38354000D03*
X3810000Y-13843000D03*
%TO.N,Net-(C25-Pad2)*%
X-15748000Y-41910000D03*
X4572000Y-14807000D03*
%TO.N,Net-(D8-Pad2)*%
X2413000Y-85090000D03*
X-13716000Y-79883000D03*
%TO.N,Net-(C26-Pad1)*%
X2864000Y-26867000D03*
X2286000Y-32512000D03*
%TO.N,Net-(C26-Pad2)*%
X4191000Y-26797000D03*
X3836543Y-30240351D03*
%TO.N,Net-(C27-Pad1)*%
X3810000Y-16256000D03*
X-3048000Y-52324000D03*
%TO.N,Net-(C27-Pad2)*%
X5686614Y-14847178D03*
X8509000Y-14986000D03*
X-15875000Y-55753000D03*
%TO.N,Net-(C28-Pad1)*%
X2413000Y-67305500D03*
X6940938Y-68980970D03*
%TO.N,Net-(C29-Pad1)*%
X7747000Y-85090000D03*
X-2794000Y-68961000D03*
%TO.N,Net-(C29-Pad2)*%
X11620718Y-82302654D03*
X13462000Y-91313000D03*
X-4699000Y-69088000D03*
X9779000Y-91313000D03*
%TO.N,Net-(C30-Pad2)*%
X2413000Y-63627000D03*
X95999Y-70867094D03*
X2794000Y-71247000D03*
%TO.N,Net-(RN9-Pad5)*%
X4826000Y-30099000D03*
X4910676Y-21640922D03*
%TO.N,Net-(C31-Pad1)*%
X3688988Y-83417508D03*
X-1397000Y-82296000D03*
%TO.N,Net-(C31-Pad2)*%
X-3302000Y-82423000D03*
X6731000Y-81788000D03*
%TO.N,Net-(C32-Pad1)*%
X3810000Y-73533000D03*
X4445000Y-67310000D03*
%TO.N,Net-(RN10-Pad7)*%
X10414000Y-83185000D03*
X6477000Y-71374000D03*
X9017000Y-78798500D03*
X6858000Y-74168000D03*
%TO.N,Net-(RN10-Pad5)*%
X11684000Y-77978000D03*
X7620000Y-83693000D03*
X9906000Y-67310000D03*
X6731000Y-67183000D03*
%TD*%
D18*
%TO.N,+3.3VA*%
X12982000Y-59345032D02*
X12029500Y-58392532D01*
X12029500Y-58392532D02*
X12029500Y-48478500D01*
X12029500Y-48478500D02*
X10922000Y-47371000D01*
X12982000Y-70386000D02*
X12982000Y-59345032D01*
X14732000Y-76708000D02*
X15748000Y-75692000D01*
X15748000Y-73152000D02*
X12982000Y-70386000D01*
X15748000Y-75692000D02*
X15748000Y-73152000D01*
%TO.N,VDD*%
X14732000Y-73476876D02*
X10759500Y-69504376D01*
X10759500Y-69504376D02*
X10759500Y-62321500D01*
X14732000Y-73660000D02*
X14732000Y-73476876D01*
X10759500Y-62321500D02*
X6566500Y-58128500D01*
X6566500Y-58128500D02*
X4572000Y-58128500D01*
%TO.N,+12V*%
X10668000Y-72136000D02*
X11044701Y-71759299D01*
X10160000Y-72136000D02*
X10068500Y-72227500D01*
X8128000Y-94996000D02*
X6096000Y-97028000D01*
X3048000Y-69596000D02*
X3048000Y-68580000D01*
X4876502Y-97028000D02*
X4863002Y-97014500D01*
X10668000Y-9144000D02*
X8128000Y-6604000D01*
X4861500Y-34254500D02*
X6096000Y-33020000D01*
X6096000Y-97028000D02*
X4876502Y-97028000D01*
X10230501Y-82161467D02*
X10230501Y-72206501D01*
X8128000Y-6604000D02*
X6678500Y-6604000D01*
X4890032Y-72136000D02*
X3048000Y-70293968D01*
X10160000Y-72136000D02*
X10668000Y-72136000D01*
X3048000Y-70293968D02*
X3048000Y-69596000D01*
X4917500Y-36258966D02*
X4861500Y-36202966D01*
X9087396Y-87750636D02*
X8128000Y-88710032D01*
X4861500Y-36202966D02*
X4861500Y-34254500D01*
X3104499Y-63125551D02*
X3104499Y-58667531D01*
X3104499Y-55886469D02*
X3104499Y-47187501D01*
X5230084Y-72136000D02*
X4879818Y-71785734D01*
X3104499Y-58667531D02*
X2067500Y-57630532D01*
X10668000Y-33020000D02*
X10668000Y-9144000D01*
X9087396Y-83500794D02*
X9087396Y-83304572D01*
X3447343Y-63468395D02*
X3104499Y-63125551D01*
X5080000Y-45212000D02*
X5080000Y-44196000D01*
X9087396Y-83304572D02*
X10230501Y-82161467D01*
X2067500Y-56923468D02*
X3104499Y-55886469D01*
X5230084Y-72136000D02*
X4890032Y-72136000D01*
X10068500Y-72227500D02*
X5321584Y-72227500D01*
X6096000Y-33020000D02*
X10668000Y-33020000D01*
X3048000Y-69596000D02*
X3447343Y-69196657D01*
X10668000Y-33020000D02*
X13208937Y-35560937D01*
X5080000Y-45212000D02*
X4917500Y-45049500D01*
X9431135Y-83157055D02*
X9431135Y-83003391D01*
X3104499Y-47187501D02*
X5080000Y-45212000D01*
X3447343Y-69196657D02*
X3447343Y-63468395D01*
X13208937Y-35560937D02*
X13208937Y-35561373D01*
X9087396Y-83500794D02*
X9087396Y-87750636D01*
X9087396Y-83500794D02*
X9431135Y-83157055D01*
X8128000Y-88710032D02*
X8128000Y-94996000D01*
X5321584Y-72227500D02*
X5230084Y-72136000D01*
X2067500Y-57630532D02*
X2067500Y-56923468D01*
X4917500Y-45049500D02*
X4917500Y-36258966D01*
X10230501Y-72206501D02*
X10160000Y-72136000D01*
D19*
%TO.N,Net-(C33-Pad2)*%
X-3175000Y-93726000D02*
X5588000Y-93726000D01*
X5588000Y-93726000D02*
X7370299Y-91943701D01*
X7370299Y-91943701D02*
X7370299Y-88269299D01*
%TO.N,Net-(D3-Pad1)*%
X-11049000Y-12700000D02*
X-2413000Y-12700000D01*
X-2413000Y-12700000D02*
X-762000Y-11049000D01*
%TO.N,/SDIN1*%
X15494000Y-58547000D02*
X15367000Y-58420000D01*
X17145000Y-69850000D02*
X15970000Y-68675000D01*
X15970000Y-59023000D02*
X15494000Y-58547000D01*
X3048000Y-57404000D02*
X2921000Y-57277000D01*
X15367000Y-58420000D02*
X13335000Y-58420000D01*
X15970000Y-68675000D02*
X15970000Y-59023000D01*
X11176000Y-57404000D02*
X3048000Y-57404000D01*
%TO.N,/SDOUT1*%
X6326572Y-60805765D02*
X6326572Y-61952572D01*
X8763000Y-68453000D02*
X12827000Y-72517000D01*
X13208000Y-72898000D02*
X13208000Y-73660000D01*
X7874000Y-63500000D02*
X8763000Y-64389000D01*
X8763000Y-68326000D02*
X8763000Y-68453000D01*
X6326572Y-61952572D02*
X7874000Y-63500000D01*
X8763000Y-64389000D02*
X8763000Y-68326000D01*
X12827000Y-72517000D02*
X13208000Y-72898000D01*
D20*
%TO.N,/PDN*%
X5334000Y-49911000D02*
X4699000Y-49276000D01*
X8890000Y-49911000D02*
X5334000Y-49911000D01*
D19*
%TO.N,Net-(C34-Pad2)*%
X2921000Y-83058000D02*
X2756500Y-82893500D01*
X2756500Y-81614902D02*
X2686212Y-81544614D01*
X9017000Y-76962000D02*
X9017000Y-75961567D01*
X2756500Y-82893500D02*
X2756500Y-81614902D01*
X1846501Y-79307189D02*
X1846501Y-69790811D01*
X2921000Y-83058000D02*
X9017000Y-76962000D01*
X2686212Y-80146900D02*
X1846501Y-79307189D01*
X1288115Y-69232425D02*
X1288115Y-63559201D01*
X1846501Y-69790811D02*
X1288115Y-69232425D01*
X2921000Y-83058000D02*
X1778000Y-83058000D01*
X1778000Y-83058000D02*
X1392701Y-83443299D01*
X2686212Y-81544614D02*
X2686212Y-80146900D01*
X9017000Y-75961567D02*
X8927500Y-75872067D01*
D20*
%TO.N,/-VCOM*%
X1524000Y-43688000D02*
X1524000Y-38100000D01*
X1524000Y-37592000D02*
X1524000Y-22837402D01*
X-2032000Y-44704000D02*
X-2032000Y-48260000D01*
X1218000Y-80765346D02*
X1218000Y-80854846D01*
X1524000Y-44704000D02*
X1524000Y-43688000D01*
X-2032000Y-48260000D02*
X-2032000Y-62992000D01*
X1524000Y-43688000D02*
X-1016000Y-43688000D01*
X1524000Y-22837402D02*
X3544858Y-20816544D01*
X-2032000Y-62992000D02*
X-2032000Y-77515346D01*
X3083500Y-20355186D02*
X3544858Y-20816544D01*
X1524000Y-38100000D02*
X1524000Y-37592000D01*
X3083500Y-5552500D02*
X3083500Y-20355186D01*
X-1016000Y-43688000D02*
X-2032000Y-44704000D01*
X2032000Y-45212000D02*
X1524000Y-44704000D01*
X-2032000Y-77515346D02*
X1218000Y-80765346D01*
X3556000Y-5080000D02*
X3083500Y-5552500D01*
D19*
%TO.N,Net-(C35-Pad2)*%
X7493000Y-98806000D02*
X4521200Y-98806000D01*
X12700000Y-87249000D02*
X12700000Y-93599000D01*
X4521200Y-98806000D02*
X-2997200Y-106324400D01*
X12700000Y-93599000D02*
X7493000Y-98806000D01*
%TO.N,Net-(RN3-Pad5)*%
X5715000Y-35941000D02*
X5961496Y-36187496D01*
X5961496Y-36187496D02*
X5961496Y-38347854D01*
%TO.N,Net-(C20-Pad1)*%
X0Y-19177000D02*
X0Y-35306000D01*
X889000Y-7112000D02*
X889000Y-18288000D01*
X889000Y-18288000D02*
X0Y-19177000D01*
X0Y-35306000D02*
X762000Y-36068000D01*
%TO.N,/dual_mono_outputs2/OUT1*%
X2032000Y-50673000D02*
X1056119Y-50673000D01*
X-68501Y-69655189D02*
X820499Y-70544189D01*
X820499Y-70544189D02*
X820499Y-78106716D01*
X-68501Y-51797620D02*
X-68501Y-69655189D01*
X1056119Y-50673000D02*
X-68501Y-51797620D01*
X820499Y-78106716D02*
X545500Y-78381715D01*
%TO.N,/dual_mono_outputs2/OUT2*%
X1942500Y-80301500D02*
X1942500Y-81915000D01*
X381000Y-69088000D02*
X1397000Y-70104000D01*
X1397000Y-70104000D02*
X1397000Y-79756000D01*
X1397000Y-79756000D02*
X1942500Y-80301500D01*
X1152613Y-51601104D02*
X381000Y-52372717D01*
X381000Y-52372717D02*
X381000Y-69088000D01*
%TO.N,Net-(C23-Pad1)*%
X5207000Y-6604000D02*
X5207000Y-10287000D01*
%TO.N,Net-(C29-Pad1)*%
X-3937000Y-70739000D02*
X-2794000Y-69596000D01*
X-6604000Y-77597000D02*
X-8636000Y-75565000D01*
X-3048000Y-80264000D02*
X-3048000Y-78359000D01*
X-3810000Y-77597000D02*
X-5334000Y-77597000D01*
X-3302000Y-78105000D02*
X-3810000Y-77597000D01*
X1397000Y-86868000D02*
X1016000Y-86868000D01*
X-5080000Y-82042000D02*
X-3302000Y-80264000D01*
X-3302000Y-80264000D02*
X-3048000Y-80264000D01*
X-5334000Y-77597000D02*
X-6604000Y-77597000D01*
X5588000Y-85090000D02*
X4191000Y-86487000D01*
X-7620000Y-70739000D02*
X-3937000Y-70739000D01*
X-2794000Y-69596000D02*
X-2794000Y-68961000D01*
X-8636000Y-75565000D02*
X-8636000Y-71755000D01*
X-1270000Y-84582000D02*
X-4064000Y-84582000D01*
X-8636000Y-71755000D02*
X-8255000Y-71374000D01*
X7747000Y-85090000D02*
X5588000Y-85090000D01*
X1016000Y-86868000D02*
X-762000Y-85090000D01*
X-4064000Y-84582000D02*
X-5080000Y-83566000D01*
X-5080000Y-83566000D02*
X-5080000Y-82042000D01*
X4191000Y-86487000D02*
X3810000Y-86868000D01*
X-762000Y-85090000D02*
X-1270000Y-84582000D01*
X-3048000Y-78359000D02*
X-3302000Y-78105000D01*
X-8255000Y-71374000D02*
X-7620000Y-70739000D01*
X3810000Y-86868000D02*
X1397000Y-86868000D01*
%TO.N,Net-(C31-Pad2)*%
X-1778000Y-83947000D02*
X871804Y-83947000D01*
X-3302000Y-82423000D02*
X-1778000Y-83947000D01*
X4351201Y-84167799D02*
X6731000Y-81788000D01*
X871804Y-83947000D02*
X1092603Y-84167799D01*
X1092603Y-84167799D02*
X4351201Y-84167799D01*
%TO.N,Net-(RN10-Pad7)*%
X9652000Y-77216000D02*
X9652000Y-78163500D01*
X6858000Y-74168000D02*
X6858000Y-75311000D01*
X7747000Y-75819000D02*
X8636000Y-74930000D01*
X9398000Y-75184000D02*
X9652000Y-75438000D01*
X9652000Y-78163500D02*
X9017000Y-78798500D01*
X7366000Y-75819000D02*
X7747000Y-75819000D01*
X9144000Y-74930000D02*
X9398000Y-75184000D01*
X9652000Y-75438000D02*
X9652000Y-77216000D01*
X6858000Y-75311000D02*
X7366000Y-75819000D01*
X8636000Y-74930000D02*
X9144000Y-74930000D01*
%TD*%
M02*
