%TF.GenerationSoftware,KiCad,Pcbnew,(6.0.6)*%
%TF.CreationDate,2022-08-14T16:56:23+02:00*%
%TF.ProjectId,eurorack-pmod-pcb,6575726f-7261-4636-9b2d-706d6f642d70,rev?*%
%TF.SameCoordinates,Original*%
%TF.FileFunction,Soldermask,Bot*%
%TF.FilePolarity,Negative*%
%FSLAX46Y46*%
G04 Gerber Fmt 4.6, Leading zero omitted, Abs format (unit mm)*
G04 Created by KiCad (PCBNEW (6.0.6)) date 2022-08-14 16:56:23*
%MOMM*%
%LPD*%
G01*
G04 APERTURE LIST*
G04 Aperture macros list*
%AMRoundRect*
0 Rectangle with rounded corners*
0 $1 Rounding radius*
0 $2 $3 $4 $5 $6 $7 $8 $9 X,Y pos of 4 corners*
0 Add a 4 corners polygon primitive as box body*
4,1,4,$2,$3,$4,$5,$6,$7,$8,$9,$2,$3,0*
0 Add four circle primitives for the rounded corners*
1,1,$1+$1,$2,$3*
1,1,$1+$1,$4,$5*
1,1,$1+$1,$6,$7*
1,1,$1+$1,$8,$9*
0 Add four rect primitives between the rounded corners*
20,1,$1+$1,$2,$3,$4,$5,0*
20,1,$1+$1,$4,$5,$6,$7,0*
20,1,$1+$1,$6,$7,$8,$9,0*
20,1,$1+$1,$8,$9,$2,$3,0*%
G04 Aperture macros list end*
%ADD10C,0.375000*%
%ADD11RoundRect,0.725000X-0.725000X1.575000X-0.725000X-1.575000X0.725000X-1.575000X0.725000X1.575000X0*%
%ADD12O,4.600000X2.500000*%
%ADD13C,0.800000*%
%ADD14C,6.400000*%
%ADD15R,1.700000X1.700000*%
%ADD16O,1.700000X1.700000*%
G04 APERTURE END LIST*
D10*
X18895142Y-7393252D02*
X18966571Y-7574800D01*
X18966571Y-7955752D01*
X18895142Y-8155157D01*
X18752285Y-8268252D01*
X18680857Y-8277181D01*
X18538000Y-8199800D01*
X18466571Y-8018252D01*
X18466571Y-7732538D01*
X18395142Y-7550991D01*
X18252285Y-7473610D01*
X18180857Y-7482538D01*
X18038000Y-7595633D01*
X17966571Y-7795038D01*
X17966571Y-8080752D01*
X18038000Y-8262300D01*
X18895142Y-9869443D02*
X18966571Y-9670038D01*
X18966571Y-9289086D01*
X18895142Y-9107538D01*
X18752285Y-9030157D01*
X18180857Y-9101586D01*
X18038000Y-9214681D01*
X17966571Y-9414086D01*
X17966571Y-9795038D01*
X18038000Y-9976586D01*
X18180857Y-10053967D01*
X18323714Y-10036110D01*
X18466571Y-9065872D01*
X18966571Y-10812895D02*
X17466571Y-11000395D01*
X18038000Y-10928967D02*
X17966571Y-11128372D01*
X17966571Y-11509324D01*
X18038000Y-11690872D01*
X18109428Y-11777181D01*
X18252285Y-11854562D01*
X18680857Y-11800991D01*
X18823714Y-11687895D01*
X18895142Y-11583729D01*
X18966571Y-11384324D01*
X18966571Y-11003372D01*
X18895142Y-10821824D01*
X18966571Y-12622419D02*
X17466571Y-12809919D01*
X18966571Y-13479562D02*
X18180857Y-13577776D01*
X18038000Y-13500395D01*
X17966571Y-13318848D01*
X17966571Y-13033133D01*
X18038000Y-12833729D01*
X18109428Y-12729562D01*
X18966571Y-14717657D02*
X18895142Y-14536110D01*
X18823714Y-14449800D01*
X18680857Y-14372419D01*
X18252285Y-14425991D01*
X18109428Y-14539086D01*
X18038000Y-14643252D01*
X17966571Y-14842657D01*
X17966571Y-15128372D01*
X18038000Y-15309919D01*
X18109428Y-15396229D01*
X18252285Y-15473610D01*
X18680857Y-15420038D01*
X18823714Y-15306943D01*
X18895142Y-15202776D01*
X18966571Y-15003372D01*
X18966571Y-14717657D01*
X18966571Y-16527181D02*
X18895142Y-16345633D01*
X18752285Y-16268252D01*
X17466571Y-16428967D01*
X17966571Y-17223610D02*
X17966571Y-18271229D01*
X18966571Y-17098610D01*
X18966571Y-18146229D01*
X18966571Y-19765276D02*
X18180857Y-19863491D01*
X18038000Y-19786110D01*
X17966571Y-19604562D01*
X17966571Y-19223610D01*
X18038000Y-19024205D01*
X18895142Y-19774205D02*
X18966571Y-19574800D01*
X18966571Y-19098610D01*
X18895142Y-18917062D01*
X18752285Y-18839681D01*
X18609428Y-18857538D01*
X18466571Y-18970633D01*
X18395142Y-19170038D01*
X18395142Y-19646229D01*
X18323714Y-19845633D01*
X17966571Y-20842657D02*
X19466571Y-20655157D01*
X18038000Y-20833729D02*
X17966571Y-21033133D01*
X17966571Y-21414086D01*
X18038000Y-21595633D01*
X18109428Y-21681943D01*
X18252285Y-21759324D01*
X18680857Y-21705752D01*
X18823714Y-21592657D01*
X18895142Y-21488491D01*
X18966571Y-21289086D01*
X18966571Y-20908133D01*
X18895142Y-20726586D01*
X17966571Y-22366467D02*
X17966571Y-23128372D01*
X18966571Y-22527181D02*
X17680857Y-22687895D01*
X17538000Y-22800991D01*
X17466571Y-23000395D01*
X17466571Y-23190872D01*
X18895142Y-24440872D02*
X18966571Y-24241467D01*
X18966571Y-23860514D01*
X18895142Y-23678967D01*
X18752285Y-23601586D01*
X18180857Y-23673014D01*
X18038000Y-23786110D01*
X17966571Y-23985514D01*
X17966571Y-24366467D01*
X18038000Y-24548014D01*
X18180857Y-24625395D01*
X18323714Y-24607538D01*
X18466571Y-23637300D01*
X18966571Y-25670038D02*
X18895142Y-25488491D01*
X18752285Y-25411110D01*
X17466571Y-25571824D01*
X18823714Y-26449800D02*
X18895142Y-26536110D01*
X18966571Y-26431943D01*
X18895142Y-26345633D01*
X18823714Y-26449800D01*
X18966571Y-26431943D01*
X18895142Y-28250395D02*
X18966571Y-28050991D01*
X18966571Y-27670038D01*
X18895142Y-27488491D01*
X18823714Y-27402181D01*
X18680857Y-27324800D01*
X18252285Y-27378372D01*
X18109428Y-27491467D01*
X18038000Y-27595633D01*
X17966571Y-27795038D01*
X17966571Y-28175991D01*
X18038000Y-28357538D01*
X18966571Y-29384324D02*
X18895142Y-29202776D01*
X18823714Y-29116467D01*
X18680857Y-29039086D01*
X18252285Y-29092657D01*
X18109428Y-29205752D01*
X18038000Y-29309919D01*
X17966571Y-29509324D01*
X17966571Y-29795038D01*
X18038000Y-29976586D01*
X18109428Y-30062895D01*
X18252285Y-30140276D01*
X18680857Y-30086705D01*
X18823714Y-29973610D01*
X18895142Y-29869443D01*
X18966571Y-29670038D01*
X18966571Y-29384324D01*
X18966571Y-30908133D02*
X17966571Y-31033133D01*
X18109428Y-31015276D02*
X18038000Y-31119443D01*
X17966571Y-31318848D01*
X17966571Y-31604562D01*
X18038000Y-31786110D01*
X18180857Y-31863491D01*
X18966571Y-31765276D01*
X18180857Y-31863491D02*
X18038000Y-31976586D01*
X17966571Y-32175991D01*
X17966571Y-32461705D01*
X18038000Y-32643252D01*
X18180857Y-32720633D01*
X18966571Y-32622419D01*
D11*
%TO.C,J6*%
X-17970000Y-46964776D03*
X-4770000Y-46964776D03*
D12*
X-6970000Y-52164776D03*
%TD*%
D13*
%TO.C,REF\u002A\u002A*%
X17445056Y-5761056D03*
X14050944Y-5761056D03*
X18148000Y-4064000D03*
D14*
X15748000Y-4064000D03*
D13*
X17445056Y-2366944D03*
X13348000Y-4064000D03*
X14050944Y-2366944D03*
X15748000Y-1664000D03*
X15748000Y-6464000D03*
%TD*%
D15*
%TO.C,J1*%
X17145000Y-104135000D03*
D16*
X14605000Y-104135000D03*
X17145000Y-101595000D03*
X14605000Y-101595000D03*
X17145000Y-99055000D03*
X14605000Y-99055000D03*
X17145000Y-96515000D03*
X14605000Y-96515000D03*
X17145000Y-93975000D03*
X14605000Y-93975000D03*
%TD*%
D11*
%TO.C,J3*%
X-17970000Y-5735611D03*
X-4770000Y-5735611D03*
D12*
X-6970000Y-10935611D03*
%TD*%
D11*
%TO.C,J7*%
X-17970000Y-60707831D03*
X-4770000Y-60707831D03*
D12*
X-6970000Y-65907831D03*
%TD*%
D11*
%TO.C,J4*%
X-17970000Y-19478666D03*
X-4770000Y-19478666D03*
D12*
X-6970000Y-24678666D03*
%TD*%
D11*
%TO.C,J10*%
X-17970000Y-101937000D03*
X-4770000Y-101937000D03*
D12*
X-6970000Y-107137000D03*
%TD*%
D11*
%TO.C,J5*%
X-17970000Y-33221721D03*
X-4770000Y-33221721D03*
D12*
X-6970000Y-38421721D03*
%TD*%
D13*
%TO.C,REF\u002A\u002A*%
X4673600Y-108521200D03*
X6370656Y-107818256D03*
X2976544Y-107818256D03*
D14*
X4673600Y-106121200D03*
D13*
X4673600Y-103721200D03*
X2273600Y-106121200D03*
X2976544Y-104424144D03*
X6370656Y-104424144D03*
X7073600Y-106121200D03*
%TD*%
D11*
%TO.C,J9*%
X-17970000Y-88193941D03*
X-4770000Y-88193941D03*
D12*
X-6970000Y-93393941D03*
%TD*%
D15*
%TO.C,J2*%
X17145000Y-69850000D03*
D16*
X14605000Y-69850000D03*
X17145000Y-67310000D03*
X14605000Y-67310000D03*
X17145000Y-64770000D03*
X14605000Y-64770000D03*
X17145000Y-62230000D03*
X14605000Y-62230000D03*
X17145000Y-59690000D03*
X14605000Y-59690000D03*
X17145000Y-57150000D03*
X14605000Y-57150000D03*
%TD*%
D11*
%TO.C,J8*%
X-17970000Y-74450886D03*
X-4770000Y-74450886D03*
D12*
X-6970000Y-79650886D03*
%TD*%
M02*
