%TF.GenerationSoftware,KiCad,Pcbnew,(6.0.6)*%
%TF.CreationDate,2022-08-14T16:56:23+02:00*%
%TF.ProjectId,eurorack-pmod-pcb,6575726f-7261-4636-9b2d-706d6f642d70,rev?*%
%TF.SameCoordinates,Original*%
%TF.FileFunction,Paste,Top*%
%TF.FilePolarity,Positive*%
%FSLAX46Y46*%
G04 Gerber Fmt 4.6, Leading zero omitted, Abs format (unit mm)*
G04 Created by KiCad (PCBNEW (6.0.6)) date 2022-08-14 16:56:23*
%MOMM*%
%LPD*%
G01*
G04 APERTURE LIST*
G04 Aperture macros list*
%AMRoundRect*
0 Rectangle with rounded corners*
0 $1 Rounding radius*
0 $2 $3 $4 $5 $6 $7 $8 $9 X,Y pos of 4 corners*
0 Add a 4 corners polygon primitive as box body*
4,1,4,$2,$3,$4,$5,$6,$7,$8,$9,$2,$3,0*
0 Add four circle primitives for the rounded corners*
1,1,$1+$1,$2,$3*
1,1,$1+$1,$4,$5*
1,1,$1+$1,$6,$7*
1,1,$1+$1,$8,$9*
0 Add four rect primitives between the rounded corners*
20,1,$1+$1,$2,$3,$4,$5,0*
20,1,$1+$1,$4,$5,$6,$7,0*
20,1,$1+$1,$6,$7,$8,$9,0*
20,1,$1+$1,$8,$9,$2,$3,0*%
%AMFreePoly0*
4,1,48,0.195015,0.341746,0.197191,0.342329,0.200525,0.340774,0.218481,0.337608,0.232451,0.325886,0.248978,0.318179,0.318179,0.248978,0.321152,0.244733,0.323103,0.243606,0.324361,0.240149,0.334819,0.225214,0.336409,0.207049,0.342646,0.189911,0.342646,-0.259112,0.340733,-0.269963,0.341377,-0.273618,0.339521,-0.276832,0.337608,-0.287682,0.323660,-0.304305,0.312807,-0.323103,
0.305724,-0.325681,0.300879,-0.331455,0.279505,-0.335224,0.259112,-0.342646,-0.259112,-0.342646,-0.269963,-0.340733,-0.273618,-0.341377,-0.276832,-0.339521,-0.287682,-0.337608,-0.304305,-0.323660,-0.323103,-0.312807,-0.325681,-0.305724,-0.331455,-0.300879,-0.335224,-0.279505,-0.342646,-0.259112,-0.342646,0.259112,-0.340733,0.269963,-0.341377,0.273618,-0.339521,0.276832,-0.337608,0.287682,
-0.323660,0.304305,-0.312807,0.323103,-0.305724,0.325681,-0.300879,0.331455,-0.279505,0.335224,-0.259112,0.342646,0.189911,0.342646,0.195015,0.341746,0.195015,0.341746,$1*%
%AMFreePoly1*
4,1,16,-0.208698,0.403113,0.269389,0.403113,0.321190,0.381657,0.342646,0.329856,0.342646,-0.329856,0.321190,-0.381657,0.269389,-0.403113,-0.208700,-0.403114,-0.260502,-0.381655,-0.321190,-0.320968,-0.342646,-0.269165,-0.342647,0.269167,-0.321190,0.320968,-0.260501,0.381657,-0.208700,0.403114,-0.208698,0.403113,-0.208698,0.403113,$1*%
%AMFreePoly2*
4,1,48,0.269963,0.340733,0.273618,0.341377,0.276832,0.339521,0.287682,0.337608,0.304305,0.323660,0.323103,0.312807,0.325681,0.305724,0.331455,0.300879,0.335224,0.279505,0.342646,0.259112,0.342646,-0.259112,0.340733,-0.269963,0.341377,-0.273618,0.339521,-0.276832,0.337608,-0.287682,0.323660,-0.304305,0.312807,-0.323103,0.305724,-0.325681,0.300879,-0.331455,0.279505,-0.335224,
0.259112,-0.342646,-0.189911,-0.342646,-0.195015,-0.341746,-0.197191,-0.342329,-0.200525,-0.340774,-0.218481,-0.337608,-0.232451,-0.325886,-0.248978,-0.318179,-0.318179,-0.248978,-0.321152,-0.244733,-0.323103,-0.243606,-0.324361,-0.240149,-0.334819,-0.225214,-0.336409,-0.207049,-0.342646,-0.189911,-0.342646,0.259112,-0.340733,0.269963,-0.341377,0.273618,-0.339521,0.276832,-0.337608,0.287682,
-0.323660,0.304305,-0.312807,0.323103,-0.305724,0.325681,-0.300879,0.331455,-0.279505,0.335224,-0.259112,0.342646,0.259112,0.342646,0.269963,0.340733,0.269963,0.340733,$1*%
%AMFreePoly3*
4,1,15,0.260501,0.381657,0.321190,0.320968,0.342646,0.269165,0.342647,-0.269167,0.321188,-0.320969,0.260501,-0.381657,0.208698,-0.403113,-0.269389,-0.403113,-0.321190,-0.381657,-0.342646,-0.329856,-0.342646,0.329856,-0.321190,0.381657,-0.269389,0.403113,0.208700,0.403114,0.260501,0.381657,0.260501,0.381657,$1*%
%AMFreePoly4*
4,1,48,0.269963,0.340733,0.273618,0.341377,0.276832,0.339521,0.287682,0.337608,0.304305,0.323660,0.323103,0.312807,0.325681,0.305724,0.331455,0.300879,0.335224,0.279505,0.342646,0.259112,0.342646,-0.259112,0.340733,-0.269963,0.341377,-0.273618,0.339521,-0.276832,0.337608,-0.287682,0.323660,-0.304305,0.312807,-0.323103,0.305724,-0.325681,0.300879,-0.331455,0.279505,-0.335224,
0.259112,-0.342646,-0.259112,-0.342646,-0.269963,-0.340733,-0.273618,-0.341377,-0.276832,-0.339521,-0.287682,-0.337608,-0.304305,-0.323660,-0.323103,-0.312807,-0.325681,-0.305724,-0.331455,-0.300879,-0.335224,-0.279505,-0.342646,-0.259112,-0.342646,0.189911,-0.341746,0.195015,-0.342329,0.197191,-0.340774,0.200525,-0.337608,0.218481,-0.325886,0.232451,-0.318179,0.248978,-0.248978,0.318179,
-0.244733,0.321152,-0.243606,0.323103,-0.240149,0.324361,-0.225214,0.334819,-0.207049,0.336409,-0.189911,0.342646,0.259112,0.342646,0.269963,0.340733,0.269963,0.340733,$1*%
%AMFreePoly5*
4,1,15,0.381657,0.321190,0.403113,0.269389,0.403114,-0.208700,0.381655,-0.260502,0.320968,-0.321190,0.269165,-0.342646,-0.269167,-0.342647,-0.320969,-0.321188,-0.381657,-0.260501,-0.403113,-0.208698,-0.403113,0.269389,-0.381657,0.321190,-0.329856,0.342646,0.329856,0.342646,0.381657,0.321190,0.381657,0.321190,$1*%
%AMFreePoly6*
4,1,48,0.269963,0.340733,0.273618,0.341377,0.276832,0.339521,0.287682,0.337608,0.304305,0.323660,0.323103,0.312807,0.325681,0.305724,0.331455,0.300879,0.335224,0.279505,0.342646,0.259112,0.342646,-0.189911,0.341746,-0.195015,0.342329,-0.197191,0.340774,-0.200525,0.337608,-0.218481,0.325886,-0.232451,0.318179,-0.248978,0.248978,-0.318179,0.244733,-0.321152,0.243606,-0.323103,
0.240149,-0.324361,0.225214,-0.334819,0.207049,-0.336409,0.189911,-0.342646,-0.259112,-0.342646,-0.269963,-0.340733,-0.273618,-0.341377,-0.276832,-0.339521,-0.287682,-0.337608,-0.304305,-0.323660,-0.323103,-0.312807,-0.325681,-0.305724,-0.331455,-0.300879,-0.335224,-0.279505,-0.342646,-0.259112,-0.342646,0.259112,-0.340733,0.269963,-0.341377,0.273618,-0.339521,0.276832,-0.337608,0.287682,
-0.323660,0.304305,-0.312807,0.323103,-0.305724,0.325681,-0.300879,0.331455,-0.279505,0.335224,-0.259112,0.342646,0.259112,0.342646,0.269963,0.340733,0.269963,0.340733,$1*%
%AMFreePoly7*
4,1,15,0.320968,0.321190,0.381657,0.260501,0.403113,0.208698,0.403113,-0.269389,0.381657,-0.321190,0.329856,-0.342646,-0.329856,-0.342646,-0.381657,-0.321190,-0.403113,-0.269389,-0.403114,0.208700,-0.381657,0.260501,-0.320968,0.321190,-0.269165,0.342646,0.269167,0.342647,0.320968,0.321190,0.320968,0.321190,$1*%
G04 Aperture macros list end*
%ADD10RoundRect,0.200000X-0.200000X-0.275000X0.200000X-0.275000X0.200000X0.275000X-0.200000X0.275000X0*%
%ADD11RoundRect,0.225000X0.250000X-0.225000X0.250000X0.225000X-0.250000X0.225000X-0.250000X-0.225000X0*%
%ADD12RoundRect,0.250000X-0.375000X-0.625000X0.375000X-0.625000X0.375000X0.625000X-0.375000X0.625000X0*%
%ADD13RoundRect,0.100000X-0.100000X0.637500X-0.100000X-0.637500X0.100000X-0.637500X0.100000X0.637500X0*%
%ADD14RoundRect,0.200000X0.200000X0.275000X-0.200000X0.275000X-0.200000X-0.275000X0.200000X-0.275000X0*%
%ADD15RoundRect,0.225000X0.225000X0.250000X-0.225000X0.250000X-0.225000X-0.250000X0.225000X-0.250000X0*%
%ADD16RoundRect,0.225000X-0.225000X-0.250000X0.225000X-0.250000X0.225000X0.250000X-0.225000X0.250000X0*%
%ADD17R,1.100000X1.100000*%
%ADD18RoundRect,0.250000X-0.450000X-0.425000X0.450000X-0.425000X0.450000X0.425000X-0.450000X0.425000X0*%
%ADD19R,0.430000X0.760000*%
%ADD20FreePoly0,90.000000*%
%ADD21FreePoly1,90.000000*%
%ADD22RoundRect,0.201557X0.201556X-0.201556X0.201556X0.201556X-0.201556X0.201556X-0.201556X-0.201556X0*%
%ADD23FreePoly2,90.000000*%
%ADD24FreePoly3,90.000000*%
%ADD25FreePoly4,90.000000*%
%ADD26FreePoly5,90.000000*%
%ADD27FreePoly6,90.000000*%
%ADD28FreePoly7,90.000000*%
%ADD29RoundRect,0.062500X0.062500X-0.337500X0.062500X0.337500X-0.062500X0.337500X-0.062500X-0.337500X0*%
%ADD30RoundRect,0.062500X0.337500X-0.062500X0.337500X0.062500X-0.337500X0.062500X-0.337500X-0.062500X0*%
%ADD31RoundRect,0.218750X0.256250X-0.218750X0.256250X0.218750X-0.256250X0.218750X-0.256250X-0.218750X0*%
%ADD32RoundRect,0.250000X0.550000X-1.250000X0.550000X1.250000X-0.550000X1.250000X-0.550000X-1.250000X0*%
%ADD33R,0.760000X0.430000*%
%ADD34RoundRect,0.250000X-0.425000X0.450000X-0.425000X-0.450000X0.425000X-0.450000X0.425000X0.450000X0*%
%ADD35RoundRect,0.250000X0.450000X0.425000X-0.450000X0.425000X-0.450000X-0.425000X0.450000X-0.425000X0*%
%ADD36RoundRect,0.250000X0.425000X-0.450000X0.425000X0.450000X-0.425000X0.450000X-0.425000X-0.450000X0*%
%ADD37RoundRect,0.225000X-0.250000X0.225000X-0.250000X-0.225000X0.250000X-0.225000X0.250000X0.225000X0*%
%ADD38RoundRect,0.218750X-0.218750X-0.256250X0.218750X-0.256250X0.218750X0.256250X-0.218750X0.256250X0*%
%ADD39RoundRect,0.150000X-0.587500X-0.150000X0.587500X-0.150000X0.587500X0.150000X-0.587500X0.150000X0*%
%ADD40RoundRect,0.200000X-0.275000X0.200000X-0.275000X-0.200000X0.275000X-0.200000X0.275000X0.200000X0*%
%ADD41RoundRect,0.100000X0.100000X-0.637500X0.100000X0.637500X-0.100000X0.637500X-0.100000X-0.637500X0*%
%ADD42RoundRect,0.100000X0.637500X0.100000X-0.637500X0.100000X-0.637500X-0.100000X0.637500X-0.100000X0*%
%ADD43RoundRect,0.250000X-0.550000X1.250000X-0.550000X-1.250000X0.550000X-1.250000X0.550000X1.250000X0*%
%ADD44RoundRect,0.250000X-1.250000X-0.550000X1.250000X-0.550000X1.250000X0.550000X-1.250000X0.550000X0*%
G04 APERTURE END LIST*
D10*
%TO.C,R5*%
X-825000Y-19685000D03*
X825000Y-19685000D03*
%TD*%
D11*
%TO.C,C20*%
X2540000Y-35573000D03*
X2540000Y-34023000D03*
%TD*%
D12*
%TO.C,D8*%
X-18646600Y-81330800D03*
X-15846600Y-81330800D03*
%TD*%
D13*
%TO.C,U7*%
X11475000Y-81592500D03*
X10825000Y-81592500D03*
X10175000Y-81592500D03*
X9525000Y-81592500D03*
X8875000Y-81592500D03*
X8225000Y-81592500D03*
X7575000Y-81592500D03*
X7575000Y-87317500D03*
X8225000Y-87317500D03*
X8875000Y-87317500D03*
X9525000Y-87317500D03*
X10175000Y-87317500D03*
X10825000Y-87317500D03*
X11475000Y-87317500D03*
%TD*%
D14*
%TO.C,R14*%
X825000Y-60960000D03*
X-825000Y-60960000D03*
%TD*%
D10*
%TO.C,R9*%
X12383000Y-28448000D03*
X14033000Y-28448000D03*
%TD*%
D15*
%TO.C,C4*%
X7760000Y-49149000D03*
X6210000Y-49149000D03*
%TD*%
D11*
%TO.C,C15*%
X11049000Y-70879000D03*
X11049000Y-69329000D03*
%TD*%
D10*
%TO.C,R4*%
X-14033000Y-12598400D03*
X-12383000Y-12598400D03*
%TD*%
D14*
%TO.C,R15*%
X-12052800Y-67614800D03*
X-13702800Y-67614800D03*
%TD*%
D12*
%TO.C,D5*%
X-18646600Y-40081200D03*
X-15846600Y-40081200D03*
%TD*%
D16*
%TO.C,C23*%
X-3950000Y-26416000D03*
X-2400000Y-26416000D03*
%TD*%
D17*
%TO.C,D2*%
X9525000Y-104270000D03*
X9525000Y-101470000D03*
%TD*%
D10*
%TO.C,R6*%
X12383000Y-34163000D03*
X14033000Y-34163000D03*
%TD*%
D18*
%TO.C,C11*%
X10160000Y-50800000D03*
X12860000Y-50800000D03*
%TD*%
D12*
%TO.C,D7*%
X-18621200Y-67564000D03*
X-15821200Y-67564000D03*
%TD*%
D15*
%TO.C,C31*%
X-2400000Y-81280000D03*
X-3950000Y-81280000D03*
%TD*%
D16*
%TO.C,C34*%
X7353000Y-77724000D03*
X8903000Y-77724000D03*
%TD*%
D11*
%TO.C,C22*%
X9652000Y-35573000D03*
X9652000Y-34023000D03*
%TD*%
D19*
%TO.C,RN14*%
X2610000Y-80770000D03*
X3410000Y-80770000D03*
X4210000Y-80770000D03*
X5010000Y-80770000D03*
X5010000Y-79250000D03*
X4210000Y-79250000D03*
X3410000Y-79250000D03*
X2610000Y-79250000D03*
%TD*%
D12*
%TO.C,D6*%
X-18646600Y-53822600D03*
X-15846600Y-53822600D03*
%TD*%
D14*
%TO.C,R18*%
X825000Y-88265000D03*
X-825000Y-88265000D03*
%TD*%
D16*
%TO.C,C9*%
X16375000Y-41275000D03*
X17925000Y-41275000D03*
%TD*%
%TO.C,C25*%
X-4204000Y-40132000D03*
X-2654000Y-40132000D03*
%TD*%
D20*
%TO.C,U3*%
X6350000Y-55265000D03*
D21*
X4425000Y-52415000D03*
D22*
X5425000Y-53340000D03*
D23*
X3500000Y-52415000D03*
D24*
X5425000Y-55265000D03*
D25*
X6350000Y-52415000D03*
D21*
X5425000Y-52415000D03*
D26*
X3500000Y-54340000D03*
D24*
X4425000Y-55265000D03*
D26*
X3500000Y-53340000D03*
D27*
X3500000Y-55265000D03*
D22*
X4425000Y-54340000D03*
D28*
X6350000Y-54340000D03*
D22*
X4425000Y-53340000D03*
X5425000Y-54340000D03*
D28*
X6350000Y-53340000D03*
D29*
X3175000Y-56290000D03*
X3675000Y-56290000D03*
X4175000Y-56290000D03*
X4675000Y-56290000D03*
X5175000Y-56290000D03*
X5675000Y-56290000D03*
X6175000Y-56290000D03*
X6675000Y-56290000D03*
D30*
X7375000Y-55590000D03*
X7375000Y-55090000D03*
X7375000Y-54590000D03*
X7375000Y-54090000D03*
X7375000Y-53590000D03*
X7375000Y-53090000D03*
X7375000Y-52590000D03*
X7375000Y-52090000D03*
D29*
X6675000Y-51390000D03*
X6175000Y-51390000D03*
X5675000Y-51390000D03*
X5175000Y-51390000D03*
X4675000Y-51390000D03*
X4175000Y-51390000D03*
X3675000Y-51390000D03*
X3175000Y-51390000D03*
D30*
X2475000Y-52090000D03*
X2475000Y-52590000D03*
X2475000Y-53090000D03*
X2475000Y-53590000D03*
X2475000Y-54090000D03*
X2475000Y-54590000D03*
X2475000Y-55090000D03*
X2475000Y-55590000D03*
%TD*%
D11*
%TO.C,C17*%
X11176000Y-13932200D03*
X11176000Y-12382200D03*
%TD*%
D31*
%TO.C,L3*%
X18268148Y-76222314D03*
X18268148Y-74647314D03*
%TD*%
D15*
%TO.C,C33*%
X-2400000Y-95250000D03*
X-3950000Y-95250000D03*
%TD*%
D19*
%TO.C,RN11*%
X1975000Y-66165000D03*
X2775000Y-66165000D03*
X3575000Y-66165000D03*
X4375000Y-66165000D03*
X4375000Y-64645000D03*
X3575000Y-64645000D03*
X2775000Y-64645000D03*
X1975000Y-64645000D03*
%TD*%
D31*
%TO.C,L4*%
X15240000Y-76200000D03*
X15240000Y-74625000D03*
%TD*%
D32*
%TO.C,C1*%
X5080000Y-94783000D03*
X5080000Y-90383000D03*
%TD*%
D19*
%TO.C,RN2*%
X5264000Y-45976000D03*
X4464000Y-45976000D03*
X3664000Y-45976000D03*
X2864000Y-45976000D03*
X2864000Y-47496000D03*
X3664000Y-47496000D03*
X4464000Y-47496000D03*
X5264000Y-47496000D03*
%TD*%
D33*
%TO.C,RN13*%
X3685000Y-84525000D03*
X3685000Y-85325000D03*
X3685000Y-86125000D03*
X3685000Y-86925000D03*
X5205000Y-86925000D03*
X5205000Y-86125000D03*
X5205000Y-85325000D03*
X5205000Y-84525000D03*
%TD*%
%TO.C,RN12*%
X10670000Y-73095000D03*
X10670000Y-73895000D03*
X10670000Y-74695000D03*
X10670000Y-75495000D03*
X12190000Y-75495000D03*
X12190000Y-74695000D03*
X12190000Y-73895000D03*
X12190000Y-73095000D03*
%TD*%
D19*
%TO.C,RN7*%
X8052000Y-23872000D03*
X8852000Y-23872000D03*
X9652000Y-23872000D03*
X10452000Y-23872000D03*
X10452000Y-22352000D03*
X9652000Y-22352000D03*
X8852000Y-22352000D03*
X8052000Y-22352000D03*
%TD*%
D10*
%TO.C,R11*%
X-825000Y-46990000D03*
X825000Y-46990000D03*
%TD*%
D34*
%TO.C,C12*%
X13970000Y-36750000D03*
X13970000Y-39450000D03*
%TD*%
D10*
%TO.C,R2*%
X-825000Y-5715000D03*
X825000Y-5715000D03*
%TD*%
D14*
%TO.C,R20*%
X266200Y-103124000D03*
X-1383800Y-103124000D03*
%TD*%
%TO.C,R21*%
X-12027400Y-108712000D03*
X-13677400Y-108712000D03*
%TD*%
D19*
%TO.C,RN3*%
X2464000Y-39112000D03*
X3264000Y-39112000D03*
X4064000Y-39112000D03*
X4864000Y-39112000D03*
X4864000Y-37592000D03*
X4064000Y-37592000D03*
X3264000Y-37592000D03*
X2464000Y-37592000D03*
%TD*%
D12*
%TO.C,D3*%
X-18621200Y-12598400D03*
X-15821200Y-12598400D03*
%TD*%
D35*
%TO.C,C14*%
X1985000Y-68580000D03*
X-715000Y-68580000D03*
%TD*%
D17*
%TO.C,D1*%
X9525000Y-96142000D03*
X9525000Y-93342000D03*
%TD*%
D36*
%TO.C,C16*%
X13208000Y-14558000D03*
X13208000Y-11858000D03*
%TD*%
D18*
%TO.C,C3*%
X10160000Y-48691800D03*
X12860000Y-48691800D03*
%TD*%
D14*
%TO.C,R17*%
X-12090400Y-81330800D03*
X-13740400Y-81330800D03*
%TD*%
D37*
%TO.C,C6*%
X3175000Y-58534000D03*
X3175000Y-60084000D03*
%TD*%
D15*
%TO.C,C35*%
X-2430543Y-108812750D03*
X-3980543Y-108812750D03*
%TD*%
D35*
%TO.C,C18*%
X17225000Y-87630000D03*
X14525000Y-87630000D03*
%TD*%
D11*
%TO.C,C30*%
X1905000Y-72149000D03*
X1905000Y-70599000D03*
%TD*%
D16*
%TO.C,C27*%
X-3950000Y-53975000D03*
X-2400000Y-53975000D03*
%TD*%
D34*
%TO.C,C5*%
X5080000Y-58771800D03*
X5080000Y-61471800D03*
%TD*%
D19*
%TO.C,RN6*%
X6640295Y-39107713D03*
X7440295Y-39107713D03*
X8240295Y-39107713D03*
X9040295Y-39107713D03*
X9040295Y-37587713D03*
X8240295Y-37587713D03*
X7440295Y-37587713D03*
X6640295Y-37587713D03*
%TD*%
D13*
%TO.C,U5*%
X8554000Y-7805500D03*
X7904000Y-7805500D03*
X7254000Y-7805500D03*
X6604000Y-7805500D03*
X5954000Y-7805500D03*
X5304000Y-7805500D03*
X4654000Y-7805500D03*
X4654000Y-13530500D03*
X5304000Y-13530500D03*
X5954000Y-13530500D03*
X6604000Y-13530500D03*
X7254000Y-13530500D03*
X7904000Y-13530500D03*
X8554000Y-13530500D03*
%TD*%
D38*
%TO.C,L2*%
X6832500Y-99645452D03*
X8407500Y-99645452D03*
%TD*%
D39*
%TO.C,U1*%
X16207500Y-42865000D03*
X16207500Y-44765000D03*
X18082500Y-43815000D03*
%TD*%
D11*
%TO.C,C28*%
X9271000Y-70879000D03*
X9271000Y-69329000D03*
%TD*%
D15*
%TO.C,C19*%
X16700800Y-89966800D03*
X15150800Y-89966800D03*
%TD*%
D14*
%TO.C,R16*%
X825000Y-75565000D03*
X-825000Y-75565000D03*
%TD*%
D40*
%TO.C,R1*%
X11938000Y-44895000D03*
X11938000Y-46545000D03*
%TD*%
D10*
%TO.C,R12*%
X12383000Y-30353000D03*
X14033000Y-30353000D03*
%TD*%
D38*
%TO.C,L1*%
X6832500Y-97795000D03*
X8407500Y-97795000D03*
%TD*%
D19*
%TO.C,RN8*%
X6896000Y-17272000D03*
X6096000Y-17272000D03*
X5296000Y-17272000D03*
X4496000Y-17272000D03*
X4496000Y-18792000D03*
X5296000Y-18792000D03*
X6096000Y-18792000D03*
X6896000Y-18792000D03*
%TD*%
D10*
%TO.C,R13*%
X-13804400Y-54000400D03*
X-12154400Y-54000400D03*
%TD*%
%TO.C,R8*%
X-825000Y-33020000D03*
X825000Y-33020000D03*
%TD*%
D37*
%TO.C,C13*%
X12065000Y-36690000D03*
X12065000Y-38240000D03*
%TD*%
D10*
%TO.C,R3*%
X12383000Y-32258000D03*
X14033000Y-32258000D03*
%TD*%
%TO.C,R10*%
X-13982200Y-40081200D03*
X-12332200Y-40081200D03*
%TD*%
D13*
%TO.C,U6*%
X7665000Y-70162500D03*
X7015000Y-70162500D03*
X6365000Y-70162500D03*
X5715000Y-70162500D03*
X5065000Y-70162500D03*
X4415000Y-70162500D03*
X3765000Y-70162500D03*
X3765000Y-75887500D03*
X4415000Y-75887500D03*
X5065000Y-75887500D03*
X5715000Y-75887500D03*
X6365000Y-75887500D03*
X7015000Y-75887500D03*
X7665000Y-75887500D03*
%TD*%
D12*
%TO.C,D4*%
X-18643600Y-26339800D03*
X-15843600Y-26339800D03*
%TD*%
D41*
%TO.C,U4*%
X4146000Y-34358500D03*
X4796000Y-34358500D03*
X5446000Y-34358500D03*
X6096000Y-34358500D03*
X6746000Y-34358500D03*
X7396000Y-34358500D03*
X8046000Y-34358500D03*
X8046000Y-28633500D03*
X7396000Y-28633500D03*
X6746000Y-28633500D03*
X6096000Y-28633500D03*
X5446000Y-28633500D03*
X4796000Y-28633500D03*
X4146000Y-28633500D03*
%TD*%
D34*
%TO.C,C8*%
X13970000Y-42765000D03*
X13970000Y-45465000D03*
%TD*%
D42*
%TO.C,U2*%
X8958500Y-44155000D03*
X8958500Y-43505000D03*
X8958500Y-42855000D03*
X8958500Y-42205000D03*
X3233500Y-42205000D03*
X3233500Y-42855000D03*
X3233500Y-43505000D03*
X3233500Y-44155000D03*
%TD*%
D19*
%TO.C,RN9*%
X2864000Y-23872000D03*
X3664000Y-23872000D03*
X4464000Y-23872000D03*
X5264000Y-23872000D03*
X5264000Y-22352000D03*
X4464000Y-22352000D03*
X3664000Y-22352000D03*
X2864000Y-22352000D03*
%TD*%
D37*
%TO.C,C24*%
X9652000Y-27673000D03*
X9652000Y-29223000D03*
%TD*%
D10*
%TO.C,R7*%
X-13982200Y-26314400D03*
X-12332200Y-26314400D03*
%TD*%
D15*
%TO.C,C32*%
X4077000Y-77724000D03*
X2527000Y-77724000D03*
%TD*%
D33*
%TO.C,RN1*%
X11936000Y-66224000D03*
X11936000Y-65424000D03*
X11936000Y-64624000D03*
X11936000Y-63824000D03*
X10416000Y-63824000D03*
X10416000Y-64624000D03*
X10416000Y-65424000D03*
X10416000Y-66224000D03*
%TD*%
D12*
%TO.C,D10*%
X-18621200Y-108686600D03*
X-15821200Y-108686600D03*
%TD*%
D33*
%TO.C,RN5*%
X510000Y-12135000D03*
X510000Y-12935000D03*
X510000Y-13735000D03*
X510000Y-14535000D03*
X2030000Y-14535000D03*
X2030000Y-13735000D03*
X2030000Y-12935000D03*
X2030000Y-12135000D03*
%TD*%
D12*
%TO.C,D9*%
X-18646600Y-95072200D03*
X-15846600Y-95072200D03*
%TD*%
D16*
%TO.C,C21*%
X-3950000Y-12700000D03*
X-2400000Y-12700000D03*
%TD*%
D19*
%TO.C,RN10*%
X8820000Y-64645000D03*
X8020000Y-64645000D03*
X7220000Y-64645000D03*
X6420000Y-64645000D03*
X6420000Y-66165000D03*
X7220000Y-66165000D03*
X8020000Y-66165000D03*
X8820000Y-66165000D03*
%TD*%
D14*
%TO.C,R19*%
X-12179800Y-95097600D03*
X-13829800Y-95097600D03*
%TD*%
D43*
%TO.C,C7*%
X16256000Y-79588000D03*
X16256000Y-83988000D03*
%TD*%
D37*
%TO.C,C26*%
X2540000Y-27673000D03*
X2540000Y-29223000D03*
%TD*%
D19*
%TO.C,RN4*%
X7296000Y-2796000D03*
X6496000Y-2796000D03*
X5696000Y-2796000D03*
X4896000Y-2796000D03*
X4896000Y-4316000D03*
X5696000Y-4316000D03*
X6496000Y-4316000D03*
X7296000Y-4316000D03*
%TD*%
D34*
%TO.C,C10*%
X8365617Y-58764511D03*
X8365617Y-61464511D03*
%TD*%
D15*
%TO.C,C29*%
X-2412217Y-67566567D03*
X-3962217Y-67566567D03*
%TD*%
D44*
%TO.C,C2*%
X-295000Y-99441000D03*
X4105000Y-99441000D03*
%TD*%
M02*
