%TF.GenerationSoftware,KiCad,Pcbnew,(6.0.6)*%
%TF.CreationDate,2022-08-14T16:56:23+02:00*%
%TF.ProjectId,eurorack-pmod-pcb,6575726f-7261-4636-9b2d-706d6f642d70,rev?*%
%TF.SameCoordinates,Original*%
%TF.FileFunction,Copper,L1,Top*%
%TF.FilePolarity,Positive*%
%FSLAX46Y46*%
G04 Gerber Fmt 4.6, Leading zero omitted, Abs format (unit mm)*
G04 Created by KiCad (PCBNEW (6.0.6)) date 2022-08-14 16:56:23*
%MOMM*%
%LPD*%
G01*
G04 APERTURE LIST*
G04 Aperture macros list*
%AMRoundRect*
0 Rectangle with rounded corners*
0 $1 Rounding radius*
0 $2 $3 $4 $5 $6 $7 $8 $9 X,Y pos of 4 corners*
0 Add a 4 corners polygon primitive as box body*
4,1,4,$2,$3,$4,$5,$6,$7,$8,$9,$2,$3,0*
0 Add four circle primitives for the rounded corners*
1,1,$1+$1,$2,$3*
1,1,$1+$1,$4,$5*
1,1,$1+$1,$6,$7*
1,1,$1+$1,$8,$9*
0 Add four rect primitives between the rounded corners*
20,1,$1+$1,$2,$3,$4,$5,0*
20,1,$1+$1,$4,$5,$6,$7,0*
20,1,$1+$1,$6,$7,$8,$9,0*
20,1,$1+$1,$8,$9,$2,$3,0*%
G04 Aperture macros list end*
%TA.AperFunction,SMDPad,CuDef*%
%ADD10RoundRect,0.200000X-0.200000X-0.275000X0.200000X-0.275000X0.200000X0.275000X-0.200000X0.275000X0*%
%TD*%
%TA.AperFunction,SMDPad,CuDef*%
%ADD11RoundRect,0.225000X0.250000X-0.225000X0.250000X0.225000X-0.250000X0.225000X-0.250000X-0.225000X0*%
%TD*%
%TA.AperFunction,SMDPad,CuDef*%
%ADD12RoundRect,0.250000X-0.375000X-0.625000X0.375000X-0.625000X0.375000X0.625000X-0.375000X0.625000X0*%
%TD*%
%TA.AperFunction,SMDPad,CuDef*%
%ADD13RoundRect,0.100000X-0.100000X0.637500X-0.100000X-0.637500X0.100000X-0.637500X0.100000X0.637500X0*%
%TD*%
%TA.AperFunction,SMDPad,CuDef*%
%ADD14RoundRect,0.200000X0.200000X0.275000X-0.200000X0.275000X-0.200000X-0.275000X0.200000X-0.275000X0*%
%TD*%
%TA.AperFunction,SMDPad,CuDef*%
%ADD15RoundRect,0.225000X0.225000X0.250000X-0.225000X0.250000X-0.225000X-0.250000X0.225000X-0.250000X0*%
%TD*%
%TA.AperFunction,SMDPad,CuDef*%
%ADD16RoundRect,0.225000X-0.225000X-0.250000X0.225000X-0.250000X0.225000X0.250000X-0.225000X0.250000X0*%
%TD*%
%TA.AperFunction,SMDPad,CuDef*%
%ADD17R,1.100000X1.100000*%
%TD*%
%TA.AperFunction,SMDPad,CuDef*%
%ADD18RoundRect,0.250000X-0.450000X-0.425000X0.450000X-0.425000X0.450000X0.425000X-0.450000X0.425000X0*%
%TD*%
%TA.AperFunction,SMDPad,CuDef*%
%ADD19R,0.430000X0.760000*%
%TD*%
%TA.AperFunction,SMDPad,CuDef*%
%ADD20RoundRect,0.062500X0.062500X-0.337500X0.062500X0.337500X-0.062500X0.337500X-0.062500X-0.337500X0*%
%TD*%
%TA.AperFunction,SMDPad,CuDef*%
%ADD21RoundRect,0.062500X0.337500X-0.062500X0.337500X0.062500X-0.337500X0.062500X-0.337500X-0.062500X0*%
%TD*%
%TA.AperFunction,ComponentPad*%
%ADD22C,0.500000*%
%TD*%
%TA.AperFunction,SMDPad,CuDef*%
%ADD23R,3.700000X3.700000*%
%TD*%
%TA.AperFunction,SMDPad,CuDef*%
%ADD24RoundRect,0.218750X0.256250X-0.218750X0.256250X0.218750X-0.256250X0.218750X-0.256250X-0.218750X0*%
%TD*%
%TA.AperFunction,ComponentPad*%
%ADD25RoundRect,0.725000X-0.725000X1.575000X-0.725000X-1.575000X0.725000X-1.575000X0.725000X1.575000X0*%
%TD*%
%TA.AperFunction,ComponentPad*%
%ADD26O,4.600000X2.500000*%
%TD*%
%TA.AperFunction,SMDPad,CuDef*%
%ADD27RoundRect,0.250000X0.550000X-1.250000X0.550000X1.250000X-0.550000X1.250000X-0.550000X-1.250000X0*%
%TD*%
%TA.AperFunction,ComponentPad*%
%ADD28C,0.800000*%
%TD*%
%TA.AperFunction,ComponentPad*%
%ADD29C,6.400000*%
%TD*%
%TA.AperFunction,SMDPad,CuDef*%
%ADD30R,0.760000X0.430000*%
%TD*%
%TA.AperFunction,ComponentPad*%
%ADD31R,1.700000X1.700000*%
%TD*%
%TA.AperFunction,ComponentPad*%
%ADD32O,1.700000X1.700000*%
%TD*%
%TA.AperFunction,SMDPad,CuDef*%
%ADD33RoundRect,0.250000X-0.425000X0.450000X-0.425000X-0.450000X0.425000X-0.450000X0.425000X0.450000X0*%
%TD*%
%TA.AperFunction,SMDPad,CuDef*%
%ADD34RoundRect,0.250000X0.450000X0.425000X-0.450000X0.425000X-0.450000X-0.425000X0.450000X-0.425000X0*%
%TD*%
%TA.AperFunction,SMDPad,CuDef*%
%ADD35RoundRect,0.250000X0.425000X-0.450000X0.425000X0.450000X-0.425000X0.450000X-0.425000X-0.450000X0*%
%TD*%
%TA.AperFunction,SMDPad,CuDef*%
%ADD36RoundRect,0.225000X-0.250000X0.225000X-0.250000X-0.225000X0.250000X-0.225000X0.250000X0.225000X0*%
%TD*%
%TA.AperFunction,SMDPad,CuDef*%
%ADD37RoundRect,0.218750X-0.218750X-0.256250X0.218750X-0.256250X0.218750X0.256250X-0.218750X0.256250X0*%
%TD*%
%TA.AperFunction,SMDPad,CuDef*%
%ADD38RoundRect,0.150000X-0.587500X-0.150000X0.587500X-0.150000X0.587500X0.150000X-0.587500X0.150000X0*%
%TD*%
%TA.AperFunction,SMDPad,CuDef*%
%ADD39RoundRect,0.200000X-0.275000X0.200000X-0.275000X-0.200000X0.275000X-0.200000X0.275000X0.200000X0*%
%TD*%
%TA.AperFunction,SMDPad,CuDef*%
%ADD40RoundRect,0.100000X0.100000X-0.637500X0.100000X0.637500X-0.100000X0.637500X-0.100000X-0.637500X0*%
%TD*%
%TA.AperFunction,SMDPad,CuDef*%
%ADD41RoundRect,0.100000X0.637500X0.100000X-0.637500X0.100000X-0.637500X-0.100000X0.637500X-0.100000X0*%
%TD*%
%TA.AperFunction,SMDPad,CuDef*%
%ADD42RoundRect,0.250000X-0.550000X1.250000X-0.550000X-1.250000X0.550000X-1.250000X0.550000X1.250000X0*%
%TD*%
%TA.AperFunction,SMDPad,CuDef*%
%ADD43RoundRect,0.250000X-1.250000X-0.550000X1.250000X-0.550000X1.250000X0.550000X-1.250000X0.550000X0*%
%TD*%
%TA.AperFunction,ViaPad*%
%ADD44C,0.800000*%
%TD*%
%TA.AperFunction,Conductor*%
%ADD45C,0.250000*%
%TD*%
%TA.AperFunction,Conductor*%
%ADD46C,0.254000*%
%TD*%
%TA.AperFunction,Conductor*%
%ADD47C,0.508000*%
%TD*%
G04 APERTURE END LIST*
D10*
%TO.P,R5,1*%
%TO.N,Net-(J4-PadT)*%
X-825000Y-19685000D03*
%TO.P,R5,2*%
%TO.N,Net-(C22-Pad1)*%
X825000Y-19685000D03*
%TD*%
D11*
%TO.P,C20,1*%
%TO.N,Net-(C20-Pad1)*%
X2540000Y-35573000D03*
%TO.P,C20,2*%
%TO.N,Net-(C20-Pad2)*%
X2540000Y-34023000D03*
%TD*%
D12*
%TO.P,D8,1,KA*%
%TO.N,Net-(C31-Pad2)*%
X-18646600Y-81330800D03*
%TO.P,D8,2,AK*%
%TO.N,Net-(D8-Pad2)*%
X-15846600Y-81330800D03*
%TD*%
D13*
%TO.P,U7,1*%
%TO.N,Net-(C29-Pad2)*%
X11475000Y-81592500D03*
%TO.P,U7,2,-*%
%TO.N,Net-(C29-Pad1)*%
X10825000Y-81592500D03*
%TO.P,U7,3,+*%
%TO.N,Net-(RN10-Pad7)*%
X10175000Y-81592500D03*
%TO.P,U7,4,V+*%
%TO.N,+12V*%
X9525000Y-81592500D03*
%TO.P,U7,5,+*%
%TO.N,Net-(RN10-Pad5)*%
X8875000Y-81592500D03*
%TO.P,U7,6,-*%
%TO.N,Net-(C31-Pad1)*%
X8225000Y-81592500D03*
%TO.P,U7,7*%
%TO.N,Net-(C31-Pad2)*%
X7575000Y-81592500D03*
%TO.P,U7,8*%
%TO.N,Net-(C33-Pad2)*%
X7575000Y-87317500D03*
%TO.P,U7,9,-*%
%TO.N,Net-(C33-Pad1)*%
X8225000Y-87317500D03*
%TO.P,U7,10,+*%
%TO.N,Net-(RN14-Pad7)*%
X8875000Y-87317500D03*
%TO.P,U7,11,V-*%
%TO.N,-12V*%
X9525000Y-87317500D03*
%TO.P,U7,12,+*%
%TO.N,Net-(RN14-Pad5)*%
X10175000Y-87317500D03*
%TO.P,U7,13,-*%
%TO.N,Net-(C35-Pad1)*%
X10825000Y-87317500D03*
%TO.P,U7,14*%
%TO.N,Net-(C35-Pad2)*%
X11475000Y-87317500D03*
%TD*%
D14*
%TO.P,R14,1*%
%TO.N,Net-(C28-Pad2)*%
X825000Y-60960000D03*
%TO.P,R14,2*%
%TO.N,Net-(J7-PadT)*%
X-825000Y-60960000D03*
%TD*%
D10*
%TO.P,R9,1*%
%TO.N,Net-(C24-Pad2)*%
X12383000Y-28448000D03*
%TO.P,R9,2*%
%TO.N,/dual_mono_inputs2/IN1_3V*%
X14033000Y-28448000D03*
%TD*%
D15*
%TO.P,C4,1*%
%TO.N,+3.3VA*%
X7760000Y-49149000D03*
%TO.P,C4,2*%
%TO.N,GND*%
X6210000Y-49149000D03*
%TD*%
D11*
%TO.P,C15,1*%
%TO.N,+12V*%
X11049000Y-70879000D03*
%TO.P,C15,2*%
%TO.N,GND*%
X11049000Y-69329000D03*
%TD*%
D10*
%TO.P,R4,1*%
%TO.N,GND*%
X-14033000Y-12598400D03*
%TO.P,R4,2*%
%TO.N,Net-(D3-Pad1)*%
X-12383000Y-12598400D03*
%TD*%
D14*
%TO.P,R15,1*%
%TO.N,GND*%
X-12052800Y-67614800D03*
%TO.P,R15,2*%
%TO.N,Net-(D7-Pad2)*%
X-13702800Y-67614800D03*
%TD*%
D12*
%TO.P,D5,1,KA*%
%TO.N,Net-(D5-Pad1)*%
X-18646600Y-40081200D03*
%TO.P,D5,2,AK*%
%TO.N,Net-(C25-Pad2)*%
X-15846600Y-40081200D03*
%TD*%
D16*
%TO.P,C23,1*%
%TO.N,Net-(C23-Pad1)*%
X-3950000Y-26416000D03*
%TO.P,C23,2*%
%TO.N,Net-(C23-Pad2)*%
X-2400000Y-26416000D03*
%TD*%
D17*
%TO.P,D2,1,K*%
%TO.N,Net-(D2-Pad1)*%
X9525000Y-104270000D03*
%TO.P,D2,2,A*%
%TO.N,Net-(D2-Pad2)*%
X9525000Y-101470000D03*
%TD*%
D10*
%TO.P,R6,1*%
%TO.N,Net-(C22-Pad2)*%
X12383000Y-34163000D03*
%TO.P,R6,2*%
%TO.N,/dual_mono_inputs1/IN2_3V*%
X14033000Y-34163000D03*
%TD*%
D18*
%TO.P,C11,1*%
%TO.N,Net-(C11-Pad1)*%
X10160000Y-50800000D03*
%TO.P,C11,2*%
%TO.N,GND*%
X12860000Y-50800000D03*
%TD*%
D12*
%TO.P,D7,1,KA*%
%TO.N,Net-(C29-Pad2)*%
X-18621200Y-67564000D03*
%TO.P,D7,2,AK*%
%TO.N,Net-(D7-Pad2)*%
X-15821200Y-67564000D03*
%TD*%
D15*
%TO.P,C31,1*%
%TO.N,Net-(C31-Pad1)*%
X-2400000Y-81280000D03*
%TO.P,C31,2*%
%TO.N,Net-(C31-Pad2)*%
X-3950000Y-81280000D03*
%TD*%
D16*
%TO.P,C34,1*%
%TO.N,Net-(C34-Pad1)*%
X7353000Y-77724000D03*
%TO.P,C34,2*%
%TO.N,Net-(C34-Pad2)*%
X8903000Y-77724000D03*
%TD*%
D11*
%TO.P,C22,1*%
%TO.N,Net-(C22-Pad1)*%
X9652000Y-35573000D03*
%TO.P,C22,2*%
%TO.N,Net-(C22-Pad2)*%
X9652000Y-34023000D03*
%TD*%
D19*
%TO.P,RN14,1,R1.1*%
%TO.N,/-VCOM*%
X2610000Y-80770000D03*
%TO.P,RN14,2,R2.1*%
%TO.N,/dual_mono_outputs2/OUT1*%
X3410000Y-80770000D03*
%TO.P,RN14,3,R3.1*%
%TO.N,/-VCOM*%
X4210000Y-80770000D03*
%TO.P,RN14,4,R4.1*%
%TO.N,/dual_mono_outputs2/OUT2*%
X5010000Y-80770000D03*
%TO.P,RN14,5,R4.2*%
%TO.N,Net-(RN14-Pad5)*%
X5010000Y-79250000D03*
%TO.P,RN14,6,R3.2*%
X4210000Y-79250000D03*
%TO.P,RN14,7,R2.2*%
%TO.N,Net-(RN14-Pad7)*%
X3410000Y-79250000D03*
%TO.P,RN14,8,R1.2*%
X2610000Y-79250000D03*
%TD*%
D12*
%TO.P,D6,1,KA*%
%TO.N,Net-(D6-Pad1)*%
X-18646600Y-53822600D03*
%TO.P,D6,2,AK*%
%TO.N,Net-(C27-Pad2)*%
X-15846600Y-53822600D03*
%TD*%
D14*
%TO.P,R18,1*%
%TO.N,Net-(C32-Pad2)*%
X825000Y-88265000D03*
%TO.P,R18,2*%
%TO.N,Net-(J9-PadT)*%
X-825000Y-88265000D03*
%TD*%
D16*
%TO.P,C9,1*%
%TO.N,/VREFH*%
X16375000Y-41275000D03*
%TO.P,C9,2*%
%TO.N,GND*%
X17925000Y-41275000D03*
%TD*%
%TO.P,C25,1*%
%TO.N,Net-(C25-Pad1)*%
X-4204000Y-40132000D03*
%TO.P,C25,2*%
%TO.N,Net-(C25-Pad2)*%
X-2654000Y-40132000D03*
%TD*%
D20*
%TO.P,U3,1,SDIN1*%
%TO.N,/SDIN1*%
X3175000Y-56290000D03*
%TO.P,U3,2,SDIN2*%
%TO.N,GND*%
X3675000Y-56290000D03*
%TO.P,U3,3,TVDD*%
%TO.N,VDD*%
X4175000Y-56290000D03*
%TO.P,U3,4,VSS2*%
%TO.N,GND*%
X4675000Y-56290000D03*
%TO.P,U3,5,AVDRV*%
%TO.N,Net-(C10-Pad1)*%
X5175000Y-56290000D03*
%TO.P,U3,6,LRCK*%
%TO.N,/LRCK*%
X5675000Y-56290000D03*
%TO.P,U3,7,BICK*%
%TO.N,/BICK*%
X6175000Y-56290000D03*
%TO.P,U3,8,MCLK*%
%TO.N,/MCLK*%
X6675000Y-56290000D03*
D21*
%TO.P,U3,9,IN4N/AIN5R/GND6R*%
%TO.N,unconnected-(U3-Pad9)*%
X7375000Y-55590000D03*
%TO.P,U3,10,IN4P/AIN4R/AIN6R*%
%TO.N,/dual_mono_inputs2/IN2_3V*%
X7375000Y-55090000D03*
%TO.P,U3,11,IN3N/AIN5L/GND6L*%
%TO.N,unconnected-(U3-Pad11)*%
X7375000Y-54590000D03*
%TO.P,U3,12,IN3P/AIN4L/AIN6L*%
%TO.N,/dual_mono_inputs2/IN1_3V*%
X7375000Y-54090000D03*
%TO.P,U3,13,IN2N/AIN2R/GND3R*%
%TO.N,unconnected-(U3-Pad13)*%
X7375000Y-53590000D03*
%TO.P,U3,14,IN2P/AIN1R/AIN3R*%
%TO.N,/dual_mono_inputs1/IN2_3V*%
X7375000Y-53090000D03*
%TO.P,U3,15,IN1N/AIN2L/GND3L*%
%TO.N,unconnected-(U3-Pad15)*%
X7375000Y-52590000D03*
%TO.P,U3,16,IN1P/AIN1L/AIN3L*%
%TO.N,/dual_mono_inputs1/IN1_3V*%
X7375000Y-52090000D03*
D20*
%TO.P,U3,17,VCOM*%
%TO.N,Net-(C11-Pad1)*%
X6675000Y-51390000D03*
%TO.P,U3,18,AVDD*%
%TO.N,+3.3VA*%
X6175000Y-51390000D03*
%TO.P,U3,19,VSS1*%
%TO.N,GND*%
X5675000Y-51390000D03*
%TO.P,U3,20,VREFL*%
X5175000Y-51390000D03*
%TO.P,U3,21,VREFH*%
%TO.N,/VREFH*%
X4675000Y-51390000D03*
%TO.P,U3,22,AOUT1L*%
%TO.N,/dual_mono_outputs1/OUT1*%
X4175000Y-51390000D03*
%TO.P,U3,23,AOUT1R*%
%TO.N,/dual_mono_outputs1/OUT2*%
X3675000Y-51390000D03*
%TO.P,U3,24,AOUT2L*%
%TO.N,/dual_mono_outputs2/OUT1*%
X3175000Y-51390000D03*
D21*
%TO.P,U3,25,AOUT2R*%
%TO.N,/dual_mono_outputs2/OUT2*%
X2475000Y-52090000D03*
%TO.P,U3,26,PDN*%
%TO.N,/PDN*%
X2475000Y-52590000D03*
%TO.P,U3,27,CAD/~{CS}*%
%TO.N,GND*%
X2475000Y-53090000D03*
%TO.P,U3,28,SCL/SCLK*%
%TO.N,/SCL*%
X2475000Y-53590000D03*
%TO.P,U3,29,SI*%
%TO.N,GND*%
X2475000Y-54090000D03*
%TO.P,U3,30,SDA/SO*%
%TO.N,/SDA*%
X2475000Y-54590000D03*
%TO.P,U3,31,SDOUT1*%
%TO.N,/SDOUT1*%
X2475000Y-55090000D03*
%TO.P,U3,32,SDOUT2*%
%TO.N,unconnected-(U3-Pad32)*%
X2475000Y-55590000D03*
D22*
%TO.P,U3,33,PAD*%
%TO.N,GND*%
X3925000Y-53840000D03*
X4925000Y-54840000D03*
X5925000Y-53840000D03*
X5925000Y-52840000D03*
X4925000Y-52840000D03*
X3925000Y-54840000D03*
X4925000Y-53840000D03*
X5925000Y-54840000D03*
X3925000Y-52840000D03*
D23*
X4925000Y-53840000D03*
%TD*%
D11*
%TO.P,C17,1*%
%TO.N,GND*%
X11176000Y-13932200D03*
%TO.P,C17,2*%
%TO.N,-12V*%
X11176000Y-12382200D03*
%TD*%
D24*
%TO.P,L3,1*%
%TO.N,VDD*%
X18268148Y-76222314D03*
%TO.P,L3,2*%
%TO.N,Net-(J2-Pad11)*%
X18268148Y-74647314D03*
%TD*%
D25*
%TO.P,J6,S*%
%TO.N,GND*%
X-17970000Y-46964776D03*
%TO.P,J6,T*%
%TO.N,Net-(J6-PadT)*%
X-4770000Y-46964776D03*
D26*
%TO.P,J6,TN*%
%TO.N,GND*%
X-6970000Y-52164776D03*
%TD*%
D15*
%TO.P,C33,1*%
%TO.N,Net-(C33-Pad1)*%
X-2400000Y-95250000D03*
%TO.P,C33,2*%
%TO.N,Net-(C33-Pad2)*%
X-3950000Y-95250000D03*
%TD*%
D19*
%TO.P,RN11,1,R1.1*%
%TO.N,Net-(C28-Pad1)*%
X1975000Y-66165000D03*
%TO.P,RN11,2,R2.1*%
%TO.N,Net-(C30-Pad1)*%
X2775000Y-66165000D03*
%TO.P,RN11,3,R3.1*%
%TO.N,Net-(C32-Pad1)*%
X3575000Y-66165000D03*
%TO.P,RN11,4,R4.1*%
%TO.N,Net-(C34-Pad1)*%
X4375000Y-66165000D03*
%TO.P,RN11,5,R4.2*%
%TO.N,Net-(C34-Pad2)*%
X4375000Y-64645000D03*
%TO.P,RN11,6,R3.2*%
%TO.N,Net-(C32-Pad2)*%
X3575000Y-64645000D03*
%TO.P,RN11,7,R2.2*%
%TO.N,Net-(C30-Pad2)*%
X2775000Y-64645000D03*
%TO.P,RN11,8,R1.2*%
%TO.N,Net-(C28-Pad2)*%
X1975000Y-64645000D03*
%TD*%
D24*
%TO.P,L4,1*%
%TO.N,+3.3VA*%
X15240000Y-76200000D03*
%TO.P,L4,2*%
%TO.N,VDD*%
X15240000Y-74625000D03*
%TD*%
D27*
%TO.P,C1,1*%
%TO.N,+12V*%
X5080000Y-94783000D03*
%TO.P,C1,2*%
%TO.N,GND*%
X5080000Y-90383000D03*
%TD*%
D19*
%TO.P,RN2,1,R1.1*%
%TO.N,Net-(RN2-Pad1)*%
X5264000Y-45976000D03*
%TO.P,RN2,2,R2.1*%
X4464000Y-45976000D03*
%TO.P,RN2,3,R3.1*%
%TO.N,Net-(RN2-Pad3)*%
X3664000Y-45976000D03*
%TO.P,RN2,4,R4.1*%
X2864000Y-45976000D03*
%TO.P,RN2,5,R4.2*%
%TO.N,/-VCOM*%
X2864000Y-47496000D03*
%TO.P,RN2,6,R3.2*%
%TO.N,Net-(RN2-Pad6)*%
X3664000Y-47496000D03*
%TO.P,RN2,7,R2.2*%
%TO.N,GND*%
X4464000Y-47496000D03*
%TO.P,RN2,8,R1.2*%
%TO.N,/VREFH*%
X5264000Y-47496000D03*
%TD*%
D28*
%TO.P,REF\u002A\u002A,1*%
%TO.N,N/C*%
X17445056Y-5761056D03*
X14050944Y-5761056D03*
X18148000Y-4064000D03*
D29*
X15748000Y-4064000D03*
D28*
X17445056Y-2366944D03*
X13348000Y-4064000D03*
X14050944Y-2366944D03*
X15748000Y-1664000D03*
X15748000Y-6464000D03*
%TD*%
D30*
%TO.P,RN13,1,R1.1*%
%TO.N,Net-(D7-Pad2)*%
X3685000Y-84525000D03*
%TO.P,RN13,2,R2.1*%
%TO.N,Net-(D8-Pad2)*%
X3685000Y-85325000D03*
%TO.P,RN13,3,R3.1*%
%TO.N,Net-(D9-Pad2)*%
X3685000Y-86125000D03*
%TO.P,RN13,4,R4.1*%
%TO.N,Net-(D10-Pad2)*%
X3685000Y-86925000D03*
%TO.P,RN13,5,R4.2*%
%TO.N,Net-(C35-Pad1)*%
X5205000Y-86925000D03*
%TO.P,RN13,6,R3.2*%
%TO.N,Net-(C33-Pad1)*%
X5205000Y-86125000D03*
%TO.P,RN13,7,R2.2*%
%TO.N,Net-(C31-Pad1)*%
X5205000Y-85325000D03*
%TO.P,RN13,8,R1.2*%
%TO.N,Net-(C29-Pad1)*%
X5205000Y-84525000D03*
%TD*%
%TO.P,RN12,1,R1.1*%
%TO.N,Net-(C28-Pad1)*%
X10670000Y-73095000D03*
%TO.P,RN12,2,R2.1*%
%TO.N,Net-(C30-Pad1)*%
X10670000Y-73895000D03*
%TO.P,RN12,3,R3.1*%
%TO.N,Net-(C32-Pad1)*%
X10670000Y-74695000D03*
%TO.P,RN12,4,R4.1*%
%TO.N,Net-(C34-Pad1)*%
X10670000Y-75495000D03*
%TO.P,RN12,5,R4.2*%
%TO.N,GND*%
X12190000Y-75495000D03*
%TO.P,RN12,6,R3.2*%
X12190000Y-74695000D03*
%TO.P,RN12,7,R2.2*%
X12190000Y-73895000D03*
%TO.P,RN12,8,R1.2*%
X12190000Y-73095000D03*
%TD*%
D31*
%TO.P,J1,1,Pin_1*%
%TO.N,Net-(D2-Pad1)*%
X17145000Y-104135000D03*
D32*
%TO.P,J1,2,Pin_2*%
X14605000Y-104135000D03*
%TO.P,J1,3,Pin_3*%
%TO.N,GND*%
X17145000Y-101595000D03*
%TO.P,J1,4,Pin_4*%
X14605000Y-101595000D03*
%TO.P,J1,5,Pin_5*%
X17145000Y-99055000D03*
%TO.P,J1,6,Pin_6*%
X14605000Y-99055000D03*
%TO.P,J1,7,Pin_7*%
X17145000Y-96515000D03*
%TO.P,J1,8,Pin_8*%
X14605000Y-96515000D03*
%TO.P,J1,9,Pin_9*%
%TO.N,Net-(D1-Pad2)*%
X17145000Y-93975000D03*
%TO.P,J1,10,Pin_10*%
X14605000Y-93975000D03*
%TD*%
D19*
%TO.P,RN7,1,R1.1*%
%TO.N,Net-(C24-Pad1)*%
X8052000Y-23872000D03*
%TO.P,RN7,2,R2.1*%
X8852000Y-23872000D03*
%TO.P,RN7,3,R3.1*%
%TO.N,GND*%
X9652000Y-23872000D03*
%TO.P,RN7,4,R4.1*%
X10452000Y-23872000D03*
%TO.P,RN7,5,R4.2*%
%TO.N,Net-(RN7-Pad5)*%
X10452000Y-22352000D03*
%TO.P,RN7,6,R3.2*%
X9652000Y-22352000D03*
%TO.P,RN7,7,R2.2*%
%TO.N,Net-(C24-Pad2)*%
X8852000Y-22352000D03*
%TO.P,RN7,8,R1.2*%
%TO.N,/-VCOM*%
X8052000Y-22352000D03*
%TD*%
D10*
%TO.P,R11,1*%
%TO.N,Net-(J6-PadT)*%
X-825000Y-46990000D03*
%TO.P,R11,2*%
%TO.N,Net-(C26-Pad1)*%
X825000Y-46990000D03*
%TD*%
D33*
%TO.P,C12,1*%
%TO.N,+12V*%
X13970000Y-36750000D03*
%TO.P,C12,2*%
%TO.N,GND*%
X13970000Y-39450000D03*
%TD*%
D10*
%TO.P,R2,1*%
%TO.N,Net-(J3-PadT)*%
X-825000Y-5715000D03*
%TO.P,R2,2*%
%TO.N,Net-(C20-Pad1)*%
X825000Y-5715000D03*
%TD*%
D14*
%TO.P,R20,1*%
%TO.N,Net-(C34-Pad2)*%
X266200Y-103124000D03*
%TO.P,R20,2*%
%TO.N,Net-(J10-PadT)*%
X-1383800Y-103124000D03*
%TD*%
%TO.P,R21,1*%
%TO.N,GND*%
X-12027400Y-108712000D03*
%TO.P,R21,2*%
%TO.N,Net-(D10-Pad2)*%
X-13677400Y-108712000D03*
%TD*%
D19*
%TO.P,RN3,1,R1.1*%
%TO.N,Net-(C20-Pad1)*%
X2464000Y-39112000D03*
%TO.P,RN3,2,R2.1*%
X3264000Y-39112000D03*
%TO.P,RN3,3,R3.1*%
%TO.N,GND*%
X4064000Y-39112000D03*
%TO.P,RN3,4,R4.1*%
X4864000Y-39112000D03*
%TO.P,RN3,5,R4.2*%
%TO.N,Net-(RN3-Pad5)*%
X4864000Y-37592000D03*
%TO.P,RN3,6,R3.2*%
X4064000Y-37592000D03*
%TO.P,RN3,7,R2.2*%
%TO.N,Net-(C20-Pad2)*%
X3264000Y-37592000D03*
%TO.P,RN3,8,R1.2*%
%TO.N,/-VCOM*%
X2464000Y-37592000D03*
%TD*%
D12*
%TO.P,D3,1,KA*%
%TO.N,Net-(D3-Pad1)*%
X-18621200Y-12598400D03*
%TO.P,D3,2,AK*%
%TO.N,Net-(C21-Pad2)*%
X-15821200Y-12598400D03*
%TD*%
D25*
%TO.P,J3,S*%
%TO.N,GND*%
X-17970000Y-5735611D03*
%TO.P,J3,T*%
%TO.N,Net-(J3-PadT)*%
X-4770000Y-5735611D03*
D26*
%TO.P,J3,TN*%
%TO.N,GND*%
X-6970000Y-10935611D03*
%TD*%
D34*
%TO.P,C14,1*%
%TO.N,+12V*%
X1985000Y-68580000D03*
%TO.P,C14,2*%
%TO.N,GND*%
X-715000Y-68580000D03*
%TD*%
D17*
%TO.P,D1,1,K*%
%TO.N,Net-(D1-Pad1)*%
X9525000Y-96142000D03*
%TO.P,D1,2,A*%
%TO.N,Net-(D1-Pad2)*%
X9525000Y-93342000D03*
%TD*%
D35*
%TO.P,C16,1*%
%TO.N,GND*%
X13208000Y-14558000D03*
%TO.P,C16,2*%
%TO.N,-12V*%
X13208000Y-11858000D03*
%TD*%
D18*
%TO.P,C3,1*%
%TO.N,+3.3VA*%
X10160000Y-48691800D03*
%TO.P,C3,2*%
%TO.N,GND*%
X12860000Y-48691800D03*
%TD*%
D14*
%TO.P,R17,1*%
%TO.N,GND*%
X-12090400Y-81330800D03*
%TO.P,R17,2*%
%TO.N,Net-(D8-Pad2)*%
X-13740400Y-81330800D03*
%TD*%
D36*
%TO.P,C6,1*%
%TO.N,VDD*%
X3175000Y-58534000D03*
%TO.P,C6,2*%
%TO.N,GND*%
X3175000Y-60084000D03*
%TD*%
D15*
%TO.P,C35,1*%
%TO.N,Net-(C35-Pad1)*%
X-2430543Y-108812750D03*
%TO.P,C35,2*%
%TO.N,Net-(C35-Pad2)*%
X-3980543Y-108812750D03*
%TD*%
D34*
%TO.P,C18,1*%
%TO.N,GND*%
X17225000Y-87630000D03*
%TO.P,C18,2*%
%TO.N,-12V*%
X14525000Y-87630000D03*
%TD*%
D11*
%TO.P,C30,1*%
%TO.N,Net-(C30-Pad1)*%
X1905000Y-72149000D03*
%TO.P,C30,2*%
%TO.N,Net-(C30-Pad2)*%
X1905000Y-70599000D03*
%TD*%
D16*
%TO.P,C27,1*%
%TO.N,Net-(C27-Pad1)*%
X-3950000Y-53975000D03*
%TO.P,C27,2*%
%TO.N,Net-(C27-Pad2)*%
X-2400000Y-53975000D03*
%TD*%
D33*
%TO.P,C5,1*%
%TO.N,VDD*%
X5080000Y-58771800D03*
%TO.P,C5,2*%
%TO.N,GND*%
X5080000Y-61471800D03*
%TD*%
D19*
%TO.P,RN6,1,R1.1*%
%TO.N,Net-(C22-Pad1)*%
X6640295Y-39107713D03*
%TO.P,RN6,2,R2.1*%
X7440295Y-39107713D03*
%TO.P,RN6,3,R3.1*%
%TO.N,GND*%
X8240295Y-39107713D03*
%TO.P,RN6,4,R4.1*%
X9040295Y-39107713D03*
%TO.P,RN6,5,R4.2*%
%TO.N,Net-(RN6-Pad5)*%
X9040295Y-37587713D03*
%TO.P,RN6,6,R3.2*%
X8240295Y-37587713D03*
%TO.P,RN6,7,R2.2*%
%TO.N,Net-(C22-Pad2)*%
X7440295Y-37587713D03*
%TO.P,RN6,8,R1.2*%
%TO.N,/-VCOM*%
X6640295Y-37587713D03*
%TD*%
D13*
%TO.P,U5,1*%
%TO.N,Net-(C21-Pad2)*%
X8554000Y-7805500D03*
%TO.P,U5,2,-*%
%TO.N,Net-(C21-Pad1)*%
X7904000Y-7805500D03*
%TO.P,U5,3,+*%
%TO.N,Net-(RN4-Pad1)*%
X7254000Y-7805500D03*
%TO.P,U5,4,V+*%
%TO.N,+12V*%
X6604000Y-7805500D03*
%TO.P,U5,5,+*%
%TO.N,Net-(RN4-Pad3)*%
X5954000Y-7805500D03*
%TO.P,U5,6,-*%
%TO.N,Net-(C23-Pad1)*%
X5304000Y-7805500D03*
%TO.P,U5,7*%
%TO.N,Net-(C23-Pad2)*%
X4654000Y-7805500D03*
%TO.P,U5,8*%
%TO.N,Net-(C25-Pad2)*%
X4654000Y-13530500D03*
%TO.P,U5,9,-*%
%TO.N,Net-(C25-Pad1)*%
X5304000Y-13530500D03*
%TO.P,U5,10,+*%
%TO.N,Net-(RN8-Pad1)*%
X5954000Y-13530500D03*
%TO.P,U5,11,V-*%
%TO.N,-12V*%
X6604000Y-13530500D03*
%TO.P,U5,12,+*%
%TO.N,Net-(RN8-Pad3)*%
X7254000Y-13530500D03*
%TO.P,U5,13,-*%
%TO.N,Net-(C27-Pad1)*%
X7904000Y-13530500D03*
%TO.P,U5,14*%
%TO.N,Net-(C27-Pad2)*%
X8554000Y-13530500D03*
%TD*%
D37*
%TO.P,L2,1*%
%TO.N,-12V*%
X6832500Y-99645452D03*
%TO.P,L2,2*%
%TO.N,Net-(D2-Pad2)*%
X8407500Y-99645452D03*
%TD*%
D38*
%TO.P,U1,1,K*%
%TO.N,/VREFH*%
X16207500Y-42865000D03*
%TO.P,U1,2,A*%
%TO.N,GND*%
X16207500Y-44765000D03*
%TO.P,U1,3*%
%TO.N,N/C*%
X18082500Y-43815000D03*
%TD*%
D11*
%TO.P,C28,1*%
%TO.N,Net-(C28-Pad1)*%
X9271000Y-70879000D03*
%TO.P,C28,2*%
%TO.N,Net-(C28-Pad2)*%
X9271000Y-69329000D03*
%TD*%
D15*
%TO.P,C19,1*%
%TO.N,GND*%
X16700800Y-89966800D03*
%TO.P,C19,2*%
%TO.N,-12V*%
X15150800Y-89966800D03*
%TD*%
D14*
%TO.P,R16,1*%
%TO.N,Net-(C30-Pad2)*%
X825000Y-75565000D03*
%TO.P,R16,2*%
%TO.N,Net-(J8-PadT)*%
X-825000Y-75565000D03*
%TD*%
D25*
%TO.P,J7,S*%
%TO.N,GND*%
X-17970000Y-60707831D03*
%TO.P,J7,T*%
%TO.N,Net-(J7-PadT)*%
X-4770000Y-60707831D03*
D26*
%TO.P,J7,TN*%
%TO.N,unconnected-(J7-PadTN)*%
X-6970000Y-65907831D03*
%TD*%
D39*
%TO.P,R1,1*%
%TO.N,/VREFH*%
X11938000Y-44895000D03*
%TO.P,R1,2*%
%TO.N,+3.3VA*%
X11938000Y-46545000D03*
%TD*%
D10*
%TO.P,R12,1*%
%TO.N,Net-(C26-Pad2)*%
X12383000Y-30353000D03*
%TO.P,R12,2*%
%TO.N,/dual_mono_inputs2/IN2_3V*%
X14033000Y-30353000D03*
%TD*%
D25*
%TO.P,J4,S*%
%TO.N,GND*%
X-17970000Y-19478666D03*
%TO.P,J4,T*%
%TO.N,Net-(J4-PadT)*%
X-4770000Y-19478666D03*
D26*
%TO.P,J4,TN*%
%TO.N,GND*%
X-6970000Y-24678666D03*
%TD*%
D25*
%TO.P,J10,S*%
%TO.N,GND*%
X-17970000Y-101937000D03*
%TO.P,J10,T*%
%TO.N,Net-(J10-PadT)*%
X-4770000Y-101937000D03*
D26*
%TO.P,J10,TN*%
%TO.N,unconnected-(J10-PadTN)*%
X-6970000Y-107137000D03*
%TD*%
D37*
%TO.P,L1,1*%
%TO.N,+12V*%
X6832500Y-97795000D03*
%TO.P,L1,2*%
%TO.N,Net-(D1-Pad1)*%
X8407500Y-97795000D03*
%TD*%
D19*
%TO.P,RN8,1,R1.1*%
%TO.N,Net-(RN8-Pad1)*%
X6896000Y-17272000D03*
%TO.P,RN8,2,R2.1*%
X6096000Y-17272000D03*
%TO.P,RN8,3,R3.1*%
%TO.N,Net-(RN8-Pad3)*%
X5296000Y-17272000D03*
%TO.P,RN8,4,R4.1*%
X4496000Y-17272000D03*
%TO.P,RN8,5,R4.2*%
%TO.N,/-VCOM*%
X4496000Y-18792000D03*
%TO.P,RN8,6,R3.2*%
%TO.N,Net-(C26-Pad2)*%
X5296000Y-18792000D03*
%TO.P,RN8,7,R2.2*%
%TO.N,/-VCOM*%
X6096000Y-18792000D03*
%TO.P,RN8,8,R1.2*%
%TO.N,Net-(C24-Pad2)*%
X6896000Y-18792000D03*
%TD*%
D25*
%TO.P,J5,S*%
%TO.N,GND*%
X-17970000Y-33221721D03*
%TO.P,J5,T*%
%TO.N,Net-(J5-PadT)*%
X-4770000Y-33221721D03*
D26*
%TO.P,J5,TN*%
%TO.N,GND*%
X-6970000Y-38421721D03*
%TD*%
D10*
%TO.P,R13,1*%
%TO.N,GND*%
X-13804400Y-54000400D03*
%TO.P,R13,2*%
%TO.N,Net-(D6-Pad1)*%
X-12154400Y-54000400D03*
%TD*%
%TO.P,R8,1*%
%TO.N,Net-(J5-PadT)*%
X-825000Y-33020000D03*
%TO.P,R8,2*%
%TO.N,Net-(C24-Pad1)*%
X825000Y-33020000D03*
%TD*%
D36*
%TO.P,C13,1*%
%TO.N,+12V*%
X12065000Y-36690000D03*
%TO.P,C13,2*%
%TO.N,GND*%
X12065000Y-38240000D03*
%TD*%
D10*
%TO.P,R3,1*%
%TO.N,Net-(C20-Pad2)*%
X12383000Y-32258000D03*
%TO.P,R3,2*%
%TO.N,/dual_mono_inputs1/IN1_3V*%
X14033000Y-32258000D03*
%TD*%
%TO.P,R10,1*%
%TO.N,GND*%
X-13982200Y-40081200D03*
%TO.P,R10,2*%
%TO.N,Net-(D5-Pad1)*%
X-12332200Y-40081200D03*
%TD*%
D13*
%TO.P,U6,1*%
%TO.N,Net-(C28-Pad2)*%
X7665000Y-70162500D03*
%TO.P,U6,2,-*%
%TO.N,Net-(C28-Pad1)*%
X7015000Y-70162500D03*
%TO.P,U6,3,+*%
%TO.N,Net-(RN10-Pad7)*%
X6365000Y-70162500D03*
%TO.P,U6,4,V+*%
%TO.N,+12V*%
X5715000Y-70162500D03*
%TO.P,U6,5,+*%
%TO.N,Net-(RN10-Pad5)*%
X5065000Y-70162500D03*
%TO.P,U6,6,-*%
%TO.N,Net-(C30-Pad1)*%
X4415000Y-70162500D03*
%TO.P,U6,7*%
%TO.N,Net-(C30-Pad2)*%
X3765000Y-70162500D03*
%TO.P,U6,8*%
%TO.N,Net-(C32-Pad2)*%
X3765000Y-75887500D03*
%TO.P,U6,9,-*%
%TO.N,Net-(C32-Pad1)*%
X4415000Y-75887500D03*
%TO.P,U6,10,+*%
%TO.N,Net-(RN14-Pad7)*%
X5065000Y-75887500D03*
%TO.P,U6,11,V-*%
%TO.N,-12V*%
X5715000Y-75887500D03*
%TO.P,U6,12,+*%
%TO.N,Net-(RN14-Pad5)*%
X6365000Y-75887500D03*
%TO.P,U6,13,-*%
%TO.N,Net-(C34-Pad1)*%
X7015000Y-75887500D03*
%TO.P,U6,14*%
%TO.N,Net-(C34-Pad2)*%
X7665000Y-75887500D03*
%TD*%
D12*
%TO.P,D4,1,KA*%
%TO.N,Net-(D4-Pad1)*%
X-18643600Y-26339800D03*
%TO.P,D4,2,AK*%
%TO.N,Net-(C23-Pad2)*%
X-15843600Y-26339800D03*
%TD*%
D40*
%TO.P,U4,1*%
%TO.N,Net-(C20-Pad2)*%
X4146000Y-34358500D03*
%TO.P,U4,2,-*%
%TO.N,Net-(C20-Pad1)*%
X4796000Y-34358500D03*
%TO.P,U4,3,+*%
%TO.N,Net-(RN3-Pad5)*%
X5446000Y-34358500D03*
%TO.P,U4,4,V+*%
%TO.N,+12V*%
X6096000Y-34358500D03*
%TO.P,U4,5,+*%
%TO.N,Net-(C22-Pad1)*%
X6746000Y-34358500D03*
%TO.P,U4,6,-*%
%TO.N,Net-(RN6-Pad5)*%
X7396000Y-34358500D03*
%TO.P,U4,7*%
%TO.N,Net-(C22-Pad2)*%
X8046000Y-34358500D03*
%TO.P,U4,8*%
%TO.N,Net-(C24-Pad2)*%
X8046000Y-28633500D03*
%TO.P,U4,9,-*%
%TO.N,Net-(C24-Pad1)*%
X7396000Y-28633500D03*
%TO.P,U4,10,+*%
%TO.N,Net-(RN7-Pad5)*%
X6746000Y-28633500D03*
%TO.P,U4,11,V-*%
%TO.N,-12V*%
X6096000Y-28633500D03*
%TO.P,U4,12,+*%
%TO.N,Net-(C26-Pad1)*%
X5446000Y-28633500D03*
%TO.P,U4,13,-*%
%TO.N,Net-(RN9-Pad5)*%
X4796000Y-28633500D03*
%TO.P,U4,14*%
%TO.N,Net-(C26-Pad2)*%
X4146000Y-28633500D03*
%TD*%
D33*
%TO.P,C8,1*%
%TO.N,/VREFH*%
X13970000Y-42765000D03*
%TO.P,C8,2*%
%TO.N,GND*%
X13970000Y-45465000D03*
%TD*%
D28*
%TO.P,REF\u002A\u002A,1*%
%TO.N,N/C*%
X4673600Y-108521200D03*
X6370656Y-107818256D03*
X2976544Y-107818256D03*
D29*
X4673600Y-106121200D03*
D28*
X4673600Y-103721200D03*
X2273600Y-106121200D03*
X2976544Y-104424144D03*
X6370656Y-104424144D03*
X7073600Y-106121200D03*
%TD*%
D41*
%TO.P,U2,1*%
%TO.N,Net-(RN2-Pad6)*%
X8958500Y-44155000D03*
%TO.P,U2,2,-*%
X8958500Y-43505000D03*
%TO.P,U2,3,+*%
%TO.N,Net-(RN2-Pad1)*%
X8958500Y-42855000D03*
%TO.P,U2,4,V-*%
%TO.N,-12V*%
X8958500Y-42205000D03*
%TO.P,U2,5,+*%
%TO.N,GND*%
X3233500Y-42205000D03*
%TO.P,U2,6,-*%
%TO.N,Net-(RN2-Pad3)*%
X3233500Y-42855000D03*
%TO.P,U2,7*%
%TO.N,/-VCOM*%
X3233500Y-43505000D03*
%TO.P,U2,8,V+*%
%TO.N,+12V*%
X3233500Y-44155000D03*
%TD*%
D19*
%TO.P,RN9,1,R1.1*%
%TO.N,Net-(C26-Pad1)*%
X2864000Y-23872000D03*
%TO.P,RN9,2,R2.1*%
X3664000Y-23872000D03*
%TO.P,RN9,3,R3.1*%
%TO.N,GND*%
X4464000Y-23872000D03*
%TO.P,RN9,4,R4.1*%
X5264000Y-23872000D03*
%TO.P,RN9,5,R4.2*%
%TO.N,Net-(RN9-Pad5)*%
X5264000Y-22352000D03*
%TO.P,RN9,6,R3.2*%
X4464000Y-22352000D03*
%TO.P,RN9,7,R2.2*%
%TO.N,Net-(C26-Pad2)*%
X3664000Y-22352000D03*
%TO.P,RN9,8,R1.2*%
%TO.N,/-VCOM*%
X2864000Y-22352000D03*
%TD*%
D36*
%TO.P,C24,1*%
%TO.N,Net-(C24-Pad1)*%
X9652000Y-27673000D03*
%TO.P,C24,2*%
%TO.N,Net-(C24-Pad2)*%
X9652000Y-29223000D03*
%TD*%
D10*
%TO.P,R7,1*%
%TO.N,GND*%
X-13982200Y-26314400D03*
%TO.P,R7,2*%
%TO.N,Net-(D4-Pad1)*%
X-12332200Y-26314400D03*
%TD*%
D15*
%TO.P,C32,1*%
%TO.N,Net-(C32-Pad1)*%
X4077000Y-77724000D03*
%TO.P,C32,2*%
%TO.N,Net-(C32-Pad2)*%
X2527000Y-77724000D03*
%TD*%
D30*
%TO.P,RN1,1*%
%TO.N,N/C*%
X11936000Y-66224000D03*
%TO.P,RN1,2,R2.1*%
%TO.N,/SCL*%
X11936000Y-65424000D03*
%TO.P,RN1,3,R3.1*%
%TO.N,/SDA*%
X11936000Y-64624000D03*
%TO.P,RN1,4,R4.1*%
%TO.N,/PDN*%
X11936000Y-63824000D03*
%TO.P,RN1,5,R4.2*%
%TO.N,VDD*%
X10416000Y-63824000D03*
%TO.P,RN1,6,R3.2*%
X10416000Y-64624000D03*
%TO.P,RN1,7,R2.2*%
X10416000Y-65424000D03*
%TO.P,RN1,8*%
%TO.N,N/C*%
X10416000Y-66224000D03*
%TD*%
D12*
%TO.P,D10,1,KA*%
%TO.N,Net-(C35-Pad2)*%
X-18621200Y-108686600D03*
%TO.P,D10,2,AK*%
%TO.N,Net-(D10-Pad2)*%
X-15821200Y-108686600D03*
%TD*%
D30*
%TO.P,RN5,1,R1.1*%
%TO.N,Net-(D3-Pad1)*%
X510000Y-12135000D03*
%TO.P,RN5,2,R2.1*%
%TO.N,Net-(D4-Pad1)*%
X510000Y-12935000D03*
%TO.P,RN5,3,R3.1*%
%TO.N,Net-(D5-Pad1)*%
X510000Y-13735000D03*
%TO.P,RN5,4,R4.1*%
%TO.N,Net-(D6-Pad1)*%
X510000Y-14535000D03*
%TO.P,RN5,5,R4.2*%
%TO.N,Net-(C27-Pad1)*%
X2030000Y-14535000D03*
%TO.P,RN5,6,R3.2*%
%TO.N,Net-(C25-Pad1)*%
X2030000Y-13735000D03*
%TO.P,RN5,7,R2.2*%
%TO.N,Net-(C23-Pad1)*%
X2030000Y-12935000D03*
%TO.P,RN5,8,R1.2*%
%TO.N,Net-(C21-Pad1)*%
X2030000Y-12135000D03*
%TD*%
D12*
%TO.P,D9,1,KA*%
%TO.N,Net-(C33-Pad2)*%
X-18646600Y-95072200D03*
%TO.P,D9,2,AK*%
%TO.N,Net-(D9-Pad2)*%
X-15846600Y-95072200D03*
%TD*%
D16*
%TO.P,C21,1*%
%TO.N,Net-(C21-Pad1)*%
X-3950000Y-12700000D03*
%TO.P,C21,2*%
%TO.N,Net-(C21-Pad2)*%
X-2400000Y-12700000D03*
%TD*%
D19*
%TO.P,RN10,1,R1.1*%
%TO.N,/-VCOM*%
X8820000Y-64645000D03*
%TO.P,RN10,2,R2.1*%
%TO.N,/dual_mono_outputs1/OUT1*%
X8020000Y-64645000D03*
%TO.P,RN10,3,R3.1*%
%TO.N,/-VCOM*%
X7220000Y-64645000D03*
%TO.P,RN10,4,R4.1*%
%TO.N,/dual_mono_outputs1/OUT2*%
X6420000Y-64645000D03*
%TO.P,RN10,5,R4.2*%
%TO.N,Net-(RN10-Pad5)*%
X6420000Y-66165000D03*
%TO.P,RN10,6,R3.2*%
X7220000Y-66165000D03*
%TO.P,RN10,7,R2.2*%
%TO.N,Net-(RN10-Pad7)*%
X8020000Y-66165000D03*
%TO.P,RN10,8,R1.2*%
X8820000Y-66165000D03*
%TD*%
D14*
%TO.P,R19,1*%
%TO.N,GND*%
X-12179800Y-95097600D03*
%TO.P,R19,2*%
%TO.N,Net-(D9-Pad2)*%
X-13829800Y-95097600D03*
%TD*%
D25*
%TO.P,J9,S*%
%TO.N,GND*%
X-17970000Y-88193941D03*
%TO.P,J9,T*%
%TO.N,Net-(J9-PadT)*%
X-4770000Y-88193941D03*
D26*
%TO.P,J9,TN*%
%TO.N,unconnected-(J9-PadTN)*%
X-6970000Y-93393941D03*
%TD*%
D42*
%TO.P,C7,1*%
%TO.N,VDD*%
X16256000Y-79588000D03*
%TO.P,C7,2*%
%TO.N,GND*%
X16256000Y-83988000D03*
%TD*%
D36*
%TO.P,C26,1*%
%TO.N,Net-(C26-Pad1)*%
X2540000Y-27673000D03*
%TO.P,C26,2*%
%TO.N,Net-(C26-Pad2)*%
X2540000Y-29223000D03*
%TD*%
D19*
%TO.P,RN4,1,R1.1*%
%TO.N,Net-(RN4-Pad1)*%
X7296000Y-2796000D03*
%TO.P,RN4,2,R2.1*%
X6496000Y-2796000D03*
%TO.P,RN4,3,R3.1*%
%TO.N,Net-(RN4-Pad3)*%
X5696000Y-2796000D03*
%TO.P,RN4,4,R4.1*%
X4896000Y-2796000D03*
%TO.P,RN4,5,R4.2*%
%TO.N,/-VCOM*%
X4896000Y-4316000D03*
%TO.P,RN4,6,R3.2*%
%TO.N,Net-(C22-Pad2)*%
X5696000Y-4316000D03*
%TO.P,RN4,7,R2.2*%
%TO.N,/-VCOM*%
X6496000Y-4316000D03*
%TO.P,RN4,8,R1.2*%
%TO.N,Net-(C20-Pad2)*%
X7296000Y-4316000D03*
%TD*%
D33*
%TO.P,C10,1*%
%TO.N,Net-(C10-Pad1)*%
X8365617Y-58764511D03*
%TO.P,C10,2*%
%TO.N,GND*%
X8365617Y-61464511D03*
%TD*%
D31*
%TO.P,J2,1,Pin_1*%
%TO.N,/SDIN1*%
X17145000Y-69850000D03*
D32*
%TO.P,J2,2,Pin_2*%
%TO.N,/SCL*%
X14605000Y-69850000D03*
%TO.P,J2,3,Pin_3*%
%TO.N,/SDOUT1*%
X17145000Y-67310000D03*
%TO.P,J2,4,Pin_4*%
%TO.N,/SDA*%
X14605000Y-67310000D03*
%TO.P,J2,5,Pin_5*%
%TO.N,/LRCK*%
X17145000Y-64770000D03*
%TO.P,J2,6,Pin_6*%
%TO.N,/PDN*%
X14605000Y-64770000D03*
%TO.P,J2,7,Pin_7*%
%TO.N,/BICK*%
X17145000Y-62230000D03*
%TO.P,J2,8,Pin_8*%
%TO.N,/MCLK*%
X14605000Y-62230000D03*
%TO.P,J2,9,Pin_9*%
%TO.N,GND*%
X17145000Y-59690000D03*
%TO.P,J2,10,Pin_10*%
X14605000Y-59690000D03*
%TO.P,J2,11,Pin_11*%
%TO.N,Net-(J2-Pad11)*%
X17145000Y-57150000D03*
%TO.P,J2,12,Pin_12*%
X14605000Y-57150000D03*
%TD*%
D15*
%TO.P,C29,1*%
%TO.N,Net-(C29-Pad1)*%
X-2412217Y-67566567D03*
%TO.P,C29,2*%
%TO.N,Net-(C29-Pad2)*%
X-3962217Y-67566567D03*
%TD*%
D25*
%TO.P,J8,S*%
%TO.N,GND*%
X-17970000Y-74450886D03*
%TO.P,J8,T*%
%TO.N,Net-(J8-PadT)*%
X-4770000Y-74450886D03*
D26*
%TO.P,J8,TN*%
%TO.N,unconnected-(J8-PadTN)*%
X-6970000Y-79650886D03*
%TD*%
D43*
%TO.P,C2,1*%
%TO.N,GND*%
X-295000Y-99441000D03*
%TO.P,C2,2*%
%TO.N,-12V*%
X4105000Y-99441000D03*
%TD*%
D44*
%TO.N,GND*%
X-14224000Y-11176000D03*
X5080000Y-88392000D03*
X18288000Y-88900000D03*
X12192000Y-76708000D03*
X-14224000Y-52324000D03*
X18796000Y-40132000D03*
X12700000Y-39624000D03*
X330200Y-100914200D03*
X-10668000Y-67564000D03*
X9652000Y-24892000D03*
X6604000Y-90424000D03*
X-14224000Y-24892000D03*
X5080000Y-24892000D03*
X-14224000Y-38608000D03*
X-10668000Y-81280000D03*
X15748000Y-46228000D03*
X3556000Y-90424000D03*
X4064000Y-61468000D03*
X14732000Y-84328000D03*
X14224000Y-49784000D03*
X431800Y-97866200D03*
X-733318Y-70289739D03*
X9830704Y-68328994D03*
X17780000Y-84328000D03*
X-10668000Y-94996000D03*
X8035679Y-61794813D03*
X3556000Y-40640000D03*
X8636000Y-40132000D03*
X4139200Y-48416091D03*
X-10160000Y-108712000D03*
X11684000Y-15240000D03*
X6604000Y-48133000D03*
%TO.N,+3.3VA*%
X14732000Y-76708000D03*
X10922000Y-47371000D03*
%TO.N,VDD*%
X4572000Y-58128500D03*
X10160000Y-62992000D03*
X14732000Y-73660000D03*
%TO.N,Net-(C33-Pad1)*%
X-1016000Y-95250000D03*
X6241340Y-87021939D03*
%TO.N,+12V*%
X11044701Y-71759299D03*
X4879818Y-71785734D03*
X13208937Y-35561373D03*
X6678500Y-6604000D03*
X3048000Y-68580000D03*
X4863002Y-97014500D03*
X9431135Y-83003391D03*
X5080000Y-44196000D03*
X6096000Y-33020000D03*
%TO.N,-12V*%
X11684000Y-10668000D03*
X9652000Y-88554500D03*
X5733318Y-74324310D03*
X6096000Y-29972000D03*
X13716000Y-89408000D03*
X5080000Y-100276593D03*
X7112000Y-42164000D03*
X6678500Y-11684000D03*
%TO.N,Net-(C33-Pad2)*%
X-3175000Y-93726000D03*
X7370299Y-88269299D03*
%TO.N,Net-(D3-Pad1)*%
X-762000Y-11049000D03*
X-11049000Y-12700000D03*
%TO.N,Net-(D7-Pad2)*%
X889000Y-82550000D03*
X-14478000Y-65659000D03*
%TO.N,/SDIN1*%
X11176000Y-57404000D03*
X13335000Y-58420000D03*
X2921000Y-57277000D03*
%TO.N,/SCL*%
X1270000Y-53594000D03*
X7091117Y-61468000D03*
X12128500Y-67691000D03*
%TO.N,/SDOUT1*%
X13208000Y-73660000D03*
X6326572Y-60805765D03*
%TO.N,/SDA*%
X6514500Y-59713204D03*
X1265701Y-54614299D03*
%TO.N,/LRCK*%
X10155046Y-59927835D03*
%TO.N,/PDN*%
X4699000Y-49276000D03*
X8890000Y-49911000D03*
X1262712Y-52594524D03*
%TO.N,Net-(C34-Pad1)*%
X4826000Y-65786000D03*
X5916340Y-67956372D03*
X7859111Y-74526391D03*
%TO.N,Net-(D5-Pad1)*%
X-1905000Y-15494000D03*
X-13081000Y-36322000D03*
%TO.N,Net-(C34-Pad2)*%
X1392701Y-83443299D03*
X8927500Y-75872067D03*
X1288115Y-63559201D03*
%TO.N,Net-(D9-Pad2)*%
X-1397000Y-86233000D03*
X2794000Y-86106000D03*
%TO.N,/-VCOM*%
X3556000Y-5080000D03*
X3544858Y-20816544D03*
X-2032000Y-62992000D03*
X1524000Y-37592000D03*
X1218000Y-80854846D03*
X2032000Y-45212000D03*
%TO.N,/dual_mono_inputs1/IN1_3V*%
X15240000Y-49149000D03*
X16637000Y-32258000D03*
%TO.N,Net-(C35-Pad2)*%
X12700000Y-87249000D03*
X-2997200Y-106324400D03*
%TO.N,Net-(D6-Pad1)*%
X-4064000Y-16383000D03*
X-13081000Y-50165000D03*
%TO.N,/dual_mono_inputs1/IN2_3V*%
X17653000Y-34163000D03*
X16002000Y-48260000D03*
%TO.N,/dual_mono_inputs2/IN1_3V*%
X15621000Y-28448000D03*
X16891000Y-47498000D03*
%TO.N,Net-(RN3-Pad5)*%
X5715000Y-35941000D03*
X5961496Y-38347854D03*
%TO.N,/dual_mono_inputs2/IN2_3V*%
X17653000Y-46609000D03*
X18542000Y-38354000D03*
%TO.N,/dual_mono_outputs1/OUT1*%
X4903900Y-63754247D03*
X1616345Y-48670657D03*
%TO.N,Net-(C20-Pad1)*%
X889000Y-7112000D03*
X762000Y-36068000D03*
%TO.N,/dual_mono_outputs1/OUT2*%
X5969000Y-63754000D03*
X1778000Y-49657000D03*
%TO.N,Net-(C20-Pad2)*%
X12954000Y-8509000D03*
X7493000Y-5461000D03*
X3543000Y-34023000D03*
X3803200Y-36614250D03*
%TO.N,Net-(D10-Pad2)*%
X-17145000Y-108712000D03*
X3683000Y-88138000D03*
%TO.N,/dual_mono_outputs2/OUT1*%
X545500Y-78381715D03*
X2032000Y-50673000D03*
X3410712Y-81284200D03*
%TO.N,/dual_mono_outputs2/OUT2*%
X1152613Y-51601104D03*
X4876922Y-82338324D03*
X1942500Y-81915000D03*
%TO.N,Net-(C21-Pad2)*%
X11303000Y-7112000D03*
X-15875000Y-14478000D03*
%TO.N,Net-(C22-Pad1)*%
X3556000Y-32639000D03*
X6841503Y-36068000D03*
X6985000Y-40259000D03*
%TO.N,Net-(C22-Pad2)*%
X10922000Y-34798000D03*
X3683000Y-3810000D03*
%TO.N,Net-(C23-Pad1)*%
X5207000Y-10287000D03*
X5207000Y-6604000D03*
%TO.N,Net-(C23-Pad2)*%
X-15748000Y-28321000D03*
X2159000Y-8001000D03*
%TO.N,Net-(C24-Pad1)*%
X-889000Y-26543000D03*
X8052000Y-26086000D03*
%TO.N,Net-(C25-Pad1)*%
X-2540000Y-38354000D03*
X3810000Y-13843000D03*
%TO.N,Net-(C25-Pad2)*%
X-15748000Y-41910000D03*
X4572000Y-14807000D03*
%TO.N,Net-(D8-Pad2)*%
X2413000Y-85090000D03*
X-13716000Y-79883000D03*
%TO.N,Net-(C26-Pad1)*%
X2864000Y-26867000D03*
X2286000Y-32512000D03*
%TO.N,Net-(C26-Pad2)*%
X4191000Y-26797000D03*
X3836543Y-30240351D03*
%TO.N,Net-(C27-Pad1)*%
X3810000Y-16256000D03*
X-3048000Y-52324000D03*
%TO.N,Net-(C27-Pad2)*%
X5686614Y-14847178D03*
X8509000Y-14986000D03*
X-15875000Y-55753000D03*
%TO.N,Net-(C28-Pad1)*%
X2413000Y-67305500D03*
X6940938Y-68980970D03*
%TO.N,Net-(C29-Pad1)*%
X7747000Y-85090000D03*
X-2794000Y-68961000D03*
%TO.N,Net-(C29-Pad2)*%
X11620718Y-82302654D03*
X13462000Y-91313000D03*
X-4699000Y-69088000D03*
X9779000Y-91313000D03*
%TO.N,Net-(C30-Pad2)*%
X2413000Y-63627000D03*
X95999Y-70867094D03*
X2794000Y-71247000D03*
%TO.N,Net-(RN9-Pad5)*%
X4826000Y-30099000D03*
X4910676Y-21640922D03*
%TO.N,Net-(C31-Pad1)*%
X3688988Y-83417508D03*
X-1397000Y-82296000D03*
%TO.N,Net-(C31-Pad2)*%
X-3302000Y-82423000D03*
X6731000Y-81788000D03*
%TO.N,Net-(C32-Pad1)*%
X3810000Y-73533000D03*
X4445000Y-67310000D03*
%TO.N,Net-(RN10-Pad7)*%
X10414000Y-83185000D03*
X6477000Y-71374000D03*
X9017000Y-78798500D03*
X6858000Y-74168000D03*
%TO.N,Net-(RN10-Pad5)*%
X11684000Y-77978000D03*
X7620000Y-83693000D03*
X9906000Y-67310000D03*
X6731000Y-67183000D03*
%TD*%
D45*
%TO.N,Net-(C10-Pad1)*%
X8365617Y-58764511D02*
X6929417Y-58764511D01*
X6929417Y-58764511D02*
X5175000Y-57010094D01*
X5175000Y-57010094D02*
X5175000Y-56290000D01*
D46*
%TO.N,GND*%
X6210000Y-49149000D02*
X6210000Y-48527000D01*
X17925000Y-41275000D02*
X17925000Y-41003000D01*
X10645500Y-68925500D02*
X10427210Y-68925500D01*
X3675000Y-53090000D02*
X3925000Y-52840000D01*
X-14033000Y-11367000D02*
X-14224000Y-11176000D01*
X17440000Y-83988000D02*
X17780000Y-84328000D01*
X8035679Y-61794449D02*
X8035679Y-61794813D01*
X3647000Y-90515000D02*
X3556000Y-90424000D01*
X-13982200Y-38849800D02*
X-14224000Y-38608000D01*
X3675000Y-55090000D02*
X4925000Y-53840000D01*
X11049000Y-69329000D02*
X10645500Y-68925500D01*
X3675000Y-54090000D02*
X3925000Y-53840000D01*
X5175000Y-53590000D02*
X4925000Y-53840000D01*
X4675000Y-54090000D02*
X4925000Y-53840000D01*
X12190000Y-75495000D02*
X12190000Y-74695000D01*
X-13982200Y-26314400D02*
X-13982200Y-25133800D01*
X13970000Y-45465000D02*
X14985000Y-45465000D01*
X12190000Y-75495000D02*
X12190000Y-76706000D01*
X11176000Y-14732000D02*
X11684000Y-15240000D01*
X8365617Y-61464511D02*
X8035679Y-61794449D01*
X5075000Y-90515000D02*
X5075000Y-88397000D01*
X12874000Y-39450000D02*
X12700000Y-39624000D01*
X12190000Y-74695000D02*
X12190000Y-73895000D01*
X16256000Y-83988000D02*
X17440000Y-83988000D01*
X4068000Y-39112000D02*
X4064000Y-39116000D01*
X12366000Y-14558000D02*
X11684000Y-15240000D01*
X9652000Y-23872000D02*
X9652000Y-24892000D01*
X4464000Y-48091291D02*
X4139200Y-48416091D01*
X12190000Y-76706000D02*
X12192000Y-76708000D01*
X13208000Y-14558000D02*
X12366000Y-14558000D01*
X4864000Y-39112000D02*
X4068000Y-39112000D01*
X-715000Y-68580000D02*
X-715000Y-70271421D01*
X13208000Y-50800000D02*
X14224000Y-49784000D01*
D47*
X-295000Y-100289000D02*
X330200Y-100914200D01*
X-295000Y-98593000D02*
X431800Y-97866200D01*
D46*
X5075000Y-90515000D02*
X6513000Y-90515000D01*
X5264000Y-24708000D02*
X5080000Y-24892000D01*
X12190000Y-73095000D02*
X12190000Y-73895000D01*
X-13804400Y-54000400D02*
X-13804400Y-52743600D01*
X5675000Y-53090000D02*
X4925000Y-53840000D01*
X3175000Y-60579000D02*
X4064000Y-61468000D01*
X10427210Y-68925500D02*
X9830704Y-68328994D01*
X14985000Y-45465000D02*
X15748000Y-46228000D01*
X8240295Y-39736295D02*
X8636000Y-40132000D01*
X-12027400Y-108712000D02*
X-10160000Y-108712000D01*
X4067800Y-61471800D02*
X4064000Y-61468000D01*
X3233500Y-40962500D02*
X3556000Y-40640000D01*
X16207500Y-44765000D02*
X16207500Y-45768500D01*
D47*
X-295000Y-99441000D02*
X-295000Y-98593000D01*
D46*
X5675000Y-51390000D02*
X5675000Y-53090000D01*
X11176000Y-13932200D02*
X11176000Y-14732000D01*
X5075000Y-88397000D02*
X5080000Y-88392000D01*
X4064000Y-40132000D02*
X3556000Y-40640000D01*
X4064000Y-39112000D02*
X4064000Y-40132000D01*
X4464000Y-23872000D02*
X5264000Y-23872000D01*
X13970000Y-39450000D02*
X12874000Y-39450000D01*
X17225000Y-87630000D02*
X17225000Y-87837000D01*
X12065000Y-38240000D02*
X12065000Y-38989000D01*
X6513000Y-90515000D02*
X6604000Y-90424000D01*
X17221200Y-89966800D02*
X18288000Y-88900000D01*
X6210000Y-48527000D02*
X6604000Y-48133000D01*
X5075000Y-90515000D02*
X3647000Y-90515000D01*
X-10718800Y-81330800D02*
X-10668000Y-81280000D01*
X3233500Y-42205000D02*
X3233500Y-40962500D01*
X16256000Y-83988000D02*
X15072000Y-83988000D01*
X15072000Y-83988000D02*
X14732000Y-84328000D01*
X-13804400Y-52743600D02*
X-14224000Y-52324000D01*
X17225000Y-87837000D02*
X18288000Y-88900000D01*
X2475000Y-54090000D02*
X3675000Y-54090000D01*
X8240295Y-39107713D02*
X8240295Y-39736295D01*
X4675000Y-56290000D02*
X4675000Y-54090000D01*
X17925000Y-41003000D02*
X18796000Y-40132000D01*
X16207500Y-45768500D02*
X15748000Y-46228000D01*
X-10769600Y-95097600D02*
X-10668000Y-94996000D01*
X8240295Y-39107713D02*
X9040295Y-39107713D01*
X-14033000Y-12598400D02*
X-14033000Y-11367000D01*
X5175000Y-51390000D02*
X5175000Y-53590000D01*
X-10718800Y-67614800D02*
X-10668000Y-67564000D01*
X2475000Y-53090000D02*
X3675000Y-53090000D01*
X12860000Y-50800000D02*
X13208000Y-50800000D01*
D47*
X-295000Y-99441000D02*
X-295000Y-100289000D01*
D46*
X4464000Y-47496000D02*
X4464000Y-48091291D01*
X3175000Y-60084000D02*
X3175000Y-60579000D01*
X-13982200Y-25133800D02*
X-14224000Y-24892000D01*
X5264000Y-23872000D02*
X5264000Y-24708000D01*
X13131800Y-48691800D02*
X14224000Y-49784000D01*
X-715000Y-70271421D02*
X-733318Y-70289739D01*
X-13982200Y-40081200D02*
X-13982200Y-38849800D01*
X12860000Y-48691800D02*
X13131800Y-48691800D01*
X5511800Y-61471800D02*
X4067800Y-61471800D01*
X3675000Y-56290000D02*
X3675000Y-55090000D01*
X-12179800Y-95097600D02*
X-10769600Y-95097600D01*
X9652000Y-23872000D02*
X10452000Y-23872000D01*
X16700800Y-89966800D02*
X17221200Y-89966800D01*
X-12052800Y-67614800D02*
X-10718800Y-67614800D01*
X-12090400Y-81330800D02*
X-10718800Y-81330800D01*
X12065000Y-38989000D02*
X12700000Y-39624000D01*
D47*
%TO.N,+3.3VA*%
X11938000Y-46545000D02*
X11938000Y-46913800D01*
D46*
X7760000Y-49149000D02*
X6175000Y-50734000D01*
D47*
X11938000Y-46913800D02*
X10883900Y-47967900D01*
D46*
X6175000Y-50734000D02*
X6175000Y-51390000D01*
D47*
X10883900Y-47967900D02*
X8941100Y-47967900D01*
D46*
X10160000Y-48323000D02*
X10160000Y-48691800D01*
D47*
X15240000Y-76200000D02*
X14732000Y-76708000D01*
X8941100Y-47967900D02*
X7760000Y-49149000D01*
X10883900Y-47967900D02*
X10160000Y-48691800D01*
%TO.N,VDD*%
X16670834Y-74625000D02*
X18268148Y-76222314D01*
D46*
X4175000Y-56290000D02*
X4175000Y-57731500D01*
X5215300Y-58771800D02*
X4572000Y-58128500D01*
X4175000Y-57731500D02*
X4572000Y-58128500D01*
X10416000Y-65424000D02*
X10416000Y-64624000D01*
X10416000Y-63824000D02*
X10416000Y-64624000D01*
D47*
X15240000Y-74625000D02*
X15240000Y-74168000D01*
D46*
X10416000Y-63248000D02*
X10160000Y-62992000D01*
D47*
X16256000Y-78234462D02*
X18268148Y-76222314D01*
X15240000Y-74625000D02*
X16670834Y-74625000D01*
D46*
X4166500Y-58534000D02*
X4572000Y-58128500D01*
X3175000Y-58534000D02*
X4166500Y-58534000D01*
D47*
X15240000Y-74168000D02*
X14732000Y-73660000D01*
X16256000Y-79588000D02*
X16256000Y-78234462D01*
D46*
X10416000Y-63824000D02*
X10416000Y-63248000D01*
%TO.N,Net-(C11-Pad1)*%
X10160000Y-50800000D02*
X7265000Y-50800000D01*
X7265000Y-50800000D02*
X6675000Y-51390000D01*
D45*
%TO.N,Net-(C33-Pad1)*%
X-2400000Y-95250000D02*
X-1016000Y-95250000D01*
X6585000Y-86125000D02*
X7721041Y-86125000D01*
X7721041Y-86125000D02*
X8225000Y-86628959D01*
X6585000Y-86125000D02*
X6585000Y-86678279D01*
X8225000Y-86628959D02*
X8225000Y-87317500D01*
X6585000Y-86678279D02*
X6241340Y-87021939D01*
X5205000Y-86125000D02*
X6585000Y-86125000D01*
D46*
%TO.N,+12V*%
X3233500Y-44155000D02*
X5039000Y-44155000D01*
X5715000Y-70950552D02*
X4879818Y-71785734D01*
X9525000Y-81592500D02*
X9525000Y-82909526D01*
X13970000Y-36750000D02*
X13970000Y-36322436D01*
X9525000Y-82909526D02*
X9431135Y-83003391D01*
X6604000Y-6678500D02*
X6678500Y-6604000D01*
X5715000Y-70162500D02*
X5715000Y-70950552D01*
D47*
X4863002Y-97014500D02*
X5643502Y-97795000D01*
D46*
X6604000Y-7805500D02*
X6604000Y-6678500D01*
X6096000Y-34358500D02*
X6096000Y-33020000D01*
X12080310Y-36690000D02*
X13208937Y-35561373D01*
X1985000Y-68580000D02*
X3048000Y-68580000D01*
X5039000Y-44155000D02*
X5080000Y-44196000D01*
D47*
X11049000Y-70879000D02*
X11049000Y-71755000D01*
D46*
X13970000Y-36322436D02*
X13208937Y-35561373D01*
D47*
X4863002Y-97014500D02*
X4863002Y-95126998D01*
X5643502Y-97795000D02*
X6832500Y-97795000D01*
X11049000Y-71755000D02*
X11044701Y-71759299D01*
X4863002Y-95126998D02*
X5075000Y-94915000D01*
D46*
X12065000Y-36690000D02*
X12080310Y-36690000D01*
%TO.N,-12V*%
X13716000Y-88392000D02*
X13716000Y-89408000D01*
D47*
X5080000Y-100276593D02*
X4432593Y-100276593D01*
D46*
X14525000Y-87630000D02*
X14478000Y-87630000D01*
X6604000Y-11758500D02*
X6678500Y-11684000D01*
X12700000Y-10668000D02*
X11684000Y-10668000D01*
D47*
X4432593Y-100276593D02*
X3724000Y-99568000D01*
D46*
X9525000Y-87317500D02*
X9525000Y-88427500D01*
D47*
X5711141Y-99645452D02*
X5080000Y-100276593D01*
D46*
X9525000Y-88427500D02*
X9652000Y-88554500D01*
X11176000Y-12382200D02*
X11176000Y-11176000D01*
X15150800Y-89966800D02*
X14274800Y-89966800D01*
X14478000Y-87630000D02*
X13716000Y-88392000D01*
X5715000Y-74342628D02*
X5733318Y-74324310D01*
X11176000Y-11176000D02*
X11684000Y-10668000D01*
X6604000Y-13530500D02*
X6604000Y-11758500D01*
D47*
X5711141Y-99645452D02*
X6832500Y-99645452D01*
D46*
X13208000Y-11858000D02*
X13208000Y-11176000D01*
X14274800Y-89966800D02*
X13716000Y-89408000D01*
X5715000Y-75887500D02*
X5715000Y-74342628D01*
X7153000Y-42205000D02*
X7112000Y-42164000D01*
X13208000Y-11176000D02*
X12700000Y-10668000D01*
X8958500Y-42205000D02*
X7153000Y-42205000D01*
X6096000Y-28633500D02*
X6096000Y-29972000D01*
D45*
%TO.N,Net-(C33-Pad2)*%
X-3950000Y-94501000D02*
X-3175000Y-93726000D01*
X-18646600Y-95072200D02*
X-17446600Y-96272200D01*
X-4972200Y-96272200D02*
X-3950000Y-95250000D01*
X-3950000Y-95250000D02*
X-3950000Y-94501000D01*
X7370299Y-87522201D02*
X7370299Y-88269299D01*
X-17446600Y-96272200D02*
X-4972200Y-96272200D01*
X7575000Y-87317500D02*
X7370299Y-87522201D01*
%TO.N,Net-(D3-Pad1)*%
X-15801800Y-9779000D02*
X-13335000Y-9779000D01*
X-18621200Y-12598400D02*
X-15801800Y-9779000D01*
X324000Y-12135000D02*
X-762000Y-11049000D01*
X-12383000Y-12598400D02*
X-11150600Y-12598400D01*
X510000Y-12135000D02*
X324000Y-12135000D01*
X-11150600Y-12598400D02*
X-11049000Y-12700000D01*
X-13335000Y-9779000D02*
X-12319000Y-10795000D01*
X-12319000Y-10795000D02*
X-12319000Y-12534400D01*
X-12319000Y-12534400D02*
X-12383000Y-12598400D01*
%TO.N,Net-(D7-Pad2)*%
X3685000Y-84525000D02*
X3520000Y-84525000D01*
X-13702800Y-67614800D02*
X-15770400Y-67614800D01*
X1642402Y-82647402D02*
X1642402Y-82639500D01*
X-14478000Y-65659000D02*
X-14478000Y-66839600D01*
X-14478000Y-66839600D02*
X-13702800Y-67614800D01*
X1552902Y-82550000D02*
X889000Y-82550000D01*
X3520000Y-84525000D02*
X1642402Y-82647402D01*
X-15770400Y-67614800D02*
X-15821200Y-67564000D01*
X1642402Y-82639500D02*
X1552902Y-82550000D01*
D47*
%TO.N,Net-(J2-Pad11)*%
X14605000Y-57150000D02*
X17145000Y-57150000D01*
X18796000Y-74119462D02*
X18268148Y-74647314D01*
X17145000Y-57150000D02*
X18542000Y-57150000D01*
X18542000Y-57150000D02*
X18796000Y-57404000D01*
X18796000Y-57404000D02*
X18796000Y-74119462D01*
D45*
%TO.N,/SDIN1*%
X3175000Y-57023000D02*
X3175000Y-56290000D01*
X2921000Y-57277000D02*
X3175000Y-57023000D01*
D46*
%TO.N,/SCL*%
X11936000Y-65424000D02*
X11487000Y-65424000D01*
X11229000Y-66791500D02*
X14287500Y-69850000D01*
X11229000Y-65682000D02*
X11229000Y-66791500D01*
D45*
X2475000Y-53590000D02*
X1274000Y-53590000D01*
D46*
X14287500Y-69850000D02*
X14605000Y-69850000D01*
X11487000Y-65424000D02*
X11229000Y-65682000D01*
D45*
X1274000Y-53590000D02*
X1270000Y-53594000D01*
%TO.N,/SDOUT1*%
X1143000Y-56261000D02*
X1143000Y-58166000D01*
X5067327Y-60447300D02*
X5837300Y-60447300D01*
X3929027Y-59309000D02*
X5067327Y-60447300D01*
X6195765Y-60805765D02*
X6326572Y-60805765D01*
X6096000Y-60706000D02*
X6195765Y-60805765D01*
X2032000Y-59055000D02*
X2286000Y-59309000D01*
X5837300Y-60447300D02*
X6096000Y-60706000D01*
X2026992Y-55090000D02*
X1143000Y-55973992D01*
X1143000Y-55973992D02*
X1143000Y-56261000D01*
X1143000Y-58166000D02*
X2032000Y-59055000D01*
X2475000Y-55090000D02*
X2026992Y-55090000D01*
X2286000Y-59309000D02*
X3929027Y-59309000D01*
%TO.N,/SDA*%
X1290000Y-54590000D02*
X1265701Y-54614299D01*
D46*
X11936000Y-64624000D02*
X12570000Y-64624000D01*
D45*
X7126296Y-60325000D02*
X6514500Y-59713204D01*
D46*
X12570000Y-64624000D02*
X12700000Y-64754000D01*
X12700000Y-64754000D02*
X12700000Y-66548000D01*
D45*
X11231000Y-64549000D02*
X11231000Y-62412000D01*
X2475000Y-54590000D02*
X1290000Y-54590000D01*
X11306000Y-64624000D02*
X11231000Y-64549000D01*
X11231000Y-62412000D02*
X9144000Y-60325000D01*
X11936000Y-64624000D02*
X11306000Y-64624000D01*
D46*
X13462000Y-67310000D02*
X14605000Y-67310000D01*
X12700000Y-66548000D02*
X13462000Y-67310000D01*
D45*
X9144000Y-60325000D02*
X7126296Y-60325000D01*
%TO.N,/LRCK*%
X9874999Y-59647788D02*
X10155046Y-59927835D01*
X8858999Y-57509287D02*
X9874999Y-58525287D01*
X9874999Y-58525287D02*
X9874999Y-59647788D01*
X6309883Y-57509287D02*
X8858999Y-57509287D01*
X5675000Y-56290000D02*
X5675000Y-56874404D01*
X5675000Y-56874404D02*
X6309883Y-57509287D01*
D46*
%TO.N,/PDN*%
X2475000Y-52590000D02*
X1267236Y-52590000D01*
X11936000Y-63824000D02*
X12570000Y-63824000D01*
X1267236Y-52590000D02*
X1262712Y-52594524D01*
X12570000Y-63824000D02*
X13516000Y-64770000D01*
X13516000Y-64770000D02*
X14605000Y-64770000D01*
D45*
%TO.N,/BICK*%
X13367000Y-61889598D02*
X10324500Y-58847098D01*
X17145000Y-62230000D02*
X15970000Y-63405000D01*
X13367000Y-63405000D02*
X13367000Y-61889598D01*
X15970000Y-63405000D02*
X13367000Y-63405000D01*
X10324500Y-58847098D02*
X10324500Y-58202810D01*
X9144690Y-57023000D02*
X6459992Y-57023000D01*
X10324500Y-58202810D02*
X9144690Y-57023000D01*
X6459992Y-57023000D02*
X6175000Y-56738008D01*
X6175000Y-56738008D02*
X6175000Y-56290000D01*
%TO.N,/MCLK*%
X14605000Y-62230000D02*
X12573000Y-60198000D01*
X12573000Y-57023000D02*
X11840000Y-56290000D01*
X12573000Y-60198000D02*
X12573000Y-57023000D01*
X11840000Y-56290000D02*
X6675000Y-56290000D01*
D46*
%TO.N,Net-(J3-PadT)*%
X-825000Y-5715000D02*
X-4749389Y-5715000D01*
X-4749389Y-5715000D02*
X-4770000Y-5735611D01*
D45*
%TO.N,Net-(D4-Pad1)*%
X-16510000Y-23495000D02*
X-12573000Y-23495000D01*
X-2286000Y-14605000D02*
X-616000Y-12935000D01*
X-12573000Y-23495000D02*
X-12332200Y-23735800D01*
X-7493000Y-14605000D02*
X-2286000Y-14605000D01*
X-12332200Y-23735800D02*
X-12332200Y-26314400D01*
X-18643600Y-25628600D02*
X-16510000Y-23495000D01*
X-616000Y-12935000D02*
X510000Y-12935000D01*
X-12573000Y-19685000D02*
X-7493000Y-14605000D01*
X-18643600Y-26339800D02*
X-18643600Y-25628600D01*
X-12573000Y-23495000D02*
X-12573000Y-19685000D01*
%TO.N,Net-(C34-Pad1)*%
X10040000Y-75495000D02*
X10670000Y-75495000D01*
X9370000Y-74825000D02*
X10040000Y-75495000D01*
X7353000Y-77724000D02*
X7015000Y-77386000D01*
X7388959Y-74825000D02*
X9370000Y-74825000D01*
X7015000Y-75887500D02*
X7015000Y-75198959D01*
X4375000Y-66165000D02*
X4447000Y-66165000D01*
X7015000Y-75198959D02*
X7388959Y-74825000D01*
X7015000Y-77386000D02*
X7015000Y-75887500D01*
X4447000Y-66165000D02*
X4826000Y-65786000D01*
D46*
%TO.N,Net-(J4-PadT)*%
X-4770000Y-19478666D02*
X-1031334Y-19478666D01*
X-1031334Y-19478666D02*
X-825000Y-19685000D01*
%TO.N,Net-(J5-PadT)*%
X-4770000Y-33221721D02*
X-1026721Y-33221721D01*
X-1026721Y-33221721D02*
X-825000Y-33020000D01*
%TO.N,Net-(J6-PadT)*%
X-4770000Y-46964776D02*
X-850224Y-46964776D01*
X-850224Y-46964776D02*
X-825000Y-46990000D01*
D45*
%TO.N,Net-(D5-Pad1)*%
X-17018000Y-37338000D02*
X-13081000Y-37338000D01*
X-13081000Y-37338000D02*
X-13081000Y-36322000D01*
X-146000Y-13735000D02*
X510000Y-13735000D01*
X-12332200Y-38086800D02*
X-12332200Y-40081200D01*
X-18646600Y-40081200D02*
X-18646600Y-38966600D01*
X-13081000Y-37338000D02*
X-12332200Y-38086800D01*
X-1905000Y-15494000D02*
X-146000Y-13735000D01*
X-18646600Y-38966600D02*
X-17018000Y-37338000D01*
D46*
%TO.N,Net-(J7-PadT)*%
X-4770000Y-60707831D02*
X-4517831Y-60960000D01*
X-4517831Y-60960000D02*
X-825000Y-60960000D01*
%TO.N,Net-(J8-PadT)*%
X-1939114Y-74450886D02*
X-825000Y-75565000D01*
X-4770000Y-74450886D02*
X-1939114Y-74450886D01*
%TO.N,Net-(C34-Pad2)*%
X266200Y-103124000D02*
X263999Y-103124000D01*
X-1270000Y-96367600D02*
X-558800Y-96367600D01*
D45*
X1149000Y-89158462D02*
X1550000Y-88757462D01*
X2713098Y-62902500D02*
X1985902Y-62902500D01*
X8903000Y-77724000D02*
X8903000Y-77125500D01*
X1550000Y-83600598D02*
X1392701Y-83443299D01*
D46*
X-2895600Y-99964401D02*
X-2895600Y-97993200D01*
D45*
X3540498Y-63415443D02*
X3226041Y-63415443D01*
X8370250Y-76429317D02*
X8927500Y-75872067D01*
X8903000Y-77125500D02*
X8370250Y-76592750D01*
X1550000Y-88757462D02*
X1550000Y-83600598D01*
D46*
X-2895600Y-97993200D02*
X-1270000Y-96367600D01*
D45*
X1329201Y-63559201D02*
X1288115Y-63559201D01*
X4375000Y-64249945D02*
X3540498Y-63415443D01*
X3226041Y-63415443D02*
X2713098Y-62902500D01*
X8370250Y-76592750D02*
X7665000Y-75887500D01*
X4375000Y-64645000D02*
X4375000Y-64249945D01*
D46*
X-558800Y-96367600D02*
X1149000Y-94659800D01*
X263999Y-103124000D02*
X-2895600Y-99964401D01*
X1149000Y-94659800D02*
X1149000Y-89158462D01*
D45*
X8370250Y-76592750D02*
X8370250Y-76429317D01*
X1985902Y-62902500D02*
X1329201Y-63559201D01*
D46*
%TO.N,Net-(J9-PadT)*%
X-4698941Y-88265000D02*
X-4770000Y-88193941D01*
X-825000Y-88265000D02*
X-4698941Y-88265000D01*
D45*
%TO.N,Net-(RN7-Pad5)*%
X7565000Y-23114000D02*
X9520000Y-23114000D01*
X9520000Y-23114000D02*
X9652000Y-22982000D01*
X6746000Y-23933000D02*
X7565000Y-23114000D01*
X10452000Y-22352000D02*
X9652000Y-22352000D01*
X6746000Y-28633500D02*
X6746000Y-23933000D01*
X9652000Y-22982000D02*
X9652000Y-22352000D01*
D46*
%TO.N,Net-(J10-PadT)*%
X-4770000Y-101937000D02*
X-2570800Y-101937000D01*
X-2570800Y-101937000D02*
X-1383800Y-103124000D01*
D45*
%TO.N,Net-(D9-Pad2)*%
X-13829800Y-88505800D02*
X-10541000Y-85217000D01*
X-15821200Y-95097600D02*
X-15846600Y-95072200D01*
X-2413000Y-85217000D02*
X-1397000Y-86233000D01*
X-13829800Y-95097600D02*
X-15821200Y-95097600D01*
X3666000Y-86106000D02*
X3685000Y-86125000D01*
X-10541000Y-85217000D02*
X-2413000Y-85217000D01*
X2794000Y-86106000D02*
X3666000Y-86106000D01*
X-13829800Y-95097600D02*
X-13829800Y-88505800D01*
%TO.N,Net-(C35-Pad1)*%
X1899000Y-94367000D02*
X1899000Y-97161000D01*
X5205000Y-87390000D02*
X7223000Y-89408000D01*
X7223000Y-89408000D02*
X7688000Y-89408000D01*
X1828800Y-102971600D02*
X355600Y-104444800D01*
X3556000Y-92710000D02*
X1899000Y-94367000D01*
X7688000Y-89408000D02*
X7688000Y-91626000D01*
X355600Y-104444800D02*
X355600Y-106026607D01*
X7688000Y-89408000D02*
X10668000Y-89408000D01*
X10668000Y-89408000D02*
X10825000Y-89251000D01*
X6604000Y-92710000D02*
X3556000Y-92710000D01*
X1828800Y-97231200D02*
X1828800Y-102971600D01*
X355600Y-106026607D02*
X-2430543Y-108812750D01*
X10825000Y-89251000D02*
X10825000Y-87317500D01*
X1899000Y-97161000D02*
X1828800Y-97231200D01*
X7688000Y-91626000D02*
X6604000Y-92710000D01*
X5205000Y-86925000D02*
X5205000Y-87390000D01*
D46*
%TO.N,/-VCOM*%
X4210000Y-81512339D02*
X3711639Y-82010700D01*
X8820000Y-64645000D02*
X8820000Y-64322519D01*
X2864000Y-22352000D02*
X2864000Y-21497402D01*
X2792000Y-47496000D02*
X2032000Y-46736000D01*
X8001000Y-63754000D02*
X7195301Y-62948301D01*
X8435482Y-63938000D02*
X7293000Y-63938000D01*
X3397418Y-62948301D02*
X2900115Y-62450999D01*
X3711639Y-82010700D02*
X3109785Y-82010700D01*
X1798885Y-62450999D02*
X1417183Y-62832701D01*
X3517522Y-35872501D02*
X4456083Y-35872501D01*
X7220000Y-64011000D02*
X7220000Y-64645000D01*
X2864000Y-21497402D02*
X3544858Y-20816544D01*
X2032000Y-44015131D02*
X2542131Y-43505000D01*
X4456083Y-35872501D02*
X6171295Y-37587713D01*
X7195301Y-62948301D02*
X3397418Y-62948301D01*
X6096000Y-18792000D02*
X6096000Y-19426000D01*
X2464000Y-37592000D02*
X1524000Y-37592000D01*
X6171295Y-37587713D02*
X6640295Y-37587713D01*
X7293000Y-63938000D02*
X7220000Y-64011000D01*
X2032000Y-46736000D02*
X2032000Y-44015131D01*
X1417183Y-62832701D02*
X-1872701Y-62832701D01*
X2464000Y-36926023D02*
X3517522Y-35872501D01*
X7817000Y-63938000D02*
X8001000Y-63754000D01*
X2610000Y-81465573D02*
X2610000Y-80770000D01*
X2610000Y-80770000D02*
X1302846Y-80770000D01*
X2464000Y-37592000D02*
X2464000Y-36926023D01*
X5154000Y-5023000D02*
X4896000Y-4765000D01*
X7293000Y-63938000D02*
X7817000Y-63938000D01*
X8052000Y-22306000D02*
X5634000Y-19888000D01*
X2542131Y-43505000D02*
X3233500Y-43505000D01*
X2758500Y-81614073D02*
X2610000Y-81465573D01*
X3567456Y-20816544D02*
X3544858Y-20816544D01*
X6496000Y-4950000D02*
X6423000Y-5023000D01*
X4320000Y-4316000D02*
X3556000Y-5080000D01*
X6496000Y-4316000D02*
X6496000Y-4950000D01*
X3109785Y-82010700D02*
X2758500Y-81659415D01*
X5634000Y-19888000D02*
X4496000Y-19888000D01*
X-1872701Y-62832701D02*
X-2032000Y-62992000D01*
X8820000Y-64322519D02*
X8435482Y-63938000D01*
X1302846Y-80770000D02*
X1218000Y-80854846D01*
X4896000Y-4765000D02*
X4896000Y-4316000D01*
X6096000Y-19426000D02*
X5634000Y-19888000D01*
X2900115Y-62450999D02*
X1798885Y-62450999D01*
X8052000Y-22352000D02*
X8052000Y-22306000D01*
X2864000Y-47496000D02*
X2792000Y-47496000D01*
X2758500Y-81659415D02*
X2758500Y-81614073D01*
X6423000Y-5023000D02*
X5154000Y-5023000D01*
X4210000Y-80770000D02*
X4210000Y-81512339D01*
X4896000Y-4316000D02*
X4320000Y-4316000D01*
X4496000Y-19888000D02*
X3567456Y-20816544D01*
X4496000Y-18792000D02*
X4496000Y-19888000D01*
D45*
%TO.N,/dual_mono_inputs1/IN1_3V*%
X16637000Y-32258000D02*
X14033000Y-32258000D01*
X15113000Y-50546000D02*
X15240000Y-50419000D01*
X15240000Y-50419000D02*
X15240000Y-49149000D01*
X7375000Y-52090000D02*
X13569000Y-52090000D01*
X13569000Y-52090000D02*
X15113000Y-50546000D01*
%TO.N,Net-(C35-Pad2)*%
X-4006793Y-108839000D02*
X-3980543Y-108812750D01*
X-17421200Y-107486600D02*
X-10242400Y-107486600D01*
X-10242400Y-107486600D02*
X-8890000Y-108839000D01*
X12700000Y-87249000D02*
X11543500Y-87249000D01*
X-8890000Y-108839000D02*
X-4006793Y-108839000D01*
X-18621200Y-108686600D02*
X-17421200Y-107486600D01*
X11543500Y-87249000D02*
X11475000Y-87317500D01*
X-2997200Y-107829407D02*
X-2997200Y-106324400D01*
X-3980543Y-108812750D02*
X-2997200Y-107829407D01*
%TO.N,Net-(D6-Pad1)*%
X-13081000Y-51308000D02*
X-13081000Y-50165000D01*
X-1338000Y-16383000D02*
X510000Y-14535000D01*
X-4064000Y-16383000D02*
X-1338000Y-16383000D01*
X-13081000Y-51308000D02*
X-12154400Y-52234600D01*
X-18646600Y-53822600D02*
X-18646600Y-52301600D01*
X-12154400Y-52234600D02*
X-12154400Y-54000400D01*
X-18646600Y-52301600D02*
X-17653000Y-51308000D01*
X-17653000Y-51308000D02*
X-13081000Y-51308000D01*
%TO.N,/dual_mono_inputs1/IN2_3V*%
X17653000Y-34163000D02*
X14033000Y-34163000D01*
X16002000Y-49149000D02*
X16002000Y-48260000D01*
X7375000Y-53090000D02*
X13712000Y-53090000D01*
X13712000Y-53090000D02*
X16002000Y-50800000D01*
X16002000Y-50800000D02*
X16002000Y-49149000D01*
%TO.N,Net-(D1-Pad1)*%
X9525000Y-96677500D02*
X8407500Y-97795000D01*
X9525000Y-96655000D02*
X9525000Y-96677500D01*
%TO.N,/dual_mono_inputs2/IN1_3V*%
X14033000Y-28448000D02*
X15621000Y-28448000D01*
X7375000Y-54090000D02*
X13982000Y-54090000D01*
X16891000Y-51181000D02*
X16891000Y-49149000D01*
X13982000Y-54090000D02*
X16764000Y-51308000D01*
X16891000Y-49149000D02*
X16891000Y-47498000D01*
X16764000Y-51308000D02*
X16891000Y-51181000D01*
%TO.N,Net-(RN8-Pad1)*%
X6096000Y-17272000D02*
X6896000Y-17272000D01*
X6896000Y-17272000D02*
X8255000Y-17272000D01*
X8255000Y-17272000D02*
X9779000Y-15748000D01*
X9779000Y-15748000D02*
X9779000Y-11176000D01*
X6350000Y-10541000D02*
X5954000Y-10937000D01*
X9144000Y-10541000D02*
X6350000Y-10541000D01*
X9779000Y-11176000D02*
X9144000Y-10541000D01*
X5954000Y-10937000D02*
X5954000Y-13530500D01*
%TO.N,Net-(RN3-Pad5)*%
X4064000Y-37592000D02*
X4864000Y-37592000D01*
X5205642Y-37592000D02*
X5961496Y-38347854D01*
X5446000Y-35672000D02*
X5715000Y-35941000D01*
X5446000Y-34358500D02*
X5446000Y-35672000D01*
X4864000Y-37592000D02*
X5205642Y-37592000D01*
D47*
%TO.N,Net-(D1-Pad2)*%
X14605000Y-93975000D02*
X9645000Y-93975000D01*
X9645000Y-93975000D02*
X9525000Y-93855000D01*
X17145000Y-93975000D02*
X14605000Y-93975000D01*
D45*
%TO.N,/dual_mono_inputs2/IN2_3V*%
X17653000Y-51562000D02*
X17653000Y-49149000D01*
X14125000Y-55090000D02*
X17653000Y-51562000D01*
X7375000Y-55090000D02*
X14125000Y-55090000D01*
X17653000Y-49149000D02*
X17653000Y-46609000D01*
X18542000Y-38354000D02*
X18542000Y-32639000D01*
X16256000Y-30353000D02*
X14033000Y-30353000D01*
X18542000Y-32639000D02*
X16256000Y-30353000D01*
%TO.N,/dual_mono_outputs1/OUT1*%
X3069059Y-48670657D02*
X1616345Y-48670657D01*
X4175000Y-51390000D02*
X4175000Y-49776598D01*
X4175000Y-49776598D02*
X3069059Y-48670657D01*
X5080000Y-63930347D02*
X5080000Y-64770000D01*
X7945000Y-65350000D02*
X8020000Y-65275000D01*
X8020000Y-65275000D02*
X8020000Y-64645000D01*
X4903900Y-63754247D02*
X5080000Y-63930347D01*
X5660000Y-65350000D02*
X7945000Y-65350000D01*
X5080000Y-64770000D02*
X5660000Y-65350000D01*
%TO.N,Net-(C20-Pad1)*%
X635000Y-36195000D02*
X1257000Y-35573000D01*
X4796000Y-35047041D02*
X4796000Y-34358500D01*
X3264000Y-39112000D02*
X2464000Y-39112000D01*
X2692000Y-35421000D02*
X4471000Y-35421000D01*
X2540000Y-35573000D02*
X2692000Y-35421000D01*
X1257000Y-35573000D02*
X2540000Y-35573000D01*
X825000Y-5715000D02*
X825000Y-7048000D01*
X4571000Y-35321000D02*
X4571000Y-35272041D01*
X635000Y-38354000D02*
X635000Y-36195000D01*
X4571000Y-35272041D02*
X4796000Y-35047041D01*
X4471000Y-35421000D02*
X4571000Y-35321000D01*
X825000Y-7048000D02*
X889000Y-7112000D01*
X1393000Y-39112000D02*
X635000Y-38354000D01*
X2464000Y-39112000D02*
X1393000Y-39112000D01*
%TO.N,Net-(RN6-Pad5)*%
X9040295Y-37587713D02*
X9914470Y-37587713D01*
X8240295Y-37587713D02*
X9040295Y-37587713D01*
X12711462Y-33274000D02*
X12700000Y-33274000D01*
X7396000Y-33669959D02*
X7396000Y-34358500D01*
X12700000Y-33274000D02*
X12674000Y-33248000D01*
X12539183Y-34963000D02*
X12800462Y-34963000D01*
X13108000Y-34655462D02*
X13108000Y-33670538D01*
X12674000Y-33248000D02*
X7817959Y-33248000D01*
X7817959Y-33248000D02*
X7396000Y-33669959D01*
X9914470Y-37587713D02*
X12539183Y-34963000D01*
X13108000Y-33670538D02*
X12711462Y-33274000D01*
X12800462Y-34963000D02*
X13108000Y-34655462D01*
%TO.N,/dual_mono_outputs1/OUT2*%
X6420000Y-64645000D02*
X6420000Y-64205000D01*
X6420000Y-64205000D02*
X5969000Y-63754000D01*
X1778000Y-49657000D02*
X3048000Y-49657000D01*
X3675000Y-50284000D02*
X3675000Y-51390000D01*
X3048000Y-49657000D02*
X3675000Y-50284000D01*
%TO.N,Net-(C20-Pad2)*%
X7493000Y-4513000D02*
X7296000Y-4316000D01*
X7493000Y-5461000D02*
X7493000Y-4513000D01*
X12383000Y-32258000D02*
X13308000Y-31333000D01*
X15748000Y-11303000D02*
X12954000Y-8509000D01*
X13462000Y-25781000D02*
X14208000Y-25035000D01*
X2540000Y-34023000D02*
X3810500Y-34023000D01*
X15748000Y-17145000D02*
X15748000Y-11303000D01*
X5557959Y-32258000D02*
X4146000Y-33669959D01*
X12383000Y-32258000D02*
X5557959Y-32258000D01*
X4146000Y-33669959D02*
X4146000Y-34358500D01*
X3810500Y-34023000D02*
X4146000Y-34358500D01*
X13308000Y-31333000D02*
X13308000Y-25935000D01*
X14208000Y-18685000D02*
X15748000Y-17145000D01*
X14208000Y-25035000D02*
X14208000Y-18685000D01*
X3264000Y-37153450D02*
X3803200Y-36614250D01*
X13308000Y-25935000D02*
X13462000Y-25781000D01*
X3264000Y-37592000D02*
X3264000Y-37153450D01*
%TO.N,Net-(D10-Pad2)*%
X-17119600Y-108686600D02*
X-17145000Y-108712000D01*
X3683000Y-86927000D02*
X3685000Y-86925000D01*
X-15821200Y-108686600D02*
X-17119600Y-108686600D01*
X3683000Y-88138000D02*
X3683000Y-86927000D01*
X-13702800Y-108686600D02*
X-13677400Y-108712000D01*
X-15821200Y-108686600D02*
X-13702800Y-108686600D01*
%TO.N,Net-(C21-Pad1)*%
X7493000Y-9271000D02*
X7904000Y-8860000D01*
X2921000Y-9271000D02*
X7493000Y-9271000D01*
X2032000Y-10160000D02*
X2030000Y-10162000D01*
X2030000Y-10162000D02*
X2921000Y-9271000D01*
X2030000Y-10162000D02*
X2030000Y-12135000D01*
X-3950000Y-12700000D02*
X-1410000Y-10160000D01*
X7904000Y-8860000D02*
X7904000Y-7805500D01*
X-1410000Y-10160000D02*
X2032000Y-10160000D01*
%TO.N,/dual_mono_outputs2/OUT1*%
X2749000Y-51390000D02*
X2032000Y-50673000D01*
X3175000Y-51390000D02*
X2749000Y-51390000D01*
D46*
%TO.N,Net-(RN2-Pad1)*%
X7894000Y-43414000D02*
X7894000Y-43228131D01*
X7894000Y-43228131D02*
X8267131Y-42855000D01*
X4464000Y-45976000D02*
X5264000Y-45976000D01*
X8267131Y-42855000D02*
X8958500Y-42855000D01*
X5332000Y-45976000D02*
X7894000Y-43414000D01*
X5264000Y-45976000D02*
X5332000Y-45976000D01*
D45*
%TO.N,/dual_mono_outputs2/OUT2*%
X2475000Y-52090000D02*
X1782786Y-52090000D01*
X1782786Y-52090000D02*
X1562810Y-51870024D01*
X5010000Y-82205246D02*
X4876922Y-82338324D01*
X1421533Y-51870024D02*
X1152613Y-51601104D01*
X1562810Y-51870024D02*
X1421533Y-51870024D01*
X5010000Y-80770000D02*
X5010000Y-82205246D01*
%TO.N,Net-(C21-Pad2)*%
X-15821200Y-12598400D02*
X-15821200Y-14424200D01*
X11303000Y-7112000D02*
X10609500Y-7805500D01*
X-15821200Y-14424200D02*
X-15875000Y-14478000D01*
X-3200000Y-13500000D02*
X-2400000Y-12700000D01*
X-15821200Y-12598400D02*
X-14919600Y-13500000D01*
X10609500Y-7805500D02*
X8554000Y-7805500D01*
X-14919600Y-13500000D02*
X-3200000Y-13500000D01*
%TO.N,Net-(C22-Pad1)*%
X825000Y-29908000D02*
X3556000Y-32639000D01*
X6985000Y-39226426D02*
X7103713Y-39107713D01*
X7103713Y-39107713D02*
X7440295Y-39107713D01*
X7271959Y-35573000D02*
X6841503Y-36003456D01*
X9652000Y-35573000D02*
X7271959Y-35573000D01*
X6985000Y-40259000D02*
X6985000Y-39226426D01*
X6841503Y-36003456D02*
X6841503Y-36068000D01*
X6746000Y-35047041D02*
X6746000Y-34358500D01*
X825000Y-19685000D02*
X825000Y-29908000D01*
X7271959Y-35573000D02*
X6746000Y-35047041D01*
X6640295Y-39107713D02*
X7103713Y-39107713D01*
%TO.N,Net-(C22-Pad2)*%
X5696000Y-3686000D02*
X5696000Y-4316000D01*
X3882000Y-3611000D02*
X5621000Y-3611000D01*
X8046000Y-34358500D02*
X9316500Y-34358500D01*
X9652000Y-34023000D02*
X12243000Y-34023000D01*
X7822008Y-36576000D02*
X10287000Y-36576000D01*
X7440295Y-36957713D02*
X7822008Y-36576000D01*
X9652000Y-34023000D02*
X10147000Y-34023000D01*
X7440295Y-37587713D02*
X7440295Y-36957713D01*
X10147000Y-34023000D02*
X10922000Y-34798000D01*
X10287000Y-36576000D02*
X12383000Y-34480000D01*
X9316500Y-34358500D02*
X9652000Y-34023000D01*
X12243000Y-34023000D02*
X12383000Y-34163000D01*
X12383000Y-34480000D02*
X12383000Y-34163000D01*
X5621000Y-3611000D02*
X5696000Y-3686000D01*
X3683000Y-3810000D02*
X3882000Y-3611000D01*
%TO.N,Net-(C23-Pad1)*%
X2660000Y-12935000D02*
X5207000Y-10388000D01*
X5207000Y-10388000D02*
X5207000Y-10287000D01*
X5304000Y-6701000D02*
X5207000Y-6604000D01*
X1270000Y-15020000D02*
X0Y-16290000D01*
X1400000Y-12935000D02*
X1270000Y-13065000D01*
X2030000Y-12935000D02*
X1400000Y-12935000D01*
X0Y-21209000D02*
X-3950000Y-25159000D01*
X2030000Y-12935000D02*
X2660000Y-12935000D01*
X0Y-16290000D02*
X0Y-21209000D01*
X-3950000Y-25159000D02*
X-3950000Y-26416000D01*
X5304000Y-7805500D02*
X5304000Y-6701000D01*
X1270000Y-13065000D02*
X1270000Y-15020000D01*
%TO.N,Net-(C23-Pad2)*%
X-14713400Y-27470000D02*
X-3200000Y-27470000D01*
X-15843600Y-26339800D02*
X-15843600Y-28225400D01*
X-15843600Y-28225400D02*
X-15748000Y-28321000D01*
X-3200000Y-27470000D02*
X-2400000Y-26670000D01*
X2354500Y-7805500D02*
X4654000Y-7805500D01*
X-15843600Y-26339800D02*
X-14713400Y-27470000D01*
X2159000Y-8001000D02*
X2354500Y-7805500D01*
%TO.N,Net-(RN8-Pad3)*%
X5296000Y-17272000D02*
X5296000Y-16642000D01*
X5809000Y-16129000D02*
X8517598Y-16129000D01*
X5296000Y-17272000D02*
X4496000Y-17272000D01*
X9271000Y-15375598D02*
X9271000Y-12319000D01*
X8517598Y-16129000D02*
X9271000Y-15375598D01*
X5296000Y-16642000D02*
X5809000Y-16129000D01*
X7776959Y-12319000D02*
X7254000Y-12841959D01*
X7254000Y-12841959D02*
X7254000Y-13530500D01*
X9271000Y-12319000D02*
X7776959Y-12319000D01*
%TO.N,Net-(C24-Pad1)*%
X-254000Y-29718000D02*
X-889000Y-29083000D01*
X825000Y-33020000D02*
X825000Y-30797000D01*
X825000Y-30797000D02*
X-254000Y-29718000D01*
X8052000Y-27508000D02*
X7989000Y-27571000D01*
X7769959Y-27571000D02*
X7989000Y-27571000D01*
X7989000Y-27571000D02*
X9550000Y-27571000D01*
X7396000Y-27944959D02*
X7769959Y-27571000D01*
X-889000Y-29083000D02*
X-889000Y-26543000D01*
X8052000Y-23872000D02*
X8052000Y-27508000D01*
X7396000Y-28633500D02*
X7396000Y-27944959D01*
X9550000Y-27571000D02*
X9652000Y-27673000D01*
X8852000Y-23872000D02*
X8052000Y-23872000D01*
%TO.N,Net-(C24-Pad2)*%
X11608000Y-29223000D02*
X12383000Y-28448000D01*
X8852000Y-21722000D02*
X9238000Y-21336000D01*
X8852000Y-21679000D02*
X8852000Y-22352000D01*
X6896000Y-19723000D02*
X8852000Y-21679000D01*
X11430000Y-21336000D02*
X12383000Y-22289000D01*
X6896000Y-18792000D02*
X6896000Y-19723000D01*
X12383000Y-22289000D02*
X12383000Y-28448000D01*
X8852000Y-22352000D02*
X8852000Y-21722000D01*
X8046000Y-28633500D02*
X9062500Y-28633500D01*
X9062500Y-28633500D02*
X9652000Y-29223000D01*
X9652000Y-29223000D02*
X11608000Y-29223000D01*
X9238000Y-21336000D02*
X11430000Y-21336000D01*
%TO.N,Net-(C25-Pad1)*%
X3810000Y-13843000D02*
X2138000Y-13843000D01*
X-4204000Y-40132000D02*
X-4204000Y-40018000D01*
X4654041Y-12192000D02*
X5304000Y-12841959D01*
X5304000Y-12841959D02*
X5304000Y-13530500D01*
X2138000Y-13843000D02*
X2030000Y-13735000D01*
X-4204000Y-40018000D02*
X-2540000Y-38354000D01*
X4064000Y-12192000D02*
X4654041Y-12192000D01*
X2521000Y-13735000D02*
X4064000Y-12192000D01*
X2030000Y-13735000D02*
X2521000Y-13735000D01*
%TO.N,Net-(C25-Pad2)*%
X-15846600Y-40081200D02*
X-14995800Y-40932000D01*
X-14995800Y-40932000D02*
X-3454000Y-40932000D01*
X4572000Y-13612500D02*
X4572000Y-14807000D01*
X-15846600Y-41811400D02*
X-15748000Y-41910000D01*
X-15846600Y-40081200D02*
X-15846600Y-41811400D01*
X-3454000Y-40932000D02*
X-2654000Y-40132000D01*
X4654000Y-13530500D02*
X4572000Y-13612500D01*
%TO.N,Net-(D8-Pad2)*%
X3450000Y-85090000D02*
X3685000Y-85325000D01*
X-13740400Y-79907400D02*
X-13716000Y-79883000D01*
X2413000Y-85090000D02*
X3450000Y-85090000D01*
X-13740400Y-81330800D02*
X-13740400Y-79907400D01*
X-15846600Y-81330800D02*
X-13740400Y-81330800D01*
%TO.N,Net-(C26-Pad1)*%
X825000Y-46990000D02*
X-508000Y-45657000D01*
X5446000Y-27944959D02*
X5446000Y-28633500D01*
X2864000Y-27349000D02*
X2864000Y-23872000D01*
X2540000Y-27673000D02*
X2642000Y-27571000D01*
X2642000Y-27571000D02*
X5072041Y-27571000D01*
X5072041Y-27571000D02*
X5446000Y-27944959D01*
X1143000Y-34036000D02*
X2286000Y-32893000D01*
X-508000Y-41783000D02*
X-508000Y-35687000D01*
X2540000Y-27673000D02*
X2864000Y-27349000D01*
X2286000Y-32893000D02*
X2286000Y-32512000D01*
X-508000Y-45657000D02*
X-508000Y-41783000D01*
X-508000Y-35687000D02*
X1143000Y-34036000D01*
X3664000Y-23872000D02*
X2864000Y-23872000D01*
D46*
%TO.N,Net-(RN2-Pad3)*%
X3664000Y-45976000D02*
X2864000Y-45976000D01*
X4048000Y-44958000D02*
X5588000Y-44958000D01*
X5969000Y-44577000D02*
X5969000Y-43688000D01*
X5588000Y-44958000D02*
X5969000Y-44577000D01*
X3664000Y-45342000D02*
X4048000Y-44958000D01*
X5136000Y-42855000D02*
X3233500Y-42855000D01*
X3664000Y-45976000D02*
X3664000Y-45342000D01*
X5969000Y-43688000D02*
X5136000Y-42855000D01*
D45*
%TO.N,Net-(C26-Pad2)*%
X3129500Y-28633500D02*
X2540000Y-29223000D01*
X5842000Y-21581402D02*
X5842000Y-26797000D01*
X1905000Y-22860000D02*
X2102000Y-23057000D01*
X12383000Y-30353000D02*
X11912500Y-30823500D01*
X4101500Y-30033302D02*
X4071500Y-30003302D01*
X5628832Y-21368234D02*
X5842000Y-21581402D01*
X5628832Y-21334480D02*
X5628832Y-21368234D01*
X4071500Y-28708000D02*
X4146000Y-28633500D01*
X5842000Y-26797000D02*
X4191000Y-26797000D01*
X3664000Y-22352000D02*
X3664000Y-21722000D01*
X2102000Y-23057000D02*
X3589000Y-23057000D01*
X3664000Y-21722000D02*
X4475922Y-20910078D01*
X3589000Y-23057000D02*
X3664000Y-22982000D01*
X5296000Y-18162000D02*
X5221000Y-18087000D01*
X4146000Y-29328606D02*
X4071500Y-29403106D01*
X3836543Y-30238259D02*
X3836543Y-30240351D01*
X11912500Y-30823500D02*
X4525902Y-30823500D01*
X4525902Y-30823500D02*
X4101500Y-30399098D01*
X4071500Y-29403106D02*
X4071500Y-30003302D01*
X5221000Y-18087000D02*
X3630000Y-18087000D01*
X5296000Y-18792000D02*
X5296000Y-18162000D01*
X3630000Y-18087000D02*
X1905000Y-19812000D01*
X4071500Y-30003302D02*
X4071500Y-28708000D01*
X3664000Y-22982000D02*
X3664000Y-22352000D01*
X1905000Y-19812000D02*
X1905000Y-22860000D01*
X4071500Y-30003302D02*
X3836543Y-30238259D01*
X4475922Y-20910078D02*
X5204430Y-20910078D01*
X5204430Y-20910078D02*
X5628832Y-21334480D01*
X4101500Y-30399098D02*
X4101500Y-30033302D01*
X4146000Y-28633500D02*
X3129500Y-28633500D01*
X4146000Y-28633500D02*
X4146000Y-29328606D01*
%TO.N,Net-(C27-Pad1)*%
X6849402Y-15621000D02*
X7904000Y-14566402D01*
X2195000Y-14535000D02*
X3281000Y-15621000D01*
X-3950000Y-53975000D02*
X-3950000Y-53226000D01*
X3810000Y-16256000D02*
X3281000Y-15727000D01*
X-3950000Y-53226000D02*
X-3048000Y-52324000D01*
X3281000Y-15727000D02*
X3281000Y-15621000D01*
X3281000Y-15621000D02*
X6849402Y-15621000D01*
X2030000Y-14535000D02*
X2195000Y-14535000D01*
X7904000Y-14566402D02*
X7904000Y-13530500D01*
%TO.N,Net-(C27-Pad2)*%
X-15846600Y-53822600D02*
X-15846600Y-55724600D01*
X8554000Y-13530500D02*
X8554000Y-14941000D01*
X-15846600Y-53822600D02*
X-14868800Y-54800400D01*
X8554000Y-14941000D02*
X8509000Y-14986000D01*
X-14868800Y-54800400D02*
X-3225400Y-54800400D01*
X-3225400Y-54800400D02*
X-2400000Y-53975000D01*
X-15846600Y-55724600D02*
X-15875000Y-55753000D01*
D46*
%TO.N,Net-(RN2-Pad6)*%
X3664000Y-46862000D02*
X3664000Y-47496000D01*
X6377500Y-46736000D02*
X3790000Y-46736000D01*
X8958500Y-44155000D02*
X6377500Y-46736000D01*
X3790000Y-46736000D02*
X3664000Y-46862000D01*
X8958500Y-43505000D02*
X8958500Y-44155000D01*
D45*
%TO.N,Net-(C28-Pad1)*%
X7015000Y-70162500D02*
X7015000Y-70851041D01*
X9144000Y-72263000D02*
X9144000Y-71006000D01*
X7015000Y-69055032D02*
X6940938Y-68980970D01*
X9976000Y-73095000D02*
X9144000Y-72263000D01*
X2413000Y-67305500D02*
X1975000Y-66867500D01*
X9144000Y-71006000D02*
X9271000Y-70879000D01*
X10670000Y-73095000D02*
X9976000Y-73095000D01*
X7388959Y-71225000D02*
X8925000Y-71225000D01*
X7015000Y-70851041D02*
X7388959Y-71225000D01*
X1975000Y-66867500D02*
X1975000Y-66165000D01*
X7015000Y-70162500D02*
X7015000Y-69055032D01*
X8925000Y-71225000D02*
X9271000Y-70879000D01*
%TO.N,Net-(C28-Pad2)*%
X9054500Y-67009902D02*
X9360000Y-66704402D01*
X-1903000Y-64645000D02*
X-2921000Y-63627000D01*
X-2921000Y-62484000D02*
X-2540000Y-62103000D01*
X825000Y-60960000D02*
X-318000Y-62103000D01*
X7665000Y-70162500D02*
X8437500Y-70162500D01*
X1975000Y-64645000D02*
X-1903000Y-64645000D01*
X9360000Y-66704402D02*
X9360000Y-63940000D01*
X3584436Y-62496800D02*
X2047636Y-60960000D01*
X-318000Y-62103000D02*
X-2540000Y-62103000D01*
X7713068Y-62496800D02*
X3584436Y-62496800D01*
X7735581Y-62519313D02*
X7713068Y-62496800D01*
X7665000Y-70162500D02*
X9054500Y-68773000D01*
X9054500Y-68773000D02*
X9054500Y-67009902D01*
X9360000Y-63940000D02*
X7939313Y-62519313D01*
X7939313Y-62519313D02*
X7735581Y-62519313D01*
X8437500Y-70162500D02*
X9271000Y-69329000D01*
X2047636Y-60960000D02*
X825000Y-60960000D01*
X-2921000Y-63627000D02*
X-2921000Y-62484000D01*
%TO.N,Net-(C29-Pad1)*%
X7423000Y-84525000D02*
X10098598Y-84525000D01*
X10825000Y-82571402D02*
X10825000Y-81592500D01*
X7423000Y-84525000D02*
X7423000Y-84766000D01*
X10098598Y-84525000D02*
X11138500Y-83485098D01*
X11138500Y-82884902D02*
X10825000Y-82571402D01*
X11138500Y-83485098D02*
X11138500Y-82884902D01*
X-2794000Y-67948350D02*
X-2412217Y-67566567D01*
X5205000Y-84525000D02*
X7423000Y-84525000D01*
X7423000Y-84766000D02*
X7747000Y-85090000D01*
X-2794000Y-68961000D02*
X-2794000Y-67948350D01*
%TO.N,Net-(C29-Pad2)*%
X-17421200Y-68764000D02*
X-5159650Y-68764000D01*
X-4699000Y-69088000D02*
X-5023000Y-68764000D01*
X11475000Y-82156936D02*
X11620718Y-82302654D01*
X11475000Y-81592500D02*
X11475000Y-82156936D01*
X-18621200Y-67564000D02*
X-17421200Y-68764000D01*
X13462000Y-91313000D02*
X9779000Y-91313000D01*
X-5159650Y-68764000D02*
X-3962217Y-67566567D01*
X-5023000Y-68764000D02*
X-5159650Y-68764000D01*
%TO.N,Net-(RN4-Pad1)*%
X8255000Y-6115959D02*
X7254000Y-7116959D01*
X7254000Y-7116959D02*
X7254000Y-7805500D01*
X8255000Y-3755000D02*
X8255000Y-6115959D01*
X6496000Y-2796000D02*
X7296000Y-2796000D01*
X7296000Y-2796000D02*
X8255000Y-3755000D01*
%TO.N,Net-(RN4-Pad3)*%
X4896000Y-2796000D02*
X5696000Y-2796000D01*
X2667000Y-5715000D02*
X2794000Y-5842000D01*
X2667000Y-3683000D02*
X2667000Y-5715000D01*
X5954000Y-6081000D02*
X5954000Y-7805500D01*
X3554000Y-2796000D02*
X2667000Y-3683000D01*
X5715000Y-5842000D02*
X5954000Y-6081000D01*
X2794000Y-5842000D02*
X5715000Y-5842000D01*
X4896000Y-2796000D02*
X3554000Y-2796000D01*
%TO.N,Net-(C30-Pad1)*%
X3720500Y-67555500D02*
X2775000Y-66610000D01*
X8890000Y-72771000D02*
X3429000Y-72771000D01*
X4415000Y-68304598D02*
X3720500Y-67610098D01*
X10014000Y-73895000D02*
X8890000Y-72771000D01*
X10670000Y-73895000D02*
X10014000Y-73895000D01*
X3720500Y-67610098D02*
X3720500Y-67555500D01*
X4415000Y-70851041D02*
X4415000Y-70162500D01*
X3117041Y-72149000D02*
X4415000Y-70851041D01*
X4415000Y-70162500D02*
X4415000Y-68304598D01*
X3117041Y-72459041D02*
X3117041Y-72149000D01*
X2775000Y-66610000D02*
X2775000Y-66165000D01*
X3429000Y-72771000D02*
X3117041Y-72459041D01*
X1905000Y-72149000D02*
X3117041Y-72149000D01*
%TO.N,Net-(C30-Pad2)*%
X1905000Y-70599000D02*
X1918000Y-70599000D01*
X2794000Y-71247000D02*
X2553000Y-71247000D01*
X2775000Y-63989000D02*
X2775000Y-64645000D01*
X762000Y-75502000D02*
X762000Y-74168000D01*
X2413000Y-70104000D02*
X3706500Y-70104000D01*
X2553000Y-71247000D02*
X1905000Y-70599000D01*
X95999Y-73501999D02*
X95999Y-70867094D01*
X762000Y-74168000D02*
X95999Y-73501999D01*
X1918000Y-70599000D02*
X2413000Y-70104000D01*
X2413000Y-63627000D02*
X2775000Y-63989000D01*
X3706500Y-70104000D02*
X3765000Y-70162500D01*
X825000Y-75565000D02*
X762000Y-75502000D01*
%TO.N,Net-(RN9-Pad5)*%
X4796000Y-28633500D02*
X4796000Y-30069000D01*
X4953000Y-22352000D02*
X5264000Y-22352000D01*
X4953000Y-22352000D02*
X4953000Y-21683246D01*
X4953000Y-21683246D02*
X4910676Y-21640922D01*
X4464000Y-22352000D02*
X4953000Y-22352000D01*
X4796000Y-30069000D02*
X4826000Y-30099000D01*
%TO.N,Net-(C31-Pad1)*%
X-2400000Y-81280000D02*
X-2400000Y-81293000D01*
X4500000Y-84019000D02*
X5550500Y-82968500D01*
X8225000Y-82452310D02*
X8225000Y-81592500D01*
X4500000Y-84019000D02*
X3898508Y-83417508D01*
X4500000Y-85250000D02*
X4500000Y-84019000D01*
X4575000Y-85325000D02*
X4500000Y-85250000D01*
X3898508Y-83417508D02*
X3688988Y-83417508D01*
X-2400000Y-81293000D02*
X-1397000Y-82296000D01*
X5205000Y-85325000D02*
X4575000Y-85325000D01*
X5550500Y-82968500D02*
X7708810Y-82968500D01*
X7708810Y-82968500D02*
X8225000Y-82452310D01*
%TO.N,Net-(C31-Pad2)*%
X-18646600Y-81330800D02*
X-17446600Y-82530800D01*
X-3950000Y-81775000D02*
X-3302000Y-82423000D01*
X6731000Y-81788000D02*
X7379500Y-81788000D01*
X-3950000Y-81280000D02*
X-3950000Y-81775000D01*
X-5314800Y-82530800D02*
X-4064000Y-81280000D01*
X-4064000Y-81280000D02*
X-3950000Y-81280000D01*
X-17446600Y-82530800D02*
X-5314800Y-82530800D01*
X7379500Y-81788000D02*
X7575000Y-81592500D01*
%TO.N,Net-(C32-Pad1)*%
X4415000Y-75887500D02*
X4415000Y-75198959D01*
X3575000Y-66440000D02*
X4445000Y-67310000D01*
X8788500Y-73443500D02*
X10040000Y-74695000D01*
X4077000Y-77724000D02*
X4415000Y-77386000D01*
X5169500Y-73443500D02*
X8788500Y-73443500D01*
X4445000Y-75168959D02*
X4445000Y-74168000D01*
X4415000Y-75198959D02*
X4445000Y-75168959D01*
X10040000Y-74695000D02*
X10670000Y-74695000D01*
X4445000Y-74168000D02*
X5169500Y-73443500D01*
X3575000Y-66165000D02*
X3575000Y-66440000D01*
X3810000Y-73533000D02*
X4445000Y-74168000D01*
X4415000Y-77386000D02*
X4415000Y-75887500D01*
%TO.N,Net-(C32-Pad2)*%
X508000Y-80540248D02*
X508000Y-79743000D01*
X960000Y-73082500D02*
X960000Y-65935000D01*
X3765000Y-75887500D02*
X960000Y-73082500D01*
X3500000Y-65350000D02*
X3575000Y-65275000D01*
X164500Y-80883748D02*
X508000Y-80540248D01*
X3575000Y-65275000D02*
X3575000Y-64645000D01*
X508000Y-79743000D02*
X2527000Y-77724000D01*
X3765000Y-75887500D02*
X3765000Y-76486000D01*
X960000Y-65935000D02*
X1545000Y-65350000D01*
X164500Y-87604500D02*
X164500Y-80883748D01*
X1545000Y-65350000D02*
X3500000Y-65350000D01*
X3765000Y-76486000D02*
X2527000Y-77724000D01*
X825000Y-88265000D02*
X164500Y-87604500D01*
D46*
%TO.N,/VREFH*%
X4675000Y-51390000D02*
X4675000Y-50327427D01*
X16107500Y-42765000D02*
X16207500Y-42865000D01*
X12226000Y-42765000D02*
X13970000Y-42765000D01*
X4675000Y-50327427D02*
X5425500Y-49576927D01*
X5425500Y-47657500D02*
X5264000Y-47496000D01*
X5264000Y-47496000D02*
X5353500Y-47406500D01*
X7584500Y-47406500D02*
X12001500Y-42989500D01*
X11938000Y-43053000D02*
X12001500Y-42989500D01*
X11938000Y-44895000D02*
X11938000Y-43053000D01*
X5353500Y-47406500D02*
X7584500Y-47406500D01*
X12001500Y-42989500D02*
X12226000Y-42765000D01*
X16375000Y-41275000D02*
X16375000Y-42697500D01*
X16375000Y-42697500D02*
X16207500Y-42865000D01*
X13970000Y-42765000D02*
X16107500Y-42765000D01*
X5425500Y-49576927D02*
X5425500Y-47657500D01*
D45*
%TO.N,Net-(RN10-Pad7)*%
X7031098Y-67907500D02*
X8020000Y-66918598D01*
X8820000Y-66165000D02*
X8020000Y-66165000D01*
X6989810Y-67907500D02*
X7031098Y-67907500D01*
X6365000Y-70162500D02*
X6365000Y-71262000D01*
X6365000Y-70162500D02*
X6365000Y-69429630D01*
X10414000Y-83185000D02*
X10175000Y-82946000D01*
X6365000Y-69429630D02*
X6216438Y-69281068D01*
X6216438Y-69281068D02*
X6216438Y-68680872D01*
X10175000Y-82946000D02*
X10175000Y-81592500D01*
X8020000Y-66918598D02*
X8020000Y-66165000D01*
X6216438Y-68680872D02*
X6989810Y-67907500D01*
X6365000Y-71262000D02*
X6477000Y-71374000D01*
%TO.N,Net-(RN14-Pad5)*%
X5713000Y-79250000D02*
X5778500Y-79184500D01*
X10175000Y-87317500D02*
X10175000Y-86628959D01*
X11428690Y-79523000D02*
X6117000Y-79523000D01*
X5010000Y-79250000D02*
X5713000Y-79250000D01*
X12794719Y-84009240D02*
X12794719Y-80889029D01*
X6117000Y-79523000D02*
X5778500Y-79184500D01*
X12794719Y-80889029D02*
X11428690Y-79523000D01*
X10175000Y-86628959D02*
X12794719Y-84009240D01*
X6365000Y-78598000D02*
X6365000Y-75887500D01*
X4210000Y-79250000D02*
X5010000Y-79250000D01*
X5778500Y-79184500D02*
X6365000Y-78598000D01*
%TO.N,Net-(RN14-Pad7)*%
X4609500Y-78523500D02*
X4631500Y-78545500D01*
X12345218Y-83158741D02*
X8875000Y-86628959D01*
X3410000Y-79250000D02*
X2610000Y-79250000D01*
X8875000Y-86628959D02*
X8875000Y-87317500D01*
X3410000Y-79250000D02*
X3410000Y-78886000D01*
X5065000Y-78112000D02*
X5065000Y-75887500D01*
X3410000Y-79880000D02*
X3540000Y-80010000D01*
X3410000Y-79250000D02*
X3410000Y-79880000D01*
X12345218Y-81075218D02*
X12345218Y-83158741D01*
X3772500Y-78523500D02*
X4609500Y-78523500D01*
X4631500Y-78545500D02*
X5065000Y-78112000D01*
X3410000Y-78886000D02*
X3772500Y-78523500D01*
X3540000Y-80010000D02*
X11280000Y-80010000D01*
X11280000Y-80010000D02*
X12345218Y-81075218D01*
%TO.N,Net-(RN10-Pad5)*%
X5065000Y-70162500D02*
X5065000Y-67685000D01*
X8875000Y-82438000D02*
X7620000Y-83693000D01*
X8875000Y-81592500D02*
X8875000Y-82438000D01*
X6731000Y-67183000D02*
X6731000Y-66476000D01*
X5065000Y-67685000D02*
X6420000Y-66330000D01*
X7220000Y-66165000D02*
X6420000Y-66165000D01*
X6420000Y-66330000D02*
X6420000Y-66165000D01*
X6731000Y-66476000D02*
X6420000Y-66165000D01*
D47*
%TO.N,Net-(D2-Pad1)*%
X14605000Y-104135000D02*
X9660000Y-104135000D01*
X17145000Y-104135000D02*
X14605000Y-104135000D01*
X9660000Y-104135000D02*
X9525000Y-104270000D01*
D45*
%TO.N,Net-(D2-Pad2)*%
X9525000Y-100762952D02*
X8407500Y-99645452D01*
X9525000Y-101470000D02*
X9525000Y-100762952D01*
%TD*%
M02*
